# https://github.com/mikedh/trimesh

o tmpqnxr_21a.stl
v 34.00000000 3.44953394 15.99939728
v 34.00000000 3.42499995 16.00000000
v 128.93466187 3.42499995 16.00000000
v 128.93466187 3.44953394 15.99939728
v 34.00000000 3.47400856 15.99759197
v 128.93466187 3.47400856 15.99759197
v 34.00000000 3.49836516 15.99458790
v 128.93466187 3.49836516 15.99458790
v 34.00000000 3.52254510 15.99039268
v 128.93466187 3.52254510 15.99039268
v 34.00000000 3.54649019 15.98501587
v 128.93466187 3.54649019 15.98501587
v 34.00000000 3.57014227 15.97846985
v 128.93466187 3.57014227 15.97846985
v 34.00000000 3.59344482 15.97077179
v 128.93466187 3.59344482 15.97077179
v 34.00000000 3.61634183 15.96193981
v 128.93466187 3.61634183 15.96193981
v 34.00000000 3.63877749 15.95199490
v 128.93466187 3.63877749 15.95199490
v 34.00000000 3.66069841 15.94096088
v 128.93466187 3.66069841 15.94096088
v 34.00000000 3.68205142 15.92886448
v 128.93466187 3.68205142 15.92886448
v 34.00000000 3.70278502 15.91573524
v 128.93466187 3.70278502 15.91573524
v 34.00000000 3.72284961 15.90160370
v 128.93466187 3.72284961 15.90160370
v 34.00000000 3.74219656 15.88650513
v 128.93466187 3.74219656 15.88650513
v 34.00000000 3.76077938 15.87047577
v 128.93466187 3.76077938 15.87047577
v 34.00000000 3.77855349 15.85355377
v 128.93466187 3.77855349 15.85355377
v 34.00000000 3.79547548 15.83577919
v 128.93466187 3.79547548 15.83577919
v 34.00000000 3.81150532 15.81719685
v 128.93466187 3.81150532 15.81719685
v 34.00000000 3.82660365 15.79784966
v 128.93466187 3.82660365 15.79784966
v 34.00000000 3.84073472 15.77778530
v 128.93466187 3.84073472 15.77778530
v 34.00000000 3.85386419 15.75705147
v 128.93466187 3.85386419 15.75705147
v 34.00000000 3.86596060 15.73569870
v 128.93466187 3.86596060 15.73569870
v 34.00000000 3.87699461 15.71377754
v 128.93466187 3.87699461 15.71377754
v 34.00000000 3.88693976 15.69134140
v 128.93466187 3.88693976 15.69134140
v 34.00000000 3.89577198 15.66844463
v 128.93466187 3.89577198 15.66844463
v 34.00000000 3.90347028 15.64514256
v 128.93466187 3.90347028 15.64514256
v 34.00000000 3.91001558 15.62149048
v 128.93466187 3.91001558 15.62149048
v 34.00000000 3.91539264 15.59754562
v 128.93466187 3.91539264 15.59754562
v 34.00000000 3.91958833 15.57336521
v 128.93466187 3.91958833 15.57336521
v 34.00000000 3.92259240 15.54900837
v 128.93466187 3.92259240 15.54900837
v 34.00000000 3.92439771 15.52453423
v 128.93466187 3.92439771 15.52453423
v 34.00000000 3.92499995 15.50000000
v 128.93466187 3.92499995 15.50000000
v 34.00000000 3.92499995 14.42500019
v 128.93466187 3.92499995 14.42500019
v 128.93466187 14.73141479 13.11639881
v 128.93466187 14.60690212 13.26811790
v 128.93466187 14.53921318 13.33921337
v 128.93466187 14.67102051 13.19378662
v 128.93466187 14.84045696 12.95320511
v 128.93466187 14.78793907 13.03614044
v 128.93466187 14.06779385 13.68884277
v 128.93466187 14.23614025 13.58793926
v 128.93466187 14.15320587 13.64045715
v 128.93466187 14.31639862 13.53141499
v 128.93466187 14.39378643 13.47102070
v 128.93466187 14.46811771 13.40690231
v 128.93466187 15.00808811 12.59877968
v 128.93466187 14.93297863 12.78011036
v 128.93466187 14.88884258 12.86779308
v 128.93466187 14.97275925 12.69036674
v 128.93466187 13.79877949 13.80808830
v 128.93466187 13.98011017 13.73297882
v 128.93466187 13.89036655 13.77275944
v 128.93466187 15.06506252 12.41096020
v 128.93466187 15.03888035 12.50556946
v 128.93466187 13.61096001 13.86506271
v 128.93466187 13.70556927 13.83888054
v 128.93466187 15.10335255 12.21846104
v 128.93466187 15.08657074 12.31518078
v 128.93466187 13.41846085 13.90335274
v 128.93466187 13.51518059 13.88657093
v 128.93466187 15.12500000 11.92500019
v 128.93466187 15.11536980 12.12103462
v 128.93466187 15.12259102 12.02313519
v 128.93466187 13.12500000 13.92500019
v 128.93466187 13.32103443 13.91536903
v 128.93466187 13.22313499 13.92259121
v 128.93466187 15.12500000 11.00000000
v 128.93466187 7.92500019 11.00000000
v 128.93466187 4.42500019 13.92500019
v 128.93466187 0.00000000 16.00000000
v 128.93466187 3.92560220 14.40046597
v 128.93466187 3.92740774 14.37599182
v 128.93466187 3.93041182 14.35163498
v 128.93466187 3.93460727 14.32745457
v 128.93466187 3.93998432 14.30350971
v 128.93466187 3.94652987 14.27985764
v 128.93466187 3.95422792 14.25655460
v 128.93466187 3.96306014 14.23365784
v 128.93466187 3.97300529 14.21122265
v 128.93466187 3.98403931 14.18930149
v 128.93466187 3.99613571 14.16794872
v 128.93466187 4.00926542 14.14721489
v 128.93466187 4.02339602 14.12715054
v 128.93466187 4.03849459 14.10780334
v 128.93466187 7.91850567 6.54155588
v 128.93466187 7.92427731 6.60015345
v 128.93466187 7.92500019 6.62959433
v 128.93466187 7.92211103 6.57078409
v 128.93466187 7.89916420 6.45542336
v 128.93466187 7.91347122 6.51253986
v 128.93466187 7.90701866 6.48380613
v 128.93466187 7.87932777 6.39998388
v 128.93466187 7.88992643 6.42746019
v 128.93466187 7.85415268 6.34675598
v 128.93466187 7.86739349 6.37306118
v 128.93466187 7.80692434 6.27217436
v 128.93466187 7.83963728 6.32113266
v 128.93466187 7.82388163 6.29625225
v 128.93466187 7.76957083 6.22665882
v 128.93466187 7.78880644 6.24895811
v 128.93466187 7.74926424 6.20532990
v 128.93466187 7.72793531 6.18502331
v 128.93466187 7.68241978 6.14766979
v 128.93466187 7.70563602 6.16578770
v 128.93466187 7.65834236 6.13071251
v 128.93466187 7.63346148 6.11495686
v 128.93466187 7.58153296 6.08720064
v 128.93466187 7.60783815 6.10044146
v 128.93466187 7.55461025 6.07526636
v 128.93466187 7.49917078 6.05542994
v 128.93466187 7.52713394 6.06466770
v 128.93466187 7.47078800 6.04757547
v 128.93466187 7.44205427 6.04112291
v 128.93466187 7.41303825 6.03608847
v 128.93466187 7.35444069 6.03031683
v 128.93466187 7.38381052 6.03248310
v 128.93466187 7.29555941 6.03031683
v 128.93466187 7.32499981 6.02959394
v 128.93466187 7.23696184 6.03608847
v 128.93466187 7.26618958 6.03248310
v 128.93466187 7.20794582 6.04112291
v 128.93466187 7.12286615 6.06466770
v 128.93466187 7.17921209 6.04757547
v 128.93466187 7.15082932 6.05542994
v 128.93466187 7.09538984 6.07526636
v 128.93466187 7.04216194 6.10044146
v 128.93466187 7.06846714 6.08720064
v 128.93466187 7.01653814 6.11495686
v 128.93466187 6.99165773 6.13071251
v 128.93466187 6.94436407 6.16578770
v 128.93466187 6.96758032 6.14766979
v 128.93466187 6.92206478 6.18502331
v 128.93466187 4.94926405 8.15680218
v 128.93466187 6.90073586 6.20532990
v 128.93466187 4.92793560 8.17710876
v 128.93466187 4.90563583 8.19634438
v 128.93466187 4.88241959 8.21446228
v 128.93466187 4.85834217 8.23141956
v 128.93466187 4.83346176 8.24717522
v 128.93466187 4.80783796 8.26169109
v 128.93466187 4.78153324 8.27493191
v 128.93466187 4.75461006 8.28686523
v 128.93466187 4.72713375 8.29746437
v 128.93466187 4.69917059 8.30670166
v 128.93466187 4.67078829 8.31455708
v 128.93466187 4.64205408 8.32100868
v 128.93466187 4.61303806 8.32604408
v 128.93466187 4.58381033 8.32964897
v 128.93466187 4.55444050 8.33181477
v 128.93466187 4.52500010 8.33253765
v 128.93466187 4.49555922 8.33181477
v 128.93466187 4.40046597 13.92560196
v 128.93466187 4.46618986 8.32964897
v 128.93466187 4.37599134 13.92740726
v 128.93466187 4.43696165 8.32604408
v 128.93466187 4.35163498 13.93041134
v 128.93466187 4.40794563 8.32100868
v 128.93466187 4.32745504 13.93460751
v 128.93466187 4.37921190 8.31455708
v 128.93466187 4.30350971 13.93998432
v 128.93466187 4.35082912 8.30670166
v 128.93466187 4.27985764 13.94652939
v 128.93466187 4.32286596 8.29746437
v 128.93466187 4.25655508 13.95422840
v 128.93466187 4.29539013 8.28686523
v 128.93466187 4.23365831 13.96306038
v 128.93466187 4.26846695 8.27493191
v 128.93466187 4.21122265 13.97300529
v 128.93466187 4.24216175 8.26169109
v 128.93466187 4.18930149 13.98403931
v 128.93466187 4.21653843 8.24717522
v 128.93466187 4.16794872 13.99613571
v 128.93466187 4.19165802 8.23141956
v 128.93466187 4.14721489 14.00926495
v 128.93466187 4.16758060 8.21446228
v 128.93466187 4.12715054 14.02339649
v 128.93466187 4.14436388 8.19634438
v 128.93466187 4.10780334 14.03849506
v 128.93466187 4.12206459 8.17710876
v 128.93466187 4.08922052 14.05452442
v 128.93466187 4.10073614 8.15680218
v 128.93466187 4.07144642 14.07144642
v 128.93466187 4.08042955 8.13547325
v 128.93466187 4.05452442 14.08922005
v 128.93466187 4.06119394 8.11317348
v 128.93466187 4.04307556 8.08995724
v 128.93466187 4.02611828 8.06587982
v 128.93466187 4.01036263 8.04099941
v 128.93466187 3.99584723 8.01537609
v 128.93466187 3.98260641 7.98907089
v 128.93466187 3.97067237 7.96214771
v 128.93466187 3.96007347 7.93467188
v 128.93466187 3.95083570 7.90670872
v 128.93466187 3.94298124 7.87832594
v 128.93466187 3.93652892 7.84959221
v 128.93466187 3.93149400 7.82057619
v 128.93466187 3.92788911 7.79134798
v 128.93466187 3.92572284 7.76197863
v 128.93466187 3.92499995 7.73253775
v 128.93466187 14.99036980 -12.12103462
v 128.93466187 14.99759102 -12.02313519
v 128.93466187 15.00000000 -11.92500019
v 128.93466187 14.97835255 -12.21846104
v 128.93466187 14.96157074 -12.31518078
v 128.93466187 12.00000000 -9.50000000
v 128.93466187 15.00000000 -9.50000000
v 128.93466187 14.91388035 -12.50556946
v 128.93466187 14.94006252 -12.41096020
v 128.93466187 14.84775925 -12.69036674
v 128.93466187 14.88308811 -12.59877968
v 128.93466187 14.80797863 -12.78011036
v 128.93466187 14.76384258 -12.86779308
v 128.93466187 14.71545696 -12.95320511
v 128.93466187 14.66293907 -13.03614044
v 128.93466187 7.70563602 -6.16578770
v 128.93466187 7.74926424 -6.20532990
v 128.93466187 7.72793531 -6.18502331
v 128.93466187 7.76957083 -6.22665882
v 128.93466187 7.80692434 -6.27217436
v 128.93466187 7.68241978 -6.14766979
v 128.93466187 7.78880644 -6.24895811
v 128.93466187 7.63346148 -6.11495686
v 128.93466187 7.65834236 -6.13071251
v 128.93466187 7.60783815 -6.10044146
v 128.93466187 7.85415268 -6.34675598
v 128.93466187 7.82388163 -6.29625225
v 128.93466187 7.83963728 -6.32113266
v 128.93466187 7.86739349 -6.37306118
v 128.93466187 7.58153296 -6.08720064
v 128.93466187 7.88992643 -6.42746019
v 128.93466187 7.87932777 -6.39998388
v 128.93466187 7.89916420 -6.45542336
v 128.93466187 7.47078800 -6.04757547
v 128.93466187 7.52713394 -6.06466770
v 128.93466187 7.49917078 -6.05542994
v 128.93466187 7.55461025 -6.07526636
v 128.93466187 7.44205427 -6.04112291
v 128.93466187 7.91850567 -6.54155588
v 128.93466187 7.90701866 -6.48380613
v 128.93466187 7.91347122 -6.51253986
v 128.93466187 14.54602051 -13.19378662
v 128.93466187 14.60641479 -13.11639881
v 128.93466187 7.35444069 -6.03031683
v 128.93466187 7.41303825 -6.03608847
v 128.93466187 7.38381052 -6.03248310
v 128.93466187 7.92427731 -6.60015345
v 128.93466187 7.92211103 -6.57078409
v 128.93466187 7.92500019 -6.62959433
v 128.93466187 7.29555941 -6.03031683
v 128.93466187 7.32499981 -6.02959394
v 128.93466187 14.48190212 -13.26811790
v 128.93466187 7.17921209 -6.04757547
v 128.93466187 7.23696184 -6.03608847
v 128.93466187 7.20794582 -6.04112291
v 128.93466187 7.26618958 -6.03248310
v 128.93466187 7.12286615 -6.06466770
v 128.93466187 7.15082932 -6.05542994
v 128.93466187 7.09538984 -6.07526636
v 128.93466187 7.06846714 -6.08720064
v 128.93466187 14.34311771 -13.40690231
v 128.93466187 14.41421318 -13.33921337
v 128.93466187 7.01653814 -6.11495686
v 128.93466187 7.04216194 -6.10044146
v 128.93466187 6.96758032 -6.14766979
v 128.93466187 6.99165773 -6.13071251
v 128.93466187 14.26878643 -13.47102070
v 128.93466187 6.92206478 -6.18502331
v 128.93466187 6.94436407 -6.16578770
v 128.93466187 6.90073586 -6.20532990
v 128.93466187 14.19139862 -13.53141499
v 128.93466187 14.11114025 -13.58793926
v 128.93466187 14.02820587 -13.64045715
v 128.93466187 13.85511017 -13.73297882
v 128.93466187 13.94279385 -13.68884277
v 128.93466187 13.76536655 -13.77275944
v 128.93466187 13.67377949 -13.80808830
v 128.93466187 13.58056927 -13.83888054
v 128.93466187 13.39018059 -13.88657093
v 128.93466187 13.48596001 -13.86506271
v 128.93466187 13.19603443 -13.91536903
v 128.93466187 13.29346085 -13.90335274
v 128.93466187 13.00000000 -13.92500019
v 128.93466187 13.09813499 -13.92259121
v 128.93466187 7.92500019 -9.50000000
v 128.93466187 4.94926405 -8.15680218
v 128.93466187 4.92793560 -8.17710876
v 128.93466187 4.90563583 -8.19634438
v 128.93466187 4.88241959 -8.21446228
v 128.93466187 4.85834217 -8.23141956
v 128.93466187 4.83346176 -8.24717522
v 128.93466187 4.80783796 -8.26169109
v 128.93466187 4.78153324 -8.27493191
v 128.93466187 4.75461006 -8.28686523
v 128.93466187 4.72713375 -8.29746437
v 128.93466187 4.69917059 -8.30670166
v 128.93466187 4.42500019 -13.92500019
v 128.93466187 4.52500010 -8.33253765
v 128.93466187 4.49555922 -8.33181477
v 128.93466187 4.55444050 -8.33181477
v 128.93466187 4.58381033 -8.32964897
v 128.93466187 4.61303806 -8.32604408
v 128.93466187 4.64205408 -8.32100868
v 128.93466187 4.67078829 -8.31455708
v 128.93466187 4.40046597 -13.92560196
v 128.93466187 4.46618986 -8.32964897
v 128.93466187 4.37599134 -13.92740726
v 128.93466187 4.43696165 -8.32604408
v 128.93466187 4.35163498 -13.93041134
v 128.93466187 4.40794563 -8.32100868
v 128.93466187 4.32745504 -13.93460751
v 128.93466187 4.37921190 -8.31455708
v 128.93466187 4.30350971 -13.93998432
v 128.93466187 4.35082912 -8.30670166
v 128.93466187 4.27985764 -13.94652939
v 128.93466187 4.32286596 -8.29746437
v 128.93466187 4.25655508 -13.95422840
v 128.93466187 4.29539013 -8.28686523
v 128.93466187 4.23365831 -13.96306038
v 128.93466187 4.26846695 -8.27493191
v 128.93466187 4.21122265 -13.97300529
v 128.93466187 4.24216175 -8.26169109
v 128.93466187 4.18930149 -13.98403931
v 128.93466187 4.21653843 -8.24717522
v 128.93466187 4.16794872 -13.99613571
v 128.93466187 4.19165802 -8.23141956
v 128.93466187 4.14721489 -14.00926495
v 128.93466187 4.16758060 -8.21446228
v 128.93466187 4.12715054 -14.02339649
v 128.93466187 4.14436388 -8.19634438
v 128.93466187 4.10780334 -14.03849506
v 128.93466187 4.12206459 -8.17710876
v 128.93466187 4.08922052 -14.05452442
v 128.93466187 4.10073614 -8.15680218
v 128.93466187 4.07144642 -14.07144642
v 128.93466187 4.08042955 -8.13547325
v 128.93466187 4.05452442 -14.08922005
v 128.93466187 4.06119394 -8.11317348
v 128.93466187 4.03849459 -14.10780334
v 128.93466187 4.04307556 -8.08995724
v 128.93466187 3.92259240 -15.54900837
v 128.93466187 3.92439771 -15.52453423
v 128.93466187 3.92499995 -15.50000000
v 128.93466187 3.91958833 -15.57336521
v 128.93466187 3.91539264 -15.59754562
v 128.93466187 3.90347028 -15.64514256
v 128.93466187 3.91001558 -15.62149048
v 128.93466187 3.88693976 -15.69134140
v 128.93466187 3.89577198 -15.66844463
v 128.93466187 3.87699461 -15.71377754
v 128.93466187 3.85386419 -15.75705147
v 128.93466187 3.86596060 -15.73569870
v 128.93466187 3.84073472 -15.77778530
v 128.93466187 3.81150532 -15.81719685
v 128.93466187 3.82660365 -15.79784966
v 128.93466187 3.79547548 -15.83577919
v 128.93466187 3.77855349 -15.85355377
v 128.93466187 3.76077938 -15.87047577
v 128.93466187 3.72284961 -15.90160370
v 128.93466187 3.74219656 -15.88650513
v 128.93466187 3.70278502 -15.91573524
v 128.93466187 3.68205142 -15.92886448
v 128.93466187 3.63877749 -15.95199490
v 128.93466187 3.66069841 -15.94096088
v 128.93466187 3.61634183 -15.96193981
v 128.93466187 3.59344482 -15.97077179
v 128.93466187 3.52254510 -15.99039268
v 128.93466187 3.57014227 -15.97846985
v 128.93466187 3.54649019 -15.98501587
v 128.93466187 3.49836516 -15.99458790
v 128.93466187 3.44953394 -15.99939728
v 128.93466187 3.47400856 -15.99759197
v 128.93466187 3.42499995 -16.00000000
v 128.93466187 3.92499995 -14.42500019
v 128.93466187 0.00000000 -16.00000000
v 128.93466187 3.92499995 -7.73253775
v 128.93466187 3.92572284 -7.76197863
v 128.93466187 4.02339602 -14.12715054
v 128.93466187 3.92788911 -7.79134798
v 128.93466187 4.00926542 -14.14721489
v 128.93466187 3.93149400 -7.82057619
v 128.93466187 3.99613571 -14.16794872
v 128.93466187 3.93652892 -7.84959221
v 128.93466187 3.98403931 -14.18930149
v 128.93466187 3.94298124 -7.87832594
v 128.93466187 3.97300529 -14.21122265
v 128.93466187 3.95083570 -7.90670872
v 128.93466187 3.96306014 -14.23365784
v 128.93466187 3.96007347 -7.93467188
v 128.93466187 3.97067237 -7.96214771
v 128.93466187 3.95422792 -14.25655460
v 128.93466187 3.98260641 -7.98907089
v 128.93466187 3.94652987 -14.27985764
v 128.93466187 3.99584723 -8.01537609
v 128.93466187 3.93998432 -14.30350971
v 128.93466187 4.01036263 -8.04099941
v 128.93466187 3.93460727 -14.32745457
v 128.93466187 4.02611828 -8.06587982
v 128.93466187 3.93041182 -14.35163498
v 128.93466187 3.92740774 -14.37599182
v 128.93466187 3.92560220 -14.40046597
v 34.00000000 3.92439771 -15.52453423
v 34.00000000 3.92499995 -15.50000000
v 34.00000000 3.92259240 -15.54900837
v 34.00000000 3.91958833 -15.57336521
v 34.00000000 3.91539264 -15.59754562
v 34.00000000 3.91001558 -15.62149048
v 34.00000000 3.90347028 -15.64514256
v 34.00000000 3.89577198 -15.66844463
v 34.00000000 3.88693976 -15.69134140
v 34.00000000 3.87699461 -15.71377754
v 34.00000000 3.86596060 -15.73569870
v 34.00000000 3.85386419 -15.75705147
v 34.00000000 3.84073472 -15.77778530
v 34.00000000 3.82660365 -15.79784966
v 34.00000000 3.81150532 -15.81719685
v 34.00000000 3.79547548 -15.83577919
v 34.00000000 3.77855349 -15.85355377
v 34.00000000 3.76077938 -15.87047577
v 34.00000000 3.74219656 -15.88650513
v 34.00000000 3.72284961 -15.90160370
v 34.00000000 3.70278502 -15.91573524
v 34.00000000 3.68205142 -15.92886448
v 34.00000000 3.66069841 -15.94096088
v 34.00000000 3.63877749 -15.95199490
v 34.00000000 3.61634183 -15.96193981
v 34.00000000 3.59344482 -15.97077179
v 34.00000000 3.57014227 -15.97846985
v 34.00000000 3.54649019 -15.98501587
v 34.00000000 3.52254510 -15.99039268
v 34.00000000 3.49836516 -15.99458790
v 34.00000000 3.47400856 -15.99759197
v 34.00000000 3.44953394 -15.99939728
v 34.00000000 3.42499995 -16.00000000
v 34.00000000 3.92499995 -14.42500019
v 34.00000000 4.40046597 13.92560196
v 34.00000000 4.42500019 13.92500019
v 34.00000000 4.37599134 13.92740726
v 34.00000000 4.35163498 13.93041134
v 34.00000000 4.32745504 13.93460751
v 34.00000000 4.30350971 13.93998432
v 34.00000000 4.27985764 13.94652939
v 34.00000000 4.25655508 13.95422840
v 34.00000000 4.23365831 13.96306038
v 34.00000000 4.21122265 13.97300529
v 34.00000000 4.18930149 13.98403931
v 34.00000000 4.16794872 13.99613571
v 34.00000000 4.14721489 14.00926495
v 34.00000000 4.12715054 14.02339649
v 34.00000000 4.10780334 14.03849506
v 34.00000000 4.08922052 14.05452442
v 34.00000000 4.07144642 14.07144642
v 34.00000000 4.05452442 14.08922005
v 34.00000000 4.03849459 14.10780334
v 34.00000000 4.02339602 14.12715054
v 34.00000000 4.00926542 14.14721489
v 34.00000000 3.99613571 14.16794872
v 34.00000000 3.98403931 14.18930149
v 34.00000000 3.97300529 14.21122265
v 34.00000000 3.96306014 14.23365784
v 34.00000000 3.95422792 14.25655460
v 34.00000000 3.94652987 14.27985764
v 34.00000000 3.93998432 14.30350971
v 34.00000000 3.93460727 14.32745457
v 34.00000000 3.93041182 14.35163498
v 34.00000000 3.92740774 14.37599182
v 34.00000000 3.92560220 14.40046597
v 34.00000000 13.12500000 13.92500019
v 34.00000000 3.92560220 -14.40046597
v 34.00000000 3.92740774 -14.37599182
v 34.00000000 3.93041182 -14.35163498
v 34.00000000 3.93460727 -14.32745457
v 34.00000000 3.93998432 -14.30350971
v 34.00000000 3.94652987 -14.27985764
v 34.00000000 3.95422792 -14.25655460
v 34.00000000 3.96306014 -14.23365784
v 34.00000000 3.97300529 -14.21122265
v 34.00000000 3.98403931 -14.18930149
v 34.00000000 3.99613571 -14.16794872
v 34.00000000 4.00926542 -14.14721489
v 34.00000000 4.02339602 -14.12715054
v 34.00000000 4.03849459 -14.10780334
v 34.00000000 4.05452442 -14.08922005
v 34.00000000 4.07144642 -14.07144642
v 34.00000000 4.08922052 -14.05452442
v 34.00000000 4.10780334 -14.03849506
v 34.00000000 4.12715054 -14.02339649
v 34.00000000 4.14721489 -14.00926495
v 34.00000000 4.16794872 -13.99613571
v 34.00000000 4.18930149 -13.98403931
v 34.00000000 4.21122265 -13.97300529
v 34.00000000 4.23365831 -13.96306038
v 34.00000000 4.25655508 -13.95422840
v 34.00000000 4.27985764 -13.94652939
v 34.00000000 4.30350971 -13.93998432
v 34.00000000 4.32745504 -13.93460751
v 34.00000000 4.35163498 -13.93041134
v 34.00000000 4.37599134 -13.92740726
v 34.00000000 4.40046597 -13.92560196
v 34.00000000 4.42500019 -13.92500019
v 34.00000000 15.00000000 -11.92500019
v 34.00000000 14.99759102 -12.02313519
v 34.00000000 14.99036980 -12.12103462
v 34.00000000 14.97835255 -12.21846104
v 34.00000000 14.96157074 -12.31518078
v 34.00000000 14.94006252 -12.41096020
v 34.00000000 14.91388035 -12.50556946
v 34.00000000 14.88308811 -12.59877968
v 34.00000000 14.84775925 -12.69036674
v 34.00000000 14.80797863 -12.78011036
v 34.00000000 14.76384258 -12.86779308
v 34.00000000 14.71545696 -12.95320511
v 34.00000000 14.66293907 -13.03614044
v 34.00000000 14.60641479 -13.11639881
v 34.00000000 14.54602051 -13.19378662
v 34.00000000 14.48190212 -13.26811790
v 34.00000000 14.41421318 -13.33921337
v 34.00000000 14.34311771 -13.40690231
v 34.00000000 14.26878643 -13.47102070
v 34.00000000 14.19139862 -13.53141499
v 34.00000000 14.11114025 -13.58793926
v 34.00000000 14.02820587 -13.64045715
v 34.00000000 13.94279385 -13.68884277
v 34.00000000 13.85511017 -13.73297882
v 34.00000000 13.76536655 -13.77275944
v 34.00000000 13.67377949 -13.80808830
v 34.00000000 13.58056927 -13.83888054
v 34.00000000 13.48596001 -13.86506271
v 34.00000000 13.39018059 -13.88657093
v 34.00000000 13.29346085 -13.90335274
v 34.00000000 13.19603443 -13.91536903
v 34.00000000 13.09813499 -13.92259121
v 34.00000000 13.00000000 -13.92500019
v 34.00000000 13.22313499 13.92259121
v 34.00000000 13.32103443 13.91536903
v 34.00000000 13.41846085 13.90335274
v 34.00000000 13.51518059 13.88657093
v 34.00000000 13.61096001 13.86506271
v 34.00000000 13.70556927 13.83888054
v 34.00000000 13.79877949 13.80808830
v 34.00000000 13.89036655 13.77275944
v 34.00000000 13.98011017 13.73297882
v 34.00000000 14.06779385 13.68884277
v 34.00000000 14.15320587 13.64045715
v 34.00000000 14.23614025 13.58793926
v 34.00000000 14.31639862 13.53141499
v 34.00000000 14.39378643 13.47102070
v 34.00000000 14.46811771 13.40690231
v 34.00000000 14.53921318 13.33921337
v 34.00000000 14.60690212 13.26811790
v 34.00000000 14.67102051 13.19378662
v 34.00000000 14.73141479 13.11639881
v 34.00000000 14.78793907 13.03614044
v 34.00000000 14.84045696 12.95320511
v 34.00000000 14.88884258 12.86779308
v 34.00000000 14.93297863 12.78011036
v 34.00000000 14.97275925 12.69036674
v 34.00000000 15.00808811 12.59877968
v 34.00000000 15.03888035 12.50556946
v 34.00000000 15.06506252 12.41096020
v 34.00000000 15.08657074 12.31518078
v 34.00000000 15.10335255 12.21846104
v 34.00000000 15.11536980 12.12103462
v 34.00000000 15.12259102 12.02313519
v 34.00000000 15.12500000 11.92500019
v 34.00000000 15.12500000 11.00000000
v 34.00000000 3.92572284 7.76197863
v 34.00000000 3.92499995 7.73253775
v 34.00000000 3.92788911 7.79134798
v 34.00000000 3.93149400 7.82057619
v 34.00000000 3.93652892 7.84959221
v 34.00000000 3.94298124 7.87832594
v 34.00000000 3.95083570 7.90670872
v 34.00000000 3.96007347 7.93467188
v 34.00000000 3.97067237 7.96214771
v 34.00000000 3.98260641 7.98907089
v 34.00000000 3.99584723 8.01537609
v 34.00000000 4.01036263 8.04099941
v 34.00000000 4.02611828 8.06587982
v 34.00000000 4.04307556 8.08995724
v 34.00000000 4.06119394 8.11317348
v 34.00000000 4.08042955 8.13547325
v 34.00000000 4.10073614 8.15680218
v 34.00000000 4.12206459 8.17710876
v 34.00000000 4.14436388 8.19634438
v 34.00000000 4.16758060 8.21446228
v 34.00000000 4.19165802 8.23141956
v 34.00000000 4.21653843 8.24717522
v 34.00000000 4.24216175 8.26169109
v 34.00000000 4.26846695 8.27493191
v 34.00000000 4.29539013 8.28686523
v 34.00000000 4.32286596 8.29746437
v 34.00000000 4.35082912 8.30670166
v 34.00000000 4.37921190 8.31455708
v 34.00000000 4.40794563 8.32100868
v 34.00000000 4.43696165 8.32604408
v 34.00000000 4.46618986 8.32964897
v 34.00000000 4.49555922 8.33181477
v 34.00000000 4.52500010 8.33253765
v 34.00000000 4.55444050 8.33181477
v 34.00000000 4.58381033 8.32964897
v 34.00000000 4.61303806 8.32604408
v 34.00000000 4.64205408 8.32100868
v 34.00000000 4.67078829 8.31455708
v 34.00000000 4.69917059 8.30670166
v 34.00000000 4.72713375 8.29746437
v 34.00000000 4.75461006 8.28686523
v 34.00000000 4.78153324 8.27493191
v 34.00000000 4.80783796 8.26169109
v 34.00000000 4.83346176 8.24717522
v 34.00000000 4.85834217 8.23141956
v 34.00000000 4.88241959 8.21446228
v 34.00000000 4.90563583 8.19634438
v 34.00000000 4.92793560 8.17710876
v 34.00000000 4.94926405 8.15680218
v 34.00000000 3.92499995 -7.73253775
v 34.00000000 7.92500019 6.62959433
v 34.00000000 7.92427731 6.60015345
v 34.00000000 7.92211103 6.57078409
v 34.00000000 7.91850567 6.54155588
v 34.00000000 7.91347122 6.51253986
v 34.00000000 7.90701866 6.48380613
v 34.00000000 7.89916420 6.45542336
v 34.00000000 7.88992643 6.42746019
v 34.00000000 7.87932777 6.39998388
v 34.00000000 7.86739349 6.37306118
v 34.00000000 7.85415268 6.34675598
v 34.00000000 7.83963728 6.32113266
v 34.00000000 7.82388163 6.29625225
v 34.00000000 7.80692434 6.27217436
v 34.00000000 7.78880644 6.24895811
v 34.00000000 7.76957083 6.22665882
v 34.00000000 7.74926424 6.20532990
v 34.00000000 7.72793531 6.18502331
v 34.00000000 7.70563602 6.16578770
v 34.00000000 7.68241978 6.14766979
v 34.00000000 7.65834236 6.13071251
v 34.00000000 7.63346148 6.11495686
v 34.00000000 7.60783815 6.10044146
v 34.00000000 7.58153296 6.08720064
v 34.00000000 7.55461025 6.07526636
v 34.00000000 7.52713394 6.06466770
v 34.00000000 7.49917078 6.05542994
v 34.00000000 7.47078800 6.04757547
v 34.00000000 7.44205427 6.04112291
v 34.00000000 7.41303825 6.03608847
v 34.00000000 7.38381052 6.03248310
v 34.00000000 7.35444069 6.03031683
v 34.00000000 7.32499981 6.02959394
v 34.00000000 7.29555941 6.03031683
v 34.00000000 7.26618958 6.03248310
v 34.00000000 7.23696184 6.03608847
v 34.00000000 7.20794582 6.04112291
v 34.00000000 7.17921209 6.04757547
v 34.00000000 7.15082932 6.05542994
v 34.00000000 7.12286615 6.06466770
v 34.00000000 7.09538984 6.07526636
v 34.00000000 7.06846714 6.08720064
v 34.00000000 7.04216194 6.10044146
v 34.00000000 7.01653814 6.11495686
v 34.00000000 6.99165773 6.13071251
v 34.00000000 6.96758032 6.14766979
v 34.00000000 6.94436407 6.16578770
v 34.00000000 6.92206478 6.18502331
v 34.00000000 6.90073586 6.20532990
v 34.00000000 4.94926405 -8.15680218
v 34.00000000 4.92793560 -8.17710876
v 34.00000000 4.90563583 -8.19634438
v 34.00000000 4.88241959 -8.21446228
v 34.00000000 4.85834217 -8.23141956
v 34.00000000 4.83346176 -8.24717522
v 34.00000000 4.80783796 -8.26169109
v 34.00000000 4.78153324 -8.27493191
v 34.00000000 4.75461006 -8.28686523
v 34.00000000 4.72713375 -8.29746437
v 34.00000000 4.69917059 -8.30670166
v 34.00000000 4.67078829 -8.31455708
v 34.00000000 4.64205408 -8.32100868
v 34.00000000 4.61303806 -8.32604408
v 34.00000000 4.58381033 -8.32964897
v 34.00000000 4.55444050 -8.33181477
v 34.00000000 4.52500010 -8.33253765
v 34.00000000 4.49555922 -8.33181477
v 34.00000000 4.46618986 -8.32964897
v 34.00000000 4.43696165 -8.32604408
v 34.00000000 4.40794563 -8.32100868
v 34.00000000 4.37921190 -8.31455708
v 34.00000000 4.35082912 -8.30670166
v 34.00000000 4.32286596 -8.29746437
v 34.00000000 4.29539013 -8.28686523
v 34.00000000 4.26846695 -8.27493191
v 34.00000000 4.24216175 -8.26169109
v 34.00000000 4.21653843 -8.24717522
v 34.00000000 4.19165802 -8.23141956
v 34.00000000 4.16758060 -8.21446228
v 34.00000000 4.14436388 -8.19634438
v 34.00000000 4.12206459 -8.17710876
v 34.00000000 4.10073614 -8.15680218
v 34.00000000 4.08042955 -8.13547325
v 34.00000000 4.06119394 -8.11317348
v 34.00000000 4.04307556 -8.08995724
v 34.00000000 4.02611828 -8.06587982
v 34.00000000 4.01036263 -8.04099941
v 34.00000000 3.99584723 -8.01537609
v 34.00000000 3.98260641 -7.98907089
v 34.00000000 3.97067237 -7.96214771
v 34.00000000 3.96007347 -7.93467188
v 34.00000000 3.95083570 -7.90670872
v 34.00000000 3.94298124 -7.87832594
v 34.00000000 3.93652892 -7.84959221
v 34.00000000 3.93149400 -7.82057619
v 34.00000000 3.92788911 -7.79134798
v 34.00000000 3.92572284 -7.76197863
v 34.00000000 6.90073586 -6.20532990
v 34.00000000 6.92206478 -6.18502331
v 34.00000000 6.94436407 -6.16578770
v 34.00000000 6.96758032 -6.14766979
v 34.00000000 6.99165773 -6.13071251
v 34.00000000 7.01653814 -6.11495686
v 34.00000000 7.04216194 -6.10044146
v 34.00000000 7.06846714 -6.08720064
v 34.00000000 7.09538984 -6.07526636
v 34.00000000 7.12286615 -6.06466770
v 34.00000000 7.15082932 -6.05542994
v 34.00000000 7.17921209 -6.04757547
v 34.00000000 7.20794582 -6.04112291
v 34.00000000 7.23696184 -6.03608847
v 34.00000000 7.26618958 -6.03248310
v 34.00000000 7.29555941 -6.03031683
v 34.00000000 7.32499981 -6.02959394
v 34.00000000 7.35444069 -6.03031683
v 34.00000000 7.38381052 -6.03248310
v 34.00000000 7.41303825 -6.03608847
v 34.00000000 7.44205427 -6.04112291
v 34.00000000 7.47078800 -6.04757547
v 34.00000000 7.49917078 -6.05542994
v 34.00000000 7.52713394 -6.06466770
v 34.00000000 7.55461025 -6.07526636
v 34.00000000 7.58153296 -6.08720064
v 34.00000000 7.60783815 -6.10044146
v 34.00000000 7.63346148 -6.11495686
v 34.00000000 7.65834236 -6.13071251
v 34.00000000 7.68241978 -6.14766979
v 34.00000000 7.70563602 -6.16578770
v 34.00000000 7.72793531 -6.18502331
v 34.00000000 7.74926424 -6.20532990
v 34.00000000 7.76957083 -6.22665882
v 34.00000000 7.78880644 -6.24895811
v 34.00000000 7.80692434 -6.27217436
v 34.00000000 7.82388163 -6.29625225
v 34.00000000 7.83963728 -6.32113266
v 34.00000000 7.85415268 -6.34675598
v 34.00000000 7.86739349 -6.37306118
v 34.00000000 7.87932777 -6.39998388
v 34.00000000 7.88992643 -6.42746019
v 34.00000000 7.89916420 -6.45542336
v 34.00000000 7.90701866 -6.48380613
v 34.00000000 7.91347122 -6.51253986
v 34.00000000 7.91850567 -6.54155588
v 34.00000000 7.92211103 -6.57078409
v 34.00000000 7.92427731 -6.60015345
v 34.00000000 7.92500019 -6.62959433
v 126.79356384 9.00000000 -7.25000000
v 125.10618591 9.00000000 -9.50000000
v 127.84275055 9.00000000 -9.50000000
v 126.15538025 9.00000000 -7.25000000
v 35.04919052 9.00000000 -7.25000000
v 36.73656464 9.00000000 -9.50000000
v 35.68737411 9.00000000 -7.25000000
v 34.00000000 9.00000000 -9.50000000
v 123.01378632 9.00000000 -7.25000000
v 124.70115662 9.00000000 -9.50000000
v 123.65196991 9.00000000 -7.25000000
v 121.96459198 9.00000000 -9.50000000
v 38.82896423 9.00000000 -7.25000000
v 37.14159393 9.00000000 -9.50000000
v 39.87815857 9.00000000 -9.50000000
v 38.19078445 9.00000000 -7.25000000
v 119.87219238 9.00000000 -7.25000000
v 121.55957031 9.00000000 -9.50000000
v 120.51037598 9.00000000 -7.25000000
v 118.82299805 9.00000000 -9.50000000
v 41.33237839 9.00000000 -7.25000000
v 43.01975250 9.00000000 -9.50000000
v 41.97055817 9.00000000 -7.25000000
v 40.28318405 9.00000000 -9.50000000
v 117.36878204 9.00000000 -7.25000000
v 115.68141174 9.00000000 -9.50000000
v 118.41797638 9.00000000 -9.50000000
v 116.73059845 9.00000000 -7.25000000
v 44.47396851 9.00000000 -7.25000000
v 46.16134262 9.00000000 -9.50000000
v 45.11215210 9.00000000 -7.25000000
v 43.42477798 9.00000000 -9.50000000
v 113.58901215 9.00000000 -7.25000000
v 115.27638245 9.00000000 -9.50000000
v 114.22718811 9.00000000 -7.25000000
v 112.53981781 9.00000000 -9.50000000
v 47.61556244 9.00000000 -7.25000000
v 49.30293655 9.00000000 -9.50000000
v 48.25374222 9.00000000 -7.25000000
v 46.56637192 9.00000000 -9.50000000
v 111.08559418 9.00000000 -7.25000000
v 109.39822388 9.00000000 -9.50000000
v 112.13478851 9.00000000 -9.50000000
v 110.44741821 9.00000000 -7.25000000
v 50.75715637 9.00000000 -7.25000000
v 52.44453049 9.00000000 -9.50000000
v 51.39533615 9.00000000 -7.25000000
v 49.70796204 9.00000000 -9.50000000
v 107.30582428 9.00000000 -7.25000000
v 108.99319458 9.00000000 -9.50000000
v 107.94400787 9.00000000 -7.25000000
v 106.25662994 9.00000000 -9.50000000
v 53.89874649 9.00000000 -7.25000000
v 55.58612061 9.00000000 -9.50000000
v 54.53693008 9.00000000 -7.25000000
v 52.84955597 9.00000000 -9.50000000
v 104.16423035 9.00000000 -7.25000000
v 105.85160065 9.00000000 -9.50000000
v 104.80241394 9.00000000 -7.25000000
v 103.11503601 9.00000000 -9.50000000
v 57.67852020 9.00000000 -7.25000000
v 55.99114990 9.00000000 -9.50000000
v 58.72771454 9.00000000 -9.50000000
v 57.04034042 9.00000000 -7.25000000
v 101.66082001 9.00000000 -7.25000000
v 99.97344208 9.00000000 -9.50000000
v 102.71001434 9.00000000 -9.50000000
v 101.02263641 9.00000000 -7.25000000
v 60.82011414 9.00000000 -7.25000000
v 59.13274002 9.00000000 -9.50000000
v 61.86930847 9.00000000 -9.50000000
v 60.18193436 9.00000000 -7.25000000
v 97.88104248 9.00000000 -7.25000000
v 99.56842041 9.00000000 -9.50000000
v 98.51922607 9.00000000 -7.25000000
v 96.83185577 9.00000000 -9.50000000
v 63.96170807 9.00000000 -7.25000000
v 62.27433395 9.00000000 -9.50000000
v 65.01090240 9.00000000 -9.50000000
v 63.32352448 9.00000000 -7.25000000
v 94.73945618 9.00000000 -7.25000000
v 96.42682648 9.00000000 -9.50000000
v 95.37763214 9.00000000 -7.25000000
v 93.69026184 9.00000000 -9.50000000
v 67.10330200 9.00000000 -7.25000000
v 65.41592407 9.00000000 -9.50000000
v 68.15248871 9.00000000 -9.50000000
v 66.46511841 9.00000000 -7.25000000
v 91.59786224 9.00000000 -7.25000000
v 93.28523254 9.00000000 -9.50000000
v 92.23603821 9.00000000 -7.25000000
v 90.54866791 9.00000000 -9.50000000
v 70.24489594 9.00000000 -7.25000000
v 68.55751801 9.00000000 -9.50000000
v 71.29408264 9.00000000 -9.50000000
v 69.60671234 9.00000000 -7.25000000
v 88.45626831 9.00000000 -7.25000000
v 90.14363861 9.00000000 -9.50000000
v 89.09445190 9.00000000 -7.25000000
v 87.40707397 9.00000000 -9.50000000
v 73.38648224 9.00000000 -7.25000000
v 71.69911194 9.00000000 -9.50000000
v 74.43567657 9.00000000 -9.50000000
v 72.74830627 9.00000000 -7.25000000
v 85.95285797 9.00000000 -7.25000000
v 84.26548004 9.00000000 -9.50000000
v 87.00204468 9.00000000 -9.50000000
v 85.31467438 9.00000000 -7.25000000
v 76.52807617 9.00000000 -7.25000000
v 74.84070587 9.00000000 -9.50000000
v 77.57727051 9.00000000 -9.50000000
v 75.88990021 9.00000000 -7.25000000
v 82.17308044 9.00000000 -7.25000000
v 83.86045837 9.00000000 -9.50000000
v 82.81126404 9.00000000 -7.25000000
v 81.12388611 9.00000000 -9.50000000
v 79.66967010 9.00000000 -7.25000000
v 77.98229980 9.00000000 -9.50000000
v 80.71886444 9.00000000 -9.50000000
v 79.03148651 9.00000000 -7.25000000
v 36.77928543 12.00000000 -7.25000000
v 37.82847595 12.00000000 -9.50000000
v 35.09191132 12.00000000 -9.50000000
v 36.14110184 12.00000000 -7.25000000
v 43.06246948 12.00000000 -7.25000000
v 44.11166000 12.00000000 -9.50000000
v 41.37509537 12.00000000 -9.50000000
v 42.42428970 12.00000000 -7.25000000
v 49.34565353 12.00000000 -7.25000000
v 50.39484787 12.00000000 -9.50000000
v 47.65827942 12.00000000 -9.50000000
v 48.70747375 12.00000000 -7.25000000
v 55.62884140 12.00000000 -7.25000000
v 56.67803192 12.00000000 -9.50000000
v 53.94146729 12.00000000 -9.50000000
v 54.99065781 12.00000000 -7.25000000
v 61.91202545 12.00000000 -7.25000000
v 62.96121597 12.00000000 -9.50000000
v 60.22465134 12.00000000 -9.50000000
v 61.27384567 12.00000000 -7.25000000
v 68.19521332 12.00000000 -7.25000000
v 69.24440002 12.00000000 -9.50000000
v 66.50783539 12.00000000 -9.50000000
v 67.55702972 12.00000000 -7.25000000
v 74.47839355 12.00000000 -7.25000000
v 75.52758789 12.00000000 -9.50000000
v 72.79102325 12.00000000 -9.50000000
v 73.84021759 12.00000000 -7.25000000
v 80.76158142 12.00000000 -7.25000000
v 81.81077576 12.00000000 -9.50000000
v 79.07421112 12.00000000 -9.50000000
v 80.12339783 12.00000000 -7.25000000
v 87.04476929 12.00000000 -7.25000000
v 88.09395599 12.00000000 -9.50000000
v 85.35739136 12.00000000 -9.50000000
v 86.40658569 12.00000000 -7.25000000
v 93.32794952 12.00000000 -7.25000000
v 94.37714386 12.00000000 -9.50000000
v 91.64057922 12.00000000 -9.50000000
v 92.68977356 12.00000000 -7.25000000
v 99.61113739 12.00000000 -7.25000000
v 100.66033173 12.00000000 -9.50000000
v 97.92376709 12.00000000 -9.50000000
v 98.97295380 12.00000000 -7.25000000
v 105.89432526 12.00000000 -7.25000000
v 106.94351196 12.00000000 -9.50000000
v 104.20694733 12.00000000 -9.50000000
v 105.25614166 12.00000000 -7.25000000
v 112.17750549 12.00000000 -7.25000000
v 113.22669983 12.00000000 -9.50000000
v 110.49013519 12.00000000 -9.50000000
v 111.53932953 12.00000000 -7.25000000
v 118.46069336 12.00000000 -7.25000000
v 119.50988770 12.00000000 -9.50000000
v 116.77332306 12.00000000 -9.50000000
v 117.82250977 12.00000000 -7.25000000
v 124.74388123 12.00000000 -7.25000000
v 125.79306793 12.00000000 -9.50000000
v 123.05650330 12.00000000 -9.50000000
v 124.10569763 12.00000000 -7.25000000
v 127.88546753 12.00000000 -7.25000000
v 126.19809723 12.00000000 -9.50000000
v 127.24729156 12.00000000 -7.25000000
v 121.60228729 12.00000000 -7.25000000
v 122.65148163 12.00000000 -9.50000000
v 119.91490936 12.00000000 -9.50000000
v 120.96410370 12.00000000 -7.25000000
v 115.31909943 12.00000000 -7.25000000
v 116.36829376 12.00000000 -9.50000000
v 113.63172913 12.00000000 -9.50000000
v 114.68091583 12.00000000 -7.25000000
v 109.03591156 12.00000000 -7.25000000
v 110.08510590 12.00000000 -9.50000000
v 107.34854126 12.00000000 -9.50000000
v 108.39773560 12.00000000 -7.25000000
v 102.75273132 12.00000000 -7.25000000
v 103.80192566 12.00000000 -9.50000000
v 101.06535339 12.00000000 -9.50000000
v 102.11454773 12.00000000 -7.25000000
v 96.46954346 12.00000000 -7.25000000
v 97.51873779 12.00000000 -9.50000000
v 94.78217316 12.00000000 -9.50000000
v 95.83135986 12.00000000 -7.25000000
v 90.18635559 12.00000000 -7.25000000
v 91.23554993 12.00000000 -9.50000000
v 88.49898529 12.00000000 -9.50000000
v 89.54817963 12.00000000 -7.25000000
v 83.90317535 12.00000000 -7.25000000
v 84.95236969 12.00000000 -9.50000000
v 82.21579742 12.00000000 -9.50000000
v 83.26499176 12.00000000 -7.25000000
v 77.61998749 12.00000000 -7.25000000
v 78.66918182 12.00000000 -9.50000000
v 75.93261719 12.00000000 -9.50000000
v 76.98180389 12.00000000 -7.25000000
v 71.33679962 12.00000000 -7.25000000
v 72.38599396 12.00000000 -9.50000000
v 69.64942932 12.00000000 -9.50000000
v 70.69862366 12.00000000 -7.25000000
v 65.05361938 12.00000000 -7.25000000
v 66.10281372 12.00000000 -9.50000000
v 63.36624527 12.00000000 -9.50000000
v 64.41543579 12.00000000 -7.25000000
v 58.77043152 12.00000000 -7.25000000
v 59.81962585 12.00000000 -9.50000000
v 57.08305740 12.00000000 -9.50000000
v 58.13225174 12.00000000 -7.25000000
v 52.48724747 12.00000000 -7.25000000
v 53.53643799 12.00000000 -9.50000000
v 50.79987335 12.00000000 -9.50000000
v 51.84906769 12.00000000 -7.25000000
v 46.20406342 12.00000000 -7.25000000
v 47.25325394 12.00000000 -9.50000000
v 44.51668930 12.00000000 -9.50000000
v 45.56587982 12.00000000 -7.25000000
v 39.92087555 12.00000000 -7.25000000
v 40.97006989 12.00000000 -9.50000000
v 38.23350525 12.00000000 -9.50000000
v 39.28269577 12.00000000 -7.25000000
v 34.00000000 15.00000000 -9.50000000
v 127.84275055 15.00000000 -9.50000000
v 36.73656464 15.00000000 -9.50000000
v 35.68737411 15.00000000 -7.25000000
v 35.04919052 15.00000000 -7.25000000
v 43.01975250 15.00000000 -9.50000000
v 41.97055817 15.00000000 -7.25000000
v 41.33237839 15.00000000 -7.25000000
v 40.28318405 15.00000000 -9.50000000
v 49.30293655 15.00000000 -9.50000000
v 48.25374222 15.00000000 -7.25000000
v 47.61556244 15.00000000 -7.25000000
v 46.56637192 15.00000000 -9.50000000
v 55.58612061 15.00000000 -9.50000000
v 54.53693008 15.00000000 -7.25000000
v 53.89874649 15.00000000 -7.25000000
v 52.84955597 15.00000000 -9.50000000
v 61.86930847 15.00000000 -9.50000000
v 60.82011414 15.00000000 -7.25000000
v 60.18193436 15.00000000 -7.25000000
v 59.13274002 15.00000000 -9.50000000
v 68.15248871 15.00000000 -9.50000000
v 67.10330200 15.00000000 -7.25000000
v 66.46511841 15.00000000 -7.25000000
v 65.41592407 15.00000000 -9.50000000
v 74.43567657 15.00000000 -9.50000000
v 73.38648224 15.00000000 -7.25000000
v 72.74830627 15.00000000 -7.25000000
v 71.69911194 15.00000000 -9.50000000
v 80.71886444 15.00000000 -9.50000000
v 79.66967010 15.00000000 -7.25000000
v 79.03148651 15.00000000 -7.25000000
v 77.98229980 15.00000000 -9.50000000
v 87.00204468 15.00000000 -9.50000000
v 85.95285797 15.00000000 -7.25000000
v 85.31467438 15.00000000 -7.25000000
v 84.26548004 15.00000000 -9.50000000
v 93.28523254 15.00000000 -9.50000000
v 92.23603821 15.00000000 -7.25000000
v 91.59786224 15.00000000 -7.25000000
v 90.54866791 15.00000000 -9.50000000
v 99.56842041 15.00000000 -9.50000000
v 98.51922607 15.00000000 -7.25000000
v 97.88104248 15.00000000 -7.25000000
v 96.83185577 15.00000000 -9.50000000
v 105.85160065 15.00000000 -9.50000000
v 104.80241394 15.00000000 -7.25000000
v 104.16423035 15.00000000 -7.25000000
v 103.11503601 15.00000000 -9.50000000
v 112.13478851 15.00000000 -9.50000000
v 111.08559418 15.00000000 -7.25000000
v 110.44741821 15.00000000 -7.25000000
v 109.39822388 15.00000000 -9.50000000
v 118.41797638 15.00000000 -9.50000000
v 117.36878204 15.00000000 -7.25000000
v 116.73059845 15.00000000 -7.25000000
v 115.68141174 15.00000000 -9.50000000
v 124.70115662 15.00000000 -9.50000000
v 123.65196991 15.00000000 -7.25000000
v 123.01378632 15.00000000 -7.25000000
v 121.96459198 15.00000000 -9.50000000
v 126.79356384 15.00000000 -7.25000000
v 126.15538025 15.00000000 -7.25000000
v 125.10618591 15.00000000 -9.50000000
v 121.55957031 15.00000000 -9.50000000
v 120.51037598 15.00000000 -7.25000000
v 119.87219238 15.00000000 -7.25000000
v 118.82299805 15.00000000 -9.50000000
v 115.27638245 15.00000000 -9.50000000
v 114.22718811 15.00000000 -7.25000000
v 113.58901215 15.00000000 -7.25000000
v 112.53981781 15.00000000 -9.50000000
v 108.99319458 15.00000000 -9.50000000
v 107.94400787 15.00000000 -7.25000000
v 107.30582428 15.00000000 -7.25000000
v 106.25662994 15.00000000 -9.50000000
v 102.71001434 15.00000000 -9.50000000
v 101.66082001 15.00000000 -7.25000000
v 101.02263641 15.00000000 -7.25000000
v 99.97344208 15.00000000 -9.50000000
v 96.42682648 15.00000000 -9.50000000
v 95.37763214 15.00000000 -7.25000000
v 94.73945618 15.00000000 -7.25000000
v 93.69026184 15.00000000 -9.50000000
v 90.14363861 15.00000000 -9.50000000
v 89.09445190 15.00000000 -7.25000000
v 88.45626831 15.00000000 -7.25000000
v 87.40707397 15.00000000 -9.50000000
v 83.86045837 15.00000000 -9.50000000
v 82.81126404 15.00000000 -7.25000000
v 82.17308044 15.00000000 -7.25000000
v 81.12388611 15.00000000 -9.50000000
v 77.57727051 15.00000000 -9.50000000
v 76.52807617 15.00000000 -7.25000000
v 75.88990021 15.00000000 -7.25000000
v 74.84070587 15.00000000 -9.50000000
v 71.29408264 15.00000000 -9.50000000
v 70.24489594 15.00000000 -7.25000000
v 69.60671234 15.00000000 -7.25000000
v 68.55751801 15.00000000 -9.50000000
v 65.01090240 15.00000000 -9.50000000
v 63.96170807 15.00000000 -7.25000000
v 63.32352448 15.00000000 -7.25000000
v 62.27433395 15.00000000 -9.50000000
v 58.72771454 15.00000000 -9.50000000
v 57.67852020 15.00000000 -7.25000000
v 57.04034042 15.00000000 -7.25000000
v 55.99114990 15.00000000 -9.50000000
v 52.44453049 15.00000000 -9.50000000
v 51.39533615 15.00000000 -7.25000000
v 50.75715637 15.00000000 -7.25000000
v 49.70796204 15.00000000 -9.50000000
v 46.16134262 15.00000000 -9.50000000
v 45.11215210 15.00000000 -7.25000000
v 44.47396851 15.00000000 -7.25000000
v 43.42477798 15.00000000 -9.50000000
v 39.87815857 15.00000000 -9.50000000
v 38.82896423 15.00000000 -7.25000000
v 38.19078445 15.00000000 -7.25000000
v 37.14159393 15.00000000 -9.50000000
v 34.00000000 0.00000000 16.00000000
v 34.00000000 0.00000000 -16.00000000
v 34.00000000 7.92500019 -9.50000000
v 34.00000000 7.92500019 11.00000000
f 1 2 3
f 1 3 4
f 5 4 6
f 5 1 4
f 7 6 8
f 7 5 6
f 9 8 10
f 9 7 8
f 11 10 12
f 11 9 10
f 13 12 14
f 13 11 12
f 15 14 16
f 15 13 14
f 17 16 18
f 17 15 16
f 19 17 18
f 19 18 20
f 21 19 20
f 21 20 22
f 23 21 22
f 23 22 24
f 25 23 24
f 25 24 26
f 27 25 26
f 27 26 28
f 29 27 28
f 29 28 30
f 31 29 30
f 31 30 32
f 33 31 32
f 33 32 34
f 35 33 34
f 35 34 36
f 37 35 36
f 37 36 38
f 39 37 38
f 39 38 40
f 41 39 40
f 41 40 42
f 43 42 44
f 43 41 42
f 45 43 44
f 45 44 46
f 47 46 48
f 47 45 46
f 49 48 50
f 49 47 48
f 51 50 52
f 51 49 50
f 53 52 54
f 53 51 52
f 55 54 56
f 55 53 54
f 57 56 58
f 57 55 56
f 59 58 60
f 59 57 58
f 61 60 62
f 61 59 60
f 63 62 64
f 63 61 62
f 65 63 64
f 65 64 66
f 67 65 66
f 67 66 68
f 69 70 71
f 69 72 70
f 73 74 69
f 75 76 77
f 75 78 76
f 75 79 78
f 75 80 79
f 81 82 83
f 81 84 82
f 85 69 71
f 85 80 75
f 85 86 87
f 85 75 86
f 85 71 80
f 88 89 81
f 90 73 69
f 90 69 85
f 90 85 91
f 90 83 73
f 92 88 81
f 92 81 83
f 92 93 88
f 94 90 95
f 96 92 83
f 96 83 90
f 96 97 92
f 96 98 97
f 99 90 94
f 99 100 101
f 99 94 100
f 99 96 90
f 102 96 99
f 38 36 34
f 40 34 32
f 40 38 34
f 42 40 32
f 44 32 30
f 44 42 32
f 20 24 22
f 52 30 28
f 52 46 44
f 52 48 46
f 52 50 48
f 52 44 30
f 14 18 16
f 14 20 18
f 14 26 24
f 14 28 26
f 14 52 28
f 14 24 20
f 10 14 12
f 10 52 14
f 10 54 52
f 10 56 54
f 8 56 10
f 8 58 56
f 62 60 58
f 4 8 6
f 66 4 3
f 66 8 4
f 66 58 8
f 66 62 58
f 66 64 62
f 103 102 99
f 104 103 99
f 68 66 3
f 105 68 3
f 105 106 68
f 105 107 106
f 105 108 107
f 105 109 108
f 105 110 109
f 105 111 110
f 105 112 111
f 105 113 112
f 105 114 113
f 105 115 114
f 105 116 115
f 105 117 116
f 105 118 117
f 105 119 118
f 120 121 122
f 120 123 121
f 124 120 122
f 124 125 120
f 124 126 125
f 127 124 122
f 127 128 124
f 129 127 122
f 129 130 127
f 131 129 122
f 131 132 129
f 131 133 132
f 134 131 122
f 134 135 131
f 136 134 122
f 137 136 122
f 138 139 137
f 140 137 122
f 140 138 137
f 141 140 122
f 142 143 141
f 144 142 141
f 145 146 144
f 147 145 144
f 148 147 144
f 148 144 141
f 149 141 122
f 149 148 141
f 150 151 149
f 150 149 122
f 152 153 150
f 152 150 122
f 154 155 152
f 156 152 122
f 156 154 152
f 157 158 156
f 157 159 158
f 160 157 156
f 161 162 160
f 163 160 156
f 163 161 160
f 164 156 122
f 164 163 156
f 165 166 164
f 167 165 164
f 167 164 122
f 168 122 103
f 169 122 168
f 169 167 122
f 170 168 103
f 171 170 103
f 172 171 103
f 173 172 103
f 174 173 103
f 175 174 103
f 176 175 103
f 177 176 103
f 178 177 103
f 179 178 103
f 180 179 103
f 181 180 103
f 182 103 104
f 182 181 103
f 183 182 104
f 184 183 104
f 185 184 104
f 186 185 104
f 186 104 187
f 188 186 187
f 188 187 189
f 190 188 189
f 190 189 191
f 192 190 191
f 192 191 193
f 194 192 193
f 194 193 195
f 196 194 195
f 196 195 197
f 198 196 197
f 198 197 199
f 200 198 199
f 200 199 201
f 202 200 201
f 202 201 203
f 204 202 203
f 204 203 205
f 206 204 205
f 206 205 207
f 208 206 207
f 208 207 209
f 210 208 209
f 210 209 211
f 212 210 211
f 212 211 213
f 214 212 213
f 214 213 215
f 216 214 215
f 216 215 217
f 218 216 217
f 218 217 219
f 220 218 219
f 220 219 119
f 221 119 105
f 221 220 119
f 222 221 105
f 223 222 105
f 224 223 105
f 225 224 105
f 226 225 105
f 227 226 105
f 228 227 105
f 229 228 105
f 230 229 105
f 231 230 105
f 232 231 105
f 233 232 105
f 234 233 105
f 235 236 237
f 238 235 237
f 239 238 237
f 240 237 241
f 242 243 239
f 242 239 237
f 244 245 242
f 246 242 237
f 246 244 242
f 247 246 237
f 248 247 237
f 249 248 237
f 250 251 252
f 250 253 251
f 254 253 250
f 254 250 255
f 254 256 253
f 257 255 258
f 259 255 257
f 260 261 254
f 260 262 261
f 263 255 259
f 263 260 254
f 263 259 264
f 263 254 255
f 265 266 263
f 267 265 263
f 268 269 270
f 268 271 269
f 272 263 264
f 272 264 271
f 272 271 268
f 273 274 267
f 273 275 274
f 276 277 249
f 276 249 237
f 278 279 280
f 281 282 273
f 283 281 273
f 284 279 278
f 284 278 285
f 284 272 279
f 284 267 263
f 284 263 272
f 286 276 237
f 287 288 289
f 287 290 288
f 291 287 292
f 293 267 284
f 293 290 287
f 293 287 291
f 293 284 290
f 293 273 267
f 294 273 293
f 295 286 237
f 295 296 286
f 297 294 298
f 297 273 294
f 299 273 297
f 299 297 300
f 301 295 237
f 302 299 303
f 304 273 299
f 304 299 302
f 304 283 273
f 305 301 237
f 306 305 237
f 307 306 237
f 308 309 307
f 308 307 237
f 310 308 237
f 311 310 237
f 312 311 237
f 313 314 312
f 315 316 313
f 315 312 237
f 315 313 312
f 317 318 315
f 317 315 237
f 317 237 240
f 319 317 240
f 320 283 304
f 320 319 283
f 321 319 320
f 322 319 321
f 323 319 322
f 324 319 323
f 325 319 324
f 326 319 325
f 327 319 326
f 328 319 327
f 329 319 328
f 330 319 329
f 331 332 333
f 331 334 332
f 331 335 334
f 331 336 335
f 331 337 336
f 331 338 337
f 331 330 338
f 331 317 319
f 331 319 330
f 339 333 340
f 339 331 333
f 341 340 342
f 341 339 340
f 343 341 342
f 343 342 344
f 345 344 346
f 345 343 344
f 347 346 348
f 347 345 346
f 349 348 350
f 349 347 348
f 351 350 352
f 351 349 350
f 353 352 354
f 353 351 352
f 355 354 356
f 355 353 354
f 357 356 358
f 357 355 356
f 359 358 360
f 359 357 358
f 361 360 362
f 361 359 360
f 363 362 364
f 363 361 362
f 365 364 366
f 365 363 364
f 367 366 368
f 367 365 366
f 369 368 370
f 369 367 368
f 371 369 370
f 371 370 372
f 373 372 374
f 373 371 372
f 375 376 377
f 378 375 377
f 379 378 377
f 380 379 377
f 380 381 379
f 382 380 377
f 382 383 380
f 384 382 377
f 385 386 384
f 387 384 377
f 387 385 384
f 388 389 387
f 390 388 387
f 391 390 387
f 392 387 377
f 392 391 387
f 393 394 392
f 395 393 392
f 396 395 392
f 397 398 396
f 397 396 392
f 399 392 377
f 399 397 392
f 400 399 377
f 401 402 400
f 401 403 402
f 401 400 377
f 404 401 377
f 405 406 404
f 405 404 377
f 407 377 408
f 407 405 377
f 409 410 234
f 409 407 408
f 409 411 410
f 409 412 373
f 409 413 411
f 409 414 412
f 409 415 413
f 409 416 414
f 409 417 415
f 409 418 416
f 409 419 417
f 409 420 418
f 409 421 419
f 409 422 420
f 409 423 421
f 409 424 423
f 409 425 422
f 409 426 424
f 409 427 425
f 409 428 426
f 409 429 427
f 409 430 428
f 409 431 429
f 409 234 105
f 409 432 430
f 409 433 431
f 409 374 432
f 409 434 433
f 409 435 434
f 409 373 374
f 409 408 435
f 436 437 377
f 436 377 376
f 438 376 375
f 438 436 376
f 439 375 378
f 439 438 375
f 440 378 379
f 440 439 378
f 441 379 381
f 441 440 379
f 442 381 380
f 442 441 381
f 443 380 383
f 443 442 380
f 444 383 382
f 444 443 383
f 445 444 382
f 445 382 384
f 446 445 384
f 446 384 386
f 447 446 386
f 447 386 385
f 448 447 385
f 448 385 387
f 449 448 387
f 449 387 389
f 450 449 389
f 450 389 388
f 451 450 388
f 451 388 390
f 452 451 390
f 452 390 391
f 453 452 391
f 453 391 392
f 454 453 392
f 454 392 394
f 455 454 394
f 455 394 393
f 456 455 393
f 456 393 395
f 457 395 396
f 457 456 395
f 458 457 396
f 458 396 398
f 459 398 397
f 459 458 398
f 460 397 399
f 460 459 397
f 461 399 400
f 461 460 399
f 462 400 402
f 462 461 400
f 463 402 403
f 463 462 402
f 464 403 401
f 464 463 403
f 465 401 404
f 465 464 401
f 466 404 406
f 466 465 404
f 467 406 405
f 467 466 406
f 468 467 405
f 468 405 407
f 437 469 408
f 437 408 377
f 470 104 471
f 470 187 104
f 472 189 187
f 472 187 470
f 473 191 189
f 473 189 472
f 474 193 191
f 474 191 473
f 475 195 193
f 475 193 474
f 476 197 195
f 476 195 475
f 477 199 197
f 477 197 476
f 478 199 477
f 478 201 199
f 479 201 478
f 479 203 201
f 480 203 479
f 480 205 203
f 481 205 480
f 481 207 205
f 482 207 481
f 482 209 207
f 483 209 482
f 483 211 209
f 484 211 483
f 484 213 211
f 485 213 484
f 485 215 213
f 486 215 485
f 486 217 215
f 487 217 486
f 487 219 217
f 488 219 487
f 488 119 219
f 489 118 119
f 489 119 488
f 490 117 118
f 490 118 489
f 491 117 490
f 491 116 117
f 492 115 116
f 492 116 491
f 493 115 492
f 493 114 115
f 494 113 114
f 494 114 493
f 495 112 113
f 495 113 494
f 496 111 112
f 496 112 495
f 497 110 111
f 497 111 496
f 498 109 110
f 498 110 497
f 499 108 109
f 499 109 498
f 500 107 108
f 500 108 499
f 501 106 107
f 501 107 500
f 67 68 106
f 67 106 501
f 502 471 104
f 502 104 99
f 503 408 469
f 503 435 408
f 504 434 435
f 504 435 503
f 505 433 434
f 505 434 504
f 506 431 433
f 506 433 505
f 507 429 431
f 507 431 506
f 508 427 429
f 508 429 507
f 509 425 427
f 509 427 508
f 510 425 509
f 510 422 425
f 511 422 510
f 511 420 422
f 512 420 511
f 512 418 420
f 513 418 512
f 513 416 418
f 514 416 513
f 514 414 416
f 515 414 514
f 515 412 414
f 516 412 515
f 516 373 412
f 517 373 516
f 517 371 373
f 518 371 517
f 518 369 371
f 519 369 518
f 519 367 369
f 520 367 519
f 520 365 367
f 521 363 365
f 521 365 520
f 522 361 363
f 522 363 521
f 523 361 522
f 523 359 361
f 524 357 359
f 524 359 523
f 525 357 524
f 525 355 357
f 526 353 355
f 526 355 525
f 527 351 353
f 527 353 526
f 528 349 351
f 528 351 527
f 529 347 349
f 529 349 528
f 530 345 347
f 530 347 529
f 531 343 345
f 531 345 530
f 532 341 343
f 532 343 531
f 533 339 341
f 533 341 532
f 534 331 339
f 534 339 533
f 535 237 236
f 536 236 235
f 536 535 236
f 537 235 238
f 537 536 235
f 538 238 239
f 538 537 238
f 539 239 243
f 539 538 239
f 540 243 242
f 540 539 243
f 541 242 245
f 541 540 242
f 542 245 244
f 542 541 245
f 543 542 244
f 543 244 246
f 544 543 246
f 544 246 247
f 545 544 247
f 545 247 248
f 546 545 248
f 546 248 249
f 547 546 249
f 547 249 277
f 548 547 277
f 548 277 276
f 549 548 276
f 549 276 286
f 550 549 286
f 550 286 296
f 551 550 296
f 551 296 295
f 552 551 295
f 552 295 301
f 553 552 301
f 553 301 305
f 554 553 305
f 554 305 306
f 555 554 306
f 555 306 307
f 556 307 309
f 556 555 307
f 557 309 308
f 557 556 309
f 558 308 310
f 558 557 308
f 559 310 311
f 559 558 310
f 560 311 312
f 560 559 311
f 561 312 314
f 561 560 312
f 562 314 313
f 562 561 314
f 563 313 316
f 563 562 313
f 564 316 315
f 564 563 316
f 565 315 318
f 565 564 315
f 566 318 317
f 566 565 318
f 567 566 317
f 567 317 331
f 534 567 331
f 502 99 101
f 568 101 100
f 568 502 101
f 569 100 94
f 569 568 100
f 570 94 95
f 570 569 94
f 571 95 90
f 571 570 95
f 572 90 91
f 572 571 90
f 573 91 85
f 573 572 91
f 574 85 87
f 574 573 85
f 575 574 87
f 575 87 86
f 576 575 86
f 576 86 75
f 577 576 75
f 577 75 77
f 578 577 77
f 578 77 76
f 579 578 76
f 579 76 78
f 580 579 78
f 580 78 79
f 581 580 79
f 581 79 80
f 582 581 80
f 582 80 71
f 583 582 71
f 583 71 70
f 584 583 70
f 584 70 72
f 585 584 72
f 585 72 69
f 586 585 69
f 586 69 74
f 587 586 74
f 587 74 73
f 588 73 83
f 588 587 73
f 589 83 82
f 589 588 83
f 590 82 84
f 590 589 82
f 591 84 81
f 591 590 84
f 592 81 89
f 592 591 81
f 593 89 88
f 593 592 89
f 594 88 93
f 594 593 88
f 595 93 92
f 595 594 93
f 596 92 97
f 596 595 92
f 597 97 98
f 597 596 97
f 598 98 96
f 598 597 98
f 599 598 96
f 600 599 96
f 600 96 102
f 601 234 602
f 601 233 234
f 603 233 601
f 603 232 233
f 604 232 603
f 604 231 232
f 605 231 604
f 605 230 231
f 606 230 605
f 606 229 230
f 607 229 606
f 607 228 229
f 608 228 607
f 608 227 228
f 609 227 608
f 609 226 227
f 610 226 609
f 610 225 226
f 611 225 610
f 611 224 225
f 612 224 611
f 612 223 224
f 613 223 612
f 613 222 223
f 614 222 613
f 614 221 222
f 615 221 614
f 615 220 221
f 616 220 615
f 616 218 220
f 617 218 616
f 617 216 218
f 618 216 617
f 618 214 216
f 619 214 618
f 619 212 214
f 620 210 212
f 620 212 619
f 621 208 210
f 621 210 620
f 622 206 208
f 622 208 621
f 623 204 206
f 623 206 622
f 624 202 204
f 624 204 623
f 625 200 202
f 625 202 624
f 626 200 625
f 626 198 200
f 627 198 626
f 627 196 198
f 628 196 627
f 628 194 196
f 629 194 628
f 629 192 194
f 630 192 629
f 630 190 192
f 631 190 630
f 631 188 190
f 632 188 631
f 632 186 188
f 633 186 632
f 633 185 186
f 634 185 633
f 634 184 185
f 635 184 634
f 635 183 184
f 636 183 635
f 636 182 183
f 637 182 636
f 637 181 182
f 638 181 637
f 638 180 181
f 639 180 638
f 639 179 180
f 640 178 179
f 640 179 639
f 641 177 178
f 641 178 640
f 642 176 177
f 642 177 641
f 643 175 176
f 643 176 642
f 644 174 175
f 644 175 643
f 645 173 174
f 645 174 644
f 646 172 173
f 646 173 645
f 647 171 172
f 647 172 646
f 648 170 171
f 648 171 647
f 649 170 648
f 649 168 170
f 650 602 234
f 650 234 410
f 651 122 121
f 652 651 121
f 652 121 123
f 653 652 123
f 653 123 120
f 654 653 120
f 654 120 125
f 655 654 125
f 655 125 126
f 656 655 126
f 656 126 124
f 657 656 124
f 657 124 128
f 658 657 128
f 658 128 127
f 659 658 127
f 659 127 130
f 660 659 130
f 660 130 129
f 661 660 129
f 661 129 132
f 662 661 132
f 662 132 133
f 663 662 133
f 663 133 131
f 664 663 131
f 664 131 135
f 665 664 135
f 665 135 134
f 666 134 136
f 666 665 134
f 667 136 137
f 667 666 136
f 668 137 139
f 668 667 137
f 669 139 138
f 669 668 139
f 670 138 140
f 670 669 138
f 671 140 141
f 671 670 140
f 672 141 143
f 672 671 141
f 673 143 142
f 673 672 143
f 674 142 144
f 674 673 142
f 675 144 146
f 675 674 144
f 676 675 146
f 676 146 145
f 677 676 145
f 677 145 147
f 678 677 147
f 678 147 148
f 679 678 148
f 679 148 149
f 680 679 149
f 680 149 151
f 681 680 151
f 681 151 150
f 682 681 150
f 682 150 153
f 683 682 153
f 683 153 152
f 684 683 152
f 684 152 155
f 685 684 155
f 685 155 154
f 686 685 154
f 686 154 156
f 687 686 156
f 687 156 158
f 688 687 158
f 688 158 159
f 689 688 159
f 689 159 157
f 690 689 157
f 690 157 160
f 691 690 160
f 691 160 162
f 692 691 162
f 692 162 161
f 693 692 161
f 693 161 163
f 694 693 163
f 694 163 164
f 695 694 164
f 695 164 166
f 696 695 166
f 696 166 165
f 697 696 165
f 698 697 165
f 698 165 167
f 699 698 167
f 699 167 169
f 649 699 169
f 649 169 168
f 700 321 320
f 701 321 700
f 701 322 321
f 702 322 701
f 702 323 322
f 703 323 702
f 703 324 323
f 704 324 703
f 704 325 324
f 705 325 704
f 705 326 325
f 706 326 705
f 706 327 326
f 707 327 706
f 707 328 327
f 708 328 707
f 708 329 328
f 709 329 708
f 709 330 329
f 710 330 709
f 710 338 330
f 711 338 710
f 711 337 338
f 712 337 711
f 712 336 337
f 713 336 712
f 713 335 336
f 714 335 713
f 714 334 335
f 715 334 714
f 715 332 334
f 716 332 715
f 716 333 332
f 717 333 716
f 717 340 333
f 718 340 717
f 718 342 340
f 719 344 342
f 719 342 718
f 720 346 344
f 720 344 719
f 721 348 346
f 721 346 720
f 722 350 348
f 722 348 721
f 723 352 350
f 723 350 722
f 724 354 352
f 724 352 723
f 725 356 354
f 725 354 724
f 726 356 725
f 726 358 356
f 727 358 726
f 727 360 358
f 728 360 727
f 728 362 360
f 729 362 728
f 729 364 362
f 730 364 729
f 730 366 364
f 731 366 730
f 731 368 366
f 732 368 731
f 732 370 368
f 733 370 732
f 733 372 370
f 734 372 733
f 734 374 372
f 735 374 734
f 735 432 374
f 736 432 735
f 736 430 432
f 737 430 736
f 737 428 430
f 738 428 737
f 738 426 428
f 739 424 426
f 739 426 738
f 740 423 424
f 740 424 739
f 741 423 740
f 742 419 421
f 742 421 423
f 742 423 741
f 743 417 419
f 743 419 742
f 744 417 743
f 745 413 415
f 745 415 417
f 745 417 744
f 746 411 413
f 746 413 745
f 747 410 411
f 747 411 746
f 650 410 747
f 748 700 320
f 748 320 304
f 748 304 302
f 749 748 302
f 749 302 303
f 750 749 303
f 750 303 299
f 751 750 299
f 751 299 300
f 752 751 300
f 752 300 297
f 753 752 297
f 753 297 298
f 754 753 298
f 754 298 294
f 755 754 294
f 755 294 293
f 756 755 293
f 756 293 291
f 757 756 291
f 757 291 292
f 758 757 292
f 758 292 287
f 759 758 287
f 759 287 289
f 760 759 289
f 760 289 288
f 761 760 288
f 761 288 290
f 762 761 290
f 762 290 284
f 763 284 285
f 763 762 284
f 764 285 278
f 764 763 285
f 765 278 280
f 765 764 278
f 766 280 279
f 766 765 280
f 767 279 272
f 767 766 279
f 768 272 268
f 768 767 272
f 769 268 270
f 769 768 268
f 770 270 269
f 770 769 270
f 771 269 271
f 771 770 269
f 772 271 264
f 772 771 271
f 773 772 264
f 773 264 259
f 774 773 259
f 774 259 257
f 775 774 257
f 775 257 258
f 776 775 258
f 776 258 255
f 777 776 255
f 777 255 250
f 778 777 250
f 778 250 252
f 779 778 252
f 779 252 251
f 780 779 251
f 780 251 253
f 781 780 253
f 781 253 256
f 782 781 256
f 783 782 256
f 783 256 254
f 783 254 261
f 784 783 261
f 784 261 262
f 785 784 262
f 785 262 260
f 786 785 260
f 786 260 263
f 787 786 263
f 787 263 266
f 788 787 266
f 788 266 265
f 789 788 265
f 789 265 267
f 790 789 267
f 791 790 267
f 791 267 274
f 791 274 275
f 792 791 275
f 793 792 275
f 793 275 273
f 793 273 282
f 794 793 282
f 794 282 281
f 795 794 281
f 795 281 283
f 796 795 283
f 797 798 799
f 800 798 797
f 801 802 803
f 801 804 802
f 805 806 807
f 805 808 806
f 809 810 811
f 812 810 809
f 813 814 815
f 813 816 814
f 817 818 819
f 817 820 818
f 821 822 823
f 824 822 821
f 825 826 827
f 825 828 826
f 829 830 831
f 829 832 830
f 833 834 835
f 833 836 834
f 837 838 839
f 840 838 837
f 841 842 843
f 841 844 842
f 845 846 847
f 845 848 846
f 849 850 851
f 849 852 850
f 853 854 855
f 853 856 854
f 857 858 859
f 860 858 857
f 861 862 863
f 864 862 861
f 865 866 867
f 868 866 865
f 869 870 871
f 869 872 870
f 873 874 875
f 876 874 873
f 877 878 879
f 877 880 878
f 881 882 883
f 884 882 881
f 885 886 887
f 885 888 886
f 889 890 891
f 892 890 889
f 893 894 895
f 893 896 894
f 897 898 899
f 900 898 897
f 901 902 903
f 904 902 901
f 905 906 907
f 908 906 905
f 909 910 911
f 909 912 910
f 913 914 915
f 916 914 913
f 802 917 803
f 802 918 917
f 801 919 804
f 801 920 919
f 818 921 819
f 818 922 921
f 817 923 820
f 817 924 923
f 834 925 835
f 834 926 925
f 833 927 836
f 833 928 927
f 850 929 851
f 850 930 929
f 849 931 852
f 849 932 931
f 867 933 865
f 867 934 933
f 868 935 866
f 868 936 935
f 883 937 881
f 883 938 937
f 884 939 882
f 884 940 939
f 899 941 897
f 899 942 941
f 900 943 898
f 900 944 943
f 915 945 913
f 915 946 945
f 916 947 914
f 916 948 947
f 903 949 901
f 903 950 949
f 904 951 902
f 904 952 951
f 886 953 887
f 886 954 953
f 885 955 888
f 885 956 955
f 870 957 871
f 870 958 957
f 869 959 872
f 869 960 959
f 854 961 855
f 854 962 961
f 853 963 856
f 853 964 963
f 839 965 837
f 839 966 965
f 840 967 838
f 840 968 967
f 823 969 821
f 823 970 969
f 824 971 822
f 824 972 971
f 806 973 807
f 806 974 973
f 805 975 808
f 805 976 975
f 799 977 797
f 799 240 977
f 800 978 798
f 800 979 978
f 814 980 815
f 814 981 980
f 813 982 816
f 813 983 982
f 830 984 831
f 830 985 984
f 829 986 832
f 829 987 986
f 846 988 847
f 846 989 988
f 845 990 848
f 845 991 990
f 863 992 861
f 863 993 992
f 864 994 862
f 864 995 994
f 878 996 879
f 878 997 996
f 877 998 880
f 877 999 998
f 894 1000 895
f 894 1001 1000
f 893 1002 896
f 893 1003 1002
f 910 1004 911
f 910 1005 1004
f 909 1006 912
f 909 1007 1006
f 907 1008 905
f 907 1009 1008
f 908 1010 906
f 908 1011 1010
f 891 1012 889
f 891 1013 1012
f 892 1014 890
f 892 1015 1014
f 875 1016 873
f 875 1017 1016
f 876 1018 874
f 876 1019 1018
f 859 1020 857
f 859 1021 1020
f 860 1022 858
f 860 1023 1022
f 842 1024 843
f 842 1025 1024
f 841 1026 844
f 841 1027 1026
f 826 1028 827
f 826 1029 1028
f 825 1030 828
f 825 1031 1030
f 811 1032 809
f 811 1033 1032
f 812 1034 810
f 812 1035 1034
f 1036 804 919
f 241 1037 240
f 1038 917 918
f 1038 1039 917
f 920 801 803
f 917 920 803
f 1039 1040 920
f 1039 920 917
f 1040 919 920
f 1040 1036 919
f 1041 921 922
f 1041 1042 921
f 924 817 819
f 921 924 819
f 1042 1043 924
f 1042 924 921
f 1043 923 924
f 1043 1044 923
f 1045 925 926
f 1045 1046 925
f 928 833 835
f 925 928 835
f 1046 1047 928
f 1046 928 925
f 1047 927 928
f 1047 1048 927
f 1049 929 930
f 1049 1050 929
f 932 849 851
f 929 932 851
f 1050 1051 932
f 1050 932 929
f 1051 931 932
f 1051 1052 931
f 1053 933 934
f 1053 1054 933
f 936 868 865
f 933 936 865
f 1054 1055 936
f 1054 936 933
f 1055 935 936
f 1055 1056 935
f 1057 937 938
f 1057 1058 937
f 940 884 881
f 937 940 881
f 1058 1059 940
f 1058 940 937
f 1059 939 940
f 1059 1060 939
f 1061 941 942
f 1061 1062 941
f 944 900 897
f 941 944 897
f 1062 1063 944
f 1062 944 941
f 1063 943 944
f 1063 1064 943
f 1065 945 946
f 1065 1066 945
f 948 916 913
f 945 948 913
f 1066 1067 948
f 1066 948 945
f 1067 947 948
f 1067 1068 947
f 1069 949 950
f 1069 1070 949
f 952 904 901
f 949 952 901
f 1070 1071 952
f 1070 952 949
f 1071 951 952
f 1071 1072 951
f 1073 953 954
f 1073 1074 953
f 956 885 887
f 953 956 887
f 1074 1075 956
f 1074 956 953
f 1075 955 956
f 1075 1076 955
f 1077 957 958
f 1077 1078 957
f 960 869 871
f 957 960 871
f 1078 1079 960
f 1078 960 957
f 1079 959 960
f 1079 1080 959
f 1081 961 962
f 1081 1082 961
f 964 853 855
f 961 964 855
f 1082 1083 964
f 1082 964 961
f 1083 963 964
f 1083 1084 963
f 1085 965 966
f 1085 1086 965
f 968 840 837
f 965 968 837
f 1086 1087 968
f 1086 968 965
f 1087 967 968
f 1087 1088 967
f 1089 969 970
f 1089 1090 969
f 972 824 821
f 969 972 821
f 1090 1091 972
f 1090 972 969
f 1091 971 972
f 1091 1092 971
f 1093 973 974
f 1093 1094 973
f 976 805 807
f 973 976 807
f 1094 1095 976
f 1094 976 973
f 1095 975 976
f 1095 1096 975
f 1037 977 240
f 1037 1097 977
f 979 800 797
f 977 979 797
f 1097 1098 979
f 1097 979 977
f 1098 978 979
f 1098 1099 978
f 1100 980 981
f 1100 1101 980
f 983 813 815
f 980 983 815
f 1101 1102 983
f 1101 983 980
f 1102 982 983
f 1102 1103 982
f 1104 984 985
f 1104 1105 984
f 987 829 831
f 984 987 831
f 1105 1106 987
f 1105 987 984
f 1106 986 987
f 1106 1107 986
f 1108 988 989
f 1108 1109 988
f 991 845 847
f 988 991 847
f 1109 1110 991
f 1109 991 988
f 1110 990 991
f 1110 1111 990
f 1112 992 993
f 1112 1113 992
f 995 864 861
f 992 995 861
f 1113 1114 995
f 1113 995 992
f 1114 994 995
f 1114 1115 994
f 1116 996 997
f 1116 1117 996
f 999 877 879
f 996 999 879
f 1117 1118 999
f 1117 999 996
f 1118 998 999
f 1118 1119 998
f 1120 1000 1001
f 1120 1121 1000
f 1003 893 895
f 1000 1003 895
f 1121 1122 1003
f 1121 1003 1000
f 1122 1002 1003
f 1122 1123 1002
f 1124 1004 1005
f 1124 1125 1004
f 1007 909 911
f 1004 1007 911
f 1125 1126 1007
f 1125 1007 1004
f 1126 1006 1007
f 1126 1127 1006
f 1128 1008 1009
f 1128 1129 1008
f 1011 908 905
f 1008 1011 905
f 1129 1130 1011
f 1129 1011 1008
f 1130 1010 1011
f 1130 1131 1010
f 1132 1012 1013
f 1132 1133 1012
f 1015 892 889
f 1012 1015 889
f 1133 1134 1015
f 1133 1015 1012
f 1134 1014 1015
f 1134 1135 1014
f 1136 1016 1017
f 1136 1137 1016
f 1019 876 873
f 1016 1019 873
f 1137 1138 1019
f 1137 1019 1016
f 1138 1018 1019
f 1138 1139 1018
f 1140 1020 1021
f 1140 1141 1020
f 1023 860 857
f 1020 1023 857
f 1141 1142 1023
f 1141 1023 1020
f 1142 1022 1023
f 1142 1143 1022
f 1144 1024 1025
f 1144 1145 1024
f 1027 841 843
f 1024 1027 843
f 1145 1146 1027
f 1145 1027 1024
f 1146 1026 1027
f 1146 1147 1026
f 1148 1028 1029
f 1148 1149 1028
f 1031 825 827
f 1028 1031 827
f 1149 1150 1031
f 1149 1031 1028
f 1150 1030 1031
f 1150 1151 1030
f 1152 1032 1033
f 1152 1153 1032
f 1035 812 809
f 1032 1035 809
f 1153 1154 1035
f 1153 1035 1032
f 1154 1034 1035
f 1154 1155 1034
f 1156 1157 409
f 1156 409 105
f 1157 468 407
f 1157 407 409
f 237 1037 241
f 1099 1098 1097
f 1099 1097 1037
f 1099 1037 237
f 1093 1095 1094
f 1093 1099 237
f 1096 1093 237
f 1096 1095 1093
f 1100 1102 1101
f 1100 1096 237
f 1103 1100 237
f 1103 1102 1100
f 1089 1091 1090
f 1089 1103 237
f 1092 1091 1089
f 1092 1089 237
f 1104 1106 1105
f 1104 1092 237
f 1107 1106 1104
f 1107 1104 237
f 1088 1086 1085
f 1088 1087 1086
f 1108 1110 1109
f 1111 1110 1108
f 1081 1083 1082
f 1084 1083 1081
f 1112 1114 1113
f 1115 1114 1112
f 1077 1079 1078
f 1080 1079 1077
f 1119 1118 1117
f 1119 1117 1116
f 1073 1075 1074
f 1076 1075 1073
f 1120 1122 1121
f 1123 1122 1120
f 1072 1071 1070
f 1072 1070 1069
f 1124 1126 1125
f 1127 1126 1124
f 1068 1067 1066
f 1068 1066 1065
f 1131 1130 1129
f 1131 1129 1128
f 1061 1063 1062
f 1064 1063 1061
f 1135 1134 1133
f 1135 1133 1132
f 1060 1059 1058
f 1060 1058 1057
f 1139 1138 1137
f 1139 1137 1136
f 1056 1055 1054
f 1056 1054 1053
f 1143 1142 1141
f 1143 1141 1140
f 1049 1051 1050
f 1052 1051 1049
f 1147 1146 1145
f 1147 1145 1144
f 1048 1047 1046
f 1048 1046 1045
f 1151 1150 1149
f 1151 1149 1148
f 1044 1043 1042
f 1044 1042 1041
f 1152 1154 1153
f 1155 1154 1152
f 1036 1040 1039
f 1036 1039 1038
f 535 1038 1155
f 535 1152 1044
f 535 1041 1151
f 535 1148 1048
f 535 1045 1147
f 535 1144 1052
f 535 1147 1144
f 535 1048 1045
f 535 1151 1148
f 535 1044 1041
f 535 1036 1038
f 535 1155 1152
f 237 535 1084
f 1084 535 1112
f 1112 535 1115
f 1115 535 1077
f 1077 535 1080
f 1080 535 1116
f 1116 535 1119
f 1119 535 1073
f 1073 535 1076
f 1076 535 1120
f 1120 535 1123
f 1123 535 1069
f 1069 535 1072
f 1072 535 1124
f 1124 535 1127
f 1127 535 1065
f 1065 535 1068
f 1068 535 1128
f 1128 535 1131
f 1131 535 1061
f 1061 535 1064
f 1064 535 1132
f 1132 535 1135
f 1135 535 1057
f 1057 535 1060
f 1060 535 1136
f 1136 535 1139
f 1139 535 1053
f 1053 535 1056
f 1056 535 1140
f 1140 535 1143
f 1143 535 1049
f 1049 535 1052
f 237 1084 1081
f 237 1081 1111
f 237 1111 1108
f 237 1108 1088
f 237 1088 1085
f 237 1085 1107
f 240 799 319
f 798 319 799
f 806 319 798
f 974 798 978
f 974 806 798
f 808 319 806
f 814 319 808
f 981 814 808
f 981 808 975
f 1099 974 978
f 816 319 814
f 1093 974 1099
f 823 319 816
f 970 823 816
f 970 816 982
f 1096 981 975
f 1100 981 1096
f 985 830 822
f 985 822 971
f 1103 970 982
f 1089 970 1103
f 966 832 986
f 966 839 832
f 1092 985 971
f 1104 985 1092
f 989 838 967
f 989 846 838
f 1107 966 986
f 1085 966 1107
f 962 848 990
f 962 854 848
f 1088 989 967
f 1108 989 1088
f 993 856 963
f 993 863 856
f 1111 962 990
f 1081 962 1111
f 958 862 994
f 958 870 862
f 1084 993 963
f 1112 993 1084
f 997 872 959
f 997 878 872
f 1115 958 994
f 1077 958 1115
f 954 886 880
f 954 880 998
f 1080 997 959
f 1116 997 1080
f 1001 894 888
f 1001 888 955
f 1119 954 998
f 1073 954 1119
f 950 903 896
f 950 896 1002
f 1076 1001 955
f 1120 1001 1076
f 1005 910 902
f 1005 902 951
f 1123 950 1002
f 1069 950 1123
f 946 915 912
f 946 912 1006
f 1072 1005 951
f 1124 1005 1072
f 1009 907 914
f 1009 914 947
f 1127 946 1006
f 1065 946 1127
f 942 906 1010
f 942 899 906
f 1068 1009 947
f 1128 1009 1068
f 1013 898 943
f 1013 891 898
f 1131 942 1010
f 1061 942 1131
f 938 883 890
f 938 890 1014
f 1064 1013 943
f 1132 1013 1064
f 1017 875 882
f 1017 882 939
f 1135 938 1014
f 1057 938 1135
f 934 874 1018
f 934 867 874
f 1060 1017 939
f 1136 1017 1060
f 1021 866 935
f 1021 859 866
f 1139 934 1018
f 1053 934 1139
f 930 858 1022
f 930 850 858
f 1056 1021 935
f 1140 1021 1056
f 1025 852 931
f 1025 842 852
f 1143 930 1022
f 1049 930 1143
f 926 844 1026
f 926 834 844
f 1052 1025 931
f 1144 1025 1052
f 1029 836 927
f 1029 826 836
f 1147 926 1026
f 1045 926 1147
f 922 828 1030
f 922 818 828
f 1048 1029 927
f 1148 1029 1048
f 1033 811 820
f 1033 820 923
f 1151 922 1030
f 1041 922 1151
f 1158 820 811
f 1158 810 802
f 1158 826 828
f 1158 818 820
f 1158 811 810
f 1158 836 826
f 1158 828 818
f 918 802 810
f 918 810 1034
f 1044 1033 923
f 804 1158 802
f 1152 1033 1044
f 1155 918 1034
f 1038 918 1155
f 1158 319 838
f 838 319 839
f 839 319 832
f 832 319 830
f 830 319 822
f 822 319 823
f 1158 838 846
f 1158 846 848
f 1158 848 854
f 1158 854 856
f 1158 856 863
f 1158 863 862
f 1158 862 870
f 1158 870 872
f 1158 872 878
f 1158 878 880
f 1158 880 886
f 1158 886 888
f 1158 888 894
f 1158 894 896
f 1158 896 903
f 1158 903 902
f 1158 902 910
f 1158 910 912
f 1158 912 915
f 1158 915 914
f 1158 914 907
f 1158 907 906
f 1158 906 899
f 1158 899 898
f 1158 898 891
f 1158 891 890
f 1158 890 883
f 1158 883 882
f 1158 882 875
f 1158 875 874
f 1158 874 867
f 1158 867 866
f 1158 866 859
f 1158 859 858
f 1158 858 850
f 1158 850 852
f 1158 852 842
f 1158 842 844
f 1158 844 834
f 1158 834 836
f 796 283 319
f 1158 796 319
f 651 1159 103
f 651 103 122
f 1159 600 102
f 1159 102 103
f 2 1156 105
f 2 105 3
f 553 551 552
f 553 550 551
f 547 549 550
f 547 548 549
f 556 554 555
f 556 553 554
f 545 546 547
f 557 553 556
f 560 558 559
f 560 557 558
f 541 545 547
f 541 544 545
f 541 543 544
f 541 542 543
f 539 541 547
f 539 540 541
f 563 550 553
f 563 553 557
f 563 557 560
f 563 561 562
f 563 560 561
f 565 563 564
f 566 563 565
f 535 547 550
f 535 539 547
f 535 550 563
f 535 538 539
f 535 537 538
f 535 536 537
f 567 563 566
f 567 535 563
f 454 452 453
f 454 451 452
f 449 450 451
f 456 454 455
f 448 449 451
f 448 451 454
f 448 454 456
f 460 458 459
f 460 457 458
f 460 456 457
f 460 447 448
f 460 448 456
f 443 446 447
f 443 445 446
f 443 444 445
f 443 447 460
f 462 460 461
f 462 442 443
f 462 443 460
f 440 441 442
f 438 442 462
f 438 462 463
f 438 440 442
f 438 439 440
f 466 464 465
f 467 463 464
f 467 464 466
f 437 467 468
f 437 438 463
f 437 463 467
f 437 436 438
f 804 1036 535
f 804 535 567
f 534 804 567
f 469 437 468
f 1158 804 534
f 1157 503 469
f 1157 504 503
f 1157 505 504
f 1157 506 505
f 1157 469 468
f 1157 507 506
f 1157 508 507
f 1157 509 508
f 1157 510 509
f 1157 511 510
f 1157 512 511
f 1157 513 512
f 1157 514 513
f 1157 515 514
f 1157 516 515
f 794 795 796
f 792 793 794
f 789 794 796
f 789 791 792
f 789 790 791
f 789 792 794
f 788 789 796
f 787 788 796
f 786 787 796
f 783 784 785
f 782 785 786
f 782 786 796
f 782 783 785
f 780 782 796
f 780 781 782
f 779 780 796
f 778 779 796
f 776 777 778
f 776 778 796
f 774 775 776
f 774 776 796
f 772 773 774
f 772 774 796
f 770 771 772
f 770 772 796
f 769 770 796
f 765 767 768
f 765 766 767
f 763 764 765
f 763 765 768
f 760 761 762
f 756 759 760
f 756 758 759
f 756 757 758
f 756 760 762
f 754 755 756
f 752 753 754
f 752 754 756
f 750 751 752
f 750 756 762
f 750 752 756
f 749 750 762
f 748 768 769
f 748 762 763
f 748 769 796
f 748 763 768
f 748 749 762
f 700 796 1158
f 700 748 796
f 701 700 1158
f 702 701 1158
f 703 702 1158
f 704 703 1158
f 705 704 1158
f 706 705 1158
f 707 706 1158
f 708 707 1158
f 709 708 1158
f 710 709 1158
f 710 1158 534
f 711 710 534
f 712 711 534
f 713 712 534
f 714 713 534
f 715 714 534
f 716 715 534
f 717 716 534
f 717 534 533
f 718 717 533
f 718 533 532
f 719 718 532
f 719 532 531
f 720 719 531
f 720 531 530
f 721 720 530
f 721 530 529
f 722 721 529
f 722 529 528
f 723 722 528
f 723 528 527
f 724 723 527
f 724 527 526
f 725 724 526
f 725 526 525
f 726 725 525
f 726 525 524
f 727 726 524
f 727 524 523
f 728 523 522
f 728 727 523
f 729 522 521
f 729 728 522
f 730 521 520
f 730 729 521
f 731 520 519
f 731 730 520
f 732 519 518
f 732 731 519
f 733 732 518
f 733 518 517
f 734 733 517
f 734 517 516
f 735 734 516
f 735 516 1157
f 736 735 1157
f 737 736 1157
f 738 737 1157
f 739 738 1157
f 740 739 1157
f 741 740 1157
f 742 741 1157
f 743 742 1157
f 744 743 1157
f 745 744 1157
f 746 745 1157
f 747 746 1157
f 650 747 1157
f 597 598 599
f 595 596 597
f 594 597 599
f 594 595 597
f 592 593 594
f 591 594 599
f 591 592 594
f 590 591 599
f 588 589 590
f 588 590 599
f 587 588 599
f 586 587 599
f 663 664 665
f 673 671 672
f 675 671 673
f 675 673 674
f 675 670 671
f 675 669 670
f 675 668 669
f 675 667 668
f 659 663 665
f 659 662 663
f 659 661 662
f 659 660 661
f 585 586 599
f 676 667 675
f 677 667 676
f 677 666 667
f 677 665 666
f 654 655 656
f 681 679 680
f 681 678 679
f 653 654 656
f 584 585 599
f 682 659 665
f 682 665 677
f 682 678 681
f 682 677 678
f 652 653 656
f 652 657 658
f 652 656 657
f 683 659 682
f 683 658 659
f 683 652 658
f 651 652 683
f 583 584 599
f 687 685 686
f 687 684 685
f 688 651 683
f 688 684 687
f 688 683 684
f 689 651 688
f 691 651 689
f 691 689 690
f 693 691 692
f 581 582 583
f 696 691 693
f 696 694 695
f 696 693 694
f 580 581 583
f 697 691 696
f 699 691 697
f 699 651 691
f 699 697 698
f 579 580 583
f 578 579 583
f 578 583 599
f 576 577 578
f 576 578 599
f 574 575 576
f 573 574 576
f 572 576 599
f 572 573 576
f 569 571 572
f 569 570 571
f 568 569 572
f 502 599 600
f 502 572 599
f 502 568 572
f 1159 502 600
f 649 651 699
f 649 1159 651
f 648 1159 649
f 647 1159 648
f 646 1159 647
f 645 1159 646
f 644 1159 645
f 643 1159 644
f 642 1159 643
f 641 1159 642
f 640 1159 641
f 639 1159 640
f 638 1159 639
f 637 1159 638
f 636 1159 637
f 471 633 632
f 471 634 633
f 471 635 634
f 471 636 635
f 471 502 1159
f 471 1159 636
f 470 471 632
f 470 632 631
f 472 631 630
f 472 470 631
f 473 630 629
f 473 472 630
f 474 629 628
f 474 473 629
f 475 474 628
f 475 628 627
f 476 475 627
f 476 627 626
f 477 476 626
f 477 626 625
f 478 625 624
f 478 477 625
f 479 478 624
f 479 624 623
f 480 623 622
f 480 479 623
f 481 622 621
f 481 480 622
f 482 621 620
f 482 481 621
f 483 620 619
f 483 482 620
f 484 619 618
f 484 483 619
f 485 618 617
f 485 484 618
f 486 617 616
f 486 485 617
f 487 616 615
f 487 486 616
f 488 615 614
f 488 487 615
f 59 63 65
f 59 61 63
f 57 59 65
f 55 57 65
f 51 55 65
f 51 53 55
f 47 49 51
f 43 51 65
f 43 47 51
f 43 45 47
f 39 43 65
f 39 41 43
f 37 39 65
f 35 37 65
f 33 35 65
f 27 33 65
f 27 31 33
f 27 29 31
f 23 27 65
f 23 25 27
f 17 21 23
f 17 19 21
f 13 17 23
f 13 15 17
f 11 13 23
f 9 23 65
f 9 11 23
f 1 9 65
f 1 7 9
f 1 5 7
f 2 1 65
f 2 65 67
f 1156 601 602
f 1156 603 601
f 1156 604 603
f 1156 605 604
f 1156 606 605
f 1156 607 606
f 1156 608 607
f 1156 609 608
f 1156 610 609
f 1156 611 610
f 1156 612 611
f 1156 613 612
f 1156 614 613
f 1156 489 488
f 1156 490 489
f 1156 491 490
f 1156 492 491
f 1156 493 492
f 1156 494 493
f 1156 495 494
f 1156 496 495
f 1156 497 496
f 1156 498 497
f 1156 499 498
f 1156 500 499
f 1156 501 500
f 1156 67 501
f 1156 488 614
f 1156 2 67
f 1156 602 1157
f 602 650 1157

