# https://github.com/mikedh/trimesh
v 8.50864867 -4.28090927 -0.07040130
v 24.47372660 -4.28090927 -0.07040130
v 8.50864867 -4.28090927 2.94770852
v 8.50864867 50.53697899 -0.07040130
v 28.35390786 -4.28090927 2.81553514
v 24.47372660 48.49774492 -0.07040130
v 8.83199811 -4.28090927 3.16455780
v 8.50864867 9.50003560 3.54827485
v 8.50864867 50.53697899 0.56403390
v 16.49223072 50.54234938 -0.07040130
v 28.85457823 -4.28090927 3.19181800
v 28.35390786 17.50135451 2.81553514
v 24.35898759 49.13098207 -0.07040130
v 28.35390786 48.49774492 2.81636067
v 28.35390786 47.49959302 2.81594790
v 8.97594043 -4.28090927 3.20957870
v 8.50864867 10.50355490 3.55364374
v 9.49329714 -4.28090927 3.37025355
v 14.05564204 -4.28090927 4.14883969
v 8.50864867 50.53161457 1.56401268
v 17.49356849 50.53161457 4.14883969
v 21.49057492 50.53697899 2.56357871
v 22.48982653 50.53697899 2.56357871
v 22.48982653 50.53697899 -0.07040130
v 29.25094042 -4.28090927 3.58214372
v 28.85457823 -0.49758860 3.19181800
v 24.29014716 49.49589980 -0.07040130
v 28.85249207 48.49774492 3.19181800
v 8.50864867 10.51965413 3.55364374
v 14.05355588 40.49642750 4.14883969
v 29.81836506 -4.28090927 4.14883969
v 15.90811677 50.48868728 4.14883969
v 16.49223072 50.52625015 4.14883969
v 8.50864867 50.39745636 2.05925158
v 22.48982653 50.53161457 4.14883969
v 23.49116132 50.51551535 4.14883969
v 27.49025392 50.43501923 4.14883969
v 28.45404372 50.28476179 4.14883969
v 23.12609159 50.40818520 -0.07040130
v 29.36150412 -4.28090927 3.69160027
v 29.36150412 48.49774492 3.69160027
v 28.19744855 49.49589980 2.92210086
v 24.04815812 50.06473707 -0.07040130
v 28.69811893 49.49589980 3.34753523
v 14.05355588 47.49422562 4.14883969
v 8.50864867 47.51569224 3.55116568
v 29.75369398 -4.28090927 4.08234024
v 29.82045122 -0.49758860 4.14883969
v 8.50864867 50.23646412 2.65073118
v 15.49297911 50.44038365 4.14883969
v 29.10699809 50.04327343 4.14883969
v 28.41232044 50.13450435 3.63955793
v 23.49116132 50.33305946 -0.07040130
v 29.20504481 49.49589980 3.84731898
v 29.78081411 48.62117429 4.14883969
v 29.81836506 48.49774492 4.14883969
v 29.82045122 -0.41172657 4.14883969
v 28.02429993 50.02180382 3.03981712
v 29.02981301 50.02180382 4.02327498
v 14.06398670 48.49774492 4.14883969
v 8.50864867 48.49774492 3.54579679
v 8.50864867 50.23109970 2.66353426
v 8.50864867 50.22036489 2.68170922
v 8.88832304 49.97350913 3.04477474
v 8.50864867 49.61395879 3.26162253
v 14.96310393 50.29012621 4.14883969
v 29.28849137 49.82324871 4.14883969
v 29.50544644 49.49589980 4.14883969
v 14.21001518 49.49589980 4.14883969
v 14.34352669 49.78568584 4.14883969
v 14.53336313 50.16670280 4.14883969
v 8.50864867 48.51384414 3.54249171
v 8.50864867 49.58176034 3.27979600
f 1 2 5
f 1 5 11
f 1 11 25
f 1 25 40
f 1 40 47
f 1 47 31
f 1 31 19
f 1 19 18
f 1 18 16
f 1 16 7
f 1 7 3
f 1 3 8
f 1 8 17
f 1 17 29
f 1 29 46
f 1 46 61
f 1 61 72
f 1 72 73
f 1 73 65
f 1 65 63
f 1 63 62
f 1 62 49
f 1 49 34
f 1 34 20
f 1 20 9
f 1 9 4
f 1 4 10
f 1 10 24
f 1 24 39
f 1 39 53
f 1 53 43
f 1 43 27
f 1 27 13
f 1 13 6
f 1 6 2
f 2 6 12
f 2 12 5
f 3 7 8
f 4 9 10
f 5 12 26
f 5 26 11
f 6 13 14
f 6 14 15
f 6 15 12
f 7 16 8
f 8 16 18
f 8 18 19
f 8 19 17
f 9 20 21
f 9 21 10
f 10 22 23
f 10 23 24
f 10 21 22
f 11 26 25
f 12 15 26
f 13 27 14
f 14 28 15
f 14 27 28
f 15 28 26
f 17 19 30
f 17 30 45
f 17 45 29
f 19 31 48
f 19 48 57
f 19 57 56
f 19 56 55
f 19 55 68
f 19 68 67
f 19 67 51
f 19 51 38
f 19 38 37
f 19 37 36
f 19 36 35
f 19 35 21
f 19 21 33
f 19 33 32
f 19 32 50
f 19 50 66
f 19 66 71
f 19 71 70
f 19 70 69
f 19 69 60
f 19 60 45
f 19 45 30
f 20 32 33
f 20 33 21
f 20 34 32
f 21 35 23
f 21 23 22
f 23 35 36
f 23 36 37
f 23 37 24
f 24 37 38
f 24 38 39
f 25 26 41
f 25 41 40
f 26 28 41
f 27 42 28
f 27 43 42
f 28 42 44
f 28 44 41
f 29 45 46
f 31 47 48
f 32 34 49
f 32 49 50
f 38 51 52
f 38 52 53
f 38 53 39
f 40 48 47
f 40 41 57
f 40 57 48
f 41 44 54
f 41 54 55
f 41 55 56
f 41 56 57
f 42 43 58
f 42 58 44
f 43 53 58
f 44 58 59
f 44 59 54
f 45 60 46
f 46 60 61
f 49 62 50
f 50 62 63
f 50 63 64
f 50 64 65
f 50 65 66
f 51 67 59
f 51 59 52
f 52 59 58
f 52 58 53
f 54 59 67
f 54 67 68
f 54 68 55
f 60 69 61
f 61 69 70
f 61 70 71
f 61 71 72
f 63 65 64
f 65 73 71
f 65 71 66
f 71 73 72

