# https://github.com/mikedh/trimesh
v 13.50106668 -4.28301034 7.36664605
v 13.50106668 -4.28301034 -7.36055590
v 13.49104118 -4.28301034 7.36520362
v 13.49104118 -9.50093967 7.36664605
v 13.50106668 -25.74733828 7.36664605
v 13.49104118 -4.28301034 -7.35911347
v 13.50106668 -25.74733828 -7.35911347
v 13.49104118 -14.50031653 -7.35911347
v 12.88779710 -4.28301034 7.16047943
v 13.49104118 -25.74733828 7.36664605
v 12.84100743 -4.28301034 -7.08950958
v 13.49104118 -25.74733828 -7.35767104
v 12.84156473 -19.49969338 -7.08950958
v 12.84100743 -12.50182672 -7.08950958
v 7.81063465 -4.28301034 2.82810130
v 7.81063465 -8.53847011 3.64555863
v 7.81063465 -9.50093967 3.73062047
v 7.81063465 -10.18181288 3.73494479
v 7.81063465 -10.50123511 3.73638722
v 12.88779710 -25.74733828 7.16047943
v 7.81063465 -4.28301034 -2.77010888
v 7.81063465 -10.50123511 -3.72164545
v 7.81063465 -9.74470866 -3.71876357
v 7.81063465 -9.50093967 -3.71732113
v 7.81063465 -8.75702185 -3.63370173
v 7.81063465 -8.50064349 -3.59189202
v 13.00365519 -25.74733828 -7.15583171
v 12.84156473 -25.74733828 -7.08807013
v 7.81063465 -24.74283997 -3.72164545
v 7.81063465 -16.17938336 3.73638722
v 7.81063465 -25.74733828 3.73494479
v 7.81063465 -25.74733828 -3.72020600
f 1 2 6
f 1 6 11
f 1 11 21
f 1 21 15
f 1 15 9
f 1 9 3
f 1 3 4
f 1 4 10
f 1 10 5
f 1 5 7
f 1 7 2
f 2 7 8
f 2 8 6
f 3 9 4
f 4 9 20
f 4 20 10
f 5 10 20
f 5 20 31
f 5 31 32
f 5 32 28
f 5 28 27
f 5 27 12
f 5 12 7
f 6 8 14
f 6 14 11
f 7 12 8
f 8 12 13
f 8 13 14
f 9 15 16
f 9 16 17
f 9 17 18
f 9 18 19
f 9 19 30
f 9 30 20
f 11 14 29
f 11 29 22
f 11 22 23
f 11 23 24
f 11 24 25
f 11 25 26
f 11 26 21
f 12 27 13
f 13 27 28
f 13 28 29
f 13 29 14
f 15 21 26
f 15 26 25
f 15 25 24
f 15 24 23
f 15 23 22
f 15 22 29
f 15 29 32
f 15 32 31
f 15 31 30
f 15 30 19
f 15 19 18
f 15 18 17
f 15 17 16
f 20 30 31
f 28 32 29

