# https://github.com/mikedh/trimesh
v -38.05568411 36.50063701 60.63387683
v -38.05568411 40.49984881 60.63107541
v -44.50796528 40.49984881 60.63107541
v -44.50796528 38.50060352 60.63107541
v -42.50899417 36.50063701 60.63107541
v -38.05568411 35.50065524 60.59187938
v -38.05568411 41.49983356 60.41547932
v -44.50796528 41.49983356 60.41547932
v -45.56646394 41.57908394 60.26148169
v -45.50791427 40.49984881 60.49387736
v -45.50791427 39.49986705 60.49948020
v -45.50791427 38.50060352 60.49948020
v -44.50796528 36.50063701 60.62827697
v -38.05568411 35.11521263 60.50227864
v -38.05568411 41.75631250 60.28668255
v -41.50904519 42.06610485 60.13268492
v -44.50796528 42.06610485 60.13268492
v -45.27279764 42.04377097 60.10748406
v -46.16866195 41.29882869 60.16068422
v -45.93912135 41.96524478 60.01788630
v -46.25508874 40.49984881 60.21108295
v -46.26066774 39.49986705 60.21668281
v -46.25044255 38.50060352 60.21668281
v -45.50791427 36.50063701 60.48267764
v -45.50791427 35.51146157 60.26988297
v -44.50796528 35.50569780 60.34547959
v -38.18950854 35.11521263 60.49667878
v -38.05568411 35.11521263 43.20413011
v -38.05568411 42.05529852 60.13548336
v -38.05568411 42.06610485 60.12988350
v -38.05568411 42.17777719 59.86388867
v -39.50914424 42.30313478 59.56149326
v -44.50796528 42.30241356 59.56149326
v -45.56646394 42.16480722 59.63429144
v -47.08590348 41.12303959 59.20309628
v -46.75506472 40.49984881 59.79388893
v -46.12591348 42.07331105 59.35149405
v -46.76064074 39.49986705 59.81908681
v -46.75041854 38.50060352 59.82468965
v -46.20769408 36.50063701 60.19988323
v -46.70767006 36.50063701 59.83028653
v -46.13427899 35.67788380 60.14948450
v -45.50791427 35.11521263 60.10188420
v -45.29881807 35.11521263 60.11868378
v -38.50919526 35.11521263 60.47987920
v -44.51075478 35.11521263 43.29652929
v -38.05568411 35.30108983 34.56625557
v -38.05568411 42.30313478 59.56149326
v -38.05568411 42.38022151 59.11069710
v -40.50909621 42.47316011 58.56190787
v -44.50796528 42.47243889 58.56190787
v -45.50791427 42.34708131 58.56190787
v -47.14816951 40.49984881 59.29549546
v -46.68722565 41.69147155 58.56190787
v -47.13608764 41.19148066 58.56190787
v -47.35075986 40.49984881 58.56190787
v -47.17976595 39.49986705 59.32069631
v -46.18724967 42.11077259 58.56190787
v -47.19649401 38.50060352 59.32629617
v -47.22716061 36.50063701 59.32909461
v -47.24017232 35.50065524 59.32909461
v -47.22716061 35.11521263 59.30669517
v -46.71603260 35.11521263 59.67909032
v -46.49113818 35.11521263 59.78268921
v -45.49397571 35.11521263 43.62132413
v -38.05568411 35.37097334 33.55827039
v -46.06551009 35.11521263 44.00771893
v -38.05568411 42.47316011 58.56190787
v -38.05568411 42.47388133 51.56200869
v -38.05568411 42.47459956 35.11224785
v -45.50791427 42.36005129 50.56242330
v -45.50791427 42.35933007 51.56200869
v -45.50791427 42.35788764 52.56159408
v -45.50791427 42.34924198 57.56232247
v -43.50801630 42.47316011 43.56532554
v -44.50796528 42.47243889 44.56491093
v -46.19003619 42.11293624 57.56232247
v -46.20676425 42.12302135 51.56200869
v -46.20397773 42.12158190 52.56159408
v -46.19933154 42.11797880 54.56356331
v -47.44462233 39.49986705 58.56190787
v -46.69001217 41.70011721 57.56232247
v -47.14816951 41.20012632 57.56232247
v -47.41302589 40.49984881 57.56232247
v -47.53941165 39.49986705 57.56232247
v -46.70209404 41.71524785 53.56117948
v -46.69930454 41.71164475 54.56356331
v -46.69651802 41.70804165 55.56315169
v -47.46228022 38.50060352 58.56190787
v -47.49387666 36.50063701 58.56190787
v -47.50688538 35.50065524 58.56190787
v -47.32938562 35.11521263 59.03510049
v -38.05568411 35.65266804 32.56428485
v -47.12307594 35.11521263 44.95130423
v -38.05568411 42.45875068 34.11266172
v -39.50914424 42.47388133 36.56542636
v -43.50801630 42.47316011 42.56574014
v -46.20676425 42.12374257 50.56242330
v -45.50791427 42.35788764 45.56449633
v -44.50796528 42.44362301 43.56532554
v -46.70674023 41.71596907 51.56200869
v -46.70395371 41.71668731 52.56159408
v -46.20211806 42.11942123 53.56117948
v -47.15095603 41.20805076 55.56315169
v -47.15188586 41.21165387 54.56356331
v -47.15281570 41.21525697 53.56117948
v -47.41488257 40.49984881 56.56273708
v -47.54034149 38.50060352 57.56232247
v -47.41767207 40.49984881 54.56356331
v -47.41860191 40.49984881 53.56117948
v -47.54034149 39.49986705 55.56315169
v -47.54313099 38.50060352 53.56117948
v -47.54684734 37.50062175 49.56283790
v -47.49387666 35.11521263 58.56190787
v -47.54313099 35.11521263 57.56232247
v -47.52082691 35.11521263 58.17831301
v -38.05568411 35.94445083 32.11909153
v -47.26154655 35.11521263 45.23410013
v -47.16303790 40.49984881 45.79689199
v -46.01811245 42.01207320 44.04971787
v -44.02286067 42.01783697 41.04256190
v -40.02398861 42.01855819 35.04224961
v -38.05568411 41.49983356 32.04909180
v -38.05568411 40.54451656 32.03509215
v -38.05568411 39.54165291 32.03229222
v -38.05568411 37.50062175 32.02949229
v -38.05568411 36.54458354 32.03509215
v -38.05568411 36.50063701 32.03789208
v -38.05568411 36.00712813 32.07149123
v -38.05568411 42.31249867 33.08787621
v -38.50919526 42.44578368 34.56625557
v -40.50909621 42.44506246 37.56501175
v -46.20490756 42.12230014 47.56366711
v -46.20676425 42.12302135 49.56283790
v -45.50791427 42.30601666 44.56491093
v -46.18724967 42.12158190 45.56449633
v -46.20397773 42.12158190 46.56128179
v -41.50904519 42.36869397 38.56459715
v -43.50801630 42.36797573 41.56615326
v -44.54049156 42.26062770 42.55173900
v -45.48282368 42.17273166 43.65492329
v -46.70674023 41.71164475 49.56283790
v -47.15281570 41.21669642 52.56159408
v -47.54777717 36.50063701 49.56283790
v -47.54498767 36.50063701 53.56117948
v -47.41860191 40.49984881 52.56159408
v -47.54034149 39.49986705 47.56366711
v -47.54405784 38.50060352 51.56200869
v -47.54684734 37.50062175 47.56366711
v -47.54870700 36.50063701 47.56366711
v -47.54498767 35.50065524 54.56356331
v -47.54405784 35.11521263 56.17634080
v -47.36748791 35.11521263 45.53649554
v -47.46228022 39.49986705 46.56128179
v -47.36005223 40.49984881 46.56128179
v -47.08961983 41.13456713 45.90329082
v -46.09617670 42.06970795 44.56491093
v -45.13247034 42.11870002 42.87933527
v -41.13359829 42.11942123 36.87622155
v -39.13462717 42.11942123 33.87746537
v -38.05568411 42.04089207 32.14149097
v -38.05568411 42.30817733 33.06827670
v -38.54265137 42.26134892 33.55267053
v -40.54254933 42.26134892 36.55142671
v -39.50914424 42.36941518 35.56584096
v -46.70395371 41.70372031 46.56128179
v -46.70488354 41.70660219 47.56366711
v -43.13256940 42.11942123 39.87777767
v -47.15095603 41.21597521 51.56200869
v -47.54684734 35.50065524 51.56200869
v -47.40744987 40.49984881 48.56325251
v -47.40373054 40.49984881 47.56366711
v -47.54870700 35.50065524 46.56128179
v -47.54405784 38.50060352 47.56366711
v -47.54870700 35.11521263 47.56366711
v -47.54591750 35.11521263 53.17758462
v -47.52733276 35.11521263 46.18048686
v -47.13422798 41.20372943 46.56128179
v -38.05568411 42.14391578 32.38228643
v -47.13887416 41.20661131 47.56366711
v -47.54684734 35.11521263 51.56200869
v -47.54870700 35.11521263 46.56128179
f 1 2 3
f 1 3 4
f 1 4 5
f 1 5 6
f 1 6 14
f 1 14 28
f 1 28 47
f 1 47 66
f 1 66 93
f 1 93 117
f 1 117 129
f 1 129 128
f 1 128 127
f 1 127 126
f 1 126 125
f 1 125 124
f 1 124 123
f 1 123 161
f 1 161 179
f 1 179 162
f 1 162 130
f 1 130 95
f 1 95 70
f 1 70 69
f 1 69 68
f 1 68 49
f 1 49 48
f 1 48 31
f 1 31 30
f 1 30 29
f 1 29 15
f 1 15 7
f 1 7 2
f 2 7 8
f 2 8 3
f 3 8 9
f 3 9 10
f 3 10 11
f 3 11 12
f 3 12 4
f 4 12 13
f 4 13 5
f 5 13 6
f 6 13 14
f 7 15 16
f 7 16 17
f 7 17 8
f 8 17 18
f 8 18 9
f 9 19 10
f 9 18 20
f 9 20 19
f 10 19 21
f 10 21 22
f 10 22 11
f 11 22 12
f 12 22 23
f 12 23 24
f 12 24 13
f 13 24 25
f 13 25 26
f 13 26 14
f 14 26 27
f 14 27 45
f 14 45 44
f 14 44 43
f 14 43 64
f 14 64 63
f 14 63 62
f 14 62 92
f 14 92 114
f 14 114 116
f 14 116 115
f 14 115 152
f 14 152 176
f 14 176 181
f 14 181 175
f 14 175 182
f 14 182 177
f 14 177 153
f 14 153 118
f 14 118 94
f 14 94 67
f 14 67 65
f 14 65 46
f 14 46 28
f 15 29 16
f 16 29 30
f 16 30 31
f 16 31 17
f 17 31 32
f 17 32 33
f 17 33 18
f 18 33 34
f 18 34 20
f 19 20 35
f 19 35 36
f 19 36 21
f 20 34 37
f 20 37 35
f 21 36 38
f 21 38 22
f 22 38 39
f 22 39 23
f 23 40 24
f 23 39 41
f 23 41 40
f 24 40 42
f 24 42 25
f 25 42 43
f 25 43 44
f 25 44 26
f 26 44 45
f 26 45 27
f 28 46 47
f 31 48 32
f 32 48 49
f 32 49 33
f 33 49 50
f 33 50 51
f 33 51 34
f 34 51 52
f 34 52 37
f 35 53 36
f 35 37 54
f 35 54 55
f 35 55 56
f 35 56 53
f 36 53 57
f 36 57 38
f 37 52 58
f 37 58 54
f 38 57 59
f 38 59 60
f 38 60 61
f 38 61 39
f 39 61 41
f 40 41 62
f 40 62 63
f 40 63 42
f 41 61 62
f 42 63 64
f 42 64 43
f 46 65 47
f 47 65 67
f 47 67 66
f 49 68 50
f 50 68 69
f 50 69 70
f 50 70 51
f 51 71 72
f 51 72 73
f 51 73 74
f 51 74 52
f 51 70 75
f 51 75 97
f 51 97 76
f 51 76 71
f 52 77 58
f 52 74 78
f 52 78 79
f 52 79 80
f 52 80 77
f 53 56 81
f 53 81 57
f 54 58 82
f 54 82 83
f 54 83 55
f 55 83 84
f 55 84 56
f 56 84 85
f 56 85 81
f 57 81 59
f 58 77 86
f 58 86 87
f 58 87 88
f 58 88 82
f 59 81 89
f 59 89 60
f 60 89 90
f 60 90 91
f 60 91 61
f 61 91 92
f 61 92 62
f 66 67 94
f 66 94 93
f 70 95 96
f 70 96 97
f 70 97 75
f 71 98 78
f 71 78 72
f 71 76 99
f 71 99 98
f 72 78 73
f 73 78 74
f 76 97 100
f 76 100 99
f 77 80 86
f 78 98 101
f 78 101 102
f 78 102 86
f 78 86 103
f 78 103 80
f 78 80 79
f 80 103 86
f 81 85 89
f 82 88 83
f 83 88 87
f 83 87 86
f 83 86 104
f 83 104 84
f 84 104 105
f 84 105 106
f 84 106 107
f 84 107 85
f 85 108 91
f 85 91 90
f 85 90 89
f 85 107 109
f 85 109 110
f 85 110 111
f 85 111 148
f 85 148 112
f 85 112 113
f 85 113 108
f 86 102 106
f 86 106 105
f 86 105 104
f 91 114 92
f 91 108 115
f 91 115 116
f 91 116 114
f 93 94 117
f 94 118 119
f 94 119 120
f 94 120 121
f 94 121 122
f 94 122 123
f 94 123 124
f 94 124 125
f 94 125 126
f 94 126 127
f 94 127 128
f 94 128 129
f 94 129 117
f 95 130 131
f 95 131 97
f 95 97 96
f 97 131 132
f 97 132 100
f 98 133 134
f 98 134 101
f 98 99 133
f 99 100 135
f 99 135 136
f 99 136 137
f 99 137 133
f 100 132 138
f 100 138 139
f 100 139 140
f 100 140 141
f 100 141 135
f 101 134 133
f 101 133 137
f 101 137 142
f 101 142 143
f 101 143 106
f 101 106 102
f 106 143 110
f 106 110 109
f 106 109 107
f 108 113 144
f 108 144 145
f 108 145 115
f 110 143 146
f 110 146 147
f 110 147 111
f 111 147 174
f 111 174 148
f 112 148 113
f 113 148 174
f 113 174 149
f 113 149 150
f 113 150 144
f 115 145 151
f 115 151 152
f 118 153 119
f 119 153 154
f 119 154 155
f 119 155 156
f 119 156 120
f 120 156 157
f 120 157 141
f 120 141 158
f 120 158 121
f 121 158 159
f 121 159 122
f 122 159 160
f 122 160 161
f 122 161 123
f 130 162 163
f 130 163 164
f 130 164 165
f 130 165 131
f 131 165 138
f 131 138 132
f 135 141 157
f 135 157 136
f 136 166 137
f 136 157 166
f 137 166 167
f 137 167 142
f 138 165 164
f 138 164 140
f 138 140 139
f 140 158 141
f 140 164 168
f 140 168 158
f 142 167 169
f 142 169 143
f 143 169 146
f 144 170 151
f 144 151 145
f 144 150 175
f 144 175 181
f 144 181 170
f 146 169 171
f 146 171 147
f 147 171 172
f 147 172 155
f 147 155 154
f 147 154 173
f 147 173 174
f 149 174 173
f 149 173 150
f 150 173 182
f 150 182 175
f 151 170 176
f 151 176 152
f 153 177 154
f 154 177 173
f 155 178 156
f 155 172 178
f 156 178 157
f 157 178 166
f 158 168 159
f 159 168 164
f 159 164 160
f 160 164 163
f 160 163 179
f 160 179 161
f 162 179 163
f 166 178 180
f 166 180 169
f 166 169 167
f 169 180 172
f 169 172 171
f 170 181 176
f 172 180 178
f 173 177 182

