# https://github.com/mikedh/trimesh
v -37.54979502 34.98354994 17.56734721
v -37.57747547 34.98354994 30.70207912
v -37.58093553 35.07242661 30.70207912
v -37.59477874 35.66573541 30.70207912
v -37.59823879 36.50085180 30.70207912
v -37.60169885 37.50010778 30.70207912
v -37.54979502 40.49947911 17.56734721
v -28.75720571 34.98354994 17.56734721
v -28.75720571 34.98354994 30.70207912
v -37.60169885 39.49942144 30.70207912
v -37.59823879 40.66442039 30.70207912
v -37.53249176 41.49953380 17.56734721
v -3.51787313 35.44794854 17.56734721
v -3.51787313 35.46556473 30.70207912
v -37.58093553 41.49953380 30.70207912
v -37.26604952 42.23696692 17.56734721
v -3.49711130 35.45435605 17.56734721
v -2.66318254 35.72498552 17.56734721
v -3.39676370 35.50960371 30.70207912
v -37.30411312 42.23056239 30.70207912
v -36.66050088 42.43393683 30.70207912
v -36.53246985 42.46836454 17.56734721
v -2.77045174 35.74019964 30.70207912
v -2.29293116 36.49204519 17.56734721
v -36.51170951 42.47477205 30.70207912
v -36.51170951 42.47397036 17.56734721
v -2.26178916 36.57771810 17.56734721
v -2.56629500 36.37914781 30.70207912
v -30.89566222 43.16256036 17.56734721
v -30.89566222 43.16175868 30.70207912
v -30.89566222 43.16256036 30.54008083
v -2.25140899 39.35609881 17.56734721
v -2.52823139 36.50085180 30.70207912
v -9.06817339 43.16256036 17.56734721
v -10.90212555 43.16256036 30.70207912
v -2.25486905 39.46819450 17.56734721
v -2.52823139 39.49942144 30.70207912
v -9.06817339 43.16256036 30.62493715
v -4.51789653 42.41231818 17.56734721
v -9.07163344 43.15935661 30.70207912
v -2.40712196 40.49947911 17.56734721
v -2.64934082 40.49947911 30.70207912
v -4.51789653 42.35466845 30.70207912
v -3.64590417 42.16970891 17.56734721
v -2.82235557 41.44508783 17.56734721
v -2.89502123 41.18726742 30.70207912
v -3.94002834 42.15609816 30.70207912
v -3.57323851 42.14488650 17.56734721
v -2.86733929 41.49713173 17.56734721
v -2.96422683 41.26733450 30.70207912
v -3.83275914 42.11846669 30.70207912
v -3.17184513 41.84463048 17.56734721
v -3.33101816 41.68769710 30.70207912
f 1 2 3
f 1 3 4
f 1 4 5
f 1 5 6
f 1 6 10
f 1 10 7
f 1 7 12
f 1 12 16
f 1 16 22
f 1 22 26
f 1 26 29
f 1 29 34
f 1 34 39
f 1 39 44
f 1 44 48
f 1 48 52
f 1 52 49
f 1 49 45
f 1 45 41
f 1 41 36
f 1 36 32
f 1 32 27
f 1 27 24
f 1 24 18
f 1 18 17
f 1 17 13
f 1 13 8
f 1 8 9
f 1 9 2
f 2 9 14
f 2 14 19
f 2 19 23
f 2 23 28
f 2 28 33
f 2 33 37
f 2 37 42
f 2 42 46
f 2 46 50
f 2 50 53
f 2 53 51
f 2 51 47
f 2 47 43
f 2 43 40
f 2 40 35
f 2 35 30
f 2 30 25
f 2 25 21
f 2 21 20
f 2 20 15
f 2 15 11
f 2 11 10
f 2 10 6
f 2 6 5
f 2 5 4
f 2 4 3
f 7 10 11
f 7 11 12
f 8 13 9
f 9 13 14
f 11 15 12
f 12 15 16
f 13 17 14
f 14 17 18
f 14 18 19
f 15 20 16
f 16 20 21
f 16 21 22
f 18 23 19
f 18 24 23
f 21 25 22
f 22 25 26
f 23 24 27
f 23 27 28
f 25 29 26
f 25 30 31
f 25 31 29
f 27 32 33
f 27 33 28
f 29 31 35
f 29 35 38
f 29 38 34
f 30 35 31
f 32 36 37
f 32 37 33
f 34 38 39
f 35 40 38
f 36 41 42
f 36 42 37
f 38 40 43
f 38 43 39
f 39 43 44
f 41 45 46
f 41 46 42
f 43 47 48
f 43 48 44
f 45 49 50
f 45 50 46
f 47 51 48
f 48 51 52
f 49 52 53
f 49 53 50
f 51 53 52

