# https://github.com/mikedh/trimesh
v -37.54866881 26.50414530 39.11341022
v -37.54866881 29.49735526 19.64824413
v -37.30195312 28.70835022 19.64824413
v -37.27915433 28.63633585 19.64824413
v -37.21380376 28.60189627 19.64824413
v -36.50810222 28.25592388 19.64824413
v -33.12093214 27.99448881 20.05376904
v -32.50895151 27.99135658 20.04975318
v -37.50814061 26.50414530 39.11341022
v -37.54866881 26.50414530 54.08970312
v -37.54866881 40.76728011 19.64824413
v -36.42400598 28.25592388 19.64824413
v -32.37368763 27.99292120 20.04975318
v -37.27003779 26.50414530 39.15356143
v -37.50814061 26.50414530 54.08970312
v -36.50810222 28.31384771 58.56251584
v -36.50810222 28.69582728 59.48197168
v -37.28472737 28.80227826 59.38962317
v -37.54866881 28.64260030 58.68296796
v -37.53600580 41.49992594 19.64824413
v -37.54866881 42.36563923 32.60494642
v -32.37368763 28.37959763 19.64824413
v -36.34446651 26.50414530 40.55884310
v -36.66565527 26.50414530 39.54704023
v -32.37368763 27.99135658 42.04442718
v -36.32369726 26.50414530 43.55811635
v -36.32420390 26.50414530 41.55860135
v -37.20569752 26.50414530 54.03349293
v -35.50806085 28.34985191 58.56251584
v -32.37368763 28.59719942 58.48221343
v -35.50806085 28.73809296 59.32136985
v -36.50810222 29.18112561 59.97984063
v -37.15250332 29.67894986 60.17658376
v -37.54866881 29.43629921 59.59439505
v -37.54866881 29.42690849 59.58636332
v -37.26345148 42.23727161 19.64824413
v -37.54866881 42.47209319 33.60470392
v -32.37368763 42.49557445 19.64824413
v -32.37368763 27.99135658 42.08056251
v -36.32369726 26.50414530 51.56019671
v -36.65754904 26.50414530 53.61592042
v -32.37368763 28.36707469 57.71934505
v -32.37368763 28.70835022 58.59463680
v -32.37368763 29.12789863 58.97606801
v -32.37368763 30.68555669 60.35324608
v -36.50810222 29.68051449 60.18461251
v -36.50810222 30.50082986 60.48172993
v -37.29131368 30.50082986 60.29302151
v -37.54866881 30.50082986 60.01597895
v -36.57193287 42.45487339 19.64824413
v -37.54866881 42.47365781 34.60847655
v -37.50814061 42.47365781 33.56455346
v -36.50810222 42.47365781 19.64824413
v -32.37368763 42.49557445 58.56251584
v -36.33534700 26.50414530 52.55593760
v -36.64589930 26.50414530 53.59584556
v -32.37368763 31.50117522 60.64634613
v -32.50895151 31.50117522 60.65036349
v -35.50806085 31.50117522 60.66642397
v -36.50810222 31.50117522 60.65839224
v -37.40226184 31.50117522 60.35324608
v -37.54866881 31.50117522 60.22877958
v -37.54866881 42.47365781 58.56251584
v -37.54866881 42.30302153 59.56227408
v -32.37368763 42.34528721 59.42576148
v -32.37368763 32.63614966 60.64634613
v -32.37368763 40.49958059 60.63028863
v -37.54866881 40.49958059 60.63028863
v -37.54866881 36.45906572 60.63028863
v -37.54866881 35.49942441 60.61824253
v -37.54866881 34.50064367 60.52187964
v -37.54866881 42.06506772 60.12839934
v -32.37368763 42.31397687 59.56227408
v -32.37368763 40.63421266 60.60218204
v -37.54866881 41.49992594 60.41347065
v -37.54866881 42.04315108 60.14044545
v -32.37368763 42.06663235 60.12839934
v -32.37368763 42.10733340 60.05211429
v -32.37368763 41.49992594 60.41347065
f 1 2 3
f 1 3 4
f 1 4 5
f 1 5 6
f 1 6 7
f 1 7 8
f 1 8 9
f 1 9 14
f 1 14 24
f 1 24 23
f 1 23 27
f 1 27 26
f 1 26 40
f 1 40 55
f 1 55 56
f 1 56 41
f 1 41 28
f 1 28 15
f 1 15 10
f 1 10 19
f 1 19 35
f 1 35 34
f 1 34 49
f 1 49 62
f 1 62 71
f 1 71 70
f 1 70 69
f 1 69 68
f 1 68 75
f 1 75 76
f 1 76 72
f 1 72 64
f 1 64 63
f 1 63 51
f 1 51 37
f 1 37 21
f 1 21 11
f 1 11 2
f 2 11 20
f 2 20 36
f 2 36 50
f 2 50 53
f 2 53 38
f 2 38 22
f 2 22 12
f 2 12 6
f 2 6 5
f 2 5 4
f 2 4 3
f 6 12 8
f 6 8 7
f 8 12 13
f 8 13 9
f 9 13 14
f 10 15 16
f 10 16 17
f 10 17 18
f 10 18 19
f 11 21 20
f 12 22 13
f 13 23 24
f 13 24 14
f 13 22 38
f 13 38 54
f 13 54 65
f 13 65 73
f 13 73 78
f 13 78 77
f 13 77 79
f 13 79 74
f 13 74 67
f 13 67 66
f 13 66 57
f 13 57 45
f 13 45 44
f 13 44 43
f 13 43 30
f 13 30 42
f 13 42 39
f 13 39 25
f 13 25 26
f 13 26 27
f 13 27 23
f 15 28 29
f 15 29 16
f 16 29 17
f 17 29 30
f 17 30 31
f 17 31 32
f 17 32 18
f 18 32 33
f 18 33 34
f 18 34 35
f 18 35 19
f 20 21 37
f 20 37 36
f 25 39 40
f 25 40 26
f 28 41 42
f 28 42 30
f 28 30 29
f 30 43 31
f 31 43 32
f 32 43 44
f 32 44 45
f 32 45 46
f 32 46 33
f 33 46 47
f 33 47 48
f 33 48 49
f 33 49 34
f 36 37 50
f 37 51 52
f 37 52 53
f 37 53 50
f 38 53 52
f 38 52 51
f 38 51 63
f 38 63 54
f 39 55 40
f 39 42 55
f 41 56 42
f 42 56 55
f 45 57 47
f 45 47 46
f 47 57 58
f 47 58 59
f 47 59 60
f 47 60 48
f 48 61 62
f 48 62 49
f 48 60 61
f 54 63 64
f 54 64 65
f 57 66 58
f 58 66 67
f 58 67 59
f 59 68 60
f 59 67 68
f 60 68 69
f 60 69 70
f 60 70 61
f 61 70 71
f 61 71 62
f 64 72 73
f 64 73 65
f 67 74 68
f 68 74 75
f 72 76 77
f 72 77 78
f 72 78 73
f 74 79 75
f 75 79 76
f 76 79 77

