# https://github.com/mikedh/trimesh
v 2.48070934 24.32707645 -10.56339571
v 10.48500478 25.16101267 -10.56339571
v 2.48070934 24.50122220 -10.48132591
v 2.48070934 49.38440663 -10.56339571
v 10.80188457 25.50194595 -10.56339571
v 10.48500478 25.50194595 -10.52574040
v 2.48070934 25.49458775 -10.37204654
v 2.48070934 48.49896296 -10.37258000
v 10.48500478 48.69763458 -10.56339571
v 10.80188457 40.49808138 -10.56339571
v 2.48070934 26.50021548 -10.36960274
v 2.48070934 25.50194595 -10.37166507
v 10.48500478 36.50009184 -10.52574040
v 2.48070934 47.49088249 -10.36834210
v 2.48070934 48.49160475 -10.37252337
v 10.48500478 48.49896296 -10.52612187
v 10.60393715 48.62650523 -10.56339571
v 10.80107096 42.81347910 -10.56339571
v 10.48500478 47.49823772 -10.52606525
v 10.48500478 46.49996819 -10.52602650
v 10.48500478 43.49779842 -10.52591027
v 10.48500478 37.49836434 -10.52575828
v 2.48070934 47.49823772 -10.36834210
v 10.79944077 46.81392138 -10.56339571
v 10.79862717 48.49896296 -10.56339571
v 10.80025587 44.81492661 -10.56339571
f 1 2 3
f 1 3 7
f 1 7 12
f 1 12 11
f 1 11 14
f 1 14 23
f 1 23 15
f 1 15 8
f 1 8 4
f 1 4 9
f 1 9 17
f 1 17 25
f 1 25 24
f 1 24 26
f 1 26 18
f 1 18 10
f 1 10 5
f 1 5 2
f 2 5 6
f 2 6 3
f 3 6 7
f 4 8 9
f 5 10 13
f 5 13 6
f 6 11 12
f 6 12 7
f 6 13 23
f 6 23 14
f 6 14 11
f 8 15 16
f 8 16 9
f 9 16 17
f 10 18 19
f 10 19 20
f 10 20 21
f 10 21 22
f 10 22 13
f 13 22 23
f 15 23 16
f 16 19 24
f 16 24 25
f 16 25 17
f 16 23 19
f 18 26 19
f 19 23 20
f 19 26 24
f 20 23 21
f 21 23 22

