# https://github.com/mikedh/trimesh
v -3.63587242 -43.49499550 6.17747754
v -3.63587242 -43.49499550 10.42916881
v 2.15460048 -43.49499550 6.17747754
v -3.62423870 -48.49943429 6.17747754
v 2.93536666 -43.49499550 10.42916881
v -3.62423870 -48.49943429 10.42916881
v 2.96639090 -48.49943429 10.42916881
v 2.15783180 -44.48538688 6.17747754
v -3.61906799 -48.88619714 6.17747754
v -3.62294602 -48.63411106 10.42916881
v 2.18368533 -49.49949354 10.42916881
v 1.58582952 -49.91871710 6.17747754
v 1.74094847 -49.69425779 6.17747754
v 2.04278508 -49.19353675 6.17747754
v 2.15524645 -48.49943429 6.17747754
v 2.16688054 -47.49937504 6.17747754
v 2.16688054 -47.47382251 6.17747754
v 2.16106312 -45.48199204 6.17747754
v -3.61066560 -49.49949354 6.17747754
v -3.61066560 -49.49949354 10.42916881
v 1.39904038 -50.18600237 10.42916881
v 1.29304165 -50.14179954 6.17747754
v -3.49174085 -49.79923654 6.17747754
v -3.56930032 -49.60378385 10.42916881
v 1.30273709 -50.23019924 10.42916881
v 0.49094593 -50.39664531 6.17747754
v -3.30236597 -50.27440207 6.17747754
v -3.30236597 -50.27440207 10.42916881
v 0.49094593 -50.45328168 10.42916881
v 0.35715578 -50.48090845 10.42916881
v -0.50828034 -50.54858956 6.17747754
v -2.81567960 -50.44292238 6.17747754
v -2.50802632 -50.54997239 10.42916881
v -0.50828034 -50.54306421 10.42916881
v -0.50828034 -50.54582986 8.56390292
v -0.50828034 -50.54858956 6.56418526
v -1.50815333 -50.54928097 6.17747754
v -2.50802632 -50.54928097 6.17747754
v -1.50815333 -50.54928097 8.56390292
v -1.50815333 -50.54858956 9.56376101
v -1.50815333 -50.54720673 10.42916881
v -0.64271721 -50.54375562 10.42916881
f 1 2 5
f 1 5 3
f 1 3 8
f 1 8 18
f 1 18 17
f 1 17 16
f 1 16 15
f 1 15 14
f 1 14 13
f 1 13 12
f 1 12 22
f 1 22 26
f 1 26 31
f 1 31 37
f 1 37 38
f 1 38 32
f 1 32 27
f 1 27 23
f 1 23 19
f 1 19 9
f 1 9 4
f 1 4 6
f 1 6 2
f 2 6 10
f 2 10 20
f 2 20 24
f 2 24 28
f 2 28 33
f 2 33 41
f 2 41 42
f 2 42 34
f 2 34 30
f 2 30 29
f 2 29 25
f 2 25 21
f 2 21 11
f 2 11 7
f 2 7 5
f 3 5 7
f 3 7 8
f 4 9 10
f 4 10 6
f 7 11 12
f 7 12 13
f 7 13 14
f 7 14 15
f 7 15 16
f 7 16 17
f 7 17 18
f 7 18 8
f 9 19 10
f 10 19 20
f 11 21 12
f 12 21 22
f 19 23 24
f 19 24 20
f 21 25 22
f 22 25 26
f 23 27 28
f 23 28 24
f 25 29 26
f 26 29 30
f 26 30 31
f 27 32 33
f 27 33 28
f 30 34 35
f 30 35 36
f 30 36 31
f 31 36 39
f 31 39 33
f 31 33 37
f 32 38 33
f 33 38 37
f 33 39 40
f 33 40 41
f 34 42 35
f 35 42 40
f 35 40 36
f 36 40 39
f 40 42 41

