# https://github.com/mikedh/trimesh
v -7.63477791 45.49991946 58.53988810
v -7.87445239 46.13560129 58.53988810
v -7.92287157 46.09021822 59.25656088
v -7.85024242 45.45907529 59.56852327
v -7.87929378 44.80459114 59.53901295
v -7.77761402 44.66033867 58.53988810
v -7.77761402 44.66001681 57.54076324
v -7.63477791 45.49991946 17.56734683
v -8.51600454 46.37288785 58.53988810
v -7.87445239 46.13560129 17.56734683
v -8.52326738 46.17514905 59.56852327
v -8.86220018 46.04321688 60.08705491
v -8.19401811 45.76540802 59.92264113
v -7.99307853 45.09860654 60.06176163
v -7.99307853 44.96537797 60.06176163
v -8.29327718 44.30473367 59.53901295
v -8.16980815 44.16048120 58.53988810
v -8.16980815 44.16015636 57.54076324
v -8.16012461 44.17247666 17.56734683
v -7.77761402 44.66001681 17.56734683
v -9.51585732 46.47499975 58.53988810
v -9.51585732 46.30222044 59.53901295
v -8.51600454 46.37288785 17.56734683
v -8.54021376 46.37548066 17.56734683
v -9.51585732 46.06493388 60.10813414
v -9.51585732 45.49991946 60.39058621
v -8.52326738 45.45907529 60.18823400
v -9.51585732 44.50020451 60.49597936
v -8.57652796 44.57962488 60.18823400
v -9.57396004 43.16335907 60.18823400
v -9.26892000 43.16335907 59.53901295
v -9.08250684 43.16335907 58.53988810
v -9.06798116 43.16335907 57.62086310
v -8.18191313 44.14654263 17.56734683
v -8.16980815 44.16015636 17.56734683
v -30.51277165 46.47499975 58.53988810
v -9.51585732 46.47499975 17.56734683
v -30.51277165 46.30222044 59.53901295
v -10.51571010 45.49991946 60.40323435
v -30.51277165 46.06493388 60.10813414
v -10.51571010 44.50020451 60.61823469
v -10.85222295 43.16335907 60.54235186
v -10.51571010 43.16335907 60.47911717
v -9.06798116 43.16335907 17.56734683
v -31.51262517 46.36283849 58.53988810
v -30.51277165 46.47499975 17.56734683
v -30.53940157 46.47208210 17.56734683
v -31.50051945 46.17093499 59.56009218
v -31.15916594 46.04321688 60.08705491
v -29.51291812 45.49991946 60.40323435
v -11.51556362 44.50020451 60.63088282
v -30.51277165 45.49991946 60.39058621
v -11.51556362 43.50016472 60.62666876
v -11.51556362 43.16335907 60.62245173
v -30.89528075 43.16335907 17.56734683
v -32.14207234 46.12555192 58.53988810
v -32.09849530 46.08373620 59.23969571
v -31.51262517 46.36283849 17.56734683
v -31.52957081 46.35700318 17.56734683
v -31.82492731 45.74887664 59.90577895
v -31.50051945 45.44935078 60.18401994
v -28.51306609 44.50020451 60.63088282
v -12.51541640 43.50016472 60.63509986
v -12.51541640 43.16335907 60.63509986
v -30.51277165 44.50020451 60.48755124
v -29.51291812 44.50020451 60.61823469
v -31.84429588 44.17993024 17.56734683
v -30.89528075 43.16335907 57.54076324
v -32.36722040 45.49991946 58.53988810
v -32.14207234 46.12555192 17.56734683
v -32.16628082 45.44935078 59.56009218
v -32.03312973 45.08207516 60.05754460
v -27.51321256 43.50016472 60.63509986
v -28.51306609 43.50016472 60.62666876
v -27.51321256 43.16335907 60.63509986
v -29.51291812 43.16335907 60.47068608
v -28.51306609 43.16335907 60.62245173
v -32.03312973 44.97023874 60.05754460
v -31.44967956 44.58253955 60.18401994
v -30.44982753 43.16335907 60.18401994
v -29.81069458 43.16335907 60.38637216
v -32.22922643 44.66779523 17.56734683
v -31.84429588 44.17993024 57.54076324
v -30.88801791 43.16335907 58.53988810
v -31.84187295 44.18025508 58.53988810
v -32.23890922 44.68011255 58.53988810
v -32.13965090 44.81820785 59.53901295
v -32.36722040 45.49991946 17.56734683
v -31.72082610 44.31802553 59.53901295
v -30.59024145 43.16335907 59.88470270
v -32.23890922 44.68011255 17.56734683
v -30.78633814 43.16335907 59.23969571
v -30.74276110 43.16335907 59.53901295
f 1 2 3
f 1 3 4
f 1 4 5
f 1 5 6
f 1 6 7
f 1 7 20
f 1 20 8
f 1 8 10
f 1 10 2
f 2 9 3
f 2 10 23
f 2 23 9
f 3 9 11
f 3 11 12
f 3 12 13
f 3 13 14
f 3 14 4
f 4 14 15
f 4 15 5
f 5 15 16
f 5 16 17
f 5 17 6
f 6 17 18
f 6 18 7
f 7 18 19
f 7 19 20
f 8 20 19
f 8 19 35
f 8 35 34
f 8 34 44
f 8 44 55
f 8 55 67
f 8 67 82
f 8 82 91
f 8 91 88
f 8 88 70
f 8 70 59
f 8 59 58
f 8 58 47
f 8 47 46
f 8 46 37
f 8 37 24
f 8 24 23
f 8 23 10
f 9 21 22
f 9 22 11
f 9 23 24
f 9 24 21
f 11 22 12
f 12 22 25
f 12 25 26
f 12 26 27
f 12 27 13
f 13 27 14
f 14 27 28
f 14 28 15
f 15 28 29
f 15 29 30
f 15 30 16
f 16 31 17
f 16 30 31
f 17 31 32
f 17 32 33
f 17 33 18
f 18 33 34
f 18 34 35
f 18 35 19
f 21 36 38
f 21 38 22
f 21 24 37
f 21 37 46
f 21 46 36
f 22 38 40
f 22 40 25
f 25 39 26
f 25 40 50
f 25 50 39
f 26 39 51
f 26 51 41
f 26 41 28
f 26 28 27
f 28 41 42
f 28 42 43
f 28 43 30
f 28 30 29
f 30 43 42
f 30 42 54
f 30 54 64
f 30 64 75
f 30 75 77
f 30 77 76
f 30 76 81
f 30 81 80
f 30 80 90
f 30 90 93
f 30 93 92
f 30 92 84
f 30 84 68
f 30 68 55
f 30 55 44
f 30 44 33
f 30 33 32
f 30 32 31
f 33 44 34
f 36 45 38
f 36 46 47
f 36 47 45
f 38 45 48
f 38 48 49
f 38 49 40
f 39 50 62
f 39 62 51
f 40 49 52
f 40 52 50
f 41 53 54
f 41 54 42
f 41 51 53
f 45 56 57
f 45 57 48
f 45 47 58
f 45 58 59
f 45 59 56
f 48 57 49
f 49 57 60
f 49 60 61
f 49 61 52
f 50 52 66
f 50 66 62
f 51 63 64
f 51 64 53
f 51 62 73
f 51 73 63
f 52 61 65
f 52 65 66
f 53 64 54
f 55 68 83
f 55 83 67
f 56 69 57
f 56 59 70
f 56 70 88
f 56 88 69
f 57 69 71
f 57 71 72
f 57 72 60
f 60 72 61
f 61 72 65
f 62 66 74
f 62 74 75
f 62 75 73
f 63 73 75
f 63 75 64
f 65 76 77
f 65 77 66
f 65 72 78
f 65 78 79
f 65 79 80
f 65 80 81
f 65 81 76
f 66 77 74
f 67 83 82
f 68 84 85
f 68 85 83
f 69 86 87
f 69 87 71
f 69 88 91
f 69 91 86
f 71 78 72
f 71 87 78
f 74 77 75
f 78 87 89
f 78 89 90
f 78 90 80
f 78 80 79
f 82 83 86
f 82 86 91
f 83 85 86
f 84 92 85
f 85 92 93
f 85 93 89
f 85 89 87
f 85 87 86
f 89 93 90

