# https://github.com/mikedh/trimesh
v -38.40212824 15.49315869 46.67953844
v -37.51429144 15.49315869 46.67615587
v -38.40212824 15.49315869 38.81385537
v -38.50888336 6.71392979 46.59048892
v -38.50888336 -13.22633885 46.59048892
v -38.24852081 -13.23477591 46.59048892
v -37.24859129 -13.23477591 46.59048892
v -34.51568902 -12.49801706 46.59048892
v -34.51568902 15.49315869 46.30304942
v -34.51568902 6.71674164 46.59161545
v -34.51568902 12.49832328 46.59161545
v -34.51568902 13.49941510 46.56681689
v -34.51568902 14.49769357 46.47889391
v -37.42414222 15.49315869 35.25299375
v -37.42414222 14.49769357 35.25299375
v -38.50888336 -13.23477591 39.56006976
v -38.50888336 6.71392979 39.59501305
v -38.50888336 -13.23477591 39.70548005
v -36.24866475 -13.23477591 46.58485329
v -34.51568902 -13.23477591 46.57358054
v -33.51576248 -12.49801706 46.40562624
v -34.44748627 15.49315869 46.29177667
v -33.51576248 6.71392979 46.40562624
v -33.51576248 12.49832328 46.40449822
v -33.51576248 13.49941510 46.38082768
v -33.51576248 14.49769357 46.29628577
v -33.52228324 15.41161043 46.14862093
v -33.55905640 15.49315869 46.14185877
v -32.45059256 15.49315869 35.25299375
v -34.51568902 -13.23477591 35.16507225
v -35.51443240 -13.23477591 35.16619878
v -36.49301150 -13.23477591 35.25863087
v -36.51436192 -13.23477591 35.26201195
v -37.24918435 -13.23477591 35.61257439
v -33.51576248 -13.23477591 46.38759133
v -32.93454450 -13.23477591 46.12156931
v -32.92624156 -12.49801706 46.13058602
v -33.38765694 6.71674164 46.34588289
v -32.92624156 12.49832328 46.12945949
v -32.93691677 13.49941510 46.11818674
v -32.97783991 14.49769357 46.07873434
v -33.01045862 15.01792395 46.04604560
v -33.42561325 15.49315869 46.09113362
v -32.45118563 14.79014732 35.25299375
v -33.51576248 -13.23477591 35.16619878
v -32.45059256 15.49315869 43.54138040
v -32.45059256 -13.23477591 37.54348860
v -32.45296483 -13.23477591 36.54365147
v -32.85922345 -13.23477591 45.96601279
v -32.65461222 -13.23477591 45.54218120
v -32.64393700 -12.49801706 45.54218120
v -32.92624156 6.71392979 46.13058602
v -32.64393700 12.49832328 45.54105467
v -32.65757755 13.49941510 45.54105467
v -32.70443137 14.49769357 45.54105467
v -32.80584739 15.41161043 45.58952526
v -32.80584739 15.49315869 45.57036233
v -32.92031088 15.49315869 45.69660969
v -32.45237176 14.49769357 35.25299375
v -32.69375467 -13.23477591 35.58664930
v -32.47431675 15.49315869 44.54121753
v -32.45949006 14.49769357 44.54121753
v -32.45355790 13.49941510 44.54121753
v -32.45059256 12.49832328 44.54121753
v -32.45059256 -13.23477591 43.54138040
v -32.45355790 -13.23477591 44.54121753
v -32.45118563 -12.49801706 44.54121753
v -32.45059256 6.71674164 44.54121753
v -32.64393700 6.71392979 45.54218120
v -32.47609595 15.49315869 44.54798118
v -32.78449547 15.49315869 45.51062047
f 1 2 9
f 1 9 22
f 1 22 28
f 1 28 43
f 1 43 58
f 1 58 57
f 1 57 71
f 1 71 70
f 1 70 61
f 1 61 46
f 1 46 29
f 1 29 14
f 1 14 3
f 1 3 17
f 1 17 4
f 1 4 5
f 1 5 6
f 1 6 7
f 1 7 8
f 1 8 2
f 2 8 10
f 2 10 11
f 2 11 12
f 2 12 13
f 2 13 9
f 3 14 15
f 3 15 16
f 3 16 17
f 4 17 16
f 4 16 18
f 4 18 5
f 5 18 6
f 6 18 16
f 6 16 34
f 6 34 33
f 6 33 32
f 6 32 31
f 6 31 30
f 6 30 45
f 6 45 60
f 6 60 48
f 6 48 47
f 6 47 65
f 6 65 66
f 6 66 50
f 6 50 49
f 6 49 36
f 6 36 35
f 6 35 20
f 6 20 19
f 6 19 7
f 7 19 8
f 8 19 20
f 8 20 21
f 8 21 10
f 9 13 22
f 10 21 23
f 10 23 11
f 11 23 24
f 11 24 25
f 11 25 12
f 12 25 26
f 12 26 13
f 13 26 27
f 13 27 28
f 13 28 22
f 14 29 30
f 14 30 31
f 14 31 15
f 15 31 32
f 15 32 33
f 15 33 34
f 15 34 16
f 20 35 21
f 21 35 36
f 21 36 37
f 21 37 38
f 21 38 23
f 23 38 24
f 24 38 39
f 24 39 40
f 24 40 25
f 25 40 41
f 25 41 26
f 26 41 42
f 26 42 27
f 27 42 43
f 27 43 28
f 29 44 45
f 29 45 30
f 29 46 64
f 29 64 68
f 29 68 65
f 29 65 47
f 29 47 48
f 29 48 44
f 36 49 37
f 37 49 50
f 37 50 51
f 37 51 69
f 37 69 52
f 37 52 38
f 38 52 39
f 39 53 54
f 39 54 40
f 39 52 69
f 39 69 53
f 40 54 55
f 40 55 41
f 41 55 56
f 41 56 42
f 42 56 57
f 42 57 58
f 42 58 43
f 44 59 45
f 44 48 59
f 45 59 60
f 46 61 62
f 46 62 63
f 46 63 64
f 48 60 59
f 50 66 51
f 51 66 67
f 51 67 68
f 51 68 64
f 51 64 69
f 53 64 63
f 53 63 62
f 53 62 54
f 53 69 64
f 54 62 61
f 54 61 70
f 54 70 55
f 55 70 71
f 55 71 57
f 55 57 56
f 65 67 66
f 65 68 67

