# https://github.com/mikedh/trimesh
v -3.62270090 -25.74943934 -11.79376727
v -3.81020977 -25.74943934 -8.47915396
v -5.54148062 -25.04892938 -8.43667371
v -5.54148062 -25.02386859 -8.98164526
v -5.54148062 -24.66998964 -9.48150501
v -5.54148062 -24.65277879 -9.50290906
v -5.54148062 -24.17087495 -10.09694420
v -5.54148062 -23.50025672 -10.39626699
v -5.54148062 -23.46523152 -10.40153604
v -5.54148062 -22.66477792 -10.51843572
v -3.62270090 -25.49973150 -11.79376727
v 7.80987767 -25.74943934 -11.79376727
v -3.81020977 -25.74943934 -8.43667371
v -5.54148062 -25.04892938 -8.43009037
v -5.54148062 -22.66477792 -8.43009037
v -3.27863139 -22.66477792 -10.59021764
v -2.50675003 -23.76626943 -11.79376727
v -3.12753204 -23.88735038 -11.79376727
v -3.23858077 -24.08149922 -11.79376727
v -3.43701220 -24.49969311 -11.79376727
v -3.52439490 -24.85749702 -11.79376727
v 13.05284396 -25.74913834 -11.79376727
v 7.80987767 -25.74943934 -10.52501906
v -3.67913536 -25.74943934 -8.43009037
v -3.81020977 -25.74913834 -8.43009037
v -0.93568092 -22.66477792 -8.43009037
v -2.50675003 -22.66477792 -10.59911066
v -1.50730993 -23.75751351 -11.79376727
v 13.05284396 -25.49973150 -11.79376727
v 12.59772497 -25.74913834 -11.30905605
v 12.47393350 -25.74913834 -11.20071858
v 12.09891575 -25.74913834 -10.87571214
v 11.49087648 -25.74913834 -10.67155419
v 1.36175765 -25.74943934 -8.43009037
v -0.79368395 -22.66477792 -8.61119621
v 1.01222686 -23.97763061 -8.43009037
v 11.43080092 -24.50573106 -10.82236595
v 11.05760410 -23.99001050 -10.92214120
v 12.00606954 -23.98336756 -11.79376727
v -2.27190908 -22.66477792 -10.59943848
v -1.14867601 -23.75841950 -11.79376727
v 12.99458783 -24.88648278 -11.79376727
v 12.59772497 -25.49973150 -11.30905605
v 12.09709482 -25.49973150 -10.87603996
v 11.49087648 -25.49973150 -10.67188201
v 1.36175765 -25.49973150 -8.43009037
v -0.57158648 -22.66477792 -9.24738081
v 1.01768814 -23.98336756 -8.43009037
v 12.06068530 -24.84300266 -10.89645755
v 11.72389800 -24.17661190 -11.17503492
v 12.06796602 -23.99816293 -11.79376727
v 11.76758823 -23.96253424 -11.79376727
v -0.68445539 -22.66477792 -10.27410123
v -0.52243348 -22.66477792 -9.43639321
v -1.50730993 -22.66477792 -10.58692746
v 10.84824862 -23.94169942 -11.79376727
v 12.93451227 -24.75876038 -11.79376727
v 1.20155591 -24.49969311 -8.43009037
v 12.57952021 -24.32788559 -11.79376727
v 11.45082511 -23.95287232 -11.79376727
v -1.31433977 -22.66477792 -10.52205671
f 1 2 3
f 1 3 4
f 1 4 5
f 1 5 6
f 1 6 7
f 1 7 8
f 1 8 9
f 1 9 10
f 1 10 11
f 1 11 21
f 1 21 20
f 1 20 19
f 1 19 18
f 1 18 17
f 1 17 28
f 1 28 41
f 1 41 56
f 1 56 60
f 1 60 52
f 1 52 39
f 1 39 51
f 1 51 59
f 1 59 57
f 1 57 42
f 1 42 29
f 1 29 22
f 1 22 12
f 1 12 23
f 1 23 34
f 1 34 24
f 1 24 13
f 1 13 2
f 2 13 14
f 2 14 3
f 3 14 15
f 3 15 10
f 3 10 9
f 3 9 8
f 3 8 7
f 3 7 6
f 3 6 5
f 3 5 4
f 10 15 26
f 10 26 35
f 10 35 47
f 10 47 54
f 10 54 53
f 10 53 61
f 10 61 55
f 10 55 40
f 10 40 27
f 10 27 16
f 10 16 17
f 10 17 18
f 10 18 19
f 10 19 20
f 10 20 21
f 10 21 11
f 12 22 23
f 13 24 25
f 13 25 14
f 14 25 24
f 14 24 34
f 14 34 46
f 14 46 58
f 14 58 48
f 14 48 36
f 14 36 26
f 14 26 15
f 16 27 17
f 17 27 28
f 22 29 43
f 22 43 30
f 22 30 23
f 23 30 31
f 23 31 32
f 23 32 33
f 23 33 34
f 26 36 37
f 26 37 38
f 26 38 39
f 26 39 35
f 27 40 28
f 28 40 41
f 29 42 43
f 30 43 31
f 31 43 32
f 32 43 44
f 32 44 45
f 32 45 33
f 33 45 46
f 33 46 34
f 35 39 47
f 36 48 49
f 36 49 37
f 37 49 38
f 38 49 50
f 38 50 51
f 38 51 39
f 39 52 53
f 39 53 54
f 39 54 47
f 40 55 41
f 41 55 56
f 42 57 49
f 42 49 43
f 43 49 44
f 44 49 45
f 45 49 48
f 45 48 58
f 45 58 46
f 49 57 59
f 49 59 50
f 50 59 51
f 52 60 55
f 52 55 61
f 52 61 53
f 55 60 56

