# https://github.com/mikedh/trimesh
v 5.07863773 -43.49431005 -4.81453899
v 5.07949007 -48.49939256 -4.81453899
v 1.48074722 -47.85157015 -9.08367655
v 1.47818720 -43.49431005 -9.08367655
v -3.63581616 -43.49431005 -4.81453899
v 4.99331810 -48.67343227 -4.81453899
v 1.06097902 -50.05885962 -9.08367655
v 1.23673534 -49.68591612 -9.08367655
v 1.30243087 -49.49944287 -9.08367655
v 1.42187716 -48.85162046 -9.08367655
v 1.47733410 -48.49939256 -9.08367655
v -3.63666926 -43.49431005 -9.08367655
v -3.62472485 -48.49939256 -4.81453899
v 4.53345011 -49.55538485 -4.81453899
v 0.49190333 -50.33304711 -9.08367655
v 4.46946150 -49.62099470 -4.81453899
v 4.01215353 -49.99601245 -4.81453899
v -3.62472485 -48.49939256 -9.08367655
v -3.61960555 -48.87786440 -4.81453899
v -0.50803224 -50.54852996 -9.08367655
v 3.38676707 -50.16798387 -4.81453899
v 3.08729825 -50.23704782 -4.81453899
v -3.61107389 -49.49944287 -9.08367655
v -3.61107389 -49.49944287 -4.81453899
v 0.11394111 -50.54783854 -4.81453899
v -0.50803224 -50.54921541 -7.43604225
v -1.15560133 -50.54921541 -9.08367655
v 2.13940725 -50.40141964 -4.81453899
v 1.11302359 -50.52504571 -4.81453899
v -3.41142801 -50.00153780 -9.08367655
v -3.49418725 -49.79296314 -4.81453899
v -0.50803224 -50.54921541 -4.81453899
v -2.50790301 -50.54921541 -9.08367655
v -3.30221994 -50.27434246 -9.08367655
v -3.30221994 -50.27434246 -4.81453899
v -2.50790301 -50.54921541 -4.81453899
v -3.02322794 -50.37172459 -9.08367655
v -2.80822455 -50.44562247 -4.81453899
f 1 2 3
f 1 3 4
f 1 4 12
f 1 12 5
f 1 5 13
f 1 13 19
f 1 19 24
f 1 24 31
f 1 31 35
f 1 35 38
f 1 38 36
f 1 36 32
f 1 32 25
f 1 25 29
f 1 29 28
f 1 28 22
f 1 22 21
f 1 21 17
f 1 17 16
f 1 16 14
f 1 14 6
f 1 6 2
f 2 6 7
f 2 7 8
f 2 8 9
f 2 9 10
f 2 10 11
f 2 11 3
f 3 11 10
f 3 10 9
f 3 9 8
f 3 8 7
f 3 7 15
f 3 15 20
f 3 20 27
f 3 27 33
f 3 33 37
f 3 37 34
f 3 34 30
f 3 30 23
f 3 23 18
f 3 18 12
f 3 12 4
f 5 12 13
f 6 14 7
f 7 14 16
f 7 16 17
f 7 17 15
f 12 18 13
f 13 18 19
f 15 17 21
f 15 21 22
f 15 22 20
f 18 23 19
f 19 23 24
f 20 25 26
f 20 26 27
f 20 22 28
f 20 28 29
f 20 29 25
f 23 30 24
f 24 30 31
f 25 32 26
f 26 32 36
f 26 36 33
f 26 33 27
f 30 34 35
f 30 35 31
f 33 36 37
f 34 37 35
f 35 37 38
f 36 38 37

