# https://github.com/mikedh/trimesh
v -4.04983969 -34.69064617 -8.37711681
v -3.83294205 -34.36267394 -11.29234409
v -8.92579474 -35.45159039 -8.37711681
v -4.04983969 -42.72008142 -8.37711681
v -3.83294205 -34.36267394 -13.45716528
v -8.92679200 -35.45041022 -11.29234409
v -3.83294205 -42.78378997 -11.29234409
v -8.92579474 -46.41508504 -8.37711681
v -7.87272012 -46.13430190 -8.37711681
v -3.83294205 -42.80384399 -11.29314578
v -3.83294205 -34.36503429 -14.45637656
v -8.92679200 -35.45041022 -15.45638655
v -8.92679200 -46.41508504 -11.29234409
v -8.92579474 -46.41508504 -10.37073523
v -8.51393886 -46.37261367 -10.37073523
v -8.51393886 -46.37143349 -8.37711681
v -7.87272012 -46.13430190 -14.45637656
v -3.83294205 -42.80384399 -13.46036605
v -3.83294205 -34.42048162 -15.39158425
v -8.92679200 -35.72647564 -16.24359263
v -3.83294205 -34.42755969 -15.45638655
v -8.92679200 -46.41508504 -14.45637656
v -8.51393886 -46.37261367 -11.29154539
v -8.51443749 -46.37143349 -14.45637656
v -7.92058713 -46.08947316 -15.17238475
v -3.83294205 -42.70002739 -15.45638655
v -3.83294205 -42.79912627 -14.46037604
v -3.83294205 -35.49760229 -16.35239516
v -8.92679200 -36.50039582 -16.54039753
v -3.83294205 -34.79328558 -16.08199219
v -8.92679200 -46.34312123 -14.86918128
v -8.52241540 -46.17441591 -15.48678796
v -8.86097493 -46.04110091 -16.00279236
v -8.19432676 -45.76503847 -15.83959154
v -3.83294205 -42.34137957 -16.15559215
v -3.83294205 -42.69294635 -15.47158576
v -3.83294205 -36.50039582 -16.54759779
v -8.92679200 -37.50201215 -16.54999688
v -8.92679200 -46.22514552 -15.47398784
v -8.92679200 -46.04464144 -16.00519145
v -8.92679200 -45.98801393 -16.03319079
v -3.83294205 -42.15733794 -16.24679340
v -3.83294205 -37.50201215 -16.54999688
v -8.92679200 -39.50052115 -16.54999688
v -8.92679200 -45.47363674 -16.18599356
v -3.83294205 -41.49903312 -16.39799579
v -3.83294205 -39.50052115 -16.54999688
v -3.83294205 -40.18242051 -16.54919817
v -7.51421600 -40.49977713 -16.54839649
v -8.92679200 -40.08921952 -16.54359533
v -8.92679200 -45.06661965 -16.22919510
v -3.83294205 -40.49977713 -16.54839649
v -3.83294205 -41.18049632 -16.46839498
v -8.92679200 -40.49977713 -16.53639805
f 1 2 3
f 1 3 8
f 1 8 16
f 1 16 9
f 1 9 4
f 1 4 7
f 1 7 2
f 2 5 12
f 2 12 6
f 2 6 3
f 2 7 10
f 2 10 18
f 2 18 27
f 2 27 26
f 2 26 36
f 2 36 35
f 2 35 42
f 2 42 46
f 2 46 53
f 2 53 52
f 2 52 48
f 2 48 47
f 2 47 43
f 2 43 37
f 2 37 28
f 2 28 30
f 2 30 21
f 2 21 19
f 2 19 11
f 2 11 5
f 3 6 13
f 3 13 8
f 4 9 10
f 4 10 7
f 5 11 12
f 6 12 20
f 6 20 29
f 6 29 38
f 6 38 44
f 6 44 50
f 6 50 54
f 6 54 51
f 6 51 45
f 6 45 41
f 6 41 40
f 6 40 39
f 6 39 31
f 6 31 22
f 6 22 13
f 8 13 22
f 8 22 14
f 8 14 23
f 8 23 15
f 8 15 16
f 9 16 15
f 9 15 23
f 9 23 17
f 9 17 18
f 9 18 10
f 11 19 12
f 12 19 21
f 12 21 20
f 14 22 23
f 17 23 24
f 17 24 25
f 17 25 26
f 17 26 27
f 17 27 18
f 20 28 29
f 20 21 30
f 20 30 28
f 22 31 24
f 22 24 23
f 24 31 32
f 24 32 25
f 25 32 33
f 25 33 34
f 25 34 35
f 25 35 36
f 25 36 26
f 28 37 29
f 29 37 38
f 31 39 32
f 32 39 33
f 33 39 40
f 33 40 41
f 33 41 42
f 33 42 35
f 33 35 34
f 37 43 38
f 38 43 47
f 38 47 44
f 41 45 42
f 42 45 46
f 44 48 49
f 44 49 50
f 44 47 48
f 45 51 52
f 45 52 53
f 45 53 46
f 48 52 49
f 49 54 50
f 49 52 51
f 49 51 54

