# https://github.com/mikedh/trimesh
v 8.12142538 -4.27554187 -2.74941861
v 8.75412459 -4.27554187 -3.09355517
v 8.12142538 -4.27554187 -0.07081406
v 8.12142538 9.50111146 -3.64042811
v 9.49298421 -4.27554187 -3.36281037
v 24.47396204 -4.27554187 -0.07081406
v 8.12142538 50.53590611 -0.07081406
v 8.12142538 10.50470974 -3.64480906
v 14.12782927 -4.27554187 -4.13990342
v 28.27652906 -4.27554187 -2.74822353
v 28.27652906 -2.49912271 -2.74782567
v 28.27652906 1.50453411 -2.74742781
v 28.27652906 6.50105292 -2.74702846
v 24.47396204 48.49650514 -0.07081406
v 16.12784048 50.54127053 -0.07081406
v 8.49297860 50.54127053 -0.43645898
v 8.12142538 50.54127053 -1.06617945
v 8.12142538 11.91618583 -3.64480906
v 29.80944820 -4.27554187 -4.13990342
v 14.12782927 47.49827576 -4.13990342
v 28.38693481 -4.27554187 -2.83147041
v 28.77759581 -4.27554187 -3.12820635
v 28.77759581 13.50476829 -3.12780998
v 28.27652906 20.50311626 -2.74702846
v 28.27652906 44.49821721 -2.74822353
v 28.27440713 48.49650514 -2.74862288
v 24.35718753 49.12979295 -0.07081406
v 16.49302346 50.54127053 -0.07081406
v 8.12142538 50.54127053 -1.43620530
v 8.12142538 18.91453380 -3.64401334
v 29.79883260 -4.27554187 -4.12795566
v 29.80944820 48.49650514 -4.13990342
v 8.12142538 24.90928349 -3.64321761
v 14.12995269 48.49650514 -4.13990342
v 8.12142538 21.91459234 -3.64361398
v 29.29776884 -4.27554187 -3.62808100
v 29.29776884 29.49792449 -3.62768165
v 28.77759581 30.49615686 -3.12780998
v 28.77547388 48.49650514 -3.12780998
v 28.15126386 49.49473751 -2.83027534
v 24.28924713 49.49473751 -0.07081406
v 17.49302907 50.54127053 -0.43645898
v 22.49093518 50.53590611 -0.07081406
v 16.49302346 50.54127053 -4.13990342
v 8.12142538 50.36953157 -2.43595163
v 29.40817161 -4.27554187 -3.73761355
v 29.79883260 48.49650514 -4.12795566
v 29.80520136 48.51797475 -4.13990342
v 8.12142538 47.49827576 -3.63604717
v 8.12142538 48.49650514 -3.63047115
v 14.26158813 49.49473751 -4.13990342
v 29.29776884 48.49650514 -3.62768165
v 29.17674749 49.49473751 -3.74996364
v 28.65020570 49.49473751 -3.24968963
v 28.01326115 50.01531883 -2.91989395
v 24.04720743 50.06362246 -0.07081406
v 24.13637901 49.85968207 -0.07081406
v 20.49092396 50.54127053 -2.43595163
v 23.19369820 50.53590611 -4.13990342
v 21.19368699 50.54127053 -4.13990342
v 23.12575781 50.40710040 -0.07081406
v 28.46336887 50.29976429 -4.13990342
v 28.19372624 50.34806196 -4.13990342
v 27.49096321 50.42319962 -4.13990342
v 24.19370381 50.51980093 -4.13990342
v 15.49301785 50.42319962 -4.13990342
v 8.12142538 50.09582091 -3.07403762
v 29.60987086 49.32299854 -4.13990342
v 8.12142538 48.83461567 -3.57311357
v 14.54821363 50.14412455 -4.13990342
v 29.56740849 49.49473751 -4.13990342
v 29.03449794 50.03142402 -3.89335164
v 28.40391916 50.11729052 -3.51018295
v 23.49094078 50.33196274 -0.07081406
v 29.04086670 50.12801936 -4.13990342
v 15.22762354 50.34806196 -4.13990342
v 8.12142538 49.48400271 -3.43450288
v 29.18736309 50.07435131 -4.13990342
f 1 2 5
f 1 5 9
f 1 9 19
f 1 19 31
f 1 31 46
f 1 46 36
f 1 36 22
f 1 22 21
f 1 21 10
f 1 10 6
f 1 6 3
f 1 3 7
f 1 7 17
f 1 17 29
f 1 29 45
f 1 45 67
f 1 67 77
f 1 77 69
f 1 69 50
f 1 50 49
f 1 49 33
f 1 33 35
f 1 35 30
f 1 30 18
f 1 18 8
f 1 8 4
f 1 4 2
f 2 4 5
f 3 6 14
f 3 14 27
f 3 27 41
f 3 41 57
f 3 57 56
f 3 56 74
f 3 74 61
f 3 61 43
f 3 43 28
f 3 28 15
f 3 15 7
f 4 8 9
f 4 9 5
f 6 10 11
f 6 11 12
f 6 12 13
f 6 13 24
f 6 24 14
f 7 15 16
f 7 16 17
f 8 18 20
f 8 20 9
f 9 20 34
f 9 34 51
f 9 51 70
f 9 70 76
f 9 76 66
f 9 66 44
f 9 44 60
f 9 60 59
f 9 59 65
f 9 65 64
f 9 64 63
f 9 63 62
f 9 62 75
f 9 75 78
f 9 78 71
f 9 71 68
f 9 68 48
f 9 48 32
f 9 32 19
f 10 21 11
f 11 21 12
f 12 21 13
f 13 21 22
f 13 22 23
f 13 23 38
f 13 38 24
f 14 25 26
f 14 26 27
f 14 24 25
f 15 28 42
f 15 42 58
f 15 58 60
f 15 60 44
f 15 44 29
f 15 29 17
f 15 17 16
f 18 30 20
f 19 32 47
f 19 47 31
f 20 33 34
f 20 30 35
f 20 35 33
f 22 36 23
f 23 36 37
f 23 37 52
f 23 52 38
f 24 38 25
f 25 38 39
f 25 39 26
f 26 39 40
f 26 40 41
f 26 41 27
f 28 43 42
f 29 44 45
f 31 47 46
f 32 48 47
f 33 49 34
f 34 50 51
f 34 49 50
f 36 46 37
f 37 46 52
f 38 52 39
f 39 52 53
f 39 53 54
f 39 54 40
f 40 54 55
f 40 55 56
f 40 56 57
f 40 57 41
f 42 43 58
f 43 59 60
f 43 60 58
f 43 61 62
f 43 62 63
f 43 63 64
f 43 64 65
f 43 65 59
f 44 66 67
f 44 67 45
f 46 47 52
f 47 48 68
f 47 68 52
f 50 69 70
f 50 70 51
f 52 68 53
f 53 68 71
f 53 71 72
f 53 72 54
f 54 72 55
f 55 72 73
f 55 73 74
f 55 74 56
f 61 74 62
f 62 73 75
f 62 74 73
f 66 76 67
f 67 76 77
f 69 77 70
f 70 77 76
f 71 78 72
f 72 78 73
f 73 78 75

