# https://github.com/mikedh/trimesh
v 7.81063465 -22.66477792 3.73443219
v -0.58001830 -22.66477792 8.95787049
v 1.02647983 -23.97732961 8.95787049
v 1.15196705 -24.18295383 8.95787049
v 1.26699738 -24.49969311 8.95787049
v 1.37679814 -24.89372922 8.95787049
v 1.47483518 -25.49973150 8.95787049
v 1.47614276 -25.74943934 8.95787049
v 7.81063465 -25.74943934 3.73443219
v 7.81063465 -22.66477792 -3.72032521
v -5.54330080 -22.66477792 8.95787049
v -3.77210078 -25.74943934 8.95787049
v 7.81063465 -25.74943934 -3.72032521
v 1.36111243 -25.49973150 -8.42975956
v 1.20033178 -24.49969311 -8.42975956
v 1.01732977 -23.98336756 -8.42975956
v 1.01210095 -23.97732961 -8.42975956
v -0.93687302 -22.66477792 -8.42975956
v -5.54330080 -25.02779356 8.95787049
v -5.54330080 -22.66477792 -8.42975956
v -5.54330080 -25.04560642 8.56300736
v -3.81131544 -25.74943934 8.56300736
v 1.36111243 -25.74943934 -8.42975956
v -5.54330080 -25.04923038 -8.42975956
v -5.54330080 -25.04802338 7.56222987
v -3.81915830 -25.74943934 7.56222987
v -3.67929219 -25.74943934 -8.42975956
v -3.81131544 -25.74913834 -8.42975956
v -5.54330080 -25.05134337 -7.43579191
v -5.54330080 -25.04862837 6.56315708
v -5.54330080 -25.04983537 4.56330680
v -5.54330080 -25.05043737 3.56253080
v -5.54330080 -25.05074136 2.56345652
v -5.54330080 -25.05194835 -1.43454084
v -3.81915830 -25.74943934 -1.43454084
v -3.81523668 -25.74943934 -7.45281203
v -5.54330080 -25.05194835 -6.47075935
f 1 2 3
f 1 3 4
f 1 4 5
f 1 5 6
f 1 6 7
f 1 7 8
f 1 8 9
f 1 9 13
f 1 13 10
f 1 10 18
f 1 18 20
f 1 20 11
f 1 11 2
f 2 11 19
f 2 19 12
f 2 12 8
f 2 8 7
f 2 7 6
f 2 6 5
f 2 5 4
f 2 4 3
f 8 12 22
f 8 22 26
f 8 26 35
f 8 35 36
f 8 36 27
f 8 27 23
f 8 23 13
f 8 13 9
f 10 13 23
f 10 23 14
f 10 14 15
f 10 15 16
f 10 16 17
f 10 17 18
f 11 20 24
f 11 24 29
f 11 29 37
f 11 37 34
f 11 34 33
f 11 33 32
f 11 32 31
f 11 31 30
f 11 30 25
f 11 25 21
f 11 21 19
f 12 19 21
f 12 21 22
f 14 23 27
f 14 27 28
f 14 28 24
f 14 24 20
f 14 20 18
f 14 18 17
f 14 17 16
f 14 16 15
f 21 25 26
f 21 26 22
f 24 28 29
f 25 30 26
f 26 30 31
f 26 31 32
f 26 32 33
f 26 33 34
f 26 34 37
f 26 37 35
f 27 36 28
f 28 36 29
f 29 36 37
f 35 37 36

