# https://github.com/mikedh/trimesh
v 2.71904122 11.82205359 -5.82591072
v 9.82941347 11.82205359 -3.47512863
v 2.71904122 11.82205359 -1.06986034
v 2.71904122 17.50139369 -5.82637862
v 9.82941347 11.82205359 -1.06986034
v 2.71904122 47.49801718 -5.82684354
v 9.82941347 48.49891528 -3.47512863
v 2.71904122 50.55000163 -1.06986034
v 9.82941347 50.54621077 -1.06986034
v 2.71904122 48.49891528 -5.82125559
v 9.82941347 49.15480908 -3.35032520
v 7.48504336 50.55000163 -1.06986034
v 2.71904122 50.55000163 -2.45760528
v 9.82941347 50.54621077 -1.45777708
v 2.71904122 49.51877067 -5.59632807
v 9.82941347 49.49981337 -3.28419669
v 7.48504336 50.55000163 -1.45777708
v 4.48567055 50.55000163 -2.45760528
v 2.71904122 50.54621077 -3.45743198
v 9.82941347 50.47796331 -1.80191860
v 2.71904122 50.40972182 -4.47449191
v 4.48567055 50.48933590 -3.45743198
v 3.48541618 50.53862904 -3.45743198
v 2.71904122 50.14812247 -5.16417267
v 3.24596745 50.08367184 -5.05706291
v 9.82941347 50.06850839 -3.02527658
v 9.82941347 50.34148033 -2.45760528
f 1 2 5
f 1 5 3
f 1 3 8
f 1 8 13
f 1 13 19
f 1 19 21
f 1 21 24
f 1 24 15
f 1 15 10
f 1 10 6
f 1 6 4
f 1 4 2
f 2 4 6
f 2 6 7
f 2 7 11
f 2 11 16
f 2 16 26
f 2 26 27
f 2 27 20
f 2 20 14
f 2 14 9
f 2 9 5
f 3 5 9
f 3 9 12
f 3 12 8
f 6 10 7
f 7 10 11
f 8 12 17
f 8 17 18
f 8 18 13
f 9 14 17
f 9 17 12
f 10 15 16
f 10 16 11
f 13 18 19
f 14 20 21
f 14 21 22
f 14 22 23
f 14 23 19
f 14 19 18
f 14 18 17
f 15 24 25
f 15 25 26
f 15 26 16
f 19 23 21
f 20 27 21
f 21 23 22
f 21 27 24
f 24 26 25
f 24 27 26

