# https://github.com/mikedh/trimesh
v -34.07950057 32.07204500 -16.54645972
v -35.50753931 32.50065928 -16.55000322
v -32.50926146 32.07204500 -16.54645972
v -35.50753931 32.07204500 -16.54291920
v -35.50753931 33.50112385 -16.55000322
v -33.50768009 32.50065928 -16.55000322
v -36.50797109 32.07204500 -16.52165821
v -37.79784618 36.50034494 -16.54645972
v -31.50882818 32.50065928 -16.54645972
v -31.50882818 32.07204500 -16.54291920
v -32.50926146 33.50112385 -16.55000322
v -37.79784618 40.50002763 -16.54645972
v -27.50910974 43.15744270 -16.54645972
v -37.79784618 35.79068864 -16.53583221
v -37.12920981 32.07204500 -16.31969073
v -37.79784618 34.79130888 -16.42598674
v -27.49599969 37.48778588 -16.54645972
v -31.08122272 32.07204500 -16.53937273
v -27.49599969 43.15744270 -16.54645972
v -37.79784618 40.78975108 -16.48268271
v -28.50853420 43.15744270 -16.53583221
v -37.51949828 32.07204500 -16.19213374
v -37.79784618 32.07204500 -16.01496777
v -27.49599969 36.50034494 -16.53583221
v -30.50940223 32.07204500 -16.53228573
v -27.49599969 43.15744270 19.64470212
v -37.79784618 41.49940738 -16.32323423
v -29.16607814 43.15744270 -16.47559572
v -37.79784618 32.07204500 1.63770344
v -27.49599969 36.49057872 -16.53228573
v -29.72983113 32.07204500 -16.23110924
v -30.17558771 32.07204500 -16.40472873
v -30.89969219 43.15744270 19.64470212
v -27.49599969 35.44671003 19.64470212
v -37.79784618 42.07451209 -16.01851126
v -29.50896896 43.15744270 -16.41890273
v -37.54975362 32.07204500 19.64470212
v -37.79784618 35.34362671 11.55537094
v -27.49599969 35.72341283 -16.22756276
v -29.61082740 32.07204500 -15.89095129
v -30.89969219 43.15744270 -13.44254002
v -37.79784618 42.47491547 8.56129075
v -37.79784618 42.46514924 9.56049765
v -36.50797109 42.47491547 19.64470212
v -29.45148323 32.07204500 19.64470212
v -29.45047591 32.07204500 17.56124733
v -29.44845829 32.07204500 1.56329296
v -27.49599969 35.44562522 -9.42090494
v -37.79784618 42.14395750 -15.84843229
v -30.46906328 43.15744270 -16.11772325
v -37.55076392 33.58467769 19.64470212
v -37.79784618 36.50034494 12.56875184
v -37.79784618 36.47104626 12.56520834
v -37.79784618 35.67458170 12.38804386
v -37.79784618 35.62358394 12.34906761
v -27.49599969 35.44671003 -15.43386683
v -29.45148323 32.07204500 -15.43386683
v -30.89061589 43.15744270 -14.43820343
v -37.79784618 42.47382768 -14.43465993
v -37.79784618 42.47491547 -7.43311864
v -37.79784618 42.41306369 10.56324954
v -37.26334121 42.23727757 19.64470212
v -29.44845829 32.07204500 0.99282401
v -27.49599969 35.44562522 -14.43465993
v -37.79784618 42.31214701 -15.43386683
v -30.77161365 43.15744270 -15.43386683
v -37.55378886 40.50002763 19.64470212
v -37.79784618 37.44763915 12.57229534
v -29.45047591 32.07204500 -15.00513037
v -37.79784618 42.25789483 11.56245719
v -37.53563625 41.49940738 19.64470212
v -37.79784618 41.49940738 12.54394884
v -37.79784618 40.50002763 12.57229534
v -37.79784618 42.08753273 12.24276937
f 1 2 6
f 1 6 3
f 1 3 10
f 1 10 18
f 1 18 25
f 1 25 32
f 1 32 31
f 1 31 40
f 1 40 57
f 1 57 69
f 1 69 63
f 1 63 47
f 1 47 46
f 1 46 45
f 1 45 37
f 1 37 29
f 1 29 23
f 1 23 22
f 1 22 15
f 1 15 7
f 1 7 4
f 1 4 2
f 2 5 11
f 2 11 6
f 2 4 7
f 2 7 8
f 2 8 12
f 2 12 5
f 3 9 10
f 3 6 9
f 5 12 13
f 5 13 19
f 5 19 11
f 6 11 9
f 7 14 8
f 7 15 16
f 7 16 14
f 8 14 16
f 8 16 23
f 8 23 29
f 8 29 38
f 8 38 55
f 8 55 54
f 8 54 53
f 8 53 52
f 8 52 68
f 8 68 73
f 8 73 72
f 8 72 74
f 8 74 70
f 8 70 61
f 8 61 43
f 8 43 42
f 8 42 60
f 8 60 59
f 8 59 65
f 8 65 49
f 8 49 35
f 8 35 27
f 8 27 20
f 8 20 12
f 9 11 17
f 9 17 18
f 9 18 10
f 11 19 17
f 12 20 21
f 12 21 13
f 13 21 28
f 13 28 36
f 13 36 50
f 13 50 66
f 13 66 58
f 13 58 41
f 13 41 33
f 13 33 26
f 13 26 19
f 15 22 16
f 16 22 23
f 17 19 26
f 17 26 34
f 17 34 48
f 17 48 64
f 17 64 56
f 17 56 39
f 17 39 30
f 17 30 24
f 17 24 25
f 17 25 18
f 20 27 21
f 21 27 28
f 24 30 31
f 24 31 32
f 24 32 25
f 26 33 44
f 26 44 62
f 26 62 71
f 26 71 67
f 26 67 51
f 26 51 37
f 26 37 45
f 26 45 34
f 27 35 28
f 28 35 36
f 29 37 38
f 30 39 31
f 31 39 40
f 33 41 60
f 33 60 42
f 33 42 43
f 33 43 44
f 34 45 46
f 34 46 47
f 34 47 48
f 35 49 50
f 35 50 36
f 37 51 52
f 37 52 53
f 37 53 54
f 37 54 55
f 37 55 38
f 39 56 57
f 39 57 40
f 41 58 59
f 41 59 60
f 43 61 62
f 43 62 44
f 47 63 64
f 47 64 48
f 49 65 50
f 50 65 59
f 50 59 66
f 51 67 52
f 52 67 68
f 56 64 69
f 56 69 57
f 58 66 59
f 61 70 62
f 62 70 71
f 63 69 64
f 67 71 72
f 67 72 73
f 67 73 68
f 70 74 71
f 71 74 72

