# https://github.com/mikedh/trimesh
v -4.89996419 10.18753301 7.88754955
v 1.31779953 10.18753301 7.88754955
v -4.89934281 10.18753301 7.92768740
v -3.62460515 14.50004497 8.54254034
v -3.33139069 15.52212064 7.88754955
v 1.37122402 10.50015553 7.88754955
v 1.44576947 10.50015553 9.54236109
v 1.36687511 10.18753301 9.52229216
v -4.86579724 10.18753301 8.11769547
v -3.45811898 14.50004497 9.54236109
v -3.27548105 15.55896235 8.48936992
v -0.54274679 20.93986586 9.54236109
v -0.54709495 20.93986586 8.98354556
v -0.55020111 20.93986586 8.54254034
v -0.55020111 20.93986586 7.88754955
v 1.37184466 11.15592714 7.88754955
v 1.26188952 10.50015553 10.29613634
v 1.33581432 10.18753301 9.80977935
v 1.44576947 20.93986586 9.54236109
v -4.79063005 10.18753301 8.54254034
v -3.15310129 14.50004497 10.15982099
v -3.02264546 15.00739923 10.04748464
v -3.17298022 15.20423503 9.54236109
v -4.75708412 10.18753301 8.67390477
v -0.27500219 20.93986586 10.29561480
v 1.37184466 20.93986586 7.88754955
v 0.48474696 10.50015553 10.55000048
v 1.22523780 10.18753301 10.26225253
v 1.26188952 20.93986586 10.29613634
v -3.28790529 13.50007224 10.28284374
v -4.34335367 10.18753301 9.23636811
v 0.05983428 20.93986586 10.40743036
v -0.82788555 10.18753301 10.55000048
v 0.22072914 10.18753301 10.49135685
v 0.48474696 10.18753301 10.46555320
v 0.48474696 12.50009951 10.55000048
v 0.82765912 20.93986586 10.43766413
v -3.29722375 12.50009951 10.29613634
v -2.51448989 12.50009951 10.55000048
v -2.51448989 13.50007224 10.52315450
v 0.48474696 20.93986586 10.54921892
v -3.36928479 10.18753301 10.29483323
v -2.51448989 10.18753301 10.55000048
v -2.82137135 10.18753301 10.47206874
f 1 2 8
f 1 8 18
f 1 18 28
f 1 28 35
f 1 35 34
f 1 34 33
f 1 33 43
f 1 43 44
f 1 44 42
f 1 42 31
f 1 31 24
f 1 24 20
f 1 20 9
f 1 9 3
f 1 3 4
f 1 4 5
f 1 5 15
f 1 15 26
f 1 26 16
f 1 16 6
f 1 6 2
f 2 6 7
f 2 7 8
f 3 9 10
f 3 10 4
f 4 10 11
f 4 11 5
f 5 11 12
f 5 12 13
f 5 13 14
f 5 14 15
f 6 16 7
f 7 17 18
f 7 18 8
f 7 16 26
f 7 26 19
f 7 19 29
f 7 29 17
f 9 20 10
f 10 21 22
f 10 22 23
f 10 23 11
f 10 20 24
f 10 24 21
f 11 23 12
f 12 25 32
f 12 32 41
f 12 41 37
f 12 37 29
f 12 29 19
f 12 19 26
f 12 26 15
f 12 15 14
f 12 14 13
f 12 23 25
f 17 27 28
f 17 28 18
f 17 29 36
f 17 36 27
f 21 24 30
f 21 30 25
f 21 25 22
f 22 25 23
f 24 31 30
f 25 30 32
f 27 33 34
f 27 34 35
f 27 35 28
f 27 36 39
f 27 39 43
f 27 43 33
f 29 37 36
f 30 38 39
f 30 39 40
f 30 40 41
f 30 41 32
f 30 31 42
f 30 42 38
f 36 37 41
f 36 41 39
f 38 42 39
f 39 42 44
f 39 44 43
f 39 41 40

