# https://github.com/mikedh/trimesh
v -5.66280297 19.13281508 19.64548443
v -26.62397427 19.13281508 19.64548443
v -5.66280297 10.95003717 19.64548443
v -5.66280297 19.13281508 -8.54171802
v -26.62397427 15.49955366 19.64548443
v -26.76443270 19.13281508 10.11449931
v -23.50706373 10.95003717 19.64548443
v -21.50761429 10.81321016 10.53129026
v -5.66280297 10.81321016 10.51196866
v -5.66280297 14.50022457 -8.54171802
v -6.50967744 19.13281508 -8.55000009
v -26.61777837 13.50008038 18.56348365
v -26.59918767 12.50074980 18.56348365
v -26.60331827 14.58492729 19.64548443
v -26.76443270 18.49998772 10.03445321
v -26.76443270 17.50228583 9.74463216
v -26.76443270 15.52072971 8.65159184
v -26.76443270 19.13281508 -7.21405952
v -24.50678920 10.81321016 10.52577012
v -23.54424364 10.81321016 10.53129026
v -24.35600426 10.96876943 19.64548443
v -25.50651317 10.96795583 18.56348365
v -25.69034742 10.81321016 9.96820857
v -25.37225214 10.81321016 10.25803037
v -5.66280297 10.81321016 -7.62809151
v -6.50967744 13.50008038 -8.55000009
v -5.66280297 13.50008038 -8.53895832
v -24.50678920 19.13281508 -8.55000009
v -26.76443270 15.41077845 8.54118311
v -26.76443270 14.44809878 7.51162699
v -26.31001109 11.50060561 18.56348365
v -26.16129294 11.50060561 19.29217769
v -26.30174839 12.50074980 19.51023396
v -26.76443270 13.50496647 5.78373945
v -26.76443270 13.40967647 5.56844288
v -26.76443270 13.10833011 4.56648969
v -26.76443270 12.52762704 2.61226530
v -26.76443270 12.27351813 1.56338832
v -26.76443270 12.26944638 1.53026451
v -26.58886116 14.50022457 19.64548443
v -26.70246470 19.13281508 -7.42107850
v -26.58679436 14.50022457 -7.43487698
v -26.56200776 13.50008038 -7.43487698
v -26.76443270 18.25483814 -6.86627515
v -24.43655998 10.97202758 19.64548443
v -26.02083451 10.99238928 19.08240199
v -25.97332660 10.81321016 8.59914717
v -22.69530461 10.81321016 -7.62809151
v -5.66280297 11.82964282 -8.09456668
v -24.50678920 13.50008038 -8.55000009
v -5.66280297 12.50074980 -8.39543025
v -6.50967744 12.50074980 -8.40094964
v -25.50651317 19.13281508 -8.52240014
v -26.25837257 10.81321016 -0.43500015
v -25.65936491 11.44115068 19.64548443
v -26.06007972 11.99579086 19.64548443
v -26.20673406 12.50074980 19.64548443
v -26.76443270 12.30528221 0.47310696
v -26.27283118 10.81321016 -6.12101995
v -26.27696178 10.81321016 -5.43373030
v -26.58472906 19.13281508 -7.71365999
v -26.28729127 13.50008038 -8.21325450
v -26.47938524 12.50074980 -7.43487698
v -26.76443270 14.00911031 -3.70584127
v -26.76443270 14.95468791 -4.98381629
v -26.76443270 15.47674891 -5.45857055
v -26.76443270 16.21627014 -5.87536224
v -26.76443270 17.45016154 -6.47984608
v -24.97566793 11.03392629 19.64548443
v -25.61805290 11.39146944 19.64548443
v -25.97539190 10.81321016 8.56326515
v -23.69502858 10.81321016 -7.62533182
v -24.50678920 11.83127226 -8.09456668
v -21.50761429 11.82964282 -8.09456668
v -5.66280297 11.93307854 -8.14149047
v -24.50678920 12.50074980 -8.40094964
v -25.50651317 12.50074980 -8.38438848
v -25.50651317 13.50008038 -8.52240014
v -26.00224381 19.13281508 -8.32642293
v -26.76443270 12.56183416 -0.35495405
v -26.26870058 10.81321016 -6.43568498
v -26.28729127 19.13281508 -8.21325450
v -26.22532327 12.50074980 -8.14976956
v -26.14270224 10.81321016 -7.37415173
v -26.20260196 10.81321016 -7.04016882
v -24.50678920 10.81321016 -7.62257212
v -25.50651317 11.83453040 -8.09180699
v -26.11171973 11.89235588 -8.03660411
v -25.64490481 10.81321016 -7.53700364
v -24.69681935 10.81321016 -7.61429303
v -25.50651317 10.81321016 -7.57840803
f 1 2 5
f 1 5 14
f 1 14 40
f 1 40 57
f 1 57 56
f 1 56 55
f 1 55 70
f 1 70 69
f 1 69 45
f 1 45 21
f 1 21 7
f 1 7 3
f 1 3 9
f 1 9 25
f 1 25 49
f 1 49 75
f 1 75 51
f 1 51 27
f 1 27 10
f 1 10 4
f 1 4 11
f 1 11 28
f 1 28 53
f 1 53 79
f 1 79 82
f 1 82 61
f 1 61 41
f 1 41 18
f 1 18 6
f 1 6 2
f 2 6 5
f 3 7 20
f 3 20 8
f 3 8 9
f 4 10 26
f 4 26 11
f 5 12 13
f 5 13 14
f 5 6 15
f 5 15 16
f 5 16 17
f 5 17 12
f 6 18 44
f 6 44 68
f 6 68 67
f 6 67 66
f 6 66 65
f 6 65 64
f 6 64 80
f 6 80 58
f 6 58 39
f 6 39 38
f 6 38 37
f 6 37 36
f 6 36 35
f 6 35 34
f 6 34 30
f 6 30 29
f 6 29 17
f 6 17 16
f 6 16 15
f 7 19 20
f 7 21 22
f 7 22 23
f 7 23 24
f 7 24 19
f 8 20 19
f 8 19 24
f 8 24 23
f 8 23 47
f 8 47 71
f 8 71 54
f 8 54 60
f 8 60 59
f 8 59 81
f 8 81 85
f 8 85 84
f 8 84 89
f 8 89 91
f 8 91 90
f 8 90 86
f 8 86 72
f 8 72 48
f 8 48 25
f 8 25 9
f 10 27 26
f 11 26 50
f 11 50 28
f 12 17 29
f 12 29 30
f 12 30 13
f 13 31 32
f 13 32 33
f 13 33 14
f 13 30 34
f 13 34 35
f 13 35 36
f 13 36 37
f 13 37 38
f 13 38 39
f 13 39 31
f 14 33 40
f 18 41 42
f 18 42 43
f 18 43 44
f 21 45 46
f 21 46 22
f 22 46 23
f 23 46 47
f 25 48 74
f 25 74 49
f 26 27 51
f 26 51 52
f 26 52 76
f 26 76 50
f 28 50 78
f 28 78 53
f 31 46 32
f 31 39 54
f 31 54 46
f 32 46 55
f 32 55 56
f 32 56 33
f 33 56 57
f 33 57 40
f 39 58 59
f 39 59 60
f 39 60 54
f 41 61 62
f 41 62 42
f 42 62 43
f 43 63 64
f 43 64 65
f 43 65 66
f 43 66 67
f 43 67 68
f 43 68 44
f 43 62 63
f 45 69 46
f 46 69 70
f 46 70 55
f 46 54 71
f 46 71 47
f 48 72 73
f 48 73 74
f 49 74 76
f 49 76 52
f 49 52 75
f 50 76 77
f 50 77 78
f 51 75 52
f 53 78 79
f 58 80 63
f 58 63 81
f 58 81 59
f 61 82 62
f 62 83 63
f 62 82 79
f 62 79 78
f 62 78 83
f 63 84 85
f 63 85 81
f 63 80 64
f 63 83 84
f 72 86 73
f 73 86 87
f 73 87 76
f 73 76 74
f 76 87 77
f 77 87 88
f 77 88 83
f 77 83 78
f 83 88 84
f 84 88 89
f 86 90 87
f 87 90 91
f 87 91 88
f 88 91 89

