# https://github.com/mikedh/trimesh
v -28.75943344 34.98354994 58.53988810
v -28.84746521 34.98354994 59.53901295
v -29.48674865 29.50043916 58.53988810
v -29.46788523 29.50043916 55.54251353
v -28.75943344 34.98354994 17.56734683
v -29.52971773 30.50040146 59.53901295
v -28.98161020 34.98354994 60.04489944
v -29.74036692 29.52222172 59.57695436
v -29.82735114 28.75438123 59.26920603
v -29.76656620 28.67474032 58.53988810
v -29.74979938 28.65431973 55.54251353
v -29.46788523 29.50043916 33.54491046
v -29.47731620 29.50043916 30.54332034
v -29.52447698 29.49839770 17.56734683
v -37.54906486 34.98354994 17.56734683
v -29.81267942 30.50040146 60.23039245
v -28.98999361 34.98354994 60.06176163
v -29.93320026 29.87006320 60.09970305
v -30.51589196 28.68086471 59.30715042
v -30.51589196 28.36161266 58.53988810
v -30.51589196 28.33166126 55.54251353
v -30.51589196 28.33098177 33.54491046
v -29.75084693 28.65499923 33.54491046
v -29.75608768 28.66316806 30.54332034
v -29.52971773 29.47729463 17.56734683
v -39.46482158 28.03010884 40.19730876
v -39.46482158 34.98354994 43.40968516
v -37.54906486 29.50043916 17.56734683
v -29.10737029 34.98354994 60.28519307
v -29.73303107 31.50036079 60.33156558
v -30.51589196 31.50036079 60.62245173
v -30.53370782 30.43505378 60.30627528
v -36.51468081 29.57395568 60.27676496
v -36.51468081 29.07363627 59.97744771
v -36.51468081 28.69856435 59.47999231
v -36.51468081 28.30239234 58.53988810
v -37.51447920 28.03010884 55.66898589
v -36.64568314 28.03010884 55.40339601
v -36.23381720 28.03010884 54.53917461
v -36.11119828 28.03010884 53.54004976
v -36.06194388 28.03010884 52.54092490
v -36.03364652 28.03010884 42.54124822
v -30.51589196 28.38135375 17.56734683
v -30.49388439 28.38543966 17.56734683
v -36.10595902 28.03010884 40.53878296
v -29.80010282 28.72034691 17.56734683
v -39.46482158 28.03010884 55.53829947
v -37.28182392 28.63662010 17.56734683
v -36.51468081 28.24112759 17.56734683
v -37.50190259 28.03010884 39.56916843
v -39.46482158 34.98354994 60.15450963
v -30.03171203 34.98354994 60.56343407
v -35.51383635 31.50036079 60.62666876
v -36.51468081 30.50040146 60.57186218
v -30.51589196 34.98354994 60.63088282
v -31.51569035 32.49964359 60.63509986
v -37.20007897 29.71554381 60.19666509
v -37.30173489 28.79930832 59.33244370
v -37.58679170 28.60734820 58.59890873
v -38.79828833 28.03010884 55.66055480
v -38.51427759 28.03010884 55.68163403
v -37.77962503 28.03010884 55.67741699
v -36.41826414 28.03010884 39.59867726
v -36.45389587 28.03010884 39.51014779
v -39.46482158 28.20300736 55.80388936
v -39.46482158 34.85353407 60.10813414
v -37.32164587 30.50040146 60.30627528
v -36.51468081 31.50036079 60.62666876
v -37.51447920 34.98354994 60.54235186
v -31.03151042 34.98354994 60.63509986
v -35.51383635 32.49964359 60.63509986
v -39.46482158 32.43905833 58.92351926
v -39.46482158 31.49083296 58.43028089
v -37.96826815 29.13898395 58.96989176
v -38.15690829 28.81292503 58.30380853
v -39.46482158 28.66453003 56.45310743
v -36.51468081 34.98354994 60.63088282
v -35.51383635 34.98354994 60.63509986
v -39.46482158 30.43641277 57.84851158
v -39.46482158 29.56851078 57.27939039
v -39.46482158 28.70741268 56.51212806
f 1 2 3
f 1 3 4
f 1 4 12
f 1 12 5
f 1 5 15
f 1 15 27
f 1 27 51
f 1 51 69
f 1 69 77
f 1 77 78
f 1 78 70
f 1 70 55
f 1 55 52
f 1 52 29
f 1 29 17
f 1 17 7
f 1 7 2
f 2 6 3
f 2 7 6
f 3 6 8
f 3 8 9
f 3 9 10
f 3 10 11
f 3 11 4
f 4 11 12
f 5 12 13
f 5 13 14
f 5 14 25
f 5 25 46
f 5 46 44
f 5 44 43
f 5 43 49
f 5 49 48
f 5 48 28
f 5 28 15
f 6 7 16
f 6 16 8
f 7 17 16
f 8 16 18
f 8 18 9
f 9 19 20
f 9 20 10
f 9 18 19
f 10 20 21
f 10 21 11
f 11 21 22
f 11 22 23
f 11 23 12
f 12 23 24
f 12 24 13
f 13 24 25
f 13 25 14
f 15 26 27
f 15 28 26
f 16 17 29
f 16 29 30
f 16 30 31
f 16 31 18
f 18 31 32
f 18 32 33
f 18 33 34
f 18 34 19
f 19 35 36
f 19 36 20
f 19 34 35
f 20 36 37
f 20 37 38
f 20 38 39
f 20 39 21
f 21 39 40
f 21 40 41
f 21 41 42
f 21 42 22
f 22 43 44
f 22 44 23
f 22 42 45
f 22 45 43
f 23 44 24
f 24 44 46
f 24 46 25
f 26 47 65
f 26 65 76
f 26 76 81
f 26 81 80
f 26 80 79
f 26 79 73
f 26 73 72
f 26 72 66
f 26 66 51
f 26 51 27
f 26 28 48
f 26 48 49
f 26 49 50
f 26 50 64
f 26 64 63
f 26 63 45
f 26 45 42
f 26 42 41
f 26 41 40
f 26 40 39
f 26 39 38
f 26 38 37
f 26 37 62
f 26 62 61
f 26 61 60
f 26 60 47
f 29 52 31
f 29 31 30
f 31 53 54
f 31 54 32
f 31 52 55
f 31 55 56
f 31 56 53
f 32 54 33
f 33 57 34
f 33 54 57
f 34 57 58
f 34 58 35
f 35 58 36
f 36 58 59
f 36 59 47
f 36 47 60
f 36 60 61
f 36 61 62
f 36 62 37
f 43 45 63
f 43 63 64
f 43 64 49
f 47 59 58
f 47 58 65
f 49 64 50
f 51 66 57
f 51 57 67
f 51 67 54
f 51 54 68
f 51 68 69
f 53 68 54
f 53 56 71
f 53 71 68
f 54 67 57
f 55 70 56
f 56 70 78
f 56 78 71
f 57 66 72
f 57 72 73
f 57 73 74
f 57 74 58
f 58 74 75
f 58 75 65
f 65 75 76
f 68 71 77
f 68 77 69
f 71 78 77
f 73 79 74
f 74 79 80
f 74 80 81
f 74 81 75
f 75 81 76

