# https://github.com/mikedh/trimesh
v -35.51420888 13.20669908 35.24918650
v -33.51548829 13.20669908 35.24918650
v -36.51436788 13.23891546 35.24918650
v -35.51474235 13.45110544 7.54309213
v -32.69486033 13.54886768 35.24918650
v -33.51548829 13.45110544 7.54309213
v -32.73575963 13.72550640 7.54309213
v -36.53561400 13.24669239 35.24918650
v -36.51436788 13.49109874 7.54309213
v -32.61624910 13.76772296 35.24918650
v -32.45371734 14.50094203 7.54309213
v -37.24841843 13.57775215 35.24918650
v -37.21973662 13.76549970 7.54309213
v -32.45265489 14.50094203 35.24918650
v -32.45052998 15.50078512 7.54309213
v -32.44999949 15.50189675 17.56946467
v -32.45159243 14.79311862 35.24918650
v -37.42422865 14.50094203 35.24918650
v -37.42475913 14.50094203 17.56946467
v -37.42475913 14.50094203 7.54309213
v -32.45052998 21.49874248 7.54309213
v -32.44999949 21.49874248 17.56946467
v -32.44999949 15.50189675 35.24918650
v -37.75938623 17.25162440 35.24918650
v -37.87623839 17.31606013 17.56404063
v -37.87623839 17.11942401 7.54309213
v -32.45424931 22.49858707 7.54309213
v -32.45052998 22.49858707 8.54382930
v -32.44999949 21.79091908 35.24918650
v -37.75938623 24.54826824 35.24918650
v -37.87623839 19.76345707 17.56946467
v -37.87623839 24.55382191 7.54309213
v -32.69964064 23.49843165 7.54309213
v -32.65449301 23.49843165 8.54382930
v -32.64333798 23.49843165 9.54456870
v -32.45052998 22.49858707 35.24918650
v -37.87623839 24.54937838 17.56946467
v -37.22239201 24.54826824 35.24918650
v -37.51505438 24.55382191 7.54309213
v -32.97743311 24.03501460 7.54309213
v -32.93653381 24.07611953 8.54382930
v -32.92591075 24.08722837 9.54456870
v -32.64333798 23.49843165 17.56946467
v -32.64386995 23.49843165 34.53863438
v -32.50736312 22.79076366 35.24918650
v -36.22276648 24.54271308 35.24918650
v -34.51511383 24.54826824 34.53863438
v -34.51511383 24.54937838 17.56946467
v -34.51511383 24.54937838 9.54456870
v -34.51511383 24.52493745 8.54382930
v -36.51489837 24.51827214 7.54309213
v -33.51548829 24.25386988 7.54309213
v -33.51548829 24.33941166 8.54382930
v -33.51548829 24.36163082 9.54456870
v -32.94078363 24.09500530 17.56946467
v -32.92591075 24.08722837 17.56946467
v -32.92644123 24.08722837 34.53863438
v -32.73416521 23.67062683 35.24918650
v -32.65183613 23.49843165 35.24918650
v -34.51511383 24.53160424 35.24918650
v -33.51548829 24.36163082 34.53863438
v -33.53992029 24.36718450 17.56946467
v -34.51564729 24.43717390 7.54309213
v -32.93387842 24.07945144 35.24918650
v -33.51548829 24.34496682 35.24918650
f 1 2 5
f 1 5 10
f 1 10 14
f 1 14 17
f 1 17 23
f 1 23 29
f 1 29 36
f 1 36 45
f 1 45 59
f 1 59 58
f 1 58 64
f 1 64 65
f 1 65 60
f 1 60 46
f 1 46 38
f 1 38 30
f 1 30 24
f 1 24 18
f 1 18 12
f 1 12 8
f 1 8 3
f 1 3 4
f 1 4 6
f 1 6 2
f 2 6 7
f 2 7 5
f 3 8 9
f 3 9 4
f 4 9 13
f 4 13 20
f 4 20 26
f 4 26 32
f 4 32 39
f 4 39 51
f 4 51 63
f 4 63 52
f 4 52 40
f 4 40 33
f 4 33 27
f 4 27 21
f 4 21 15
f 4 15 11
f 4 11 7
f 4 7 6
f 5 7 11
f 5 11 10
f 8 12 13
f 8 13 9
f 10 11 14
f 11 15 16
f 11 16 17
f 11 17 14
f 12 18 19
f 12 19 20
f 12 20 13
f 15 21 22
f 15 22 16
f 16 22 29
f 16 29 23
f 16 23 17
f 18 24 25
f 18 25 26
f 18 26 19
f 19 26 20
f 21 27 28
f 21 28 22
f 22 28 29
f 24 30 37
f 24 37 31
f 24 31 25
f 25 31 37
f 25 37 32
f 25 32 26
f 27 33 34
f 27 34 35
f 27 35 28
f 28 35 43
f 28 43 36
f 28 36 29
f 30 38 39
f 30 39 32
f 30 32 37
f 33 40 41
f 33 41 34
f 34 41 42
f 34 42 35
f 35 42 56
f 35 56 43
f 36 43 44
f 36 44 45
f 38 46 47
f 38 47 39
f 39 47 48
f 39 48 49
f 39 49 50
f 39 50 51
f 40 52 53
f 40 53 41
f 41 53 54
f 41 54 42
f 42 54 55
f 42 55 56
f 43 56 57
f 43 57 44
f 44 57 58
f 44 58 59
f 44 59 45
f 46 60 47
f 47 60 65
f 47 65 61
f 47 61 48
f 48 61 62
f 48 62 49
f 49 54 53
f 49 53 50
f 49 62 54
f 50 53 52
f 50 52 63
f 50 63 51
f 54 62 61
f 54 61 55
f 55 61 57
f 55 57 56
f 57 61 64
f 57 64 58
f 61 65 64

