# https://github.com/mikedh/trimesh
v -3.88902827 -42.78075907 9.91424713
v -3.61095566 -49.49854379 9.91424713
v -3.88902827 -42.78075907 11.47940714
v -3.88902827 -22.50660093 9.91424713
v -3.30671208 -50.27272623 9.91424713
v -3.59296321 -49.54796210 11.47940714
v -3.61095566 -49.49854379 11.47940714
v -3.88902827 -34.45147014 11.47940714
v -3.88902827 -22.50660093 10.55946423
v -0.59468563 -22.50660093 9.91424713
v -3.01228168 -50.37704649 9.91424713
v -3.30671208 -50.27272623 11.47940714
v -3.62404188 -25.50174032 11.47940714
v -3.44901920 -24.49970079 11.47940714
v -3.15295414 -23.86553292 11.47940714
v -3.07116821 -23.84082526 11.47940714
v -2.51338683 -23.71728544 11.47940714
v -2.42669393 -23.71454064 11.47940714
v -1.51396097 -23.68983149 11.47940714
v -3.51444809 -22.50660093 10.56543961
v 1.15880829 -23.97809056 9.91424713
v -0.74026505 -22.50660093 10.31032526
v 11.54563877 -23.97809056 11.47940714
v 11.85806310 -24.03574178 11.16622210
v 11.19232259 -23.98632645 11.01729066
v 11.50965240 -24.42283151 10.86851195
v 10.48405557 -25.50174032 10.52621520
v -2.51338683 -50.54725981 9.91424713
v -2.56409409 -50.53078506 11.47940714
v -1.51396097 -22.50660093 10.57892295
v -2.51338683 -22.50660093 10.58060828
v 11.48511759 -23.97259947 11.47940714
v 1.36490890 -24.23614938 9.91424713
v 12.39130818 -24.32125456 11.47940714
v 12.12632030 -24.70285469 10.94956623
v 11.48511759 -25.50174032 10.64557449
v 1.80001101 -26.50103505 9.91424713
v 1.79837486 -26.14689036 9.91424713
v 1.79183175 -25.50174032 9.91424713
v 1.69532418 -25.13935825 9.91424713
v 1.51866684 -24.50244559 9.91424713
v 11.48511759 -27.50032978 10.64542175
v 11.48511759 -32.50229601 10.64526827
v 10.48405557 -48.49925204 10.52621520
v -2.51338683 -50.54725981 11.47940714
v -0.51453511 -50.54725981 9.91424713
v 12.45182937 -24.40361493 11.47940714
v 12.81823029 -25.50174032 11.47940714
v 12.69718791 -25.50174032 11.33568515
v 12.19665691 -25.50174032 10.90298735
v 12.19829306 -26.50103505 10.90298735
v 1.80001101 -47.49995433 9.91424713
v 12.19829306 -30.50096175 10.90283386
v 12.19829306 -36.50221973 10.90268038
v 11.48511759 -41.49869635 10.64526827
v 11.48511759 -45.49862007 10.64542175
v 11.48511759 -48.49925204 10.64557449
v 10.48405557 -49.49854379 10.71743548
v 0.94125686 -50.23154530 9.91424713
v 1.16371525 -50.09702331 9.91424713
v 1.34855112 -49.84720186 9.91424713
v 1.56119558 -49.53972472 9.91424713
v 1.68223870 -49.02360707 9.91424713
v 1.79346790 -48.49925204 9.91424713
v -0.51453511 -50.54725981 11.47940714
v 0.42273267 -50.53902243 11.47940714
v -0.14159033 -50.51156848 9.91424713
v 11.16615163 -50.04486318 10.99844438
v 11.49329685 -50.22880348 11.47940714
v 10.48405557 -50.31115938 11.47940714
v 12.81986644 -37.49876966 11.47940714
v 12.69882406 -36.50221973 11.33491923
v 12.69882406 -38.49806439 11.33491923
v 12.69882406 -46.49791480 11.33507197
v 12.19829306 -43.50003061 10.90283386
v 12.19829306 -48.49925204 10.90298735
v 12.12632030 -49.24597755 10.94956623
v 11.49329685 -49.54521432 10.85717363
v 0.54377653 -50.34136112 9.91424713
v 11.83352680 -49.91034119 11.10003027
v 12.07234223 -50.04761096 11.47940714
v 12.81823029 -48.49925204 11.47940714
v 12.69882406 -48.49925204 11.33522545
v 12.50744360 -49.55894130 11.47940714
v 12.48454345 -49.59188485 11.47940714
v 12.79369398 -48.68593416 11.47940714
f 1 2 7
f 1 7 3
f 1 3 8
f 1 8 9
f 1 9 4
f 1 4 10
f 1 10 21
f 1 21 33
f 1 33 41
f 1 41 40
f 1 40 39
f 1 39 38
f 1 38 37
f 1 37 52
f 1 52 64
f 1 64 63
f 1 63 62
f 1 62 61
f 1 61 60
f 1 60 59
f 1 59 79
f 1 79 67
f 1 67 46
f 1 46 28
f 1 28 11
f 1 11 5
f 1 5 2
f 2 5 6
f 2 6 7
f 3 7 6
f 3 6 12
f 3 12 29
f 3 29 45
f 3 45 65
f 3 65 66
f 3 66 70
f 3 70 69
f 3 69 81
f 3 81 85
f 3 85 84
f 3 84 86
f 3 86 82
f 3 82 71
f 3 71 48
f 3 48 47
f 3 47 34
f 3 34 23
f 3 23 32
f 3 32 19
f 3 19 18
f 3 18 17
f 3 17 16
f 3 16 15
f 3 15 14
f 3 14 13
f 3 13 8
f 4 9 20
f 4 20 31
f 4 31 30
f 4 30 22
f 4 22 10
f 5 11 12
f 5 12 6
f 8 13 9
f 9 13 14
f 9 14 15
f 9 15 16
f 9 16 17
f 9 17 18
f 9 18 19
f 9 19 20
f 10 22 23
f 10 23 24
f 10 24 25
f 10 25 26
f 10 26 27
f 10 27 21
f 11 28 29
f 11 29 12
f 19 30 31
f 19 31 20
f 19 32 30
f 21 27 33
f 22 30 23
f 23 34 24
f 23 30 32
f 24 26 25
f 24 34 35
f 24 35 26
f 26 35 36
f 26 36 27
f 27 37 38
f 27 38 39
f 27 39 40
f 27 40 41
f 27 41 33
f 27 36 42
f 27 42 43
f 27 43 55
f 27 55 44
f 27 44 52
f 27 52 37
f 28 45 29
f 28 46 65
f 28 65 45
f 34 47 35
f 35 48 49
f 35 49 50
f 35 50 36
f 35 47 48
f 36 50 51
f 36 51 42
f 42 51 53
f 42 53 43
f 43 53 54
f 43 54 55
f 44 55 56
f 44 56 57
f 44 57 58
f 44 58 59
f 44 59 60
f 44 60 61
f 44 61 62
f 44 62 63
f 44 63 64
f 44 64 52
f 46 66 65
f 46 67 68
f 46 68 69
f 46 69 70
f 46 70 66
f 48 71 72
f 48 72 49
f 49 51 50
f 49 72 51
f 51 72 53
f 53 72 54
f 54 72 73
f 54 73 74
f 54 74 75
f 54 75 55
f 55 75 76
f 55 76 56
f 56 76 57
f 57 76 77
f 57 77 78
f 57 78 58
f 58 78 68
f 58 68 59
f 59 68 79
f 67 79 68
f 68 78 80
f 68 80 69
f 69 80 81
f 71 82 83
f 71 83 74
f 71 74 73
f 71 73 72
f 74 83 76
f 74 76 75
f 76 83 77
f 77 84 85
f 77 85 80
f 77 80 78
f 77 83 86
f 77 86 84
f 80 85 81
f 82 86 83

