# https://github.com/mikedh/trimesh
v 1.83670817 -4.83780353 7.49261286
v 2.42348653 -4.85663119 7.48812760
v 2.52265246 -4.92064521 7.48812760
v 3.33954022 -5.16163845 7.48812760
v 1.83670817 -4.83215524 7.54514850
v 1.83670817 -4.44054076 7.48812760
v 3.45897774 -5.17764233 7.48812760
v 3.76798150 -5.03643492 8.07841146
v 3.10121281 -4.97147988 7.94984845
v 1.83670817 -4.49890649 8.52646345
v 1.83670817 2.65464773 7.48812760
v 4.49337297 -5.14281080 7.48812760
v 4.16628959 -5.03643492 8.07841146
v 5.48448695 -4.36523014 8.33895580
v 6.48491417 -3.49916025 8.62854555
v 1.83670817 -1.40552858 9.43943707
v 1.83670817 2.65464773 9.36661346
v 1.84383094 4.43950587 7.88748846
v 7.35056161 2.65464773 7.48812760
v 4.83141543 -4.95735877 7.87552876
v 6.48491417 -4.48572713 7.48812760
v 6.48491417 -4.20990236 8.29773911
v 7.08429371 -4.08281606 8.17878588
v 7.18126768 -3.49916025 8.34365415
v 7.13469848 -0.25516094 9.20024911
v 6.50299378 -0.55169597 9.27819873
v 4.48625020 -1.38764231 9.26773363
v 1.83670817 -0.49992001 9.66965600
v 1.83670817 2.58686836 9.37323257
v 1.84383094 3.31455611 9.35422610
v 1.84383094 3.40869363 9.23164145
v 6.48107860 3.95657764 7.88748846
v 7.36535551 2.50779240 7.48812760
v 6.52545733 3.93021893 7.88748846
v 7.20866203 3.46423559 7.88748846
v 7.34344033 2.65464773 7.55198367
v 7.09634580 -4.20519582 7.48812760
v 7.14839566 -4.17977811 7.48812760
v 7.39000953 -3.49916025 7.54280007
v 7.43055269 -0.49992001 7.54280007
v 7.43110105 0.49888526 7.54280007
v 7.13469848 0.24753654 9.20024911
v 6.48491417 0.31625734 9.27264655
v 6.01373702 3.00578275 9.04584446
v 6.40218425 3.33432477 8.60569457
v 7.14784729 3.29384568 8.31503790
v 7.35987634 2.49931995 7.54280007
v 7.43383989 0.55348537 7.48812760
v 7.38891429 -3.49916025 7.48812760
v 7.39384510 -3.44456006 7.48812760
v 7.43274465 -0.49992001 7.48812760
v 7.43383989 0.49888526 7.48812760
v 7.24263079 0.54783707 8.57558225
f 1 2 3
f 1 3 4
f 1 4 5
f 1 5 10
f 1 10 16
f 1 16 28
f 1 28 29
f 1 29 17
f 1 17 11
f 1 11 6
f 1 6 2
f 2 6 11
f 2 11 19
f 2 19 33
f 2 33 48
f 2 48 52
f 2 52 51
f 2 51 50
f 2 50 49
f 2 49 38
f 2 38 37
f 2 37 21
f 2 21 12
f 2 12 7
f 2 7 4
f 2 4 3
f 4 7 8
f 4 8 9
f 4 9 5
f 5 9 10
f 7 12 13
f 7 13 8
f 8 13 10
f 8 10 9
f 10 13 14
f 10 14 15
f 10 15 16
f 11 17 18
f 11 18 19
f 12 20 13
f 12 21 20
f 13 20 22
f 13 22 14
f 14 22 15
f 15 23 24
f 15 24 25
f 15 25 26
f 15 26 27
f 15 27 28
f 15 28 16
f 15 22 23
f 17 29 30
f 17 30 31
f 17 31 18
f 18 31 32
f 18 32 19
f 19 32 34
f 19 34 35
f 19 35 36
f 19 36 33
f 20 21 23
f 20 23 22
f 21 37 23
f 23 37 38
f 23 38 39
f 23 39 24
f 24 39 25
f 25 40 41
f 25 41 42
f 25 42 26
f 25 39 40
f 26 42 43
f 26 43 28
f 26 28 27
f 28 43 30
f 28 30 29
f 30 44 32
f 30 32 31
f 30 43 44
f 32 44 45
f 32 45 46
f 32 46 34
f 33 47 41
f 33 41 48
f 33 36 47
f 34 46 35
f 35 46 47
f 35 47 36
f 38 49 39
f 39 50 40
f 39 49 50
f 40 50 51
f 40 51 52
f 40 52 41
f 41 52 48
f 41 47 53
f 41 53 42
f 42 53 47
f 42 47 46
f 42 46 44
f 42 44 43
f 44 46 45

