# https://github.com/mikedh/trimesh
v -39.99007962 -24.55000125 17.56734758
v -39.99007962 -17.57500408 17.56734758
v -38.29403799 -24.55000125 17.56734758
v -39.99007962 -24.55000125 30.54231973
v -38.29403799 -17.47106530 17.56734758
v -39.99007962 -17.57500408 30.54231973
v -38.29403799 -24.55000125 30.76303617
v -38.29403799 -24.52020483 31.76256634
v -38.29403799 -24.36637536 33.67334010
v -38.56965637 -24.33519462 33.67334010
v -38.98723245 -24.20076651 33.67334010
v -39.99007962 -24.30054786 31.61121792
v -38.29403799 -17.47106530 30.54231973
v -39.99007962 -17.66924220 31.06888610
v -38.29403799 -17.56807503 33.67334010
v -38.29403799 -17.49116104 31.54184990
v -39.39418100 -23.61039324 33.67334010
v -39.44930646 -23.49952540 33.67334010
v -39.99007962 -23.49952540 31.98012969
v -39.99007962 -17.76625193 31.60018210
v -38.94273451 -17.83000071 33.67334010
v -39.50177356 -22.49963164 33.67334010
v -39.99007962 -22.49963164 31.99431860
v -39.99007962 -18.33445222 31.88396038
v -39.42356912 -18.50006108 33.67334010
v -39.18381790 -18.02540599 33.67334010
v -39.50177356 -19.50064625 33.67334010
v -39.99007962 -19.50064625 31.99431860
v -39.99007962 -18.50006108 31.96594077
v -39.49463290 -19.39324294 33.67334010
f 1 2 5
f 1 5 3
f 1 3 7
f 1 7 4
f 1 4 12
f 1 12 19
f 1 19 23
f 1 23 28
f 1 28 29
f 1 29 24
f 1 24 20
f 1 20 14
f 1 14 6
f 1 6 2
f 2 6 13
f 2 13 5
f 3 5 13
f 3 13 16
f 3 16 15
f 3 15 9
f 3 9 8
f 3 8 7
f 4 7 8
f 4 8 9
f 4 9 10
f 4 10 11
f 4 11 12
f 6 14 15
f 6 15 16
f 6 16 13
f 9 15 21
f 9 21 26
f 9 26 25
f 9 25 30
f 9 30 27
f 9 27 22
f 9 22 18
f 9 18 17
f 9 17 11
f 9 11 10
f 11 17 12
f 12 17 18
f 12 18 19
f 14 20 15
f 15 20 21
f 18 22 19
f 19 22 23
f 20 24 25
f 20 25 26
f 20 26 21
f 22 27 28
f 22 28 23
f 24 29 25
f 25 29 30
f 27 30 29
f 27 29 28

