# https://github.com/mikedh/trimesh
v -28.68638929 35.03216359 17.56734795
v -37.54962515 35.03216359 17.56734795
v -29.52455297 29.49850796 17.56734795
v -29.52011689 29.50050472 17.54164004
v -29.46778838 29.50050472 11.54351653
v -28.68638929 35.03216359 5.62952738
v -37.54962515 29.50050472 17.56734795
v -37.74652651 35.03216359 10.54324503
v -29.52987419 29.47721118 17.56734795
v -29.80039190 28.72044228 17.56734795
v -29.79950528 28.71977768 17.54164004
v -29.77289622 28.68117168 14.54199379
v -29.75072325 28.65521380 11.54351653
v -29.75427122 28.66120408 8.54270128
v -29.47576945 29.50050472 8.54270128
v -29.52543959 29.50183689 5.62952738
v -37.74652651 35.03216359 5.62952738
v -37.28886325 28.65787814 17.56734795
v -37.54962515 29.50050472 5.62952738
v -37.30482838 28.70113927 5.62952738
v -37.28176730 28.62592998 5.62952738
v -30.49398274 28.38565424 17.56734795
v -30.51526909 28.37367368 17.54164004
v -30.51526909 28.33107714 11.54351653
v -30.51526909 28.36036096 8.54270128
v -29.79507069 28.71511659 5.62952738
v -29.55293378 29.41397947 5.62952738
v -37.28176730 28.63657837 17.56734795
v -36.51456160 28.23323592 5.62952738
v -36.51456160 28.24122295 17.56734795
v -30.51526909 28.38166072 17.56734795
v -35.51408669 28.25852920 17.54164004
v -30.51615571 28.47417625 5.62952738
v -30.43367017 28.49547602 5.62952738
f 1 2 7
f 1 7 18
f 1 18 28
f 1 28 30
f 1 30 31
f 1 31 22
f 1 22 10
f 1 10 9
f 1 9 3
f 1 3 4
f 1 4 5
f 1 5 6
f 1 6 17
f 1 17 8
f 1 8 2
f 2 8 7
f 3 9 4
f 4 9 10
f 4 10 11
f 4 11 12
f 4 12 13
f 4 13 5
f 5 13 14
f 5 14 15
f 5 15 6
f 6 15 16
f 6 16 27
f 6 27 26
f 6 26 34
f 6 34 33
f 6 33 29
f 6 29 21
f 6 21 20
f 6 20 19
f 6 19 17
f 7 8 17
f 7 17 19
f 7 19 20
f 7 20 21
f 7 21 18
f 10 22 23
f 10 23 11
f 11 23 12
f 12 23 13
f 13 24 14
f 13 23 24
f 14 24 25
f 14 25 26
f 14 26 27
f 14 27 15
f 15 27 16
f 18 21 28
f 21 29 30
f 21 30 28
f 22 31 23
f 23 31 30
f 23 30 32
f 23 32 24
f 24 29 25
f 24 32 30
f 24 30 29
f 25 29 33
f 25 33 34
f 25 34 26

