# https://github.com/mikedh/trimesh
v 1.45070325 10.72405561 -9.45748594
v 1.41034710 10.72405561 -9.63309946
v 1.37108172 10.72405561 -8.02339234
v 1.45179402 10.49964963 -9.45748594
v 1.26746629 10.72405561 -10.24057333
v 1.37108172 10.49964963 -8.02339234
v -3.82825526 10.72405561 -8.02339234
v 1.32745401 10.06534175 -8.02339234
v 1.23038318 9.49969403 -8.02339234
v 1.17584780 9.41871500 -9.40405921
v 1.17257550 9.69791266 -10.14608786
v 1.26746629 10.49964963 -10.24057333
v 0.48434760 10.72405561 -10.53664211
v -3.82171102 10.72405561 -8.45772629
v -9.17265458 10.02465107 -8.45772629
v -9.17592688 10.02465107 -8.02339234
v 1.14094623 9.22210794 -8.02339234
v 1.03732931 8.93364398 -8.02339234
v 0.99261158 8.99367343 -9.03551997
v -0.24423570 6.60860668 -9.45748594
v 0.48434760 10.49964963 -10.53664211
v -0.54744811 6.60860668 -10.19679363
v -0.69360123 6.60860668 -10.25219626
v 0.26075598 10.72405561 -10.53961043
v -3.73772754 10.72405561 -9.43744980
v -9.11484802 10.01659325 -8.98901932
v -9.68964358 9.93440499 -8.45772629
v -9.68964358 9.93480807 -8.43150914
v -9.68637127 9.93964276 -8.02339234
v -0.40238576 6.60860668 -8.02339234
v -0.32385574 6.60860668 -8.45624213
v -0.51581810 10.49964963 -10.54975218
v -1.51489378 6.60860668 -10.53738419
v -1.62396305 6.60860668 -10.53886835
v -0.51581810 10.72405561 -10.54975218
v -3.31235702 10.72405561 -10.24626260
v -9.68964358 9.64876108 -9.37611054
v -9.68964358 9.51621275 -8.02339234
v -9.68964358 6.60860668 -8.02339234
v -2.51505986 6.60860668 -10.54678386
v -2.51505986 7.50018666 -10.54999656
v -1.51489378 10.49964963 -10.54999656
v -1.51489378 10.72405561 -10.54999656
v -2.69502415 10.72405561 -10.47604195
v -9.68964358 9.09963207 -10.05036559
v -2.51505986 10.72405561 -10.54257875
v -9.68964358 6.60860668 -10.47455779
v -5.51446770 6.60860668 -10.54999656
v -1.73957617 10.72405561 -10.54999656
v -9.68964358 8.60569708 -10.26035913
v -8.51387553 7.50018666 -10.54999656
v -9.68964358 7.50018666 -10.46985795
v -9.68964358 7.67624647 -10.44141456
v -9.68964358 8.50014226 -10.30389147
v -8.51387553 6.60860668 -10.54999656
f 1 2 5
f 1 5 13
f 1 13 24
f 1 24 35
f 1 35 43
f 1 43 49
f 1 49 46
f 1 46 44
f 1 44 36
f 1 36 25
f 1 25 14
f 1 14 7
f 1 7 3
f 1 3 4
f 1 4 2
f 2 4 5
f 3 6 4
f 3 7 16
f 3 16 29
f 3 29 38
f 3 38 39
f 3 39 30
f 3 30 18
f 3 18 17
f 3 17 9
f 3 9 8
f 3 8 6
f 4 6 8
f 4 8 9
f 4 9 10
f 4 10 11
f 4 11 12
f 4 12 5
f 5 12 21
f 5 21 13
f 7 14 15
f 7 15 16
f 9 17 10
f 10 17 18
f 10 18 19
f 10 19 20
f 10 20 11
f 11 21 12
f 11 20 22
f 11 22 23
f 11 23 21
f 13 21 24
f 14 25 15
f 15 26 27
f 15 27 28
f 15 28 29
f 15 29 16
f 15 25 26
f 18 30 31
f 18 31 20
f 18 20 19
f 20 31 30
f 20 30 39
f 20 39 47
f 20 47 55
f 20 55 48
f 20 48 40
f 20 40 34
f 20 34 33
f 20 33 23
f 20 23 22
f 21 32 24
f 21 23 33
f 21 33 34
f 21 34 32
f 24 32 35
f 25 36 26
f 26 37 27
f 26 36 37
f 27 37 45
f 27 45 50
f 27 50 54
f 27 54 53
f 27 53 52
f 27 52 47
f 27 47 39
f 27 39 38
f 27 38 28
f 28 38 29
f 32 34 40
f 32 40 41
f 32 41 42
f 32 42 43
f 32 43 35
f 36 44 37
f 37 44 46
f 37 46 45
f 40 48 41
f 41 48 55
f 41 55 51
f 41 51 49
f 41 49 43
f 41 43 42
f 45 46 50
f 46 49 51
f 46 51 52
f 46 52 53
f 46 53 54
f 46 54 50
f 47 52 51
f 47 51 55

