# https://github.com/mikedh/trimesh
v -35.96941300 24.55914771 10.34833295
v -35.96941300 24.90996745 10.33996072
v -36.42628884 24.55914771 10.48228925
v -35.96941300 24.55914771 -7.59340159
v -35.96941300 25.19488378 10.17460840
v -37.50895421 24.55943232 10.56391861
v -37.51349013 24.55914771 10.56391861
v -36.78226587 24.55914771 -8.37829986
v -37.00219820 24.99405028 -8.93923951
v -36.50904696 27.46086300 -10.42740745
v -36.50111059 27.46086300 -10.41903598
v -36.18821284 27.46086300 -9.29506157
v -35.98528573 27.46086300 -7.14339221
v -35.96941300 25.19346221 -7.45735092
v -35.96941300 27.46086300 8.43945878
v -36.32085412 27.46086300 8.37457461
v -46.50927290 24.55914771 7.53944300
v -37.50895421 24.55914771 -8.63783950
v -37.50895421 27.46086300 -10.81881053
v -35.96941300 27.46086300 -6.40663366
v -35.96941300 25.41759071 -7.37362721
v -46.95934784 27.46086300 4.15914683
v -46.89472743 24.55914771 6.99524631
v -47.17134381 27.25946177 4.24496118
v -45.50823017 24.55914771 -8.63993163
v -38.50886445 27.46086300 -10.81253118
v -46.50814041 24.55914771 -8.63993163
v -47.27451057 27.46086300 3.82216283
v -47.16907883 24.55914771 6.41128137
v -46.50814041 27.46086300 -10.67648349
v -47.01376394 24.99376567 -8.93923951
v -46.57729376 24.55914771 -8.63783950
v -47.34139894 27.46086300 3.61913588
v -47.32439373 24.55914771 5.80010690
v -47.48537703 25.50025346 4.56310712
v -46.55575561 27.46086300 -10.67229626
v -47.14526974 26.80183491 -10.07368050
v -47.18268062 24.55914771 -8.38039199
v -47.54886198 27.46086300 2.56213925
v -47.53639268 26.49987462 3.56262319
v -47.54546153 24.55914771 4.56310712
v -47.21669403 27.46086300 -10.37089626
v -47.30512056 26.48112597 -9.47506473
v -47.30512056 24.55914771 -8.02666503
v -47.41622070 25.50025346 -8.43481106
v -47.54999446 25.50025346 3.56262319
v -47.54886198 27.46086300 -2.47376931
v -47.54999446 24.55914771 3.56262319
v -47.50578269 27.46086300 -9.43738861
v -47.49897882 24.55914771 -7.43432862
v -47.54999446 24.55914771 2.62283768
v -47.54659402 27.46086300 -7.47409686
v -47.54886198 24.55914771 -3.37587870
v -47.54546153 27.46086300 -8.43481106
v -47.54546153 26.49987462 -8.43481106
v -47.54659402 25.50025346 -7.43432862
v -47.54659402 24.55914771 -6.43593830
v -47.54772949 25.50025346 -5.43545287
v -47.54772949 24.55914771 -5.43545287
f 1 2 3
f 1 3 7
f 1 7 17
f 1 17 23
f 1 23 29
f 1 29 34
f 1 34 41
f 1 41 48
f 1 48 51
f 1 51 53
f 1 53 59
f 1 59 57
f 1 57 50
f 1 50 44
f 1 44 38
f 1 38 32
f 1 32 27
f 1 27 25
f 1 25 18
f 1 18 8
f 1 8 4
f 1 4 14
f 1 14 21
f 1 21 20
f 1 20 15
f 1 15 5
f 1 5 2
f 2 5 6
f 2 6 3
f 3 6 7
f 4 8 9
f 4 9 10
f 4 10 11
f 4 11 12
f 4 12 13
f 4 13 14
f 5 7 6
f 5 15 7
f 7 15 16
f 7 16 17
f 8 18 9
f 9 18 19
f 9 19 10
f 10 19 26
f 10 26 30
f 10 30 36
f 10 36 42
f 10 42 49
f 10 49 54
f 10 54 52
f 10 52 47
f 10 47 39
f 10 39 33
f 10 33 28
f 10 28 22
f 10 22 16
f 10 16 15
f 10 15 20
f 10 20 13
f 10 13 12
f 10 12 11
f 13 20 21
f 13 21 14
f 16 22 17
f 17 22 24
f 17 24 23
f 18 25 19
f 19 25 27
f 19 27 26
f 22 28 24
f 23 24 29
f 24 28 29
f 26 27 31
f 26 31 30
f 27 32 31
f 28 33 29
f 29 33 35
f 29 35 34
f 30 31 36
f 31 37 36
f 31 32 38
f 31 38 37
f 33 39 40
f 33 40 35
f 34 35 41
f 35 40 41
f 36 37 42
f 37 43 42
f 37 38 43
f 38 44 45
f 38 45 43
f 39 46 41
f 39 41 40
f 39 47 46
f 41 46 48
f 42 43 49
f 43 45 49
f 44 50 45
f 45 50 49
f 46 51 48
f 46 47 51
f 47 52 53
f 47 53 51
f 49 50 55
f 49 55 54
f 50 56 55
f 50 57 56
f 52 58 53
f 52 54 55
f 52 55 56
f 52 56 59
f 52 59 58
f 53 58 59
f 56 57 59

