# https://github.com/mikedh/trimesh
v -36.32499664 -18.52582741 6.58813442
v -36.32499664 -19.52586133 6.58813442
v -36.32719308 -18.50160705 6.58813442
v -36.34038061 -18.50160705 36.57189347
v -36.32719308 -19.50086014 36.57189347
v -36.32719308 -22.52283682 6.58813442
v -36.32719308 -22.50721145 36.57189347
v -36.62715661 -17.40547697 6.58813442
v -36.68209424 -17.64923478 36.57189347
v -36.33818120 -23.49865038 6.58813442
v -36.35136575 -23.49865038 36.57189347
v -36.64803315 -17.37188228 6.58813442
v -36.69418207 -17.64220441 36.57189347
v -37.11610871 -16.92655485 6.58813442
v -36.67989781 -24.38461733 6.58813442
v -36.69308237 -24.27836454 36.57189347
v -37.51166623 -17.28906754 36.57189347
v -37.50946682 -16.81873893 6.58813442
v -37.34135479 -24.76822411 6.58813442
v -37.50287454 -24.55571704 36.57189347
v -37.42156481 -24.79713238 6.58813442
v -38.51044398 -17.28516045 36.57189347
v -37.78086183 -16.81717579 6.58813442
v -37.51166623 -24.55806099 36.57189347
v -46.56440723 -24.79322530 6.58813442
v -42.50666065 -24.55806099 36.57189347
v -45.50739273 -24.55728017 36.57189347
v -45.50739273 -17.28672359 36.57189347
v -38.50934427 -16.81639497 6.58813442
v -47.27860541 -24.37914860 6.58813442
v -46.50617346 -24.55493621 36.57189347
v -47.27640898 -24.27680140 36.57189347
v -46.50617346 -17.30000500 36.57189347
v -46.50836989 -16.84530175 6.58813442
v -47.28519769 -24.36039846 6.58813442
v -47.55000042 -23.49865038 36.57189347
v -47.27420957 -17.65704747 36.57189347
v -47.30058166 -17.38203892 6.58813442
v -47.55000042 -23.49865038 10.52394249
v -47.54780399 -23.49865038 6.58813442
v -47.55000042 -19.49304746 36.57189347
v -47.54450785 -18.49223272 36.57189347
v -47.32145820 -17.44063479 6.58813442
v -47.55000042 -19.50086014 10.52394249
v -47.54780399 -18.50160705 6.58813442
v -47.54670429 -18.50160705 36.57189347
f 1 2 6
f 1 6 10
f 1 10 15
f 1 15 19
f 1 19 21
f 1 21 25
f 1 25 30
f 1 30 35
f 1 35 40
f 1 40 45
f 1 45 43
f 1 43 38
f 1 38 34
f 1 34 29
f 1 29 23
f 1 23 18
f 1 18 14
f 1 14 12
f 1 12 8
f 1 8 3
f 1 3 4
f 1 4 5
f 1 5 7
f 1 7 2
f 2 7 6
f 3 8 4
f 4 9 13
f 4 13 17
f 4 17 22
f 4 22 28
f 4 28 33
f 4 33 37
f 4 37 42
f 4 42 46
f 4 46 41
f 4 41 36
f 4 36 32
f 4 32 31
f 4 31 27
f 4 27 26
f 4 26 24
f 4 24 20
f 4 20 16
f 4 16 11
f 4 11 7
f 4 7 5
f 4 8 9
f 6 7 10
f 7 11 10
f 8 12 9
f 9 12 14
f 9 14 13
f 10 11 15
f 11 16 15
f 13 14 17
f 14 18 17
f 15 16 19
f 16 20 21
f 16 21 19
f 17 18 23
f 17 23 22
f 20 24 21
f 21 24 26
f 21 26 27
f 21 27 25
f 22 23 29
f 22 29 28
f 25 27 31
f 25 31 32
f 25 32 30
f 28 29 34
f 28 34 33
f 30 32 36
f 30 36 35
f 33 34 37
f 34 38 37
f 35 39 40
f 35 36 39
f 36 41 44
f 36 44 39
f 37 38 43
f 37 43 42
f 39 44 45
f 39 45 40
f 41 46 45
f 41 45 44
f 42 43 46
f 43 45 46

