# https://github.com/mikedh/trimesh
v -36.19022228 24.19677597 7.54309213
v -36.19022228 16.49994127 7.54309213
v -36.19022228 24.49959946 7.54143214
v -36.51605768 24.51881157 7.54309213
v -37.59031434 16.50085620 7.54309213
v -37.55806518 16.29866939 7.54143214
v -36.19022228 16.29866939 7.54143214
v -37.51580838 25.64502123 5.59419218
v -36.19022228 24.60938399 5.54277413
v -36.32589464 25.64502123 3.39649599
v -36.32922953 25.64502123 3.54245614
v -36.39706571 25.64502123 4.39665499
v -36.44599824 25.64502123 4.54427364
v -36.76849577 25.64502123 5.28734388
v -36.82521269 25.64502123 5.37525197
v -37.40237456 25.64502123 5.57760567
v -37.51580838 24.55449247 7.54309213
v -46.51466445 17.32881704 7.54309213
v -46.51466445 16.29866939 5.86952596
v -36.19022228 16.29866939 -2.47839840
v -38.37432262 25.64502123 5.60580319
v -36.19022228 24.46666336 4.56251866
v -36.32589464 25.64502123 -7.45596989
v -44.51516602 24.55540591 7.54309213
v -47.27754284 17.67372447 7.54309213
v -47.26086245 16.29866939 5.45154904
v -36.32478003 16.29866939 -2.54640147
v -36.88415286 23.86193279 -8.05307849
v -36.78184128 25.64502123 -9.12621756
v -36.61947790 25.64502123 -8.76463420
v -36.39928897 24.49959946 -7.45596989
v -36.32700627 25.64502123 -7.60193003
v -36.19022228 17.39743255 -2.39712432
v -45.51380211 25.64502123 5.60580319
v -36.19022228 23.47311006 2.55556814
v -45.51491672 24.55540591 7.54309213
v -47.54555268 18.50077038 7.54309213
v -47.48550088 16.29866939 4.55256764
v -47.30201060 16.29866939 5.36198245
v -37.51580838 16.29866939 -2.85159128
v -36.85857347 16.82197687 -3.08214250
v -36.97423056 17.96465533 -3.98278241
v -36.92418640 20.91420899 -6.01793045
v -37.51580838 25.64502123 -9.40155283
v -36.91195252 25.64502123 -9.20583165
v -36.54941846 25.64502123 -8.53242596
v -36.19022228 23.07148124 1.98997257
v -36.19022228 22.07975780 0.96493455
v -36.19022228 21.07614024 -0.03854146
v -36.19022228 20.05148219 -1.02874795
v -36.19022228 19.47236677 -1.43843236
v -46.51466445 24.55083274 7.54309213
v -46.51466445 25.64502123 5.58921519
v -47.55000218 19.50072821 7.54309213
v -47.55000218 18.50077038 6.54127314
v -47.55000218 16.29866939 3.54245614
v -47.53109555 16.29866939 4.34026143
v -38.51555611 16.29866939 -2.85490828
v -39.70991935 25.64502123 -9.40155283
v -43.51430368 16.29866939 -2.85656678
v -47.28199234 24.27362588 7.54309213
v -47.15966548 25.64502123 5.37359197
v -47.55000218 23.49964163 7.54309213
v -47.55000218 16.29866939 -1.45667737
v -45.51380211 25.50596034 -9.30369075
v -45.70952628 25.64502123 -9.39989284
v -45.64836285 16.29866939 -2.85656678
v -47.45881285 25.64502123 4.54427364
v -47.48995038 25.49955580 4.54095663
v -47.54777594 25.64502123 3.54245614
v -47.55000218 25.49955580 3.54245614
v -47.55000218 25.49955580 -7.45596989
v -47.54221780 23.49964163 -6.45747088
v -47.49439690 24.49959946 -7.45596989
v -47.46993212 21.49972745 -5.45731188
v -47.43990622 18.50077038 -3.45699388
v -47.30089599 16.29866939 -2.44522537
v -46.51466445 25.50596034 -9.30037672
v -46.51466445 25.64502123 -9.39657583
v -46.51466445 16.29866939 -2.84661577
v -46.51466445 23.79423072 -8.10117953
v -46.51466445 24.49959946 -8.59545502
v -47.55000218 25.64502123 2.54229863
v -47.55000218 25.64502123 -7.45596989
v -47.38318931 25.64502123 -8.53242596
v -47.33537139 25.40257885 -8.55398799
v -47.28532723 23.51702387 -7.47421490
v -47.16522363 19.77244547 -5.11729054
v -47.14187048 16.82197687 -3.08048251
v -46.58472687 16.29866939 -2.83334626
v -47.18301863 22.72108420 -7.15243859
v -47.04734626 17.96465533 -3.98278241
v -47.08626818 20.91420899 -6.01793045
v -47.11963194 23.86284773 -8.05307849
v -47.08404492 25.64502123 -9.20251464
v -47.20637177 25.64502123 -9.12124056
v -47.16633824 25.64502123 -9.17431861
f 1 2 7
f 1 7 20
f 1 20 33
f 1 33 51
f 1 51 50
f 1 50 49
f 1 49 48
f 1 48 47
f 1 47 35
f 1 35 22
f 1 22 9
f 1 9 3
f 1 3 4
f 1 4 17
f 1 17 24
f 1 24 36
f 1 36 52
f 1 52 61
f 1 61 63
f 1 63 54
f 1 54 37
f 1 37 25
f 1 25 18
f 1 18 5
f 1 5 2
f 2 5 6
f 2 6 7
f 3 8 4
f 3 9 10
f 3 10 11
f 3 11 12
f 3 12 13
f 3 13 14
f 3 14 15
f 3 15 16
f 3 16 8
f 4 8 17
f 5 18 6
f 6 18 19
f 6 19 26
f 6 26 39
f 6 39 38
f 6 38 57
f 6 57 56
f 6 56 64
f 6 64 77
f 6 77 90
f 6 90 80
f 6 80 67
f 6 67 60
f 6 60 58
f 6 58 40
f 6 40 27
f 6 27 20
f 6 20 7
f 8 21 17
f 8 16 15
f 8 15 14
f 8 14 13
f 8 13 12
f 8 12 11
f 8 11 10
f 8 10 23
f 8 23 32
f 8 32 46
f 8 46 30
f 8 30 29
f 8 29 45
f 8 45 44
f 8 44 59
f 8 59 66
f 8 66 79
f 8 79 95
f 8 95 97
f 8 97 96
f 8 96 85
f 8 85 84
f 8 84 83
f 8 83 70
f 8 70 68
f 8 68 62
f 8 62 53
f 8 53 34
f 8 34 21
f 9 22 23
f 9 23 10
f 17 21 24
f 18 25 26
f 18 26 19
f 20 27 28
f 20 28 29
f 20 29 30
f 20 30 31
f 20 31 32
f 20 32 33
f 21 34 36
f 21 36 24
f 22 35 32
f 22 32 23
f 25 37 38
f 25 38 39
f 25 39 26
f 27 40 41
f 27 41 42
f 27 42 43
f 27 43 28
f 28 43 44
f 28 44 45
f 28 45 29
f 30 46 31
f 31 46 32
f 32 35 47
f 32 47 48
f 32 48 49
f 32 49 50
f 32 50 51
f 32 51 33
f 34 52 36
f 34 53 52
f 37 54 55
f 37 55 56
f 37 56 57
f 37 57 38
f 40 42 41
f 40 58 44
f 40 44 42
f 42 44 43
f 44 58 60
f 44 60 67
f 44 67 59
f 52 53 62
f 52 62 61
f 54 63 71
f 54 71 83
f 54 83 84
f 54 84 72
f 54 72 64
f 54 64 56
f 54 56 55
f 59 65 66
f 59 67 65
f 61 62 68
f 61 68 63
f 63 68 69
f 63 69 70
f 63 70 71
f 64 72 73
f 64 73 74
f 64 74 75
f 64 75 76
f 64 76 77
f 65 78 66
f 65 67 78
f 66 78 79
f 67 80 81
f 67 81 82
f 67 82 78
f 68 70 69
f 70 83 71
f 72 84 85
f 72 85 74
f 72 74 73
f 74 85 86
f 74 86 87
f 74 87 77
f 74 77 75
f 75 77 76
f 77 88 89
f 77 89 90
f 77 87 91
f 77 91 88
f 78 82 92
f 78 92 93
f 78 93 94
f 78 94 79
f 79 94 95
f 80 90 92
f 80 92 81
f 81 92 82
f 85 96 86
f 86 96 87
f 87 96 91
f 88 91 94
f 88 94 89
f 89 94 93
f 89 93 92
f 89 92 90
f 91 96 94
f 94 96 97
f 94 97 95

