# https://github.com/mikedh/trimesh
v -37.51490835 -11.62692697 4.47034436
v -42.00216658 -8.49937857 4.46693050
v -39.51480316 -11.62692697 4.46761297
v -36.82900951 -11.62692697 4.28456376
v -37.39262620 2.65605534 4.43414490
v -37.51490835 2.65605534 4.46693050
v -42.00216658 2.65605534 4.46693050
v -42.00216658 -9.04044305 4.37062410
v -40.73541932 -11.62692697 4.27500167
v -39.64153481 -11.62692697 4.46351514
v -36.72951426 -11.62692697 4.25724243
v -36.72951426 2.65605534 4.25450955
v -42.00216658 2.65605534 -2.50671811
v -42.00216658 -9.55774013 4.27636662
v -40.93496414 -11.62692697 4.20669908
v -36.42825092 -11.62692697 3.63501041
v -36.67559877 2.65605534 4.14386076
v -37.51490835 2.65605534 -2.50671811
v -42.00216658 -8.49937857 -2.50671811
v -42.00216658 -9.84994206 3.69170051
v -41.42020653 -11.62692697 3.54211937
v -41.18230901 -11.62692697 4.01408628
v -36.38434009 -11.62692697 3.54211937
v -36.38489740 2.65605534 3.54211937
v -36.82345137 2.65605534 -2.27517446
v -37.51490835 -11.62692697 -2.50671811
v -39.51480316 -11.62692697 -2.50671811
v -40.56978066 -11.62692697 -2.29224974
v -40.97887497 -11.62692697 -2.16042635
v -42.00216658 -9.56892497 -2.25809770
v -42.00216658 -9.92404196 3.54211937
v -41.49802353 -11.62692697 2.54217644
v -36.33209353 -11.62692697 2.66921803
v -36.37544706 2.65605534 3.38639000
v -36.69560809 2.65605534 -2.23214280
v -36.69560809 -11.62692697 -2.23214280
v -41.39797395 -11.62692697 -1.55322070
v -41.44577697 -11.62692697 -1.45691430
v -42.00216658 -9.88209883 -1.57849163
v -42.00216658 -9.93942073 3.00184987
v -41.49802353 -11.62692697 -0.45697137
v -42.00216658 -9.95200330 2.54217644
v -36.32486646 -11.62692697 2.54217644
v -36.32542376 2.65605534 2.54217644
v -36.35043392 2.65605534 -1.45691430
v -36.65114294 -11.62692697 -2.13378898
v -41.49413432 -11.62692697 -0.55942451
v -42.00216658 -9.93802300 -1.45691430
v -42.00216658 -9.95200330 -0.45697137
v -36.32431213 -11.62692697 0.54297156
v -36.32542376 2.65605534 -0.45697137
v -36.32931297 2.65605534 -0.61338321
v -36.34654471 -11.62692697 -1.33055518
v -36.35043392 -11.62692697 -1.45691430
v -36.32431213 -11.62692697 -0.32992978
v -36.32486646 -11.62692697 -0.45697137
f 1 2 3
f 1 3 10
f 1 10 9
f 1 9 15
f 1 15 22
f 1 22 21
f 1 21 32
f 1 32 41
f 1 41 47
f 1 47 38
f 1 38 37
f 1 37 29
f 1 29 28
f 1 28 27
f 1 27 26
f 1 26 36
f 1 36 46
f 1 46 54
f 1 54 53
f 1 53 56
f 1 56 55
f 1 55 50
f 1 50 43
f 1 43 33
f 1 33 23
f 1 23 16
f 1 16 11
f 1 11 4
f 1 4 5
f 1 5 6
f 1 6 7
f 1 7 2
f 2 8 9
f 2 9 10
f 2 10 3
f 2 7 13
f 2 13 19
f 2 19 30
f 2 30 39
f 2 39 48
f 2 48 49
f 2 49 42
f 2 42 40
f 2 40 31
f 2 31 20
f 2 20 14
f 2 14 8
f 4 11 12
f 4 12 5
f 5 12 17
f 5 17 24
f 5 24 34
f 5 34 44
f 5 44 51
f 5 51 52
f 5 52 45
f 5 45 35
f 5 35 25
f 5 25 18
f 5 18 13
f 5 13 7
f 5 7 6
f 8 14 9
f 9 14 15
f 11 16 17
f 11 17 12
f 13 18 26
f 13 26 27
f 13 27 19
f 14 20 21
f 14 21 22
f 14 22 15
f 16 23 24
f 16 24 17
f 18 25 26
f 19 27 28
f 19 28 29
f 19 29 30
f 20 31 21
f 21 31 32
f 23 33 34
f 23 34 24
f 25 35 36
f 25 36 26
f 29 37 30
f 30 37 38
f 30 38 39
f 31 40 32
f 32 40 42
f 32 42 49
f 32 49 41
f 33 43 44
f 33 44 34
f 35 45 46
f 35 46 36
f 38 47 48
f 38 48 39
f 41 49 48
f 41 48 47
f 43 50 44
f 44 50 55
f 44 55 51
f 45 52 53
f 45 53 54
f 45 54 46
f 51 55 56
f 51 56 53
f 51 53 52

