# https://github.com/mikedh/trimesh
v -38.15240164 11.36749271 -2.50458195
v -38.15240164 17.32380110 -3.58176221
v -35.64465988 17.32380110 -6.63139993
v -35.06358279 17.32380110 -6.99045852
v -34.01775906 16.99901669 -6.93667722
v -33.96966405 16.99901669 -6.93667722
v -37.50812869 11.36749271 -2.50141843
v -38.15240164 11.36749271 4.47573262
v -38.15240164 17.32380110 7.73258005
v -34.32759313 17.32380110 -6.98096648
v -33.96966405 17.00893044 -6.93667722
v -32.50886359 17.32380110 -6.73421204
v -32.43951504 17.32380110 -6.71997844
v -32.43951504 16.68006459 -6.41944270
v -32.50886359 16.66782030 -6.42734926
v -36.69104389 11.36749271 -2.21670177
v -32.43951504 14.58442363 -4.40269747
v -37.50812869 11.36749271 4.48047864
v -35.50819794 14.85206355 8.31308792
v -36.18099471 14.85206355 8.26247162
v -36.43601930 17.32380110 8.56142337
v -32.43951504 17.32380110 9.10555003
v -32.43951504 12.66196258 -1.29769744
v -36.34765536 11.36749271 -1.43531123
v -36.72515863 11.36749271 4.27326744
v -33.80747673 12.97508384 6.09545703
v -32.70516565 15.85906823 9.16882039
v -33.50882748 15.84857185 9.15774733
v -34.07759918 15.93895192 9.08498641
v -35.55405778 17.32380110 8.98375382
v -33.17886193 17.32380110 9.09605798
v -32.70516565 16.29230783 9.16882039
v -32.43951504 16.54187114 8.97900929
v -32.43951504 12.14359110 2.47480349
v -36.05683817 11.36749271 1.57478176
v -36.37673649 11.36749271 3.56305681
v -32.43951504 13.14068204 5.67470759
v -32.43951504 13.36575676 6.23781536
v -32.43951504 15.63107735 8.67847355
v -33.50882748 16.26140281 9.15774733
v -33.50882748 17.32380110 9.08498641
v -36.21790491 11.36749271 2.70099581
v -36.06802298 11.36749271 1.65703324
f 1 2 3
f 1 3 4
f 1 4 5
f 1 5 6
f 1 6 7
f 1 7 16
f 1 16 24
f 1 24 35
f 1 35 43
f 1 43 42
f 1 42 36
f 1 36 25
f 1 25 18
f 1 18 8
f 1 8 9
f 1 9 2
f 2 9 21
f 2 21 30
f 2 30 41
f 2 41 31
f 2 31 22
f 2 22 13
f 2 13 12
f 2 12 10
f 2 10 4
f 2 4 3
f 4 10 6
f 4 6 5
f 6 10 11
f 6 11 12
f 6 12 13
f 6 13 14
f 6 14 15
f 6 15 7
f 7 15 17
f 7 17 16
f 8 18 19
f 8 19 20
f 8 20 9
f 9 20 21
f 10 12 11
f 13 22 33
f 13 33 39
f 13 39 38
f 13 38 37
f 13 37 34
f 13 34 23
f 13 23 17
f 13 17 14
f 14 17 15
f 16 23 24
f 16 17 23
f 18 25 26
f 18 26 19
f 19 26 27
f 19 27 28
f 19 28 20
f 20 28 29
f 20 29 30
f 20 30 21
f 22 31 32
f 22 32 27
f 22 27 33
f 23 34 24
f 24 34 35
f 25 36 34
f 25 34 37
f 25 37 38
f 25 38 26
f 26 38 27
f 27 32 40
f 27 40 28
f 27 38 39
f 27 39 33
f 28 40 30
f 28 30 29
f 30 40 41
f 31 41 40
f 31 40 32
f 34 36 42
f 34 42 43
f 34 43 35

