# https://github.com/mikedh/trimesh
v 8.50864867 8.81900444 3.43866184
v 7.02297668 7.02122893 6.09276439
v 7.13395016 6.49933481 6.28350384
v 7.14227396 4.24506270 7.48191555
v 7.35867471 3.58981056 7.48191555
v 7.37532081 3.49876739 7.48191555
v 7.40306530 -0.49942461 7.48191555
v 8.50864867 -4.28090927 2.94850275
v 8.50864867 8.81900444 -0.07007497
v 1.12051664 8.81900444 7.47969825
v 6.03946518 6.01206357 7.07160289
v 1.05531955 8.81900444 7.48191555
v 7.36144931 -3.41792514 7.48191555
v 8.50864867 -4.28090927 -0.07007497
v 7.35590011 -3.49870960 7.48191555
v 7.14643585 -4.18601937 7.48191555
v 7.17001696 -4.28090927 7.18619437
v -5.66280371 8.81900444 -0.07007497
v -5.66280371 8.81900444 7.48191555
v -5.66280371 -4.28090927 -0.07007497
v 7.07014037 -4.22064149 7.48191555
v 6.99939409 -4.28090927 7.39985331
v -5.66280371 -4.28090927 7.48191555
v 6.92309861 -4.28090927 7.48191555
f 1 2 3
f 1 3 4
f 1 4 5
f 1 5 6
f 1 6 7
f 1 7 8
f 1 8 14
f 1 14 9
f 1 9 18
f 1 18 19
f 1 19 12
f 1 12 10
f 1 10 2
f 2 11 4
f 2 4 3
f 2 10 11
f 4 11 10
f 4 10 12
f 4 12 19
f 4 19 23
f 4 23 24
f 4 24 21
f 4 21 16
f 4 16 15
f 4 15 13
f 4 13 7
f 4 7 6
f 4 6 5
f 7 13 8
f 8 13 15
f 8 15 16
f 8 16 17
f 8 17 22
f 8 22 24
f 8 24 23
f 8 23 20
f 8 20 14
f 9 14 20
f 9 20 18
f 16 21 17
f 17 21 22
f 18 20 23
f 18 23 19
f 21 24 22

