# https://github.com/mikedh/trimesh
v -36.15259379 13.16032061 0.54321445
v -36.15370840 13.16032061 1.56032057
v -36.32551913 2.65605534 2.54167576
v -36.32551913 2.65605534 -0.45636638
v -36.16821322 13.16032061 -0.45706823
v -36.15594060 13.16032061 2.55639665
v -36.19721987 13.16032061 3.54195844
v -36.37572422 2.65605534 3.38564196
v -36.35117898 2.65605534 -1.45664906
v -36.20726030 13.16032061 -1.45664906
v -36.38576464 2.65605534 3.54125808
v -36.52856574 13.16032061 4.50859423
v -36.69591207 2.65605534 -2.23191929
v -36.56538062 13.16032061 -2.21229293
v -36.67583123 2.65605534 4.14338988
v -36.62897294 13.16032061 4.53593195
v -36.72938015 2.65605534 4.25414298
v -37.51590971 2.65605534 -2.50740059
v -37.51590971 11.07201183 -2.50740059
v -37.51590971 13.16032061 -2.50670023
v -37.51590971 13.16032061 4.65369457
v -37.51590971 2.65605534 4.46653562
v -37.39318946 2.65605534 4.43359057
v -45.51395411 2.65605534 -2.50740059
v -45.51395411 11.07201183 -2.50740059
v -45.51395411 13.16032061 -2.50670023
v -46.51468531 13.16032061 4.49948215
v -46.51357070 2.65605534 4.46653562
v -46.51357070 2.65605534 -2.50389583
v -46.51468531 11.07201183 -2.50389583
v -46.51468531 13.16032061 -2.50389583
v -46.76459021 13.16032061 4.42728141
v -47.25100978 2.65605534 4.25414298
v -47.02118871 13.16032061 -2.32234567
v -47.28113105 2.65605534 -2.22841453
v -47.25770340 13.16032061 4.27026458
v -47.34918777 13.16032061 4.02772981
v -47.51764871 2.65605534 3.54125808
v -47.28224864 11.07201183 -2.22841453
v -47.28224864 13.16032061 -2.22841453
v -47.55000218 2.65605534 -1.45664906
v -47.52434233 13.16032061 3.54195844
v -47.53661495 13.16032061 3.20268961
v -47.55000218 2.65605534 2.54167576
v -47.55000218 13.16032061 -1.45664906
v -47.55000218 13.16032061 2.54237760
v -47.55000218 11.07201183 2.54237760
f 1 2 3
f 1 3 4
f 1 4 5
f 1 5 10
f 1 10 14
f 1 14 20
f 1 20 26
f 1 26 31
f 1 31 34
f 1 34 40
f 1 40 45
f 1 45 46
f 1 46 43
f 1 43 42
f 1 42 37
f 1 37 36
f 1 36 32
f 1 32 27
f 1 27 21
f 1 21 16
f 1 16 12
f 1 12 7
f 1 7 6
f 1 6 2
f 2 6 3
f 3 6 7
f 3 7 8
f 3 8 11
f 3 11 15
f 3 15 17
f 3 17 23
f 3 23 22
f 3 22 28
f 3 28 33
f 3 33 38
f 3 38 44
f 3 44 41
f 3 41 35
f 3 35 29
f 3 29 24
f 3 24 18
f 3 18 13
f 3 13 9
f 3 9 4
f 4 9 5
f 5 9 10
f 7 11 8
f 7 12 11
f 9 13 10
f 10 13 14
f 11 12 15
f 12 16 17
f 12 17 15
f 13 18 14
f 14 18 19
f 14 19 20
f 16 21 22
f 16 22 23
f 16 23 17
f 18 24 25
f 18 25 19
f 19 25 26
f 19 26 20
f 21 27 28
f 21 28 22
f 24 29 30
f 24 30 31
f 24 31 25
f 25 31 26
f 27 32 33
f 27 33 28
f 29 34 30
f 29 35 34
f 30 34 31
f 32 36 33
f 33 36 37
f 33 37 38
f 34 35 39
f 34 39 40
f 35 41 39
f 37 42 38
f 38 42 43
f 38 43 44
f 39 41 45
f 39 45 40
f 41 44 47
f 41 47 46
f 41 46 45
f 43 46 47
f 43 47 44

