# https://github.com/mikedh/trimesh
v 9.43618691 -31.08528909 3.48043876
v 1.74369252 -31.08528909 9.75547127
v 9.43618691 -32.60248451 3.48043876
v 9.43618691 -31.08528909 -3.47974582
v -3.62417463 -31.08528909 9.75547127
v 1.74369252 -31.22980660 9.75547127
v 9.43618691 -32.60248451 -3.47974582
v 1.74113548 -32.60248451 9.75547127
v 7.56037397 -31.08528909 -3.78190280
v -3.62545315 -32.60248451 9.75547127
v -3.62417463 -31.08528909 -3.78190280
v 7.56037397 -32.60248451 -3.78190280
v -3.62417463 -32.60248451 -3.78190280
f 1 2 6
f 1 6 3
f 1 3 7
f 1 7 4
f 1 4 9
f 1 9 11
f 1 11 5
f 1 5 2
f 2 5 10
f 2 10 8
f 2 8 6
f 3 6 8
f 3 8 10
f 3 10 13
f 3 13 12
f 3 12 7
f 4 7 12
f 4 12 9
f 5 11 10
f 9 12 13
f 9 13 11
f 10 11 13

