# https://github.com/mikedh/trimesh
v -8.92679200 -46.41508504 0.06391764
v -8.92679200 -35.45135197 0.06391764
v -8.51467349 -46.37057817 0.06391764
v -8.54030764 -46.37526310 11.47815544
v -8.92679200 -46.41508504 17.56563469
v -3.95080563 -34.54131836 0.06391764
v -8.92679200 -35.45018074 9.91388056
v -3.89066405 -34.44996512 9.91388056
v -7.87283337 -46.13399494 0.06391764
v -8.51418045 -46.37174940 11.47815544
v -8.51418045 -46.37174940 17.56563469
v -8.92679200 -35.45135197 17.56563469
v -3.95080563 -42.75855629 0.06391764
v -8.92679200 -35.45018074 11.47815544
v -3.89066405 -42.78315220 9.91388056
v -3.89066405 -34.44996512 11.47815544
v -7.87283337 -46.13516617 11.47815544
v -7.87283337 -46.13516617 17.56563469
v -4.65623844 -35.44900951 17.56563469
v -4.65623844 -35.30260828 16.68155373
v -3.89066405 -42.78315220 11.47815544
v -4.65623844 -42.42124697 17.56220816
v -4.65623844 -41.72203243 17.56563469
f 1 2 6
f 1 6 13
f 1 13 9
f 1 9 3
f 1 3 4
f 1 4 5
f 1 5 12
f 1 12 14
f 1 14 7
f 1 7 2
f 2 7 8
f 2 8 6
f 3 9 10
f 3 10 4
f 4 10 11
f 4 11 5
f 5 11 18
f 5 18 23
f 5 23 19
f 5 19 12
f 6 8 15
f 6 15 13
f 7 14 16
f 7 16 8
f 8 16 21
f 8 21 15
f 9 13 15
f 9 15 17
f 9 17 10
f 10 17 18
f 10 18 11
f 12 19 20
f 12 20 16
f 12 16 14
f 15 21 18
f 15 18 17
f 16 20 19
f 16 19 23
f 16 23 21
f 18 22 23
f 18 21 22
f 21 23 22

