# https://github.com/mikedh/trimesh
v -0.46593264 -22.50802697 -9.45750382
v -0.72736658 -22.50802697 -10.24540429
v -0.71842885 -22.50802697 -8.37711681
v 1.00323837 -23.98072360 -8.37711681
v 1.34846544 -23.97125836 -10.37028224
v -0.73071861 -22.50802697 -10.25516159
v -8.92679163 -22.50802697 -8.37711681
v 1.18981767 -24.50015080 -8.37711681
v 2.46793976 -25.49996112 -10.37028224
v 1.93725098 -24.50015080 -10.37028224
v -1.02678739 -22.50802697 -10.37028224
v -8.92679163 -22.50802697 -10.37028224
v -8.92679163 -25.03417075 -8.37711681
v 1.35740317 -25.49996112 -8.37711681
v 2.48581597 -26.49976845 -10.37028224
v -8.92679163 -23.45538062 -10.37028224
v -3.62772210 -26.53644922 -8.37711681
v -8.92679163 -25.03417075 -8.45770245
v 1.35740317 -26.53644922 -8.37711681
v 2.48469839 -26.53644922 -10.37008852
v 2.24002232 -26.53644922 -10.37028224
v -8.92679163 -23.50034198 -10.36286740
v -8.84970218 -23.50034198 -10.37028224
v -3.62772210 -26.53644922 -8.49438620
v -8.92679163 -25.02707182 -8.82218856
v -3.62437045 -26.53644922 -10.37028224
v -3.62660489 -26.53644922 -9.49106428
v -8.92679163 -24.13532942 -10.08364889
v -8.92679163 -25.01918313 -8.99389797
v -8.92679163 -24.65515150 -9.44950486
v -8.92679163 -24.42955343 -9.72950420
f 1 2 6
f 1 6 11
f 1 11 12
f 1 12 7
f 1 7 3
f 1 3 4
f 1 4 5
f 1 5 2
f 2 5 6
f 3 7 13
f 3 13 17
f 3 17 19
f 3 19 14
f 3 14 8
f 3 8 4
f 4 8 9
f 4 9 10
f 4 10 5
f 5 10 9
f 5 9 15
f 5 15 21
f 5 21 26
f 5 26 23
f 5 23 16
f 5 16 12
f 5 12 11
f 5 11 6
f 7 12 16
f 7 16 22
f 7 22 28
f 7 28 31
f 7 31 30
f 7 30 29
f 7 29 25
f 7 25 18
f 7 18 13
f 8 14 9
f 9 14 15
f 13 18 24
f 13 24 17
f 14 19 15
f 15 20 21
f 15 19 20
f 16 23 22
f 17 24 27
f 17 27 26
f 17 26 21
f 17 21 20
f 17 20 19
f 18 25 26
f 18 26 27
f 18 27 24
f 22 23 26
f 22 26 28
f 25 29 26
f 26 29 30
f 26 30 31
f 26 31 28

