# https://github.com/mikedh/trimesh
v -38.05568411 35.11449440 60.50297899
v -38.50921016 35.11449440 60.48203987
v -38.05568411 34.49922806 60.42549887
v -38.05568411 35.11449440 43.20209163
v -45.29909523 35.11449440 60.11767646
v -38.05568411 33.58138751 60.22447314
v -38.05568411 26.50414530 39.11244910
v -46.50819108 26.50414530 39.11872994
v -44.51007231 35.11449440 43.29841727
v -45.50820335 35.11449440 60.10301967
v -38.05568411 31.49959867 59.75122092
v -38.05568411 26.50414530 54.09105615
v -47.28234561 26.50414530 39.55219604
v -47.17918779 27.28376260 39.86630078
v -45.49426181 35.11449440 43.62299307
v -45.50820335 35.01082696 60.05904333
v -38.05568411 29.91929084 59.13557610
v -38.05568411 30.50084476 59.37220072
v -46.49146302 35.11449440 59.78263259
v -46.50819108 34.49922806 59.58579409
v -38.05568411 28.78989837 58.37125336
v -38.96273622 26.50414530 54.09314827
v -47.28606196 26.50414530 39.56266560
v -47.26097137 35.11449440 45.23330292
v -47.12342463 35.11449440 44.95060835
v -46.06581706 35.11449440 44.00620050
v -47.11320242 33.86289147 59.15651522
v -38.05568411 29.29054192 58.86753981
v -46.71636638 35.11449440 59.67793101
v -38.05568411 29.00987838 58.65394942
v -46.50819108 26.50414530 54.08896104
v -45.50820335 26.50414530 54.09105615
v -43.50822492 26.50414530 54.09314827
v -47.54163789 26.50414530 40.56570658
v -47.47007651 28.50080971 41.56456032
v -47.49145075 34.49922806 45.56415956
v -47.36784554 35.11449440 45.53484300
v -47.20613804 34.49922806 59.26749914
v -47.27955611 33.51733334 58.58065652
v -47.17639829 32.72085685 58.25817732
v -47.15874040 29.77263948 56.22277880
v -47.13550650 26.82273529 54.18738029
v -47.07974632 30.91298729 57.12321181
v -47.04071419 27.96392651 55.08781330
v -47.22658543 35.11449440 59.30519314
v -47.29442748 26.50414530 53.61570882
v -47.54907059 26.50414530 41.56456032
v -47.54907059 27.50036899 41.56456032
v -47.55000042 30.50084476 43.56435994
v -47.54907059 35.11449440 46.56510692
v -47.52676652 35.11449440 46.17980438
v -47.32974325 35.11449440 59.03506174
v -47.47286303 34.49922806 58.56390761
v -47.46357066 31.49959867 56.56201288
v -47.43569057 28.50080971 54.56221029
v -47.30186316 26.50414530 53.59686480
v -47.29907366 26.50414530 53.60523926
v -47.54907059 26.50414530 46.56510692
v -47.55000042 28.50080971 43.56435994
v -47.54907059 35.11449440 47.17865664
v -47.49424025 35.11449440 58.56390761
v -47.53605889 33.49963373 57.56296024
v -47.52305017 30.50084476 55.56315765
v -47.50724897 27.50036899 53.56335803
v -47.54628407 26.50414530 52.56241067
v -47.54814076 26.50414530 48.56490654
v -47.54814076 35.11449440 49.17845626
v -47.52119050 35.11449440 58.17650996
v -47.54349457 34.49922806 57.56296024
v -47.54349457 32.50003641 56.56201288
v -47.54628407 35.11449440 52.56241067
v -47.54256474 35.11449440 57.56296024
v -47.54442441 35.11449440 55.56315765
f 1 2 3
f 1 3 6
f 1 6 11
f 1 11 18
f 1 18 17
f 1 17 28
f 1 28 30
f 1 30 21
f 1 21 12
f 1 12 7
f 1 7 4
f 1 4 9
f 1 9 15
f 1 15 26
f 1 26 25
f 1 25 24
f 1 24 37
f 1 37 51
f 1 51 50
f 1 50 60
f 1 60 67
f 1 67 71
f 1 71 73
f 1 73 72
f 1 72 68
f 1 68 61
f 1 61 52
f 1 52 45
f 1 45 29
f 1 29 19
f 1 19 10
f 1 10 5
f 1 5 2
f 2 5 3
f 3 5 6
f 4 7 8
f 4 8 9
f 5 10 11
f 5 11 6
f 7 12 22
f 7 22 33
f 7 33 32
f 7 32 31
f 7 31 46
f 7 46 57
f 7 57 56
f 7 56 65
f 7 65 66
f 7 66 58
f 7 58 47
f 7 47 34
f 7 34 23
f 7 23 13
f 7 13 8
f 8 13 14
f 8 14 15
f 8 15 9
f 10 16 17
f 10 17 18
f 10 18 11
f 10 19 20
f 10 20 16
f 12 21 22
f 13 23 24
f 13 24 25
f 13 25 14
f 14 25 26
f 14 26 15
f 16 20 27
f 16 27 28
f 16 28 17
f 19 29 27
f 19 27 20
f 21 30 31
f 21 31 32
f 21 32 33
f 21 33 22
f 23 34 35
f 23 35 36
f 23 36 37
f 23 37 24
f 27 29 38
f 27 38 39
f 27 39 40
f 27 40 41
f 27 41 42
f 27 42 43
f 27 43 28
f 28 43 44
f 28 44 30
f 29 45 38
f 30 44 42
f 30 42 31
f 31 42 46
f 34 47 48
f 34 48 49
f 34 49 50
f 34 50 51
f 34 51 36
f 34 36 35
f 36 51 37
f 38 45 52
f 38 52 53
f 38 53 39
f 39 53 54
f 39 54 55
f 39 55 56
f 39 56 57
f 39 57 40
f 40 57 41
f 41 57 46
f 41 46 42
f 42 44 43
f 47 58 59
f 47 59 49
f 47 49 48
f 49 59 60
f 49 60 50
f 52 61 53
f 53 61 62
f 53 62 54
f 54 62 63
f 54 63 64
f 54 64 55
f 55 64 56
f 56 64 65
f 58 66 67
f 58 67 60
f 58 60 59
f 61 68 62
f 62 68 69
f 62 69 70
f 62 70 65
f 62 65 63
f 63 65 64
f 65 70 69
f 65 69 71
f 65 71 67
f 65 67 66
f 68 72 69
f 69 72 73
f 69 73 71

