# https://github.com/mikedh/trimesh
v 1.84087753 -3.71802336 -8.37711681
v 1.84087753 -3.41101934 -9.14421224
v 6.66922700 -3.71615140 -8.37711681
v 1.84087753 2.65543135 -8.37711681
v 1.84087753 -3.32927662 -9.28560964
v 6.93499421 -3.51023407 -8.37711681
v 6.25121581 -3.06532773 -8.98628942
v 4.49217343 2.65543135 -8.37711681
v 1.84087753 2.65543135 -8.46489377
v 1.84087753 0.49953877 -9.62777973
v 7.12225003 -0.25736359 -9.10650627
v 7.00395543 -3.20135809 -8.37711681
v 6.48515408 -0.33661057 -9.19820224
v 4.01050509 2.00835160 -8.96853614
v 4.39987098 2.65543135 -8.39278690
v 5.52075645 2.02207932 -8.37711681
v 6.03478346 1.02743609 -8.98530892
v 5.48521562 1.17657019 -9.09757151
v 3.38507901 2.65543135 -8.42290221
v 3.96011001 2.00835160 -8.96853614
v 1.84087753 1.42304707 -9.37656949
v 4.40040146 1.52475776 -9.16783957
v 5.48521562 0.49953877 -9.27508344
v 7.25964199 -0.54751991 -8.37711681
v 7.23577177 -0.55375983 -8.50358024
v 7.12225003 0.17631089 -9.10650627
v 6.56578591 1.29388075 -8.37711681
v 6.70158643 0.84273444 -8.78062020
v 6.41460141 0.50577874 -9.16661469
v 7.24956282 0.50515475 -8.37711681
v 7.20500379 0.66614470 -8.37711681
v 7.23471081 0.50577874 -8.45142607
f 1 2 3
f 1 3 6
f 1 6 12
f 1 12 24
f 1 24 30
f 1 30 31
f 1 31 27
f 1 27 16
f 1 16 8
f 1 8 4
f 1 4 9
f 1 9 21
f 1 21 10
f 1 10 5
f 1 5 2
f 2 5 3
f 3 5 7
f 3 7 6
f 4 8 15
f 4 15 19
f 4 19 9
f 5 10 7
f 6 7 11
f 6 11 12
f 7 10 13
f 7 13 11
f 8 14 15
f 8 16 17
f 8 17 18
f 8 18 14
f 9 19 14
f 9 14 20
f 9 20 21
f 10 21 22
f 10 22 23
f 10 23 13
f 11 24 25
f 11 25 12
f 11 13 26
f 11 26 24
f 12 25 24
f 13 23 26
f 14 19 15
f 14 18 22
f 14 22 21
f 14 21 20
f 16 27 28
f 16 28 17
f 17 28 26
f 17 26 29
f 17 29 18
f 18 29 22
f 22 29 23
f 23 29 26
f 24 26 30
f 26 28 27
f 26 27 31
f 26 31 32
f 26 32 30
f 30 32 31

