# https://github.com/mikedh/trimesh
v -36.26561336 15.49583643 46.46525037
v -36.51527388 15.49401700 46.51184789
v -36.26561336 15.49401700 44.40463024
v -36.26561336 16.52245548 46.45144442
v -36.49317839 24.78268782 51.54259279
v -36.50974851 24.49989152 51.54259279
v -36.75609500 24.78268782 52.44864480
v -36.79254928 24.49989152 52.36062943
v -36.90633179 23.86246030 52.13799968
v -37.51501564 24.78268782 52.88009985
v -37.51501564 15.49401700 46.67579973
v -36.26561336 15.49401700 35.25091503
v -36.26561336 17.50087960 46.25815362
v -36.45009607 24.78268782 50.54162316
v -38.51586308 24.78268782 52.88182541
v -38.51586308 15.49401700 46.68097790
v -37.42553697 15.49401700 35.25091503
v -36.26561336 24.54262814 35.25091503
v -36.26561336 18.50021903 45.84913530
v -36.26561336 19.42135702 45.45564998
v -36.26561336 20.47343623 44.50990417
v -36.26561336 21.48005043 43.52273901
v -36.26561336 22.47211361 42.51313862
v -36.26561336 23.41871326 41.45694071
v -36.26561336 24.29711314 39.54301237
v -36.26561336 24.45169660 38.59208988
v -36.26561336 24.58445727 37.29255255
v -36.38602393 24.78268782 39.54301237
v -39.95527044 24.78268782 52.88182541
v -45.52068944 15.49401700 46.68097790
v -46.51380316 17.54088930 35.25091503
v -46.89050229 15.49401700 38.98384964
v -37.22337847 24.54990290 35.25091503
v -37.52827174 24.78268782 37.50655302
v -37.51501564 24.78268782 37.50827858
v -36.76161739 24.78268782 37.78786068
v -36.48434198 24.78268782 38.62315440
v -46.51380316 24.78268782 52.88009985
v -46.51380316 15.49401700 46.66371934
v -46.72921776 17.60272328 35.25091503
v -47.29702764 15.49401700 39.40667392
v -47.25836203 17.77185627 35.25091503
v -45.51406139 24.54990290 35.25091503
v -44.51431963 24.78268782 37.47376295
v -38.51586308 24.78268782 37.47548851
v -46.82863850 24.78268782 52.73858324
v -47.11917299 23.86246030 52.13799968
v -47.28156020 15.49401700 46.34444344
v -47.32464551 15.49401700 39.48778706
v -47.52680401 18.50021903 35.25091503
v -46.51380316 24.54626552 35.25091503
v -45.51406139 24.78268782 37.47376295
v -47.26057337 24.78268782 52.44864480
v -47.22743312 24.49989152 52.36062943
v -47.55000218 15.49401700 45.54194129
v -47.28597990 23.51691956 51.55812579
v -47.51907029 15.49401700 40.40246836
v -47.55000218 19.50046744 35.25091503
v -47.54889651 15.49401700 40.54398497
v -47.55000218 15.50038279 40.54398497
v -47.05841487 24.35167236 35.25091503
v -47.21527971 24.78268782 37.93110285
v -47.11254494 24.78268782 37.86207159
v -46.52595657 24.78268782 37.51518230
v -46.51380316 24.78268782 37.51345674
v -47.44505607 24.78268782 51.88602948
v -47.49476645 24.49989152 51.54259279
v -47.54226846 23.49964312 50.54162316
v -47.55000218 22.49939322 49.54237612
v -47.55000218 15.49401700 41.54323053
v -47.55000218 23.49964312 35.25091503
v -47.28156020 24.27074250 35.25091503
v -47.43842802 24.78268782 38.82680003
v -47.51023090 24.78268782 51.54259279
v -47.55000218 24.78268782 50.82465639
v -47.55000218 24.78268782 39.82777264
v -47.53232639 24.78268782 39.54301237
v -47.35999411 24.04614132 35.25091503
f 1 2 3
f 1 3 12
f 1 12 18
f 1 18 27
f 1 27 26
f 1 26 25
f 1 25 24
f 1 24 23
f 1 23 22
f 1 22 21
f 1 21 20
f 1 20 19
f 1 19 13
f 1 13 4
f 1 4 5
f 1 5 6
f 1 6 7
f 1 7 8
f 1 8 9
f 1 9 10
f 1 10 2
f 2 11 16
f 2 16 30
f 2 30 39
f 2 39 48
f 2 48 55
f 2 55 70
f 2 70 59
f 2 59 57
f 2 57 49
f 2 49 41
f 2 41 32
f 2 32 17
f 2 17 12
f 2 12 3
f 2 10 11
f 4 13 14
f 4 14 5
f 5 14 28
f 5 28 37
f 5 37 36
f 5 36 35
f 5 35 34
f 5 34 45
f 5 45 44
f 5 44 52
f 5 52 65
f 5 65 64
f 5 64 63
f 5 63 62
f 5 62 73
f 5 73 77
f 5 77 76
f 5 76 75
f 5 75 74
f 5 74 66
f 5 66 53
f 5 53 46
f 5 46 38
f 5 38 29
f 5 29 15
f 5 15 10
f 5 10 7
f 5 7 6
f 7 10 8
f 8 10 9
f 10 15 16
f 10 16 11
f 12 17 31
f 12 31 40
f 12 40 42
f 12 42 50
f 12 50 58
f 12 58 71
f 12 71 78
f 12 78 72
f 12 72 61
f 12 61 51
f 12 51 43
f 12 43 33
f 12 33 18
f 13 19 14
f 14 19 20
f 14 20 21
f 14 21 22
f 14 22 23
f 14 23 24
f 14 24 25
f 14 25 26
f 14 26 27
f 14 27 28
f 15 29 30
f 15 30 16
f 17 32 31
f 18 33 34
f 18 34 35
f 18 35 36
f 18 36 37
f 18 37 28
f 18 28 27
f 29 38 30
f 30 38 39
f 31 32 40
f 32 41 42
f 32 42 40
f 33 43 52
f 33 52 44
f 33 44 45
f 33 45 34
f 38 46 47
f 38 47 39
f 39 47 48
f 41 49 42
f 42 49 50
f 43 51 52
f 46 53 54
f 46 54 47
f 47 54 48
f 48 54 56
f 48 56 55
f 49 57 50
f 50 57 59
f 50 59 60
f 50 60 58
f 51 61 62
f 51 62 63
f 51 63 64
f 51 64 65
f 51 65 52
f 53 66 56
f 53 56 54
f 55 56 66
f 55 66 67
f 55 67 68
f 55 68 69
f 55 69 75
f 55 75 76
f 55 76 71
f 55 71 58
f 55 58 60
f 55 60 70
f 59 70 60
f 61 72 62
f 62 72 73
f 66 74 67
f 67 74 68
f 68 74 75
f 68 75 69
f 71 76 77
f 71 77 78
f 72 78 77
f 72 77 73

