# https://github.com/mikedh/trimesh
v -45.70895407 25.64593914 -9.40085247
v -39.45001874 25.64593914 -9.40085247
v -46.51451246 25.64593914 -9.39659967
v -39.45001874 29.11833686 -12.88027163
v -39.45001874 25.64593914 5.60507005
v -47.16625181 25.64593914 -9.17342454
v -47.14722299 26.81289909 -10.08738312
v -47.05524986 27.95413363 -10.98858927
v -39.45001874 29.56306886 -13.20334435
v -39.45001874 35.03216359 0.70795457
v -40.51563867 35.03216359 0.71220439
v -45.37515249 25.64593914 5.60719645
v -47.20668768 25.64593914 -9.12241478
v -47.19321104 25.67166754 -9.18405206
v -47.16863004 29.76246170 -12.12359809
v -47.09330750 30.90277534 -13.02480424
v -39.45001874 29.57225694 -13.20972206
v -39.45001874 35.03216359 -16.10463008
v -43.51428282 35.03216359 0.71220439
v -45.51469917 25.64593914 5.60719645
v -47.38270651 25.64593914 -8.53152891
v -47.30817671 26.48762100 -9.49224744
v -47.26139591 30.54166286 -12.45729834
v -47.18607337 32.71110640 -14.15768815
v -47.10203066 33.86428573 -15.04613888
v -46.51451246 33.78801845 -15.10140144
v -46.51451246 33.28723710 -14.75919857
v -39.45001874 30.32021626 -13.70496016
v -39.45001874 34.99816801 -16.09187764
v -46.02689482 34.99357248 -15.96009747
v -45.51469917 35.03216359 -15.98135253
v -43.74262867 35.03216359 0.71007948
v -46.51451246 25.64593914 5.59019270
v -47.55000218 25.64593914 -7.45603247
v -47.55000218 26.50048668 -8.45713621
v -47.51511551 27.50021355 -9.45611503
v -47.44613492 28.50085833 -10.45721876
v -47.47547238 31.50003892 -12.45729834
v -47.27725376 33.51879267 -14.47863596
v -47.16545906 34.49922249 -15.15879188
v -46.03720347 35.03216359 -15.96647518
v -39.45001874 31.37967008 -14.31072338
v -39.45001874 34.84839018 -16.02386265
v -39.45001874 32.28751024 -14.78470642
v -44.51409313 35.03216359 0.67819689
v -47.11392181 26.12742643 5.13108701
v -47.15990986 25.64593914 5.37339230
v -44.84948020 35.03216359 0.60593058
v -47.55000218 25.64593914 2.54224647
v -47.53176610 30.49939414 -11.45619461
v -47.55000218 32.49976876 -12.45729834
v -47.54445298 33.49949563 -13.45627717
v -47.43345102 34.49922249 -14.45738090
v -47.17576771 35.03216359 -15.19704920
v -46.53988323 35.03216359 -15.65190210
v -47.17973143 27.26865798 4.22988235
v -45.50201229 35.03216359 0.35512417
v -45.86990482 35.03216359 0.19996253
v -46.21401206 35.03216359 -0.06572272
v -46.84910380 35.03216359 -0.63535204
v -47.07665691 35.03216359 -0.89678747
v -47.28042473 26.47659411 4.55508147
v -47.45882179 25.64593914 4.54232903
v -47.54841669 25.64593914 3.54122530
v -47.55000218 27.50021355 2.54224647
v -47.55000218 34.49922249 -13.45627717
v -47.44375669 35.03216359 -14.45738090
v -47.34385612 35.03216359 -1.43453421
v -47.53969652 26.50048668 3.54122530
v -47.45168710 34.49922249 -1.45791566
v -47.55000218 35.03216359 -2.45901791
v -47.55000218 35.03216359 -13.45627717
f 1 2 5
f 1 5 12
f 1 12 20
f 1 20 33
f 1 33 47
f 1 47 63
f 1 63 64
f 1 64 49
f 1 49 34
f 1 34 21
f 1 21 13
f 1 13 6
f 1 6 3
f 1 3 4
f 1 4 2
f 2 4 9
f 2 9 17
f 2 17 28
f 2 28 42
f 2 42 44
f 2 44 43
f 2 43 29
f 2 29 18
f 2 18 10
f 2 10 5
f 3 6 7
f 3 7 8
f 3 8 9
f 3 9 4
f 5 10 11
f 5 11 12
f 6 13 14
f 6 14 7
f 7 14 15
f 7 15 16
f 7 16 8
f 8 16 17
f 8 17 9
f 10 18 31
f 10 31 41
f 10 41 55
f 10 55 54
f 10 54 67
f 10 67 72
f 10 72 71
f 10 71 68
f 10 68 61
f 10 61 60
f 10 60 59
f 10 59 58
f 10 58 57
f 10 57 48
f 10 48 45
f 10 45 32
f 10 32 19
f 10 19 11
f 11 19 20
f 11 20 12
f 13 21 22
f 13 22 14
f 14 22 15
f 15 23 24
f 15 24 16
f 15 22 23
f 16 24 25
f 16 25 26
f 16 26 27
f 16 27 17
f 17 27 26
f 17 26 28
f 18 29 30
f 18 30 31
f 19 32 20
f 20 32 33
f 21 34 35
f 21 35 36
f 21 36 22
f 22 36 37
f 22 37 38
f 22 38 39
f 22 39 23
f 23 39 24
f 24 39 25
f 25 39 40
f 25 40 41
f 25 41 30
f 25 30 26
f 26 30 28
f 28 30 42
f 29 43 30
f 30 41 31
f 30 43 44
f 30 44 42
f 32 45 33
f 33 46 47
f 33 45 48
f 33 48 46
f 34 49 65
f 34 65 71
f 34 71 72
f 34 72 66
f 34 66 51
f 34 51 35
f 35 50 36
f 35 51 52
f 35 52 50
f 36 50 38
f 36 38 37
f 38 52 39
f 38 50 52
f 39 53 40
f 39 52 53
f 40 53 54
f 40 54 55
f 40 55 41
f 46 56 47
f 46 48 57
f 46 57 58
f 46 58 59
f 46 59 60
f 46 60 61
f 46 61 56
f 47 56 62
f 47 62 63
f 49 64 65
f 51 66 52
f 52 66 67
f 52 67 53
f 53 67 54
f 56 61 68
f 56 68 62
f 62 68 63
f 63 69 64
f 63 68 70
f 63 70 69
f 64 69 65
f 65 69 71
f 66 72 67
f 68 71 70
f 69 70 71

