# https://github.com/mikedh/trimesh
v 12.64441981 -48.49158389 6.54224023
v 12.75614298 2.65219276 5.69921131
v 12.75614298 -47.49206564 5.69953615
v 12.75614298 -48.49158389 5.70018585
v 12.86786615 -49.49110512 5.86534618
v 12.84771974 -49.49110512 6.45380762
v 12.91365453 -49.16453062 7.11282024
v 12.87702442 -48.49158389 7.14825826
v 12.87702442 2.65219276 7.14858310
v 12.64441981 48.49158389 6.54224023
v 13.13343816 -47.49206564 5.19950583
v 12.75614298 47.49206564 5.69921131
v 13.13343816 -48.49158389 5.20015552
v 13.26897343 -49.49110512 5.36596554
v 12.98325353 -49.99581442 6.03408130
v 12.98325353 -49.99581442 6.06171705
v 13.48875706 -48.49158389 7.36446113
v 13.25065689 -49.82757699 6.72853194
v 13.91733468 -50.01560916 7.06210255
v 13.54553358 -49.49110512 7.18304658
v 12.97226390 2.65219276 7.18239539
v 12.87702442 48.49158389 7.14858310
v 12.91365453 49.15463325 7.11282024
v 12.84955259 49.49110512 6.44795592
v 12.86969900 49.49110512 5.86794643
v 12.75614298 48.49158389 5.69986100
v 14.06935216 -47.50196003 4.15360315
v 13.13343816 47.49206564 5.19950583
v 14.08034030 -48.49158389 4.15360315
v 14.24701012 -49.49110512 4.15360315
v 14.55287644 -50.11457095 4.15360315
v 13.55469185 -50.11457095 5.63808811
v 14.48694165 -50.41145632 5.54315412
v 13.54553358 -50.10467060 6.45380762
v 14.48694165 -49.49110512 7.28773340
v 14.48694165 -48.49158389 7.47500114
v 13.48875706 2.65219276 7.36478597
v 14.48694165 -50.28280540 6.54224023
v 14.48694165 -50.02550355 7.07153053
v 13.48875706 48.49158389 7.36478597
v 13.54553358 49.49110512 7.18304658
v 13.91733468 50.01560916 7.06210255
v 13.25248973 49.82757699 6.71845277
v 12.98508488 49.99581442 6.05196273
v 12.98508488 49.99581442 6.03830728
v 13.26897343 49.49110512 5.36889214
v 13.13343816 48.49158389 5.20015552
v 14.06935216 2.64229651 4.15360315
v 14.06752081 47.50196003 4.15913001
v 15.14995673 -50.29269979 4.15360315
v 15.48695760 -50.38176719 4.15360315
v 16.48697503 -50.53021285 4.15360315
v 15.48695760 -50.53021285 5.54315412
v 29.48352560 -49.49110512 7.28773340
v 13.64443576 2.65219276 7.38201771
v 29.48352560 -48.49158389 7.47500114
v 14.48694165 48.49158389 7.47500114
v 15.48695760 -50.29269979 6.54224023
v 29.48352560 -50.02550355 7.07153053
v 14.48694165 49.49110512 7.28773340
v 14.48694165 50.02550355 7.07153053
v 14.48694165 50.28280540 6.54224023
v 13.54553358 50.10467060 6.44795592
v 14.48694165 50.41145632 5.54282927
v 13.55469185 50.11457095 5.64068986
v 14.55287644 50.11457095 4.15913001
v 14.38987082 49.79788786 4.15913001
v 14.24701012 49.49110512 4.15913001
v 14.08034030 48.49158389 4.15913001
v 14.23235927 2.65219276 4.15360315
v 15.48695760 50.38176719 4.15913001
v 15.87157969 50.46093423 4.15913001
v 16.48697503 50.54010724 4.15913001
v 17.48699098 -50.55000163 4.15360315
v 16.48697503 -50.54010724 5.54315412
v 30.48170870 -48.49158389 7.37486514
v 30.05496243 -50.01560916 7.06210255
v 30.42676205 -49.50100249 7.18727255
v 29.48352560 48.49158389 7.47500114
v 23.48342693 49.49110512 7.28805825
v 28.48350965 -50.29269979 6.54224023
v 29.48352560 -50.28280540 6.54224023
v 29.48352560 50.02550355 7.07153053
v 15.48695760 50.29269979 6.54224023
v 15.48695760 50.53021285 5.54282927
v 17.48699098 50.55000163 4.15913001
v 29.82235782 2.65219276 4.15360315
v 23.09514064 -50.55000163 4.15360315
v 17.48699098 -50.55000163 4.54309346
v 27.48349072 -50.54010724 5.54315412
v 31.06596950 -49.17442501 7.11964797
v 31.10626232 -48.49158389 7.15866227
v 30.58061387 2.65219276 7.34105284
v 30.48170870 48.49158389 7.37486514
v 30.42676205 -50.11457095 6.47786708
v 30.72163874 -49.83747436 6.76787108
v 29.48352560 49.49110512 7.28773340
v 26.48347478 49.49110512 7.28805825
v 28.48350965 -50.53021285 5.54315412
v 29.48352560 -50.41145632 5.54315412
v 30.05679528 50.01560916 7.06210255
v 29.48352560 50.28280540 6.54224023
v 28.48350965 50.29269979 6.54224023
v 16.48697503 50.54010724 5.54282927
v 17.48699098 50.55000163 4.54276862
v 22.48341099 50.55000163 4.15913001
v 27.48349072 50.45103984 4.15913001
v 28.45237212 50.30260014 4.15913001
v 29.15567854 50.07498146 4.15913001
v 29.41026240 49.73851257 4.15913001
v 29.56044853 49.49110512 4.15913001
v 29.81503240 48.54106478 4.15913001
v 29.82785338 48.49158389 4.15913001
v 29.84799979 48.49158389 4.17831231
v 29.82235782 -48.49158389 4.15360315
v 27.09337456 -50.46093423 4.15360315
v 27.48349072 -50.53021285 4.54309346
v 26.48347478 -50.54010724 4.54309346
v 23.48342693 -50.55000163 4.54309346
v 31.35535063 -48.49158389 6.54224023
v 30.99820186 -50.00570881 6.10138104
v 31.14105958 -49.50100249 6.47786708
v 31.10626232 48.49158389 7.15866227
v 31.06596950 49.17442501 7.11964797
v 30.42676205 49.50100249 7.18694771
v 28.48350965 -50.42135071 4.54309346
v 29.42125352 -50.15415447 4.60389032
v 30.42126947 -50.12446534 5.62703441
v 30.99820186 -50.00570881 6.01619987
v 30.72347158 49.83747436 6.75844310
v 30.42676205 50.11457095 6.47168905
v 29.48352560 50.41145632 5.54282927
v 28.48350965 50.53021285 5.54282927
v 27.48349072 50.54010724 5.54282927
v 23.48342693 50.55000163 4.54276862
v 26.48347478 50.54010724 4.54276862
v 27.48349072 50.53021285 4.54276862
v 28.48350965 50.42135071 4.54276862
v 29.42125352 50.15415447 4.60389032
v 30.04763701 50.03539794 4.97810095
v 30.21430683 49.49110512 4.81196608
v 29.71429736 49.49110512 4.31193576
v 30.34800627 48.49158389 4.67834263
v 29.84799979 -48.49158389 4.17831231
v 29.62272061 -49.24370064 4.15360315
v 27.48349072 -50.45103984 4.15360315
v 31.11725046 -49.49110512 5.84486300
v 31.22897363 -48.49158389 5.68718158
v 31.22897363 2.65219276 5.68685673
v 31.35535063 48.49158389 6.54224023
v 31.13922971 49.50100249 6.47168905
v 30.99636902 50.00570881 6.09162672
v 28.09339051 -50.38176719 4.15360315
v 28.45054226 -50.30260014 4.15360315
v 28.96519959 -50.14426008 4.15360315
v 29.15201880 -50.07498146 4.15360315
v 30.04763701 -50.03539794 4.97810095
v 30.71431331 -49.49110512 5.34548237
v 30.99636902 50.00570881 6.02140188
v 30.42126947 50.12446534 5.63028585
v 30.71431331 49.49110512 5.34938499
v 30.84801574 48.49158389 5.18715125
v 30.34800627 -48.49158389 4.67834263
v 30.21430683 -49.49110512 4.81196608
v 29.71429736 -49.49110512 4.31226060
v 29.55495297 -49.49110512 4.15360315
v 30.84801574 -48.49158389 5.18715125
v 31.22897363 48.49158389 5.68685673
v 31.11542059 49.49110512 5.84876413
f 1 2 3
f 1 3 4
f 1 4 5
f 1 5 6
f 1 6 7
f 1 7 8
f 1 8 9
f 1 9 22
f 1 22 10
f 1 10 12
f 1 12 2
f 2 11 3
f 2 12 28
f 2 28 11
f 3 11 13
f 3 13 4
f 4 13 5
f 5 13 14
f 5 14 15
f 5 15 6
f 6 15 16
f 6 16 7
f 7 17 8
f 7 16 18
f 7 18 19
f 7 19 20
f 7 20 17
f 8 17 21
f 8 21 9
f 9 21 22
f 10 22 23
f 10 23 24
f 10 24 25
f 10 25 26
f 10 26 12
f 11 27 13
f 11 28 48
f 11 48 27
f 12 26 47
f 12 47 28
f 13 27 29
f 13 29 30
f 13 30 14
f 14 30 31
f 14 31 15
f 15 31 32
f 15 32 33
f 15 33 16
f 16 34 18
f 16 33 34
f 17 20 35
f 17 35 36
f 17 36 37
f 17 37 21
f 18 34 19
f 19 34 38
f 19 38 39
f 19 39 35
f 19 35 20
f 21 37 40
f 21 40 22
f 22 40 23
f 23 41 42
f 23 42 43
f 23 43 44
f 23 44 24
f 23 40 41
f 24 44 45
f 24 45 25
f 25 45 46
f 25 46 47
f 25 47 26
f 27 48 70
f 27 70 87
f 27 87 115
f 27 115 145
f 27 145 166
f 27 166 156
f 27 156 155
f 27 155 154
f 27 154 153
f 27 153 146
f 27 146 116
f 27 116 88
f 27 88 74
f 27 74 52
f 27 52 51
f 27 51 50
f 27 50 31
f 27 31 30
f 27 30 29
f 28 47 49
f 28 49 48
f 31 50 33
f 31 33 32
f 33 38 34
f 33 50 51
f 33 51 52
f 33 52 53
f 33 53 38
f 35 54 56
f 35 56 36
f 35 39 59
f 35 59 54
f 36 55 37
f 36 56 79
f 36 79 57
f 36 57 55
f 37 55 40
f 38 53 75
f 38 75 58
f 38 58 39
f 39 58 81
f 39 81 59
f 40 57 60
f 40 60 41
f 40 55 57
f 41 60 42
f 42 61 62
f 42 62 63
f 42 63 44
f 42 44 43
f 42 60 61
f 44 63 64
f 44 64 45
f 45 64 65
f 45 65 66
f 45 66 67
f 45 67 46
f 46 67 68
f 46 68 47
f 47 68 69
f 47 69 49
f 48 49 69
f 48 69 68
f 48 68 67
f 48 67 66
f 48 66 71
f 48 71 72
f 48 72 73
f 48 73 70
f 52 74 53
f 53 74 89
f 53 89 75
f 54 76 56
f 54 59 77
f 54 77 78
f 54 78 76
f 56 76 94
f 56 94 79
f 57 79 98
f 57 98 80
f 57 80 60
f 58 75 90
f 58 90 81
f 59 81 82
f 59 82 77
f 60 80 61
f 61 83 103
f 61 103 84
f 61 84 62
f 61 80 98
f 61 98 83
f 62 84 104
f 62 104 85
f 62 85 64
f 62 64 63
f 64 71 66
f 64 66 65
f 64 85 73
f 64 73 72
f 64 72 71
f 70 73 86
f 70 86 106
f 70 106 87
f 73 85 104
f 73 104 105
f 73 105 86
f 74 88 119
f 74 119 89
f 75 89 119
f 75 119 90
f 76 78 91
f 76 91 92
f 76 92 93
f 76 93 94
f 77 82 95
f 77 95 96
f 77 96 91
f 77 91 78
f 79 94 97
f 79 97 98
f 81 90 99
f 81 99 82
f 82 99 100
f 82 100 95
f 83 98 97
f 83 97 101
f 83 101 102
f 83 102 103
f 84 103 134
f 84 134 104
f 86 105 135
f 86 135 106
f 87 106 107
f 87 107 108
f 87 108 109
f 87 109 110
f 87 110 111
f 87 111 112
f 87 112 113
f 87 113 114
f 87 114 144
f 87 144 115
f 88 116 117
f 88 117 118
f 88 118 90
f 88 90 119
f 90 118 117
f 90 117 99
f 91 120 92
f 91 96 121
f 91 121 122
f 91 122 120
f 92 120 150
f 92 150 123
f 92 123 93
f 93 123 94
f 94 123 124
f 94 124 125
f 94 125 97
f 95 121 96
f 95 100 121
f 97 125 101
f 99 117 126
f 99 126 100
f 100 126 127
f 100 127 128
f 100 128 129
f 100 129 121
f 101 125 124
f 101 124 130
f 101 130 131
f 101 131 102
f 102 131 132
f 102 132 133
f 102 133 134
f 102 134 103
f 104 134 135
f 104 135 105
f 106 135 136
f 106 136 137
f 106 137 107
f 107 138 108
f 107 137 138
f 108 138 139
f 108 139 109
f 109 140 110
f 109 139 140
f 110 141 142
f 110 142 111
f 110 140 141
f 111 142 114
f 111 114 112
f 112 114 113
f 114 142 141
f 114 141 143
f 114 143 163
f 114 163 144
f 115 144 145
f 116 146 117
f 117 146 126
f 120 122 147
f 120 147 148
f 120 148 149
f 120 149 168
f 120 168 150
f 121 129 122
f 122 129 147
f 123 150 124
f 124 150 151
f 124 151 152
f 124 152 130
f 126 146 153
f 126 153 154
f 126 154 127
f 127 154 155
f 127 155 156
f 127 156 157
f 127 157 128
f 128 157 129
f 129 157 158
f 129 158 147
f 130 152 131
f 131 152 132
f 132 152 159
f 132 159 160
f 132 160 139
f 132 139 138
f 132 138 133
f 133 138 137
f 133 137 136
f 133 136 134
f 134 136 135
f 139 160 140
f 140 160 159
f 140 159 161
f 140 161 141
f 141 161 162
f 141 162 143
f 143 162 167
f 143 167 163
f 144 163 145
f 145 164 165
f 145 165 166
f 145 163 164
f 147 158 167
f 147 167 148
f 148 167 149
f 149 167 162
f 149 162 168
f 150 168 169
f 150 169 151
f 151 169 159
f 151 159 152
f 156 166 157
f 157 166 165
f 157 165 164
f 157 164 158
f 158 164 167
f 159 169 161
f 161 169 162
f 162 169 168
f 163 167 164

