# https://github.com/mikedh/trimesh
v 13.50106519 -30.49038670 7.36819876
v 13.49152248 -31.08476755 7.36718846
v 13.50106519 -30.49978933 7.36819876
v 13.50106519 -25.74943934 7.36794693
v 13.49152248 -25.74943934 7.36693514
v 12.88799678 -29.49957809 7.16162682
v 12.88799678 -31.08476755 7.16162682
v 13.49716556 -31.08476755 7.36769361
v 13.50106519 -31.08476755 5.37048828
v 13.50106519 -25.74943934 4.78541023
v 12.88808023 -25.74943934 7.16137350
v 12.82949479 -25.74943934 7.01244971
v 12.65340766 -25.74943934 6.56390661
v 12.65340766 -31.08476755 6.56390661
v 13.50106519 -31.08476755 4.78541023
v 13.12258590 -25.74943934 5.20513000
v 12.67921500 -25.74943934 6.34949665
v 12.75696930 -31.08476755 5.70500018
v 13.41534621 -31.08476755 4.88047969
v 13.12258590 -27.50020167 5.20513000
v 12.84816595 -25.74943934 5.58034891
v 12.75696930 -28.49988839 5.70500018
v 12.75696930 -25.74943934 5.70525201
v 13.12266935 -31.08476755 5.20513000
f 1 2 3
f 1 3 9
f 1 9 15
f 1 15 10
f 1 10 4
f 1 4 5
f 1 5 2
f 2 6 7
f 2 7 14
f 2 14 18
f 2 18 24
f 2 24 19
f 2 19 15
f 2 15 9
f 2 9 8
f 2 8 3
f 2 5 6
f 3 8 9
f 4 10 16
f 4 16 21
f 4 21 23
f 4 23 17
f 4 17 13
f 4 13 12
f 4 12 11
f 4 11 5
f 5 11 6
f 6 11 12
f 6 12 13
f 6 13 14
f 6 14 7
f 10 15 20
f 10 20 16
f 13 17 14
f 14 17 18
f 15 19 20
f 16 20 18
f 16 18 22
f 16 22 21
f 17 23 22
f 17 22 18
f 18 20 24
f 19 24 20
f 21 22 23

