# https://github.com/mikedh/trimesh
v 13.47322087 -25.75117682 -14.43508312
v 13.47508202 -28.50079736 -14.43508312
v 13.47322087 -25.75117682 -15.43418870
v 13.47135822 -25.75117682 -14.18510705
v 13.47322087 -31.08540532 -15.43418870
v 13.46763591 -40.49803640 -13.43518778
v 13.46763591 -43.49430409 -13.43518778
v 13.47322087 -37.50002826 -14.43586990
v 13.47135822 -43.49430409 -15.43970809
v 13.23120798 -25.75117682 -16.21249768
v 13.46205095 -28.50079736 -13.43597755
v 13.46018830 -25.75117682 -13.43597755
v 13.23120798 -42.49902215 -16.21249768
v 13.31684352 -41.49853077 -12.43687197
v 13.47135822 -43.49430409 -14.43586990
v 13.31684352 -43.49430409 -12.43687197
v 13.22562302 -43.49430409 -16.21407422
v 12.48842041 -34.84246715 -16.52003399
v 12.48842041 -25.75117682 -16.51924721
v 13.41923393 -25.75117682 -13.18521469
v 13.31498236 -39.49927951 -12.43687197
v 12.48842041 -43.49430409 -16.52003399
v 13.07855443 -38.49878515 -11.80129236
v 13.08041708 -41.49853077 -11.80050260
v 13.08041708 -43.49430409 -11.80681175
v 11.48872475 -25.75117682 -16.55000024
v 13.29450517 -25.75117682 -12.43765875
v 13.29636484 -26.50154611 -12.43765875
v 13.30194980 -29.50129173 -12.43765875
v 13.07110981 -28.50079736 -11.80759854
v 11.48872475 -43.49430409 -16.55000024
v 13.07669477 -36.49953687 -11.80207914
v 12.61873413 -40.49803640 -11.30055642
v 12.61873413 -41.49853077 -11.30055642
v 13.07855443 -42.49902215 -11.80129236
v 12.61687148 -42.49902215 -11.30134320
v 12.61501032 -43.49430409 -11.30370951
v -2.50512655 -25.75117682 -16.55000024
v 13.06738452 -25.75117682 -11.80996484
v 12.61314917 -35.49904251 -11.30292272
v 12.61687148 -38.49878515 -11.30134320
v 6.48281075 -43.49430409 -16.55000024
v 12.11795646 -39.49927951 -10.85975000
v 12.11795646 -40.49803640 -10.85896322
v 12.11795646 -41.49853077 -10.85896322
v 12.11609382 -42.49902215 -10.85896322
v 12.11795646 -43.49430409 -10.86290309
v -2.50698845 -35.49904251 -16.55000024
v -4.50823721 -37.50002826 -16.54921048
v -5.54144039 -37.50002826 -16.54842370
v -5.54144039 -36.49953687 -16.53501860
v -3.11387884 -25.75117682 -16.31816485
v 12.59639429 -25.75117682 -11.31080544
v 12.47352669 -25.75117682 -11.20198518
v 12.44001694 -34.84246715 -11.15230766
v -1.51287924 -43.49430409 -16.54921048
v 12.11423266 -36.49953687 -10.86290309
v 12.11609382 -38.49878515 -10.86053977
v 11.48872475 -31.08540532 -10.66418705
v 11.48872475 -38.49878515 -10.65551457
v 11.48872475 -40.49803640 -10.65393504
v 11.48872475 -41.49853077 -10.65393504
v 11.48872475 -42.49902215 -10.65472480
v 11.48872475 -43.49430409 -10.65551457
v -3.50668188 -40.49803640 -16.54921048
v -4.50823721 -38.49878515 -16.54921048
v -5.54144039 -38.49878515 -16.54842370
v -5.54144039 -36.47174321 -16.52476660
v -3.31307247 -25.75117682 -16.24167417
v 12.09747778 -25.75117682 -10.87709795
v 12.09933894 -26.50154611 -10.87552140
v 12.10678654 -31.08540532 -10.86921225
v -2.50698845 -43.49430409 -16.53501860
v -5.54144039 -40.49803640 -16.54763393
v 12.11237150 -35.49904251 -10.86369285
v 11.48872475 -26.50154611 -10.67207275
v 1.37450485 -31.08540532 -8.49564658
v 1.37264295 -32.60351567 -8.49407003
v 1.37264295 -34.84246715 -8.49407003
v 10.48903207 -43.49430409 -10.52697707
v -5.54144039 -35.71963645 -16.22905586
v -3.54391469 -25.75117682 -15.63684759
v 11.94668539 -25.75117682 -10.82584090
v -2.51257267 -43.49430409 -16.53344206
v -5.54144039 -41.49853077 -16.36153322
v 11.48872475 -25.75117682 -10.67364929
v 1.42849179 -25.75117682 -8.80476241
v -3.62024146 -31.08540532 -8.49564658
v -3.62210262 -32.60351567 -8.49407003
v 2.12846383 -43.49430409 -10.19657045
v -4.14708202 -34.84246715 -8.49407003
v -5.54144039 -35.44172069 -15.43576524
v -3.62024146 -25.75117682 -15.43418870
v -3.30376445 -43.49430409 -16.22826610
v -5.54144039 -42.12036256 -16.05557345
v -3.78406418 -25.75117682 -8.80476241
v -3.63513444 -43.49430409 -10.19657045
v -5.54144039 -35.43998619 -10.19657045
v -5.54144039 -42.47123147 -10.19657045
v -5.54144039 -35.43998619 -14.43586990
v -3.61651766 -43.49430409 -15.43576524
v -5.54144039 -42.35485333 -15.43576524
v -3.63513444 -43.49430409 -14.43586990
v -5.54144039 -42.47123147 -11.47167252
v -5.54144039 -42.46949400 -14.43586990
f 1 2 3
f 1 3 10
f 1 10 19
f 1 19 26
f 1 26 38
f 1 38 52
f 1 52 69
f 1 69 82
f 1 82 93
f 1 93 96
f 1 96 87
f 1 87 86
f 1 86 83
f 1 83 70
f 1 70 54
f 1 54 53
f 1 53 39
f 1 39 27
f 1 27 20
f 1 20 12
f 1 12 4
f 1 4 2
f 2 5 3
f 2 4 6
f 2 6 7
f 2 7 8
f 2 8 9
f 2 9 5
f 3 5 13
f 3 13 10
f 4 11 6
f 4 12 11
f 5 9 13
f 6 11 14
f 6 14 16
f 6 16 7
f 7 15 8
f 7 16 25
f 7 25 37
f 7 37 47
f 7 47 64
f 7 64 80
f 7 80 90
f 7 90 97
f 7 97 103
f 7 103 101
f 7 101 94
f 7 94 84
f 7 84 73
f 7 73 56
f 7 56 42
f 7 42 31
f 7 31 22
f 7 22 17
f 7 17 9
f 7 9 15
f 8 15 9
f 9 17 13
f 10 13 22
f 10 22 18
f 10 18 19
f 11 12 14
f 12 20 21
f 12 21 14
f 13 17 22
f 14 21 23
f 14 23 24
f 14 24 16
f 16 24 25
f 18 22 31
f 18 31 26
f 18 26 19
f 20 27 28
f 20 28 29
f 20 29 21
f 21 29 30
f 21 30 23
f 23 30 32
f 23 32 41
f 23 41 33
f 23 33 24
f 24 33 34
f 24 34 36
f 24 36 35
f 24 35 25
f 25 35 36
f 25 36 37
f 26 31 42
f 26 42 48
f 26 48 38
f 27 39 28
f 28 39 29
f 29 39 30
f 30 39 40
f 30 40 41
f 30 41 32
f 33 41 43
f 33 43 44
f 33 44 45
f 33 45 34
f 34 45 46
f 34 46 47
f 34 47 36
f 36 47 37
f 38 48 49
f 38 49 50
f 38 50 51
f 38 51 52
f 39 53 40
f 40 53 54
f 40 54 55
f 40 55 43
f 40 43 41
f 42 56 48
f 43 55 57
f 43 57 75
f 43 75 58
f 43 58 59
f 43 59 60
f 43 60 44
f 44 60 61
f 44 61 62
f 44 62 45
f 45 62 46
f 46 62 63
f 46 63 64
f 46 64 47
f 48 65 66
f 48 66 49
f 48 56 65
f 49 66 67
f 49 67 50
f 50 67 74
f 50 74 85
f 50 85 95
f 50 95 102
f 50 102 105
f 50 105 104
f 50 104 99
f 50 99 98
f 50 98 100
f 50 100 92
f 50 92 81
f 50 81 68
f 50 68 51
f 51 68 69
f 51 69 52
f 54 57 55
f 54 70 71
f 54 71 72
f 54 72 57
f 56 73 74
f 56 74 65
f 57 72 75
f 58 75 59
f 59 76 77
f 59 77 60
f 59 75 72
f 59 72 76
f 60 77 61
f 61 77 78
f 61 78 79
f 61 79 62
f 62 79 63
f 63 79 64
f 64 79 80
f 65 74 67
f 65 67 66
f 68 81 69
f 69 81 82
f 70 83 71
f 71 83 72
f 72 83 76
f 73 84 85
f 73 85 74
f 76 83 86
f 76 86 77
f 77 86 87
f 77 87 96
f 77 96 88
f 77 88 89
f 77 89 78
f 78 89 91
f 78 91 79
f 79 90 80
f 79 91 97
f 79 97 90
f 81 92 93
f 81 93 82
f 84 94 95
f 84 95 85
f 88 96 91
f 88 91 89
f 91 96 98
f 91 98 99
f 91 99 97
f 92 100 96
f 92 96 93
f 94 101 102
f 94 102 95
f 96 100 98
f 97 99 104
f 97 104 103
f 101 103 105
f 101 105 102
f 103 104 105

