# https://github.com/mikedh/trimesh
v -2.52153274 37.50027903 34.56472522
v -2.52153274 36.50066979 34.56472522
v -2.52153274 37.50027903 19.64824413
v -2.52373141 38.50063928 48.56246871
v -2.76556920 35.74156842 40.56261160
v -2.54132000 36.43603447 19.64824413
v -2.52153274 36.50066979 19.64824413
v -2.52373141 37.50027903 47.56348830
v -2.52373141 36.50066979 46.56049799
v -2.76776787 35.74231944 57.56130323
v -2.52373141 38.50063928 19.64824413
v -2.52593007 39.49949452 57.56130323
v -2.52593007 36.50066979 57.56130323
v -2.76556920 35.74081740 35.56771702
v -2.76556920 35.74006638 22.56494106
v -2.76556920 35.74006638 19.64824413
v -2.83812076 35.81146683 58.56028364
v -3.50867119 35.53638527 58.56028364
v -3.50867119 35.46724086 57.56130323
v -2.52593007 39.41531781 19.64824413
v -2.52593007 39.49949452 22.56494106
v -2.65564327 40.49985477 57.56130323
v -2.71060624 40.49985477 58.56028364
v -2.62926075 39.49949452 58.56028364
v -2.65344460 40.49985477 31.56778847
v -2.63365808 38.50063928 58.56028364
v -2.64465068 37.50027903 58.56028364
v -2.66003986 36.50066979 58.56028364
v -3.50867119 35.46648984 48.56246871
v -3.50867119 35.46498482 21.56596214
v -3.50867119 35.46498482 19.64824413
v -2.94145144 35.92044505 59.15004215
v -3.52186245 35.75660072 59.51512976
v -4.50900015 35.48076814 59.56327246
v -4.50900015 35.45070652 58.56028364
v -2.52812874 39.49949452 19.64824413
v -2.65784119 40.49985477 21.56596214
v -2.65564327 40.49985477 26.56486961
v -2.89528240 41.16801430 41.56159052
v -2.89528240 41.16726328 43.56356124
v -2.89748107 41.16350521 57.56130323
v -2.89967973 41.16275419 58.56028364
v -2.89528240 41.17027034 32.56676739
v -2.89528240 41.16951634 35.56771702
v -2.93925277 41.10788808 59.18615067
v -2.88648847 40.49985477 59.26237611
v -2.87109854 39.49949452 59.27842467
v -2.89528240 41.16876532 28.56683958
v -2.89528240 41.17027034 30.56479741
v -2.87549588 38.50063928 59.26237611
v -2.88648847 37.50027903 59.23830476
v -2.90187766 36.50066979 59.21021904
v -4.42545674 35.45145754 19.64824413
v -3.28002465 36.50066979 59.71171494
v -3.86263358 35.85731177 60.20518805
v -4.50900015 35.75584970 60.30548485
v -5.50932986 35.72503408 60.33758197
v -5.50932986 35.45070652 59.56327246
v -4.50900015 35.45070652 19.64824413
v -2.66003986 40.49985477 19.64824413
v -2.89967973 41.16425623 19.64824413
v -2.89748107 41.16651226 23.56793286
v -3.32399502 41.66631539 47.56348830
v -3.32399502 41.66857143 39.56764408
v -3.32399502 41.66556437 49.56144613
v -3.32619369 41.66330833 57.56130323
v -3.32619369 41.66255732 58.56028364
v -3.88681743 42.08344385 59.28644746
v -3.54384763 41.50021503 59.56728684
v -3.86922958 41.22588747 60.16506814
v -3.28661991 40.49985477 59.76387202
v -3.27342865 39.49949452 59.77992058
v -3.27122998 38.50063928 59.76387202
v -3.32839161 41.66481335 20.56698322
v -3.32619369 41.66781743 26.56486961
v -3.32619369 41.67007347 29.56581850
v -3.32399502 41.66857143 37.56567485
v -3.27122998 37.50027903 59.73980066
v -3.77908943 36.50066979 60.27740210
v -4.50900015 36.50066979 60.55422710
v -5.50932986 36.50066979 60.61842134
v -7.50998815 35.72503408 60.34159336
v -24.97727725 35.59576047 59.97650575
v -24.97727725 35.45070652 59.56327246
v -24.97727725 35.45070652 19.64824413
v -3.33059028 41.66405935 19.64824413
v -3.82525847 42.12628471 56.56232283
v -3.82525847 42.12703573 46.56049799
v -3.82525847 42.12553369 58.56028364
v -4.50900015 42.36303450 58.56028364
v -9.57660275 43.12814700 60.21321084
v -4.54197793 42.15935637 59.59536958
v -4.22978798 41.89254198 59.95243440
v -4.54197793 41.53553974 60.24931936
v -4.50900015 40.49985477 60.49003882
v -3.78568543 40.49985477 60.22524503
v -3.77249417 39.49949452 60.24129657
v -3.77029550 38.50063928 60.25734215
v -3.77029550 37.50027903 60.26937931
v -3.82965580 42.12553369 19.64824413
v -3.82525847 42.12628471 29.56581850
v -3.82525847 42.12703573 33.56574630
v -3.82745713 42.12628471 23.56793286
v -4.50900015 37.50027903 60.54620431
v -5.50932986 40.49985477 60.59835840
v -5.50932986 39.49949452 60.60638417
v -5.50932986 37.50027903 60.61842134
v -6.50965882 37.50027903 60.62243274
v -9.50844853 37.50027903 60.62644413
v -8.51031749 36.50066979 60.62243274
v -17.50668587 36.50066979 60.62644413
v -24.97727725 36.13540039 60.49405021
v -24.97727725 35.72503408 60.34159336
v -24.97727725 43.12814700 19.64824413
v -4.50900015 42.36378552 54.56035360
v -4.50900015 42.36453952 40.56261160
v -9.10172109 43.12814700 56.56232283
v -9.10391976 43.12814700 57.56130323
v -9.11711065 43.12814700 58.56028364
v -9.11930931 43.12814700 58.58034062
v -9.27760333 43.12814700 59.56327246
v -4.89594107 42.02331763 60.09285111
v -10.50877786 43.12814700 60.49003882
v -10.88252715 43.12814700 60.55823849
v -5.50932986 41.49946401 60.38171327
v -4.50900015 38.50063928 60.53015575
v -4.50900015 42.36303450 19.64824413
v -4.50900015 42.36378552 24.56691177
v -4.50900015 42.36453952 38.56465377
v -7.50998815 40.49985477 60.61440995
v -11.50910720 43.12814700 60.62243274
v -11.88065819 43.12814700 60.62644413
v -6.50965882 39.49949452 60.61440995
v -8.51031749 39.49949452 60.62644413
v -8.51031749 38.50063928 60.62644413
v -11.50910720 39.49949452 60.63045553
v -16.50635691 37.50027903 60.63045553
v -24.97727725 37.50027903 60.63446692
v -24.97727725 36.50066979 60.62644413
v -24.97727725 43.12814700 60.63045553
v -9.10172109 43.12814700 19.64824413
v -12.50943616 43.12814700 60.63045553
v -11.50910720 40.49985477 60.63045553
f 1 2 7
f 1 7 3
f 1 3 11
f 1 11 4
f 1 4 2
f 2 5 6
f 2 6 7
f 2 4 8
f 2 8 9
f 2 9 10
f 2 10 5
f 3 7 6
f 3 6 16
f 3 16 31
f 3 31 53
f 3 53 59
f 3 59 85
f 3 85 114
f 3 114 141
f 3 141 127
f 3 127 100
f 3 100 86
f 3 86 61
f 3 61 60
f 3 60 36
f 3 36 20
f 3 20 11
f 4 12 13
f 4 13 8
f 4 11 21
f 4 21 12
f 5 14 6
f 5 10 14
f 6 15 16
f 6 14 15
f 8 13 9
f 9 13 10
f 10 13 17
f 10 17 18
f 10 18 19
f 10 19 14
f 11 20 21
f 12 22 23
f 12 23 24
f 12 24 13
f 12 21 25
f 12 25 22
f 13 24 26
f 13 26 27
f 13 27 28
f 13 28 17
f 14 19 29
f 14 29 15
f 15 30 31
f 15 31 16
f 15 29 30
f 17 28 32
f 17 32 33
f 17 33 18
f 18 33 34
f 18 34 19
f 19 34 35
f 19 35 29
f 20 36 21
f 21 36 37
f 21 37 38
f 21 38 25
f 22 39 40
f 22 40 41
f 22 41 42
f 22 42 23
f 22 25 43
f 22 43 44
f 22 44 39
f 23 42 45
f 23 45 46
f 23 46 24
f 24 46 47
f 24 47 26
f 25 38 48
f 25 48 49
f 25 49 43
f 26 47 50
f 26 50 27
f 27 50 28
f 28 50 51
f 28 51 52
f 28 52 32
f 29 35 30
f 30 53 31
f 30 35 53
f 32 52 54
f 32 54 55
f 32 55 33
f 33 55 34
f 34 55 56
f 34 56 57
f 34 57 58
f 34 58 35
f 35 58 84
f 35 84 85
f 35 85 59
f 35 59 53
f 36 60 37
f 37 60 61
f 37 61 62
f 37 62 48
f 37 48 38
f 39 63 40
f 39 44 64
f 39 64 63
f 40 63 65
f 40 65 41
f 41 66 67
f 41 67 42
f 41 65 66
f 42 67 45
f 43 49 77
f 43 77 64
f 43 64 44
f 45 68 69
f 45 69 70
f 45 70 71
f 45 71 46
f 45 67 68
f 46 71 47
f 47 71 72
f 47 72 73
f 47 73 50
f 48 62 74
f 48 74 75
f 48 75 49
f 49 76 77
f 49 75 76
f 50 73 78
f 50 78 51
f 51 78 54
f 51 54 52
f 54 78 79
f 54 79 55
f 55 79 80
f 55 80 56
f 56 80 81
f 56 81 57
f 57 81 82
f 57 82 58
f 58 82 83
f 58 83 84
f 61 86 74
f 61 74 62
f 63 87 89
f 63 89 65
f 63 64 87
f 64 77 102
f 64 102 88
f 64 88 87
f 65 89 66
f 66 89 67
f 67 89 68
f 68 89 90
f 68 90 91
f 68 91 92
f 68 92 93
f 68 93 69
f 69 93 70
f 70 94 95
f 70 95 96
f 70 96 71
f 70 93 94
f 71 96 97
f 71 97 72
f 72 97 98
f 72 98 99
f 72 99 79
f 72 79 73
f 73 79 78
f 74 86 100
f 74 100 75
f 75 100 76
f 76 101 102
f 76 102 77
f 76 100 103
f 76 103 101
f 79 99 80
f 80 104 105
f 80 105 106
f 80 106 107
f 80 107 81
f 80 99 104
f 81 107 108
f 81 108 109
f 81 109 110
f 81 110 82
f 82 110 111
f 82 111 112
f 82 112 113
f 82 113 83
f 83 113 112
f 83 112 139
f 83 139 138
f 83 138 140
f 83 140 114
f 83 114 85
f 83 85 84
f 87 88 115
f 87 115 90
f 87 90 89
f 88 102 129
f 88 129 116
f 88 116 115
f 90 117 118
f 90 118 119
f 90 119 120
f 90 120 121
f 90 121 91
f 90 115 117
f 91 122 92
f 91 121 120
f 91 120 119
f 91 119 118
f 91 118 117
f 91 117 141
f 91 141 114
f 91 114 140
f 91 140 142
f 91 142 132
f 91 132 131
f 91 131 124
f 91 124 123
f 91 123 122
f 92 122 93
f 93 122 94
f 94 122 124
f 94 124 125
f 94 125 95
f 95 125 105
f 95 105 126
f 95 126 97
f 95 97 96
f 97 126 98
f 98 126 104
f 98 104 99
f 100 127 103
f 101 103 102
f 102 103 128
f 102 128 129
f 103 127 128
f 104 126 105
f 105 130 133
f 105 133 106
f 105 125 131
f 105 131 132
f 105 132 130
f 106 133 107
f 107 133 134
f 107 134 108
f 108 134 135
f 108 135 109
f 109 135 136
f 109 136 137
f 109 137 110
f 110 137 138
f 110 138 111
f 111 139 112
f 111 138 139
f 115 116 117
f 116 129 141
f 116 141 117
f 122 123 124
f 124 131 125
f 127 141 128
f 128 141 129
f 130 132 133
f 132 142 133
f 133 142 134
f 134 142 143
f 134 143 136
f 134 136 135
f 136 143 138
f 136 138 137
f 138 143 142
f 138 142 140

