# https://github.com/mikedh/trimesh
v -3.82795984 34.35513990 -13.47135717
v -3.82795984 34.35513990 -10.56067475
v -9.69073397 35.45133707 -10.56067475
v -9.69016009 35.45133707 -15.45406792
v -3.82795984 34.35632603 -14.45434106
v -3.82795984 42.81151810 -10.56067475
v -3.90026899 34.46428516 -8.02309431
v -9.69016009 35.45133707 7.88641110
v -9.69073397 35.45133707 -1.07045788
v -9.69073397 46.47381362 -10.56067475
v -9.69016009 37.50255456 -16.54467715
v -9.69016009 36.67684678 -16.53989387
v -9.69016009 36.50126605 -16.53750372
v -9.69016009 35.86181720 -16.29355036
v -9.69016009 35.72538488 -16.24093425
v -3.82795984 34.41801696 -15.45406792
v -3.90026899 42.77830037 -8.02309431
v -3.82795984 42.81151810 -13.45461718
v -7.87325107 46.13451350 7.88641110
v -5.10886342 35.33744727 7.88641110
v -9.69016009 46.47381362 7.88641110
v -9.69073397 46.47381362 -1.07045788
v -9.69016009 46.47499975 -14.45434106
v -9.69016009 46.33263675 -15.27947365
v -9.69016009 46.30179129 -15.45406792
v -9.69016009 46.06451962 -16.02328746
v -9.69016009 45.49981217 -16.30551006
v -9.69016009 44.49970979 -16.42987540
v -9.69016009 40.49574189 -16.53271746
v -9.69016009 39.67952618 -16.54467715
v -3.82795984 36.50126605 -16.54467715
v -3.82795984 35.81436287 -16.46096822
v -3.82795984 34.87357915 -16.20744830
v -3.82795984 34.79290709 -16.08308296
v -3.82795984 34.43343970 -15.49233418
v -5.10886342 42.50306345 7.88641110
v -7.87267719 46.13214123 -10.56067475
v -7.87325107 46.13332736 -8.02309431
v -7.87325107 46.13451350 -1.07045788
v -3.82795984 42.80914583 -14.45434106
v -7.87267719 46.13095509 -14.45434106
v -8.12174175 46.22704989 -1.07045788
v -8.51427675 46.37178516 7.88641110
v -9.51397846 46.47381362 7.88641110
v -9.69016009 46.47499975 -10.56067475
v -9.51397846 46.47499975 -14.45434106
v -9.51397846 46.30179129 -15.45406792
v -9.51397846 46.06451962 -16.02328746
v -9.51397846 45.49981217 -16.30311692
v -7.51400119 40.49574189 -16.54467715
v -3.82795984 40.49574189 -16.54467715
v -8.15158362 46.23772809 -8.02309431
v -3.82795984 42.70355897 -15.43493479
v -8.51370286 46.36941289 -14.45434106
v -7.91973543 46.08587303 -15.17424144
v -8.51427675 46.37178516 -1.07045788
v -8.90279457 46.41212269 -1.07045788
v -9.51397846 46.47499975 -10.56067475
v -8.51427675 46.37059903 -8.02309431
v -8.51886780 46.17485102 -15.48755090
v -8.85573623 46.04316622 -15.99937403
v -3.82795984 42.34053318 -16.15483219
v -3.82795984 41.49584427 -16.39639242
v -3.82795984 42.70118671 -15.45406792
v -8.18888586 45.76318476 -15.84391288
f 1 2 9
f 1 9 3
f 1 3 4
f 1 4 5
f 1 5 16
f 1 16 35
f 1 35 34
f 1 34 33
f 1 33 32
f 1 32 31
f 1 31 51
f 1 51 63
f 1 63 62
f 1 62 64
f 1 64 53
f 1 53 40
f 1 40 18
f 1 18 6
f 1 6 2
f 2 6 17
f 2 17 7
f 2 7 8
f 2 8 9
f 3 9 22
f 3 22 10
f 3 10 30
f 3 30 11
f 3 11 12
f 3 12 13
f 3 13 14
f 3 14 15
f 3 15 4
f 4 15 16
f 4 16 5
f 6 18 39
f 6 39 19
f 6 19 17
f 7 17 36
f 7 36 20
f 7 20 8
f 8 20 36
f 8 36 19
f 8 19 43
f 8 43 44
f 8 44 21
f 8 21 22
f 8 22 9
f 10 22 45
f 10 45 23
f 10 23 24
f 10 24 25
f 10 25 26
f 10 26 27
f 10 27 28
f 10 28 29
f 10 29 30
f 11 31 12
f 11 30 50
f 11 50 51
f 11 51 31
f 12 31 13
f 13 31 32
f 13 32 33
f 13 33 14
f 14 33 15
f 15 33 34
f 15 34 35
f 15 35 16
f 17 19 36
f 18 37 38
f 18 38 39
f 18 40 41
f 18 41 37
f 19 39 42
f 19 42 43
f 21 44 58
f 21 58 45
f 21 45 22
f 23 45 58
f 23 58 46
f 23 46 24
f 24 47 25
f 24 46 47
f 25 47 48
f 25 48 26
f 26 48 27
f 27 49 28
f 27 48 49
f 28 50 29
f 28 49 51
f 28 51 50
f 29 50 30
f 37 41 38
f 38 41 52
f 38 52 39
f 39 52 42
f 40 53 41
f 41 54 52
f 41 53 55
f 41 55 54
f 42 56 43
f 42 52 56
f 43 56 57
f 43 57 44
f 44 57 58
f 46 58 57
f 46 57 56
f 46 56 59
f 46 59 54
f 46 54 47
f 47 54 60
f 47 60 61
f 47 61 48
f 48 61 49
f 49 61 62
f 49 62 63
f 49 63 51
f 52 54 56
f 53 64 55
f 54 55 60
f 54 59 56
f 55 64 62
f 55 62 65
f 55 65 61
f 55 61 60
f 61 65 62

