# https://github.com/mikedh/trimesh
v -24.50781738 -4.28090853 -10.54999938
v -24.72572017 -4.28090853 -10.54380347
v -24.50781738 7.50002439 -10.54999938
v -6.50917826 -4.28090853 -10.54999938
v -25.50787067 -4.28090853 -10.52108515
v -25.50787067 7.50002439 -10.52108515
v -25.50787067 8.49875892 -10.38063864
v -24.50781738 8.49875892 -10.40335696
v -7.50923006 7.50002439 -10.54999938
v -5.66280371 -0.49871774 -10.54999938
v -5.66280371 -4.28090853 -10.54793408
v -25.67760394 -4.28090853 -10.45499250
v -26.28772639 7.50002439 -10.21540553
v -26.22121055 8.49875892 -10.14724757
v -25.50787067 9.16211953 -10.08735083
v -26.10652518 9.10302298 -10.03158767
v -24.50781738 9.16950678 -10.09561502
v -7.50923006 8.49875892 -10.40335696
v -5.66280371 7.50002439 -10.54793408
v -6.50917826 6.49981165 -10.54999938
v -5.66280371 2.65556997 -10.54999938
v -5.66280371 -4.28090853 10.55000091
v -26.28772639 -4.28090853 -10.21540553
v -26.58361445 7.50002439 -9.43469150
v -26.52168370 8.49875892 -9.43469150
v -29.02410873 0.50149425 -3.96347654
v -29.01493259 1.02745508 -3.94901943
v -25.50787067 9.66296425 -9.47599754
v -26.02395184 10.01015779 -8.95552053
v -26.19827317 9.46203538 -9.34794285
v -24.50781738 9.67035150 -9.48425875
v -6.50917826 9.16950678 -10.09561502
v -6.50917826 8.49875892 -10.40129166
v -5.66280371 7.65367557 -10.52521575
v -24.50781738 -4.28090853 10.55000091
v -5.66280371 5.49959966 10.55000091
v -26.59508239 -4.28090853 -9.43469150
v -29.01263930 -1.04240779 -3.94075822
v -29.02181395 -0.49871774 -3.95728362
v -26.20056646 10.81239581 -7.03883964
v -26.14322378 10.81239581 -7.37343349
v -28.99658329 2.95105365 -2.89154150
v -29.04704461 0.50149425 -3.43473832
v -29.03328189 1.41749358 -3.37277628
v -29.02869531 2.28473796 -2.99687638
v -25.50787067 10.02197665 -8.97617355
v -25.64549192 10.81239581 -7.53659833
v -25.50787067 10.81239581 -7.57790735
v -24.50781738 10.02640900 -8.98443476
v -7.50923006 9.67035150 -9.48425875
v -5.66280371 9.66887405 -9.48425875
v -5.66280371 9.24633275 -9.99853986
v -5.66280371 9.16802933 -10.09354972
v -5.66280371 8.49875892 -10.39922636
v -24.50781738 7.50002439 10.55000091
v -25.28767608 -4.28090853 10.53141245
v -5.66280371 7.50002439 10.54793561
v -6.50917826 6.49981165 10.55000091
v -28.43692216 -4.28090853 0.51221657
v -28.60436065 -4.22772104 0.50395536
v -29.01952066 -4.02088311 0.79724019
v -29.00116987 -3.93519244 0.13012076
v -29.01722737 -3.03248998 -2.05712514
v -28.96905934 -2.79905794 -2.72424606
v -29.01722737 -2.13274243 -3.02579359
v -29.03557667 -2.47993560 -2.40824141
v -29.06768869 -1.49893010 -2.43509183
v -29.04245803 -0.49871774 -3.43473832
v -29.03098860 3.11356954 -2.22442207
v -26.26937709 10.81239581 -6.43574756
v -29.04475132 2.57135712 -2.50944569
v -29.08833128 -1.49893010 -1.43544385
v -29.06539391 0.50149425 -2.43509183
v -29.06310062 1.50022898 -2.43509183
v -24.69590144 10.81239581 -7.61508279
v -24.50781738 10.81239581 -7.62334698
v -23.69584964 10.81239581 -7.62540930
v -22.69350455 10.81239581 -7.62747758
v -21.50766347 10.81239581 -7.62953991
v -6.50917826 10.02640900 -8.98443476
v -5.66280371 10.02640900 -8.98236946
v -23.54446567 10.81239581 10.53141245
v -24.50781738 10.81239581 10.52728184
v -25.50787067 7.50002439 10.52521654
v -7.50923006 7.50002439 10.55000091
v -25.50787067 -4.28090853 10.52521654
v -5.66280371 10.81239581 10.51075868
v -21.50766347 10.81239581 10.53141245
v -26.56297186 -4.28090853 9.56274475
v -29.01952066 -4.02088311 1.11324484
v -29.06539391 -2.49914209 -1.43544385
v -29.06539391 2.50044096 -1.43544385
v -29.04016325 3.20369219 -1.43544385
v -29.01722737 4.01331709 0.76212856
v -29.00575794 3.97785939 0.09500914
v -26.27167187 10.81239581 -6.12180971
v -29.06539391 -2.49914209 -0.43579588
v -29.06080733 -2.49914209 1.56349859
v -29.06310062 -1.49893010 2.56314657
v -29.09521264 1.50022898 0.56385210
v -29.09291935 1.50022898 -0.43579588
v -29.08144992 0.50149425 -1.43544385
v -5.66280371 10.81239581 -7.62953991
v -25.37254122 10.81239581 10.25878138
v -26.17763058 8.49875892 10.21540855
v -26.25332257 7.50002439 10.28356576
v -26.25332257 -4.28090853 10.28356576
v -29.02181395 -1.03797544 4.08533686
v -29.02410873 -2.05000703 3.10427810
v -29.02181395 -3.05760591 2.11082751
v -29.03328189 -3.43434772 1.49327534
v -29.08144992 2.50044096 0.56385210
v -29.03557667 3.58634343 0.48123555
v -29.01722737 4.01331709 1.09465563
v -26.27625845 10.81239581 -5.43403428
v -29.03786996 -2.42970338 2.49085802
v -29.06539391 -0.49871774 2.56314657
v -29.03786996 -1.42210413 3.48844069
v -29.04933939 -0.49871774 3.56279455
v -29.07227527 2.50044096 1.56349859
v -29.06768869 1.50022898 2.56314657
v -25.69136666 10.81239581 9.96962716
v -26.48039852 8.49875892 9.56274475
v -26.55150243 7.50002439 9.56274475
v -29.02181395 -0.49871774 4.08327156
v -29.03557667 3.43121443 1.48088353
v -29.02640053 3.05299535 2.14180705
v -26.39094381 9.49897091 8.56309826
v -25.97349051 10.81239581 8.59820989
v -26.24873450 10.81239581 -0.12185653
v -26.25790915 10.81239581 -0.43579588
v -29.03786996 1.50022898 3.27157502
v -29.04475132 2.45464110 2.50944723
v -29.02869531 2.09119616 3.16830544
v -29.01034601 0.05383665 4.06674914
f 1 2 3
f 1 3 9
f 1 9 20
f 1 20 21
f 1 21 10
f 1 10 4
f 1 4 11
f 1 11 22
f 1 22 35
f 1 35 56
f 1 56 86
f 1 86 107
f 1 107 89
f 1 89 59
f 1 59 37
f 1 37 23
f 1 23 12
f 1 12 5
f 1 5 2
f 2 5 6
f 2 6 3
f 3 6 7
f 3 7 8
f 3 8 18
f 3 18 9
f 4 10 11
f 5 12 6
f 6 12 13
f 6 13 14
f 6 14 7
f 7 15 8
f 7 14 16
f 7 16 15
f 8 15 17
f 8 17 32
f 8 32 18
f 9 18 19
f 9 19 20
f 10 21 19
f 10 19 34
f 10 34 54
f 10 54 53
f 10 53 52
f 10 52 51
f 10 51 81
f 10 81 103
f 10 103 87
f 10 87 57
f 10 57 36
f 10 36 22
f 10 22 11
f 12 23 13
f 13 24 25
f 13 25 14
f 13 23 26
f 13 26 27
f 13 27 24
f 14 25 16
f 15 28 31
f 15 31 17
f 15 16 29
f 15 29 28
f 16 30 29
f 16 25 30
f 17 31 50
f 17 50 32
f 18 32 33
f 18 33 34
f 18 34 19
f 19 21 20
f 22 36 58
f 22 58 85
f 22 85 55
f 22 55 35
f 23 37 38
f 23 38 39
f 23 39 26
f 24 27 25
f 25 40 41
f 25 41 30
f 25 27 42
f 25 42 40
f 26 39 43
f 26 43 44
f 26 44 27
f 27 44 45
f 27 45 42
f 28 46 31
f 28 29 46
f 29 30 41
f 29 41 47
f 29 47 48
f 29 48 46
f 31 46 49
f 31 49 80
f 31 80 50
f 32 50 51
f 32 51 52
f 32 52 53
f 32 53 54
f 32 54 33
f 33 54 34
f 35 55 56
f 36 57 58
f 37 59 60
f 37 60 61
f 37 61 62
f 37 62 63
f 37 63 64
f 37 64 38
f 38 64 65
f 38 65 66
f 38 66 67
f 38 67 39
f 39 67 68
f 39 68 43
f 40 42 69
f 40 69 70
f 40 70 96
f 40 96 115
f 40 115 131
f 40 131 130
f 40 130 129
f 40 129 122
f 40 122 104
f 40 104 83
f 40 83 82
f 40 82 88
f 40 88 87
f 40 87 103
f 40 103 79
f 40 79 78
f 40 78 77
f 40 77 76
f 40 76 75
f 40 75 48
f 40 48 47
f 40 47 41
f 42 45 71
f 42 71 69
f 43 71 44
f 43 68 67
f 43 67 72
f 43 72 73
f 43 73 74
f 43 74 71
f 44 71 45
f 46 48 75
f 46 75 76
f 46 76 49
f 49 76 77
f 49 77 78
f 49 78 79
f 49 79 103
f 49 103 80
f 50 80 51
f 51 80 81
f 55 82 83
f 55 83 84
f 55 84 56
f 55 85 88
f 55 88 82
f 56 84 86
f 57 87 88
f 57 88 85
f 57 85 58
f 59 89 60
f 60 89 90
f 60 90 61
f 61 90 97
f 61 97 91
f 61 91 63
f 61 63 62
f 63 91 66
f 63 66 65
f 63 65 64
f 66 91 67
f 67 91 72
f 69 71 92
f 69 92 93
f 69 93 94
f 69 94 95
f 69 95 70
f 70 95 94
f 70 94 96
f 71 74 92
f 72 91 97
f 72 97 98
f 72 98 99
f 72 99 100
f 72 100 101
f 72 101 102
f 72 102 74
f 72 74 73
f 74 102 101
f 74 101 92
f 80 103 81
f 83 104 84
f 84 104 105
f 84 105 106
f 84 106 107
f 84 107 86
f 89 107 108
f 89 108 109
f 89 109 110
f 89 110 90
f 90 110 111
f 90 111 98
f 90 98 97
f 92 101 112
f 92 112 93
f 93 112 113
f 93 113 94
f 94 113 114
f 94 114 115
f 94 115 96
f 98 111 116
f 98 116 99
f 99 117 100
f 99 116 118
f 99 118 119
f 99 119 117
f 100 120 112
f 100 112 101
f 100 117 121
f 100 121 120
f 104 122 105
f 105 122 123
f 105 123 106
f 106 123 124
f 106 124 125
f 106 125 108
f 106 108 107
f 108 125 119
f 108 119 118
f 108 118 109
f 109 118 116
f 109 116 110
f 110 116 111
f 112 120 114
f 112 114 113
f 114 120 126
f 114 126 127
f 114 127 123
f 114 123 128
f 114 128 129
f 114 129 130
f 114 130 131
f 114 131 115
f 117 119 121
f 119 125 132
f 119 132 121
f 120 121 133
f 120 133 126
f 121 132 134
f 121 134 133
f 122 129 128
f 122 128 123
f 123 127 134
f 123 134 135
f 123 135 124
f 124 135 125
f 125 135 132
f 126 133 127
f 127 133 134
f 132 135 134

