# https://github.com/mikedh/trimesh
v -26.76039747 27.46249915 8.66760314
v -26.76039747 27.46114613 8.66760314
v -26.76039747 27.60286818 8.66612197
v -29.45122544 32.07204500 19.64824264
v -35.50823370 27.46114613 8.53436135
v -26.76039747 27.46114613 4.52376952
v -29.45334289 31.49974470 19.64824264
v -29.45546035 31.41534448 19.64824264
v -29.51050378 30.50002520 19.64824264
v -29.52108957 30.41562497 19.64824264
v -29.82912656 29.47638336 19.64824264
v -29.98790896 27.98741075 18.08190614
v -30.07682722 27.98741075 18.08190614
v -26.76039747 28.11965268 8.20125463
v -29.45016746 32.07204500 15.56362776
v -37.55017383 32.07204500 19.64824264
v -26.76039747 28.62425100 7.68901201
v -26.76039747 29.13426739 7.03908704
v -26.76039747 29.65601696 5.76440370
v -26.76039747 29.86814704 4.69402284
v -26.76039747 29.88123623 4.52376952
v -36.31908386 27.46114613 8.37594999
v -36.75414438 27.46114613 4.52376952
v -30.33934710 29.18030307 19.64824264
v -30.50871529 29.10537998 19.64824264
v -32.35164582 28.38007745 19.64824264
v -36.42387783 28.25550664 19.64824264
v -36.50750319 28.25550664 19.64824264
v -29.45016746 32.07204500 10.99193907
v -37.55017383 30.50002520 19.64824264
v -37.55017383 32.07204500 4.52376952
v -37.57240340 29.44253386 4.52376952
v -29.45122544 32.07204500 4.52376952
v -36.66946103 27.46114613 7.56465280
v -37.53641409 27.46385516 4.52376952
v -36.89387563 27.46114613 4.90572973
v -37.21355640 28.60168467 19.64824264
v -37.54911585 29.50030569 19.64824264
v -37.27918413 28.63508415 19.64824264
f 1 2 6
f 1 6 21
f 1 21 20
f 1 20 19
f 1 19 18
f 1 18 17
f 1 17 14
f 1 14 3
f 1 3 4
f 1 4 2
f 2 5 22
f 2 22 34
f 2 34 36
f 2 36 23
f 2 23 6
f 2 4 7
f 2 7 8
f 2 8 9
f 2 9 10
f 2 10 11
f 2 11 12
f 2 12 13
f 2 13 5
f 3 14 4
f 4 15 29
f 4 29 33
f 4 33 31
f 4 31 16
f 4 16 30
f 4 30 38
f 4 38 39
f 4 39 37
f 4 37 28
f 4 28 27
f 4 27 26
f 4 26 25
f 4 25 24
f 4 24 11
f 4 11 10
f 4 10 9
f 4 9 8
f 4 8 7
f 4 14 17
f 4 17 18
f 4 18 19
f 4 19 20
f 4 20 21
f 4 21 15
f 5 13 22
f 6 23 35
f 6 35 32
f 6 32 31
f 6 31 33
f 6 33 21
f 11 24 12
f 12 24 25
f 12 25 26
f 12 26 27
f 12 27 28
f 12 28 13
f 13 28 22
f 15 21 29
f 16 31 32
f 16 32 30
f 21 33 29
f 22 28 34
f 23 36 35
f 28 37 35
f 28 35 34
f 30 32 38
f 32 35 38
f 34 35 36
f 35 37 39
f 35 39 38

