# https://github.com/mikedh/trimesh
v -4.50903815 32.05000021 23.56392277
v -4.50903815 32.04793491 24.56378588
v -3.64793231 32.02315129 24.56378588
v -3.63377768 32.02315129 23.56392277
v -4.50903815 32.05000021 19.64824301
v -21.50702123 32.05000021 23.56392277
v -4.50903815 32.02108598 25.10154993
v -3.77768797 32.01489008 25.08871387
v -21.50702123 32.04793491 24.56378588
v -3.14778347 31.97977696 24.56378588
v -3.13362885 31.98184226 23.56392277
v -3.59367119 32.02108598 19.64824301
v -3.63377768 32.02315129 19.64824301
v -22.50731890 32.05000021 19.64824301
v -22.50731890 32.05000021 21.56419672
v -23.50761657 32.04793491 22.56405975
v -4.50903815 31.60594236 25.60148139
v -21.50702123 32.02108598 25.10154993
v -3.47099283 31.65550962 25.47852513
v -22.50731890 32.04586961 24.56378588
v -25.50821191 32.01695240 25.09209178
v -22.50731890 32.02108598 25.10019876
v -2.97792205 31.03382982 26.09600801
v -2.86703947 31.26515260 25.56364881
v -2.77031299 31.47995297 24.56378588
v -3.13362885 31.98184226 19.64824301
v -2.76795339 31.48201827 23.56392277
v -2.79862298 31.52539260 19.64824301
v -24.50791424 32.04793491 19.64824301
v -24.50791424 32.04586961 21.56419672
v -23.50761657 32.04586961 23.56392277
v -4.50903815 31.10611837 26.16086424
v -3.50874048 31.07926945 26.13654330
v -21.50702123 31.60594236 25.60148139
v -24.50791424 32.03967370 24.56378588
v -25.50821191 32.03554310 24.56378588
v -26.02487571 32.01075947 25.08195805
v -25.50821191 31.59768115 25.59202325
v -24.50791424 31.60181176 25.59472557
v -22.50731890 31.60594236 25.60013023
v -3.50874048 30.49889271 26.34935212
v -2.89535020 30.49889271 26.17910513
v -2.66414886 30.49889271 25.56364881
v -2.55326702 30.49889271 24.56378588
v -2.52731588 30.49889271 22.56405975
v -2.74672071 31.39940320 19.64824301
v -2.76795339 31.48201827 19.64824301
v -24.60935991 32.04586961 19.64824301
v -25.50821191 32.03760840 23.56392277
v -4.50903815 30.49889271 26.40407406
v -21.50702123 31.10611837 26.16086424
v -22.50731890 31.10611837 26.16018884
v -26.03667147 32.01695240 24.56378588
v -25.50821191 31.09785716 26.15343265
v -26.31269628 31.49854069 24.56378588
v -26.17114559 31.43864395 25.47447201
v -26.07913683 31.06480935 26.12235626
v -23.50761657 31.10405307 26.15816191
v -3.50874048 29.49924473 26.48987314
v -4.50903815 29.49924473 26.55000010
v -2.82693371 29.49924473 26.24666331
v -2.59573237 29.49924473 25.56364881
v -2.52967548 28.49959973 24.56378588
v -2.52731588 30.49889271 19.64824301
v -2.52731588 27.49995175 24.56378588
v -25.47282312 32.02315129 19.64824301
v -26.03667147 32.01695240 23.56392277
v -21.50702123 30.49889271 26.40407406
v -22.50731890 30.49889271 26.40272290
v -23.50761657 30.49889271 26.40002057
v -26.32213319 31.49854069 22.56405975
v -26.31977285 31.49854069 23.56392277
v -25.50821191 30.49889271 26.38988703
v -24.50791424 30.49889271 26.39596708
v -26.59815949 30.49889271 22.56405975
v -26.58164452 30.49889271 23.56392277
v -26.55097493 30.49889271 24.56378588
v -26.45660731 30.49889271 25.56364881
v -26.19237678 30.49889271 26.22504470
v -3.50874048 13.50075391 26.48987314
v -4.50903815 13.50075391 26.55000010
v -21.50702123 29.49924473 26.55000010
v -2.82693371 13.50075391 26.24666331
v -2.58629546 28.49959973 25.56364881
v -2.52731588 12.50110593 19.64824301
v -2.52731588 14.50040040 24.56378588
v -25.96589539 31.99423407 19.64824301
v -26.00600189 31.99836468 20.06913122
v -26.01307994 32.00249528 20.73525618
v -26.02959342 32.01282179 22.56405975
v -26.30325937 31.50473958 19.64824301
v -26.31741548 31.49854069 21.56419672
v -22.50731890 29.49924473 26.54932471
v -23.50761657 29.49924473 26.54797354
v -24.50791424 29.49924473 26.54527122
v -26.61231411 30.49889271 19.64824301
v -26.60523605 30.49889271 21.56419672
v -25.50821191 29.49924473 26.53513730
v -26.60995525 29.49924473 22.56405975
v -26.61703331 23.49929454 24.56378588
v -26.52974225 28.49959973 25.56364881
v -26.52030534 29.49924473 25.56364881
v -26.26787207 29.49924473 26.29530520
v -3.50874048 12.50110593 26.34935212
v -2.89535020 12.50110593 26.17978053
v -4.50903815 12.50110593 26.40407406
v -24.50791424 13.50075391 26.55000010
v -24.50791424 12.50110593 26.40610099
v -23.50761657 27.49995175 26.55000010
v -2.67122691 12.50110593 25.56364881
v -2.60045083 13.50075391 25.56364881
v -2.58629546 14.50040040 25.56364881
v -2.52731588 12.50110593 22.56405975
v -2.54618970 12.41849012 19.64824301
v -2.56506278 12.50110593 24.56378588
v -26.02251536 32.00662887 21.56419672
v -23.50761657 28.49959973 26.54932471
v -24.50791424 23.49929454 26.55000010
v -26.61703331 29.58392808 19.64824301
v -25.50821191 14.50040040 26.52635455
v -26.61467296 28.49959973 22.56405975
v -26.62175102 22.49964805 24.56378588
v -26.55333379 23.49929454 25.56364881
v -26.55569413 22.49964805 25.56364881
v -26.53917916 15.50004838 25.56364881
v -26.53682031 14.50040040 25.56364881
v -26.22304637 13.50075391 26.28246934
v -26.22540672 14.50040040 26.28382050
v -25.50821191 13.50075391 26.52567916
v -3.50874048 11.92073218 26.13654330
v -2.97792205 11.96617032 26.09600801
v -4.50903815 11.89388176 26.16086424
v -25.50821191 11.85050892 26.17370048
v -25.50821191 12.50110593 26.40474983
v -2.86939907 11.73484679 25.56364881
v -2.77267184 11.52004716 24.56378588
v -2.76795339 11.51798112 23.56392277
v -2.76795339 11.51798112 19.64824301
v -26.62175102 28.49959973 19.64824301
v -26.62175102 26.49823847 21.56419672
v -26.62410987 26.49823847 19.64824301
v -26.62410987 19.50070560 24.56378588
v -26.62646873 15.50004838 24.56378588
v -26.52974225 13.50075391 25.56364881
v -26.62410987 14.50040040 24.56378588
v -26.48491655 12.50110593 25.56364881
v -26.17822216 12.50110593 26.23180052
v -3.47099283 11.34448903 25.47920090
v -4.50903815 11.39405852 25.60148139
v -3.14778347 11.02022317 24.56378588
v -26.09329145 11.88975116 26.14262334
v -25.41148394 11.28665833 25.46366270
v -21.50702123 10.97891490 25.10154993
v -4.50903815 10.97891490 25.10154993
v -3.13362885 11.01815787 23.56392277
v -3.10295926 11.05946541 19.64824301
v -26.62410987 15.50004838 19.64824301
v -26.59579914 12.50110593 24.56378588
v -26.30090051 11.50971991 24.56378588
v -26.22776557 11.67495079 25.56364881
v -3.77768797 10.98511155 25.08871387
v -3.64793231 10.97684959 24.56378588
v -25.71582097 11.00989592 24.56378588
v -25.01513964 11.00163471 25.06371735
v -24.50791424 10.99750411 25.07182433
v -23.50761657 10.98924215 25.08601155
v -22.50731890 10.98098094 25.09682085
v -21.50702123 10.95206522 24.56378588
v -4.50903815 10.95206522 24.56378588
v -3.63377768 10.97684959 23.56392277
v -3.17609420 11.01402652 19.64824301
v -3.13362885 11.01815787 19.64824301
v -26.60287720 14.58508226 19.64824301
v -26.56512955 12.50110593 23.56392277
v -26.23012443 11.40231972 23.59567511
v -26.01307994 10.99750411 23.04845283
v -26.01307994 10.99750411 23.28355576
v -25.94230236 11.00370001 23.95035630
v -4.50903815 10.94999992 23.56392277
v -25.21567064 10.99750411 24.56378588
v -24.50791424 10.96858839 23.56392277
v -23.50761657 10.96858839 24.56378588
v -22.50731890 10.95619583 24.56378588
v -23.50761657 10.95206522 22.56405975
v -21.50702123 10.94999992 23.56392277
v -3.63377768 10.97684959 19.64824301
v -26.58872109 14.50040040 19.64824301
v -26.20653289 12.50110593 19.64824301
v -26.06026301 11.99715134 19.64824301
v -26.17822216 11.48493554 22.65458785
v -25.65920099 11.44156196 19.64824301
v -25.61909300 11.39199247 19.64824301
v -24.97739348 11.03468104 19.64824301
v -24.43713815 10.97271899 19.64824301
v -24.35692515 10.97065369 19.64824301
v -23.50761657 10.94999992 19.64824301
v -25.56719223 10.98924215 23.59567511
v -4.50903815 10.94999992 19.64824301
v -23.50761657 10.94999992 21.56419672
v -23.50761657 10.95619583 23.56392277
f 1 2 3
f 1 3 4
f 1 4 13
f 1 13 5
f 1 5 14
f 1 14 15
f 1 15 6
f 1 6 9
f 1 9 2
f 2 7 8
f 2 8 3
f 2 9 18
f 2 18 7
f 3 8 10
f 3 10 11
f 3 11 4
f 4 11 12
f 4 12 13
f 5 13 12
f 5 12 26
f 5 26 28
f 5 28 47
f 5 47 46
f 5 46 64
f 5 64 85
f 5 85 114
f 5 114 138
f 5 138 156
f 5 156 172
f 5 172 171
f 5 171 186
f 5 186 198
f 5 198 196
f 5 196 195
f 5 195 194
f 5 194 193
f 5 193 192
f 5 192 191
f 5 191 189
f 5 189 188
f 5 188 187
f 5 187 173
f 5 173 157
f 5 157 141
f 5 141 139
f 5 139 119
f 5 119 96
f 5 96 91
f 5 91 87
f 5 87 66
f 5 66 48
f 5 48 29
f 5 29 14
f 6 15 16
f 6 16 31
f 6 31 20
f 6 20 9
f 7 17 8
f 7 18 34
f 7 34 17
f 8 17 19
f 8 19 10
f 9 20 21
f 9 21 22
f 9 22 18
f 10 19 23
f 10 23 24
f 10 24 25
f 10 25 11
f 11 26 12
f 11 25 27
f 11 27 28
f 11 28 26
f 14 29 15
f 15 29 16
f 16 29 30
f 16 30 49
f 16 49 36
f 16 36 35
f 16 35 31
f 17 32 33
f 17 33 19
f 17 34 51
f 17 51 32
f 18 22 40
f 18 40 34
f 19 33 23
f 20 31 35
f 20 35 21
f 21 36 37
f 21 37 38
f 21 38 39
f 21 39 40
f 21 40 22
f 21 35 36
f 23 33 41
f 23 41 42
f 23 42 43
f 23 43 24
f 24 43 25
f 25 43 44
f 25 44 45
f 25 45 27
f 27 46 47
f 27 47 28
f 27 45 46
f 29 48 49
f 29 49 30
f 32 50 33
f 32 51 68
f 32 68 50
f 33 50 41
f 34 40 52
f 34 52 51
f 36 49 53
f 36 53 37
f 37 54 38
f 37 53 55
f 37 55 56
f 37 56 57
f 37 57 54
f 38 54 39
f 39 58 40
f 39 54 58
f 40 58 52
f 41 59 42
f 41 50 60
f 41 60 59
f 42 59 61
f 42 61 43
f 43 61 62
f 43 62 44
f 44 62 63
f 44 63 45
f 45 64 46
f 45 63 65
f 45 65 86
f 45 86 113
f 45 113 85
f 45 85 64
f 48 66 49
f 49 66 67
f 49 67 53
f 50 68 82
f 50 82 60
f 51 52 68
f 52 69 68
f 52 58 70
f 52 70 69
f 53 67 71
f 53 71 72
f 53 72 55
f 54 57 73
f 54 73 74
f 54 74 70
f 54 70 58
f 55 72 97
f 55 97 75
f 55 75 76
f 55 76 77
f 55 77 78
f 55 78 56
f 56 78 57
f 57 78 79
f 57 79 73
f 59 60 81
f 59 81 80
f 59 80 83
f 59 83 61
f 60 82 109
f 60 109 118
f 60 118 107
f 60 107 81
f 61 83 112
f 61 112 84
f 61 84 62
f 62 84 63
f 63 84 65
f 65 84 112
f 65 112 86
f 66 87 88
f 66 88 89
f 66 89 90
f 66 90 67
f 67 90 91
f 67 91 92
f 67 92 71
f 68 69 94
f 68 94 93
f 68 93 82
f 69 70 95
f 69 95 94
f 70 74 95
f 71 92 96
f 71 96 72
f 72 96 97
f 73 98 95
f 73 95 74
f 73 79 98
f 75 97 99
f 75 99 76
f 76 99 100
f 76 100 77
f 77 100 101
f 77 101 102
f 77 102 78
f 78 102 103
f 78 103 79
f 79 103 98
f 80 104 105
f 80 105 83
f 80 81 104
f 81 106 104
f 81 107 108
f 81 108 106
f 82 93 117
f 82 117 109
f 83 110 111
f 83 111 112
f 83 105 110
f 85 113 114
f 86 112 111
f 86 111 115
f 86 115 113
f 87 91 88
f 88 116 89
f 88 91 116
f 89 116 90
f 90 116 91
f 91 96 92
f 93 94 117
f 94 95 117
f 95 98 118
f 95 118 117
f 96 119 99
f 96 99 97
f 98 120 107
f 98 107 118
f 98 103 120
f 99 119 121
f 99 121 122
f 99 122 100
f 100 122 101
f 101 123 103
f 101 103 102
f 101 122 123
f 103 123 124
f 103 124 125
f 103 125 126
f 103 126 127
f 103 127 128
f 103 128 129
f 103 129 120
f 104 130 131
f 104 131 105
f 104 106 130
f 105 131 110
f 106 132 130
f 106 108 133
f 106 133 132
f 107 120 129
f 107 129 134
f 107 134 108
f 108 134 133
f 109 117 118
f 110 131 135
f 110 135 136
f 110 136 115
f 110 115 111
f 113 115 136
f 113 136 137
f 113 137 114
f 114 137 138
f 119 139 121
f 121 139 140
f 121 140 122
f 122 140 141
f 122 141 142
f 122 142 124
f 122 124 123
f 124 142 143
f 124 143 125
f 125 143 145
f 125 145 126
f 126 144 127
f 126 145 144
f 127 144 146
f 127 146 147
f 127 147 129
f 127 129 128
f 129 147 134
f 130 148 131
f 130 132 149
f 130 149 148
f 131 148 150
f 131 150 135
f 132 133 149
f 133 134 151
f 133 151 152
f 133 152 153
f 133 153 154
f 133 154 149
f 134 147 151
f 135 150 136
f 136 150 155
f 136 155 137
f 137 155 156
f 137 156 138
f 139 141 140
f 141 157 143
f 141 143 142
f 143 157 145
f 144 158 146
f 144 145 158
f 145 157 158
f 146 158 159
f 146 159 160
f 146 160 151
f 146 151 147
f 148 149 161
f 148 161 150
f 149 154 161
f 150 161 162
f 150 162 155
f 151 160 152
f 152 160 163
f 152 163 164
f 152 164 165
f 152 165 166
f 152 166 167
f 152 167 153
f 153 167 168
f 153 168 169
f 153 169 154
f 154 169 161
f 155 162 170
f 155 170 171
f 155 171 172
f 155 172 156
f 157 173 158
f 158 173 174
f 158 174 159
f 159 175 176
f 159 176 177
f 159 177 178
f 159 178 160
f 159 174 175
f 160 178 163
f 161 169 162
f 162 169 179
f 162 179 170
f 163 178 164
f 164 178 180
f 164 180 181
f 164 181 182
f 164 182 183
f 164 183 166
f 164 166 165
f 166 183 167
f 167 183 168
f 168 183 200
f 168 200 184
f 168 184 199
f 168 199 185
f 168 185 179
f 168 179 169
f 170 179 198
f 170 198 186
f 170 186 171
f 173 187 174
f 174 187 188
f 174 188 189
f 174 189 190
f 174 190 175
f 175 190 176
f 176 191 192
f 176 192 193
f 176 193 194
f 176 194 195
f 176 195 196
f 176 196 181
f 176 181 177
f 176 190 189
f 176 189 191
f 177 181 197
f 177 197 178
f 178 197 180
f 179 185 199
f 179 199 196
f 179 196 198
f 180 197 181
f 181 199 184
f 181 184 200
f 181 200 183
f 181 183 182
f 181 196 199

