# https://github.com/mikedh/trimesh
v -2.50775884 -48.49939256 -16.54927008
v -2.50775884 -49.49944287 -16.53611533
v -3.30839797 -49.49944287 -16.23575542
v -3.31509753 -48.49939256 -16.24233280
v -2.50775884 -44.50057415 -16.54927008
v 11.49002711 -48.49939256 -16.54927008
v -2.50775884 -50.27434246 -16.22917805
v -3.20454948 -50.18317711 -16.13125054
v 11.49002711 -49.49944287 -16.53611533
v -3.60989409 -49.49944287 -15.43552384
v -3.62329397 -48.49939256 -15.43552384
v -3.31509753 -44.50057415 -16.24233280
v -2.51278352 -43.49431005 -16.53392486
v -2.50775884 -43.49431005 -16.53538517
v -1.51282187 -43.49431005 -16.54927008
v 11.49002711 -43.49431005 -16.54927008
v 12.48998802 -48.49939256 -16.52003995
v -2.50775884 -50.54921541 -15.43552384
v 4.49197121 -50.27434246 -16.22917805
v -3.30169840 -50.27434246 -15.43552384
v 12.48998802 -49.49944287 -16.38922556
v 11.49002711 -50.27365105 -16.22917805
v -3.62496886 -48.49939256 -14.43578348
v -3.41057157 -50.00153780 -9.08409677
v -3.60989409 -49.49944287 -9.08409677
v -3.62329397 -44.50057415 -15.43552384
v -3.63669384 -43.49431005 -14.42774281
v -3.30337329 -43.49431005 -16.22844789
v -3.61659366 -43.49431005 -15.43552384
v 12.48998802 -43.49431005 -16.52003995
v 13.22865392 -43.49431005 -16.21456298
v 13.23200370 -48.49939256 -16.21309968
v -2.50775884 -50.54921541 -9.08409677
v -3.02197662 -50.37172459 -9.08409677
v -1.50779719 -50.54921541 -15.43552384
v -3.30169840 -50.27434246 -9.08409677
v 13.12145490 -49.49944287 -16.08959581
v 13.00588143 -50.01603962 -15.95585780
v 12.48998802 -50.14864215 -16.09763350
v 11.49002711 -50.54438147 -15.43552384
v 9.49010382 -50.54714713 -15.43552384
v 7.49018052 -50.54783854 -15.43552384
v -3.62496886 -48.49939256 -11.43655642
v -3.61491876 -49.14790341 -9.08409677
v -3.63501895 -43.50052384 -9.08409677
v -3.63501895 -43.49431005 -9.08409677
v 13.47320000 -43.49431005 -15.43990777
v 13.23200370 -43.50052384 -16.21309968
v 13.47320000 -48.49939256 -15.43552384
v -1.15605209 -50.54921541 -9.08409677
v 13.25545368 -49.49944287 -15.43552384
v 12.48998802 -50.29644388 -15.43552384
v 13.01258099 -50.02433063 -15.43552384
v 12.48998802 -50.29436964 -14.43578348
v 11.49002711 -50.53816470 -14.43578348
v -0.50783629 -50.54852996 -9.08409677
v -3.62329397 -48.49939256 -9.08409677
v 1.47868788 -43.49431005 -9.08409677
v 13.47487490 -43.49431005 -14.44162772
v 13.47487490 -43.50052384 -14.43578348
v 13.47320000 -48.49939256 -14.43578348
v 13.25545368 -49.49944287 -14.43578348
v 13.01425589 -50.02571346 -14.43578348
v 12.48998802 -50.28815287 -13.43604013
v 13.01258099 -50.02294780 -13.43604013
v 11.49002711 -50.53126248 -13.43604013
v 0.49212610 -50.33304711 -9.08409677
v 11.49002711 -50.49465924 -12.43629976
v 11.39120255 -50.18455993 -11.38101678
v 10.99088411 -49.99946654 -10.93668773
v 1.48036277 -44.85211063 -9.08409677
v 11.49002711 -43.49431005 -10.65532681
v 13.47487490 -43.49431005 -14.43578348
v 13.47152511 -48.49939256 -13.43604013
v 13.25210240 -49.49944287 -13.43604013
v 13.00253164 -50.01258851 -12.88208913
v 12.54023774 -50.20251286 -12.50426400
v 1.06329243 -50.05885962 -9.08409677
v 12.24041726 -50.14933357 -11.67699276
v 11.65752521 -49.83992865 -11.01049918
v 11.39120255 -49.50358540 -10.82560546
v 1.48203766 -47.49934225 -9.08409677
v 11.49002711 -43.50052384 -10.65532681
v 12.11646933 -43.50052384 -10.85995266
v 12.11981911 -43.49431005 -10.86214313
v 13.47152511 -44.50057415 -13.43604013
v 13.46985022 -43.49431005 -13.43604013
v 13.31910253 -43.50052384 -12.43629976
v 13.31742764 -46.50067477 -12.43629976
v 13.31575275 -48.49939256 -12.43629976
v 13.12815447 -49.49875146 -12.50426400
v 12.90705836 -49.83094921 -12.21632571
v 1.23749008 -49.68591612 -9.08409677
v 11.49002711 -48.49939256 -10.65971074
v 12.48831312 -49.50220555 -11.43290265
v 12.06956938 -49.17276750 -10.88918279
v 1.48203766 -47.85157015 -9.08409677
v 11.49002711 -45.50062446 -10.65678713
v 12.11479443 -44.50057415 -10.86068282
v 12.10809487 -48.49939256 -10.86433658
v 12.61728722 -43.50052384 -11.30355155
v 12.61728722 -43.49431005 -11.30355155
v 13.31910253 -43.49431005 -12.43629976
v 13.08125602 -43.49431005 -11.80707699
v 13.07957963 -44.50057415 -11.80488354
v 13.07790474 -46.50067477 -11.80926747
v 13.07622985 -47.49934225 -11.81073076
v 13.07455496 -48.49939256 -11.81292123
v 13.04608180 -49.16447947 -11.85457894
v 1.30449022 -49.49944287 -9.08409677
v 1.47868788 -48.49939256 -9.08409677
v 1.42341347 -48.85162046 -9.08409677
v 12.60891127 -48.49939256 -11.31305254
v 12.61058617 -47.49934225 -11.31085909
v 12.61561233 -44.50057415 -11.30501187
v 13.07957963 -43.50052384 -11.80342025
f 1 2 3
f 1 3 4
f 1 4 12
f 1 12 5
f 1 5 15
f 1 15 16
f 1 16 6
f 1 6 9
f 1 9 2
f 2 7 8
f 2 8 3
f 2 9 19
f 2 19 7
f 3 8 10
f 3 10 11
f 3 11 4
f 4 11 26
f 4 26 12
f 5 12 13
f 5 13 14
f 5 14 15
f 6 16 30
f 6 30 17
f 6 17 9
f 7 18 8
f 7 19 35
f 7 35 18
f 8 18 20
f 8 20 10
f 9 17 21
f 9 21 22
f 9 22 19
f 10 23 11
f 10 20 24
f 10 24 25
f 10 25 43
f 10 43 23
f 11 23 27
f 11 27 26
f 12 28 13
f 12 26 29
f 12 29 28
f 13 28 29
f 13 29 27
f 13 27 46
f 13 46 58
f 13 58 72
f 13 72 85
f 13 85 102
f 13 102 104
f 13 104 103
f 13 103 87
f 13 87 73
f 13 73 59
f 13 59 47
f 13 47 31
f 13 31 30
f 13 30 16
f 13 16 15
f 13 15 14
f 17 30 31
f 17 31 32
f 17 32 21
f 18 33 34
f 18 34 20
f 18 35 50
f 18 50 33
f 19 22 35
f 20 34 36
f 20 36 24
f 21 32 37
f 21 37 38
f 21 38 39
f 21 39 22
f 22 39 40
f 22 40 41
f 22 41 42
f 22 42 35
f 23 43 27
f 24 36 34
f 24 34 33
f 24 33 50
f 24 50 56
f 24 56 67
f 24 67 78
f 24 78 93
f 24 93 110
f 24 110 112
f 24 112 111
f 24 111 97
f 24 97 82
f 24 82 71
f 24 71 58
f 24 58 46
f 24 46 45
f 24 45 57
f 24 57 44
f 24 44 25
f 25 44 43
f 26 27 29
f 27 43 45
f 27 45 46
f 31 47 48
f 31 48 32
f 32 48 47
f 32 47 49
f 32 49 37
f 35 42 50
f 37 49 51
f 37 51 38
f 38 52 39
f 38 51 53
f 38 53 52
f 39 52 40
f 40 52 54
f 40 54 64
f 40 64 55
f 40 55 56
f 40 56 41
f 41 56 50
f 41 50 42
f 43 44 57
f 43 57 45
f 47 59 49
f 49 59 60
f 49 60 61
f 49 61 62
f 49 62 51
f 51 62 63
f 51 63 53
f 52 53 63
f 52 63 54
f 54 63 65
f 54 65 64
f 55 64 66
f 55 66 56
f 56 66 68
f 56 68 69
f 56 69 70
f 56 70 67
f 58 71 72
f 59 73 60
f 60 74 61
f 60 73 86
f 60 86 74
f 61 74 62
f 62 75 65
f 62 65 63
f 62 74 75
f 64 65 76
f 64 76 77
f 64 77 68
f 64 68 66
f 65 75 76
f 67 70 78
f 68 77 79
f 68 79 69
f 69 79 70
f 70 79 80
f 70 80 81
f 70 81 78
f 71 82 72
f 72 83 84
f 72 84 85
f 72 82 97
f 72 97 83
f 73 87 86
f 74 88 89
f 74 89 90
f 74 90 91
f 74 91 75
f 74 86 103
f 74 103 88
f 75 91 76
f 76 92 79
f 76 79 77
f 76 91 92
f 78 81 94
f 78 94 93
f 79 95 80
f 79 92 95
f 80 95 96
f 80 96 81
f 81 96 94
f 83 97 98
f 83 98 84
f 84 98 94
f 84 94 99
f 84 99 85
f 85 99 100
f 85 100 101
f 85 101 102
f 86 87 103
f 88 103 104
f 88 104 89
f 89 104 90
f 90 104 105
f 90 105 106
f 90 106 107
f 90 107 108
f 90 108 109
f 90 109 91
f 91 109 92
f 92 109 95
f 93 94 110
f 94 96 100
f 94 100 99
f 94 98 111
f 94 111 112
f 94 112 110
f 95 109 96
f 96 109 113
f 96 113 100
f 97 111 98
f 100 113 114
f 100 114 115
f 100 115 101
f 101 115 106
f 101 106 105
f 101 105 116
f 101 116 102
f 102 116 104
f 104 116 105
f 106 115 107
f 107 115 114
f 107 114 113
f 107 113 108
f 108 113 109

