# https://github.com/mikedh/trimesh
v -36.26413814 15.49401700 35.25201176
v -36.26413814 24.54334340 35.25201176
v -32.45037500 15.49401700 35.25201176
v -36.26413814 15.49401700 44.40513986
v -36.22306748 24.54334340 35.25201176
v -36.26413814 24.58516806 37.29165102
v -32.45000098 15.50024570 35.25201176
v -32.45000098 15.49401700 35.54950510
v -35.52072667 15.49401700 46.32731750
v -36.26413814 15.49579620 46.46563483
v -34.51482475 24.53266520 35.25201176
v -36.26413814 24.45168319 38.59139996
v -34.51482475 24.43744659 36.54297793
v -34.51482475 24.52554541 35.54291877
v -32.45000098 21.79090268 35.25201176
v -32.45000098 15.49401700 43.54229980
v -35.51475427 15.49401700 46.32731750
v -34.51482475 15.49401700 46.30426387
v -36.26413814 16.52273413 46.45136544
v -33.51489821 24.34667748 35.25201176
v -33.51489821 24.25412767 36.54297793
v -36.26413814 24.29684194 39.54315840
v -33.51489821 24.33955769 35.54291877
v -32.45037500 22.49925762 35.25201176
v -32.45000098 21.49990776 38.54309775
v -32.45000098 16.50048665 43.54229980
v -32.47389802 15.49401700 44.54235897
v -33.55895805 15.49401700 46.14289440
v -36.26413814 17.50072612 46.25815958
v -33.86065352 16.16054727 46.09129903
v -32.93353569 24.07970774 35.25201176
v -32.93652338 24.07614934 35.54291877
v -33.52236668 24.10640471 37.45521693
v -33.01045415 24.00406780 37.06331709
v -36.26413814 23.41851805 41.45545655
v -33.51489821 23.10527565 40.24133284
v -33.51489821 23.41762845 39.54315840
v -33.86028099 24.04945236 38.20389002
v -32.97796955 24.03521427 36.54297793
v -32.50675515 22.79114215 35.25201176
v -32.45074753 22.49925762 35.54291877
v -32.45448177 22.49925762 36.54297793
v -32.45858854 21.49990776 39.54315840
v -32.45037500 20.49966680 40.54321756
v -32.45000098 19.50031694 41.54217999
v -32.45037500 18.50007747 42.54223915
v -32.45896256 17.50072612 43.54229980
v -32.47389802 15.50024570 44.54235897
v -32.47539112 15.49401700 44.54784856
v -33.42528542 15.49401700 46.09129903
v -33.19378648 15.68801411 45.95517665
v -36.26413814 18.50007747 45.84979244
v -33.51489821 17.50072612 45.46008756
v -33.52236668 16.49692676 45.83991146
v -32.73377479 23.67124821 35.25201176
v -32.65461669 23.49949858 35.54291877
v -32.69942308 23.49949858 36.54297793
v -33.19378648 23.91240909 37.72965663
v -33.00970611 23.00471794 40.05361658
v -32.92644123 23.10794445 39.54315840
v -32.80733154 23.28859308 38.54309775
v -32.80397133 23.54755194 37.45521693
v -33.51489821 22.81783912 40.74081480
v -36.26413814 22.47167105 42.51150247
v -33.86102605 22.05876053 42.11740620
v -33.52273921 22.29013282 41.56523213
v -33.52236668 23.79761329 38.53980458
v -32.65125647 23.49949858 35.25201176
v -32.47203090 22.49925762 37.54303859
v -32.52505083 22.49925762 38.54309775
v -32.52206463 21.49990776 40.54321756
v -32.48771292 20.49966680 41.54217999
v -32.48808694 19.50031694 42.54223915
v -32.52243716 18.50007747 43.54229980
v -32.52505083 16.50048665 44.54235897
v -32.49667449 15.49401700 44.61481154
v -32.91972080 15.49401700 45.69720276
v -32.80733154 16.50048665 45.33055150
v -32.92681525 17.50072612 45.14942157
v -33.01045415 18.00974633 45.04623082
v -36.26413814 19.42200671 45.45569617
v -33.51489821 18.19751326 45.14722513
v -33.19415901 21.89769058 41.91432085
v -32.91150577 22.13618116 41.24797982
v -32.84317636 22.48145964 40.44880957
v -32.65200302 22.49925762 39.54315840
v -36.26413814 21.47677068 43.52363755
v -33.78037485 21.10568483 43.14820354
v -33.48726842 21.50168696 42.54553232
v -32.75729781 21.53817253 41.56523213
v -32.73638846 20.55839985 42.60151907
v -32.75729781 19.52345402 43.58072104
v -32.65312359 17.50072612 44.54235897
v -32.78418105 15.49401700 45.51168144
v -32.80546442 15.49401700 45.56986314
v -32.84392291 18.40574846 44.52479493
v -33.51489821 18.69763299 44.86070950
v -32.91150577 19.20576211 44.17900087
v -33.19490705 19.87229239 43.93968924
v -33.52273921 19.52345402 44.33268729
v -36.26413814 20.47297132 44.51052406
v -33.86139858 20.07429889 44.10215692
v -33.11350781 20.93126639 42.97365992
v -32.87715405 21.23026922 42.30731890
v -33.48764095 20.50322670 43.54339653
v -32.87715405 20.26473611 43.27224999
f 1 2 5
f 1 5 11
f 1 11 20
f 1 20 31
f 1 31 55
f 1 55 68
f 1 68 40
f 1 40 24
f 1 24 15
f 1 15 7
f 1 7 3
f 1 3 8
f 1 8 16
f 1 16 27
f 1 27 49
f 1 49 76
f 1 76 94
f 1 94 95
f 1 95 77
f 1 77 50
f 1 50 28
f 1 28 18
f 1 18 17
f 1 17 9
f 1 9 4
f 1 4 10
f 1 10 19
f 1 19 29
f 1 29 52
f 1 52 81
f 1 81 101
f 1 101 87
f 1 87 64
f 1 64 35
f 1 35 22
f 1 22 12
f 1 12 6
f 1 6 2
f 2 6 5
f 3 7 8
f 4 9 10
f 5 6 11
f 6 12 13
f 6 13 14
f 6 14 11
f 7 15 25
f 7 25 45
f 7 45 26
f 7 26 16
f 7 16 8
f 9 17 10
f 10 17 18
f 10 18 19
f 11 14 23
f 11 23 20
f 12 21 13
f 12 22 21
f 13 21 14
f 14 21 23
f 15 24 25
f 16 26 48
f 16 48 27
f 18 28 19
f 19 28 30
f 19 30 29
f 20 23 32
f 20 32 31
f 21 33 34
f 21 34 23
f 21 22 33
f 22 35 36
f 22 36 37
f 22 37 38
f 22 38 33
f 23 34 39
f 23 39 32
f 24 40 41
f 24 41 25
f 25 41 42
f 25 42 43
f 25 43 44
f 25 44 45
f 26 46 47
f 26 47 48
f 26 45 46
f 27 48 49
f 28 50 51
f 28 51 30
f 29 30 53
f 29 53 52
f 30 51 54
f 30 54 53
f 31 32 55
f 32 56 55
f 32 39 57
f 32 57 56
f 33 38 58
f 33 58 34
f 34 58 59
f 34 59 60
f 34 60 61
f 34 61 62
f 34 62 39
f 35 63 36
f 35 64 65
f 35 65 66
f 35 66 63
f 36 59 37
f 36 63 59
f 37 67 38
f 37 59 67
f 38 67 58
f 39 62 57
f 40 68 42
f 40 42 41
f 42 69 43
f 42 68 56
f 42 56 69
f 43 69 70
f 43 70 71
f 43 71 72
f 43 72 44
f 44 72 45
f 45 72 73
f 45 73 46
f 46 73 47
f 47 74 75
f 47 75 48
f 47 73 74
f 48 75 76
f 48 76 49
f 50 77 51
f 51 77 78
f 51 78 79
f 51 79 80
f 51 80 54
f 52 53 81
f 53 54 80
f 53 80 82
f 53 82 81
f 55 56 68
f 56 57 69
f 57 62 61
f 57 61 70
f 57 70 69
f 58 67 59
f 59 63 66
f 59 66 83
f 59 83 84
f 59 84 85
f 59 85 60
f 60 86 61
f 60 85 86
f 61 86 70
f 64 87 88
f 64 88 65
f 65 83 66
f 65 88 89
f 65 89 83
f 70 86 71
f 71 90 91
f 71 91 72
f 71 86 90
f 72 91 73
f 73 91 92
f 73 92 74
f 74 92 93
f 74 93 75
f 75 93 78
f 75 78 94
f 75 94 76
f 77 95 78
f 78 93 79
f 78 95 94
f 79 93 96
f 79 96 80
f 80 97 82
f 80 96 98
f 80 98 99
f 80 99 100
f 80 100 97
f 81 82 97
f 81 97 100
f 81 100 102
f 81 102 101
f 83 89 103
f 83 103 104
f 83 104 84
f 84 104 90
f 84 90 85
f 85 90 86
f 87 101 88
f 88 103 89
f 88 101 102
f 88 102 105
f 88 105 103
f 90 104 91
f 91 104 106
f 91 106 92
f 92 98 96
f 92 96 93
f 92 106 98
f 98 106 99
f 99 105 102
f 99 102 100
f 99 106 103
f 99 103 105
f 103 106 104

