# https://github.com/mikedh/trimesh
v -45.51433260 -13.14482040 -2.50740059
v -46.51378230 -13.14482040 -2.50389732
v -45.51433260 -11.62692697 -2.50740059
v -37.51539115 -13.14482040 -2.50740059
v -46.51378230 -11.62692697 -2.50389732
v -47.28147676 -13.14482040 -2.22856652
v -47.18454153 -11.62692697 -2.26359624
v -37.51539115 -11.62692697 -2.50740059
v -36.88808677 -13.14482040 -2.31964260
v -47.37729738 -13.14482040 -1.95463643
v -47.28147676 -11.62692697 -2.22856652
v -36.69532795 -11.62692697 -2.23206830
v -36.56830721 -13.14482040 -2.21245237
v -47.55000218 -13.14482040 -1.45721978
v -47.55000218 -11.62692697 -1.45721978
v -36.34992132 -11.62692697 -1.45721978
v -36.21064585 -13.14482040 -1.45721978
v -36.27192849 -13.14482040 -1.59453425
v -47.55000218 -13.14482040 2.54243423
v -47.55000218 -11.62692697 2.54243423
v -36.34658047 -11.62692697 -1.33041213
v -36.17053482 -13.14482040 -0.48900744
v -47.52548972 -13.14482040 3.54217301
v -47.51880505 -11.62692697 3.54217301
v -36.32540886 -11.62692697 -0.45748099
v -36.16719099 -13.14482040 0.54295815
v -47.25807891 -13.14482040 4.26938243
v -47.25139423 -11.62692697 4.25467048
v -36.32540886 -11.62692697 2.54243423
v -36.16830560 -13.14482040 2.54243423
v -46.51378230 -13.14482040 4.49847483
v -46.60737668 -11.62692697 4.44032591
v -36.33209353 -11.62692697 2.66924038
v -36.19838813 -13.14482040 3.51835346
v -46.51378230 -11.62692697 4.46694838
v -37.51539115 -13.14482040 4.64910054
v -36.38446228 -11.62692697 3.54217301
v -36.20061735 -13.14482040 3.54217301
v -37.51539115 -11.62692697 4.46975129
v -36.53376625 -13.14482040 4.50337881
v -36.42791713 -11.62692697 3.63535016
v -36.48251212 -13.14482040 4.39548823
v -36.72986891 -11.62692697 4.25747191
f 1 2 5
f 1 5 3
f 1 3 8
f 1 8 4
f 1 4 9
f 1 9 13
f 1 13 18
f 1 18 17
f 1 17 22
f 1 22 26
f 1 26 30
f 1 30 34
f 1 34 38
f 1 38 42
f 1 42 40
f 1 40 36
f 1 36 31
f 1 31 27
f 1 27 23
f 1 23 19
f 1 19 14
f 1 14 10
f 1 10 6
f 1 6 2
f 2 6 7
f 2 7 5
f 3 5 7
f 3 7 11
f 3 11 15
f 3 15 20
f 3 20 24
f 3 24 28
f 3 28 32
f 3 32 35
f 3 35 39
f 3 39 43
f 3 43 41
f 3 41 37
f 3 37 33
f 3 33 29
f 3 29 25
f 3 25 21
f 3 21 16
f 3 16 12
f 3 12 8
f 4 8 9
f 6 10 11
f 6 11 7
f 8 12 13
f 8 13 9
f 10 14 15
f 10 15 11
f 12 16 17
f 12 17 18
f 12 18 13
f 14 19 20
f 14 20 15
f 16 21 22
f 16 22 17
f 19 23 20
f 20 23 24
f 21 25 22
f 22 25 26
f 23 27 24
f 24 27 28
f 25 29 26
f 26 29 30
f 27 31 28
f 28 31 32
f 29 33 34
f 29 34 30
f 31 35 32
f 31 36 35
f 33 37 34
f 34 37 38
f 35 36 39
f 36 40 39
f 37 41 42
f 37 42 38
f 39 40 43
f 40 42 41
f 40 41 43

