# https://github.com/mikedh/trimesh
v -36.32499962 22.49939026 31.52533802
v -36.33708447 23.00143005 22.06196957
v -36.34917230 23.49933775 27.56526749
v -36.35136873 23.49864931 35.55548465
v -36.32719606 22.50558914 35.55548465
v -36.32499962 19.50161457 31.52533802
v -36.32499962 22.49939026 19.64979907
v -36.34917230 23.49933775 19.64979907
v -36.69088891 24.27546818 22.06196957
v -36.69088891 24.27477974 26.56707461
v -36.35246844 23.50415828 35.55548465
v -36.32719606 19.50092614 35.55548465
v -36.32499962 19.50092614 22.06196957
v -36.37334498 18.50098013 35.55548465
v -36.32499962 19.50092614 19.64979907
v -36.69088891 24.27546818 19.64979907
v -37.50946980 24.55024724 27.56526749
v -37.50946980 24.55093568 22.06196957
v -37.50287752 24.54680358 35.55548465
v -36.69308535 24.27409131 35.55548465
v -36.71506159 17.76066020 35.55548465
v -36.38323340 18.50098013 19.64979907
v -37.50946980 24.55093568 19.64979907
v -45.50739571 24.54955881 31.52533802
v -45.50519927 24.54887037 35.55548465
v -37.50946980 24.54887037 35.55548465
v -38.00721060 24.55093568 22.06196957
v -37.50946980 17.51687110 35.55548465
v -36.72495001 17.78614120 19.64979907
v -36.41180192 18.44037708 19.64979907
v -38.59285341 24.55093568 19.64979907
v -46.50837287 24.54749202 31.52533802
v -45.50739571 24.55024724 22.06196957
v -46.00403979 24.54955881 22.06196957
v -46.50617346 24.54680358 35.55548465
v -38.50934725 24.55093568 20.56545883
v -38.50934725 17.51618266 35.55548465
v -37.50946980 17.57265363 19.64979907
v -45.59200157 24.55024724 19.64979907
v -46.50837287 24.54818045 23.56626653
v -47.25113958 24.28235401 31.52533802
v -47.27201612 24.27409131 35.55548465
v -46.50837287 24.54818045 19.64979907
v -45.50519927 17.51549423 35.55548465
v -46.50837287 17.57196519 19.64979907
v -46.89184256 24.41113588 22.06196957
v -47.27860839 24.27271295 25.56576701
v -47.27640898 24.27202451 35.55548465
v -47.27860839 24.27202451 31.52533802
v -47.27860839 24.27271295 19.64979907
v -45.51288828 17.51549423 35.55548465
v -47.24784344 17.78614120 19.64979907
v -46.50617346 17.51755953 35.55548465
v -46.51166901 17.51893789 35.55548465
v -47.55000341 23.49933775 25.56576701
v -47.27970810 24.26651555 35.55548465
v -47.28849681 24.24378978 31.52533802
v -47.55000341 23.49933775 19.64979907
v -47.51703904 18.50098013 19.64979907
v -47.25773185 17.76066020 35.55548465
v -47.54780697 19.50092614 35.55548465
v -47.54780697 23.49864931 35.55548465
v -47.55000341 22.49939026 20.56545883
v -47.55000341 22.49939026 19.64979907
v -47.52033518 18.58499740 19.64979907
v -47.52693043 18.49615812 35.55548465
v -47.54780697 19.50092614 19.64979907
f 1 2 3
f 1 3 4
f 1 4 5
f 1 5 12
f 1 12 6
f 1 6 13
f 1 13 15
f 1 15 7
f 1 7 2
f 2 7 8
f 2 8 3
f 3 9 10
f 3 10 11
f 3 11 4
f 3 8 16
f 3 16 9
f 4 11 20
f 4 20 19
f 4 19 26
f 4 26 25
f 4 25 35
f 4 35 42
f 4 42 48
f 4 48 56
f 4 56 62
f 4 62 61
f 4 61 66
f 4 66 60
f 4 60 54
f 4 54 53
f 4 53 51
f 4 51 44
f 4 44 37
f 4 37 28
f 4 28 21
f 4 21 14
f 4 14 12
f 4 12 5
f 6 12 14
f 6 14 13
f 7 15 22
f 7 22 30
f 7 30 29
f 7 29 38
f 7 38 45
f 7 45 52
f 7 52 59
f 7 59 65
f 7 65 67
f 7 67 64
f 7 64 58
f 7 58 50
f 7 50 43
f 7 43 39
f 7 39 31
f 7 31 23
f 7 23 16
f 7 16 8
f 9 17 10
f 9 16 23
f 9 23 18
f 9 18 17
f 10 17 19
f 10 19 20
f 10 20 11
f 13 14 15
f 14 21 22
f 14 22 15
f 17 24 25
f 17 25 26
f 17 26 19
f 17 18 27
f 17 27 24
f 18 23 31
f 18 31 36
f 18 36 27
f 21 28 29
f 21 29 30
f 21 30 22
f 24 32 35
f 24 35 25
f 24 27 33
f 24 33 34
f 24 34 32
f 27 36 33
f 28 37 38
f 28 38 29
f 31 39 33
f 31 33 36
f 32 34 40
f 32 40 41
f 32 41 42
f 32 42 35
f 33 39 34
f 34 39 43
f 34 43 40
f 37 44 38
f 38 44 45
f 40 43 46
f 40 46 41
f 41 46 47
f 41 47 42
f 42 47 49
f 42 49 48
f 43 50 46
f 44 51 45
f 45 51 53
f 45 53 54
f 45 54 52
f 46 50 47
f 47 55 49
f 47 50 58
f 47 58 55
f 48 49 56
f 49 55 57
f 49 57 56
f 52 54 60
f 52 60 59
f 55 61 62
f 55 62 56
f 55 56 57
f 55 58 64
f 55 64 63
f 55 63 61
f 59 60 66
f 59 66 65
f 61 63 64
f 61 64 67
f 61 67 66
f 65 66 67

