# https://github.com/mikedh/trimesh
v 13.47975950 -25.74944232 13.56319931
v 13.47457836 -25.74944232 14.56352231
v 13.47630541 -28.50005528 14.56352231
v 13.47803096 -31.08420727 14.14863872
v 13.47803096 -32.60283022 13.56319931
v 13.36407427 -31.08420727 12.56422933
v 13.36407427 -25.74944232 12.56422933
v 13.47285132 -25.74944232 14.81258792
v 13.47630541 -31.08420727 14.56352231
v 13.46594612 -25.74944232 15.56316955
v 13.47112576 -31.08420727 15.14828595
v 13.47457836 -34.84248801 14.56284580
v 13.47457836 -34.84248801 13.56319931
v 13.36062166 -34.84248801 12.56490585
v 13.11716635 -34.84248801 11.86237826
v 13.11889488 -31.08420727 11.86237826
v 13.11889488 -28.50005528 11.86237826
v 13.11889488 -27.50039836 11.86305477
v 13.11716635 -25.74944232 11.86576232
v 13.22421784 -25.74944232 16.29886080
v 13.38306730 -34.84248801 15.81561921
v 13.46594612 -31.08420727 15.56316955
v 13.46421907 -34.84248801 15.56316955
v 12.70968491 -34.84248801 11.36153950
v 12.70968491 -34.49888491 11.36153950
v 12.70795637 -32.60283022 11.36221601
v 12.70623082 -31.49991415 11.36221601
v 12.70105117 -27.50039836 11.36356978
v 12.69932412 -25.74944232 11.36560007
v 13.22421784 -31.08420727 16.29886080
v 12.48867671 -25.74944232 16.54115830
v 12.48694967 -32.60283022 16.54183519
v 13.22421784 -34.84248801 16.29818392
v 12.20896387 -34.84248801 10.91619940
v 12.20896387 -33.49922799 10.91822969
v 12.20723533 -32.49957107 10.91822969
v 12.20033013 -26.50074144 10.92364403
v 12.19860308 -25.74944232 10.92499780
v 12.48694967 -34.84248801 16.54183519
v 11.48896019 -25.74944232 16.54928018
v -2.47942874 -34.84248801 16.66975205
v 11.91025799 -31.08420727 10.80790962
v 11.73759515 -34.84248801 10.73955199
v 11.66680267 -25.74944232 10.72263171
v 1.49353391 -25.74944232 16.54995707
v -0.75625817 -25.74944232 16.54995707
v -2.50705476 -25.74944232 16.54928018
v -2.98878277 -34.84248801 16.65283177
v 11.48896019 -25.74944232 10.65562786
v 11.48896019 -34.84248801 10.64750597
v 11.48896019 -31.49991415 10.65021352
v -2.70043693 -25.74944232 16.48904407
v -3.89008079 -34.84248801 16.38210843
v 10.73960567 -25.74944232 10.55816750
v 10.83111674 -34.84248801 10.56831967
v 10.48924515 -33.49922799 10.52703374
v 10.48924515 -26.50074144 10.52635723
v 10.48924515 -25.74944232 10.52635723
v -3.28576235 -25.74944232 16.30630580
v -3.59310122 -25.74944232 15.56316955
v -4.02303052 -34.84248801 16.03016775
v 10.48924515 -34.84248801 10.52771100
v 1.74216739 -32.60193913 9.75547201
v 1.74562073 -31.22930294 9.75547201
v 1.74562073 -31.08509538 9.75547201
v 3.45152532 -25.74944232 10.51485203
v -3.60173421 -25.74944232 15.31410394
v -4.15943434 -34.84248801 14.56284580
v -4.10936194 -34.84248801 15.50902465
v -4.10590859 -34.84248801 15.56316955
v 1.78187975 -34.84248801 9.83668935
v -3.62245354 -32.60193913 9.75547201
v -3.62245354 -31.08509538 9.75547201
v -3.62590689 -25.74944232 10.51485203
v -3.62418059 -25.74944232 14.56352231
v -4.15770730 -34.84248801 10.56493561
v -3.62590689 -25.74944232 10.56493561
v -4.15598100 -34.84248801 9.83668935
f 1 2 3
f 1 3 4
f 1 4 5
f 1 5 6
f 1 6 7
f 1 7 19
f 1 19 29
f 1 29 38
f 1 38 44
f 1 44 49
f 1 49 54
f 1 54 58
f 1 58 66
f 1 66 74
f 1 74 77
f 1 77 75
f 1 75 67
f 1 67 60
f 1 60 59
f 1 59 52
f 1 52 47
f 1 47 46
f 1 46 45
f 1 45 40
f 1 40 31
f 1 31 20
f 1 20 10
f 1 10 8
f 1 8 2
f 2 8 3
f 3 9 4
f 3 8 10
f 3 10 11
f 3 11 9
f 4 9 12
f 4 12 5
f 5 12 13
f 5 13 14
f 5 14 6
f 6 14 15
f 6 15 16
f 6 16 17
f 6 17 7
f 7 17 18
f 7 18 19
f 9 11 12
f 10 20 21
f 10 21 22
f 10 22 11
f 11 22 23
f 11 23 12
f 12 23 21
f 12 21 33
f 12 33 39
f 12 39 41
f 12 41 48
f 12 48 53
f 12 53 61
f 12 61 70
f 12 70 69
f 12 69 68
f 12 68 76
f 12 76 78
f 12 78 71
f 12 71 62
f 12 62 55
f 12 55 50
f 12 50 43
f 12 43 34
f 12 34 24
f 12 24 15
f 12 15 14
f 12 14 13
f 15 24 16
f 16 24 25
f 16 25 17
f 17 25 18
f 18 25 26
f 18 26 27
f 18 27 28
f 18 28 29
f 18 29 19
f 20 30 21
f 20 31 32
f 20 32 39
f 20 39 30
f 21 23 22
f 21 30 33
f 24 34 25
f 25 34 26
f 26 34 27
f 27 34 28
f 28 34 35
f 28 35 36
f 28 36 37
f 28 37 29
f 29 37 38
f 30 39 33
f 31 40 41
f 31 41 32
f 32 41 39
f 34 42 36
f 34 36 35
f 34 43 42
f 36 42 44
f 36 44 37
f 37 44 38
f 40 45 41
f 41 45 46
f 41 46 47
f 41 47 48
f 42 43 49
f 42 49 44
f 43 50 51
f 43 51 49
f 47 52 53
f 47 53 48
f 49 51 54
f 50 55 56
f 50 56 57
f 50 57 58
f 50 58 54
f 50 54 51
f 52 59 53
f 53 59 60
f 53 60 61
f 55 62 56
f 56 62 63
f 56 63 64
f 56 64 57
f 57 64 65
f 57 65 58
f 58 65 66
f 60 67 68
f 60 68 69
f 60 69 70
f 60 70 61
f 62 71 63
f 63 71 78
f 63 78 72
f 63 72 73
f 63 73 65
f 63 65 64
f 65 73 74
f 65 74 66
f 67 75 68
f 68 75 77
f 68 77 74
f 68 74 76
f 72 78 73
f 73 78 74
f 74 78 76

