# https://github.com/mikedh/trimesh
v 9.82941347 11.81826124 -1.07007492
v 9.82941347 2.65695202 -1.07007492
v 9.82941347 11.81826124 -3.47557269
v -3.62603678 11.81826124 -1.07007492
v 9.82941347 2.65695202 -3.40410062
v -9.69073397 2.65695202 -1.07007492
v 9.82941347 9.15551750 -3.47557269
v 7.25946466 3.50088656 -8.02314796
v 7.13526622 4.00312189 -8.02314796
v 7.09896245 4.10446563 -8.02314796
v 1.37055571 11.81826124 -8.02314796
v -3.62603678 11.81826124 -8.02314796
v -9.69073397 9.94653828 -1.44240352
v -9.68500148 9.94653828 -1.07007492
v 7.18876596 2.65695202 -8.02314796
v -9.69073397 9.47300228 -1.07007492
v -9.69073397 2.65695202 -8.02314796
v -9.68500148 9.93936336 -8.02314796
v -9.69073397 9.94653828 -7.45682819
v -9.69073397 9.51605107 -8.02314796
f 1 2 5
f 1 5 7
f 1 7 3
f 1 3 11
f 1 11 12
f 1 12 4
f 1 4 14
f 1 14 16
f 1 16 6
f 1 6 2
f 2 6 17
f 2 17 15
f 2 15 5
f 3 7 8
f 3 8 9
f 3 9 10
f 3 10 11
f 4 12 19
f 4 19 13
f 4 13 14
f 5 15 8
f 5 8 7
f 6 16 13
f 6 13 19
f 6 19 20
f 6 20 17
f 8 15 17
f 8 17 20
f 8 20 18
f 8 18 12
f 8 12 11
f 8 11 10
f 8 10 9
f 12 18 19
f 13 16 14
f 18 20 19

