# https://github.com/mikedh/trimesh
v -37.58068221 -40.49952679 30.62650326
v -37.58068221 -36.50029747 30.62650326
v -37.56305410 -41.49988547 30.62650326
v -47.00349802 -35.40144788 45.06094425
v -37.30302534 -35.73147052 30.62650326
v -46.01185356 -41.99969824 44.04459958
v -37.31183790 -42.17316002 30.62650326
v -46.86246123 -40.49952679 45.28124942
v -47.17097549 -40.49952679 45.77767217
v -47.21945502 -35.40144788 45.41049639
v -46.61565578 -35.40144788 44.63501904
v -36.51411754 -35.45289872 30.62650326
v -36.58904073 -35.47715488 30.62650326
v -45.13039447 -42.11435992 42.86669769
v -45.48297751 -42.16360538 43.64511057
v -46.10440784 -42.06364223 44.54395935
v -47.10486486 -41.14340130 45.87166888
v -37.28539425 -42.23343236 30.62650326
v -47.37811694 -40.49952679 46.54139844
v -47.45744790 -39.49990424 46.54139844
v -47.26793456 -35.40144788 45.50155608
v -46.06914864 -35.40144788 44.05047363
v -35.59739925 -35.45069334 30.62650326
v -45.57112402 -35.40144788 43.60398775
v -44.52659225 -35.40144788 42.98419358
v -43.54376334 -35.40144788 42.56708093
v -44.54422334 -42.25842464 42.53770770
v -44.51337191 -42.44217718 43.54523981
v -45.51382894 -42.30105396 44.54395935
v -46.20577468 -42.12758920 45.54267890
v -47.15334440 -41.21690291 46.54139844
v -36.51411754 -42.47451873 30.62650326
v -47.42219168 -40.49952679 47.54011798
v -47.54559441 -39.49990424 47.54011798
v -47.55000218 -35.50067492 46.54139844
v -47.55000218 -35.40144788 46.54139844
v -43.51291191 -35.40144788 42.56120688
v -42.52567820 -35.40144788 42.55239431
v -4.51710006 -35.45069334 30.62650326
v -43.51291191 -42.47451873 42.54358175
v -30.89480540 -42.90670989 30.62650326
v -44.51337191 -42.47451873 44.54395935
v -45.51382894 -42.36500094 45.54267890
v -46.21899800 -42.12758920 46.54139844
v -46.71702262 -41.71671568 46.54139844
v -47.15775217 -41.21837515 47.54011798
v -47.42219168 -40.49952679 57.54200600
v -47.54559441 -39.49990424 57.54200600
v -47.55000218 -38.50027870 47.54011798
v -47.55000218 -35.40144788 57.54200600
v -42.51245489 -35.40144788 42.55239431
v -4.51710006 -35.45069334 58.54072554
v -3.60038028 -35.46392262 30.62650326
v -40.51153786 -35.40144788 42.55533134
v -37.55864633 -35.40144788 42.57589349
v -36.63311249 -35.40144788 42.63170441
v -35.76046597 -35.40144788 42.79032461
v -35.65028656 -35.40144788 43.73029621
v -35.61502736 -35.40144788 44.68789294
v -35.59739925 -35.40144788 45.54267890
v -30.89480540 -42.90891229 31.42547830
v -11.00464947 -42.90891229 30.62650326
v -44.51337191 -42.47451873 58.54072554
v -45.51382894 -42.36573705 51.54087319
v -46.21899800 -42.12832532 51.54087319
v -46.71702262 -41.71818494 47.54011798
v -47.15775217 -41.21837515 51.54087319
v -47.15775217 -41.21763903 57.54200600
v -47.14012406 -41.19632437 58.54072554
v -47.35608106 -40.49952679 58.54072554
v -47.44863236 -39.49990424 58.54072554
v -47.55000218 -38.50027870 57.54200600
v -47.45304311 -35.50067492 58.54072554
v -47.44863236 -35.40144788 58.54072554
v -4.51710006 -35.48670952 59.54238360
v -3.51664155 -35.46539486 57.54200600
v -35.59739925 -35.40144788 58.54072554
v -35.65028656 -35.40144788 59.54238360
v -5.51755708 -35.45069334 59.54238360
v -3.51664155 -35.46539486 30.62650326
v -30.89480540 -42.90891229 57.54200600
v -9.10510077 -42.90744303 30.62650326
v -9.10510077 -42.90891229 31.54297568
v -44.51337191 -42.30179008 59.54238360
v -45.51382894 -42.36500094 58.54072554
v -45.51382894 -42.36573705 57.54200600
v -30.88599135 -42.90891229 58.54072554
v -30.80225262 -42.90891229 59.12527244
v -30.74054976 -42.90891229 59.54238360
v -30.44966808 -42.90891229 60.17099034
v -29.51091242 -42.90891229 60.45298048
v -46.21899800 -42.12832532 57.54200600
v -46.71702262 -41.71818494 53.54125079
v -46.71702262 -41.71745180 57.54200600
v -46.71261485 -41.69613416 58.54072554
v -47.08282600 -41.11693976 59.17520633
v -47.15334440 -40.49952679 59.27801561
v -47.45304311 -37.50065615 58.54072554
v -47.18419582 -39.49990424 59.31620438
v -47.18419582 -35.50067492 59.31620438
v -47.17979103 -35.40144788 59.30738884
v -5.51755708 -35.72559051 60.32667203
v -4.51710006 -35.76160669 60.27379664
v -3.84278243 -35.86524149 60.15923926
v -3.51223378 -35.73735053 59.53944509
v -3.51664155 -35.50508567 58.54072554
v -2.77180701 -35.74028905 57.54200600
v -2.83350986 -35.71750513 30.62650326
v -36.62870472 -35.40144788 60.20036357
v -36.67718724 -35.40144788 60.23267531
v -37.41320474 -35.40144788 60.28261218
v -4.51710006 -42.35471017 30.62650326
v -9.10510077 -42.90891229 57.54788005
v -45.17005846 -42.04232757 60.08580321
v -45.50501339 -42.17095465 59.57175683
v -28.92033352 -42.90891229 60.57047935
v -46.14407481 -42.08422375 59.26039048
v -46.21459023 -42.12758920 58.54072554
v -46.50106562 -41.51311475 59.55119617
v -46.18814657 -41.24336445 60.16217480
v -46.78753804 -40.49952679 59.78031390
v -46.79635358 -39.49990424 59.81556117
v -46.79635358 -36.50029747 59.81556117
v -46.66413234 -35.50067492 59.81556117
v -46.63769166 -35.40144788 59.79793605
v -5.51755708 -36.50029747 60.62334878
v -37.51457457 -35.50067492 60.34135864
v -4.51710006 -36.50029747 60.50879140
v -3.75463592 -36.50029747 60.21798870
v -3.25661130 -36.50029747 59.78324943
v -2.91724859 -35.87994301 59.20164403
v -2.82028803 -35.77997986 58.54072554
v -2.74977113 -35.80423602 30.62650326
v -2.77180701 -35.74028905 30.62650326
v -2.52499858 -36.50029747 57.54200600
v -38.31670270 -35.40144788 60.28554772
v -4.45980498 -42.33486477 30.62650326
v -4.51710006 -42.35471017 57.54200600
v -4.51710006 -42.35397703 58.54072554
v -9.11391632 -42.90891229 58.54072554
v -44.51337191 -41.49988547 60.40598212
v -45.50501339 -41.54619241 60.25911003
v -45.83556055 -41.91002585 59.92718302
v -28.51045540 -42.90891229 60.62041324
v -45.51382894 -40.49952679 60.52054248
v -46.28510564 -40.49952679 60.22386275
v -46.29832896 -39.49990424 60.22679828
v -46.29832896 -36.50029747 60.22679828
v -46.16611069 -35.50067492 60.13867860
v -46.13525926 -35.40144788 60.12105347
v -6.51801411 -37.50065615 60.63509986
v -5.51755708 -37.50065615 60.63216432
v -38.51062382 -36.50029747 60.63216432
v -44.51337191 -35.50067492 60.34135864
v -4.51710006 -38.50027870 60.51466545
v -3.75463592 -39.49990424 60.21798870
v -3.25661130 -39.49990424 59.78324943
v -2.86876757 -36.50029747 59.28389264
v -2.62195914 -36.50029747 58.54072554
v -2.52499858 -36.50029747 30.62650326
v -2.52499858 -38.50027870 57.54200600
v -44.51337191 -35.40144788 60.28554772
v -3.83396688 -42.11803456 30.62650326
v -3.83396688 -42.11803456 57.54200600
v -3.83837465 -42.11729844 58.54072554
v -3.90007751 -42.07760762 59.24570387
v -4.53032189 -42.16581075 59.56294426
v -9.57668324 -42.90891229 60.17979993
v -9.32987332 -42.90891229 59.67750462
v -9.26817196 -42.90891229 59.54238360
v -44.51337191 -40.49952679 60.63216432
v -27.92428427 -42.90891229 60.62922581
v -45.51382894 -39.49990424 60.52347802
v -45.51382894 -36.50029747 60.52347802
v -45.51382894 -35.50067492 60.28848623
v -45.51382894 -35.40144788 60.24148490
v -6.51801411 -39.49990424 60.63509986
v -43.51291191 -37.50065615 60.63509986
v -5.51755708 -40.49952679 60.63216432
v -44.51337191 -36.50029747 60.63216432
v -4.51710006 -39.49990424 60.51466545
v -4.51710006 -40.49952679 60.50879140
v -3.76785775 -40.49952679 60.21211167
v -3.26542535 -40.49952679 59.74212811
v -2.86876757 -39.49990424 59.28389264
v -2.62195914 -38.50027870 58.54072554
v -2.52499858 -38.50027870 30.62650326
v -2.52940635 -39.49990424 57.54200600
v -3.33153448 -41.68731563 30.62650326
v -3.33153448 -41.68731563 57.54200600
v -3.33594226 -41.66379559 58.54072554
v -2.96132184 -41.09341972 59.14583311
v -3.54749297 -41.49400546 59.52769401
v -4.20418101 -41.89532434 59.90955789
v -4.87409087 -42.04159443 60.08580321
v -9.99096913 -42.90891229 60.30904690
v -43.51291191 -39.49990424 60.63509986
v -27.51440466 -42.90891229 60.63509986
v -12.51635294 -42.90891229 60.63509986
v -5.51755708 -41.49988547 60.40304361
v -11.51589592 -42.90891229 60.62041324
v -3.86041054 -41.22866293 60.15336521
v -4.53032189 -41.53663479 60.25323896
v -2.89961899 -40.49952679 59.24276535
v -2.62636691 -39.49990424 58.54072554
v -2.52940635 -39.49990424 30.62650326
v -2.71891970 -40.49952679 58.54072554
v -2.65281057 -40.49952679 57.54200600
v -2.53822041 -39.58369662 30.62650326
v -2.89521122 -41.18750286 30.62650326
v -2.89521122 -41.18750286 53.54125079
v -2.89521122 -41.18676674 57.54200600
v -2.91284082 -41.16324670 58.54072554
v -10.51543890 -42.90891229 60.45885751
v -2.67044017 -40.55759376 30.62650326
v -2.65281057 -40.49952679 30.62650326
f 1 2 5
f 1 5 13
f 1 13 12
f 1 12 23
f 1 23 39
f 1 39 53
f 1 53 80
f 1 80 108
f 1 108 134
f 1 134 133
f 1 133 160
f 1 160 187
f 1 187 206
f 1 206 209
f 1 209 216
f 1 216 215
f 1 215 210
f 1 210 189
f 1 189 163
f 1 163 137
f 1 137 112
f 1 112 82
f 1 82 62
f 1 62 41
f 1 41 32
f 1 32 18
f 1 18 7
f 1 7 3
f 1 3 4
f 1 4 2
f 2 4 5
f 3 6 4
f 3 7 6
f 4 6 8
f 4 8 9
f 4 9 10
f 4 10 21
f 4 21 36
f 4 36 50
f 4 50 74
f 4 74 101
f 4 101 125
f 4 125 150
f 4 150 176
f 4 176 162
f 4 162 136
f 4 136 111
f 4 111 110
f 4 110 109
f 4 109 78
f 4 78 77
f 4 77 60
f 4 60 59
f 4 59 58
f 4 58 57
f 4 57 56
f 4 56 55
f 4 55 54
f 4 54 51
f 4 51 38
f 4 38 37
f 4 37 26
f 4 26 25
f 4 25 24
f 4 24 22
f 4 22 11
f 4 11 12
f 4 12 13
f 4 13 5
f 6 14 15
f 6 15 16
f 6 16 17
f 6 17 9
f 6 9 8
f 6 7 18
f 6 18 14
f 9 17 19
f 9 19 20
f 9 20 21
f 9 21 10
f 11 22 12
f 12 22 24
f 12 24 25
f 12 25 26
f 12 26 23
f 14 18 15
f 15 18 27
f 15 27 28
f 15 28 29
f 15 29 16
f 16 29 30
f 16 30 31
f 16 31 17
f 17 31 19
f 18 32 27
f 19 31 33
f 19 33 34
f 19 34 20
f 20 34 35
f 20 35 21
f 21 35 36
f 23 26 37
f 23 37 38
f 23 38 51
f 23 51 39
f 27 32 28
f 28 40 41
f 28 41 42
f 28 42 43
f 28 43 29
f 28 32 40
f 29 43 30
f 30 43 44
f 30 44 45
f 30 45 31
f 31 45 46
f 31 46 33
f 32 41 40
f 33 46 67
f 33 67 47
f 33 47 48
f 33 48 34
f 34 48 72
f 34 72 49
f 34 49 35
f 35 49 72
f 35 72 50
f 35 50 36
f 39 52 53
f 39 51 54
f 39 54 55
f 39 55 56
f 39 56 57
f 39 57 58
f 39 58 59
f 39 59 60
f 39 60 77
f 39 77 52
f 41 61 42
f 41 62 61
f 42 63 86
f 42 86 64
f 42 64 43
f 42 61 81
f 42 81 63
f 43 64 65
f 43 65 44
f 44 66 45
f 44 65 66
f 45 66 46
f 46 66 93
f 46 93 67
f 47 67 68
f 47 68 69
f 47 69 70
f 47 70 48
f 48 71 72
f 48 70 71
f 50 72 98
f 50 98 73
f 50 73 74
f 52 75 76
f 52 76 53
f 52 77 78
f 52 78 79
f 52 79 75
f 53 76 80
f 61 62 83
f 61 83 113
f 61 113 140
f 61 140 170
f 61 170 169
f 61 169 168
f 61 168 196
f 61 196 214
f 61 214 201
f 61 201 199
f 61 199 198
f 61 198 172
f 61 172 144
f 61 144 116
f 61 116 91
f 61 91 90
f 61 90 89
f 61 89 88
f 61 88 87
f 61 87 81
f 62 82 83
f 63 84 85
f 63 85 86
f 63 81 87
f 63 87 88
f 63 88 89
f 63 89 90
f 63 90 91
f 63 91 84
f 64 86 92
f 64 92 65
f 65 92 93
f 65 93 66
f 67 93 68
f 68 93 94
f 68 94 95
f 68 95 69
f 69 96 70
f 69 95 96
f 70 96 97
f 70 97 71
f 71 98 72
f 71 97 99
f 71 99 98
f 73 98 99
f 73 99 100
f 73 100 74
f 74 100 101
f 75 79 102
f 75 102 103
f 75 103 104
f 75 104 105
f 75 105 106
f 75 106 76
f 76 106 107
f 76 107 108
f 76 108 80
f 78 109 79
f 79 109 110
f 79 110 111
f 79 111 102
f 82 112 83
f 83 112 138
f 83 138 113
f 84 114 115
f 84 115 85
f 84 91 116
f 84 116 114
f 85 115 117
f 85 117 118
f 85 118 92
f 85 92 86
f 92 118 94
f 92 94 93
f 94 118 95
f 95 118 117
f 95 117 96
f 96 117 119
f 96 119 120
f 96 120 121
f 96 121 97
f 97 121 99
f 99 121 122
f 99 122 123
f 99 123 100
f 100 123 124
f 100 124 101
f 101 124 125
f 102 126 103
f 102 111 127
f 102 127 126
f 103 126 128
f 103 128 104
f 104 128 129
f 104 129 130
f 104 130 131
f 104 131 105
f 105 131 106
f 106 131 132
f 106 132 107
f 107 133 134
f 107 134 108
f 107 132 135
f 107 135 133
f 111 136 127
f 112 137 138
f 113 138 139
f 113 139 140
f 114 141 142
f 114 142 143
f 114 143 115
f 114 116 144
f 114 144 141
f 115 143 117
f 117 143 119
f 119 143 120
f 120 143 142
f 120 142 145
f 120 145 146
f 120 146 121
f 121 146 122
f 122 146 147
f 122 147 148
f 122 148 123
f 123 148 124
f 124 148 149
f 124 149 125
f 125 149 150
f 126 151 152
f 126 152 128
f 126 127 153
f 126 153 151
f 127 136 162
f 127 162 154
f 127 154 180
f 127 180 153
f 128 152 155
f 128 155 129
f 129 155 181
f 129 181 156
f 129 156 157
f 129 157 130
f 130 157 185
f 130 185 158
f 130 158 131
f 131 158 159
f 131 159 132
f 132 159 135
f 133 135 160
f 135 161 187
f 135 187 160
f 135 159 186
f 135 186 161
f 137 163 164
f 137 164 138
f 138 164 139
f 139 164 165
f 139 165 166
f 139 166 167
f 139 167 168
f 139 168 169
f 139 169 170
f 139 170 140
f 141 171 145
f 141 145 142
f 141 144 171
f 144 172 171
f 145 173 147
f 145 147 146
f 145 171 173
f 147 173 174
f 147 174 148
f 148 174 149
f 149 174 175
f 149 175 150
f 150 175 176
f 151 177 179
f 151 179 152
f 151 153 180
f 151 180 178
f 151 178 197
f 151 197 198
f 151 198 199
f 151 199 177
f 152 179 181
f 152 181 155
f 154 162 176
f 154 176 175
f 154 175 180
f 156 181 182
f 156 182 183
f 156 183 157
f 157 183 184
f 157 184 185
f 158 185 186
f 158 186 159
f 161 188 206
f 161 206 187
f 161 186 205
f 161 205 188
f 163 189 190
f 163 190 164
f 164 190 165
f 165 190 191
f 165 191 166
f 166 191 192
f 166 192 193
f 166 193 194
f 166 194 167
f 167 194 195
f 167 195 168
f 168 195 196
f 171 197 178
f 171 178 180
f 171 180 174
f 171 174 173
f 171 172 198
f 171 198 197
f 174 180 175
f 177 199 179
f 179 200 182
f 179 182 181
f 179 199 201
f 179 201 200
f 182 202 183
f 182 200 203
f 182 203 202
f 183 202 184
f 184 192 204
f 184 204 185
f 184 202 192
f 185 204 205
f 185 205 186
f 188 205 207
f 188 207 208
f 188 208 209
f 188 209 206
f 189 210 211
f 189 211 190
f 190 211 212
f 190 212 191
f 191 212 213
f 191 213 192
f 192 213 207
f 192 207 204
f 192 202 193
f 193 202 194
f 194 202 203
f 194 203 195
f 195 203 200
f 195 200 201
f 195 201 214
f 195 214 196
f 204 207 205
f 207 213 208
f 208 213 212
f 208 212 215
f 208 215 216
f 208 216 209
f 210 215 211
f 211 215 212

