# https://github.com/mikedh/trimesh
v -28.94120458 34.82590642 58.56067405
v -24.97986261 35.45077805 59.56367479
v -28.94120458 34.92853078 59.55565200
v -28.94120458 34.82818630 29.44154721
v -24.97986261 35.45077805 19.64824413
v -24.97986261 35.72558244 60.34200463
v -28.94120458 35.00264920 60.02906814
v -28.94120458 34.82932773 19.64824413
v -24.97986261 46.47495578 19.64824413
v -24.97986261 36.13608286 60.49446149
v -28.94120458 35.14518485 60.29787333
v -28.94120458 46.47381733 19.64824413
v -25.50848162 46.47495578 33.56588786
v -24.97986261 46.47495578 45.03219673
v -24.97986261 36.50097079 60.62685540
v -28.94120458 36.06766563 60.57470131
v -28.94120458 46.47381733 58.56067405
v -25.50848162 46.47495578 42.56080190
v -24.97986261 46.47381733 58.56067405
v -24.97986261 37.03005770 60.63086680
v -28.50838072 36.50097079 60.63086680
v -28.94120458 36.50097079 60.63086680
v -28.94120458 46.39285629 58.99397326
v -24.97986261 46.38601367 59.03409317
v -24.97986261 44.49999939 60.63086680
v -27.50815607 37.50099130 60.63488117
v -28.94120458 40.50105581 60.63086680
v -28.94120458 46.28566919 59.56367479
v -24.97986261 46.28681062 59.56367479
v -28.50838072 44.49999939 60.63086680
v -24.97986261 45.50001990 60.39817310
v -28.94120458 44.49999939 60.62685540
v -28.94120458 46.04735180 60.11331936
v -28.50838072 46.04849323 60.11331936
v -24.97986261 46.04849323 60.11331936
v -25.50848162 45.50001990 60.39817310
v -28.94120458 45.50001990 60.39415873
f 1 2 3
f 1 3 7
f 1 7 11
f 1 11 16
f 1 16 22
f 1 22 27
f 1 27 32
f 1 32 37
f 1 37 33
f 1 33 28
f 1 28 23
f 1 23 17
f 1 17 12
f 1 12 8
f 1 8 4
f 1 4 5
f 1 5 2
f 2 6 7
f 2 7 3
f 2 5 9
f 2 9 14
f 2 14 19
f 2 19 24
f 2 24 29
f 2 29 35
f 2 35 31
f 2 31 25
f 2 25 20
f 2 20 15
f 2 15 10
f 2 10 6
f 4 8 5
f 5 8 12
f 5 12 9
f 6 10 11
f 6 11 7
f 9 12 13
f 9 13 18
f 9 18 14
f 10 15 11
f 11 15 16
f 12 17 18
f 12 18 13
f 14 18 17
f 14 17 19
f 15 20 21
f 15 21 16
f 16 21 22
f 17 23 24
f 17 24 19
f 20 25 26
f 20 26 21
f 21 26 22
f 22 26 27
f 23 28 29
f 23 29 24
f 25 30 26
f 25 31 36
f 25 36 30
f 26 30 27
f 27 30 32
f 28 33 34
f 28 34 29
f 29 34 35
f 30 36 37
f 30 37 32
f 31 35 34
f 31 34 36
f 33 37 34
f 34 37 36

