# https://github.com/mikedh/trimesh
v 1.92827406 -4.27554485 13.95014917
v 11.49132649 -4.27554485 13.95014917
v 1.92827406 -4.27554485 16.54982855
v 1.92827406 22.46136396 13.90167045
v 12.27232960 -4.27554485 13.95196339
v 11.49132649 22.50966312 13.90167045
v 12.46334174 22.52576384 13.90167045
v 12.49046783 22.53113124 13.90167045
v 12.97421644 22.66529839 13.90167045
v 13.09741336 22.77263152 13.90167045
v 11.49132649 -4.27554485 16.54982855
v 1.92827406 42.93533182 16.54982855
v 1.92827406 50.53994731 13.90167045
v 12.49046783 -4.27554485 13.95248195
v 13.20365721 23.25563507 13.90167045
v 12.49046783 -4.27554485 16.54179197
v 11.49132649 48.49523258 16.54982855
v 2.49226845 43.49883447 16.54982855
v 1.92827406 43.93353737 16.54956927
v 1.92827406 50.53994731 14.56403417
v 7.49249914 50.53994731 13.90167045
v 13.06802676 -4.27554485 14.00925615
v 13.39580035 24.15724080 13.90167045
v 13.47378711 25.16081375 13.90167045
v 12.65209487 -4.27554485 16.48864732
v 12.49046783 48.49523258 16.54179197
v 11.49132649 49.49880553 16.54956927
v 10.49105416 48.49523258 16.54982855
v 8.49051097 47.49702704 16.54982855
v 4.49168213 45.49524556 16.54956927
v 5.49195446 46.49882149 16.54930999
v 6.49222680 47.49702704 16.54905108
v 1.92827406 44.93174291 16.54879180
v 10.49105416 50.53994731 14.56403417
v 1.92827406 50.53458289 15.12736769
v 10.49105416 50.53458289 13.90167045
v 13.25677839 -4.27554485 14.44244956
v 13.47378711 28.49890236 13.90167045
v 13.47491662 24.49534388 14.56403417
v 13.46700559 -4.27554485 15.56367171
v 13.30877006 -4.27554485 14.56403417
v 13.22513128 -4.27554485 16.29888204
v 13.22513128 35.49708194 16.29888204
v 13.22513128 48.49523258 16.29862313
v 12.49046783 49.49880553 16.43135493
v 11.49132649 50.25551377 16.30665970
v 10.49105416 49.49880553 16.54930999
v 3.49254079 46.49882149 16.54827324
v 8.49051097 49.49880553 16.54827324
v 7.49249914 49.49880553 16.54775468
v 1.92827406 49.49880553 16.54464368
v 1.92827406 48.93530288 16.54516225
v 11.49132649 50.53458289 14.56403417
v 11.49132649 50.52921250 15.56367171
v 1.92827406 50.52921250 15.56367171
v 11.49132649 50.52921250 13.90167045
v 13.47265611 31.49888938 13.90167045
v 13.47378711 35.49708194 14.56403417
v 13.46700559 42.49525855 15.56367171
v 13.27825396 -4.27554485 16.13789278
v 13.46474508 46.49882149 15.56367171
v 13.46361408 48.49523258 15.56367171
v 13.11436791 49.49880553 16.18818572
v 12.99908202 50.00327869 16.07308237
v 12.49046783 50.13207248 16.19233383
v 8.49051097 50.25551377 16.30588186
v 7.49249914 50.25551377 16.30562258
v 2.49226845 50.25551377 16.30406690
v 1.92827406 50.25551377 16.30380799
v 12.49046783 50.27697742 14.56403417
v 12.49046783 50.27697742 15.56367171
v 12.55376204 50.23404417 13.90167045
v 13.47152660 33.49530345 13.90167045
v 13.47039560 41.49705300 14.56403417
v 13.47265611 37.49886043 14.56403417
v 13.46813510 43.49883447 14.56403417
v 13.46474508 46.49882149 14.56403417
v 13.46248457 48.49523258 14.56403417
v 13.23869433 49.49880553 15.56367171
v 13.00360155 50.00864311 15.56367171
v 13.00021153 50.00864311 14.56403417
v 12.94821986 50.03011271 13.90167045
v 13.47039560 35.15898035 13.90167045
v 13.46926610 36.49528749 13.90167045
v 13.46474508 41.49705300 13.90167045
v 13.46248457 43.49883447 13.90167045
v 13.45909307 46.49882149 13.90167045
v 13.45683256 48.49523258 13.90167045
v 13.23643382 49.49880553 14.56403417
v 13.01829559 49.95497505 13.90167045
v 12.99569052 50.00327869 13.90167045
v 13.19913619 49.55784099 13.90167045
f 1 2 5
f 1 5 14
f 1 14 22
f 1 22 37
f 1 37 41
f 1 41 40
f 1 40 60
f 1 60 42
f 1 42 25
f 1 25 16
f 1 16 11
f 1 11 3
f 1 3 12
f 1 12 19
f 1 19 33
f 1 33 52
f 1 52 51
f 1 51 69
f 1 69 55
f 1 55 35
f 1 35 20
f 1 20 13
f 1 13 4
f 1 4 2
f 2 4 6
f 2 6 7
f 2 7 8
f 2 8 9
f 2 9 10
f 2 10 5
f 3 11 17
f 3 17 28
f 3 28 29
f 3 29 18
f 3 18 12
f 4 13 21
f 4 21 36
f 4 36 56
f 4 56 72
f 4 72 82
f 4 82 91
f 4 91 90
f 4 90 92
f 4 92 88
f 4 88 87
f 4 87 86
f 4 86 85
f 4 85 84
f 4 84 83
f 4 83 73
f 4 73 57
f 4 57 38
f 4 38 24
f 4 24 23
f 4 23 15
f 4 15 10
f 4 10 9
f 4 9 8
f 4 8 7
f 4 7 6
f 5 10 14
f 10 15 14
f 11 16 26
f 11 26 17
f 12 18 19
f 13 20 34
f 13 34 21
f 14 15 23
f 14 23 24
f 14 24 22
f 16 25 26
f 17 26 27
f 17 27 28
f 18 29 19
f 19 29 30
f 19 30 31
f 19 31 32
f 19 32 33
f 20 35 34
f 21 34 36
f 22 24 37
f 24 38 39
f 24 39 40
f 24 40 41
f 24 41 37
f 25 42 43
f 25 43 26
f 26 43 44
f 26 44 45
f 26 45 27
f 27 45 46
f 27 46 66
f 27 66 47
f 27 47 29
f 27 29 28
f 29 47 31
f 29 31 30
f 31 47 32
f 32 48 33
f 32 47 49
f 32 49 50
f 32 50 51
f 32 51 52
f 32 52 48
f 33 48 52
f 34 53 56
f 34 56 36
f 34 35 54
f 34 54 53
f 35 55 54
f 38 57 58
f 38 58 39
f 39 58 59
f 39 59 40
f 40 59 60
f 42 60 43
f 43 59 44
f 43 60 59
f 44 61 62
f 44 62 63
f 44 63 45
f 44 59 61
f 45 63 64
f 45 64 65
f 45 65 46
f 46 65 54
f 46 54 55
f 46 55 66
f 47 66 67
f 47 67 68
f 47 68 69
f 47 69 49
f 49 69 50
f 50 69 51
f 53 70 56
f 53 54 71
f 53 71 70
f 54 65 71
f 55 69 68
f 55 68 67
f 55 67 66
f 56 70 72
f 57 73 74
f 57 74 75
f 57 75 58
f 58 75 61
f 58 61 59
f 61 75 74
f 61 74 62
f 62 74 76
f 62 76 77
f 62 77 78
f 62 78 79
f 62 79 63
f 63 79 64
f 64 79 80
f 64 80 71
f 64 71 65
f 70 80 81
f 70 81 82
f 70 82 72
f 70 71 80
f 73 83 74
f 74 83 84
f 74 84 85
f 74 85 86
f 74 86 76
f 76 86 87
f 76 87 77
f 77 87 88
f 77 88 78
f 78 88 89
f 78 89 79
f 79 89 80
f 80 89 81
f 81 89 90
f 81 90 91
f 81 91 82
f 88 92 89
f 89 92 90

