# https://github.com/mikedh/trimesh
v -37.54883538 -40.49979204 17.56862610
v -37.57996099 -40.49979204 30.62522549
v -37.58342105 -39.49976715 30.62522549
v -37.54883538 -36.50041370 17.56862610
v -37.53154404 -41.49981990 17.56862610
v -37.56266965 -41.49981990 30.62522549
v -37.58342105 -37.50044157 30.62522549
v -37.57996099 -36.50041370 30.62522549
v -37.27907614 -35.72902673 17.56862610
v -37.27215901 -42.21861462 17.56862610
v -37.31365883 -42.17332394 30.62522549
v -37.30328462 -35.73121720 30.62522549
v -36.51475531 -35.45363484 17.56862610
v -37.26524188 -42.23687453 17.56862610
v -37.28599328 -42.23395390 30.62522549
v -36.59084080 -35.47773900 30.62522549
v -36.51475531 -35.45290468 30.54213570
v -35.53946640 -35.45071420 17.56862610
v -36.51475531 -42.47428329 17.56862610
v -36.51475531 -42.47428329 30.62522549
v -36.51475531 -35.45290468 30.62522549
v -35.59826054 -35.45071420 30.62522549
v -3.54173888 -35.44706043 17.56862610
v -30.89474729 -42.90964841 17.56862610
v -30.89474729 -42.90964841 30.54213570
v -30.89474729 -42.90672777 30.62522549
v -4.51702630 -35.45071420 30.62522549
v -3.60053302 -35.46386301 30.62522549
v -3.51753041 -35.46532333 30.62522549
v -3.51753041 -35.44779059 17.56862610
v -9.10641059 -42.90964841 17.56862610
v -11.00510842 -42.90964841 30.62522549
v -2.77050092 -35.73998208 30.62522549
v -2.68058117 -35.71879855 17.56862610
v -4.51702630 -42.41219003 17.56862610
v -9.10641059 -42.90964841 30.54980609
v -9.10641059 -42.90745793 30.62522549
v -2.66328834 -35.72537295 17.56862610
v -2.74974952 -35.80426582 30.62522549
v -2.26210655 -36.57784327 17.56862610
v -3.57286449 -42.14483584 17.56862610
v -4.51702630 -42.35448367 30.62522549
v -2.52840872 -36.50041370 30.62522549
v -2.25173085 -39.46397151 17.56862610
v -3.83224952 -42.11853822 30.62522549
v -4.45823216 -42.33476046 30.62522549
v -3.41377639 -42.00166221 17.56862610
v -3.33077229 -41.68755405 30.62522549
v -3.37227360 -41.72407985 30.62522549
v -2.52840872 -39.49976715 30.62522549
v -2.64945407 -40.49979204 30.62522549
v -2.26902369 -39.57719672 17.56862610
v -2.98492608 -41.60574055 17.56862610
v -2.82237792 -41.44503419 17.56862610
v -2.89500633 -41.18790519 30.62522549
v -2.41427901 -40.51659462 17.56862610
v -2.41082044 -40.49979204 17.56862610
f 1 2 3
f 1 3 7
f 1 7 4
f 1 4 9
f 1 9 13
f 1 13 18
f 1 18 23
f 1 23 30
f 1 30 34
f 1 34 38
f 1 38 40
f 1 40 44
f 1 44 52
f 1 52 57
f 1 57 56
f 1 56 54
f 1 54 53
f 1 53 47
f 1 47 41
f 1 41 35
f 1 35 31
f 1 31 24
f 1 24 19
f 1 19 14
f 1 14 10
f 1 10 5
f 1 5 6
f 1 6 2
f 2 6 11
f 2 11 15
f 2 15 20
f 2 20 26
f 2 26 32
f 2 32 37
f 2 37 42
f 2 42 46
f 2 46 45
f 2 45 49
f 2 49 48
f 2 48 55
f 2 55 51
f 2 51 50
f 2 50 43
f 2 43 39
f 2 39 33
f 2 33 29
f 2 29 28
f 2 28 27
f 2 27 22
f 2 22 21
f 2 21 16
f 2 16 12
f 2 12 8
f 2 8 7
f 2 7 3
f 4 7 8
f 4 8 9
f 5 10 6
f 6 10 11
f 8 12 9
f 9 12 13
f 10 14 11
f 11 14 15
f 12 16 13
f 13 16 17
f 13 17 18
f 14 19 15
f 15 19 20
f 16 21 17
f 17 21 22
f 17 22 18
f 18 22 23
f 19 24 25
f 19 25 20
f 20 25 26
f 22 27 23
f 23 27 28
f 23 28 29
f 23 29 30
f 24 31 36
f 24 36 32
f 24 32 25
f 25 32 26
f 29 33 34
f 29 34 30
f 31 35 36
f 32 36 37
f 33 38 34
f 33 39 40
f 33 40 38
f 35 41 42
f 35 42 36
f 36 42 37
f 39 43 40
f 40 43 44
f 41 45 46
f 41 46 42
f 41 47 48
f 41 48 49
f 41 49 45
f 43 50 44
f 44 50 51
f 44 51 52
f 47 53 48
f 48 53 54
f 48 54 55
f 51 55 56
f 51 56 57
f 51 57 52
f 54 56 55

