# https://github.com/mikedh/trimesh
v -8.92679163 -25.03295779 -8.37711681
v -3.62333147 -27.79134110 -8.37711681
v -8.92679163 -25.03295779 0.06319195
v -8.92679163 -7.52020418 -8.37711681
v 1.35674677 -27.79134110 -8.37711681
v -3.62333147 -27.79134110 0.06319195
v -8.92679163 -7.52020418 0.06319195
v 1.35674677 -7.52020418 -8.37711681
v 8.46093279 -27.79134110 -3.54971505
v 8.46093279 -27.79134110 0.06319195
v 8.46093279 -7.52020418 0.06319195
v 7.17251174 -7.52020418 -4.14291657
v 8.46093279 -8.50052149 -3.38282767
v 8.46093279 -9.47290095 -3.53567217
v 8.46093279 -9.50068347 -3.53814875
v 8.46093279 -10.50084545 -3.54971505
v 8.46093279 -7.52020418 -3.11431715
v 8.46093279 -7.53409507 -3.13579871
f 1 2 6
f 1 6 3
f 1 3 7
f 1 7 4
f 1 4 8
f 1 8 5
f 1 5 2
f 2 5 9
f 2 9 10
f 2 10 6
f 3 6 10
f 3 10 11
f 3 11 7
f 4 7 11
f 4 11 17
f 4 17 12
f 4 12 8
f 5 8 16
f 5 16 9
f 8 12 13
f 8 13 14
f 8 14 15
f 8 15 16
f 9 16 15
f 9 15 14
f 9 14 13
f 9 13 18
f 9 18 17
f 9 17 11
f 9 11 10
f 12 17 18
f 12 18 13

