# https://github.com/mikedh/trimesh
v -1.50751854 -22.41038514 13.89528083
v -2.50804420 -22.46105061 10.58239010
v -1.59675941 -22.41038514 13.89528083
v 11.49073343 -22.48622017 13.89528083
v -1.50751854 -22.62775894 10.58239010
v -3.50685324 -22.60781968 10.58239010
v -2.50804420 -22.50648726 13.89528083
v 12.49126058 -22.52544602 13.89528083
v 11.20928311 -23.98364621 11.03768566
v 10.49020926 -24.49978549 10.75523398
v 10.49020926 -25.25258367 10.58239010
v -4.05259444 -23.50280929 10.58239010
v -3.13959379 -22.76995038 13.89528083
v -3.01602956 -22.65881149 13.89528083
v 13.09878426 -22.78629398 13.89528083
v 11.87515680 -24.03038969 11.18004623
v 11.52162504 -24.41806599 10.88494793
v 10.92783130 -25.49970467 10.58239010
v -3.62698499 -25.74453686 10.58239010
v -3.62526912 -25.74943934 13.89528083
v -3.62526912 -25.49970467 13.89528083
v -3.62012076 -25.16857683 13.89528083
v -3.50170489 -24.16833281 13.89528083
v 13.42485465 -24.49978549 13.89528083
v 13.40082800 -24.49978549 13.56386241
v 13.17601107 -24.42656561 12.50831567
v 13.07475762 -24.71094849 11.93238694
v 12.84650745 -24.04477230 12.13830695
v 12.12914873 -24.69689370 10.97153117
v 11.49073343 -25.49970467 10.65535368
v 10.92954791 -25.60920741 10.58239010
v -3.62355325 -25.74943934 11.31462466
v -3.62526912 -25.74943934 12.31439408
v -1.42342602 -25.74943934 10.58239010
v 13.47805630 -25.74943934 13.89528083
v 13.47805630 -25.49970467 13.89528083
v 13.47977142 -25.49970467 13.56386241
v 13.36307291 -25.49970467 12.56376889
v 13.11766107 -25.49970467 11.86590835
v 12.69891732 -25.49970467 11.36586158
v 12.19779544 -25.49970467 10.92451053
v 11.49073343 -25.74943934 10.65535368
v 12.19951057 -25.74943934 10.92418569
v 10.92954791 -25.74943934 10.58239010
v 13.47805630 -25.74943934 13.56386241
v 13.39224791 -25.74943934 12.81314370
v 13.36307291 -25.74943934 12.56376889
v 13.17944430 -25.74943934 12.04004938
v 13.11766107 -25.74943934 11.86525940
v 12.80360251 -25.74943934 11.49006209
v 12.69891732 -25.74943934 11.36521264
f 1 2 3
f 1 3 7
f 1 7 14
f 1 14 13
f 1 13 23
f 1 23 22
f 1 22 21
f 1 21 20
f 1 20 35
f 1 35 36
f 1 36 24
f 1 24 15
f 1 15 8
f 1 8 4
f 1 4 2
f 2 5 11
f 2 11 18
f 2 18 31
f 2 31 44
f 2 44 34
f 2 34 19
f 2 19 12
f 2 12 6
f 2 6 7
f 2 7 3
f 2 4 8
f 2 8 9
f 2 9 5
f 5 9 10
f 5 10 11
f 6 12 13
f 6 13 14
f 6 14 7
f 8 15 16
f 8 16 9
f 9 16 17
f 9 17 10
f 10 17 11
f 11 17 18
f 12 19 20
f 12 20 21
f 12 21 22
f 12 22 23
f 12 23 13
f 15 24 25
f 15 25 26
f 15 26 27
f 15 27 28
f 15 28 16
f 16 29 17
f 16 28 29
f 17 29 30
f 17 30 18
f 18 30 31
f 19 32 33
f 19 33 20
f 19 34 32
f 20 33 32
f 20 32 34
f 20 34 44
f 20 44 42
f 20 42 43
f 20 43 51
f 20 51 50
f 20 50 49
f 20 49 48
f 20 48 47
f 20 47 46
f 20 46 45
f 20 45 35
f 24 36 37
f 24 37 25
f 25 37 38
f 25 38 26
f 26 38 27
f 27 38 39
f 27 39 40
f 27 40 29
f 27 29 28
f 29 40 41
f 29 41 30
f 30 42 44
f 30 44 31
f 30 41 43
f 30 43 42
f 35 45 37
f 35 37 36
f 37 45 46
f 37 46 38
f 38 46 47
f 38 47 48
f 38 48 39
f 39 49 50
f 39 50 40
f 39 48 49
f 40 50 51
f 40 51 43
f 40 43 41

