# https://github.com/mikedh/trimesh
v -38.18363208 -25.06419665 6.09558746
v -38.29403799 -24.54891644 17.56795741
v -38.18363208 -16.37971399 6.09558746
v -37.51376394 -25.03640593 6.09558746
v -37.51376394 -24.77471419 37.48330120
v -38.29403799 -24.78281895 37.48330120
v -38.29403799 -17.47280129 17.56795741
v -37.38047875 -14.09395772 6.09558746
v -38.29403799 -16.76646248 37.47715595
v -37.42509887 -13.23593224 37.48330120
v -37.42452667 -13.23593224 36.54007369
v -36.96288181 -24.98545726 6.09558746
v -34.51508999 -24.54891644 34.53993525
v -36.59734368 -24.62881365 37.48330120
v -34.51508999 -24.52460068 35.54153892
v -34.51508999 -24.43659723 36.54007369
v -38.29403799 -16.84751751 37.48330120
v -37.22945816 -13.76279067 6.09558746
v -32.45114391 -13.23593224 37.48330120
v -37.30439625 -13.23593224 35.80576684
v -36.51439769 -13.48835990 6.09558746
v -33.76513689 -24.06490192 6.09558746
v -33.52315943 -24.10658651 6.63018855
v -33.51572373 -24.25364487 7.54576541
v -33.51572373 -24.33817337 8.54429720
v -33.51572373 -24.36249062 9.54590161
v -34.51508999 -24.54891644 9.54590161
v -33.51515153 -24.36249062 34.53993525
v -33.51515153 -24.33933119 35.54153892
v -33.53574497 -24.10427086 37.48330120
v -33.51515153 -24.25364487 36.54007369
v -32.45286052 -13.23593224 36.54007369
v -32.44999949 -14.50154999 37.48330120
v -32.44999949 -14.50154999 36.54007369
v -32.44999949 -15.50084472 17.56795741
v -32.45057170 -15.50200255 6.09558746
v -32.45171611 -15.05504132 6.09558746
v -32.45343124 -14.50154999 6.09558746
v -37.24947940 -13.23593224 35.60913371
v -35.51445922 -13.45130660 6.09558746
v -33.30006178 -23.87384332 6.09558746
v -33.19480572 -23.91089662 6.35674275
v -33.01060614 -24.00353136 7.02345482
v -32.97799935 -24.03479555 7.54576541
v -32.93681246 -24.07532381 8.54429720
v -32.92651574 -24.08690204 9.54590161
v -33.51515153 -24.36249062 17.56795741
v -32.92651574 -24.08690204 34.53993525
v -32.93738467 -24.07532381 35.54153892
v -32.97799935 -24.03479555 36.54007369
v -33.01060614 -24.00353136 37.05930867
v -33.48883900 -24.08574421 37.48330120
v -33.52258722 -24.10543018 37.45257793
v -32.69369208 -13.23593224 35.58148008
v -32.57985443 -14.15417045 6.09558746
v -32.73659559 -13.72573588 6.09558746
v -33.51572373 -13.45130660 6.09558746
v -32.44999949 -21.49892726 37.48330120
v -32.44999949 -21.52440084 17.56795741
v -32.45057170 -21.49892726 6.09558746
v -36.51382548 -13.23593224 35.25887823
v -35.51445922 -13.23593224 35.16363280
v -34.51508999 -13.23593224 35.16056017
v -32.80638532 -23.41877584 6.09558746
v -32.80466870 -23.54614825 6.63018855
v -32.69998485 -23.49867305 7.54576541
v -32.65536473 -23.49867305 8.54429720
v -32.64392359 -23.49867305 9.54590161
v -32.64335139 -23.49867305 17.56795741
v -32.64335139 -23.49867305 34.53993525
v -32.65479252 -23.49867305 35.54153892
v -32.69998485 -23.49867305 36.54007369
v -32.80409650 -23.54614825 37.45257793
v -32.80409650 -23.53920131 37.48330120
v -32.84528488 -23.58436086 37.48330120
v -33.51515153 -13.23593224 35.16363280
v -34.39553475 -13.23593224 35.16056017
v -32.47116515 -22.49822050 37.48330120
v -32.45457565 -22.49822050 36.54007369
v -32.45114391 -22.49822050 35.54153892
v -32.45057170 -22.49822050 17.56795741
v -32.45057170 -22.49822050 8.54429720
v -32.46258504 -22.05125927 6.09558746
v -32.45457565 -22.49822050 7.54576541
v -32.66737807 -23.03202735 6.09558746
v -32.49633475 -22.49822050 6.09558746
v -32.47288176 -22.49822050 6.54416099
v -32.45514786 -22.52369557 17.56795741
v -32.69540721 -23.20340148 37.48330120
f 1 2 7
f 1 7 3
f 1 3 8
f 1 8 18
f 1 18 21
f 1 21 40
f 1 40 57
f 1 57 56
f 1 56 55
f 1 55 38
f 1 38 37
f 1 37 36
f 1 36 60
f 1 60 83
f 1 83 86
f 1 86 85
f 1 85 64
f 1 64 41
f 1 41 22
f 1 22 12
f 1 12 4
f 1 4 5
f 1 5 6
f 1 6 2
f 2 6 17
f 2 17 9
f 2 9 7
f 3 7 9
f 3 9 10
f 3 10 11
f 3 11 8
f 4 12 13
f 4 13 5
f 5 14 30
f 5 30 52
f 5 52 75
f 5 75 74
f 5 74 89
f 5 89 78
f 5 78 58
f 5 58 33
f 5 33 19
f 5 19 10
f 5 10 17
f 5 17 6
f 5 13 15
f 5 15 16
f 5 16 14
f 8 11 18
f 9 17 10
f 10 19 32
f 10 32 54
f 10 54 76
f 10 76 77
f 10 77 63
f 10 63 62
f 10 62 61
f 10 61 39
f 10 39 20
f 10 20 11
f 11 20 21
f 11 21 18
f 12 22 23
f 12 23 24
f 12 24 25
f 12 25 26
f 12 26 27
f 12 27 13
f 13 28 29
f 13 29 15
f 13 27 47
f 13 47 28
f 14 16 30
f 15 29 31
f 15 31 16
f 16 31 30
f 19 33 34
f 19 34 35
f 19 35 36
f 19 36 37
f 19 37 38
f 19 38 32
f 20 39 40
f 20 40 21
f 22 41 42
f 22 42 23
f 23 42 43
f 23 43 24
f 24 43 44
f 24 44 25
f 25 45 26
f 25 44 45
f 26 45 46
f 26 46 47
f 26 47 27
f 28 48 49
f 28 49 29
f 28 47 46
f 28 46 48
f 29 49 50
f 29 50 51
f 29 51 31
f 30 31 53
f 30 53 51
f 30 51 52
f 31 51 53
f 32 38 55
f 32 55 56
f 32 56 57
f 32 57 54
f 33 58 59
f 33 59 35
f 33 35 34
f 35 59 60
f 35 60 36
f 39 61 40
f 40 61 62
f 40 62 63
f 40 63 77
f 40 77 57
f 41 64 42
f 42 64 43
f 43 64 65
f 43 65 44
f 44 65 66
f 44 66 45
f 45 67 46
f 45 66 67
f 46 67 68
f 46 68 69
f 46 69 70
f 46 70 48
f 48 70 71
f 48 71 49
f 49 71 72
f 49 72 50
f 50 72 73
f 50 73 51
f 51 73 74
f 51 74 75
f 51 75 52
f 54 57 76
f 57 77 76
f 58 78 79
f 58 79 80
f 58 80 81
f 58 81 59
f 59 81 82
f 59 82 60
f 60 82 84
f 60 84 83
f 64 85 66
f 64 66 65
f 66 85 86
f 66 86 87
f 66 87 67
f 67 87 84
f 67 84 68
f 68 84 82
f 68 82 69
f 69 82 88
f 69 88 70
f 70 80 79
f 70 79 71
f 70 88 80
f 71 79 78
f 71 78 72
f 72 78 89
f 72 89 74
f 72 74 73
f 80 88 81
f 81 88 82
f 83 84 87
f 83 87 86

