# https://github.com/mikedh/trimesh
v -34.57340729 -35.42495004 -1.45826435
v -36.30870165 -33.58085315 -1.45826435
v -34.57467687 -35.42495004 -0.45864776
v -34.57340729 -35.42495004 -14.45682062
v -36.33918948 -33.58085315 -1.34660526
v -34.61533030 -35.42495004 0.53742385
v -36.30870165 -33.58085315 -12.45581716
v -34.58103074 -35.42495004 -15.37668008
v -36.64788553 -33.58085315 -0.36825713
v -35.51727555 -35.42495004 1.51222698
v -36.65042470 -33.58085315 -0.36116714
v -36.32521515 -33.58085315 -13.45720402
v -34.59119335 -35.42495004 -15.45998072
v -36.51576860 -35.42495004 1.86847273
v -37.13823903 -33.58085315 0.10319271
v -36.63136905 -33.58085315 -14.47631734
v -36.71140037 -33.58085315 -14.59683817
v -35.09806034 -35.42495004 -15.83040644
v -37.51553122 -35.42495004 1.88974120
v -37.51553122 -33.58085315 0.18117660
v -36.87527771 -33.85291016 -15.05942478
v -37.17888948 -33.58085315 -14.91763697
v -35.78912990 -35.42495004 -16.11930477
v -38.51529385 -35.42495004 1.88974120
v -38.51529385 -33.58085315 0.19181158
v -37.51553122 -33.58085315 -14.97258064
v -36.55896119 -35.42495004 -16.19551542
v -36.58817944 -35.41935316 -16.19551542
v -36.96928336 -34.99402846 -15.96156077
v -42.51434734 -35.42495004 1.88796796
v -45.51363522 -33.58085315 0.19181158
v -37.51553122 -33.77925655 -15.11259819
v -45.51363522 -33.58085315 -14.97258064
v -36.58182557 -35.42495004 -16.19728867
v -36.65296684 -35.42495004 -16.19906191
v -37.51553122 -35.42495004 -16.21323890
v -37.51553122 -34.99114061 -15.96333401
v -43.51410997 -35.42495004 1.61147934
v -46.51467041 -33.58085315 0.10673770
v -45.51363522 -33.77925655 -15.11259819
v -45.91760651 -33.58085315 -14.97080740
v -39.51505648 -35.42495004 -16.21501214
v -45.51363522 -34.99114061 -15.96333401
v -44.53038907 -35.42495004 1.13648451
v -45.48949827 -35.42495004 0.52678887
v -47.29212217 -33.58085315 -0.45333101
v -46.51467041 -33.58085315 -14.96017391
v -46.02685608 -34.99402846 -15.96156077
v -41.51458471 -35.42495004 -16.21501214
v -44.66123345 -35.42495004 -16.21323890
v -46.02939822 -35.42495004 0.06065577
v -47.31371697 -33.58085315 -0.50827468
v -47.25401088 -35.42495004 -1.38737045
v -47.18287260 -34.50010464 -0.76172308
v -46.62900129 -35.42495004 -0.57385184
v -46.51467041 -33.78810190 -15.10019146
v -47.10156872 -33.86464633 -15.04524779
v -47.24511785 -33.58085315 -14.57911469
v -45.58985779 -35.42495004 -16.16715846
v -46.14499868 -35.42495004 -16.03954764
v -47.54110915 -33.58085315 -1.45826435
v -47.45091522 -34.50010464 -1.45826435
v -47.26417349 -35.42495004 -1.41395417
v -47.23495524 -35.42495004 -1.35901199
v -47.06091827 -35.10595727 -0.91591911
v -47.16508654 -34.50010464 -15.15867863
v -46.18691871 -35.42495004 -16.01473418
v -46.70268172 -35.42495004 -15.68684539
v -47.26925480 -33.58085315 -14.52062752
v -47.54873260 -33.58085315 -1.53979324
v -47.54237873 -35.42495004 -2.38344056
v -47.18287260 -35.42495004 -15.22425580
v -47.43185958 -34.50010464 -14.45682062
v -47.28704086 -33.58085315 -14.47631734
v -47.54873260 -35.42495004 -2.45788095
v -47.54873260 -33.58085315 -12.53734456
v -47.20192824 -35.42495004 -15.17108537
v -47.44964564 -35.42495004 -14.45682062
v -47.53475826 -33.58085315 -13.53696116
v -47.54873260 -35.42495004 -13.45720402
v -47.54492087 -33.58085315 -13.45720402
v -47.54873260 -34.50010464 -13.45720402
v -47.45853867 -35.42495004 -14.38238023
f 1 2 3
f 1 3 6
f 1 6 10
f 1 10 14
f 1 14 19
f 1 19 24
f 1 24 30
f 1 30 38
f 1 38 44
f 1 44 45
f 1 45 51
f 1 51 55
f 1 55 64
f 1 64 53
f 1 53 63
f 1 63 71
f 1 71 75
f 1 75 80
f 1 80 83
f 1 83 78
f 1 78 77
f 1 77 72
f 1 72 68
f 1 68 67
f 1 67 60
f 1 60 59
f 1 59 50
f 1 50 49
f 1 49 42
f 1 42 36
f 1 36 35
f 1 35 34
f 1 34 27
f 1 27 23
f 1 23 18
f 1 18 13
f 1 13 8
f 1 8 4
f 1 4 7
f 1 7 2
f 2 5 6
f 2 6 3
f 2 7 12
f 2 12 16
f 2 16 17
f 2 17 22
f 2 22 26
f 2 26 33
f 2 33 41
f 2 41 47
f 2 47 58
f 2 58 69
f 2 69 74
f 2 74 79
f 2 79 81
f 2 81 76
f 2 76 70
f 2 70 61
f 2 61 52
f 2 52 46
f 2 46 39
f 2 39 31
f 2 31 25
f 2 25 20
f 2 20 15
f 2 15 11
f 2 11 9
f 2 9 5
f 4 8 7
f 5 9 6
f 6 9 11
f 6 11 10
f 7 8 12
f 8 13 12
f 10 11 15
f 10 15 14
f 12 13 16
f 13 17 16
f 13 18 17
f 14 15 20
f 14 20 19
f 17 18 21
f 17 21 22
f 18 23 21
f 19 20 25
f 19 25 31
f 19 31 24
f 21 23 22
f 22 23 26
f 23 27 28
f 23 28 29
f 23 29 26
f 24 31 30
f 26 29 32
f 26 32 40
f 26 40 33
f 27 34 28
f 28 34 35
f 28 35 36
f 28 36 29
f 29 36 37
f 29 37 32
f 30 31 39
f 30 39 38
f 32 37 43
f 32 43 40
f 33 40 41
f 36 42 37
f 37 42 49
f 37 49 43
f 38 39 44
f 39 45 44
f 39 46 45
f 40 43 41
f 41 43 48
f 41 48 47
f 43 49 50
f 43 50 48
f 45 46 51
f 46 52 53
f 46 53 54
f 46 54 55
f 46 55 51
f 47 56 57
f 47 57 58
f 47 48 56
f 48 50 59
f 48 59 60
f 48 60 57
f 48 57 56
f 52 61 62
f 52 62 63
f 52 63 53
f 53 64 65
f 53 65 54
f 54 65 55
f 55 65 64
f 57 66 58
f 57 60 67
f 57 67 68
f 57 68 66
f 58 66 69
f 61 70 71
f 61 71 62
f 62 71 63
f 66 68 72
f 66 72 73
f 66 73 74
f 66 74 69
f 70 75 71
f 70 76 82
f 70 82 80
f 70 80 75
f 72 77 73
f 73 78 79
f 73 79 74
f 73 77 78
f 76 81 82
f 78 83 81
f 78 81 79
f 80 82 83
f 81 83 82

