# https://github.com/mikedh/trimesh
v -9.69073397 2.64782467 7.88829461
v -9.69073397 2.64782467 10.47087516
v -9.69073397 9.93794551 7.88829461
v -8.92637961 -25.03377438 7.48821999
v -8.92637961 -25.03377438 8.54274002
v -8.92637961 -25.01887318 9.07382592
v -8.92637961 -24.89221753 9.22840789
v -8.92637961 -24.09503511 10.13202059
v -8.92637961 -23.78584731 10.25874627
v -8.92637961 -23.53626279 10.34720943
v -8.92637961 -22.50067025 10.51495363
v -8.92637961 -21.49488009 10.51679020
v -8.51315394 -22.49321966 10.54923680
v -8.51428308 2.64782467 10.54954302
v -9.69073397 6.49218070 10.47087516
v -9.69073397 9.92676962 8.54304550
v -9.17025027 10.01989908 8.54304550
v -9.17702435 10.02362438 7.88829461
v -8.92637961 2.64782467 7.48821999
v -3.62557596 -27.86488742 7.48821999
v -3.62557596 -27.86488742 9.91376955
v -8.51428308 -23.49901131 10.40383843
v -8.51541184 -22.50067025 10.54893058
v -3.89089837 -23.51391101 10.61504865
v -8.51428308 7.49424705 10.54954302
v -9.69073397 7.49424705 10.46689580
v -9.11154070 10.01244849 9.06954034
v -9.69073397 9.50210356 9.55379403
v -4.75686581 10.18380622 8.67466921
v -4.78960783 10.18380622 8.54304550
v -4.89912376 10.18380622 7.92808824
v -4.89912376 10.18380622 7.88829461
v 1.83555035 2.64782467 7.48821999
v 1.40200169 -27.86488742 7.48821999
v 1.79942092 -27.86488742 9.91376955
v -1.51654483 -22.49694496 10.57831647
v -0.51509390 4.49550008 10.54954302
v -0.82783563 10.18380622 10.54954302
v -2.51573786 10.18380622 10.54954302
v -8.51428308 8.49631191 10.40322673
v -9.69073397 8.59316667 10.25323656
v -2.82396341 10.18380622 10.47148685
v -3.37154381 10.18380622 10.29425432
v -4.34138224 10.18380622 9.23605966
v -9.69073397 9.02900862 10.07416671
v 1.31732418 10.18380622 7.88829461
v 1.84345320 4.43217151 7.88829461
v 1.83555035 -4.45231345 7.48821999
v 1.83555035 -4.84717936 7.49281104
v 1.83555035 -4.83972914 7.54576690
v 1.83555035 -4.50819068 8.52682257
v 1.84345320 2.64782467 9.36339927
v 1.83555035 -0.51110340 9.66919406
v 1.79942092 -26.49775679 9.91376955
v 1.22474383 10.18380622 10.26180698
v 1.16490511 -19.49819948 10.24895098
v 0.48296999 -19.49819948 10.50270932
v -0.51509390 -19.49819948 10.54923680
v -0.51509390 2.64782467 10.54954302
v 0.48296999 4.49550008 10.50270932
v 0.22103462 10.18380622 10.49077123
v -9.33734701 9.06998541 10.11365412
v 1.36474350 10.18380622 9.52165290
v 1.84345320 3.40403031 9.23116312
v 1.84345320 2.64782467 7.88829461
v 1.84345320 3.30717629 9.35391019
v 1.33538890 10.18380622 9.80908272
v 0.48296999 10.18380622 10.46505922
f 1 2 15
f 1 15 26
f 1 26 41
f 1 41 45
f 1 45 28
f 1 28 16
f 1 16 3
f 1 3 19
f 1 19 4
f 1 4 5
f 1 5 2
f 2 5 6
f 2 6 7
f 2 7 8
f 2 8 9
f 2 9 10
f 2 10 11
f 2 11 12
f 2 12 13
f 2 13 14
f 2 14 25
f 2 25 15
f 3 16 17
f 3 17 18
f 3 18 19
f 4 20 21
f 4 21 5
f 4 19 33
f 4 33 48
f 4 48 34
f 4 34 20
f 5 21 6
f 6 21 7
f 7 21 8
f 8 21 9
f 9 21 10
f 10 21 22
f 10 22 11
f 11 22 23
f 11 23 13
f 11 13 12
f 13 23 24
f 13 24 14
f 14 24 25
f 15 25 26
f 16 27 17
f 16 28 27
f 17 27 29
f 17 29 30
f 17 30 31
f 17 31 18
f 18 31 32
f 18 32 19
f 19 32 46
f 19 46 33
f 20 34 35
f 20 35 21
f 21 35 24
f 21 24 22
f 22 24 23
f 24 35 36
f 24 36 37
f 24 37 38
f 24 38 39
f 24 39 25
f 25 40 26
f 25 39 40
f 26 40 41
f 27 42 43
f 27 43 44
f 27 44 29
f 27 28 42
f 28 45 39
f 28 39 42
f 29 44 43
f 29 43 42
f 29 42 39
f 29 39 38
f 29 38 61
f 29 61 68
f 29 68 55
f 29 55 67
f 29 67 63
f 29 63 46
f 29 46 32
f 29 32 31
f 29 31 30
f 33 46 47
f 33 47 65
f 33 65 48
f 34 48 49
f 34 49 35
f 35 49 50
f 35 50 51
f 35 51 52
f 35 52 53
f 35 53 54
f 35 54 55
f 35 55 56
f 35 56 57
f 35 57 36
f 36 57 58
f 36 58 59
f 36 59 37
f 37 59 57
f 37 57 60
f 37 60 38
f 38 60 61
f 39 45 62
f 39 62 41
f 39 41 40
f 41 62 45
f 46 63 47
f 47 64 66
f 47 66 52
f 47 52 65
f 47 63 64
f 48 65 49
f 49 65 52
f 49 52 50
f 50 52 51
f 52 66 53
f 53 66 55
f 53 55 54
f 55 66 67
f 55 68 60
f 55 60 57
f 55 57 56
f 57 59 58
f 60 68 61
f 63 67 66
f 63 66 64

