# https://github.com/mikedh/trimesh
v -19.51296429 2.65605459 10.55000048
v -8.92679089 2.65605459 10.51695411
v -24.51341804 2.65605459 10.55000048
v -19.51296429 -22.49798208 10.55000048
v -8.92679089 2.65605459 -10.51901996
v -8.92679089 -21.49995693 10.51695411
v -25.51390487 2.65605459 10.52315077
v -24.51341804 -22.49798208 10.55000048
v -19.51296429 -23.49871924 10.40335786
v -8.92679089 -22.49798208 10.51488881
v -20.51345037 2.65605459 -10.54586893
v -8.92679089 -22.08575404 -10.51901996
v -26.26328129 2.65605459 10.26910782
v -25.51390487 -22.49798208 10.52315077
v -25.51390487 -23.49871924 10.38270407
v -24.51341804 -23.49871924 10.40335786
v -19.51296429 -24.11706205 10.14931565
v -8.92679089 -23.78890504 10.25878129
v -8.92679089 -23.53397546 10.34552709
v -22.51442327 2.65605459 -10.54999954
v -20.51345037 -21.49995693 -10.54586893
v -8.92679089 -22.49798208 -10.51695168
v -22.51442327 -22.49798208 -10.54999954
v -26.52229975 2.65605459 9.65568762
v -29.01758465 1.01527924 4.04609553
v -29.03340227 0.49999456 4.06881389
v -29.03537966 -0.50074335 4.07087919
v -26.26328129 -22.49798208 10.26910782
v -26.19012241 -23.49871924 10.20301582
v -26.08137351 -24.06824574 10.10387671
v -25.51390487 -24.10892600 10.14311899
v -24.51341804 -24.11706205 10.14931565
v -8.92679089 -24.09536591 10.13072716
v -19.51296429 -24.61607313 9.58339897
v -24.51341804 2.65605459 -10.54999954
v -8.92679089 -23.08649121 -10.43020887
v -20.51345037 -23.49871924 -10.39922631
v -22.51442327 -23.49871924 -10.40335692
v -24.51341804 -22.49798208 -10.54999954
v -26.56975409 2.65605459 9.54209138
v -29.04131033 2.19501025 3.13732405
v -28.98397055 2.65605459 2.98242021
v -29.06899227 2.51774174 2.56314688
v -29.09074205 1.49801897 2.54249234
v -29.09865011 -1.50148051 2.54249234
v -29.07690033 -2.54832271 2.58586524
v -29.05119727 -2.24728736 3.16830511
v -29.01956055 -1.02958811 4.04816084
v -26.55986864 -22.49798208 9.54209138
v -26.49066453 -23.49871924 9.54209138
v -26.18616763 -24.43979204 9.45121348
v -26.02798851 -25.00931854 9.05879062
v -25.51390487 -24.60793708 9.57513775
v -24.51341804 -24.61607313 9.58339897
v -8.92679089 -24.88998980 9.22815159
v -19.51296429 -25.02287862 9.08150897
v -8.92679089 -25.01745459 9.07324775
v -25.51390487 2.65605459 -10.52108527
v -8.92679089 -23.49871924 -10.36205082
v -8.92679089 -24.13333415 -10.08322271
v -19.51296429 -24.15774230 -10.10594107
v -24.51341804 -23.49871924 -10.40335692
v -25.51390487 -23.49871924 -10.38063856
v -25.51390487 -22.49798208 -10.52108527
v -29.06306011 2.65605459 2.48879292
v -29.08678727 2.65605459 1.53045263
v -29.09469683 2.49875762 1.54077915
v -29.12237877 1.49801897 1.54077915
v -29.12237877 -1.50148051 1.54077915
v -29.09667421 -2.50221768 1.54077915
v -29.04724249 -4.04807245 0.54113275
v -29.04724249 -3.11784772 2.28018817
v -26.60929887 -23.49871924 8.54244349
v -26.34237085 -24.49945641 8.54244349
v -26.03589806 -25.01474257 8.54244349
v -25.51390487 -25.03915073 8.54244349
v -25.51390487 -25.01745459 9.07531306
v -24.51341804 -25.02287862 9.08150897
v -19.51296429 -25.04728678 8.54244349
v -8.92679089 -25.03101467 8.54244349
v -26.28503107 2.65605459 -10.22366942
v -8.92679089 -24.42894397 -9.72797534
v -19.51296429 -24.65946540 -9.50284815
v -24.51341804 -24.15774230 -10.10594107
v -25.51390487 -24.14960625 -10.09767985
v -26.21780435 -23.49871924 -10.15757668
v -26.10510217 -24.09536591 -10.04604424
v -26.28503107 -22.49798208 -10.22366942
v -29.08876466 2.65605459 0.54113275
v -29.08876466 2.65605459 -0.45644983
v -29.12237877 1.49801897 -0.45644983
v -29.12633355 -1.50148051 -1.45609772
v -29.07690033 -3.50024357 -0.45644983
v -29.02351533 -4.01281623 1.08432885
v -29.05317466 -4.05620850 -0.45644983
v -26.61918432 -23.49871924 6.54108241
v -26.34237085 -24.49945641 -8.45569675
v -26.03787396 -25.01474257 7.54073178
v -26.62313909 -23.49871924 5.54143601
v -25.51390487 -25.03915073 -8.45569675
v -24.51341804 -25.04999879 7.54073178
v -24.51341804 -25.04728678 8.54244349
v -19.51296429 -25.04999879 7.54073178
v -8.92679089 -25.03372669 7.92282812
v -29.06306011 -0.50074335 -4.02543856
v -29.05712943 0.49999456 -4.01924264
v -29.03142488 1.08307966 -3.98000184
v -26.33446130 2.65605459 -10.10387576
v -8.92679089 -24.65404136 -9.44914723
v -24.51341804 -24.65946540 -9.50284815
v -8.92679089 -25.01745459 -8.99269693
v -19.51296429 -25.02287862 -9.00302346
v -25.51390487 -24.65132935 -9.49458692
v -26.02996589 -25.00931854 -8.97617449
v -26.51834498 -23.49871924 -9.45741143
v -26.20000786 -24.45606414 -9.36859735
v -26.57963954 -22.49798208 -9.45741143
v -29.08480989 2.65605459 -1.30119388
v -29.12039989 1.49801897 -1.45609772
v -29.12237877 0.49999456 -1.45609772
v -29.09074205 -0.50074335 -3.45745880
v -29.06701488 -2.58629094 -2.54249140
v -29.09667421 -2.50221768 -1.45609772
v -29.03340227 -4.02637631 -1.05541214
v -26.59743454 -23.49871924 -8.45569675
v -26.61918432 -23.49871924 -6.45640097
v -26.62313909 -23.49871924 -5.45675458
v -26.03787396 -25.01474257 -8.45569675
v -24.51341804 -25.04999879 -8.45569675
v -25.51390487 -25.02016661 -8.99476224
v -19.51296429 -25.04999879 -8.45569675
v -8.92679089 -25.03372669 -8.45569675
v -29.03933443 -1.11094861 -3.99032837
v -29.08480989 0.49999456 -3.45745880
v -29.06503750 2.57469409 -2.52390365
v -29.04131033 2.29264286 -3.07536246
v -26.59150387 2.65605459 -9.45741143
v -24.51341804 -25.02287862 -9.00302346
v -8.92679089 -25.02559064 -8.82127065
v -29.00769771 -2.97682210 -2.93491575
v -29.06306011 2.65605459 -2.42063393
v -29.09271944 1.49801897 -2.45574561
v -29.04131033 -3.12869578 -2.26779539
v -29.05119727 2.65605459 -2.60445353
f 1 2 5
f 1 5 11
f 1 11 20
f 1 20 35
f 1 35 58
f 1 58 81
f 1 81 108
f 1 108 137
f 1 137 144
f 1 144 141
f 1 141 118
f 1 118 90
f 1 90 89
f 1 89 66
f 1 66 65
f 1 65 42
f 1 42 40
f 1 40 24
f 1 24 13
f 1 13 7
f 1 7 3
f 1 3 8
f 1 8 4
f 1 4 6
f 1 6 2
f 2 6 10
f 2 10 19
f 2 19 18
f 2 18 33
f 2 33 55
f 2 55 57
f 2 57 80
f 2 80 104
f 2 104 132
f 2 132 139
f 2 139 111
f 2 111 109
f 2 109 82
f 2 82 60
f 2 60 59
f 2 59 36
f 2 36 22
f 2 22 12
f 2 12 5
f 3 7 14
f 3 14 8
f 4 8 16
f 4 16 9
f 4 9 10
f 4 10 6
f 5 12 21
f 5 21 11
f 7 13 28
f 7 28 14
f 8 14 15
f 8 15 16
f 9 16 32
f 9 32 17
f 9 17 18
f 9 18 19
f 9 19 10
f 11 21 23
f 11 23 20
f 12 22 23
f 12 23 21
f 13 24 25
f 13 25 26
f 13 26 27
f 13 27 28
f 14 28 29
f 14 29 15
f 15 29 30
f 15 30 31
f 15 31 16
f 16 31 32
f 17 33 18
f 17 32 54
f 17 54 34
f 17 34 33
f 20 23 39
f 20 39 35
f 22 36 37
f 22 37 23
f 23 37 38
f 23 38 62
f 23 62 39
f 24 40 25
f 25 41 26
f 25 40 42
f 25 42 41
f 26 41 43
f 26 43 44
f 26 44 45
f 26 45 27
f 27 45 46
f 27 46 47
f 27 47 48
f 27 48 49
f 27 49 28
f 28 49 50
f 28 50 29
f 29 50 30
f 30 50 51
f 30 51 52
f 30 52 31
f 31 52 53
f 31 53 54
f 31 54 32
f 33 34 55
f 34 54 78
f 34 78 56
f 34 56 57
f 34 57 55
f 35 39 64
f 35 64 58
f 36 59 37
f 37 59 60
f 37 60 61
f 37 61 38
f 38 61 84
f 38 84 62
f 39 62 63
f 39 63 64
f 41 42 65
f 41 65 43
f 43 65 66
f 43 66 67
f 43 67 68
f 43 68 44
f 44 68 45
f 45 69 46
f 45 68 69
f 46 70 71
f 46 71 72
f 46 72 73
f 46 73 47
f 46 69 70
f 47 73 50
f 47 50 48
f 48 50 49
f 50 73 74
f 50 74 51
f 51 74 52
f 52 75 76
f 52 76 77
f 52 77 53
f 52 74 75
f 53 77 54
f 54 77 78
f 56 78 102
f 56 102 79
f 56 79 57
f 57 79 80
f 58 64 88
f 58 88 81
f 60 82 61
f 61 82 83
f 61 83 110
f 61 110 84
f 62 84 85
f 62 85 63
f 63 86 64
f 63 85 87
f 63 87 86
f 64 86 88
f 66 89 67
f 67 89 90
f 67 90 91
f 67 91 68
f 68 91 92
f 68 92 69
f 69 92 93
f 69 93 70
f 70 93 71
f 71 94 72
f 71 93 95
f 71 95 73
f 71 73 94
f 72 94 73
f 73 96 74
f 73 95 96
f 74 97 128
f 74 128 98
f 74 98 75
f 74 96 99
f 74 99 127
f 74 127 97
f 75 98 76
f 76 100 129
f 76 129 101
f 76 101 102
f 76 102 77
f 76 98 128
f 76 128 100
f 77 102 78
f 79 102 101
f 79 101 103
f 79 103 104
f 79 104 80
f 81 105 106
f 81 106 107
f 81 107 108
f 81 88 105
f 82 109 83
f 83 109 111
f 83 111 112
f 83 112 138
f 83 138 110
f 84 110 113
f 84 113 85
f 85 113 114
f 85 114 87
f 86 115 88
f 86 87 115
f 87 114 116
f 87 116 115
f 88 115 117
f 88 117 105
f 90 118 119
f 90 119 91
f 91 119 120
f 91 120 92
f 92 121 122
f 92 122 123
f 92 123 93
f 92 120 121
f 93 123 95
f 95 123 122
f 95 122 124
f 95 124 125
f 95 125 126
f 95 126 127
f 95 127 99
f 95 99 96
f 97 116 114
f 97 114 128
f 97 127 126
f 97 126 125
f 97 125 115
f 97 115 116
f 100 128 114
f 100 114 130
f 100 130 129
f 101 129 131
f 101 131 103
f 103 131 132
f 103 132 104
f 105 133 122
f 105 122 121
f 105 121 134
f 105 134 106
f 105 117 133
f 106 134 135
f 106 135 136
f 106 136 107
f 107 136 137
f 107 137 108
f 110 138 130
f 110 130 113
f 111 139 131
f 111 131 112
f 112 131 129
f 112 129 138
f 113 130 114
f 115 125 140
f 115 140 133
f 115 133 117
f 118 141 135
f 118 135 119
f 119 142 134
f 119 134 121
f 119 121 120
f 119 135 142
f 122 140 143
f 122 143 124
f 122 133 140
f 124 143 125
f 125 143 140
f 129 130 138
f 131 139 132
f 134 142 135
f 135 141 144
f 135 144 136
f 136 144 137

