# https://github.com/mikedh/trimesh
v -5.10865797 35.33591543 -1.06939393
v -5.10865797 35.33591543 7.88641259
v -5.10865797 42.50123954 -1.06939393
v -3.58989469 27.50170069 -1.06939393
v -5.10865797 42.50123954 7.88641259
v -3.62418493 28.50188055 7.88641259
v -3.61132595 49.49933952 -1.06939393
v -3.41130093 26.88644839 -1.06939393
v -3.36415207 27.50170069 7.88641259
v -3.61132595 49.49933952 7.88641259
v -3.50702730 49.76437210 7.88641259
v -3.30700191 50.27235072 -1.06939393
v -0.59380274 18.31708638 -1.06939393
v -0.55093946 18.31708638 7.88641259
v -3.30700191 50.27235072 7.88641259
v -2.82122643 50.44272498 -1.06939393
v 9.48746988 18.31708638 -1.06939393
v 1.37215982 18.31708638 7.88641259
v -2.51404472 50.55000163 7.88641259
v -2.51404472 50.55000163 -1.06939393
v 9.48746988 18.31708638 1.98250559
v 9.48746988 50.54684854 -1.06939393
v 9.48461332 18.31708638 3.47557959
v 9.48746988 18.50008343 3.47557959
v 1.37501712 28.15797000 7.88641259
v -1.51391850 50.55000163 7.88641259
v 7.48435940 50.55000163 -1.06939393
v 9.48746988 50.55000163 -0.45919016
v 9.48746988 48.49916264 3.47557959
v 1.37501712 47.49898278 7.88641259
v -0.51379228 50.54369545 7.88641259
v 9.48461332 50.54684854 1.54326467
v 9.48461332 50.55000163 0.54291344
v 9.48746988 50.55000163 0.54028338
v 9.48746988 49.49933952 3.28883489
v 1.15498986 49.56875224 7.88641259
v 1.37358884 48.49916264 7.88641259
v 0.55777173 50.23133072 7.88641259
v 9.48461332 50.30074643 2.54273672
v 9.48746988 50.30074643 2.54098434
v 9.48746988 50.54684854 1.54063312
v 9.48746988 50.02940170 3.07052946
v 9.48461332 50.02940170 3.07228333
v 0.98782607 50.00100599 7.88641259
v 1.10355468 49.71073675 7.88641259
v 0.69778928 50.15876788 7.88641259
f 1 2 5
f 1 5 3
f 1 3 7
f 1 7 12
f 1 12 16
f 1 16 20
f 1 20 27
f 1 27 22
f 1 22 17
f 1 17 13
f 1 13 8
f 1 8 4
f 1 4 2
f 2 4 6
f 2 6 9
f 2 9 14
f 2 14 18
f 2 18 25
f 2 25 30
f 2 30 37
f 2 37 36
f 2 36 45
f 2 45 44
f 2 44 46
f 2 46 38
f 2 38 31
f 2 31 26
f 2 26 19
f 2 19 15
f 2 15 11
f 2 11 10
f 2 10 5
f 3 5 10
f 3 10 7
f 4 8 9
f 4 9 6
f 7 10 11
f 7 11 12
f 8 13 14
f 8 14 9
f 11 15 12
f 12 15 16
f 13 17 21
f 13 21 23
f 13 23 18
f 13 18 14
f 15 19 16
f 16 19 20
f 17 22 28
f 17 28 34
f 17 34 41
f 17 41 40
f 17 40 42
f 17 42 35
f 17 35 29
f 17 29 24
f 17 24 21
f 18 23 24
f 18 24 25
f 19 26 33
f 19 33 34
f 19 34 28
f 19 28 27
f 19 27 20
f 21 24 23
f 22 27 28
f 24 29 30
f 24 30 25
f 26 31 32
f 26 32 33
f 29 35 36
f 29 36 37
f 29 37 30
f 31 38 39
f 31 39 40
f 31 40 32
f 32 40 41
f 32 41 34
f 32 34 33
f 35 42 43
f 35 43 44
f 35 44 45
f 35 45 36
f 38 46 43
f 38 43 39
f 39 43 42
f 39 42 40
f 43 46 44

