# https://github.com/mikedh/trimesh
v -47.55000218 6.71578350 41.54318731
v -47.55000218 6.71578350 45.54138547
v -47.55000218 11.30306076 41.54318731
v -47.51777090 6.71578350 40.54363777
v -47.51687385 -8.71557176 40.54363777
v -47.54194362 -8.71557176 41.32757155
v -47.54821106 -8.71557176 41.54387575
v -47.54821106 -8.71557176 45.54207540
v -47.28141715 -8.71557176 46.31360840
v -47.55000218 11.30306076 45.54138547
v -47.51777090 11.30306076 40.54363777
v -47.30827506 6.71578350 39.98496381
v -47.25008293 -8.71557176 39.83065751
v -47.45957877 -8.71557176 40.39001990
v -46.67889644 -8.71557176 46.52922566
v -47.28141715 6.71578350 46.31360840
v -47.33423889 11.30306076 46.16136890
v -47.25008293 11.30306076 39.83134743
v -47.25008293 6.71578350 39.83065751
v -46.67262899 6.71578350 39.66464036
v -46.51326970 -8.71557176 39.61917533
v -46.51326970 -8.71557176 46.58846832
v -46.51326970 11.30306076 46.58846832
v -47.28141715 11.30306076 46.31291997
v -47.10504666 11.30306076 39.78932607
v -46.51326970 11.30306076 39.61917533
v -38.50948537 -8.71557176 39.59437528
v -38.40473893 6.71578350 39.55510915
v -45.72900511 -8.71557176 46.59122355
v -46.29750641 6.71578350 46.58984519
v -45.51413888 11.30306076 46.59191199
v -38.40473893 11.30306076 39.55510915
v -38.50948537 -8.71557176 46.59191199
v -38.40473893 6.71578350 46.59191199
v -45.51413888 -8.71557176 46.59191199
v -38.40473893 11.30306076 46.59191199
f 1 2 10
f 1 10 3
f 1 3 11
f 1 11 4
f 1 4 5
f 1 5 6
f 1 6 7
f 1 7 8
f 1 8 2
f 2 8 9
f 2 9 16
f 2 16 10
f 3 10 17
f 3 17 24
f 3 24 23
f 3 23 31
f 3 31 36
f 3 36 32
f 3 32 26
f 3 26 25
f 3 25 18
f 3 18 11
f 4 11 12
f 4 12 13
f 4 13 14
f 4 14 5
f 5 14 13
f 5 13 21
f 5 21 27
f 5 27 33
f 5 33 35
f 5 35 29
f 5 29 22
f 5 22 15
f 5 15 9
f 5 9 8
f 5 8 7
f 5 7 6
f 9 15 16
f 10 16 17
f 11 18 12
f 12 18 19
f 12 19 13
f 13 19 20
f 13 20 21
f 15 22 23
f 15 23 16
f 16 23 24
f 16 24 17
f 18 25 19
f 19 25 26
f 19 26 20
f 20 26 21
f 21 26 32
f 21 32 28
f 21 28 27
f 22 29 30
f 22 30 23
f 23 30 31
f 27 28 34
f 27 34 33
f 28 32 36
f 28 36 34
f 29 35 30
f 30 35 31
f 31 35 33
f 31 33 34
f 31 34 36

