# https://github.com/mikedh/trimesh
v -38.18481524 -17.43075608 17.56640657
v -46.51319519 -17.57558523 17.56640657
v -38.18481524 -24.54955868 17.56640657
v -38.18481524 -16.37775895 6.09577074
v -45.51397199 -16.46976785 6.09577074
v -45.98883122 -16.47573130 6.09577074
v -46.51319519 -16.48254711 6.09577074
v -47.24931999 -17.78942179 17.56640657
v -45.51305705 -24.54955868 17.56640657
v -45.51397199 -25.08116910 6.09577074
v -38.51574983 -25.07776269 6.09577074
v -38.18481524 -25.06498343 6.09577074
v -46.90738236 -16.60181922 6.09577074
v -47.51699902 -18.50079124 17.56640657
v -47.19523164 -16.74750071 6.09577074
v -46.51319519 -24.54615078 17.56640657
v -45.56255881 -25.07861206 6.09577074
v -47.54816933 -19.47626194 17.56640657
v -47.41432684 -17.46994473 6.09577074
v -47.54908427 -18.50079124 6.54265001
v -47.28140523 -24.27097496 17.56640657
v -46.97155285 -24.98234440 6.09577074
v -46.51319519 -25.02323625 6.09577074
v -47.54816933 -23.49911860 17.56640657
v -47.54908427 -19.50011577 7.94840900
v -47.54908427 -18.50079124 6.09577074
v -47.21173322 -24.83751377 6.09577074
v -47.04305770 -24.94230341 6.09577074
v -47.54908427 -23.49911860 7.94840900
v -47.48949738 -23.94638678 6.09577074
v -47.54908427 -23.49911860 6.09577074
f 1 2 8
f 1 8 14
f 1 14 18
f 1 18 24
f 1 24 21
f 1 21 16
f 1 16 9
f 1 9 3
f 1 3 12
f 1 12 4
f 1 4 5
f 1 5 6
f 1 6 7
f 1 7 2
f 2 7 8
f 3 9 10
f 3 10 11
f 3 11 12
f 4 12 11
f 4 11 10
f 4 10 17
f 4 17 23
f 4 23 22
f 4 22 28
f 4 28 27
f 4 27 30
f 4 30 31
f 4 31 26
f 4 26 19
f 4 19 15
f 4 15 13
f 4 13 7
f 4 7 6
f 4 6 5
f 7 13 8
f 8 13 15
f 8 15 14
f 9 16 10
f 10 16 17
f 14 15 19
f 14 19 20
f 14 20 18
f 16 21 22
f 16 22 23
f 16 23 17
f 18 20 25
f 18 25 29
f 18 29 24
f 19 26 20
f 20 26 31
f 20 31 29
f 20 29 25
f 21 24 27
f 21 27 28
f 21 28 22
f 24 29 30
f 24 30 27
f 29 31 30

