# https://github.com/mikedh/trimesh
v -3.82341535 10.74622038 -1.06939393
v -3.82080839 10.74325505 -1.06939393
v -3.82732542 10.74325505 -1.06588768
v -3.59011932 15.49988211 -1.06939393
v 9.48746988 10.74325505 -1.06939393
v -3.82732542 10.74325505 6.54764489
v -3.82602157 10.74325505 7.54711843
v -3.62400612 14.50051585 7.88641259
v -3.36334070 15.49988211 7.54185682
v -3.29035430 16.40287044 -1.06939393
v 9.48746988 18.31708638 -1.06939393
v 9.48746988 10.74325505 3.29760275
v -3.82080839 10.74325505 7.88641259
v -3.33075739 15.52138155 7.88641259
v -3.17175125 15.80754998 7.88641259
v -3.04923850 16.01958200 7.88641259
v -0.55075916 18.31708638 7.88641259
v -0.59376995 18.31708638 -1.06939393
v 9.48746988 18.31708638 1.98250559
v 9.48746988 11.50019383 3.47557959
v 9.48486366 10.74325505 3.47557959
v 1.37295182 10.74325505 7.88641259
v 1.37295182 18.31708638 7.88641259
v 9.48486366 18.31708638 3.47557959
v 9.48746988 17.49935521 3.47557959
f 1 2 3
f 1 3 4
f 1 4 10
f 1 10 18
f 1 18 11
f 1 11 5
f 1 5 2
f 2 5 12
f 2 12 21
f 2 21 22
f 2 22 13
f 2 13 7
f 2 7 6
f 2 6 3
f 3 6 4
f 4 6 7
f 4 7 8
f 4 8 9
f 4 9 10
f 5 11 19
f 5 19 25
f 5 25 20
f 5 20 12
f 7 13 8
f 8 14 9
f 8 13 22
f 8 22 23
f 8 23 17
f 8 17 16
f 8 16 15
f 8 15 14
f 9 14 15
f 9 15 10
f 10 15 16
f 10 16 17
f 10 17 18
f 11 18 17
f 11 17 23
f 11 23 24
f 11 24 19
f 12 20 21
f 19 24 25
f 20 22 21
f 20 25 23
f 20 23 22
f 23 25 24

