# https://github.com/mikedh/trimesh
v -36.03403991 28.02911344 42.54366669
v -36.38541894 24.78359828 39.54415380
v -36.10693654 28.02911344 40.54399093
v -36.06293034 28.02911344 52.54204547
v -36.48351050 24.78359828 38.62273567
v -36.45025402 24.78359828 50.54237120
v -36.41867541 28.02911344 39.60296880
v -36.11197612 28.02911344 53.54188260
v -36.49257936 24.78359828 51.54220834
v -36.76165613 24.78359828 37.78864449
v -36.45495683 28.02911344 39.51207302
v -36.23458908 28.02911344 54.53993755
v -36.75527544 24.78359828 52.44758682
v -37.51514081 24.78359828 37.50883290
v -37.50271024 28.02911344 39.57266872
v -37.52824194 24.78359828 37.50705072
v -38.51485874 24.78359828 37.47497144
v -39.46586765 24.78359828 37.47675362
v -36.64643416 28.02911344 55.40254366
v -37.51514081 24.78359828 52.88067206
v -39.46586765 28.02911344 40.19823562
v -39.46586765 24.78359828 52.88067206
v -37.51514081 28.02911344 55.66987997
v -37.78052208 28.02911344 55.67700870
v -38.51485874 28.02911344 55.68057306
v -39.46586765 28.02911344 55.53977767
v -38.78460904 28.02911344 55.66275124
v -38.79905425 28.02911344 55.66096905
f 1 2 3
f 1 3 7
f 1 7 11
f 1 11 15
f 1 15 21
f 1 21 26
f 1 26 28
f 1 28 27
f 1 27 25
f 1 25 24
f 1 24 23
f 1 23 19
f 1 19 12
f 1 12 8
f 1 8 4
f 1 4 2
f 2 5 3
f 2 4 6
f 2 6 9
f 2 9 13
f 2 13 20
f 2 20 22
f 2 22 18
f 2 18 17
f 2 17 16
f 2 16 14
f 2 14 10
f 2 10 5
f 3 5 7
f 4 8 9
f 4 9 6
f 5 10 7
f 7 10 11
f 8 12 9
f 9 12 13
f 10 14 11
f 11 14 16
f 11 16 17
f 11 17 18
f 11 18 15
f 12 19 13
f 13 19 20
f 15 18 21
f 18 22 26
f 18 26 21
f 19 23 20
f 20 23 24
f 20 24 25
f 20 25 22
f 22 25 27
f 22 27 28
f 22 28 26

