# https://github.com/mikedh/trimesh
v -2.52539214 -36.50059188 19.64824413
v -2.52832618 -39.49972953 21.56598300
v -2.52832618 -39.49972953 19.64824413
v -2.74835984 -35.80567879 19.64824413
v -2.76889663 -35.74224153 57.56170259
v -2.52832618 -36.50059188 57.56170259
v -2.52832618 -37.50030542 46.56078111
v -2.53126022 -39.49972953 37.56586410
v -2.65741204 -40.49944307 45.56179176
v -2.66034608 -40.49944307 19.64824413
v -2.65741204 -40.49944307 21.56598300
v -2.76889663 -35.74224153 19.64824413
v -3.51114478 -35.46733878 57.56170259
v -3.51114478 -35.51400626 58.56069193
v -2.81583681 -35.78890901 58.56069193
v -2.83050552 -35.71890629 19.64824413
v -2.61927249 -36.50059188 58.56069193
v -2.62220653 -38.50001897 58.56069193
v -2.53712681 -39.49972953 57.56170259
v -2.53419277 -39.49972953 49.56176204
v -2.53126022 -38.50001897 48.56277269
v -2.66034608 -40.49944307 57.56170259
v -2.89504994 -41.17102391 57.56170259
v -2.89504994 -41.17175109 55.56372389
v -2.89504994 -41.17248125 41.56182149
v -2.89798249 -41.16956360 19.64824413
v -2.89504994 -41.17248125 29.56592355
v -4.50863358 -35.45056602 58.56069193
v -3.51114478 -35.46733878 19.64824413
v -3.59329195 -35.46587846 19.64824413
v -4.50863358 -35.49942100 59.56369268
v -3.53461561 -35.75317899 59.53159556
v -2.90971865 -35.89026379 59.17853915
v -2.85984444 -36.50059188 59.24273339
v -2.85984444 -37.50030542 59.24674479
v -2.85984444 -38.50001897 59.24674479
v -2.62514057 -39.49972953 58.56069193
v -2.74542580 -40.49944307 58.56069193
v -2.93612204 -41.11414614 58.56069193
v -3.35272001 -41.61436650 58.56069193
v -3.34978746 -41.67124427 57.56170259
v -3.34685342 -41.67124427 56.56271324
v -3.34685342 -41.67197443 51.56375213
v -3.31164791 -41.62749146 19.64824413
v -3.34685342 -41.67197443 31.56791439
v -5.50905567 -35.45056602 59.56369268
v -4.50863358 -35.45056602 19.64824413
v -5.50905567 -35.72546877 60.34202252
v -4.50863358 -35.77432375 60.28585404
v -3.88667066 -35.88224398 60.17753148
v -3.31751450 -36.50059188 59.74022386
v -3.30284579 -38.50001897 59.74824665
v -3.29697920 -39.49972953 59.74824665
v -2.86277699 -39.49972953 59.24674479
v -2.91851928 -40.49944307 59.18255353
v -2.98599625 -41.03831111 59.09829933
v -3.90720745 -42.06719220 59.23872200
v -3.85146515 -42.10073474 58.56069193
v -3.84853111 -42.10146191 57.56170259
v -3.84559707 -42.10292223 51.56375213
v -3.84559707 -42.10364941 48.56277269
v -3.34978746 -41.66978694 20.56699365
v -3.34978746 -41.66905678 19.64824413
v -3.84559707 -42.10364941 39.56785419
v -3.84853111 -42.10219207 24.56696393
v -3.84853111 -42.10146191 22.56497235
v -32.49698587 -35.72182394 60.33399973
v -32.49698587 -35.45056602 59.56369268
v -32.49698587 -35.45056602 19.64824413
v -32.49698587 -35.72546877 60.34202252
v -32.49698587 -36.49111473 60.62687328
v -14.50992198 -36.50059188 60.62687328
v -5.50905567 -36.50059188 60.62286189
v -4.50863358 -36.50059188 60.51453932
v -3.81919369 -36.50059188 60.23369697
v -3.81039157 -37.50030542 60.24172274
v -3.79865690 -39.49972953 60.24974851
v -3.79572286 -40.49944307 60.25375990
v -3.29697920 -40.49944307 59.68405241
v -3.86613387 -41.22060904 60.18956566
v -3.55221837 -41.46269643 59.50351281
v -4.50863358 -42.33553248 58.56069193
v -4.26806313 -41.88708176 59.90471490
v -4.56437588 -42.14740222 59.56770407
v -4.50863358 -42.33625965 57.56170259
v -4.50863358 -42.33917730 47.56378334
v -4.50863358 -42.33698981 55.56372389
v -3.85146515 -42.10073474 19.64824413
v -4.50863358 -42.33917730 30.56491290
v -4.50863358 -42.33844714 22.56497235
v -4.45289128 -42.31802956 19.64824413
v -3.85146515 -42.10146191 20.56699365
v -32.49698587 -42.47845258 19.64824413
v -32.49698587 -37.48863781 60.63088766
v -31.50829919 -37.50030542 60.63489905
v -12.50907779 -37.50030542 60.63088766
v -5.50905567 -37.50030542 60.62286189
v -4.50863358 -37.50030542 60.51855072
v -6.50947851 -37.50030542 60.62687328
v -4.50863358 -40.49944307 60.51855072
v -4.56437588 -41.53196899 60.25777130
v -4.93403367 -42.02125190 60.08124012
v -9.45793654 -42.89919308 60.32597396
v -9.11761691 -42.89919308 59.56369268
v -5.50905567 -42.46970261 58.56069193
v -5.50905567 -42.47042979 54.56072017
v -5.50905567 -42.47115995 47.56378334
v -5.50905567 -42.47261728 33.56589382
v -5.50905567 -42.47334744 24.56696393
v -5.50905567 -42.47334744 19.64824413
v -4.50863358 -42.33771997 19.64824413
v -30.89513690 -42.89919308 19.64824413
v -32.49698587 -42.47845258 57.57373677
v -32.49698587 -40.49944307 60.63088766
v -18.50574377 -41.49988678 60.63088766
v -11.50865569 -41.49988678 60.63088766
v -8.51032270 -38.50001897 60.63088766
v -7.50990061 -39.49972953 60.62286189
v -5.50905567 -40.49944307 60.59879054
v -11.50865569 -42.89919308 60.62687328
v -10.51116689 -42.89919308 60.61082770
v -9.10588224 -42.89919308 58.56871770
v -9.10001416 -42.89919308 57.56972538
v -9.10001416 -42.89919308 19.64824413
v -30.89513690 -42.89919308 57.56170259
v -32.49698587 -42.47772242 58.56069193
v -20.90558318 -42.89919308 60.62687328
v -32.49698587 -41.48821916 60.41022815
v -28.90602739 -42.89919308 60.58675337
v -28.50703216 -42.89919308 60.61885049
v -26.50618797 -42.89919308 60.62286189
v -7.50990061 -40.49944307 60.61483910
v -30.88633627 -42.89919308 58.56069193
v -30.81005718 -42.89919308 59.16249357
v -30.75724893 -42.89919308 59.56369268
v -30.46093618 -42.89919308 60.21765139
v -32.49698587 -42.29980245 59.56369268
v -32.49698587 -41.49988678 60.40621676
v -29.50745500 -42.89919308 60.49046797
v -32.49698587 -42.05479443 60.12537440
v -32.49698587 -42.06135691 60.12136301
f 1 2 3
f 1 3 10
f 1 10 26
f 1 26 44
f 1 44 63
f 1 63 88
f 1 88 91
f 1 91 111
f 1 111 110
f 1 110 124
f 1 124 112
f 1 112 93
f 1 93 69
f 1 69 47
f 1 47 30
f 1 30 29
f 1 29 16
f 1 16 12
f 1 12 4
f 1 4 5
f 1 5 6
f 1 6 7
f 1 7 2
f 2 7 8
f 2 8 9
f 2 9 11
f 2 11 3
f 3 11 10
f 4 12 5
f 5 13 14
f 5 14 15
f 5 15 6
f 5 12 16
f 5 16 13
f 6 15 17
f 6 17 18
f 6 18 37
f 6 37 19
f 6 19 20
f 6 20 21
f 6 21 8
f 6 8 7
f 8 21 20
f 8 20 22
f 8 22 9
f 9 22 23
f 9 23 24
f 9 24 25
f 9 25 27
f 9 27 11
f 10 11 26
f 11 27 26
f 13 28 14
f 13 16 29
f 13 29 30
f 13 30 28
f 14 28 31
f 14 31 32
f 14 32 33
f 14 33 15
f 15 33 17
f 17 33 34
f 17 34 35
f 17 35 36
f 17 36 18
f 18 36 54
f 18 54 37
f 19 37 38
f 19 38 22
f 19 22 20
f 22 38 39
f 22 39 23
f 23 39 40
f 23 40 41
f 23 41 42
f 23 42 24
f 24 42 43
f 24 43 25
f 25 43 45
f 25 45 27
f 26 27 44
f 27 45 44
f 28 46 31
f 28 30 47
f 28 47 69
f 28 69 68
f 28 68 46
f 31 46 48
f 31 48 49
f 31 49 50
f 31 50 32
f 32 50 33
f 33 50 51
f 33 51 34
f 34 51 52
f 34 52 53
f 34 53 35
f 35 53 36
f 36 53 54
f 37 54 55
f 37 55 38
f 38 55 56
f 38 56 39
f 39 56 40
f 40 56 57
f 40 57 58
f 40 58 41
f 41 59 42
f 41 58 59
f 42 59 60
f 42 60 61
f 42 61 43
f 43 61 64
f 43 64 45
f 44 62 63
f 44 45 62
f 45 64 65
f 45 65 66
f 45 66 62
f 46 67 48
f 46 68 67
f 48 67 70
f 48 70 71
f 48 71 72
f 48 72 73
f 48 73 49
f 49 73 74
f 49 74 50
f 50 74 75
f 50 75 51
f 51 75 76
f 51 76 52
f 52 76 77
f 52 77 78
f 52 78 53
f 53 79 54
f 53 78 79
f 54 79 55
f 55 79 56
f 56 79 80
f 56 80 81
f 56 81 57
f 57 82 58
f 57 81 80
f 57 80 83
f 57 83 84
f 57 84 82
f 58 82 59
f 59 82 85
f 59 85 60
f 60 86 61
f 60 85 87
f 60 87 86
f 61 86 89
f 61 89 64
f 62 66 63
f 63 66 88
f 64 89 90
f 64 90 91
f 64 91 65
f 65 91 66
f 66 91 92
f 66 92 88
f 67 68 69
f 67 69 93
f 67 93 113
f 67 113 126
f 67 126 137
f 67 137 141
f 67 141 140
f 67 140 138
f 67 138 128
f 67 128 114
f 67 114 94
f 67 94 71
f 67 71 70
f 71 94 95
f 71 95 72
f 72 95 96
f 72 96 73
f 73 97 100
f 73 100 98
f 73 98 74
f 73 96 99
f 73 99 97
f 74 98 78
f 74 78 77
f 74 77 76
f 74 76 75
f 78 80 79
f 78 98 100
f 78 100 80
f 80 100 101
f 80 101 102
f 80 102 83
f 82 84 103
f 82 103 104
f 82 104 105
f 82 105 85
f 83 102 84
f 84 102 103
f 85 105 87
f 86 87 105
f 86 105 106
f 86 106 107
f 86 107 108
f 86 108 109
f 86 109 110
f 86 110 89
f 88 92 91
f 89 110 90
f 90 110 111
f 90 111 91
f 93 112 125
f 93 125 113
f 94 114 95
f 95 114 115
f 95 115 116
f 95 116 117
f 95 117 96
f 96 117 99
f 97 118 132
f 97 132 119
f 97 119 100
f 97 99 120
f 97 120 118
f 99 117 120
f 100 119 121
f 100 121 101
f 101 121 102
f 102 121 103
f 103 121 120
f 103 120 127
f 103 127 131
f 103 131 130
f 103 130 129
f 103 129 139
f 103 139 136
f 103 136 135
f 103 135 134
f 103 134 133
f 103 133 125
f 103 125 112
f 103 112 124
f 103 124 123
f 103 123 122
f 103 122 104
f 104 122 105
f 105 122 123
f 105 123 106
f 106 123 107
f 107 123 108
f 108 123 109
f 109 123 124
f 109 124 110
f 113 125 126
f 114 127 115
f 114 128 129
f 114 129 130
f 114 130 131
f 114 131 127
f 115 127 120
f 115 120 116
f 116 120 117
f 118 120 132
f 119 132 120
f 119 120 121
f 125 133 126
f 126 133 134
f 126 134 135
f 126 135 136
f 126 136 137
f 128 138 139
f 128 139 129
f 136 139 140
f 136 140 141
f 136 141 137
f 138 140 139

