# https://github.com/mikedh/trimesh
v 1.92880901 -4.27993995 7.48191704
v 6.92315821 -4.27993995 7.48191704
v 1.92880901 -4.27993995 8.51939313
v 1.92880901 5.62090785 7.48191704
v 7.07053972 -4.22080987 7.48191704
v 7.09519222 -4.08994929 8.26829202
v 6.75112420 -4.27993995 7.86699457
v 5.97723789 -4.27993995 8.37446137
v 6.49119713 -4.21014734 8.39068278
v 1.92880901 -1.35737736 9.40498606
v 1.92880901 3.33132444 9.38265666
v 3.49158562 5.53075876 7.48191704
v 7.14717644 -4.18688289 7.48191704
v 7.35351146 -3.49962081 7.56407166
v 7.16271985 -3.49962081 8.32643340
v 7.15146500 -0.19319895 9.25858057
v 6.49119713 -4.27993995 8.11935929
v 6.33523999 -4.27993995 8.26176233
v 6.42313306 -0.51598940 9.30071214
v 1.92880901 -0.49951067 9.63396787
v 6.49119713 0.28953281 9.33673423
v 6.10907748 3.06669437 9.09721878
v 3.97499672 5.49973973 7.48191704
v 7.35619069 -3.49962081 7.48191704
v 7.36262203 -3.41722628 7.48191704
v 7.39638510 -0.49951067 7.56407166
v 7.15146500 0.21877090 9.25858057
v 7.15628851 3.49998966 8.35213196
v 7.05553276 4.05348357 8.20825520
v 6.40008840 4.69906410 7.48191704
v 7.40335289 -0.49951067 7.48191704
v 7.37066121 3.49998966 7.56407166
v 7.35940636 3.59013839 7.48191704
v 7.14288938 4.24541288 7.48191704
v 6.49709203 4.64090409 7.48191704
v 7.37548472 3.49998966 7.48191704
f 1 2 7
f 1 7 17
f 1 17 18
f 1 18 8
f 1 8 3
f 1 3 10
f 1 10 20
f 1 20 11
f 1 11 4
f 1 4 12
f 1 12 23
f 1 23 30
f 1 30 35
f 1 35 34
f 1 34 33
f 1 33 36
f 1 36 31
f 1 31 25
f 1 25 24
f 1 24 13
f 1 13 5
f 1 5 2
f 2 5 6
f 2 6 7
f 3 8 9
f 3 9 10
f 4 11 12
f 5 13 6
f 6 9 7
f 6 13 14
f 6 14 15
f 6 15 16
f 6 16 9
f 7 9 17
f 8 18 9
f 9 18 17
f 9 16 19
f 9 19 20
f 9 20 10
f 11 21 22
f 11 22 23
f 11 23 12
f 11 20 21
f 13 24 14
f 14 24 25
f 14 25 26
f 14 26 16
f 14 16 15
f 16 26 27
f 16 27 21
f 16 21 19
f 19 21 20
f 21 27 22
f 22 27 28
f 22 28 29
f 22 29 23
f 23 29 30
f 25 31 26
f 26 31 32
f 26 32 27
f 27 32 28
f 28 32 29
f 29 32 33
f 29 33 34
f 29 34 35
f 29 35 30
f 31 36 32
f 32 36 33

