# https://github.com/mikedh/trimesh
v -5.66280371 35.44123534 -15.43583975
v -5.66280371 35.44123534 -13.79132873
v -5.66280371 35.48417157 -15.55843466
v -3.62277988 -4.28090927 -15.43583975
v -3.48415578 24.14342146 -13.79132873
v -5.66280371 42.47217663 -13.79132873
v -3.31555873 -4.28090927 -14.44724248
v -3.13946862 -4.28090927 -14.33895865
v -2.50816639 -4.28090927 -13.95388858
v -5.66280371 35.72032531 -16.22973833
v -3.38299770 -4.28090927 -16.06609964
v -5.66280371 35.83840218 -16.27699590
v -5.66280371 36.49855978 -16.53676800
v -3.18630076 23.24174271 -13.79132873
v -3.60966685 49.49775351 -13.79132873
v -5.66280371 42.47217663 -14.43617091
v -1.50782402 -4.28090927 -13.94983844
v -3.06266277 23.13440064 -13.79132873
v -3.31555873 -4.28090927 -16.24297057
v -5.66280371 37.49684580 -16.54972904
v -2.50816639 -4.28090927 -16.55000024
v -3.30244570 50.27061760 -13.79132873
v -3.60966685 49.49775351 -15.43583975
v -5.66280371 42.32726275 -15.28164840
v 11.49100463 -4.28090927 -13.94983844
v -1.50782402 22.79627074 -13.79132873
v -2.50816639 22.90898170 -13.79132873
v -2.87345963 23.04852669 -13.79132873
v -5.66280371 40.49707123 -16.54972904
v 11.49100463 -4.28090927 -16.55000024
v -2.50816639 32.50004535 -16.55000024
v -3.30244570 50.27061760 -15.43583975
v -2.50816639 50.54434613 -13.79132873
v -3.20316069 50.17937475 -16.13171843
v -5.66280371 42.06427498 -16.01047059
v -5.66280371 42.10184381 -15.92136160
v -5.66280371 42.30042873 -15.43583975
v 12.49134700 -4.28090927 -13.96064179
v 13.04022415 23.11829993 -13.79132873
v 12.49134700 22.88751209 -13.79132873
v 11.72142142 22.80163814 -13.79132873
v 11.49100463 22.79627074 -13.79132873
v -5.66280371 40.65271992 -16.51435664
v -3.30806567 49.49775351 -16.23622034
v -2.50816639 49.49775351 -16.53676800
v -2.50816639 48.49946750 -16.54972904
v -1.50782402 35.49490637 -16.55000024
v 12.49134700 -4.28090927 -16.52002505
v 11.49100463 48.49946750 -16.55000024
v -2.50816639 50.54434613 -15.43583975
v 9.84624774 50.54434613 -13.79132873
v -0.50748164 50.54971055 -15.43583975
v -2.50816639 50.27061760 -16.22973833
v -5.66280371 41.49536023 -16.31723204
v -5.66280371 41.58660009 -16.26997447
v 13.23130037 -4.28090927 -14.45372449
v 13.47108404 25.49593808 -13.79132873
v 13.42050351 24.49765207 -13.79132873
v 13.19008820 23.54766969 -13.79132873
v 9.49032137 49.49775351 -16.53676800
v 5.49082496 42.49901364 -16.55000024
v -0.50748164 36.49855978 -16.55000024
v 13.07019786 -4.28090927 -16.28023542
v 12.49134700 24.49765207 -16.52002505
v 11.49100463 49.49775351 -16.53649978
v 12.49134700 48.49946750 -16.51975683
v 11.49100463 50.54434613 -14.43617091
v 11.49100463 50.53897575 -13.79132873
v 11.49100463 50.54434613 -15.43583975
v 11.49100463 50.27061760 -16.22973833
v 13.28562706 -4.28090927 -14.66893911
v 13.47483019 24.49765207 -14.43617091
v 13.47108404 27.49788049 -13.79132873
v 13.47295712 -4.28090927 -15.43583975
v 13.23130037 -4.28090927 -16.21299836
v 13.23130037 47.49581110 -16.21299836
v 12.49134700 49.49775351 -16.39824076
v 13.23130037 48.49946750 -16.21272716
v 12.49134700 50.30282201 -13.79132873
v 12.49134700 50.30282201 -15.43583975
v 12.49134700 50.15254073 -16.10633280
v 13.47295712 39.49878522 -15.43583975
v 13.47108404 48.49946750 -15.43583975
v 13.46546332 48.49946750 -13.79132873
v 13.42050351 -4.28090927 -15.60622867
v 13.13014229 49.49775351 -16.09796132
v 13.01587117 50.01836463 -15.96726614
v 13.03273036 50.03446385 -13.79132873
v 13.03273036 50.03446385 -14.43617091
v 13.02898420 50.02909943 -15.43583975
v 13.27063946 49.49775351 -15.43583975
v 13.27063946 49.49775351 -13.79132873
f 1 2 6
f 1 6 16
f 1 16 24
f 1 24 37
f 1 37 36
f 1 36 35
f 1 35 55
f 1 55 54
f 1 54 43
f 1 43 29
f 1 29 20
f 1 20 13
f 1 13 12
f 1 12 10
f 1 10 3
f 1 3 4
f 1 4 2
f 2 5 14
f 2 14 18
f 2 18 28
f 2 28 27
f 2 27 26
f 2 26 42
f 2 42 41
f 2 41 40
f 2 40 39
f 2 39 59
f 2 59 58
f 2 58 57
f 2 57 73
f 2 73 84
f 2 84 92
f 2 92 88
f 2 88 79
f 2 79 68
f 2 68 51
f 2 51 33
f 2 33 22
f 2 22 15
f 2 15 6
f 2 4 7
f 2 7 8
f 2 8 9
f 2 9 5
f 3 10 4
f 4 11 19
f 4 19 21
f 4 21 30
f 4 30 48
f 4 48 63
f 4 63 75
f 4 75 85
f 4 85 74
f 4 74 71
f 4 71 56
f 4 56 38
f 4 38 25
f 4 25 17
f 4 17 9
f 4 9 8
f 4 8 7
f 4 10 12
f 4 12 13
f 4 13 11
f 5 9 14
f 6 15 23
f 6 23 16
f 9 17 18
f 9 18 14
f 11 13 19
f 13 20 21
f 13 21 19
f 15 22 32
f 15 32 23
f 16 23 24
f 17 25 42
f 17 42 26
f 17 26 27
f 17 27 28
f 17 28 18
f 20 29 31
f 20 31 21
f 21 31 47
f 21 47 62
f 21 62 61
f 21 61 49
f 21 49 30
f 22 33 50
f 22 50 32
f 23 32 34
f 23 34 35
f 23 35 36
f 23 36 37
f 23 37 24
f 25 38 39
f 25 39 40
f 25 40 41
f 25 41 42
f 29 43 44
f 29 44 45
f 29 45 46
f 29 46 47
f 29 47 31
f 30 49 64
f 30 64 48
f 32 50 34
f 33 51 52
f 33 52 50
f 34 50 53
f 34 53 45
f 34 45 44
f 34 44 54
f 34 54 55
f 34 55 35
f 38 56 57
f 38 57 58
f 38 58 59
f 38 59 39
f 43 54 44
f 45 53 70
f 45 70 60
f 45 60 49
f 45 49 46
f 46 49 61
f 46 61 62
f 46 62 47
f 48 64 63
f 49 60 65
f 49 65 66
f 49 66 64
f 50 52 53
f 51 67 52
f 51 68 67
f 52 67 69
f 52 69 70
f 52 70 53
f 56 71 57
f 57 72 73
f 57 71 74
f 57 74 72
f 60 70 65
f 63 64 76
f 63 76 75
f 64 66 76
f 65 70 77
f 65 77 66
f 66 77 78
f 66 78 76
f 67 68 79
f 67 79 80
f 67 80 69
f 69 80 81
f 69 81 70
f 70 81 77
f 72 74 82
f 72 82 83
f 72 83 84
f 72 84 73
f 74 85 82
f 75 76 85
f 76 78 82
f 76 82 85
f 77 86 78
f 77 81 87
f 77 87 86
f 78 83 82
f 78 86 83
f 79 88 89
f 79 89 80
f 80 89 90
f 80 90 87
f 80 87 81
f 83 86 91
f 83 91 92
f 83 92 84
f 86 87 91
f 87 90 91
f 88 92 91
f 88 91 89
f 89 91 90

