# https://github.com/mikedh/trimesh
v -37.59831330 36.50085180 30.70207912
v -37.59831330 40.66442039 30.70207912
v -37.59390553 35.66573541 30.70207912
v -47.21945502 34.98354994 45.17341695
v -37.58068221 41.49953380 30.70207912
v -37.58068221 35.07242661 30.70207912
v -47.35167329 34.98354994 45.52208843
v -47.17097549 40.49947911 45.77992970
v -46.01185356 41.99996348 44.04536252
v -37.57627742 34.98354994 30.70207912
v -37.30302534 42.23056239 30.70207912
v -47.49711487 34.98354994 46.02605118
v -47.45744790 39.49942144 46.54173372
v -47.37811694 40.49947911 46.54173372
v -47.10486486 41.14242974 45.87369097
v -46.10440784 42.06321903 44.54346463
v -45.48297751 42.16330437 43.64394977
v -45.13039447 42.11446125 42.86749639
v -28.75726383 34.98354994 30.70207912
v -36.65955615 42.43393683 30.70207912
v -44.54422334 42.25858557 42.53640534
v -47.55000218 34.98354994 46.54173372
v -47.55000218 35.50079412 46.54173372
v -47.54559441 39.49942144 47.54086900
v -47.42219168 40.49947911 47.54086900
v -47.15334440 41.21529060 46.54173372
v -46.20577468 42.12727329 45.54259843
v -45.51382894 42.30102118 44.54346463
v -44.51337191 42.44194174 43.54432935
v -28.75726383 34.98354994 58.54013844
v -3.51664155 35.46556473 30.70207912
v -36.51411754 42.47477205 30.70207912
v -47.55000218 34.98354994 57.54100464
v -47.55000218 38.50016545 47.54086900
v -47.54559441 39.49942144 57.54100464
v -47.42219168 40.49947911 57.54100464
v -47.15775217 41.21769268 49.54206617
v -47.15775217 41.21689397 47.54086900
v -46.71702262 41.71572028 46.54173372
v -46.21459023 42.12727329 46.54173372
v -45.51382894 42.36427674 45.54259843
v -44.51337191 42.47477205 44.54346463
v -30.89480540 43.16175868 30.70207912
v -28.84541033 34.98354994 59.54220479
v -3.51664155 35.46556473 57.54100464
v -2.77180701 35.74019964 30.70207912
v -47.50151967 34.98354994 58.02445590
v -47.55000218 38.50016545 57.54100464
v -47.44863236 39.49942144 58.54013844
v -47.35608106 40.49947911 58.54013844
v -47.13571629 41.19527532 58.54013844
v -47.15775217 41.21769268 57.54100464
v -46.71702262 41.71732067 47.54086900
v -46.21899800 42.12727329 48.54000280
v -46.21899800 42.12807498 50.54120295
v -45.51382894 42.36507544 48.54000280
v -45.51382894 42.36587713 54.54067069
v -44.51337191 42.47477205 58.54013844
v -30.89480540 43.16256036 31.54299356
v -10.90328114 43.16256036 30.70207912
v -28.97762860 34.98354994 60.04616605
v -4.51710006 35.45035061 58.54013844
v -2.77180701 35.74019964 57.54100464
v -3.51664155 35.50479957 58.54013844
v -4.51710006 35.48638169 59.54220479
v -2.52499858 36.50085180 30.70207912
v -47.43981979 34.98354994 58.54013844
v -47.44863236 35.50079412 58.54013844
v -47.18419582 39.49942144 59.31659181
v -47.14893960 40.49947911 59.27557182
v -47.08282600 41.11520526 59.17302182
v -46.71261485 41.69490332 58.54013844
v -46.71702262 41.71732067 57.54100464
v -46.21899800 42.12807498 57.54100464
v -45.51382894 42.36587713 57.54100464
v -45.51382894 42.36507544 58.54013844
v -44.51337191 42.30182287 59.54220479
v -30.44966808 43.16256036 60.18387689
v -30.59070190 43.16256036 59.88501861
v -30.74054976 43.16256036 59.54220479
v -30.78462302 43.16256036 59.24041395
v -30.88599135 43.16256036 58.54013844
v -30.89039912 43.16256036 58.07133803
v -30.89480540 43.16256036 57.54100464
v -9.06984307 43.16256036 31.54299356
v -9.07425084 43.15935661 30.70207912
v -29.10544059 34.98354994 60.28350030
v -5.51755708 35.45035061 59.54220479
v -2.52499858 36.50085180 57.54100464
v -2.82028803 35.78023318 58.54013844
v -2.91724859 35.88032150 59.20232352
v -3.51223378 35.73699588 59.53927521
v -3.84278243 35.86510738 60.15750775
v -4.51710006 35.76181829 60.27177604
v -5.51755708 35.72578721 60.32744689
v -2.52499858 38.50016545 30.70207912
v -47.31200632 34.98354994 58.91518353
v -47.18419582 35.50079412 59.31366522
v -47.18419582 37.50010778 59.31659181
v -46.79635358 39.49942144 59.81469691
v -46.78753804 40.49947911 59.77660648
v -46.18814657 41.24251508 60.16043732
v -46.50106562 41.51234585 59.55099351
v -46.14407481 42.08483768 59.26092394
v -46.21459023 42.12807498 58.54013844
v -45.50942116 42.17130929 59.57443606
v -45.17005846 42.04239909 60.08718604
v -29.51091242 43.16256036 60.47394944
v -29.81060965 43.16256036 60.38897689
v -9.06984307 43.16256036 57.62304762
v -4.51710006 42.35466845 30.70207912
v -30.03097442 34.98354994 60.56478114
v -30.51136945 34.98354994 60.62923773
v -2.62195914 36.50085180 58.54013844
v -2.52499858 38.50016545 57.54100464
v -2.86876757 36.50085180 59.28436352
v -3.25661130 36.50085180 59.78246563
v -3.75463592 36.50085180 60.21610817
v -4.51710006 36.50085180 60.50911029
v -5.51755708 36.50085180 60.62337858
v -2.52940635 39.49942144 30.70207912
v -47.17097549 34.98354994 59.27850437
v -46.79635358 36.50085180 59.81469691
v -46.29832896 39.49942144 60.22782945
v -46.28510564 40.49947911 60.22489689
v -45.51382894 40.49947911 60.51789901
v -45.50942116 41.54517317 60.25712817
v -45.83556055 41.90948643 59.92896520
v -44.51337191 41.49953380 60.40362774
v -28.51045540 43.16256036 60.62337858
v -4.51710006 42.35386677 58.54013844
v -4.51710006 42.35466845 57.54100464
v -9.08306489 43.16256036 58.54013844
v -3.93974299 42.15609816 30.70207912
v -31.02702516 34.98354994 60.63509986
v -2.62195914 38.50016545 58.54013844
v -2.52940635 39.49942144 57.54100464
v -2.86876757 39.49942144 59.28436352
v -3.25661130 38.50016545 59.78539520
v -3.75463592 39.49942144 60.21610817
v -4.51710006 37.50010778 60.51203986
v -5.51755708 37.50010778 60.63217028
v -6.51801411 37.50010778 60.63509986
v -2.63077319 40.34014068 30.70207912
v -46.91975929 34.98354994 59.51876521
v -46.66413234 35.50079412 59.81469691
v -46.29832896 36.50085180 60.22782945
v -45.51382894 39.49942144 60.52376114
v -44.51337191 40.49947911 60.63217028
v -27.51440466 43.16256036 60.63509986
v -3.90007751 42.07763147 59.24041395
v -3.83837465 42.11686332 58.54013844
v -3.83396688 42.11846669 57.54100464
v -9.26817196 43.16256036 59.54220479
v -9.57668324 43.16256036 60.18973604
v -4.53032189 42.16650515 59.56271479
v -3.83396688 42.11846669 30.70207912
v -35.51366052 34.98354994 60.63509986
v -2.62636691 39.49942144 58.54013844
v -2.65281057 40.49947911 57.54100464
v -2.71891970 40.49947911 58.54013844
v -2.89961899 40.49947911 59.24334352
v -3.26542535 40.49947911 59.74144563
v -3.25661130 39.49942144 59.78539520
v -3.76344998 40.49947911 60.21317859
v -4.51710006 40.49947911 60.50911029
v -4.51710006 39.49942144 60.51203986
v -5.51755708 40.49947911 60.63217028
v -6.51801411 39.49942144 60.63509986
v -2.65281057 40.49947911 30.70207912
v -46.03388944 34.98354994 60.03444775
v -46.02507390 34.99476160 60.04616605
v -46.16611069 35.50079412 60.13699775
v -45.51382894 36.50085180 60.52376114
v -44.51337191 36.50085180 60.63217028
v -43.51291191 39.49942144 60.63509986
v -12.51635294 43.16256036 60.63509986
v -4.20858878 41.89427231 59.90845520
v -3.54308520 41.49312927 59.52755692
v -2.96132184 41.09198623 59.14665267
v -3.33594226 41.66287470 58.54013844
v -3.33153448 41.68609373 57.54100464
v -3.33153448 41.68689542 54.54067069
v -3.33153448 41.68769710 34.54332602
v -10.51543890 43.16256036 60.47980859
v -4.87409087 42.04160039 60.08718604
v -3.33153448 41.68769710 30.70207912
v -43.51291191 37.50010778 60.63509986
v -36.51411754 34.98354994 60.62923773
v -2.85554574 41.07757380 30.70207912
v -2.89521122 41.18646574 57.54100464
v -2.91284082 41.16244502 58.54013844
v -3.85600425 41.22730096 60.15457817
v -4.53032189 41.53636657 60.25419859
v -5.51755708 41.49953380 60.40362774
v -11.51589592 43.16256036 60.62337858
v -11.85525862 43.16256036 60.62923773
v -45.51382894 35.50079412 60.28935944
v -2.89521122 41.18726742 45.54259843
v -10.85480011 43.16256036 60.54133858
v -2.89521122 41.18726742 30.70207912
f 1 2 5
f 1 5 11
f 1 11 20
f 1 20 32
f 1 32 43
f 1 43 60
f 1 60 86
f 1 86 111
f 1 111 134
f 1 134 157
f 1 157 187
f 1 187 201
f 1 201 190
f 1 190 170
f 1 170 144
f 1 144 121
f 1 121 96
f 1 96 66
f 1 66 46
f 1 46 31
f 1 31 19
f 1 19 10
f 1 10 6
f 1 6 3
f 1 3 4
f 1 4 2
f 2 4 5
f 3 6 4
f 4 7 8
f 4 8 9
f 4 9 5
f 4 6 10
f 4 10 19
f 4 19 30
f 4 30 44
f 4 44 61
f 4 61 87
f 4 87 112
f 4 112 113
f 4 113 135
f 4 135 158
f 4 158 189
f 4 189 171
f 4 171 145
f 4 145 122
f 4 122 97
f 4 97 67
f 4 67 47
f 4 47 33
f 4 33 22
f 4 22 12
f 4 12 7
f 5 9 11
f 7 12 13
f 7 13 8
f 8 13 14
f 8 14 15
f 8 15 9
f 9 15 16
f 9 16 17
f 9 17 18
f 9 18 11
f 11 18 17
f 11 17 21
f 11 21 20
f 12 22 23
f 12 23 13
f 13 23 24
f 13 24 14
f 14 25 26
f 14 26 15
f 14 24 25
f 15 26 16
f 16 27 28
f 16 28 17
f 16 26 27
f 17 28 29
f 17 29 21
f 19 31 45
f 19 45 30
f 20 21 29
f 20 29 32
f 22 33 48
f 22 48 34
f 22 34 23
f 23 34 24
f 24 35 36
f 24 36 25
f 24 34 48
f 24 48 35
f 25 36 52
f 25 52 37
f 25 37 38
f 25 38 26
f 26 38 39
f 26 39 27
f 27 40 41
f 27 41 28
f 27 39 40
f 28 41 29
f 29 41 42
f 29 42 43
f 29 43 32
f 30 45 44
f 31 46 63
f 31 63 45
f 33 47 48
f 35 48 49
f 35 49 50
f 35 50 36
f 36 50 51
f 36 51 52
f 37 52 73
f 37 73 53
f 37 53 38
f 38 53 39
f 39 53 54
f 39 54 40
f 40 54 41
f 41 54 55
f 41 55 56
f 41 56 42
f 42 56 57
f 42 57 75
f 42 75 58
f 42 58 84
f 42 84 59
f 42 59 43
f 43 59 60
f 44 45 62
f 44 62 61
f 45 63 64
f 45 64 65
f 45 65 62
f 46 66 89
f 46 89 63
f 47 67 68
f 47 68 49
f 47 49 48
f 49 69 70
f 49 70 50
f 49 68 99
f 49 99 69
f 50 70 71
f 50 71 51
f 51 71 72
f 51 72 52
f 52 72 73
f 53 73 74
f 53 74 55
f 53 55 54
f 55 74 75
f 55 75 57
f 55 57 56
f 58 75 76
f 58 76 77
f 58 77 78
f 58 78 79
f 58 79 80
f 58 80 81
f 58 81 82
f 58 82 83
f 58 83 84
f 59 84 83
f 59 83 82
f 59 82 81
f 59 81 80
f 59 80 79
f 59 79 78
f 59 78 109
f 59 109 108
f 59 108 130
f 59 130 150
f 59 150 177
f 59 177 197
f 59 197 196
f 59 196 200
f 59 200 185
f 59 185 155
f 59 155 154
f 59 154 133
f 59 133 110
f 59 110 85
f 59 85 60
f 60 85 86
f 61 62 87
f 62 65 88
f 62 88 87
f 63 89 90
f 63 90 64
f 64 90 91
f 64 91 92
f 64 92 65
f 65 93 94
f 65 94 95
f 65 95 88
f 65 92 93
f 66 96 115
f 66 115 89
f 67 97 68
f 68 97 98
f 68 98 99
f 69 99 123
f 69 123 100
f 69 100 101
f 69 101 70
f 70 101 71
f 71 101 102
f 71 102 103
f 71 103 104
f 71 104 72
f 72 104 105
f 72 105 73
f 73 105 74
f 74 105 76
f 74 76 75
f 76 105 104
f 76 104 106
f 76 106 77
f 77 106 107
f 77 107 108
f 77 108 109
f 77 109 78
f 85 110 132
f 85 132 111
f 85 111 86
f 87 88 112
f 88 95 113
f 88 113 112
f 89 114 90
f 89 115 136
f 89 136 114
f 90 114 91
f 91 114 116
f 91 116 117
f 91 117 93
f 91 93 92
f 93 118 119
f 93 119 94
f 93 117 118
f 94 119 120
f 94 120 95
f 95 120 113
f 96 121 137
f 96 137 115
f 97 122 98
f 98 122 123
f 98 123 99
f 100 123 147
f 100 147 124
f 100 124 125
f 100 125 101
f 101 125 102
f 102 125 126
f 102 126 127
f 102 127 128
f 102 128 103
f 103 128 104
f 104 128 106
f 106 128 107
f 107 128 127
f 107 127 129
f 107 129 130
f 107 130 108
f 110 131 132
f 110 133 131
f 111 132 134
f 113 120 135
f 114 136 138
f 114 138 116
f 115 137 159
f 115 159 136
f 116 138 164
f 116 164 139
f 116 139 117
f 117 139 118
f 118 140 167
f 118 167 141
f 118 141 119
f 118 139 164
f 118 164 140
f 119 141 142
f 119 142 120
f 120 142 143
f 120 143 135
f 121 144 137
f 122 145 123
f 123 145 146
f 123 146 147
f 124 148 126
f 124 126 125
f 124 147 174
f 124 174 148
f 126 148 149
f 126 149 129
f 126 129 127
f 129 149 130
f 130 149 150
f 131 151 152
f 131 152 153
f 131 153 132
f 131 133 154
f 131 154 155
f 131 155 156
f 131 156 151
f 132 153 134
f 134 153 157
f 135 143 169
f 135 169 177
f 135 177 150
f 135 150 176
f 135 176 188
f 135 188 158
f 136 159 138
f 137 144 160
f 137 160 161
f 137 161 159
f 138 162 163
f 138 163 164
f 138 159 162
f 140 165 166
f 140 166 167
f 140 164 165
f 141 167 168
f 141 168 142
f 142 168 169
f 142 169 143
f 144 170 160
f 145 171 172
f 145 172 173
f 145 173 146
f 146 173 147
f 147 173 174
f 148 174 175
f 148 175 149
f 149 175 188
f 149 188 176
f 149 176 150
f 151 156 178
f 151 178 179
f 151 179 180
f 151 180 181
f 151 181 152
f 152 181 182
f 152 182 153
f 153 182 183
f 153 183 184
f 153 184 187
f 153 187 157
f 155 185 186
f 155 186 156
f 156 186 178
f 158 188 175
f 158 175 189
f 159 161 162
f 160 170 190
f 160 190 191
f 160 191 192
f 160 192 161
f 161 192 180
f 161 180 162
f 162 180 163
f 163 180 193
f 163 193 165
f 163 165 164
f 165 193 166
f 166 193 194
f 166 194 195
f 166 195 168
f 166 168 167
f 168 195 196
f 168 196 197
f 168 197 177
f 168 177 169
f 171 189 172
f 172 198 173
f 172 189 198
f 173 198 174
f 174 198 175
f 175 198 189
f 178 193 179
f 178 186 194
f 178 194 193
f 179 193 180
f 180 192 181
f 181 192 191
f 181 191 182
f 182 191 183
f 183 191 199
f 183 199 184
f 184 199 201
f 184 201 187
f 185 200 186
f 186 200 194
f 190 201 199
f 190 199 191
f 194 200 195
f 195 200 196

