# https://github.com/mikedh/trimesh
v -4.65314347 -35.21759401 0.06319195
v -4.65314347 -35.21759401 -8.37711681
v -8.92679182 -35.45105991 0.06319195
v -4.65314347 -42.53388805 0.06319195
v -8.92679182 -35.45105991 -8.37711681
v -4.65314347 -42.53388805 -8.37711681
v -8.92679182 -46.41399130 0.06319195
v -7.87343967 -46.13558936 0.06319195
v -8.92679182 -46.41399130 -8.37711681
v -7.87343967 -46.13558936 -8.37711681
v -8.71218915 -46.39316539 0.06319195
v -8.51473794 -46.37233949 0.06319195
v -8.46286503 -46.35370704 -8.37711681
v -8.89332561 -46.41070111 -8.37711681
v -8.51473794 -46.37233949 -8.37711681
f 1 2 5
f 1 5 3
f 1 3 7
f 1 7 11
f 1 11 12
f 1 12 8
f 1 8 4
f 1 4 6
f 1 6 2
f 2 6 10
f 2 10 13
f 2 13 15
f 2 15 14
f 2 14 9
f 2 9 5
f 3 5 9
f 3 9 7
f 4 8 10
f 4 10 6
f 7 9 11
f 8 12 13
f 8 13 10
f 9 14 11
f 11 15 12
f 11 14 15
f 12 15 13

