# https://github.com/mikedh/trimesh
v -2.00305397 26.43281637 10.74081114
v 1.93040493 25.50082269 10.08194026
v 1.93040493 24.50284662 10.13242095
v -0.25754432 23.58734853 10.74081114
v -2.00305397 26.43281637 11.56421255
v -2.00305397 50.54645018 10.74081114
v 1.93040493 25.55580801 10.08194026
v 10.48976819 25.50082269 10.52579918
v 10.48976819 24.50284662 10.66565038
v 10.48976819 23.90901115 10.93488249
v 0.49248001 22.97976524 10.74081114
v -0.12572111 23.79354198 12.99899481
v -2.00305397 26.43831789 12.99899481
v -2.00305397 26.43556713 12.71069219
v -2.00305397 50.54645018 12.99899481
v -0.68331545 50.54645018 10.74081114
v 1.93040493 49.49623955 10.36089463
v 1.93040493 49.28729534 10.30592645
v 1.93040493 48.49551273 10.14102191
v 1.93040493 48.48176789 10.14064789
v 1.93040493 47.49478888 10.13541236
v 10.48976819 36.50330432 10.52766853
v 10.48976819 28.50300018 10.52617320
v 10.48976819 48.49551273 10.52991265
v 10.48976819 46.49956059 10.52953863
v 11.48980061 40.49795934 10.64508379
v 11.48980061 36.50330432 10.64508379
v 11.48980061 30.50170009 10.64583183
v 11.48980061 27.50227336 10.64620585
v 11.48980061 25.50082269 10.64695389
v 11.48980061 24.50284662 10.78306564
v 11.48980061 23.95024865 10.99134601
v 12.49134700 22.52614084 13.90129643
v 11.48980061 22.50964524 13.90129643
v 1.93040493 22.46015846 13.90129643
v 1.93040493 50.54094867 13.90129643
v -1.50758411 50.54645018 12.99899481
v -0.50755168 50.54370240 10.74081114
v 7.49118784 50.53820089 13.90129643
v 9.15184725 50.53545311 13.90129643
v 10.48976819 50.53270534 13.90129643
v 11.48980061 50.52995756 13.90129643
v 11.48980061 50.52720383 13.56326040
v 10.48976819 50.52170828 12.56336283
v 11.48980061 50.51620676 12.56336283
v 10.48976819 49.49623955 10.73071485
v 0.49248001 50.48046780 10.74081114
v 11.48980061 50.05983161 10.99957294
v 11.48980061 42.49941001 10.64545781
v 11.48980061 49.49623955 10.79091782
v 11.48980061 48.49551273 10.64732791
v 11.48980061 46.49956059 10.64657987
v 12.20952117 36.50330432 10.91319458
v 12.21103513 34.50185365 10.91394188
v 12.20952117 28.50300018 10.91506394
v 12.20800572 25.50082269 10.91618599
v 12.11103338 24.50284662 10.98199776
v 12.20952117 27.50227336 10.91543795
v 12.20800572 26.50154951 10.91543795
v 12.00648379 23.99148764 11.05341906
v 12.97318230 22.66360264 13.90129643
v 11.48980061 50.31551184 11.56421255
v 12.55346998 50.23303685 13.90129643
v 12.46255794 50.25503097 12.56336283
v 12.26103750 50.15330963 11.56421255
v 12.05193981 50.03783748 11.02238291
v 12.13830550 49.49623955 10.95769246
v 12.19436966 48.49551273 10.91431590
v 12.19588362 47.49478888 10.91394188
v 12.20497483 40.49795934 10.91282056
v 12.70953590 36.50330432 11.34920059
v 12.70802194 25.50082269 11.37201055
v 12.70953590 35.50258047 11.34994863
v 12.70953590 34.50185365 11.35144396
v 12.70953590 31.50242691 11.35817482
v 12.70953590 26.50154951 11.36976718
v 13.07015315 24.72828642 11.93702418
v 12.82014728 24.06296855 12.16699320
v 13.09591281 22.77357179 13.90129643
v 12.99590956 50.00209851 13.90129643
v 12.58832084 50.21104272 13.52437133
v 12.98681836 49.99385220 13.16502142
v 12.96257565 49.94436542 12.56336283
v 13.08227675 49.26530121 11.94188494
v 12.69438439 48.49551273 11.37911543
v 12.70044618 44.49810992 11.36789708
v 12.70650649 38.49650868 11.35181798
v 12.70802194 37.49853261 11.34994863
v 13.13530703 38.49650868 11.85176714
v 13.13530703 37.49853261 11.84989778
v 13.13530703 36.50330432 11.84914975
v 13.11257977 25.50082269 11.87195971
v 13.13379307 35.50258047 11.84989778
v 13.12167097 29.50097625 11.86261146
v 13.16712699 24.43686573 12.52559507
v 13.35349592 25.50082269 12.56336283
v 13.20349181 23.26018887 13.90129643
v 13.19894695 49.55947117 13.90129643
v 13.17773364 49.59521312 13.52437133
v 12.99439412 50.00209851 13.83137120
v 13.17318879 49.44400201 12.56336283
v 13.35804227 48.49551273 12.56336283
v 13.12773128 48.49551273 11.87906459
v 13.13076217 46.49956059 11.87345504
v 13.13530703 40.49795934 11.85700192
v 13.37167833 38.49650868 12.56336283
v 13.37167833 36.50330432 12.56336283
v 13.36864892 34.50185365 12.56336283
v 13.36107168 29.50097625 12.56336283
v 13.35804227 27.50227336 12.56336283
v 13.39137768 24.50284662 13.56326040
v 13.39440709 24.16469139 13.90129643
v 13.47319702 25.50082269 13.56326040
v 13.45653007 48.49551273 13.90129643
v 13.45350066 48.49551273 13.56326040
v 13.35955772 47.49478888 12.56336283
v 13.45653007 46.49956059 13.56326040
v 13.47016613 33.50387758 13.56326040
v 13.47319702 27.50227336 13.56326040
v 13.47319702 25.16266745 13.90129643
v 13.46562127 40.49795934 13.90129643
v 13.47016613 35.50258047 13.90129643
v 13.47319702 28.50300018 13.90129643
f 1 2 3
f 1 3 4
f 1 4 5
f 1 5 14
f 1 14 13
f 1 13 15
f 1 15 6
f 1 6 7
f 1 7 2
f 2 7 8
f 2 8 3
f 3 8 9
f 3 9 10
f 3 10 11
f 3 11 4
f 4 11 12
f 4 12 13
f 4 13 14
f 4 14 5
f 6 15 37
f 6 37 16
f 6 16 17
f 6 17 18
f 6 18 19
f 6 19 20
f 6 20 21
f 6 21 7
f 7 22 23
f 7 23 8
f 7 21 24
f 7 24 25
f 7 25 22
f 8 23 26
f 8 26 27
f 8 27 28
f 8 28 29
f 8 29 30
f 8 30 31
f 8 31 9
f 9 31 32
f 9 32 10
f 10 32 11
f 11 32 33
f 11 33 34
f 11 34 35
f 11 35 12
f 12 35 13
f 13 35 36
f 13 36 15
f 15 36 37
f 16 38 17
f 16 37 39
f 16 39 40
f 16 40 41
f 16 41 42
f 16 42 43
f 16 43 44
f 16 44 45
f 16 45 38
f 17 46 18
f 17 38 47
f 17 47 48
f 17 48 46
f 18 46 19
f 19 24 20
f 19 46 24
f 20 24 21
f 22 25 49
f 22 49 23
f 23 49 26
f 24 46 50
f 24 50 51
f 24 51 52
f 24 52 49
f 24 49 25
f 26 49 53
f 26 53 27
f 27 53 54
f 27 54 28
f 28 54 29
f 29 54 55
f 29 55 58
f 29 58 30
f 30 56 57
f 30 57 31
f 30 58 59
f 30 59 56
f 31 57 60
f 31 60 32
f 32 60 33
f 33 61 79
f 33 79 97
f 33 97 112
f 33 112 120
f 33 120 123
f 33 123 122
f 33 122 121
f 33 121 114
f 33 114 98
f 33 98 80
f 33 80 63
f 33 63 42
f 33 42 41
f 33 41 40
f 33 40 39
f 33 39 36
f 33 36 35
f 33 35 34
f 33 60 61
f 36 39 37
f 38 45 62
f 38 62 48
f 38 48 47
f 42 63 64
f 42 64 43
f 43 64 45
f 43 45 44
f 45 64 65
f 45 65 62
f 46 48 66
f 46 66 50
f 48 62 66
f 49 52 53
f 50 67 51
f 50 66 67
f 51 67 68
f 51 68 69
f 51 69 70
f 51 70 52
f 52 70 53
f 53 71 54
f 53 70 71
f 54 71 58
f 54 58 55
f 56 72 57
f 56 59 58
f 56 58 73
f 56 73 74
f 56 74 75
f 56 75 76
f 56 76 72
f 57 72 77
f 57 77 60
f 58 71 73
f 60 77 78
f 60 78 79
f 60 79 61
f 62 65 66
f 63 80 81
f 63 81 64
f 64 81 82
f 64 82 83
f 64 83 65
f 65 83 66
f 66 83 84
f 66 84 67
f 67 84 85
f 67 85 68
f 68 85 86
f 68 86 87
f 68 87 88
f 68 88 71
f 68 71 69
f 69 71 70
f 71 88 89
f 71 89 90
f 71 90 91
f 71 91 73
f 72 92 77
f 72 76 93
f 72 93 94
f 72 94 92
f 73 91 74
f 74 91 75
f 75 91 76
f 76 91 93
f 77 95 79
f 77 79 78
f 77 92 96
f 77 96 95
f 79 95 97
f 80 98 99
f 80 99 82
f 80 82 100
f 80 100 81
f 81 100 82
f 82 99 101
f 82 101 83
f 83 101 84
f 84 101 102
f 84 102 103
f 84 103 85
f 85 103 104
f 85 104 86
f 86 104 87
f 87 104 88
f 88 104 105
f 88 105 89
f 89 106 90
f 89 105 106
f 90 106 91
f 91 107 108
f 91 108 109
f 91 109 110
f 91 110 93
f 91 106 107
f 92 94 96
f 93 110 96
f 93 96 94
f 95 96 111
f 95 111 112
f 95 112 97
f 96 113 111
f 96 110 113
f 98 114 115
f 98 115 99
f 99 115 101
f 101 115 102
f 102 116 105
f 102 105 104
f 102 104 103
f 102 115 117
f 102 117 116
f 105 116 106
f 106 118 119
f 106 119 113
f 106 113 107
f 106 116 117
f 106 117 118
f 107 113 108
f 108 113 109
f 109 113 110
f 111 113 112
f 112 113 120
f 113 119 123
f 113 123 120
f 114 121 117
f 114 117 115
f 117 121 118
f 118 121 122
f 118 122 119
f 119 122 123

