# https://github.com/mikedh/trimesh
v -7.63003086 45.50002288 36.56633682
v -7.77268498 44.66495534 22.56487847
v -7.63003086 45.50002288 34.56440931
v -7.86608924 46.13787343 58.56346653
v -7.63172960 45.50002288 58.56346653
v -7.77438371 44.66593584 58.56346653
v -7.77438371 44.66561100 57.56049857
v -8.16498362 44.16502705 38.56425144
v -8.16498362 44.16469922 22.56487847
v -7.77268498 44.66495534 19.64824264
v -8.16498362 44.16568270 57.56049857
v -8.16498362 44.16535487 51.56273885
v -7.86608924 46.13721778 28.56664959
v -7.86608924 46.13754560 35.56737876
v -7.86608924 46.13787343 43.56305311
v -7.64361700 45.42958803 19.64824264
v -7.63172960 45.50002288 19.64824264
v -7.86608924 46.13656212 19.64824264
v -7.86608924 46.13688995 23.56784941
v -8.50973113 46.37538914 58.56346653
v -7.91364111 46.09200763 59.31770118
v -7.83212426 45.51869703 59.61458017
v -7.85929654 44.78551475 59.56242608
v -8.16668160 44.16601052 58.56346653
v -9.10242442 43.12815296 57.56049857
v -8.16498362 44.16469922 19.64824264
v -8.50973113 46.37473349 29.56560765
v -8.50973113 46.37506131 36.56633682
v -8.50973113 46.37538914 45.56096922
v -8.50973113 46.37407784 19.64824264
v -8.50973113 46.37440566 24.56680598
v -9.51000719 46.47465477 58.56346653
v -9.51000719 46.28628014 59.56242608
v -8.50803239 46.16965166 59.61458017
v -8.17517304 45.86432371 59.98367322
v -7.96458895 45.19764237 60.10402997
v -7.96458895 44.93621327 60.10402997
v -8.28386217 44.28558645 59.56242608
v -9.11601057 43.12815296 58.56346653
v -9.27734554 43.12815296 59.56242608
v -9.10242442 43.12815296 19.64824264
v -8.59294597 46.38259534 19.64824264
v -9.51000719 46.47465477 19.64824264
v -24.97947518 46.47465477 58.56346653
v -18.50739854 46.28693579 59.56242608
v -13.50941383 46.28660797 59.56242608
v -12.50913776 46.04909226 60.11205276
v -9.51000719 46.04876443 60.11205276
v -8.84089175 46.03238506 60.09600420
v -8.50803239 45.51869703 60.20432676
v -9.51000719 44.50016926 60.50923153
v -8.56577368 44.56208661 60.22037532
v -9.57623917 43.12815296 60.21235253
v -24.97947518 43.12815296 19.64824264
v -24.97947518 46.47465477 19.64824264
v -24.97947518 46.28660797 59.56242608
v -24.50735842 46.28693579 59.56242608
v -22.50680481 46.04974791 60.11205276
v -17.50712248 46.04942008 60.11205276
v -10.50858527 45.50002288 60.39689458
v -9.51000719 45.50002288 60.37683761
v -10.50858527 44.50016926 60.62557390
v -10.88050432 43.12815296 60.55737125
v -10.50858527 43.12815296 60.48916859
v -24.97947518 43.12815296 60.63359669
v -24.97947518 46.04942008 60.11205276
v -23.50708161 46.04974791 60.11205276
v -24.97947518 45.50002288 60.39689458
v -11.50886133 44.50016926 60.62958530
v -11.50886133 43.12815296 60.62557390
v -12.50913776 43.12815296 60.62958530
v -24.97947518 44.50016926 60.62958530
f 1 2 10
f 1 10 3
f 1 3 15
f 1 15 4
f 1 4 5
f 1 5 6
f 1 6 7
f 1 7 2
f 2 8 9
f 2 9 26
f 2 26 10
f 2 7 11
f 2 11 12
f 2 12 8
f 3 13 14
f 3 14 15
f 3 10 16
f 3 16 17
f 3 17 18
f 3 18 19
f 3 19 13
f 4 20 21
f 4 21 5
f 4 15 29
f 4 29 20
f 5 21 22
f 5 22 23
f 5 23 6
f 6 24 11
f 6 11 7
f 6 23 24
f 8 12 25
f 8 25 9
f 9 25 41
f 9 41 26
f 10 26 41
f 10 41 54
f 10 54 55
f 10 55 43
f 10 43 42
f 10 42 30
f 10 30 18
f 10 18 17
f 10 17 16
f 11 24 25
f 11 25 12
f 13 27 28
f 13 28 14
f 13 19 31
f 13 31 27
f 14 28 15
f 15 28 29
f 18 30 19
f 19 30 31
f 20 32 33
f 20 33 34
f 20 34 21
f 20 29 43
f 20 43 32
f 21 34 35
f 21 35 22
f 22 35 36
f 22 36 37
f 22 37 23
f 23 37 38
f 23 38 24
f 24 39 25
f 24 38 40
f 24 40 39
f 25 39 40
f 25 40 53
f 25 53 64
f 25 64 63
f 25 63 70
f 25 70 71
f 25 71 65
f 25 65 54
f 25 54 41
f 27 31 42
f 27 42 43
f 27 43 28
f 28 43 29
f 30 42 31
f 32 44 57
f 32 57 45
f 32 45 46
f 32 46 33
f 32 43 55
f 32 55 44
f 33 47 48
f 33 48 49
f 33 49 34
f 33 46 47
f 34 49 35
f 35 49 50
f 35 50 36
f 36 50 51
f 36 51 37
f 37 40 38
f 37 51 52
f 37 52 53
f 37 53 40
f 44 56 57
f 44 55 54
f 44 54 65
f 44 65 72
f 44 72 68
f 44 68 66
f 44 66 56
f 45 57 67
f 45 67 58
f 45 58 59
f 45 59 47
f 45 47 46
f 47 59 60
f 47 60 48
f 48 60 61
f 48 61 49
f 49 61 50
f 50 61 51
f 51 61 62
f 51 62 63
f 51 63 64
f 51 64 53
f 51 53 52
f 56 66 57
f 57 66 67
f 58 67 68
f 58 68 60
f 58 60 59
f 60 62 61
f 60 68 72
f 60 72 69
f 60 69 62
f 62 70 63
f 62 69 71
f 62 71 70
f 65 71 69
f 65 69 72
f 66 68 67

