# https://github.com/mikedh/trimesh
v 12.62642015 -4.28090927 -6.43587571
v 12.84115197 18.50032001 -7.09074936
v 12.84115197 -1.49564215 -7.09009371
v 12.79526829 -4.28090927 -6.94645537
v 12.77691601 -4.28090927 -5.64225727
v 12.62642015 48.49962843 -6.43587571
v 12.84115197 20.50206274 -7.09074936
v 13.49268477 15.50038813 -7.36007609
v 13.34953072 -4.28090927 -7.30033431
v 12.84298631 -4.28090927 -7.08976886
v 12.86684457 -4.28090927 -5.53256976
v 12.77691601 6.50059545 -5.64225727
v 12.77691601 47.49607336 -5.64290994
v 12.77691601 48.49962843 -5.64323777
v 12.86684457 49.49781609 -5.76500715
v 12.83197583 49.52465012 -6.39245668
v 12.89254015 49.20801814 -7.03884262
v 12.84115197 48.49962843 -7.09042153
v 13.49268477 29.49648801 -7.36007609
v 14.27268951 -4.28090927 -7.44952483
v 13.49268477 5.50240779 -7.35974826
v 13.49268477 -4.28090927 -7.35942341
v 13.19352888 -4.28090927 -5.14212632
v 13.19352888 -1.49564215 -5.14212632
v 13.19352888 39.49983724 -5.14277899
v 13.19352888 48.49962843 -5.14310681
v 14.25984172 49.49781609 -4.13990342
v 12.96962241 50.02374693 -5.90309629
v 12.96962241 50.02374693 -6.03041487
v 13.49268477 48.49962843 -7.35974826
v 13.17150495 49.87347757 -6.69703958
v 13.83772137 50.05057500 -6.98921874
v 13.50002509 49.52465012 -7.13743174
v 14.49292582 48.49962843 -7.47466012
v 14.49292582 -4.28090927 -7.47466012
v 14.12769963 -4.28090927 -4.13990342
v 14.12769963 47.49607336 -4.13990342
v 14.12953396 48.49962843 -4.13990342
v 14.54981849 50.14717630 -4.13990342
v 14.49292582 50.39940543 -5.43626350
v 13.50002509 50.13107112 -6.39245668
v 14.49292582 49.49781609 -7.28531692
v 14.49292582 50.07740903 -7.01566236
v 14.49292582 50.31890931 -6.43587571
v 29.49103105 48.49962843 -7.47466012
v 29.49103105 46.49788570 -7.47498795
v 29.49103105 10.50408240 -7.47498795
v 29.49103105 -4.28090927 -7.47466012
v 29.81037207 -4.28090927 -4.13990342
v 15.22704687 50.35110776 -4.13990342
v 15.49316538 50.42086908 -4.13990342
v 15.49316538 50.53356961 -5.43626350
v 18.49205120 49.49781609 -7.28498909
v 17.49181313 50.07740903 -7.01566236
v 21.49277434 50.07740903 -7.01533751
v 15.49316538 50.35110776 -6.43587571
v 30.49127210 48.49962843 -7.36431994
v 21.49277434 49.49781609 -7.28466424
v 24.48982582 49.49781609 -7.28433642
v 28.49079001 49.49781609 -7.28368375
v 29.49103105 49.49781609 -7.28335890
v 30.49127210 40.49802491 -7.36464478
v 30.49127210 27.49474528 -7.36497261
v 30.49127210 -4.28090927 -7.36497261
v 30.27103280 -4.28090927 -7.38913039
v 30.29856420 -4.28090927 -4.62828331
v 29.81037207 48.49962843 -4.13990342
v 16.49340642 50.53893403 -4.13990342
v 16.49340642 50.54430441 -4.43632643
v 16.49340642 50.53893403 -5.43626350
v 20.49253329 50.35110776 -6.43587571
v 27.49054896 50.07740903 -7.01435702
v 30.49677659 49.53538194 -7.13840926
v 31.09692122 49.22948476 -7.04177815
v 31.15014522 48.49962843 -7.09499321
v 29.49103105 50.07203864 -7.01403217
v 30.16642063 50.05057500 -6.98791340
v 31.15014522 22.50380547 -7.09564588
v 31.15014522 -4.28090927 -7.09564588
v 30.40868385 -4.28090927 -4.73895132
v 30.29856420 48.49962843 -4.62828331
v 29.80670340 48.51572765 -4.13990342
v 23.19410053 50.53893403 -4.13990342
v 26.49030791 50.53893403 -5.43626350
v 28.49079001 50.34574334 -6.43587571
v 31.37038153 48.49962843 -6.43587571
v 30.83263704 49.90031160 -6.73850060
v 31.02350911 50.02911135 -6.07187589
v 31.16299301 49.53538194 -6.41759496
v 31.37221736 33.49997348 -6.43587571
v 31.37405318 -4.28090927 -6.43587571
v 29.49103105 50.32427373 -6.43587571
v 30.49677659 50.13644150 -6.41759496
v 30.79776533 -4.28090927 -5.13298594
v 30.79960115 -2.49919722 -5.13298594
v 30.79960115 1.50428973 -5.13298594
v 30.79960115 37.49809153 -5.13396346
v 30.79960115 48.49962843 -5.13429128
v 30.17743557 49.49781609 -4.75005269
v 30.79960115 13.50401280 -5.13331079
v 29.61032386 49.32071867 -4.13990342
v 24.19434158 50.51747038 -4.13990342
v 26.49030791 50.51210000 -4.43632643
v 25.49006687 50.52820519 -4.43632643
v 27.49054896 50.53356961 -5.43626350
v 28.49079001 50.51747038 -5.43626350
v 31.12628546 49.49781609 -5.75488628
v 31.21070953 48.49962843 -5.63442224
v 31.21254536 39.49983724 -5.63409739
v 31.02350911 50.02911135 -5.89493641
v 29.49103105 50.38867063 -5.43626350
v 31.21438118 1.50428973 -5.63311689
v 31.21438118 -4.28090927 -5.63311689
v 30.88953269 -4.28090927 -5.24234861
v 30.67663669 49.49781609 -5.25475532
v 29.56627898 49.49781609 -4.13990342
v 30.03428003 50.02911135 -4.89303836
v 27.19506472 50.43160388 -4.13990342
v 27.49054896 50.49063636 -4.43632643
v 28.49079001 50.38330621 -4.43632643
v 30.41602417 50.12570670 -5.51167534
v 29.41578312 50.13107112 -4.51043293
v 29.18637067 50.07203864 -4.13990342
v 27.49054896 50.42086908 -4.13990342
v 28.19530576 50.34574334 -4.13990342
v 28.46325860 50.29743970 -4.13990342
v 29.04138228 50.12570670 -4.13990342
f 1 2 3
f 1 3 4
f 1 4 10
f 1 10 9
f 1 9 22
f 1 22 20
f 1 20 35
f 1 35 48
f 1 48 65
f 1 65 64
f 1 64 79
f 1 79 91
f 1 91 113
f 1 113 114
f 1 114 94
f 1 94 80
f 1 80 66
f 1 66 49
f 1 49 36
f 1 36 23
f 1 23 11
f 1 11 5
f 1 5 12
f 1 12 6
f 1 6 7
f 1 7 2
f 2 7 19
f 2 19 8
f 2 8 9
f 2 9 3
f 3 9 10
f 3 10 4
f 5 11 12
f 6 13 14
f 6 14 15
f 6 15 16
f 6 16 17
f 6 17 18
f 6 18 7
f 6 12 13
f 7 18 19
f 8 20 21
f 8 21 9
f 8 19 20
f 9 21 22
f 11 23 24
f 11 24 25
f 11 25 26
f 11 26 13
f 11 13 12
f 13 26 14
f 14 26 15
f 15 26 27
f 15 27 28
f 15 28 16
f 16 28 29
f 16 29 17
f 17 30 18
f 17 29 31
f 17 31 32
f 17 32 33
f 17 33 30
f 18 30 19
f 19 30 34
f 19 34 20
f 20 22 21
f 20 34 35
f 23 36 37
f 23 37 24
f 24 37 25
f 25 37 26
f 26 37 38
f 26 38 27
f 27 38 37
f 27 37 36
f 27 36 49
f 27 49 67
f 27 67 82
f 27 82 101
f 27 101 116
f 27 116 123
f 27 123 127
f 27 127 126
f 27 126 125
f 27 125 124
f 27 124 118
f 27 118 102
f 27 102 83
f 27 83 68
f 27 68 51
f 27 51 50
f 27 50 39
f 27 39 28
f 28 39 40
f 28 40 29
f 29 40 41
f 29 41 31
f 30 33 42
f 30 42 34
f 31 41 32
f 32 43 42
f 32 42 33
f 32 41 44
f 32 44 43
f 34 42 45
f 34 45 46
f 34 46 47
f 34 47 35
f 35 47 48
f 39 50 40
f 40 51 52
f 40 52 44
f 40 44 41
f 40 50 51
f 42 53 45
f 42 43 54
f 42 54 55
f 42 55 53
f 43 44 56
f 43 56 71
f 43 71 54
f 44 52 56
f 45 57 46
f 45 53 58
f 45 58 59
f 45 59 60
f 45 60 61
f 45 61 57
f 46 57 62
f 46 62 63
f 46 63 64
f 46 64 47
f 47 64 65
f 47 65 48
f 49 66 81
f 49 81 67
f 51 68 52
f 52 68 69
f 52 69 70
f 52 70 56
f 53 55 58
f 54 71 55
f 55 72 60
f 55 60 59
f 55 59 58
f 55 71 72
f 56 70 84
f 56 84 71
f 57 61 73
f 57 73 74
f 57 74 75
f 57 75 62
f 60 72 61
f 61 72 76
f 61 76 77
f 61 77 73
f 62 75 78
f 62 78 63
f 63 78 79
f 63 79 64
f 66 80 81
f 67 81 82
f 68 83 69
f 69 83 84
f 69 84 70
f 71 84 85
f 71 85 72
f 72 85 76
f 73 77 74
f 74 86 75
f 74 77 87
f 74 87 88
f 74 88 89
f 74 89 86
f 75 86 90
f 75 90 91
f 75 91 78
f 76 85 92
f 76 92 77
f 77 92 93
f 77 93 87
f 78 91 79
f 80 94 95
f 80 95 96
f 80 96 81
f 81 97 98
f 81 98 99
f 81 99 82
f 81 96 100
f 81 100 97
f 82 99 101
f 83 102 119
f 83 119 103
f 83 103 104
f 83 104 105
f 83 105 84
f 84 105 85
f 85 105 106
f 85 106 92
f 86 89 107
f 86 107 108
f 86 108 109
f 86 109 90
f 87 93 88
f 88 110 89
f 88 93 111
f 88 111 110
f 89 110 107
f 90 109 112
f 90 112 91
f 91 112 113
f 92 106 111
f 92 111 93
f 94 114 95
f 95 114 113
f 95 113 112
f 95 112 96
f 96 112 100
f 97 100 112
f 97 112 98
f 98 109 108
f 98 108 107
f 98 107 115
f 98 115 99
f 98 112 109
f 99 116 101
f 99 115 117
f 99 117 116
f 102 118 119
f 103 119 106
f 103 106 105
f 103 105 104
f 106 119 120
f 106 120 111
f 107 110 115
f 110 121 122
f 110 122 117
f 110 117 115
f 110 111 121
f 111 120 122
f 111 122 121
f 116 117 123
f 117 122 123
f 118 124 119
f 119 124 125
f 119 125 120
f 120 125 126
f 120 126 127
f 120 127 122
f 122 127 123

