# https://github.com/mikedh/trimesh
v -8.92679163 -22.50529260 -10.51657617
v -8.92679163 -22.50529260 -8.37711681
v -8.92679163 -22.49758124 -10.51764607
v -8.92573775 -22.50529260 -10.51678777
v -8.92573775 -23.08619616 -10.43161256
v -8.92573775 -23.45375788 -10.37040741
v -8.84984970 -23.49745413 -10.37040741
v -8.51362333 -23.57199585 -10.37040741
v -4.53055584 -23.60283983 -10.37083358
v -0.71929014 -22.50529260 -8.37711681
v -8.92679163 2.65605385 -8.37711681
v -8.92679163 -22.08632178 -10.51978589
v -8.51467759 -22.49758124 -10.54974622
v -8.51362333 -23.49745413 -10.40336288
v -8.51994739 -22.50529260 -10.54825014
v -4.53055584 -23.49745413 -10.41320959
v -1.51506068 -22.50529260 -10.55958995
v -0.73193827 -22.50529260 -10.25483973
v -0.46738401 -22.50529260 -9.45765283
v -0.46738401 -22.50529260 -9.44866443
v 1.00294630 -21.01704807 -8.37711681
v 1.84087678 2.65605385 -8.37711681
v -8.92679163 2.65605385 -10.51978589
v -8.51467759 2.65605385 -10.54974622
v -2.51530685 -22.50529260 -10.56344339
v -8.51362333 -22.50529260 -10.54867631
v -4.53055584 -23.48203289 -10.41556099
v -2.50582112 -22.50529260 -10.56344339
v -0.51586802 2.65605385 -10.54974622
v -0.51586802 -19.49538911 -10.54974622
v 0.48437815 -19.49538911 -10.48425847
v 1.10623838 -20.27164133 -10.11123993
v 0.99240669 -21.00419729 -9.01657758
v 1.17053255 -20.54924008 -8.37711681
v 1.84087678 2.65605385 -8.46507556
v 1.84087678 -3.72360274 -8.37711681
v 0.48437815 2.65605385 -10.48425847
v 1.21269249 0.49694354 -10.18807047
v 1.16737052 -19.49538911 -10.18807047
v 1.34971267 -19.49538911 -9.45765283
v 1.13469667 -20.56209385 -9.39302339
v 1.18739623 -20.49526350 -8.37711681
v 1.84087678 1.41970650 -9.37675725
v 1.16947829 2.65605385 -10.18807047
v 1.35392896 -19.49538911 -8.37711681
v 1.84087678 -3.41515852 -9.14455795
v 1.84087678 0.49694354 -9.62757707
v 1.84087678 -3.33290692 -9.28580336
v 1.34444286 -19.57764071 -8.37711681
f 1 2 11
f 1 11 23
f 1 23 12
f 1 12 3
f 1 3 4
f 1 4 5
f 1 5 6
f 1 6 2
f 2 6 7
f 2 7 8
f 2 8 9
f 2 9 10
f 2 10 21
f 2 21 34
f 2 34 42
f 2 42 49
f 2 49 45
f 2 45 36
f 2 36 22
f 2 22 11
f 3 12 13
f 3 13 4
f 4 14 5
f 4 13 15
f 4 15 14
f 5 14 6
f 6 14 7
f 7 14 8
f 8 14 9
f 9 14 16
f 9 16 17
f 9 17 18
f 9 18 19
f 9 19 20
f 9 20 10
f 10 20 21
f 11 22 35
f 11 35 44
f 11 44 37
f 11 37 29
f 11 29 24
f 11 24 23
f 12 23 24
f 12 24 13
f 13 24 25
f 13 25 26
f 13 26 14
f 13 14 15
f 14 26 27
f 14 27 16
f 16 27 28
f 16 28 17
f 17 28 29
f 17 29 30
f 17 30 31
f 17 31 32
f 17 32 18
f 18 32 33
f 18 33 19
f 19 33 21
f 19 21 20
f 21 33 34
f 22 36 46
f 22 46 48
f 22 48 47
f 22 47 43
f 22 43 35
f 24 29 28
f 24 28 25
f 25 28 27
f 25 27 26
f 29 37 31
f 29 31 30
f 31 37 38
f 31 38 39
f 31 39 32
f 32 39 40
f 32 40 41
f 32 41 33
f 33 41 34
f 34 41 42
f 35 43 44
f 36 45 40
f 36 40 46
f 37 44 38
f 38 44 47
f 38 47 39
f 39 47 48
f 39 48 40
f 40 45 49
f 40 49 42
f 40 42 41
f 40 48 46
f 43 47 44

