# https://github.com/mikedh/trimesh
v 8.46302343 -50.55000163 -0.48219015
v 8.46302343 -50.55000163 0.06319195
v 8.46302343 -50.54479218 -1.48212712
v 17.48728007 -50.55000163 -4.15454248
v 21.48388678 -50.55000163 0.06319195
v 8.46302343 2.65605385 0.06319195
v 16.48551472 -50.53958272 -4.15454248
v 16.78876439 -50.54479218 -4.15454248
v 8.46302343 -50.36250889 -2.45729235
v 22.48356298 -50.55000163 -4.15454248
v 22.48356298 -50.55000163 -3.45722932
v 22.48356298 -50.54479218 0.06319195
v 24.47454687 2.65605385 0.06319195
v 8.46302343 2.65605385 -2.94735229
v 15.78908968 -50.44583635 -4.15454248
v 8.46302343 -50.08647922 -3.05221793
v 27.48402717 -50.45625526 -4.15454248
v 28.45233040 -50.31042624 -4.15454248
v 23.48323620 -50.32605461 0.06319195
v 28.28711196 2.65605385 -2.75991617
v 24.47454687 -48.49800630 0.06319195
v 8.74326715 2.65605385 -3.10712882
v 8.46302343 -9.50488412 -3.53773450
v 15.48584150 -50.38334075 -4.15454248
v 8.46302343 -50.07085085 -3.06295275
v 29.16967075 -50.06564736 -4.15454248
v 28.38749830 -50.11772404 -3.53443239
v 27.99013718 -50.00315176 -2.95313246
v 23.77393757 -50.18543505 0.06319195
v 28.78694857 2.65605385 -3.13520266
v 28.28711196 -48.49800630 -2.75991617
v 24.28423184 -49.49796265 0.06319195
v 9.48570260 2.65605385 -3.36557508
v 8.46302343 -10.50484046 -3.54888357
v 14.11808502 2.65084439 -4.15454248
v 14.56772995 -50.11252055 -4.15454248
v 8.46302343 -49.49796265 -3.34451969
v 29.46246128 -49.66983000 -4.15454248
v 29.02327251 -50.02398363 -3.91880265
v 24.03954236 -50.05523441 0.06319195
v 28.64055330 -49.49796265 -3.26731662
v 28.14071669 -49.49796265 -2.85528528
v 28.86851172 2.65605385 -3.21323126
v 28.78694857 -48.49800630 -3.13520266
v 24.15665678 -49.78961770 0.06319195
v 14.12645055 2.65605385 -4.15454248
v 8.46302343 -47.49804698 -3.54888357
v 14.11808502 -47.50846589 -4.15454248
v 8.46302343 -48.49800630 -3.54475594
v 14.44224851 -49.84690682 -4.15454248
v 29.56075549 -49.49796265 -4.15454248
v 29.17385203 -49.49796265 -3.76728436
v 29.30560836 2.65605385 -3.63517040
v 29.30560836 -48.49800630 -3.63517040
v 29.82636028 2.65605385 -4.15454248
v 14.12226778 -48.49800630 -4.15454248
v 14.28330346 -49.49796265 -4.15454248
v 29.82636028 -48.49800630 -4.15454248
v 29.38507939 2.65605385 -3.71319900
f 1 2 6
f 1 6 14
f 1 14 23
f 1 23 34
f 1 34 47
f 1 47 49
f 1 49 37
f 1 37 25
f 1 25 16
f 1 16 9
f 1 9 3
f 1 3 4
f 1 4 10
f 1 10 11
f 1 11 5
f 1 5 2
f 2 5 12
f 2 12 19
f 2 19 29
f 2 29 40
f 2 40 45
f 2 45 32
f 2 32 21
f 2 21 13
f 2 13 6
f 3 7 8
f 3 8 4
f 3 9 7
f 4 8 7
f 4 7 15
f 4 15 24
f 4 24 36
f 4 36 50
f 4 50 57
f 4 57 56
f 4 56 48
f 4 48 35
f 4 35 46
f 4 46 55
f 4 55 58
f 4 58 51
f 4 51 38
f 4 38 26
f 4 26 18
f 4 18 17
f 4 17 10
f 5 11 12
f 6 13 20
f 6 20 30
f 6 30 43
f 6 43 53
f 6 53 59
f 6 59 55
f 6 55 46
f 6 46 33
f 6 33 22
f 6 22 14
f 7 9 16
f 7 16 15
f 10 17 11
f 11 17 12
f 12 17 18
f 12 18 19
f 13 21 31
f 13 31 20
f 14 22 23
f 15 16 24
f 16 25 24
f 18 26 27
f 18 27 19
f 19 27 28
f 19 28 29
f 20 31 44
f 20 44 30
f 21 32 31
f 22 33 23
f 23 33 35
f 23 35 34
f 24 25 36
f 25 37 36
f 26 38 39
f 26 39 27
f 27 39 28
f 28 40 29
f 28 39 41
f 28 41 42
f 28 42 40
f 30 44 43
f 31 32 44
f 32 42 44
f 32 45 42
f 33 46 35
f 34 35 48
f 34 48 47
f 36 37 49
f 36 49 50
f 38 51 52
f 38 52 39
f 39 52 41
f 40 42 45
f 41 52 44
f 41 44 42
f 43 44 54
f 43 54 53
f 44 52 54
f 47 48 56
f 47 56 49
f 49 56 57
f 49 57 50
f 51 58 52
f 52 58 54
f 53 54 59
f 54 58 59
f 55 59 58

