# https://github.com/mikedh/trimesh
v -38.51035858 -13.23433185 39.55977621
v -38.51035858 -8.71557101 39.59488639
v -38.51035858 -13.23433185 39.70503302
v -46.51462273 -13.23433185 39.58249456
v -38.51035858 -8.71557101 46.59191348
v -46.51462273 -8.71557101 39.61829169
v -38.51035858 -13.23079431 46.59191348
v -38.51566936 -13.23433185 46.59191348
v -46.71019490 -13.23433185 39.63894474
v -47.09248793 -8.71557101 39.78488850
v -45.51464254 -8.71557101 46.59191348
v -45.51464254 -13.23433185 46.59191348
v -47.25885675 -13.23433185 39.81311284
v -47.25089057 -8.71557101 39.83101215
v -46.51462273 -8.71557101 46.58915974
v -46.51462273 -13.23433185 46.58915974
v -47.33053744 -13.23433185 40.00242652
v -47.46062186 -8.71557101 40.38931359
v -47.28186419 -8.71557101 46.31379467
v -47.28186419 -13.23433185 46.31379467
v -47.52699176 -13.23433185 40.54283013
v -47.51814343 -8.71557101 40.54283013
v -47.55000218 -8.71557101 45.54208285
v -47.55000218 -13.23433185 45.54208285
v -47.53495794 -13.23433185 40.80786867
v -47.55000218 -8.71557101 41.54309344
v -47.55000218 -13.23433185 41.54309344
f 1 2 5
f 1 5 7
f 1 7 3
f 1 3 8
f 1 8 12
f 1 12 16
f 1 16 20
f 1 20 24
f 1 24 27
f 1 27 25
f 1 25 21
f 1 21 17
f 1 17 13
f 1 13 9
f 1 9 4
f 1 4 2
f 2 4 6
f 2 6 10
f 2 10 14
f 2 14 18
f 2 18 22
f 2 22 26
f 2 26 23
f 2 23 19
f 2 19 15
f 2 15 11
f 2 11 5
f 3 7 8
f 4 9 10
f 4 10 6
f 5 11 12
f 5 12 8
f 5 8 7
f 9 13 14
f 9 14 10
f 11 15 16
f 11 16 12
f 13 17 14
f 14 17 18
f 15 19 20
f 15 20 16
f 17 21 22
f 17 22 18
f 19 23 24
f 19 24 20
f 21 25 26
f 21 26 22
f 23 26 27
f 23 27 24
f 25 27 26

