# https://github.com/mikedh/trimesh
v -45.51469619 -16.22670260 -2.81085142
v -46.51387171 -16.22670260 -2.80038929
v -46.51387171 -13.14512140 -2.50397331
v -45.86943394 -13.14512140 -2.50571675
v -45.51469619 -13.14512140 -2.50658847
v -37.51535837 -13.14512140 -2.50658847
v -38.51601507 -16.22670260 -2.80997821
v -46.51978450 -16.22670260 -2.79777413
v -47.28099396 -13.14512140 -2.22848009
v -46.78731750 -13.14512140 -2.40632879
v -36.88865600 -13.14512140 -2.31914788
v -33.51569095 -14.21304058 -1.92857574
v -33.51569095 -14.71261046 -2.04714303
v -37.51535837 -16.22670260 -2.80561961
v -47.29872936 -16.22670260 -2.42899648
v -47.37706790 -13.14512140 -1.95473031
v -36.56939202 -13.14512140 -2.21191593
v -32.83282003 -13.82177256 -1.26076695
v -33.01018891 -14.93765719 -1.96170556
v -33.52160374 -15.41309310 -2.05934859
v -33.85860312 -16.15942968 -2.00791117
v -33.79061196 -16.22670260 -1.95734547
v -47.36967691 -16.22670260 -2.21365937
v -47.55000218 -13.14512140 -1.45692473
v -36.27229804 -13.14512140 -1.59379962
v -33.51569095 -13.45765302 -0.45695647
v -32.73822429 -13.72885768 -0.45695647
v -32.46034688 -14.50023273 -0.45695647
v -32.79291166 -14.56298164 -1.53974704
v -33.01018891 -15.02212608 -1.96170556
v -33.19199238 -15.68882176 -1.87103628
v -33.41074782 -16.22670260 -1.79344578
v -47.55000218 -16.22670260 -1.45692473
v -47.55000218 -13.14512140 2.54208107
v -36.21021967 -13.14512140 -1.45692473
v -33.51569095 -13.45011153 0.54301328
v -32.73674609 -13.72523669 0.54301328
v -32.45443409 -14.50023273 0.54301328
v -32.44999949 -15.49997449 0.54301328
v -32.44999949 -16.22670260 0.54301328
v -32.45739048 -16.22670260 0.26926350
v -32.47364768 -15.49997449 -0.45695647
v -32.80473725 -15.41309310 -1.50574700
v -32.80769364 -16.22670260 -1.31133265
v -32.93776316 -16.22670260 -1.45692473
v -47.55000218 -16.22670260 3.54204933
v -47.55000218 -15.49997449 3.54204933
v -47.54556759 -14.50023273 3.54204933
v -47.52487579 -13.14512140 3.54204933
v -36.17031130 -13.14512140 -0.45695647
v -33.51569095 -13.45011153 6.09471723
v -33.16686599 -13.57319387 6.09471723
v -36.16735491 -13.14512140 0.52557740
v -32.73674609 -13.72523669 6.09471723
v -32.58006901 -14.15391266 6.09471723
v -32.45443409 -14.50023273 6.09471723
v -32.45147769 -15.05289704 6.09471723
v -32.44999949 -15.49997449 6.09471723
v -32.44999949 -16.22670260 6.09471723
v -32.51059966 -16.22670260 -0.45695647
v -32.59632919 -16.22670260 -0.72111584
v -47.47166364 -16.22670260 4.55683981
v -47.24699540 -16.22670260 5.41993468
v -47.25734279 -13.14512140 4.26914252
v -36.16735491 -13.14512140 1.54298304
v -36.16883311 -13.14512140 2.54208107
v -36.19839409 -13.14512140 3.51763969
v -36.19987229 -13.14512140 3.54204933
v -36.48218429 -13.14512140 4.39468207
v -36.53391825 -13.14512140 4.50278723
v -37.51535837 -13.14512140 4.64925253
v -35.51552615 -13.45011153 6.09471723
v -37.85679234 -16.22670260 6.09471723
v -46.51387171 -16.22670260 5.78871233
v -46.51387171 -13.14512140 4.49842863
v -36.51617987 -13.48661497 6.09471723
v -37.59960970 -14.91684172 6.09471723
v -37.49762297 -14.50023273 6.09471723
v -37.38233246 -14.09327673 6.09471723
v -37.23008997 -13.76173864 6.09471723
f 1 2 3
f 1 3 4
f 1 4 5
f 1 5 6
f 1 6 7
f 1 7 14
f 1 14 22
f 1 22 32
f 1 32 45
f 1 45 44
f 1 44 61
f 1 61 60
f 1 60 41
f 1 41 40
f 1 40 59
f 1 59 73
f 1 73 74
f 1 74 63
f 1 63 62
f 1 62 46
f 1 46 33
f 1 33 23
f 1 23 15
f 1 15 8
f 1 8 2
f 2 8 9
f 2 9 10
f 2 10 3
f 3 10 9
f 3 9 16
f 3 16 24
f 3 24 34
f 3 34 49
f 3 49 64
f 3 64 75
f 3 75 71
f 3 71 70
f 3 70 69
f 3 69 68
f 3 68 67
f 3 67 66
f 3 66 65
f 3 65 53
f 3 53 50
f 3 50 35
f 3 35 25
f 3 25 17
f 3 17 11
f 3 11 6
f 3 6 5
f 3 5 4
f 6 11 12
f 6 12 13
f 6 13 14
f 6 14 7
f 8 15 9
f 9 15 16
f 11 17 12
f 12 18 19
f 12 19 13
f 12 17 18
f 13 19 14
f 14 19 20
f 14 20 21
f 14 21 22
f 15 23 24
f 15 24 16
f 17 25 26
f 17 26 18
f 18 26 27
f 18 27 28
f 18 28 29
f 18 29 19
f 19 30 20
f 19 29 30
f 20 30 21
f 21 30 31
f 21 31 22
f 22 31 32
f 23 33 24
f 24 33 46
f 24 46 47
f 24 47 34
f 25 35 26
f 26 36 27
f 26 35 36
f 27 37 38
f 27 38 28
f 27 36 37
f 28 38 39
f 28 39 40
f 28 40 41
f 28 41 42
f 28 42 29
f 29 42 43
f 29 43 30
f 30 43 44
f 30 44 45
f 30 45 31
f 31 45 32
f 34 47 48
f 34 48 49
f 35 50 36
f 36 51 52
f 36 52 37
f 36 50 53
f 36 53 65
f 36 65 51
f 37 52 54
f 37 54 55
f 37 55 38
f 38 55 56
f 38 56 57
f 38 57 39
f 39 57 58
f 39 58 59
f 39 59 40
f 41 60 42
f 42 60 43
f 43 60 61
f 43 61 44
f 46 62 47
f 47 62 48
f 48 62 49
f 49 62 63
f 49 63 64
f 51 65 66
f 51 66 67
f 51 67 68
f 51 68 69
f 51 69 70
f 51 70 71
f 51 71 72
f 51 72 76
f 51 76 80
f 51 80 79
f 51 79 78
f 51 78 77
f 51 77 73
f 51 73 59
f 51 59 58
f 51 58 57
f 51 57 56
f 51 56 55
f 51 55 54
f 51 54 52
f 63 74 64
f 64 74 75
f 71 75 72
f 72 75 76
f 73 77 74
f 74 77 78
f 74 78 79
f 74 79 80
f 74 80 76
f 74 76 75

