# https://github.com/mikedh/trimesh
v -37.75970512 17.25162142 35.24918650
v -37.76162141 17.25162142 35.24918650
v -37.87661986 17.11986956 7.54309213
v -37.76162141 17.27273044 17.56946467
v -37.76162141 24.54964958 17.56946467
v -37.76162141 24.54964958 35.24918650
v -46.51308790 17.54205755 35.24918650
v -46.51308790 17.33023563 7.54309213
v -37.87661986 24.55474430 7.54309213
v -45.51355177 24.55547297 7.54309213
v -45.51355177 24.54964958 35.24918650
v -46.72871410 17.60320161 35.24918650
v -47.27687825 17.67526526 7.54309213
v -47.25771234 17.77280547 35.24918650
v -46.51404754 24.55037676 7.54309213
v -46.51308790 24.54600922 35.24918650
v -47.54425330 18.50144242 7.54309213
v -47.52604405 18.50144242 35.24918650
v -47.28071084 24.27231457 7.54309213
v -47.28167047 24.27086022 35.24918650
v -47.55000218 19.50086381 17.56946467
v -47.54808589 19.50159099 7.54309213
v -47.55000218 19.50086381 35.24918650
v -47.54808589 23.49854639 7.54309213
v -47.55000218 23.49927506 17.56946467
v -47.28167047 24.27086022 17.56946467
v -47.36025339 24.04520701 35.24918650
v -47.55000218 23.49927506 35.24918650
f 1 2 3
f 1 3 4
f 1 4 5
f 1 5 6
f 1 6 11
f 1 11 16
f 1 16 20
f 1 20 27
f 1 27 28
f 1 28 23
f 1 23 18
f 1 18 14
f 1 14 12
f 1 12 7
f 1 7 2
f 2 7 8
f 2 8 3
f 3 8 13
f 3 13 17
f 3 17 22
f 3 22 24
f 3 24 19
f 3 19 15
f 3 15 10
f 3 10 9
f 3 9 5
f 3 5 4
f 5 9 6
f 6 9 10
f 6 10 11
f 7 12 8
f 8 12 14
f 8 14 13
f 10 15 16
f 10 16 11
f 13 14 18
f 13 18 17
f 15 19 20
f 15 20 16
f 17 21 22
f 17 18 23
f 17 23 21
f 19 24 25
f 19 25 26
f 19 26 20
f 20 26 27
f 21 25 24
f 21 24 22
f 21 23 28
f 21 28 25
f 25 28 27
f 25 27 26

