# https://github.com/mikedh/trimesh
v -26.75933948 29.88123623 4.52170869
v -29.45178572 32.07204500 4.52170869
v -26.75933948 27.46114613 4.52170869
v -26.75933948 30.47971490 2.64690158
v -37.54947348 32.07204500 4.52170869
v -26.75933948 30.74600478 1.60534406
v -26.75933948 30.75458189 1.56203083
v -29.44975022 32.07204500 2.56233893
v -36.75578351 27.46114613 4.52170869
v -26.75933948 27.46114613 -5.42982023
v -47.02289537 32.01607919 1.07528261
v -47.06563193 29.06746843 3.11096276
v -46.95777130 27.46114613 4.15870874
v -46.50801524 27.46114613 4.28452081
v -37.57186099 29.44253386 4.52170869
v -46.96591330 32.07204500 1.03815784
v -29.44975022 32.07204500 -0.00958814
v -26.75933948 30.74058969 0.56378505
v -29.45178572 32.07204500 -15.43497250
v -37.53522796 27.46385516 4.52170869
v -26.75933948 28.47711387 -4.41507438
v -36.50953571 27.46114613 -10.42930288
v -30.90078147 27.98334869 -13.96441476
v -29.85066620 28.73437959 -14.10260225
v -29.82420918 30.81235373 -16.13003162
v -29.45381973 31.49974470 -15.43497250
v -47.15110802 30.20800697 2.20965356
v -47.04731839 32.07204500 0.99690842
v -47.18570258 28.50013319 3.30071277
v -47.27321417 27.46114613 3.82252195
v -26.75933948 30.44631542 -0.39527512
v -29.61052342 32.07204500 -15.89078439
v -37.50673692 27.46114613 -10.81704921
v -31.18162531 27.98334869 -13.96441476
v -32.50851491 28.61657988 -15.17303675
v -30.54463754 28.44100833 -14.23460278
v -30.51004149 30.71396130 -16.22903202
v -30.51004149 31.49974470 -16.53015486
v -29.73059556 31.49974470 -16.22903202
v -47.23658113 29.44072784 2.54996500
v -47.15517902 31.49974470 1.25059488
v -47.28135617 32.07204500 0.54109653
v -47.30984721 30.52484757 1.60534406
v -47.32205723 27.55592651 3.62452414
v -47.34240924 27.46114613 3.61833568
v -29.73059556 32.07204500 -16.23109434
v -38.50800913 27.46114613 -10.81292457
v -36.50953571 28.33810085 -14.43466291
v -33.50978711 28.61973893 -15.17097443
v -46.50801524 27.46114613 -10.67680238
v -46.55482280 27.46114613 -10.67267475
v -36.50953571 29.16631087 -15.73197070
v -36.50953571 29.66639712 -16.18159563
v -32.82802729 29.89477543 -15.98978181
v -36.50953571 30.50002520 -16.47240687
v -31.50927820 31.49974470 -16.53634481
v -31.08190668 32.07204500 -16.54046945
v -30.51004149 32.07204500 -16.53428249
v -30.17628359 32.07204500 -16.40640660
v -47.42584686 31.49974470 0.56378505
v -47.52149747 32.07204500 -0.43652454
v -47.45637339 28.50013319 2.56233893
v -47.54998850 27.50041369 2.56233893
v -47.54998850 27.46114613 2.56233893
v -37.32154220 28.77229115 -15.20190926
v -36.50953571 28.76371701 -15.23078475
v -47.21623210 27.46114613 -10.37155191
v -47.05749291 27.94362813 -10.97586290
v -37.20147155 29.74718828 -16.10115613
v -36.50953571 31.49974470 -16.52190557
v -35.51029901 31.49974470 -16.54046945
v -32.50851491 31.49974470 -16.54046945
v -46.50801524 32.07204500 -13.90666379
v -31.50927820 32.07204500 -16.54253177
v -47.52149747 29.50030569 1.56203083
v -47.54795300 31.49974470 -0.43652454
v -47.54795300 30.50002520 0.56378505
v -47.54795300 32.07204500 -1.43683413
v -47.54998850 27.50041369 1.56203083
v -47.54998850 27.46114613 1.52490605
v -47.44619887 28.50013319 -10.43548985
v -47.22640661 27.56630964 -10.41899127
v -47.26100415 30.53568072 -12.44023367
v -47.16535354 29.75170036 -12.11023236
v -47.50521645 27.46114613 -9.43724258
v -47.09412595 30.89269189 -13.00948222
v -46.52836428 32.07204500 -13.90047682
v -36.50953571 32.07204500 -16.52190557
v -35.51029901 32.07204500 -16.54459410
v -34.08165230 32.07204500 -16.54665642
v -33.08241559 32.07204500 -16.54665642
v -47.54795300 32.07204500 -3.86438674
v -47.54795300 30.50002520 -4.43775993
v -47.54795300 27.46114613 -4.47694702
v -47.51335547 27.50041369 -9.43518026
v -47.47468991 31.49974470 -12.43404671
v -47.28135617 32.07204500 -13.40135319
v -47.20605460 31.49974470 -13.21572931
v -47.54591750 27.46114613 -8.43487067
v -47.54591750 32.07204500 -7.86355980
v -47.54591750 30.50002520 -8.43487067
v -47.54388200 29.50030569 -10.43548985
v -47.52760099 30.50002520 -11.43579944
v -47.51335547 32.07204500 -12.43404671
v -47.54388200 31.49974470 -11.43579944
v -47.54388200 32.07204500 -11.43579944
f 1 2 5
f 1 5 15
f 1 15 20
f 1 20 9
f 1 9 3
f 1 3 10
f 1 10 21
f 1 21 31
f 1 31 18
f 1 18 7
f 1 7 6
f 1 6 4
f 1 4 2
f 2 4 6
f 2 6 7
f 2 7 8
f 2 8 17
f 2 17 19
f 2 19 32
f 2 32 46
f 2 46 59
f 2 59 58
f 2 58 57
f 2 57 74
f 2 74 91
f 2 91 90
f 2 90 89
f 2 89 88
f 2 88 73
f 2 73 87
f 2 87 97
f 2 97 104
f 2 104 106
f 2 106 100
f 2 100 92
f 2 92 78
f 2 78 61
f 2 61 42
f 2 42 28
f 2 28 16
f 2 16 5
f 3 9 14
f 3 14 13
f 3 13 30
f 3 30 45
f 3 45 64
f 3 64 80
f 3 80 94
f 3 94 99
f 3 99 85
f 3 85 67
f 3 67 51
f 3 51 50
f 3 50 47
f 3 47 33
f 3 33 22
f 3 22 10
f 5 11 12
f 5 12 13
f 5 13 14
f 5 14 15
f 5 16 11
f 7 17 8
f 7 18 19
f 7 19 17
f 9 20 14
f 10 22 23
f 10 23 24
f 10 24 25
f 10 25 26
f 10 26 19
f 10 19 21
f 11 27 12
f 11 16 28
f 11 28 27
f 12 27 29
f 12 29 30
f 12 30 13
f 14 20 15
f 18 31 19
f 19 26 32
f 19 31 21
f 22 33 23
f 23 33 34
f 23 34 35
f 23 35 25
f 23 25 36
f 23 36 24
f 24 36 25
f 25 37 38
f 25 38 39
f 25 39 26
f 25 35 37
f 26 39 32
f 27 40 30
f 27 30 29
f 27 28 41
f 27 41 42
f 27 42 43
f 27 43 40
f 28 42 41
f 30 40 43
f 30 43 44
f 30 44 45
f 32 39 46
f 33 47 34
f 34 48 49
f 34 49 35
f 34 47 50
f 34 50 51
f 34 51 48
f 35 49 52
f 35 52 53
f 35 53 54
f 35 54 37
f 37 54 53
f 37 53 38
f 38 53 55
f 38 55 56
f 38 56 57
f 38 57 58
f 38 58 59
f 38 59 39
f 39 59 46
f 42 60 43
f 42 61 60
f 43 62 44
f 43 60 62
f 44 62 45
f 45 62 63
f 45 63 64
f 48 65 49
f 48 51 65
f 49 65 66
f 49 66 52
f 51 67 68
f 51 68 65
f 52 66 65
f 52 65 53
f 53 65 69
f 53 69 55
f 55 70 71
f 55 71 72
f 55 72 56
f 55 69 73
f 55 73 70
f 56 72 74
f 56 74 57
f 60 61 75
f 60 75 62
f 61 76 77
f 61 77 75
f 61 78 76
f 62 75 63
f 63 79 80
f 63 80 64
f 63 75 77
f 63 77 76
f 63 76 78
f 63 78 92
f 63 92 79
f 65 68 69
f 67 81 82
f 67 82 83
f 67 83 84
f 67 84 68
f 67 85 81
f 68 84 86
f 68 86 69
f 69 86 87
f 69 87 73
f 70 88 89
f 70 89 71
f 70 73 88
f 71 89 90
f 71 90 91
f 71 91 72
f 72 91 74
f 79 92 80
f 80 92 93
f 80 93 94
f 81 85 95
f 81 95 96
f 81 96 83
f 81 83 82
f 83 96 97
f 83 97 98
f 83 98 84
f 84 98 86
f 85 99 95
f 86 98 87
f 87 98 97
f 92 100 93
f 93 100 101
f 93 101 94
f 94 101 99
f 95 99 102
f 95 102 103
f 95 103 96
f 96 104 97
f 96 103 104
f 99 101 106
f 99 106 105
f 99 105 102
f 100 106 101
f 102 105 103
f 103 105 104
f 104 105 106

