# https://github.com/mikedh/trimesh
v -39.99024652 -19.50033035 31.99431860
v -39.99024652 -22.49968231 31.99431860
v -39.99024652 -18.50009088 31.96594077
v -40.51045902 -19.50033035 33.67334010
v -39.99024652 -23.49992177 31.98012969
v -40.51045902 -22.49968231 33.67334010
v -39.99024652 -18.33486350 31.88396038
v -40.57705840 -18.50009088 33.67334010
v -39.99024652 -24.30011275 31.61121792
v -40.51563867 -22.64101265 33.67334010
v -40.55485860 -23.49992177 33.67334010
v -39.99024652 -17.76612676 31.60018210
v -40.65623737 -18.34783647 33.67334010
v -40.80793745 -24.03520384 33.67334010
v -40.99885449 -24.19428598 33.67334010
v -41.25341154 -24.30147919 33.67334010
v -39.99024652 -24.54931877 30.54231973
v -41.04029470 -17.84123174 33.67334010
v -39.99024652 -17.66917663 31.06888610
v -42.38411987 -24.54522244 33.67334010
v -42.51509836 -24.54931877 33.67334010
v -39.99024652 -24.54931877 17.56734758
v -41.46282990 -17.73608596 33.67334010
v -39.99024652 -17.57563887 30.54231973
v -45.51428491 -24.54931877 33.67334010
v -45.51428491 -24.54931877 17.56734758
v -39.99024652 -17.57563887 17.56734758
v -42.51509836 -17.57495640 33.67334010
v -46.38377537 -24.54658888 33.67334010
v -46.48959469 -24.54658888 17.56734758
v -46.51475386 -17.57563887 17.56734758
v -45.51428491 -17.57495640 33.67334010
v -46.51475386 -24.54590491 33.67334010
v -46.51475386 -24.54590491 17.56734758
v -47.25104555 -17.78797638 17.56734758
v -46.51475386 -17.57563887 33.67334010
v -47.28212645 -24.27143689 33.67334010
v -47.28212645 -24.27143689 17.56734758
v -47.51892426 -18.50009088 17.56734758
v -47.25104555 -17.78797638 33.67334010
v -47.54926308 -23.49992177 33.67334010
v -47.28878728 -24.25232016 17.56734758
v -47.54852398 -19.47575083 17.56734758
v -47.54556461 -19.36992407 33.67334010
v -47.51892426 -18.50009088 33.67334010
v -47.54926308 -19.50033035 33.67334010
v -47.54926308 -23.49992177 17.56734758
v -47.54926308 -19.50033035 17.56734758
f 1 2 5
f 1 5 9
f 1 9 17
f 1 17 22
f 1 22 27
f 1 27 24
f 1 24 19
f 1 19 12
f 1 12 7
f 1 7 3
f 1 3 4
f 1 4 6
f 1 6 2
f 2 6 5
f 3 7 8
f 3 8 4
f 4 8 13
f 4 13 18
f 4 18 23
f 4 23 28
f 4 28 32
f 4 32 36
f 4 36 40
f 4 40 45
f 4 45 44
f 4 44 46
f 4 46 41
f 4 41 37
f 4 37 33
f 4 33 29
f 4 29 25
f 4 25 21
f 4 21 20
f 4 20 16
f 4 16 15
f 4 15 14
f 4 14 11
f 4 11 10
f 4 10 6
f 5 6 10
f 5 10 11
f 5 11 9
f 7 12 8
f 8 12 13
f 9 11 14
f 9 14 15
f 9 15 16
f 9 16 17
f 12 18 13
f 12 19 18
f 16 20 17
f 17 20 21
f 17 21 25
f 17 25 26
f 17 26 22
f 18 19 24
f 18 24 23
f 22 26 30
f 22 30 34
f 22 34 38
f 22 38 42
f 22 42 47
f 22 47 48
f 22 48 43
f 22 43 39
f 22 39 35
f 22 35 31
f 22 31 27
f 23 24 28
f 24 27 28
f 25 29 30
f 25 30 26
f 27 31 32
f 27 32 28
f 29 33 30
f 30 33 34
f 31 35 40
f 31 40 36
f 31 36 32
f 33 37 38
f 33 38 34
f 35 39 45
f 35 45 40
f 37 41 42
f 37 42 38
f 39 43 44
f 39 44 45
f 41 46 48
f 41 48 47
f 41 47 42
f 43 48 44
f 44 48 46

