# https://github.com/mikedh/trimesh
v -31.50792517 11.98780235 2.01152761
v -30.83964793 11.98920082 2.08563857
v -31.50792517 11.98780235 2.09942663
v -32.06565660 11.99409660 2.05116770
v -30.04971306 11.99269813 1.05497232
v -29.99638475 11.99269813 1.05497232
v -30.44468049 11.99059930 1.60305226
v -29.84861878 12.84674305 5.22762182
v -30.50800897 12.82855617 5.32758632
v -31.95899850 12.99083140 6.07387120
v -29.99638475 11.99269813 1.20319575
v -30.17303663 12.02207504 1.86847488
v -26.76443270 12.26968555 1.53066386
v -26.76443270 12.27318285 1.56341068
v -32.06565660 11.99409660 2.08908522
v -32.12731764 12.99083140 6.07387120
v -32.43895922 12.14308297 2.47515516
v -32.43895922 12.66208476 -1.29763634
v -26.76443270 12.56206066 -0.35486911
v -26.76443270 12.30535820 0.47414408
v -26.76443270 12.52778648 2.60959054
v -26.76443270 13.10764167 4.56234120
v -26.76443270 13.40981058 5.56715542
v -26.76443270 13.50493667 5.78604318
v -26.76443270 14.44781268 7.51129022
v -30.50800897 14.79124889 8.28342863
v -32.43895922 13.36574335 6.23760525
v -32.43895922 13.14121550 5.67401320
v -31.29016543 14.89057264 8.22310571
v -32.43895922 15.63060498 8.67811592
v -32.43895922 14.58490792 -4.40170207
v -31.25294678 12.94816488 -2.00255855
v -30.79076315 12.94816488 -2.00255855
v -26.76443270 14.00924889 -3.70540020
v -26.76443270 15.41167252 8.54195648
v -26.76443270 15.52148818 8.65053832
v -30.50800897 17.78564946 10.24824477
v -31.29849817 17.88497321 10.19136849
v -32.43895922 18.61661172 10.39302007
v -32.43895922 16.67979786 -6.41994636
v -31.50792517 15.03536135 -4.92220591
v -26.76443270 14.95422448 -4.98252883
v -26.76443270 17.50166743 9.74497563
v -26.76443270 18.49979996 10.03625103
v -26.76443270 19.13281508 10.11553346
v -32.43895922 19.13281508 10.38785010
v -32.43895922 17.49537169 -6.81808178
v -30.50800897 17.66534188 -7.16278757
v -26.76443270 15.47742244 -5.45822186
v -26.76443270 19.13281508 -7.21276908
v -32.43895922 19.13281508 -6.31136451
v -31.32960734 18.16335836 -7.05248017
v -31.32960734 17.73808642 -7.05248017
v -32.43895922 19.12791856 -6.43718403
v -30.50800897 18.34242125 -7.16278757
v -26.76443270 18.25498864 -6.86806329
v -26.76443270 17.45060708 -6.48027226
v -26.76443270 16.21605408 -5.87703713
v -31.49570472 19.13281508 -6.70777736
f 1 2 3
f 1 3 15
f 1 15 4
f 1 4 5
f 1 5 6
f 1 6 7
f 1 7 2
f 2 8 9
f 2 9 10
f 2 10 3
f 2 7 11
f 2 11 12
f 2 12 13
f 2 13 14
f 2 14 8
f 3 10 16
f 3 16 15
f 4 15 17
f 4 17 18
f 4 18 5
f 5 18 6
f 6 13 11
f 6 11 7
f 6 18 19
f 6 19 20
f 6 20 13
f 8 14 21
f 8 21 22
f 8 22 23
f 8 23 24
f 8 24 10
f 8 10 9
f 10 24 25
f 10 25 26
f 10 26 16
f 11 13 12
f 13 20 19
f 13 19 34
f 13 34 42
f 13 42 49
f 13 49 58
f 13 58 57
f 13 57 56
f 13 56 50
f 13 50 45
f 13 45 44
f 13 44 43
f 13 43 36
f 13 36 35
f 13 35 25
f 13 25 24
f 13 24 23
f 13 23 22
f 13 22 21
f 13 21 14
f 15 16 17
f 16 27 28
f 16 28 17
f 16 26 29
f 16 29 30
f 16 30 27
f 17 28 27
f 17 27 30
f 17 30 39
f 17 39 46
f 17 46 51
f 17 51 54
f 17 54 47
f 17 47 40
f 17 40 31
f 17 31 18
f 18 31 32
f 18 32 33
f 18 33 19
f 19 33 34
f 25 35 26
f 26 35 36
f 26 36 37
f 26 37 30
f 26 30 29
f 30 37 38
f 30 38 39
f 31 40 41
f 31 41 42
f 31 42 34
f 31 34 32
f 32 34 33
f 36 43 37
f 37 43 44
f 37 44 45
f 37 45 39
f 37 39 38
f 39 45 46
f 40 47 48
f 40 48 49
f 40 49 42
f 40 42 41
f 45 50 59
f 45 59 51
f 45 51 46
f 47 52 53
f 47 53 48
f 47 54 52
f 48 53 52
f 48 52 55
f 48 55 50
f 48 50 56
f 48 56 57
f 48 57 58
f 48 58 49
f 50 55 59
f 51 59 54
f 52 54 59
f 52 59 55

