# https://github.com/mikedh/trimesh
v -35.60017087 -35.40071177 57.54234575
v -36.45055502 -25.47670334 51.51797900
v -35.60251036 -35.40071177 58.54139610
v -35.60017087 -35.40071177 46.54422371
v -36.44704728 -25.47670334 40.51985696
v -36.45172626 -25.47670334 51.54161229
v -35.65163959 -35.40071177 59.54259222
v -35.60133913 -35.40071177 45.66549153
v -35.60251036 -35.40071177 45.54302758
v -35.61654728 -35.40071177 44.68792721
v -35.65514733 -35.40071177 43.72970165
v -36.50904220 -25.47670334 39.51651060
v -36.66110587 -25.47670334 52.63304406
v -36.97224870 -27.95406210 55.07373100
v -36.68099002 -35.40071177 60.23440385
v -36.67865053 -25.47670334 52.70179816
v -36.71725058 -25.47670334 52.81136960
v -36.82720349 -25.67100891 53.27329460
v -36.87750097 -26.81253551 54.17351429
v -35.76510024 -35.40071177 42.79081039
v -36.82954297 -25.47670334 38.65281820
v -37.00734100 -34.99364699 60.04533754
v -37.51499776 -25.47670334 53.36568198
v -37.51499776 -25.50682162 53.38716652
v -37.41557105 -35.40071177 60.28167043
v -36.63420028 -35.40071177 42.63182213
v -37.51499776 -25.47670334 38.36277247
v -36.84475113 -25.47670334 38.62703616
v -37.51499776 -27.93074770 55.09091803
v -37.51499776 -34.49040397 59.69728148
v -37.51499776 -34.99073232 60.04748629
v -37.51499776 -35.40071177 60.28382216
v -37.51499776 -26.71926895 54.24011665
v -45.51469321 -25.47670334 53.36568198
v -45.51469321 -25.50682162 53.38716652
v -37.51499776 -35.40071177 42.57596204
v -37.63314036 -25.47670334 38.35847497
v -46.51480154 -27.93074770 55.09091803
v -45.51469321 -34.49040397 59.69728148
v -45.51469321 -34.99073232 60.04748629
v -44.51458487 -35.40071177 60.28382216
v -46.51480154 -26.71926895 54.24011665
v -46.51480154 -25.47670334 53.36353323
v -46.51480154 -25.50682162 53.38501777
v -40.51532276 -35.40071177 42.55447750
v -38.51510609 -25.47670334 38.33913769
v -47.05521111 -27.95406210 55.07373100
v -46.51480154 -32.56680624 58.34588055
v -46.02702893 -34.99364699 60.04533754
v -45.51469321 -35.40071177 60.24085011
v -46.99321620 -25.47670334 53.20024598
v -47.14644813 -26.81253551 54.17351429
v -42.51436820 -35.40071177 42.55232875
v -45.51469321 -25.47670334 38.33699043
v -47.09381116 -30.90260547 57.10835154
v -46.51480154 -33.28766924 58.84433135
v -46.13932431 -35.40071177 60.12053491
v -46.51480154 -33.78799759 59.18594115
v -47.10200085 -33.86474766 59.13008255
v -47.29617231 -25.47670334 52.80922084
v -47.19323787 -25.67198046 53.26899709
v -47.16867474 -29.76204745 56.20813483
v -42.52723687 -35.40071177 42.55232875
v -46.51480154 -25.47670334 38.36491974
v -43.51447654 -35.40071177 42.56092227
v -47.18621940 -32.71156237 58.24275537
v -47.16516402 -34.49914501 59.24395149
v -46.63879137 -35.40071177 59.79826089
v -47.27745940 -33.51888804 58.56287765
v -47.34998051 -25.47670334 52.63304406
v -47.30786975 -26.48805015 53.57838158
v -47.26108299 -30.54120092 56.54114962
v -46.56627025 -25.47670334 38.37136450
v -43.54488987 -35.40071177 42.56521828
v -47.18271166 -35.40071177 59.30840510
v -47.43303081 -34.49914501 58.54139610
v -47.47513860 -31.49911505 56.54114962
v -47.54415495 -33.49945987 57.54234575
v -47.51490988 -27.50036554 53.54185578
v -47.54766269 -25.47670334 51.54161229
v -47.55000218 -26.50068040 52.54065966
v -47.44589650 -28.50102522 54.54090613
v -47.11369829 -26.12761716 38.95360619
v -47.17569320 -25.47670334 38.62703616
v -44.52862179 -35.40071177 42.98417421
v -47.45057547 -35.40071177 58.54139610
v -47.53128628 -30.49942692 55.54210225
v -47.55000218 -32.49977174 56.54114962
v -47.55000218 -34.49914501 57.54234575
v -47.55000218 -25.47670334 50.54256492
v -47.55000218 -25.50099228 51.54161229
v -45.57434863 -35.40071177 43.60294020
v -46.06913970 -35.40071177 44.05197418
v -46.61656773 -35.40071177 44.63421587
v -47.00374538 -35.40071177 45.05961656
v -47.22247996 -35.40071177 45.40981988
v -47.27979590 -26.47639146 39.53155037
v -47.41314368 -25.47670334 39.30810701
v -47.26926970 -35.40071177 45.50220577
v -47.55000218 -35.40071177 57.54234575
v -47.55000218 -25.47670334 40.54349025
v -47.49034675 -25.50099228 39.54444139
v -47.49151501 -25.47670334 39.54444139
v -47.55000218 -35.40071177 46.54422371
v -47.45057547 -34.49914501 45.54302758
v -47.55000218 -25.50099228 40.54349025
v -47.53947598 -26.50068040 40.54349025
v -47.55000218 -27.50036554 41.54468637
f 1 2 3
f 1 3 7
f 1 7 15
f 1 15 25
f 1 25 32
f 1 32 41
f 1 41 50
f 1 50 57
f 1 57 68
f 1 68 75
f 1 75 86
f 1 86 100
f 1 100 104
f 1 104 99
f 1 99 96
f 1 96 95
f 1 95 94
f 1 94 93
f 1 93 92
f 1 92 85
f 1 85 74
f 1 74 65
f 1 65 63
f 1 63 53
f 1 53 45
f 1 45 36
f 1 36 26
f 1 26 20
f 1 20 11
f 1 11 10
f 1 10 9
f 1 9 8
f 1 8 4
f 1 4 5
f 1 5 2
f 2 6 7
f 2 7 3
f 2 5 12
f 2 12 21
f 2 21 28
f 2 28 27
f 2 27 37
f 2 37 46
f 2 46 54
f 2 54 64
f 2 64 73
f 2 73 84
f 2 84 98
f 2 98 103
f 2 103 101
f 2 101 90
f 2 90 80
f 2 80 70
f 2 70 60
f 2 60 51
f 2 51 43
f 2 43 34
f 2 34 23
f 2 23 17
f 2 17 16
f 2 16 13
f 2 13 6
f 4 8 5
f 5 8 9
f 5 9 10
f 5 10 11
f 5 11 12
f 6 13 7
f 7 14 15
f 7 13 16
f 7 16 17
f 7 17 18
f 7 18 19
f 7 19 14
f 11 20 12
f 12 20 21
f 14 22 15
f 14 19 23
f 14 23 24
f 14 24 22
f 15 22 25
f 17 23 18
f 18 23 19
f 20 26 27
f 20 27 28
f 20 28 21
f 22 29 30
f 22 30 31
f 22 31 32
f 22 32 25
f 22 24 33
f 22 33 29
f 23 34 35
f 23 35 24
f 24 35 42
f 24 42 33
f 26 36 27
f 27 36 37
f 29 38 39
f 29 39 30
f 29 33 42
f 29 42 38
f 30 39 40
f 30 40 31
f 31 40 41
f 31 41 32
f 34 43 44
f 34 44 35
f 35 44 42
f 36 45 46
f 36 46 37
f 38 47 48
f 38 48 39
f 38 42 47
f 39 48 40
f 40 48 49
f 40 49 41
f 41 49 50
f 42 44 47
f 43 51 52
f 43 52 47
f 43 47 44
f 45 53 46
f 46 53 54
f 47 55 48
f 47 52 55
f 48 56 49
f 48 55 56
f 49 57 50
f 49 56 58
f 49 58 59
f 49 59 57
f 51 60 61
f 51 61 52
f 52 61 62
f 52 62 55
f 53 63 54
f 54 63 65
f 54 65 64
f 55 62 66
f 55 66 59
f 55 59 56
f 56 59 58
f 57 59 67
f 57 67 68
f 59 66 69
f 59 69 67
f 60 70 71
f 60 71 61
f 61 71 62
f 62 72 66
f 62 71 72
f 64 65 73
f 65 74 73
f 66 72 69
f 67 75 68
f 67 69 76
f 67 76 75
f 69 72 71
f 69 71 77
f 69 77 78
f 69 78 76
f 70 79 71
f 70 80 81
f 70 81 79
f 71 79 82
f 71 82 77
f 73 83 84
f 73 74 83
f 74 85 83
f 75 76 86
f 76 78 86
f 77 87 78
f 77 82 79
f 77 79 87
f 78 87 81
f 78 81 88
f 78 88 89
f 78 89 86
f 79 81 87
f 80 90 91
f 80 91 81
f 81 91 90
f 81 90 101
f 81 101 106
f 81 106 108
f 81 108 104
f 81 104 100
f 81 100 89
f 81 89 88
f 83 85 92
f 83 92 93
f 83 93 94
f 83 94 95
f 83 95 96
f 83 96 84
f 84 97 98
f 84 96 99
f 84 99 97
f 86 89 100
f 97 102 98
f 97 99 102
f 98 102 103
f 99 104 105
f 99 105 102
f 101 103 106
f 102 107 103
f 102 105 104
f 102 104 107
f 103 107 106
f 104 108 107
f 106 107 108

