# https://github.com/mikedh/trimesh
v 12.65360584 -4.28090927 6.56368756
v 12.75792894 20.50281525 5.70642920
v 12.75792894 -1.49616072 5.70577802
v 12.75792894 -4.28090927 5.70577802
v 12.88970743 -4.28090927 7.16080576
v 12.88970743 -0.49815932 7.16080576
v 12.88970743 14.50406907 7.15982973
v 12.88970743 28.49756423 7.15885222
v 12.88970743 32.49494021 7.15852737
v 12.65543571 26.49619403 6.56368756
v 12.75792894 31.49693732 5.70675405
v 13.12214930 17.50344216 5.20633401
v 13.12214930 6.50395418 5.20600917
v 13.04344877 -4.28090927 5.31540462
v 13.12214930 2.50121378 5.20600917
v 13.49186223 -4.28090927 7.36624819
v 13.49186223 0.50520949 7.36624819
v 13.49186223 15.50207196 7.36527217
v 13.49186223 38.49905082 7.36364347
v 13.49186223 47.49717009 7.36299229
v 12.89153879 46.49916720 7.15754986
v 12.89153879 48.49517000 7.15722501
v 12.65726557 41.49842391 6.56368756
v 12.75975880 47.49717009 5.70740523
v 13.12214930 47.49717009 5.20763637
v 13.12214930 45.49579989 5.20731153
v 13.12214930 28.49756423 5.20665886
v 14.05374959 47.49717009 4.14884267
v 13.12397916 -4.28090927 5.20568283
v 14.05374959 24.49482383 4.14884267
v 14.05557946 -4.28090927 4.14884267
v 14.49300927 -4.28090927 7.47466762
v 14.49300927 48.49517000 7.47466762
v 13.49186223 48.49517000 7.36266744
v 12.92448230 49.12294736 7.12596832
v 12.65909544 48.49517000 6.56368756
v 12.75975880 48.49517000 5.70870759
v 13.12397916 48.49517000 5.20861240
v 14.06290040 48.44688127 4.14884267
v 29.81956013 -4.28090927 4.14884267
v 29.49011314 -4.28090927 7.47466762
v 29.49011314 48.49517000 7.47466762
v 17.49279661 49.49854029 7.28257365
v 16.49164808 49.49854029 7.28192247
v 14.49300927 49.49854029 7.27931775
v 13.58154343 49.47171222 7.18717785
v 13.97504757 50.00290914 7.06996823
v 13.30883563 49.78828162 6.76978117
v 12.97756026 50.01363798 6.10298808
v 12.85127285 49.47171222 6.48717601
v 12.86591474 49.49854029 5.86922002
v 14.06473176 48.49517000 4.14884267
v 14.20932079 49.49854029 4.14884267
v 14.13611134 48.99417144 4.14884267
v 29.86348580 -4.28090927 4.19214398
v 29.81956013 48.49517000 4.14884267
v 29.70974447 -4.28090927 7.45285379
v 30.49126316 48.49517000 7.37471355
v 30.49126316 49.34293631 7.21908573
v 29.49011314 49.47707664 7.26922518
v 18.49211676 49.49854029 7.28192247
v 17.49279661 50.01363798 7.07713122
v 16.49164808 50.01363798 7.07648004
v 14.49300927 50.00827356 7.07355047
v 14.49300927 50.27118980 6.56368756
v 13.58154343 50.11558582 6.48717601
v 12.97756026 50.01363798 6.04080252
v 14.49300927 50.43215820 5.56414985
v 14.34476051 49.78291720 4.14884267
v 30.36314588 -4.28090927 4.69223917
v 29.86348580 48.49517000 4.19214398
v 29.78112405 48.62394591 4.14884267
v 30.49126316 -4.28090927 7.37438870
v 30.49126316 5.50058687 7.37471355
v 31.10622849 48.49517000 7.16927112
v 31.06779241 49.13904360 7.13410882
v 30.49126316 49.84193776 6.84433918
v 29.49011314 49.97607809 7.04848074
v 27.49147581 49.48780847 7.26922518
v 28.49079597 49.98144251 7.05206149
v 26.49032580 49.99217433 7.05824697
v 24.92545855 49.99753875 7.06345642
v 23.49054143 50.00290914 7.06638748
v 18.49211676 50.01363798 7.07615519
v 17.49279661 50.27655422 6.56368756
v 15.49232942 50.52336529 5.56414985
v 13.55225965 50.14777831 5.65010278
v 14.53327521 50.16924196 4.14884267
v 15.90779640 50.48581434 4.14884267
v 15.49232942 50.43752262 4.14884267
v 30.86280595 -4.28090927 5.20145090
v 30.36314588 48.49517000 4.69223917
v 29.50658489 49.49854029 4.14884267
v 31.10439862 -4.28090927 7.16894627
v 31.10622849 14.50406907 7.16927112
v 31.34965102 48.49517000 6.56368756
v 31.14832429 49.48244107 6.49531503
v 31.01471444 50.01900240 6.11601171
v 30.49126316 50.13704351 6.34457032
v 29.49011314 50.25508462 6.54838555
v 25.49100862 50.26045500 6.56140917
v 20.49258395 50.27118980 6.56368756
v 27.49147581 50.52336529 5.56414985
v 21.90736959 50.53410009 4.14884267
v 16.49164808 50.52873567 4.56395947
v 16.49164808 50.52873567 4.14884267
v 31.23617563 -4.28090927 5.70154460
v 30.86280595 23.49682243 5.20145090
v 30.20391197 49.49854029 4.85014687
v 30.86280595 48.49517000 5.20210208
v 30.86280595 46.49916720 5.20177574
v 29.28878641 49.82047411 4.14884267
v 30.02637943 50.02436682 5.02661249
v 31.15930348 -4.28090927 7.03610830
v 31.34965102 -4.28090927 6.56368756
v 31.32585683 -4.28090927 6.37484950
v 31.23617563 26.49619403 5.70154460
v 31.23434577 48.49517000 5.70187094
v 31.13001970 49.49854029 5.86042982
v 31.01471444 50.01900240 6.03396437
v 29.49011314 50.39995976 5.56414985
v 28.49079597 50.51800086 5.56414985
v 27.49147581 50.52873567 4.56395947
v 22.49122128 50.52873567 4.14884267
v 30.70357205 49.49854029 5.36065947
v 29.10759116 50.04583047 4.14884267
v 29.41324396 50.13167909 4.64177338
v 30.41256114 50.12631467 5.64619569
v 28.49079597 50.41068860 4.56395947
v 27.49147581 50.43215820 4.14884267
v 23.49054143 50.51800086 4.14884267
v 28.45601962 50.28728307 4.14884267
f 1 2 3
f 1 3 4
f 1 4 14
f 1 14 29
f 1 29 31
f 1 31 40
f 1 40 55
f 1 55 70
f 1 70 91
f 1 91 107
f 1 107 116
f 1 116 115
f 1 115 114
f 1 114 94
f 1 94 73
f 1 73 57
f 1 57 41
f 1 41 32
f 1 32 16
f 1 16 5
f 1 5 6
f 1 6 7
f 1 7 8
f 1 8 9
f 1 9 10
f 1 10 11
f 1 11 2
f 2 12 13
f 2 13 3
f 2 11 27
f 2 27 12
f 3 13 15
f 3 15 4
f 4 15 14
f 5 16 17
f 5 17 6
f 6 17 7
f 7 17 18
f 7 18 8
f 8 19 20
f 8 20 9
f 8 18 19
f 9 20 21
f 9 21 22
f 9 22 23
f 9 23 10
f 10 23 24
f 10 24 11
f 11 24 25
f 11 25 26
f 11 26 27
f 12 27 28
f 12 28 13
f 13 28 30
f 13 30 15
f 14 15 29
f 15 30 31
f 15 31 29
f 16 32 33
f 16 33 17
f 17 33 18
f 18 33 19
f 19 33 20
f 20 33 34
f 20 34 22
f 20 22 21
f 22 34 35
f 22 35 36
f 22 36 23
f 23 36 37
f 23 37 24
f 24 37 25
f 25 37 38
f 25 38 28
f 25 28 26
f 26 28 27
f 28 38 39
f 28 39 52
f 28 52 54
f 28 54 53
f 28 53 69
f 28 69 88
f 28 88 90
f 28 90 89
f 28 89 106
f 28 106 104
f 28 104 124
f 28 124 131
f 28 131 130
f 28 130 132
f 28 132 126
f 28 126 112
f 28 112 93
f 28 93 72
f 28 72 56
f 28 56 40
f 28 40 31
f 28 31 30
f 32 41 42
f 32 42 33
f 33 42 43
f 33 43 44
f 33 44 45
f 33 45 46
f 33 46 34
f 34 46 35
f 35 46 47
f 35 47 48
f 35 48 49
f 35 49 50
f 35 50 36
f 36 50 51
f 36 51 37
f 37 51 38
f 38 52 39
f 38 51 53
f 38 53 54
f 38 54 52
f 40 56 71
f 40 71 55
f 41 57 42
f 42 58 59
f 42 59 60
f 42 60 61
f 42 61 43
f 42 57 58
f 43 61 62
f 43 62 63
f 43 63 44
f 44 63 45
f 45 63 64
f 45 64 47
f 45 47 46
f 47 64 65
f 47 65 66
f 47 66 49
f 47 49 48
f 49 67 50
f 49 66 68
f 49 68 67
f 50 67 51
f 51 67 69
f 51 69 53
f 55 71 92
f 55 92 70
f 56 72 71
f 57 73 74
f 57 74 58
f 58 75 76
f 58 76 59
f 58 74 95
f 58 95 75
f 59 76 77
f 59 77 78
f 59 78 60
f 60 79 61
f 60 78 80
f 60 80 81
f 60 81 82
f 60 82 83
f 60 83 84
f 60 84 79
f 61 84 62
f 61 79 84
f 62 84 85
f 62 85 63
f 63 85 65
f 63 65 64
f 65 85 86
f 65 86 68
f 65 68 66
f 67 68 87
f 67 87 88
f 67 88 69
f 68 86 89
f 68 89 90
f 68 90 88
f 68 88 87
f 70 92 108
f 70 108 91
f 71 72 92
f 72 93 92
f 73 94 95
f 73 95 74
f 75 96 76
f 75 95 115
f 75 115 96
f 76 97 98
f 76 98 77
f 76 96 97
f 77 98 99
f 77 99 78
f 78 99 100
f 78 100 80
f 80 100 81
f 81 100 82
f 82 100 83
f 83 100 84
f 84 100 101
f 84 101 102
f 84 102 85
f 85 102 103
f 85 103 86
f 86 103 104
f 86 104 105
f 86 105 106
f 86 106 89
f 91 108 117
f 91 117 107
f 92 93 109
f 92 109 110
f 92 110 111
f 92 111 108
f 93 112 113
f 93 113 109
f 94 114 95
f 95 114 115
f 96 115 116
f 96 116 117
f 96 117 118
f 96 118 119
f 96 119 97
f 97 119 120
f 97 120 98
f 98 120 121
f 98 121 99
f 99 121 100
f 100 121 122
f 100 122 103
f 100 103 102
f 100 102 101
f 103 123 104
f 103 122 123
f 104 123 124
f 104 106 105
f 107 117 116
f 108 111 117
f 109 125 110
f 109 113 125
f 110 118 111
f 110 125 119
f 110 119 118
f 111 118 117
f 112 126 113
f 113 126 127
f 113 127 128
f 113 128 120
f 113 120 125
f 119 125 120
f 120 128 121
f 121 128 129
f 121 129 123
f 121 123 122
f 123 129 130
f 123 130 131
f 123 131 124
f 126 132 127
f 127 132 129
f 127 129 128
f 129 132 130

