# https://github.com/mikedh/trimesh
v -3.82796021 34.35542898 -13.78057477
v -3.62133955 25.17785995 -13.78057477
v -3.82796021 34.35542898 -10.56370864
v -3.82796021 42.81280855 -13.78057477
v -3.53327202 24.50182123 -13.78057477
v -3.55867632 24.50182123 -10.56370864
v -3.62472734 25.50070320 -10.56370864
v -3.82796021 42.81280855 -10.56370864
v -3.61117843 49.49869280 -13.78057477
v -3.48923826 24.17897798 -13.78057477
v -3.30971616 23.54708851 -10.56370864
v -3.61117843 49.49869280 -10.56370864
v -3.30632912 50.27406734 -13.78057477
v -3.20979324 23.30702585 -13.78057477
v -3.08785382 22.95107067 -13.78057477
v -2.51372061 22.56476326 -10.56370864
v -3.30632912 50.27406734 -10.56370864
v -2.51372061 50.55000163 -13.78057477
v -2.86768500 22.80206770 -13.78057477
v -1.51449294 22.36884985 -10.56370864
v -2.51372061 50.55000163 -10.56370864
v 10.48471272 50.55000163 -13.78057477
v -2.51372061 22.77447368 -13.78057477
v -0.51357100 22.36333194 -10.56370864
v -2.23088856 22.76895428 -13.78057477
v -1.51449294 22.75791696 -13.78057477
v -1.40779520 50.55000163 -10.56370864
v 11.48394039 50.54724193 -13.78057477
v 10.48471272 50.55000163 -13.45747224
v 0.48565742 22.53717072 -10.56370864
v 11.48394039 22.75791696 -13.78057477
v 12.48486233 22.77999159 -13.78057477
v 11.28070752 23.94443473 -10.88807180
v -0.40856752 50.54724193 -10.56370864
v 10.48471272 50.54448223 -12.45729834
v 11.48394039 50.54724193 -13.45747224
v 12.48486233 50.32925539 -13.78057477
v 10.48471272 24.50182123 -10.63676918
v 10.48471272 25.16130473 -10.56370864
v 13.04544663 22.95383037 -13.78057477
v 11.94798881 24.03549293 -11.05497706
v 11.56184531 24.42180034 -10.79076404
v 0.59235442 50.44238523 -10.56370864
v 11.06223222 50.01744499 -10.93940342
v 10.48471272 50.30166434 -11.45775625
v 11.48394039 50.51689119 -12.45729834
v 12.48486233 50.32925539 -13.45747224
v 12.66438443 50.24095689 -13.78057477
v 11.48394039 25.50070320 -10.64464296
v 10.80141667 25.50070320 -10.56370864
v 13.40618360 24.50182123 -13.78057477
v 13.37400597 24.50182123 -13.45747224
v 13.14536805 24.44663467 -12.45226174
v 13.05899479 24.74188389 -11.84604851
v 12.80495332 24.07412277 -12.11624584
v 12.08686493 24.70325404 -10.89279548
v 10.48471272 48.69848395 -10.56370864
v 10.48471272 49.49869280 -10.71360866
v 11.43143902 49.50697191 -10.82162441
v 11.72951351 49.84636739 -11.04836391
v 12.23590217 50.14437929 -11.71504320
v 11.43143902 50.20784644 -11.41209304
v 12.53567092 50.21887929 -12.47682486
v 13.02004159 50.03676289 -12.82323285
v 13.03867254 50.05608079 -13.45747224
v 13.03867254 50.05608079 -13.78057477
v 12.13767203 25.50070320 -10.86004564
v 12.13936630 28.50010731 -10.86004564
v 11.48394039 43.49988458 -10.64464296
v 10.80141667 41.49936393 -10.56370864
v 13.47392888 25.50070320 -13.78057477
v 13.47223462 25.50070320 -13.45747224
v 13.34013258 25.50070320 -12.45729834
v 13.09625373 25.50070320 -11.78999321
v 12.63898088 25.50070320 -11.28990626
v 10.60326510 48.62674067 -10.56370864
v 10.79802963 48.49981233 -10.56370864
v 11.48394039 48.49981233 -10.64527179
v 12.08686493 49.17860926 -10.89279548
v 12.49502345 49.52352713 -11.44673235
v 12.90318198 49.86844500 -12.15686947
v 13.14706232 49.52076743 -12.47682486
v 13.28255140 49.49869280 -13.45747224
v 13.28255140 49.49869280 -13.78057477
v 12.63898088 37.49831666 -11.28927445
v 12.63898088 45.49764852 -11.28896152
v 12.13936630 44.49876506 -10.86004564
v 11.48394039 47.49816917 -10.64495887
v 10.79972389 45.81221266 -10.56370864
v 13.47392888 25.82354644 -13.78057477
v 13.47223462 48.49981233 -13.45747224
v 13.09625373 29.50174748 -11.78967730
v 13.34013258 45.49764852 -12.45729834
v 13.09625373 42.49824440 -11.78904847
v 13.09625373 35.50055571 -11.78936140
v 12.13767203 48.49981233 -10.86035857
v 12.63898088 48.49981233 -11.28896152
v 13.05899479 49.20068389 -11.84541670
v 13.33843980 48.49981233 -12.45729834
v 13.41126490 48.82265557 -13.78057477
v 13.47223462 48.49981233 -13.78057477
v 13.09625373 48.49981233 -11.78904847
f 1 2 3
f 1 3 8
f 1 8 4
f 1 4 9
f 1 9 13
f 1 13 18
f 1 18 22
f 1 22 28
f 1 28 37
f 1 37 48
f 1 48 66
f 1 66 84
f 1 84 100
f 1 100 101
f 1 101 90
f 1 90 71
f 1 71 51
f 1 51 40
f 1 40 32
f 1 32 31
f 1 31 26
f 1 26 25
f 1 25 23
f 1 23 19
f 1 19 15
f 1 15 14
f 1 14 10
f 1 10 5
f 1 5 2
f 2 5 6
f 2 6 7
f 2 7 3
f 3 7 6
f 3 6 11
f 3 11 16
f 3 16 20
f 3 20 24
f 3 24 30
f 3 30 39
f 3 39 50
f 3 50 70
f 3 70 89
f 3 89 77
f 3 77 76
f 3 76 57
f 3 57 43
f 3 43 34
f 3 34 27
f 3 27 21
f 3 21 17
f 3 17 12
f 3 12 8
f 4 8 12
f 4 12 9
f 5 10 6
f 6 10 11
f 9 12 17
f 9 17 13
f 10 14 11
f 11 14 15
f 11 15 16
f 13 17 21
f 13 21 18
f 15 19 16
f 16 19 20
f 18 21 27
f 18 27 29
f 18 29 22
f 19 23 20
f 20 23 25
f 20 25 26
f 20 26 24
f 22 29 36
f 22 36 28
f 24 26 31
f 24 31 32
f 24 32 33
f 24 33 30
f 27 34 35
f 27 35 29
f 28 36 47
f 28 47 37
f 29 35 36
f 30 33 38
f 30 38 39
f 32 40 41
f 32 41 33
f 33 41 42
f 33 42 38
f 34 43 44
f 34 44 45
f 34 45 46
f 34 46 35
f 35 46 36
f 36 46 47
f 37 47 48
f 38 42 49
f 38 49 39
f 39 49 50
f 40 51 52
f 40 52 53
f 40 53 54
f 40 54 55
f 40 55 41
f 41 55 54
f 41 54 56
f 41 56 42
f 42 56 49
f 43 57 58
f 43 58 44
f 44 58 59
f 44 59 60
f 44 60 61
f 44 61 62
f 44 62 45
f 45 62 46
f 46 62 61
f 46 61 63
f 46 63 47
f 47 63 64
f 47 64 65
f 47 65 48
f 48 65 66
f 49 56 67
f 49 67 68
f 49 68 87
f 49 87 69
f 49 69 70
f 49 70 50
f 51 71 72
f 51 72 52
f 52 72 73
f 52 73 53
f 53 73 54
f 54 73 74
f 54 74 75
f 54 75 56
f 56 75 67
f 57 76 59
f 57 59 58
f 59 76 77
f 59 77 78
f 59 78 79
f 59 79 60
f 60 79 80
f 60 80 61
f 61 64 63
f 61 80 81
f 61 81 64
f 64 81 82
f 64 82 83
f 64 83 65
f 65 83 84
f 65 84 66
f 67 75 68
f 68 75 85
f 68 85 86
f 68 86 97
f 68 97 87
f 69 87 88
f 69 88 77
f 69 77 89
f 69 89 70
f 71 90 91
f 71 91 72
f 72 91 93
f 72 93 73
f 73 92 74
f 73 93 102
f 73 102 94
f 73 94 95
f 73 95 92
f 74 92 75
f 75 92 95
f 75 95 85
f 77 88 78
f 78 96 79
f 78 88 96
f 79 96 97
f 79 97 98
f 79 98 80
f 80 98 81
f 81 98 82
f 82 98 99
f 82 99 83
f 83 99 91
f 83 91 100
f 83 100 84
f 85 95 94
f 85 94 86
f 86 94 102
f 86 102 97
f 87 97 96
f 87 96 88
f 90 101 91
f 91 101 100
f 91 99 93
f 93 99 102
f 97 102 98
f 98 102 99

