# https://github.com/mikedh/trimesh
v -30.15236573 27.98239204 43.03068049
v -29.97968650 27.98239204 43.03068049
v -30.15236573 27.98239204 43.09088122
v -32.18017656 27.98420104 39.03728461
v -30.15807734 27.98420104 21.03690205
v -29.74317512 28.65396095 55.56071386
v -29.97968650 27.98239204 43.09088122
v -29.98002177 27.98420104 21.03690205
v -31.16224038 27.98420104 52.09308043
v -32.18017656 27.98420104 39.09748534
v -32.37368614 27.99144301 20.04958926
v -29.46399872 29.50111334 55.56071386
v -29.79793543 28.65214897 58.56278108
v -29.98976416 27.98963401 46.08492565
v -30.88440657 27.98420104 52.09308043
v -31.97860545 27.99506399 20.05761652
v -30.33881960 29.18071732 19.64824264
v -29.82850816 29.47758141 19.64824264
v -29.52077516 30.41705250 19.64824264
v -29.60274650 29.50111334 20.56732595
v -29.56041674 29.50111334 24.56473620
v -29.53286895 29.50111334 27.56680641
v -29.51539882 29.50111334 30.56486298
v -30.50847538 28.30641202 58.56278108
v -32.37368614 28.36795385 57.71995301
v -32.37368614 27.99144301 42.08350251
v -32.37368614 28.38062581 19.64824264
v -32.35184996 28.38062581 19.64824264
v -28.94159201 34.82659187 50.43551897
v -28.94159201 34.82659187 58.56278108
v -28.94159201 34.92977055 59.55811964
v -28.94159201 35.00398732 60.03170863
v -29.52077516 29.50111334 58.56278108
v -28.94159201 34.83021285 19.64824264
v -28.94159201 34.82840385 26.43902327
v -29.82649204 28.68111089 59.26112442
v -30.50847538 29.10649757 19.64824264
v -29.50968869 30.50032024 19.64824264
v -29.47004562 30.50032024 20.56732595
v -30.50847538 28.63585901 59.28119033
v -32.37368614 28.59784613 58.48251145
v -32.37368614 42.49622414 19.64824264
v -28.94159201 35.14517889 60.29659779
v -29.54798619 30.50032024 59.56213401
v -28.94159201 46.47313783 19.64824264
v -29.75426159 29.55360718 59.58219993
v -29.82716408 30.50032024 60.23238269
v -29.95314602 29.92287904 60.10395248
v -31.28419155 28.83678639 59.15276013
v -32.37368614 28.70826678 58.59489012
v -30.14027194 29.92287904 60.10395248
v -32.37368614 30.68495468 60.35679852
v -32.36931861 45.49927186 19.64824264
v -32.37368614 42.49622414 58.42632510
v -28.94159201 36.06836002 60.57352709
v -30.50847538 46.47313783 19.64824264
v -28.94159201 46.47494684 35.99909249
v -29.72940197 31.50133615 60.34475837
v -30.50847538 31.50133615 60.63372782
v -30.48764652 30.44601442 60.31666668
v -32.37368614 29.12822050 58.97616934
v -32.37368614 31.50133615 60.64978532
v -32.14221434 46.13101591 27.56680641
v -32.14221434 46.12920691 19.64824264
v -32.36931861 45.49927186 28.56615860
v -32.37368614 42.49441216 58.56278108
v -28.94159201 36.50098569 60.62971643
v -29.50867988 46.47494684 36.56499124
v -30.59279961 46.46589587 19.64824264
v -30.50847538 46.47494684 50.55993778
v -28.94159201 46.47494684 58.56278108
v -28.94159201 37.06756693 60.63372782
v -28.94159201 40.06518466 60.63372782
v -28.94159201 44.49825595 60.62570205
v -31.50827088 39.49860641 60.63372782
v -32.37368614 40.49962231 60.62971643
v -31.50827088 46.36814717 21.56667889
v -32.14221434 46.13101591 39.56706145
v -31.56168860 46.34642424 19.64824264
v -32.36898333 45.49927186 34.56628537
v -32.14187907 46.13101591 46.56252753
v -32.37368614 42.34416962 59.42567804
v -32.36663193 45.49927186 58.56278108
v -32.36730248 45.49927186 54.56135794
v -32.36797452 45.49927186 47.56187897
v -32.36864656 45.49927186 39.56706145
v -31.50827088 46.36633817 19.64824264
v -30.50847538 46.47494684 58.56278108
v -28.94159201 46.28487943 59.56213401
v -28.94159201 45.49927186 60.39693631
v -29.50867988 45.49927186 60.39693631
v -29.50867988 44.49825595 60.61767628
v -30.50847538 44.49825595 60.49325747
v -31.47635555 45.49746286 60.21231677
v -32.06225764 45.16258290 60.11599263
v -32.37368614 40.63357191 60.60162176
v -31.50827088 46.36814717 55.56071386
v -32.14154230 46.13101591 51.56330211
v -32.37368614 42.31339870 59.56213401
v -32.37368614 42.10704134 60.05177752
v -32.37368614 42.06540747 60.12803277
v -32.37368614 41.49882624 60.41298785
v -32.18420882 45.49746286 59.58219993
v -32.09652437 46.08576106 59.26513879
v -32.14087026 46.12920691 58.56278108
v -31.50827088 46.36633817 58.56278108
v -30.50847538 46.28487943 59.56213401
v -28.94159201 46.04775115 60.11197825
v -28.94159201 45.81061989 60.23639706
v -30.50847538 46.04775115 60.11197825
v -30.50847538 45.49927186 60.37285602
v -31.12158999 46.03145821 60.09592671
v -31.78812082 45.82872183 59.93137309
v -31.47635555 46.16541079 59.58219993
f 1 2 7
f 1 7 3
f 1 3 10
f 1 10 4
f 1 4 5
f 1 5 8
f 1 8 2
f 2 6 7
f 2 8 6
f 3 7 15
f 3 15 9
f 3 9 10
f 4 10 26
f 4 26 11
f 4 11 5
f 5 11 8
f 6 12 13
f 6 13 14
f 6 14 7
f 6 8 12
f 7 14 15
f 8 11 16
f 8 16 17
f 8 17 18
f 8 18 19
f 8 19 20
f 8 20 21
f 8 21 22
f 8 22 23
f 8 23 12
f 9 15 24
f 9 24 25
f 9 25 26
f 9 26 10
f 11 27 28
f 11 28 16
f 11 26 25
f 11 25 41
f 11 41 50
f 11 50 61
f 11 61 52
f 11 52 62
f 11 62 76
f 11 76 96
f 11 96 102
f 11 102 101
f 11 101 100
f 11 100 99
f 11 99 82
f 11 82 66
f 11 66 54
f 11 54 42
f 11 42 27
f 12 29 30
f 12 30 31
f 12 31 32
f 12 32 33
f 12 33 13
f 12 23 34
f 12 34 35
f 12 35 29
f 13 33 36
f 13 36 24
f 13 24 14
f 14 24 15
f 16 28 37
f 16 37 17
f 17 37 28
f 17 28 27
f 17 27 42
f 17 42 53
f 17 53 64
f 17 64 79
f 17 79 87
f 17 87 69
f 17 69 56
f 17 56 45
f 17 45 34
f 17 34 38
f 17 38 19
f 17 19 18
f 19 38 20
f 20 38 39
f 20 39 21
f 21 39 22
f 22 39 34
f 22 34 23
f 24 36 40
f 24 40 41
f 24 41 25
f 29 35 34
f 29 34 45
f 29 45 57
f 29 57 71
f 29 71 89
f 29 89 108
f 29 108 109
f 29 109 90
f 29 90 74
f 29 74 73
f 29 73 72
f 29 72 67
f 29 67 55
f 29 55 43
f 29 43 32
f 29 32 31
f 29 31 30
f 32 43 33
f 33 43 44
f 33 44 36
f 34 39 38
f 36 44 46
f 36 46 47
f 36 47 48
f 36 48 40
f 40 49 50
f 40 50 41
f 40 48 51
f 40 51 52
f 40 52 49
f 42 54 65
f 42 65 53
f 43 55 47
f 43 47 44
f 44 47 46
f 45 56 57
f 47 55 58
f 47 58 59
f 47 59 48
f 48 59 60
f 48 60 51
f 49 61 50
f 49 52 61
f 51 60 52
f 52 60 62
f 53 63 64
f 53 65 78
f 53 78 63
f 54 66 65
f 55 67 58
f 56 68 57
f 56 69 70
f 56 70 68
f 57 68 70
f 57 70 88
f 57 88 71
f 58 67 59
f 59 72 62
f 59 62 60
f 59 67 72
f 62 72 73
f 62 73 74
f 62 74 75
f 62 75 76
f 63 77 64
f 63 78 97
f 63 97 77
f 64 77 79
f 65 80 81
f 65 81 78
f 65 66 80
f 66 82 83
f 66 83 84
f 66 84 85
f 66 85 86
f 66 86 80
f 69 87 77
f 69 77 70
f 70 77 97
f 70 97 88
f 71 88 107
f 71 107 89
f 74 90 91
f 74 91 92
f 74 92 76
f 74 76 75
f 76 92 93
f 76 93 94
f 76 94 95
f 76 95 96
f 77 87 79
f 78 81 97
f 80 86 98
f 80 98 81
f 81 98 97
f 82 99 83
f 83 99 100
f 83 100 101
f 83 101 102
f 83 102 103
f 83 103 104
f 83 104 105
f 83 105 98
f 83 98 84
f 84 98 85
f 85 98 86
f 88 97 106
f 88 106 107
f 89 107 110
f 89 110 108
f 90 109 91
f 91 109 110
f 91 110 111
f 91 111 92
f 92 111 93
f 93 111 94
f 94 111 112
f 94 112 113
f 94 113 95
f 95 102 96
f 95 113 104
f 95 104 103
f 95 103 102
f 97 98 105
f 97 105 106
f 104 113 112
f 104 112 114
f 104 114 106
f 104 106 105
f 106 114 107
f 107 114 112
f 107 112 110
f 108 110 109
f 110 112 111

