# https://github.com/mikedh/trimesh
v -45.51469619 16.29866939 -2.85687226
v -45.51469619 13.16032061 -2.50667639
v -46.51387171 13.16032061 -2.50362313
v -45.64772210 16.29866939 -2.85585302
v -38.51601507 16.29866939 -2.85585302
v -37.51535837 13.16032061 -2.50667639
v -47.02085195 13.16032061 -2.32241720
v -46.58481926 16.29866939 -2.83345802
v -46.51387171 16.29866939 -2.84770951
v -37.51535837 16.29866939 -2.85178201
v -33.51569095 14.70584085 -2.04755579
v -33.51569095 14.20571963 -1.92844908
v -36.56495743 13.16032061 -2.21247323
v -47.28099396 13.16032061 -2.22876023
v -47.30020755 16.29866939 -2.44559641
v -33.71966441 16.29866939 -1.90198010
v -33.85860312 16.15950866 -2.00785306
v -33.52160374 15.41547133 -2.05977179
v -33.01018891 15.02563531 -1.96204382
v -33.01018891 14.92763912 -1.96204382
v -32.83282003 13.82172041 -1.26165506
v -36.20726328 13.16032061 -1.45711100
v -33.51569095 13.45769027 -0.45742884
v -47.55000218 13.16032061 -1.45711100
v -47.55000218 16.29866939 -1.45711100
v -33.44030881 16.29866939 -1.78185564
v -33.19199238 15.69256494 -1.87042235
v -32.80769364 16.29866939 -1.29321280
v -32.80325905 15.41547133 -1.50495872
v -32.79291166 14.55684831 -1.53956972
v -32.46034688 14.50032363 -0.45742884
v -32.73970249 13.72894708 -0.45742884
v -36.16735491 13.16032061 -0.45742884
v -33.51569095 13.45001020 0.54327256
v -47.55000218 13.16032061 2.54162062
v -47.55000218 16.29866939 3.54232203
v -32.51503425 16.29866939 -0.45742884
v -32.47216949 15.49995065 -0.45742884
v -32.44999949 16.29866939 0.54327256
v -32.44999949 15.49995065 0.54327256
v -32.45443409 14.50032363 0.54327256
v -32.73674609 13.72526053 0.54327256
v -36.15405410 13.16032061 0.54327256
v -33.51569095 13.45001020 7.54207289
v -47.53669840 13.16032061 3.20230814
v -47.54556759 14.50032363 3.54232203
v -47.55000218 15.49995065 3.54232203
v -47.53078560 16.29866939 4.34044025
v -32.44999949 16.29866939 7.54207289
v -32.44999949 15.49995065 7.54207289
v -32.45443409 14.49970970 7.54207289
v -32.73674609 13.72526053 7.54207289
v -36.15405410 13.16032061 1.56128021
v -35.51552615 13.45001020 7.54207289
v -37.51535837 13.16032061 4.65296889
v -36.62851399 13.16032061 4.53589768
v -36.52948365 13.16032061 4.50841094
v -36.19691589 13.16032061 3.54232203
v -36.19248130 13.16032061 3.43848606
v -36.15552932 13.16032061 2.55587361
v -47.52635399 13.16032061 3.54232203
v -47.48496742 16.29866939 4.55320392
v -37.55822313 16.29866939 7.54207289
v -36.51617987 13.48933146 7.54207289
v -46.51387171 13.16032061 4.49924969
v -47.34898511 13.16032061 4.02791161
v -47.30168575 16.29866939 5.36150115
v -46.51387171 16.29866939 5.87050497
v -37.42519722 14.50032363 7.54207289
v -37.22122078 13.76427483 7.54207289
v -46.76366633 13.16032061 4.42697146
v -47.25882099 13.16032061 4.27019752
v -47.26029919 16.29866939 5.45210486
f 1 2 3
f 1 3 4
f 1 4 9
f 1 9 8
f 1 8 15
f 1 15 25
f 1 25 36
f 1 36 48
f 1 48 62
f 1 62 67
f 1 67 73
f 1 73 68
f 1 68 63
f 1 63 49
f 1 49 39
f 1 39 37
f 1 37 28
f 1 28 26
f 1 26 16
f 1 16 10
f 1 10 5
f 1 5 6
f 1 6 2
f 2 6 13
f 2 13 22
f 2 22 33
f 2 33 43
f 2 43 53
f 2 53 60
f 2 60 59
f 2 59 58
f 2 58 57
f 2 57 56
f 2 56 55
f 2 55 65
f 2 65 71
f 2 71 72
f 2 72 66
f 2 66 61
f 2 61 45
f 2 45 35
f 2 35 24
f 2 24 14
f 2 14 7
f 2 7 3
f 3 7 8
f 3 8 9
f 3 9 4
f 5 10 6
f 6 10 11
f 6 11 12
f 6 12 13
f 7 14 8
f 8 14 15
f 10 16 17
f 10 17 18
f 10 18 19
f 10 19 20
f 10 20 11
f 11 20 12
f 12 20 21
f 12 21 13
f 13 21 23
f 13 23 22
f 14 24 15
f 15 24 25
f 16 26 17
f 17 26 27
f 17 27 19
f 17 19 18
f 19 27 28
f 19 28 29
f 19 29 30
f 19 30 20
f 20 30 21
f 21 30 31
f 21 31 32
f 21 32 23
f 22 23 34
f 22 34 33
f 23 32 34
f 24 35 47
f 24 47 36
f 24 36 25
f 26 28 27
f 28 37 29
f 29 37 38
f 29 38 30
f 30 38 31
f 31 38 39
f 31 39 40
f 31 40 41
f 31 41 32
f 32 41 42
f 32 42 34
f 33 34 43
f 34 42 52
f 34 52 44
f 34 44 53
f 34 53 43
f 35 45 46
f 35 46 47
f 36 47 48
f 37 39 38
f 39 49 50
f 39 50 40
f 40 50 51
f 40 51 41
f 41 51 42
f 42 51 52
f 44 54 55
f 44 55 56
f 44 56 57
f 44 57 58
f 44 58 59
f 44 59 60
f 44 60 53
f 44 52 51
f 44 51 50
f 44 50 49
f 44 49 63
f 44 63 69
f 44 69 70
f 44 70 64
f 44 64 54
f 45 61 46
f 46 61 48
f 46 48 47
f 48 61 62
f 54 64 65
f 54 65 55
f 61 66 67
f 61 67 62
f 63 68 69
f 64 70 65
f 65 70 71
f 66 72 67
f 67 72 73
f 68 73 72
f 68 72 71
f 68 71 70
f 68 70 69

