# https://github.com/mikedh/trimesh
v 7.81003861 -8.49339929 3.63567021
v 7.81003861 -4.28132092 2.82734879
v 7.44482732 -4.28132092 5.56383991
v 7.47585900 -5.50020534 5.56383991
v 7.17032243 -4.28132092 7.18540312
v 7.15659696 -6.25149291 6.37052220
v 6.18270268 -7.07782761 6.19672389
v 7.02829640 -8.49339929 4.09967775
v 7.81003861 -8.49339929 -3.59004130
v 7.81003861 -4.28132092 -2.77024299
v 6.75080830 -4.28132092 7.86583525
v 6.49122246 -4.28132092 8.11833558
v 6.33547096 -4.28132092 8.26098001
v 6.50614151 -6.55044168 6.45414161
v 1.71424408 -8.49339929 6.69352295
v 7.07245602 -8.49339929 -3.98026718
v 6.28534343 -6.18716791 -7.05287654
v 7.15242016 -6.28448038 -6.24127537
v 7.17927356 -4.28132092 -7.09058842
v 7.28131827 -4.28132092 -6.66592892
v 7.46392317 -4.28132092 -5.65429742
v 5.97682364 -4.28132092 8.37411119
v 4.21521997 -5.06270997 8.13965022
v 1.71424408 -4.50687211 8.58070101
v 1.71424408 -8.49339929 -6.65445502
v 5.49107082 -6.25438001 -7.14141334
v 6.52702699 -4.28132092 -7.73003042
v 1.71424408 -4.28132092 8.63316803
v 1.71424408 -4.28132092 -8.11533593
v 4.49211128 -5.50020534 -7.48081133
f 1 2 3
f 1 3 4
f 1 4 5
f 1 5 6
f 1 6 7
f 1 7 8
f 1 8 15
f 1 15 25
f 1 25 16
f 1 16 9
f 1 9 10
f 1 10 2
f 2 10 21
f 2 21 20
f 2 20 19
f 2 19 27
f 2 27 29
f 2 29 28
f 2 28 22
f 2 22 13
f 2 13 12
f 2 12 11
f 2 11 5
f 2 5 3
f 3 5 4
f 5 11 6
f 6 11 12
f 6 12 13
f 6 13 14
f 6 14 7
f 7 14 13
f 7 13 15
f 7 15 8
f 9 16 17
f 9 17 18
f 9 18 19
f 9 19 20
f 9 20 21
f 9 21 10
f 13 22 15
f 15 22 23
f 15 23 24
f 15 24 28
f 15 28 29
f 15 29 25
f 16 25 17
f 17 25 26
f 17 26 27
f 17 27 18
f 18 27 19
f 22 28 24
f 22 24 23
f 25 29 30
f 25 30 26
f 26 30 27
f 27 30 29

