# https://github.com/mikedh/trimesh
v -4.52509883 -22.69104189 21.47757193
v -4.52509883 -22.69104189 24.51822290
v -4.52509883 -22.49908792 21.45013142
v -4.32054516 -22.69104189 21.42546587
v -0.51894998 -22.69104189 24.51822290
v -4.52509883 9.26027199 24.51822290
v -4.52509883 7.49646743 21.45013142
v -3.26306568 -22.69104189 21.38415087
v -0.40241645 -22.69104189 22.50026909
v 1.08896443 -21.13729922 24.51822290
v -4.52447894 10.22728681 24.51822290
v -4.52509883 10.22366434 24.50989910
v -4.52509883 7.50733263 21.45167332
v -3.24446994 14.30902895 21.74858521
v -3.10500163 14.30902895 21.69586262
v -2.51427607 14.30902895 21.47356389
v -1.51444346 14.30902895 21.45074795
v -2.25269561 -22.69104189 21.37212637
v -2.51427607 -22.69104189 21.37490171
v -0.68383243 -22.69104189 21.66441368
v 0.99226660 -21.00329443 22.92020138
v 1.13545387 -20.57230323 22.55237553
v 1.28669932 -20.51797653 24.51822290
v -4.52509883 10.15122972 23.50015069
v -3.32877074 14.30902895 24.51822290
v -3.46699945 14.30902895 22.50026909
v -4.52509883 8.49969956 21.59689198
v -3.42608864 14.30902895 22.35690041
v -4.52509883 9.14437511 21.87191331
v -0.65159969 14.30902895 21.72576965
v 0.48522167 10.49892035 21.55588544
v -0.51461094 10.49892035 21.47294698
v -0.51461094 4.49763625 21.45013142
v -1.51444346 -22.69104189 21.36873486
v -1.29625308 -22.69104189 21.43903190
v 1.10694009 -20.28980375 21.85433886
v 1.29165806 -20.49986713 24.51822290
v 1.34992501 -19.49663500 22.50026909
v -4.52509883 10.05706322 22.92760056
v -0.19724308 14.30902895 24.51822290
v -4.52509883 9.64418143 22.42750590
v -0.25303029 14.30902895 22.42997205
v 1.10260124 11.31019851 21.87006333
v 1.16024831 10.49892035 21.80839928
v 0.48522167 4.49763625 21.50593744
v 0.48522167 -19.49663500 21.50593744
v 1.16768623 -19.49663500 21.78126722
v 1.39641444 -19.51836538 24.51822290
v 1.80738106 -6.12865709 24.51822290
v 1.80738106 -3.38335005 22.63531324
v 1.09454306 12.14320705 24.51822290
v 0.98172849 11.99471385 23.05308709
v 1.16458716 11.48042210 22.50026909
v 1.34248671 10.49892035 22.50026909
v 1.80738106 0.49919429 22.34179285
v 1.20177863 0.49919429 21.78126722
v 1.16892601 4.49763625 21.78126722
v 1.80738106 4.79100017 24.51822290
v 1.29971661 11.49853001 24.51822290
v 1.40013340 10.49892035 24.51822290
v 1.80738106 4.49763625 23.50570063
v 1.80738106 3.49802585 23.19368118
v 1.80738106 1.41188202 22.59461515
v 1.80738106 4.79100017 24.51236525
f 1 2 6
f 1 6 12
f 1 12 24
f 1 24 39
f 1 39 41
f 1 41 29
f 1 29 27
f 1 27 13
f 1 13 7
f 1 7 3
f 1 3 4
f 1 4 8
f 1 8 19
f 1 19 18
f 1 18 34
f 1 34 35
f 1 35 20
f 1 20 9
f 1 9 5
f 1 5 2
f 2 5 10
f 2 10 23
f 2 23 37
f 2 37 48
f 2 48 49
f 2 49 58
f 2 58 60
f 2 60 59
f 2 59 51
f 2 51 40
f 2 40 25
f 2 25 11
f 2 11 6
f 3 7 4
f 4 7 8
f 5 9 10
f 6 11 12
f 7 13 14
f 7 14 15
f 7 15 16
f 7 16 17
f 7 17 18
f 7 18 19
f 7 19 8
f 9 20 21
f 9 21 10
f 10 21 22
f 10 22 23
f 11 24 12
f 11 25 26
f 11 26 24
f 13 27 14
f 14 28 26
f 14 26 25
f 14 25 40
f 14 40 42
f 14 42 30
f 14 30 17
f 14 17 16
f 14 16 15
f 14 27 29
f 14 29 28
f 17 30 31
f 17 31 32
f 17 32 33
f 17 33 34
f 17 34 18
f 20 35 36
f 20 36 21
f 21 36 22
f 22 37 23
f 22 36 38
f 22 38 37
f 24 26 39
f 26 28 29
f 26 29 41
f 26 41 39
f 30 42 43
f 30 43 31
f 31 43 44
f 31 44 45
f 31 45 32
f 32 45 33
f 33 45 34
f 34 46 35
f 34 45 46
f 35 46 36
f 36 46 47
f 36 47 38
f 37 38 48
f 38 49 48
f 38 47 50
f 38 50 49
f 40 51 42
f 42 51 52
f 42 52 53
f 42 53 43
f 43 53 54
f 43 54 44
f 44 54 55
f 44 55 56
f 44 56 57
f 44 57 45
f 45 57 56
f 45 56 46
f 46 56 47
f 47 56 55
f 47 55 50
f 49 50 55
f 49 55 63
f 49 63 62
f 49 62 61
f 49 61 64
f 49 64 58
f 51 59 53
f 51 53 52
f 53 59 54
f 54 59 60
f 54 60 61
f 54 61 62
f 54 62 63
f 54 63 55
f 58 64 60
f 60 64 61

