# https://github.com/mikedh/trimesh
v 1.83884266 22.50793482 18.09457780
v 11.49173528 22.50793482 18.09457780
v 1.83884266 23.64078781 21.41247801
v 1.83884266 40.39370352 18.09457780
v 12.48492849 22.52544370 18.09457780
v 10.48487174 23.91218145 21.11572406
v 1.83884266 24.36742281 21.93897680
v 1.83884266 40.39370352 21.98952084
v 13.47356789 40.39370352 18.09457780
v 13.04530958 22.66551774 18.09457780
v 11.97921982 24.00498150 20.98094031
v 11.31291372 23.94194655 21.07705029
v 10.48487174 24.50049330 21.35312699
v 1.83884266 24.50049330 21.95620777
v 10.48487174 40.39370352 21.47450900
v 1.83884266 26.33197006 22.00636886
v 13.47470634 29.50115522 18.09457780
v 13.47356789 40.39370352 18.50046070
v 13.41889548 24.50049330 18.09457780
v 13.38130875 24.50049330 18.50046070
v 13.15351298 24.44096310 19.52091113
v 13.06353222 24.73336888 20.11709938
v 12.81295702 24.06626408 19.86820875
v 12.10336897 24.67208631 21.07858176
v 11.58171455 24.40419296 21.18847645
v 11.48490160 25.50027580 21.35542438
v 10.48487174 25.50027580 21.47450900
v 1.83884266 25.33218755 22.00483702
v 11.48490160 38.49919479 21.35925361
v 11.37897510 40.39370352 21.37112389
v 1.83884266 25.50027580 22.00598590
v 13.47356789 25.50027580 18.50046070
v 13.47356789 25.50027580 18.09457780
v 13.46103898 40.39370352 18.60690911
v 13.34714035 25.50027580 19.50061685
v 13.10339734 25.50027580 20.17568410
v 12.66261011 25.50027580 20.67576236
v 12.16259667 25.50027580 21.11840441
v 11.48490160 30.50093773 21.35733918
v 12.16373512 26.50181069 21.11878737
v 12.16829041 32.49875036 21.12070180
v 12.17056880 35.49984727 21.12146772
v 12.17170874 37.49941228 21.12185068
v 11.48490160 35.49984727 21.35887065
v 11.48490160 37.49941228 21.35925361
v 12.17284719 39.49897729 21.12185068
v 11.48490160 40.39370352 21.35887065
v 13.34941725 31.49896785 19.50061685
v 13.34827880 27.50159021 19.50061685
v 13.35055719 35.49984727 19.50061685
v 13.34941725 40.39370352 19.50061685
v 13.35055719 37.49941228 19.50061685
v 12.66374856 26.50181069 20.67614532
v 13.10567573 33.49853286 20.18104479
v 12.67172218 37.49941228 20.68303786
v 12.67058373 35.49984727 20.68227194
v 12.66830534 32.49875036 20.68035714
v 12.67286212 39.49897729 20.68342045
v 12.67286212 40.39370352 20.68342045
v 12.17284719 40.39370352 21.12146772
v 13.10567573 39.49897729 20.18334256
v 13.10567573 37.49941228 20.18295960
v 13.10567573 35.49984727 20.18219367
v 13.10567573 40.39370352 20.18334256
f 1 2 3
f 1 3 7
f 1 7 14
f 1 14 28
f 1 28 31
f 1 31 16
f 1 16 8
f 1 8 4
f 1 4 9
f 1 9 17
f 1 17 33
f 1 33 19
f 1 19 10
f 1 10 5
f 1 5 2
f 2 5 3
f 3 5 6
f 3 6 7
f 4 8 15
f 4 15 30
f 4 30 47
f 4 47 60
f 4 60 59
f 4 59 64
f 4 64 51
f 4 51 34
f 4 34 18
f 4 18 9
f 5 10 11
f 5 11 12
f 5 12 6
f 6 12 7
f 7 12 13
f 7 13 14
f 8 16 15
f 9 18 17
f 10 19 20
f 10 20 21
f 10 21 22
f 10 22 23
f 10 23 11
f 11 23 22
f 11 22 24
f 11 24 25
f 11 25 12
f 12 25 13
f 13 26 27
f 13 27 14
f 13 25 26
f 14 27 28
f 15 29 30
f 15 16 27
f 15 27 45
f 15 45 29
f 16 31 27
f 17 32 33
f 17 18 32
f 18 34 32
f 19 33 32
f 19 32 20
f 20 32 35
f 20 35 21
f 21 35 22
f 22 35 36
f 22 36 37
f 22 37 24
f 24 37 38
f 24 38 26
f 24 26 25
f 26 39 27
f 26 38 40
f 26 40 41
f 26 41 42
f 26 42 43
f 26 43 39
f 27 31 28
f 27 39 44
f 27 44 45
f 29 45 46
f 29 46 47
f 29 47 30
f 32 48 49
f 32 49 35
f 32 34 50
f 32 50 48
f 34 51 52
f 34 52 50
f 35 49 36
f 36 53 37
f 36 49 54
f 36 54 55
f 36 55 56
f 36 56 57
f 36 57 53
f 37 53 40
f 37 40 38
f 39 43 44
f 40 53 57
f 40 57 56
f 40 56 41
f 41 56 42
f 42 56 55
f 42 55 58
f 42 58 43
f 43 58 46
f 43 46 44
f 44 46 45
f 46 58 59
f 46 59 60
f 46 60 47
f 48 50 54
f 48 54 49
f 50 52 64
f 50 64 61
f 50 61 62
f 50 62 63
f 50 63 54
f 51 64 52
f 54 63 58
f 54 58 55
f 58 63 62
f 58 62 61
f 58 61 64
f 58 64 59

