# https://github.com/mikedh/trimesh
v 1.71341425 -4.38175866 40.58154346
v 6.34981468 -3.62109682 40.58154346
v 1.71341425 -3.75066032 40.98060740
v 1.71341425 4.15770912 40.58154346
v 6.48519187 -3.59351251 40.58154346
v 6.48519187 -3.49989289 40.62449610
v 6.55123015 -0.58095971 41.26615566
v 1.71341425 -0.49987827 41.70083191
v 1.71341425 3.42463234 41.40980598
v 6.41310146 3.50237029 40.58154346
v 6.59470508 -3.49989289 40.58154346
v 7.18464191 -0.30260784 41.18266139
v 7.18464191 0.27833676 41.18266139
v 6.48519187 0.32932614 41.24796728
v 6.22434305 3.03510684 41.01797359
v 6.43511348 3.49902646 40.58154346
v 7.33542840 -0.57928794 40.58154346
v 7.32607270 0.55501684 40.58154346
v 6.81868317 2.94315894 40.58154346
f 1 2 3
f 1 3 8
f 1 8 9
f 1 9 4
f 1 4 10
f 1 10 16
f 1 16 19
f 1 19 18
f 1 18 17
f 1 17 11
f 1 11 5
f 1 5 2
f 2 5 3
f 3 5 6
f 3 6 7
f 3 7 8
f 4 9 10
f 5 11 6
f 6 11 12
f 6 12 7
f 7 12 13
f 7 13 14
f 7 14 8
f 8 14 9
f 9 15 16
f 9 16 10
f 9 14 15
f 11 17 12
f 12 17 13
f 13 17 18
f 13 18 19
f 13 19 15
f 13 15 14
f 15 19 16

