# https://github.com/mikedh/trimesh
v 13.49767889 -29.03187871 39.36453646
v 13.49767889 -29.03187871 36.82582861
v 13.48506207 -29.03187871 39.36279750
v 13.49344547 -33.15266669 39.36404026
v 13.49767889 -38.93631697 39.36453646
v 13.15560783 -29.03187871 37.18019462
v 13.49767889 -38.93631697 36.82582861
v 12.85705711 -29.03187871 39.12547714
v 13.48497714 -33.15266669 39.36279750
v 13.48497714 -38.93631697 39.36279750
v 12.76112492 -29.03187871 37.67993337
v 13.15560783 -33.15266669 37.18019462
v 13.15560783 -38.93631697 37.18044198
v 12.63276334 -29.03187871 38.49974608
v 12.85705711 -38.93631697 39.12547714
v 12.76112492 -38.93631697 37.67993337
v 12.73267562 -37.27733493 37.86158895
v 12.63276334 -38.93631697 38.49974608
v 12.73267562 -37.27830350 37.86158895
f 1 2 6
f 1 6 11
f 1 11 14
f 1 14 8
f 1 8 3
f 1 3 4
f 1 4 5
f 1 5 7
f 1 7 2
f 2 7 12
f 2 12 6
f 3 8 9
f 3 9 4
f 4 9 10
f 4 10 5
f 5 10 15
f 5 15 18
f 5 18 16
f 5 16 13
f 5 13 7
f 6 12 16
f 6 16 11
f 7 13 12
f 8 14 18
f 8 18 15
f 8 15 10
f 8 10 9
f 11 16 19
f 11 19 17
f 11 17 14
f 12 13 16
f 14 17 19
f 14 19 18
f 16 18 19

