# https://github.com/mikedh/trimesh
v 10.43044370 -37.48422195 35.47398348
v 10.43044370 -38.50108418 35.47493269
v 10.43044370 -37.48422195 28.52570652
v 8.12691258 -37.48422195 35.64380027
v 10.43044370 -48.49959469 35.47493269
v 10.43044370 -48.49959469 28.52570652
v 2.35143121 -46.49912368 25.95188445
v 2.35015008 -41.50050918 25.95188445
v 2.34886895 -37.48422195 25.95188445
v 8.12691258 -47.49935918 35.64380027
v -2.65791512 -37.48422195 35.64380027
v 10.43044370 -48.55459493 35.46449590
v 8.10513302 -48.49959469 35.64380027
v 7.64263329 -49.20308518 35.64380027
v 7.49273788 -49.41924760 35.64380027
v 10.43044370 -49.44482994 28.70026784
v 2.09135502 -49.50750429 25.95188445
v 2.33733842 -48.49959469 25.95188445
v 2.34886895 -47.81400944 25.95188445
v 2.35143121 -47.49935918 25.95188445
v -2.65791512 -37.48422195 25.95188445
v -2.65791512 -50.54866736 35.64380027
v 10.43044370 -49.49982721 35.27570545
v 6.29869396 -50.14575744 35.64380027
v 10.43044370 -49.49982721 28.71070313
v 1.33418825 -50.18541245 25.95188445
v -2.65791512 -50.54866736 25.95188445
v -1.51383670 -50.54994886 35.64380027
v 10.43044370 -50.03959550 35.03853088
v 5.48515530 -50.29796997 35.64380027
v 10.43044370 -50.02297174 28.93554549
v 0.97418142 -50.33122344 25.95188445
v 10.43044370 -50.05366817 28.94882691
v -0.51324842 -50.54866736 25.95188445
v -1.51383670 -50.54994886 35.49959860
v -0.51324842 -50.54994886 35.64380027
v 10.43044370 -50.31459969 34.49966858
v 4.48456738 -50.43355280 35.64380027
v 0.48605837 -50.43610984 25.95188445
v 10.43044370 -50.31331818 29.47061097
v -0.51324842 -50.54994886 35.49959860
v -0.06227922 -50.52820507 25.95188445
v 10.43044370 -50.54866736 30.50089917
v 10.43044370 -50.54866736 33.49973855
v 2.48595344 -50.54866736 35.49959860
v 0.48605837 -50.54866736 35.64380027
v 4.48456738 -50.48215447 35.49959860
v 3.49038474 -50.49622714 35.64380027
v 10.43044370 -50.32739086 29.50097063
v 3.48654173 -50.53460065 35.49959860
v 2.48595344 -50.53331915 35.64380027
v 1.48664665 -50.54482882 35.64380027
f 1 2 5
f 1 5 12
f 1 12 23
f 1 23 29
f 1 29 37
f 1 37 44
f 1 44 43
f 1 43 49
f 1 49 40
f 1 40 33
f 1 33 31
f 1 31 25
f 1 25 16
f 1 16 6
f 1 6 3
f 1 3 9
f 1 9 21
f 1 21 11
f 1 11 4
f 1 4 2
f 2 4 10
f 2 10 5
f 3 6 20
f 3 20 7
f 3 7 8
f 3 8 9
f 4 11 22
f 4 22 28
f 4 28 36
f 4 36 46
f 4 46 52
f 4 52 51
f 4 51 48
f 4 48 38
f 4 38 30
f 4 30 24
f 4 24 15
f 4 15 14
f 4 14 13
f 4 13 10
f 5 10 13
f 5 13 14
f 5 14 15
f 5 15 12
f 6 16 17
f 6 17 18
f 6 18 19
f 6 19 20
f 7 20 19
f 7 19 18
f 7 18 17
f 7 17 26
f 7 26 32
f 7 32 39
f 7 39 42
f 7 42 34
f 7 34 27
f 7 27 21
f 7 21 9
f 7 9 8
f 11 21 27
f 11 27 22
f 12 15 24
f 12 24 23
f 16 25 17
f 17 25 26
f 22 27 35
f 22 35 28
f 23 24 29
f 24 30 29
f 25 31 26
f 26 31 33
f 26 33 32
f 27 34 41
f 27 41 35
f 28 35 41
f 28 41 36
f 29 30 38
f 29 38 37
f 32 33 39
f 33 40 39
f 34 42 43
f 34 43 41
f 36 44 45
f 36 45 46
f 36 41 43
f 36 43 44
f 37 38 47
f 37 47 44
f 38 48 47
f 39 40 49
f 39 49 42
f 42 49 43
f 44 47 50
f 44 50 45
f 45 50 51
f 45 51 52
f 45 52 46
f 47 48 50
f 48 51 50

