# https://github.com/mikedh/trimesh
v -5.52810286 -5.39892651 36.35491467
v 7.53744985 -5.39892651 36.35491467
v -5.52810286 -5.39892651 39.47860187
v -5.52810286 10.34706682 36.35491467
v 7.60182510 -4.49901558 36.35491467
v 7.58508737 -5.39892651 37.40073031
v 1.59821133 -5.39892651 39.47860187
v -5.52810286 10.04981846 39.47860187
v -3.55307725 11.28290892 39.47860187
v -3.95220225 11.28290892 36.35491467
v 7.61212478 -3.49947773 36.35491467
v 7.61212478 -3.49947773 36.50016671
v 7.61856208 -2.49993913 37.50011361
v 7.57993753 -5.39892651 37.50011361
v 7.61727462 -0.49922951 38.49975502
v 7.59152467 -2.49993913 38.49975502
v 6.54092426 -5.39892651 38.81839252
v 4.54401220 -5.17844073 39.47860187
v 1.39607373 11.28290892 39.47860187
v 6.17785002 11.28290892 36.35491467
v 7.61212478 3.49892341 36.35491467
v 7.62500013 -0.49922951 37.50011361
v 7.24904979 -5.39892651 38.52360731
v 7.57993753 -0.49922951 39.47860187
v 7.49624963 -3.47824581 39.47860187
v 7.49496217 -3.49947773 39.47860187
v 7.57993753 -0.47799759 39.47860187
v 7.62500013 0.50030854 37.50011361
v 7.61856208 2.50101835 37.50011361
v 7.59796272 2.50101835 38.49975502
v 6.67482461 -5.39892651 38.76549041
v 7.20269973 -4.21320014 39.47860187
v 7.17823724 -4.22463305 39.47860187
v 6.48427452 -4.53984626 39.47860187
v 7.04691256 6.07779734 39.03948104
v 7.26578752 3.79617140 39.47860187
v 7.55418758 5.49963266 37.50011361
v 7.28510017 6.61676377 36.35491467
v 7.15377475 6.44690767 38.42422402
v 7.61083732 3.64428088 36.35491467
v 7.61212478 3.49892341 36.50016671
v 7.55290012 0.50030854 39.47860187
v 7.60053764 4.49846163 36.50016671
v 7.49496217 2.50101835 39.47860187
v 7.32243727 3.67041267 39.47860187
v 7.34432484 3.57568525 39.47860187
v 7.49367471 2.52225026 39.47860187
v 7.60053764 4.49846163 36.35491467
v 7.59152467 4.64381911 36.35491467
v 7.51298736 5.64499050 36.35491467
f 1 2 6
f 1 6 14
f 1 14 23
f 1 23 31
f 1 31 17
f 1 17 7
f 1 7 3
f 1 3 8
f 1 8 4
f 1 4 10
f 1 10 20
f 1 20 38
f 1 38 50
f 1 50 49
f 1 49 48
f 1 48 40
f 1 40 21
f 1 21 11
f 1 11 5
f 1 5 2
f 2 5 6
f 3 7 18
f 3 18 34
f 3 34 33
f 3 33 32
f 3 32 26
f 3 26 25
f 3 25 24
f 3 24 27
f 3 27 42
f 3 42 44
f 3 44 47
f 3 47 46
f 3 46 45
f 3 45 36
f 3 36 19
f 3 19 9
f 3 9 8
f 4 8 9
f 4 9 10
f 5 11 12
f 5 12 13
f 5 13 6
f 6 13 15
f 6 15 16
f 6 16 14
f 7 17 18
f 9 19 20
f 9 20 10
f 11 21 28
f 11 28 22
f 11 22 13
f 11 13 12
f 13 22 15
f 14 16 24
f 14 24 25
f 14 25 26
f 14 26 23
f 15 27 24
f 15 24 16
f 15 22 28
f 15 28 29
f 15 29 30
f 15 30 27
f 17 31 32
f 17 32 33
f 17 33 34
f 17 34 18
f 19 35 20
f 19 36 35
f 20 37 38
f 20 35 39
f 20 39 37
f 21 40 41
f 21 41 29
f 21 29 28
f 23 32 31
f 23 26 32
f 27 30 42
f 29 41 43
f 29 43 30
f 30 43 37
f 30 37 44
f 30 44 42
f 35 36 45
f 35 45 46
f 35 46 39
f 37 46 47
f 37 47 44
f 37 43 48
f 37 48 49
f 37 49 50
f 37 50 38
f 37 39 46
f 40 48 43
f 40 43 41

