# https://github.com/mikedh/trimesh
v 11.01903911 -5.40055931 28.52543181
v 14.10237844 -5.39613068 28.12542057
v 14.10775925 -5.40055931 28.12542057
v 11.01903911 -5.40055931 31.99522829
v 11.01903911 7.96629265 28.52505332
v 14.10237844 39.84654546 28.12542057
v 24.76088698 -5.40055931 28.12542057
v 24.47434659 -5.40055931 31.99522829
v 11.01903911 39.84654546 31.99522829
v 11.01903911 39.84654546 28.52505332
v 24.76088698 39.84654546 28.12542057
v 24.76088698 -5.40055931 29.75804245
v 24.47434659 39.84654546 31.99522829
v 24.76088698 39.84654546 29.75804245
f 1 2 3
f 1 3 7
f 1 7 12
f 1 12 8
f 1 8 4
f 1 4 9
f 1 9 10
f 1 10 5
f 1 5 2
f 2 5 10
f 2 10 6
f 2 6 11
f 2 11 7
f 2 7 3
f 4 8 13
f 4 13 9
f 6 10 9
f 6 9 13
f 6 13 14
f 6 14 11
f 7 11 14
f 7 14 12
f 8 12 14
f 8 14 13

