# https://github.com/mikedh/trimesh
v -35.51460807 41.52500033 -14.49809933
v -36.51424353 41.52588248 -14.49809933
v -35.51460807 41.71405137 -15.49855733
v -31.51528840 41.52500033 -14.49809933
v -35.51460807 41.52500033 46.49809933
v -37.26573591 41.76352322 -14.49809933
v -37.17150395 41.85805023 -15.49855733
v -36.51424353 41.71493649 -15.49855733
v -36.51424353 41.52588248 46.49809933
v -31.51528840 41.71405137 -15.49855733
v -35.51460807 41.95169210 -16.04658031
v -30.51486914 41.62747562 -14.49809933
v -31.51528840 41.52500033 46.49809933
v -35.51460807 41.71405137 47.49855733
v -37.53350680 42.50029325 -14.49809933
v -37.43849103 42.50029325 -15.49855733
v -37.26573591 41.76352322 46.49809933
v -37.05607061 41.96847677 -16.02746212
v -36.51424353 41.95257425 -16.04658031
v -36.51424353 41.71493649 47.49855733
v -37.17150395 41.85805023 47.49855733
v -31.51528840 41.95169210 -16.04658031
v -30.90043073 41.96759462 -16.02746212
v -30.54628079 41.83154702 -15.51767552
v -36.51424353 42.50029325 -16.32059181
v -29.92121284 41.91017151 -15.19905591
v -29.87409835 41.86511636 -14.49809933
v -30.51486914 41.62747562 46.49809933
v -31.51528840 41.71405137 47.49855733
v -35.51460807 41.95169210 48.04658031
v -37.54999940 43.50032508 -14.49809933
v -37.54921262 43.50032508 -15.49855733
v -37.53350680 42.50029325 46.49809933
v -37.28222554 43.50032508 -16.26961195
v -37.17935686 42.50029325 -16.15491176
v -37.43849103 42.50029325 47.49855733
v -36.51424353 41.95257425 48.04658031
v -37.05607061 41.96847677 48.02746212
v -32.51492088 42.50029325 -16.32059181
v -31.51528840 42.50029325 -16.30784833
v -30.23374681 42.29622483 -15.86178207
v -30.54628079 42.57803559 -16.12305009
v -36.51424353 43.50032508 -16.54362345
v -29.63537877 42.50029325 -14.49809933
v -30.00680809 42.96320677 -16.00197518
v -29.85839252 42.57803559 -15.51767552
v -29.87409835 41.86511636 46.49809933
v -29.92121284 41.91017151 47.19905591
v -30.54706459 41.83154702 47.51767552
v -30.90121751 41.96759462 48.02746212
v -31.51528840 41.95169210 48.04658031
v -36.51424353 42.50029325 48.32059181
v -37.54999940 44.50035393 -15.49855733
v -37.54999940 43.50032508 46.49809933
v -37.54921262 43.50032508 47.49855733
v -37.28222554 47.49955833 -16.26961195
v -37.17935686 42.50029325 48.15491176
v -37.28222554 43.50032508 48.26961195
v -33.51534014 43.50032508 -16.54362345
v -32.51492088 43.50032508 -16.53087997
v -31.51528840 43.50032508 -16.40980506
v -29.52858512 47.49955833 -16.54362345
v -36.51424353 47.49955833 -16.54362345
v -35.51460807 44.50035393 -16.54999816
v -29.52858512 45.95887661 -16.05295205
v -29.52858512 45.95181048 -16.04658031
v -29.52858512 45.71240246 -15.49855733
v -29.52858512 45.52070200 -14.49809933
v -29.63537877 42.50029325 46.49809933
v -29.52858512 46.49952948 -16.32059181
v -29.85603814 42.57185161 47.51767552
v -30.00366693 42.95260310 48.00834692
v -30.23453062 42.28562415 47.86178207
v -30.54706459 42.57185161 48.12305009
v -31.51528840 42.50029325 48.30784833
v -32.51492088 42.50029325 48.32059181
v -36.51424353 43.50032508 48.54362345
v -37.54999940 47.49955833 -15.49855733
v -37.54999940 44.50035393 47.49855733
v -37.22882872 48.49958718 -16.23137856
v -36.51424353 48.49958718 -16.50539005
v -37.28222554 47.49955833 48.26961195
v -34.51418881 44.50035393 -16.54999816
v -29.52858512 48.49958718 -16.54999816
v -35.51460807 48.49958718 -16.54999816
v -29.52858512 45.52070200 46.49809933
v -29.52858512 45.70887089 47.48581386
v -29.52858512 45.71240246 47.49855733
v -29.52858512 45.94827592 48.04020858
v -29.52858512 45.95181048 48.04658031
v -29.52858512 46.49952948 48.32059181
v -29.52858512 47.48630822 48.54362345
v -31.51528840 43.50032508 48.40980506
v -32.51492088 43.50032508 48.53087997
v -33.51534014 43.50032508 48.54362345
v -35.51460807 44.50035393 48.54999816
v -36.51424353 47.49955833 48.54362345
v -37.44320278 48.49958718 -15.49855733
v -37.54999940 47.49955833 47.49855733
v -37.12203209 49.16921854 -16.12305009
v -36.51738470 49.50138330 -16.26324022
v -35.51460807 49.49961901 -16.50539005
v -36.51424353 48.49958718 48.50539005
v -37.22882872 48.49958718 48.23137856
v -29.52858512 49.49961901 -16.54999816
v -34.51418881 49.49961901 -16.54362345
v -33.51534014 49.49961901 -16.54999816
v -29.52858512 48.49958718 48.54999816
v -34.51418881 44.50035393 48.54999816
v -35.51460807 48.49958718 48.54999816
v -37.17542891 49.25402701 -15.49855733
v -37.44320278 48.49958718 47.49855733
v -36.77180712 49.75404143 -15.49855733
v -36.18600373 50.11005998 -16.12942183
v -35.51460807 50.21960139 -16.23137856
v -34.51418881 50.27437806 -16.26961195
v -35.51460807 49.49961901 48.50539005
v -36.51738470 49.50138330 48.26324022
v -37.12203209 49.16921854 48.12305009
v -29.52858512 50.27437806 -16.26961195
v -29.52858512 49.49961901 48.54999816
v -33.51534014 49.49961901 48.54999816
v -34.51418881 49.49961901 48.54362345
v -37.17542891 49.25402701 47.49855733
v -36.27159898 50.16483068 -15.49855733
v -36.77180712 49.75404143 47.49855733
v -35.51460807 50.43957233 -15.49855733
v -34.51418881 50.54911971 -15.49855733
v -29.52858512 50.27790666 -16.26324022
v -33.51534014 50.55000186 -15.49855733
v -34.51418881 50.27437806 48.26961195
v -35.51460807 50.21960139 48.23137856
v -36.18600373 50.11005998 48.12942183
v -29.52858512 50.26465654 48.27598667
v -36.27159898 50.16483068 47.49855733
v -35.51460807 50.43957233 47.49855733
v -34.51418881 50.54911971 47.49855733
v -29.52858512 50.55000186 -15.49855733
v -33.51534014 50.55000186 47.49855733
v -29.52858512 50.27437806 48.26961195
v -29.52858512 50.55000186 47.49855733
f 1 2 8
f 1 8 3
f 1 3 10
f 1 10 4
f 1 4 13
f 1 13 5
f 1 5 9
f 1 9 2
f 2 6 7
f 2 7 8
f 2 9 17
f 2 17 6
f 3 8 19
f 3 19 11
f 3 11 22
f 3 22 10
f 4 10 12
f 4 12 28
f 4 28 13
f 5 13 29
f 5 29 14
f 5 14 20
f 5 20 9
f 6 15 16
f 6 16 7
f 6 17 33
f 6 33 15
f 7 16 18
f 7 18 8
f 8 18 19
f 9 20 21
f 9 21 17
f 10 22 23
f 10 23 24
f 10 24 12
f 11 19 25
f 11 25 39
f 11 39 22
f 12 24 26
f 12 26 27
f 12 27 47
f 12 47 28
f 13 28 29
f 14 29 51
f 14 51 30
f 14 30 37
f 14 37 20
f 15 31 32
f 15 32 16
f 15 33 54
f 15 54 31
f 16 32 34
f 16 34 35
f 16 35 18
f 17 21 36
f 17 36 33
f 18 35 25
f 18 25 19
f 20 37 38
f 20 38 21
f 21 38 36
f 22 39 40
f 22 40 23
f 23 41 26
f 23 26 24
f 23 40 42
f 23 42 41
f 25 35 43
f 25 43 59
f 25 59 39
f 26 44 27
f 26 41 45
f 26 45 46
f 26 46 44
f 27 44 69
f 27 69 47
f 28 47 48
f 28 48 49
f 28 49 29
f 29 49 50
f 29 50 51
f 30 51 76
f 30 76 52
f 30 52 37
f 31 53 32
f 31 54 79
f 31 79 99
f 31 99 78
f 31 78 53
f 32 53 34
f 33 36 55
f 33 55 54
f 34 53 78
f 34 78 56
f 34 56 63
f 34 63 43
f 34 43 35
f 36 38 57
f 36 57 58
f 36 58 55
f 37 52 38
f 38 52 57
f 39 59 60
f 39 60 40
f 40 60 61
f 40 61 62
f 40 62 42
f 41 42 45
f 42 62 45
f 43 63 85
f 43 85 64
f 43 64 83
f 43 83 59
f 44 46 65
f 44 65 66
f 44 66 67
f 44 67 68
f 44 68 86
f 44 86 69
f 45 62 70
f 45 70 46
f 46 70 65
f 47 69 48
f 48 69 71
f 48 71 72
f 48 72 73
f 48 73 50
f 48 50 49
f 50 73 74
f 50 74 75
f 50 75 51
f 51 75 76
f 52 76 95
f 52 95 77
f 52 77 57
f 54 55 79
f 55 58 79
f 56 80 81
f 56 81 63
f 56 78 80
f 57 77 58
f 58 82 99
f 58 99 79
f 58 77 97
f 58 97 82
f 59 62 60
f 59 83 84
f 59 84 62
f 60 62 61
f 62 84 105
f 62 105 120
f 62 120 129
f 62 129 138
f 62 138 141
f 62 141 140
f 62 140 134
f 62 134 121
f 62 121 108
f 62 108 92
f 62 92 91
f 62 91 90
f 62 90 89
f 62 89 88
f 62 88 87
f 62 87 86
f 62 86 68
f 62 68 67
f 62 67 66
f 62 66 65
f 62 65 70
f 63 81 85
f 64 85 107
f 64 107 105
f 64 105 84
f 64 84 83
f 69 86 87
f 69 87 88
f 69 88 89
f 69 89 90
f 69 90 71
f 71 90 91
f 71 91 72
f 72 91 92
f 72 92 74
f 72 74 73
f 74 92 75
f 75 92 93
f 75 93 94
f 75 94 76
f 76 94 95
f 77 95 109
f 77 109 96
f 77 96 110
f 77 110 97
f 78 98 80
f 78 99 112
f 78 112 98
f 80 98 100
f 80 100 81
f 81 100 101
f 81 101 102
f 81 102 85
f 82 97 103
f 82 103 104
f 82 104 99
f 85 102 106
f 85 106 107
f 92 108 95
f 92 95 94
f 92 94 93
f 95 108 109
f 96 109 108
f 96 108 121
f 96 121 122
f 96 122 110
f 97 110 103
f 98 111 100
f 98 112 124
f 98 124 111
f 99 104 112
f 100 111 113
f 100 113 114
f 100 114 101
f 101 114 102
f 102 114 115
f 102 115 116
f 102 116 106
f 103 117 118
f 103 118 119
f 103 119 104
f 103 110 117
f 104 119 112
f 105 107 116
f 105 116 120
f 106 116 107
f 110 122 123
f 110 123 117
f 111 124 126
f 111 126 113
f 112 119 124
f 113 125 114
f 113 126 135
f 113 135 125
f 114 125 127
f 114 127 115
f 115 127 128
f 115 128 116
f 116 129 120
f 116 128 130
f 116 130 129
f 117 131 132
f 117 132 133
f 117 133 118
f 117 123 131
f 118 133 119
f 119 133 126
f 119 126 124
f 121 134 122
f 122 134 131
f 122 131 123
f 125 135 136
f 125 136 127
f 126 133 135
f 127 136 137
f 127 137 128
f 128 137 139
f 128 139 130
f 129 130 138
f 130 139 141
f 130 141 138
f 131 139 137
f 131 137 132
f 131 134 140
f 131 140 141
f 131 141 139
f 132 137 136
f 132 136 133
f 133 136 135

