# https://github.com/mikedh/trimesh
v 7.52810682 -29.03187871 35.80399489
v 1.78256514 -29.03187871 38.56229073
v 7.60513390 -33.15266669 35.78350133
v -3.47477947 -29.03187871 35.80399489
v 1.77388596 -33.15266669 38.57103473
v -3.47477947 -29.03187871 38.56229073
v 1.76954637 -37.27830350 38.57485986
v 7.60621871 -37.27733493 35.78350133
v -3.47477947 -33.15266669 35.78350133
v -3.47694908 -38.93631697 35.80426908
v -3.47477947 -33.15266669 38.57103473
v -3.47694908 -38.93631697 38.57485986
v -3.47477947 -37.27830350 38.57485986
v 1.76954637 -38.93631697 38.57485986
v 7.52810682 -38.93631697 35.80426908
v -3.47477947 -37.27733493 35.78350133
f 1 2 3
f 1 3 9
f 1 9 4
f 1 4 6
f 1 6 2
f 2 5 3
f 2 6 11
f 2 11 5
f 3 5 7
f 3 7 8
f 3 8 16
f 3 16 9
f 4 9 10
f 4 10 12
f 4 12 6
f 5 11 13
f 5 13 7
f 6 12 11
f 7 13 12
f 7 12 14
f 7 14 8
f 8 14 15
f 8 15 10
f 8 10 16
f 9 16 10
f 10 15 14
f 10 14 12
f 11 12 13

