# https://github.com/mikedh/trimesh
v -10.53751414 -48.49986136 48.54999816
v -10.53751414 -49.49955642 48.54999816
v -10.53751414 -47.50016332 48.54362345
v -34.51453154 -45.51653862 48.54999816
v -33.51240461 -49.49955642 48.54999816
v -10.53751414 -49.51729476 48.54362345
v -10.53751414 -46.52313292 48.32696354
v -33.51240461 -45.51653862 48.54362345
v -35.51401501 -45.51653862 48.54999816
v -35.51401501 -48.49986136 48.54999816
v -34.51453154 -49.49955642 48.54362345
v -34.51453154 -50.27458072 48.26961195
v -10.53751414 -50.27458072 48.26961195
v -10.53751414 -46.50046825 48.32059181
v -10.53751414 -45.96440792 48.05295205
v -10.53751414 -45.95208764 48.04658031
v -10.53751414 -45.71854770 47.51130378
v -10.53751414 -45.71312666 47.49855733
v -10.53751414 -45.52294314 46.49809933
v -32.52878492 -45.51653862 48.38431513
v -36.51349847 -45.51653862 48.54362345
v -36.51349847 -47.50016332 48.54362345
v -36.51349847 -48.49986136 48.50539005
v -35.51401501 -49.49955642 48.50539005
v -35.51401501 -50.21988750 48.23137856
v -34.51453154 -50.54950714 47.49855733
v -33.51240461 -50.55000186 47.49855733
v -10.53751414 -50.28098822 48.25686848
v -29.52769403 -45.51653862 46.49809933
v -30.61707621 -45.51653862 47.49855733
v -31.56367843 -45.51653862 48.11030364
v -32.25908582 -45.51653862 48.30784833
v -10.53751414 -45.52294314 -14.49809933
v -37.28029733 -45.51653862 48.26961195
v -37.28029733 -47.50016332 48.26961195
v -37.22741311 -48.49986136 48.23137856
v -37.12165062 -49.16895330 48.12305009
v -36.51614194 -49.50152934 48.26324022
v -36.18562524 -50.11001825 48.12942183
v -35.51401501 -50.43963790 47.49855733
v -34.51453154 -50.54950714 -15.49855733
v -10.53751414 -50.55000186 47.49855733
v -33.51240461 -50.55000186 -15.49855733
v -29.52769403 -45.51653862 -14.49809933
v -10.53751414 -45.71312666 -15.49855733
v -33.49654083 -45.51653862 -16.54362345
v -32.49705737 -45.51653862 -16.37794340
v -31.60333936 -45.51653862 -16.12305009
v -31.56367843 -45.51653862 -16.11030364
v -30.91586535 -45.51653862 -15.73433542
v -29.94546597 -45.51653862 -15.09072745
v -37.28558724 -45.51653862 48.25686848
v -37.54999940 -47.50016332 47.49855733
v -37.44159048 -48.49986136 47.49855733
v -37.17453186 -49.25369918 47.49855733
v -36.76998024 -49.75379109 47.49855733
v -36.27023702 -50.16520023 47.49855733
v -35.51401501 -50.43963790 -15.49855733
v -35.51401501 -50.21988750 -16.23137856
v -34.51453154 -50.27458072 -16.26961195
v -10.53751414 -50.55000186 -15.49855733
v -10.53751414 -45.95208764 -16.04658031
v -10.53751414 -46.48765922 -16.31422007
v -10.53751414 -46.50046825 -16.32059181
v -10.53751414 -47.50016332 -16.54362345
v -34.51453154 -45.51653862 -16.54999816
v -37.54999940 -45.51653862 47.49855733
v -37.54999940 -47.50016332 -15.49855733
v -37.44159048 -48.49986136 -15.49855733
v -37.17453186 -49.25369918 -15.49855733
v -36.76998024 -49.75379109 -15.49855733
v -36.27023702 -50.16520023 -15.49855733
v -36.18562524 -50.11001825 -16.12942183
v -35.51401501 -49.49955642 -16.50539005
v -34.51453154 -49.49955642 -16.54362345
v -33.51240461 -49.49955642 -16.54999816
v -10.53751414 -50.25733709 -16.27598667
v -10.53751414 -50.27458072 -16.26961195
v -10.53751414 -48.49986136 -16.54999816
v -35.51401501 -45.51653862 -16.54999816
v -37.54999940 -45.51653862 -15.49855733
v -37.28029733 -47.50016332 -16.26961195
v -37.22741311 -48.49986136 -16.23137856
v -37.12165062 -49.16895330 -16.12305009
v -36.51614194 -49.50152934 -16.26324022
v -36.51349847 -48.49986136 -16.50539005
v -35.51401501 -48.49986136 -16.54999816
v -10.53751414 -49.49955642 -16.54999816
v -36.51349847 -45.51653862 -16.54362345
v -37.28029733 -45.51653862 -16.26961195
v -37.26707702 -45.51653862 -16.27598667
v -36.51349847 -47.50016332 -16.54362345
f 1 2 6
f 1 6 13
f 1 13 28
f 1 28 42
f 1 42 61
f 1 61 78
f 1 78 77
f 1 77 88
f 1 88 79
f 1 79 65
f 1 65 64
f 1 64 63
f 1 63 62
f 1 62 45
f 1 45 33
f 1 33 19
f 1 19 18
f 1 18 17
f 1 17 16
f 1 16 15
f 1 15 14
f 1 14 7
f 1 7 3
f 1 3 4
f 1 4 9
f 1 9 10
f 1 10 5
f 1 5 2
f 2 5 6
f 3 7 8
f 3 8 4
f 4 8 20
f 4 20 32
f 4 32 31
f 4 31 30
f 4 30 29
f 4 29 44
f 4 44 51
f 4 51 50
f 4 50 49
f 4 49 48
f 4 48 47
f 4 47 46
f 4 46 66
f 4 66 80
f 4 80 89
f 4 89 91
f 4 91 90
f 4 90 81
f 4 81 67
f 4 67 52
f 4 52 34
f 4 34 21
f 4 21 9
f 5 10 11
f 5 11 12
f 5 12 6
f 6 12 13
f 7 14 8
f 8 14 15
f 8 15 16
f 8 16 17
f 8 17 18
f 8 18 19
f 8 19 20
f 9 21 22
f 9 22 10
f 10 22 23
f 10 23 24
f 10 24 11
f 11 24 12
f 12 25 26
f 12 26 27
f 12 27 28
f 12 28 13
f 12 24 25
f 19 29 30
f 19 30 31
f 19 31 32
f 19 32 20
f 19 33 44
f 19 44 29
f 21 34 35
f 21 35 22
f 22 35 23
f 23 35 36
f 23 36 37
f 23 37 38
f 23 38 24
f 24 38 39
f 24 39 25
f 25 39 40
f 25 40 26
f 26 40 58
f 26 58 41
f 26 41 43
f 26 43 27
f 27 42 28
f 27 43 61
f 27 61 42
f 33 45 46
f 33 46 47
f 33 47 48
f 33 48 49
f 33 49 50
f 33 50 51
f 33 51 44
f 34 52 35
f 35 52 53
f 35 53 36
f 36 53 54
f 36 54 37
f 37 39 38
f 37 54 55
f 37 55 56
f 37 56 39
f 39 56 57
f 39 57 40
f 40 57 72
f 40 72 58
f 41 58 59
f 41 59 60
f 41 60 43
f 43 60 78
f 43 78 61
f 45 62 46
f 46 62 63
f 46 63 64
f 46 64 65
f 46 65 66
f 52 67 53
f 53 67 81
f 53 81 68
f 53 68 69
f 53 69 54
f 54 69 70
f 54 70 55
f 55 70 71
f 55 71 56
f 56 71 72
f 56 72 57
f 58 72 73
f 58 73 59
f 59 73 74
f 59 74 60
f 60 74 75
f 60 75 76
f 60 76 77
f 60 77 78
f 65 79 66
f 66 79 88
f 66 88 76
f 66 76 87
f 66 87 80
f 68 81 90
f 68 90 82
f 68 82 83
f 68 83 69
f 69 83 84
f 69 84 70
f 70 84 71
f 71 84 73
f 71 73 72
f 73 84 85
f 73 85 74
f 74 85 86
f 74 86 87
f 74 87 75
f 75 87 76
f 76 88 77
f 80 87 92
f 80 92 89
f 82 90 91
f 82 91 92
f 82 92 86
f 82 86 83
f 83 86 84
f 84 86 85
f 86 92 87
f 89 92 91

