# https://github.com/mikedh/trimesh
v 12.63276334 -25.19665360 38.49990255
v 12.76295180 -25.19665360 37.68042064
v 12.86013420 -25.19665360 39.12559485
v 12.63276334 -5.39591312 38.49990255
v 12.63276334 -5.39591312 38.49957919
v 12.76295180 -5.39591312 37.68009728
v 13.15718437 -25.19665360 37.17993087
v 13.48540629 -25.19665360 39.36273640
v 12.92064483 -5.39591312 39.14921170
v 12.86013420 -5.39591312 39.12559485
v 12.63276334 39.84654546 38.49957919
v 12.76295180 39.84654546 37.68009728
v 13.01966156 39.84654546 37.35366201
v 13.15718437 -5.39591312 37.17993087
v 14.09784253 -25.19665360 36.16989440
v 14.48840792 -25.19665360 39.47499877
v 13.48540629 -5.39591312 39.36305976
v 13.48540629 39.84654546 39.36305976
v 12.86013420 39.84654546 39.12527150
v 13.15718437 39.84654546 37.18025422
v 14.09784253 -5.39591312 36.16989440
v 29.84148557 -25.19665360 36.16989440
v 29.48209043 -25.19665360 39.47499877
v 14.48840792 39.84654546 39.47499877
v 14.09784253 39.84654546 36.17118782
v 29.82314820 -5.39591312 36.16989440
v 29.84148557 -5.40227890 36.16989440
v 30.32740052 -5.39591312 36.65679580
v 30.32740052 -25.19665360 36.65711915
v 30.48325772 -25.19665360 39.37308973
v 29.48209043 39.84654546 39.47499877
v 29.84148557 39.84654546 36.17118782
v 30.32740052 39.84654546 36.65679580
v 30.82798417 -5.39591312 37.16407901
v 30.82798417 -25.19665360 37.16440237
v 30.67945833 -25.19665360 39.30094427
v 30.48325772 -5.39591312 39.37308973
v 30.48325772 39.84654546 39.37276638
v 30.82798417 39.84654546 37.16407901
v 31.10302980 -25.19665360 37.51218802
v 31.12503285 -25.19665360 39.13497663
v 31.12503285 -5.39591312 39.13529998
v 31.12503285 39.84654546 39.13529998
v 30.70696290 39.84654546 39.29059094
v 31.22038240 39.84654546 37.66392058
v 31.18371065 -5.39591312 37.61442190
v 31.22038240 -25.19665360 37.66392058
v 31.19837935 -25.19665360 38.94215709
v 31.36523957 39.84654546 38.49957919
v 31.31573195 39.84654546 38.21002579
v 31.36523957 -25.19665360 38.49990255
v 31.36523957 -5.39591312 38.49990255
v 31.36523957 -5.39591312 38.49957919
f 1 2 7
f 1 7 15
f 1 15 22
f 1 22 29
f 1 29 35
f 1 35 40
f 1 40 47
f 1 47 51
f 1 51 48
f 1 48 41
f 1 41 36
f 1 36 30
f 1 30 23
f 1 23 16
f 1 16 8
f 1 8 3
f 1 3 10
f 1 10 4
f 1 4 11
f 1 11 5
f 1 5 6
f 1 6 2
f 2 6 7
f 3 8 9
f 3 9 10
f 4 10 19
f 4 19 11
f 5 11 12
f 5 12 6
f 6 12 13
f 6 13 7
f 7 13 14
f 7 14 21
f 7 21 15
f 8 16 17
f 8 17 9
f 9 17 18
f 9 18 19
f 9 19 10
f 11 19 18
f 11 18 24
f 11 24 31
f 11 31 38
f 11 38 44
f 11 44 43
f 11 43 49
f 11 49 50
f 11 50 45
f 11 45 39
f 11 39 33
f 11 33 32
f 11 32 25
f 11 25 20
f 11 20 13
f 11 13 12
f 13 20 14
f 14 20 21
f 15 21 26
f 15 26 27
f 15 27 22
f 16 23 31
f 16 31 24
f 16 24 18
f 16 18 17
f 20 25 21
f 21 25 32
f 21 32 26
f 22 27 33
f 22 33 28
f 22 28 29
f 23 30 37
f 23 37 31
f 26 32 27
f 27 32 33
f 28 33 39
f 28 39 34
f 28 34 35
f 28 35 29
f 30 36 37
f 31 37 38
f 34 39 40
f 34 40 35
f 36 41 42
f 36 42 43
f 36 43 44
f 36 44 37
f 37 44 38
f 39 45 46
f 39 46 40
f 40 46 47
f 41 48 42
f 42 48 43
f 43 48 49
f 45 50 47
f 45 47 46
f 47 50 51
f 48 51 52
f 48 52 49
f 49 52 51
f 49 51 53
f 49 53 50
f 50 53 51

