# https://github.com/mikedh/trimesh
v 1.83884229 14.31158003 15.45026357
v 11.48514896 14.31158003 15.45000476
v 1.83884229 14.31158003 18.05005309
v 1.83884229 40.39370352 15.45026357
v 12.48520267 14.31158003 15.46527781
v 11.48514896 40.39370352 15.45000476
v 11.48514896 14.31158003 18.05005309
v 1.83884229 22.50772472 18.09457799
v 1.83884229 40.39370352 18.09457799
v 13.23011843 14.31158003 15.74019334
v 12.48520267 40.39370352 15.46527781
v 12.48520267 14.31158003 18.04824092
v 13.04559717 22.66603034 18.09457799
v 12.48520267 22.52559868 18.09457799
v 11.49198264 22.50772472 18.09457799
v 13.47386741 40.39370352 18.09457799
v 13.27681723 14.31158003 15.88541704
v 13.23011843 40.39370352 15.74019334
v 13.01940090 14.31158003 18.02338985
v 13.41919350 24.50186421 18.09457799
v 13.47386741 40.39370352 16.50048227
v 13.47386741 25.50021024 18.09457799
v 13.47500586 29.49870547 17.50022203
v 13.47386741 14.31158003 16.50048227
v 13.21758953 14.31158003 17.60014429
v 13.26428832 14.31158003 17.50022203
v 13.43400229 14.31158003 16.69152523
f 1 2 5
f 1 5 10
f 1 10 17
f 1 17 24
f 1 24 27
f 1 27 26
f 1 26 25
f 1 25 19
f 1 19 12
f 1 12 7
f 1 7 3
f 1 3 8
f 1 8 9
f 1 9 4
f 1 4 6
f 1 6 2
f 2 6 11
f 2 11 5
f 3 7 15
f 3 15 8
f 4 9 16
f 4 16 21
f 4 21 18
f 4 18 11
f 4 11 6
f 5 11 18
f 5 18 10
f 7 12 13
f 7 13 14
f 7 14 15
f 8 15 14
f 8 14 13
f 8 13 20
f 8 20 22
f 8 22 16
f 8 16 9
f 10 18 17
f 12 19 20
f 12 20 13
f 16 22 23
f 16 23 21
f 17 18 21
f 17 21 24
f 19 25 22
f 19 22 20
f 21 23 24
f 22 25 26
f 22 26 27
f 22 27 24
f 22 24 23

