# https://github.com/mikedh/trimesh
v -24.73399146 14.50176524 32.73373017
v -27.51486091 14.50176524 32.11472636
v -28.01971426 13.97634380 32.00141186
v -24.73399146 13.50116317 32.70497835
v -24.73399146 28.49971869 32.73203889
v -25.51497851 28.49971869 32.55952946
v -27.51486091 28.49971869 32.11472636
v -28.02194645 14.50176524 32.00141186
v -28.41745944 13.58698798 31.85765425
v -27.93380450 13.30857888 31.98111646
v -28.52177661 14.50176524 31.84750655
v -27.26773533 12.85851716 32.05553144
v -24.73399146 12.48590803 32.43606725
v -24.73399146 29.28052245 32.71005220
v -28.01915695 29.02304502 32.00141186
v -28.02138617 28.49971869 32.00141186
v -28.02194645 21.49969441 32.00141186
v -29.42381634 13.50116317 31.33505212
v -28.51452570 12.50056110 31.52616566
v -29.43999306 14.50176524 31.34689110
v -28.52177661 15.50027220 31.84750655
v -26.51464031 12.67221371 32.14009413
v -27.56618354 12.51521492 31.82721115
v -25.50214710 10.66473021 31.45344047
v -24.73399146 10.66473021 31.54984363
v -24.73399146 29.49822565 32.70328707
v -28.41690213 29.41240084 31.84919634
v -28.52121931 28.49971869 31.84074142
v -28.52121931 27.49911662 31.84243121
v -25.51497851 29.49822565 32.53077764
v -27.93268990 29.68871633 31.98111646
v -28.52177661 24.49940551 31.84412398
v -28.52177661 21.49969441 31.84581378
v -29.92364650 13.50116317 30.85134950
v -29.21964340 12.50056110 31.16930782
v -29.93982619 14.50176524 30.87502747
v -29.02607116 11.98979422 31.01032866
v -28.51452570 11.87256890 31.12871851
v -29.43832114 17.50147485 31.34689110
v -28.51452570 11.44553397 30.49956700
v -26.66358651 10.66473021 30.36088175
v -24.73399146 10.66473021 25.36995328
v -24.73399146 30.28112451 32.50033603
v -27.26661924 30.14296379 32.05553144
v -28.51452570 30.49882772 31.54815086
v -29.25813612 30.49882772 31.19129451
v -29.42549123 29.49822565 31.32659570
v -29.43162456 28.49971869 31.34181725
v -29.43385675 25.50000758 31.34350853
v -29.43553164 22.49820286 31.34519982
v -30.17412037 13.50116317 30.35073405
v -30.11833633 12.72873238 30.21712414
v -29.75852358 12.43776233 30.53000861
v -30.17914207 16.50087427 30.37441202
v -30.17858476 15.50027220 30.37441202
v -30.17802746 14.50176524 30.37441202
v -29.93647939 21.49969441 30.87164490
v -30.18304617 24.49940551 30.36933966
v -30.18248887 22.49820286 30.37102945
v -29.24809571 11.81186300 30.49956700
v -28.44646607 11.11060470 29.55245717
v -27.96337142 11.00593958 29.91946123
v -26.77794559 10.66473021 30.17991591
v -25.70464664 10.66473021 22.43391416
v -25.99695855 10.98919290 17.92330498
v -25.82848883 11.44553397 17.55460890
v -25.89208258 11.79511631 16.50094970
v -25.67396512 12.50056110 16.50094970
v -25.57689886 13.50116317 16.50094970
v -25.57522545 14.50176524 16.50094970
v -25.57522545 28.49971869 16.50094970
v -24.73399146 30.49882772 25.46973826
v -24.73399146 30.51557366 32.43775705
v -26.51464031 30.33136234 32.13840433
v -26.51464031 30.83166338 31.91177383
v -27.56562624 30.48417390 31.82721115
v -28.51452570 31.15821967 31.15577755
v -29.06902529 31.05146169 31.04753690
v -29.76410258 30.53022748 30.54353888
v -29.92532139 29.49822565 30.86149720
v -29.93145769 28.49971869 30.86487977
v -29.93368989 25.50000758 30.86826234
v -30.35988439 13.50116317 29.50002738
v -30.38275472 14.50176524 29.50002738
v -30.17579526 12.58429379 29.50002738
v -29.96716091 12.08399350 29.50002738
v -30.38777642 22.49820286 29.50002738
v -30.38610450 19.50058538 29.50002738
v -30.18248887 28.49971869 30.36426432
v -30.18248887 27.49911662 30.36595709
v -30.38777642 27.49911662 29.50002738
v -30.18304617 23.49880344 30.36933966
v -29.46677047 11.63393178 29.50002738
v -28.59931637 11.12525777 28.49879723
v -27.01000906 10.66473021 29.52201407
v -25.81677352 10.66473021 22.17176745
v -26.51464031 10.97872631 17.87764070
v -26.51464031 11.09804525 17.37702562
v -25.99807464 11.98560774 15.98849527
v -25.89375598 12.50056110 15.87010691
v -25.79669121 13.50116317 15.75848369
v -25.79501780 14.50176524 15.75679241
v -25.79501780 17.50147485 15.75510113
v -25.79501780 28.49971869 15.75510113
v -25.58024566 29.49822565 16.50094970
v -24.73399146 30.75211792 25.50525447
v -24.73399146 31.11426120 32.10626995
v -25.26338854 31.05774104 32.05045759
v -25.93001650 30.96563687 31.97942368
v -27.51486091 31.28172360 31.29784388
v -28.51452570 31.57269291 30.49956700
v -29.24921032 31.20636538 30.49956700
v -30.12447263 30.21622989 30.23911083
v -29.92308919 30.85468867 29.50002738
v -30.18081398 29.49822565 30.36088175
v -30.39224081 13.50116317 28.49879723
v -30.42459424 14.50176524 28.49879723
v -30.18751057 12.59685399 28.49879723
v -30.40562803 13.50116317 27.49925836
v -29.96771822 12.09236647 20.50079573
v -29.46732777 11.62346519 20.50079573
v -30.42515155 28.49971869 28.49879723
v -30.38721911 28.49971869 29.50002738
v -29.45728736 11.62555881 28.49879723
v -28.60712757 11.11688480 27.49925836
v -27.02953407 10.66473021 28.49879723
v -26.07059420 10.66473021 22.14470728
v -27.51486091 10.97872631 17.88609712
v -27.51486091 11.08757866 17.38548204
v -26.51464031 11.57531949 16.50094970
v -26.51464031 11.97932764 15.98342216
v -26.51464031 12.50056110 15.73480572
v -26.51464031 13.50116317 15.49464570
v -26.51464031 14.50176524 15.48449800
v -26.51464031 15.50027220 15.48280672
v -26.51464031 28.49971869 15.48280672
v -25.80003801 29.49822565 15.76693937
v -25.87478976 30.32299086 15.85319408
v -25.75485168 30.59302700 16.40623857
v -25.57522545 30.49882772 17.50048858
v -24.73399146 32.01856889 25.89762852
v -24.73399146 31.49942979 25.65408593
v -24.73399146 31.54338826 31.51770775
v -26.51464031 31.35289758 31.41285116
v -27.52322941 31.82179886 30.41162026
v -27.86128495 31.99344849 29.90593096
v -28.44367656 31.88041115 29.54400076
v -29.42270173 31.35498971 29.50002738
v -30.37717870 29.49822565 29.50002738
v -30.19085737 30.35439062 29.50002738
v -29.94763441 30.88818354 28.49879723
v -30.43240544 14.50176524 20.50079573
v -30.41287894 13.50116317 26.49972023
v -30.20034048 12.62825226 27.49925836
v -30.17635257 12.61150632 18.50171836
v -29.95321341 12.11329964 18.50171836
v -29.45338325 11.63393178 18.50171836
v -28.59150816 11.13363149 18.50171836
v -28.60433807 11.12316490 20.50079573
v -28.61158898 11.12316490 21.50033460
v -30.40786022 29.49822565 28.49879723
v -30.42794105 28.49971869 21.50033460
v -27.05184858 10.66473021 23.46051282
v -27.02674457 10.66473021 22.90746907
v -28.06378300 10.98709928 17.93345268
v -28.44367656 11.19224378 17.56137404
v -28.51452570 11.67161164 16.54661361
v -27.55948994 11.66323792 16.40454729
v -27.25602003 11.98770135 15.99018655
v -27.51486091 13.50116317 15.48111543
v -27.55948994 12.40636257 15.79569119
v -27.51486091 14.50176524 15.45912875
v -27.51486091 18.50207692 15.45743746
v -27.51486091 28.49971869 15.45574618
v -26.51464031 29.49822565 15.51494110
v -26.49957969 30.59302700 15.81598659
v -26.15594516 30.98866217 16.01048196
v -25.86809615 31.29009807 16.67684095
v -25.99918925 32.01019741 17.88778840
v -24.73399146 32.04159717 26.49972023
v -25.82960343 31.57269291 17.53262222
v -26.51464031 31.85110351 30.56045172
v -24.73399146 31.94111556 30.67715028
v -27.19521429 32.00601018 30.01924546
v -27.52322941 32.02066400 29.54400076
v -28.06322569 32.01228954 29.23957270
v -28.59095085 31.87622392 28.49879723
v -29.44780425 31.37592288 28.49879723
v -30.20201239 30.38788250 28.49879723
v -29.98110543 30.94470370 18.50171836
v -29.95209880 30.89237077 27.49925836
v -30.42347963 19.50058538 18.50171836
v -30.42347963 14.50176524 18.50171836
v -30.38108281 13.50116317 18.50171836
v -30.42236205 28.49971869 18.50171836
v -30.42292233 24.49940551 18.50171836
v -30.20647678 12.65755989 26.49972023
v -30.11833633 12.76222575 17.50048858
v -29.87009465 12.26192472 17.50048858
v -29.37026151 11.69254481 17.50048858
v -28.09111771 10.97872631 18.50171836
v -30.40729994 29.49822565 27.49925836
v -30.20201239 30.39206675 27.49925836
v -30.18973978 30.44439968 18.50171836
v -30.39391272 29.49822565 18.50171836
v -29.19844499 11.83279617 16.72419689
v -28.51452570 12.07771340 16.04769019
v -27.92209069 12.00863378 16.00540811
v -28.51452570 13.50116317 15.62656432
v -28.51452570 12.57801443 15.82275172
v -28.51452570 14.50176524 15.60796021
v -28.51452570 15.50027220 15.60626967
v -28.51452570 18.50207692 15.60457838
v -28.51452570 28.49971869 15.60457838
v -28.51452570 29.49822565 15.64009459
v -27.51486091 29.49822565 15.50310212
v -27.51486091 30.49882772 15.75848369
v -27.51486091 31.01587470 15.98511345
v -26.82257312 31.00750024 15.99356912
v -26.49957969 31.35708481 16.40623857
v -26.51464031 31.94111556 17.36518664
v -26.51464031 32.01228954 17.86411081
v -26.51464031 32.03113058 18.50171836
v -25.99137955 32.01647677 18.50171836
v -24.73399146 32.04368930 26.71789283
v -25.51497851 31.90553155 30.61626407
v -24.73399146 32.02275612 30.17822611
v -25.51497851 32.02275612 30.11564862
v -26.51464031 32.01438166 30.05983627
v -26.51464031 32.03950206 29.50002738
v -27.51486091 32.04368930 28.49879723
v -28.09056041 32.01856889 28.49879723
v -28.09502182 32.02066400 27.49925836
v -28.59485496 31.87831604 27.49925836
v -29.45170836 31.37801799 27.49925836
v -29.47179217 31.38429734 20.50079573
v -29.47736819 31.37383076 19.50125723
v -29.48127528 31.36336417 18.50171836
v -29.38365171 31.30056465 17.50048858
v -29.88403917 30.82119679 17.50048858
v -30.14678565 30.32089575 17.50048858
v -30.31693026 16.50087427 17.50048858
v -30.31693026 14.50176524 17.50048858
v -30.26951174 13.50116317 17.50048858
v -30.29461724 29.49822565 17.50048858
v -30.31023666 28.49971869 17.50048858
v -30.31581566 18.50207692 17.50048858
v -30.04135387 12.93806262 16.95590050
v -29.49075838 12.51730704 16.50602356
v -29.11644083 12.76222575 15.92591853
v -29.18003607 13.50116317 15.88363718
v -29.19286599 14.50176524 15.87687205
v -29.19509818 17.50147485 15.87518077
v -29.19565549 18.50207692 15.87518077
v -29.19454088 24.49940551 15.87518077
v -29.19342627 27.49911662 15.87518077
v -29.19286599 28.49971869 15.87518077
v -29.18226827 29.49822565 15.88701975
v -29.19565549 20.50118596 15.87518077
v -29.11923033 30.16599207 15.93099238
v -28.44702635 30.49882772 15.86165050
v -28.06936200 31.01587470 15.98680473
v -27.51486091 31.45128409 16.50094970
v -27.53494472 31.94321066 17.55968275
v -27.21473930 32.00601018 17.93176140
v -27.51486091 32.03322271 20.50079573
v -27.51486091 32.04159717 21.50033460
v -26.51464031 32.03740994 19.50125723
v -24.73399146 32.04996865 27.49925836
v -27.53494472 32.01019741 18.59642912
v -27.51486091 32.02275612 19.50125723
v -24.73399146 32.04368930 29.63363729
v -25.51497851 32.04787653 29.50002738
v -26.51464031 32.04787653 28.49879723
v -27.51486091 32.04578142 27.49925836
v -28.07215150 32.02275612 25.50018062
v -28.08553871 32.02275612 22.50156475
v -28.09502182 32.02066400 26.49972023
v -28.10394763 32.01856889 21.50033460
v -28.60378076 31.88459838 21.50033460
v -28.56975244 31.88459838 20.50079573
v -28.53349192 31.87413179 19.50125723
v -28.41466994 31.88669050 18.59642912
v -28.51452570 31.75899934 17.50048858
v -29.19509818 31.16240691 16.79353877
v -30.07426759 30.13040508 16.90347071
v -30.11108541 19.50058538 16.84427653
v -30.11220002 16.50087427 16.84258525
v -30.11275733 14.50176524 16.84258525
v -30.08375070 13.50116317 16.88824990
v -30.10494911 29.49822565 16.85273295
v -30.10606372 28.49971869 16.85273295
v -30.10662102 27.49911662 16.85104167
v -30.10829591 24.49940551 16.84765910
v -30.11052811 20.50118596 16.84427653
v -29.67986921 13.50116317 16.38763445
v -29.69269913 14.50176524 16.34366183
v -29.69381373 15.50027220 16.34366183
v -29.69548863 18.50207692 16.34366183
v -29.69548863 19.50058538 16.34366183
v -29.69325643 28.49971869 16.35211825
v -29.68209843 29.49822565 16.35380953
v -29.69548863 21.49969441 16.34535311
v -29.69493132 23.49880344 16.34704440
v -29.69325643 27.49911662 16.35042696
v -29.49020108 30.48208178 16.51447997
v -28.73598996 30.83375550 16.12548849
v -28.44702635 31.27753637 16.47558045
v -27.88080996 31.99344849 18.32582673
v -28.01469256 31.99973083 18.99218573
v -28.03365878 32.00391508 19.50125723
v -27.51486091 32.04578142 22.50156475
v -26.51464031 32.03950206 20.50079573
v -26.51464031 32.04787653 27.49925836
v -24.73399146 32.04787653 29.50002738
f 1 2 3
f 1 3 4
f 1 4 13
f 1 13 25
f 1 25 42
f 1 42 72
f 1 72 106
f 1 106 142
f 1 142 141
f 1 141 180
f 1 180 225
f 1 225 269
f 1 269 315
f 1 315 272
f 1 272 227
f 1 227 183
f 1 183 143
f 1 143 107
f 1 107 73
f 1 73 43
f 1 43 26
f 1 26 14
f 1 14 5
f 1 5 6
f 1 6 7
f 1 7 2
f 2 8 3
f 2 7 17
f 2 17 8
f 3 9 10
f 3 10 4
f 3 8 11
f 3 11 9
f 4 10 12
f 4 12 13
f 5 14 15
f 5 15 6
f 6 15 7
f 7 15 16
f 7 16 17
f 8 17 21
f 8 21 11
f 9 11 18
f 9 18 19
f 9 19 10
f 10 19 12
f 11 20 18
f 11 21 20
f 12 22 13
f 12 19 23
f 12 23 24
f 12 24 22
f 13 22 24
f 13 24 25
f 14 26 15
f 15 27 28
f 15 28 29
f 15 29 16
f 15 26 30
f 15 30 31
f 15 31 27
f 16 29 32
f 16 32 33
f 16 33 21
f 16 21 17
f 18 34 35
f 18 35 19
f 18 20 36
f 18 36 34
f 19 35 37
f 19 37 38
f 19 38 24
f 19 24 23
f 20 21 33
f 20 33 39
f 20 39 36
f 24 40 41
f 24 41 63
f 24 63 95
f 24 95 126
f 24 126 163
f 24 163 164
f 24 164 127
f 24 127 96
f 24 96 64
f 24 64 42
f 24 42 25
f 24 38 37
f 24 37 40
f 26 43 44
f 26 44 31
f 26 31 30
f 27 31 45
f 27 45 46
f 27 46 47
f 27 47 28
f 28 47 48
f 28 48 29
f 29 49 50
f 29 50 32
f 29 48 49
f 31 44 45
f 32 50 39
f 32 39 33
f 34 51 52
f 34 52 53
f 34 53 35
f 34 36 51
f 35 53 37
f 36 54 55
f 36 55 56
f 36 56 51
f 36 39 50
f 36 50 57
f 36 57 58
f 36 58 59
f 36 59 54
f 37 53 60
f 37 60 40
f 40 61 62
f 40 62 41
f 40 60 61
f 41 62 63
f 42 64 65
f 42 65 66
f 42 66 67
f 42 67 68
f 42 68 69
f 42 69 70
f 42 70 71
f 42 71 72
f 43 73 44
f 44 73 74
f 44 74 75
f 44 75 76
f 44 76 45
f 45 76 77
f 45 77 78
f 45 78 46
f 46 79 80
f 46 80 47
f 46 78 79
f 47 80 48
f 48 80 81
f 48 81 82
f 48 82 57
f 48 57 49
f 49 57 50
f 51 83 52
f 51 56 84
f 51 84 83
f 52 85 86
f 52 86 53
f 52 83 85
f 53 86 60
f 54 59 87
f 54 87 55
f 55 87 88
f 55 88 56
f 56 88 84
f 57 82 89
f 57 89 90
f 57 90 58
f 58 90 89
f 58 89 91
f 58 91 87
f 58 87 92
f 58 92 59
f 59 92 87
f 60 86 93
f 60 93 61
f 61 93 94
f 61 94 95
f 61 95 63
f 61 63 62
f 64 96 65
f 65 97 98
f 65 98 99
f 65 99 67
f 65 67 66
f 65 96 97
f 67 99 68
f 68 99 100
f 68 100 101
f 68 101 69
f 69 101 102
f 69 102 70
f 70 102 103
f 70 103 104
f 70 104 71
f 71 104 105
f 71 105 72
f 72 105 106
f 73 107 108
f 73 108 109
f 73 109 74
f 74 109 75
f 75 109 77
f 75 77 76
f 77 109 110
f 77 110 111
f 77 111 78
f 78 111 112
f 78 112 79
f 79 113 80
f 79 112 114
f 79 114 113
f 80 113 115
f 80 115 81
f 81 115 89
f 81 89 82
f 83 116 85
f 83 84 117
f 83 117 116
f 84 88 117
f 85 118 86
f 85 116 119
f 85 119 118
f 86 120 121
f 86 121 93
f 86 118 120
f 87 91 122
f 87 122 117
f 87 117 88
f 89 115 123
f 89 123 91
f 91 123 122
f 93 121 124
f 93 124 125
f 93 125 94
f 94 125 95
f 95 125 126
f 96 127 97
f 97 128 129
f 97 129 98
f 97 127 128
f 98 129 130
f 98 130 99
f 99 131 132
f 99 132 100
f 99 130 131
f 100 132 133
f 100 133 101
f 101 133 134
f 101 134 102
f 102 134 135
f 102 135 103
f 103 135 136
f 103 136 104
f 104 136 137
f 104 137 105
f 105 137 138
f 105 138 139
f 105 139 140
f 105 140 141
f 105 141 142
f 105 142 106
f 107 143 144
f 107 144 110
f 107 110 108
f 108 110 109
f 110 144 143
f 110 143 145
f 110 145 111
f 111 145 146
f 111 146 147
f 111 147 112
f 112 148 114
f 112 147 148
f 113 149 115
f 113 114 150
f 113 150 149
f 114 148 151
f 114 151 150
f 115 149 123
f 116 117 119
f 117 152 153
f 117 153 119
f 117 122 152
f 118 119 153
f 118 153 154
f 118 154 120
f 120 154 155
f 120 155 156
f 120 156 157
f 120 157 121
f 121 157 158
f 121 158 159
f 121 159 160
f 121 160 125
f 121 125 124
f 122 123 149
f 122 149 161
f 122 161 162
f 122 162 152
f 125 160 163
f 125 163 126
f 127 164 165
f 127 165 128
f 128 165 129
f 129 166 167
f 129 167 168
f 129 168 130
f 129 165 166
f 130 168 131
f 131 169 132
f 131 168 169
f 132 170 133
f 132 169 171
f 132 171 170
f 133 170 172
f 133 172 134
f 134 172 135
f 135 172 173
f 135 173 174
f 135 174 136
f 136 174 175
f 136 175 137
f 137 175 138
f 138 176 177
f 138 177 178
f 138 178 139
f 138 175 176
f 139 178 140
f 140 178 141
f 141 179 180
f 141 178 181
f 141 181 179
f 143 182 145
f 143 183 182
f 145 182 146
f 146 184 185
f 146 185 186
f 146 186 147
f 146 182 184
f 147 187 148
f 147 186 187
f 148 187 188
f 148 188 151
f 149 150 161
f 150 189 161
f 150 151 189
f 151 190 191
f 151 191 189
f 151 188 190
f 152 192 193
f 152 193 194
f 152 194 153
f 152 162 195
f 152 195 196
f 152 196 192
f 153 194 155
f 153 155 197
f 153 197 154
f 154 197 155
f 155 194 198
f 155 198 156
f 156 198 199
f 156 199 200
f 156 200 157
f 157 200 158
f 158 166 165
f 158 165 201
f 158 201 159
f 158 200 166
f 159 201 163
f 159 163 160
f 161 202 162
f 161 189 203
f 161 203 204
f 161 204 202
f 162 202 205
f 162 205 195
f 163 201 164
f 164 201 165
f 166 200 206
f 166 206 167
f 167 206 207
f 167 207 208
f 167 208 168
f 168 208 169
f 169 208 171
f 170 209 172
f 170 171 210
f 170 210 209
f 171 208 210
f 172 211 212
f 172 212 213
f 172 213 173
f 172 209 211
f 173 213 174
f 174 214 215
f 174 215 216
f 174 216 175
f 174 213 214
f 175 216 217
f 175 217 176
f 176 217 218
f 176 218 219
f 176 219 177
f 177 219 220
f 177 220 178
f 178 220 221
f 178 221 179
f 178 179 181
f 179 221 222
f 179 222 223
f 179 223 224
f 179 224 180
f 180 224 225
f 182 183 226
f 182 226 184
f 183 227 228
f 183 228 229
f 183 229 184
f 183 184 226
f 184 229 230
f 184 230 185
f 185 230 231
f 185 231 186
f 186 231 232
f 186 232 187
f 187 232 233
f 187 233 234
f 187 234 235
f 187 235 188
f 188 235 190
f 189 191 190
f 189 190 203
f 190 235 236
f 190 236 237
f 190 237 238
f 190 238 239
f 190 239 240
f 190 240 241
f 190 241 204
f 190 204 203
f 192 242 243
f 192 243 193
f 192 196 242
f 193 243 194
f 194 243 244
f 194 244 198
f 195 205 245
f 195 245 246
f 195 246 247
f 195 247 242
f 195 242 196
f 198 248 199
f 198 244 248
f 199 206 200
f 199 248 206
f 202 204 205
f 204 241 205
f 205 241 245
f 206 248 249
f 206 249 250
f 206 250 207
f 207 250 210
f 207 210 208
f 209 251 211
f 209 210 250
f 209 250 251
f 211 252 212
f 211 251 252
f 212 253 213
f 212 252 253
f 213 253 254
f 213 254 259
f 213 259 214
f 214 255 256
f 214 256 257
f 214 257 258
f 214 258 215
f 214 259 255
f 215 258 260
f 215 260 261
f 215 261 216
f 216 261 217
f 217 261 262
f 217 262 218
f 218 262 263
f 218 263 220
f 218 220 219
f 220 263 221
f 221 264 265
f 221 265 222
f 221 263 264
f 222 265 223
f 223 266 267
f 223 267 268
f 223 268 269
f 223 269 224
f 223 265 270
f 223 270 271
f 223 271 266
f 224 269 225
f 227 272 273
f 227 273 228
f 228 273 230
f 228 230 229
f 230 273 231
f 231 273 274
f 231 274 275
f 231 275 233
f 231 233 232
f 233 276 277
f 233 277 278
f 233 278 279
f 233 279 280
f 233 280 234
f 233 275 276
f 234 280 236
f 234 236 235
f 236 280 237
f 237 280 238
f 238 280 281
f 238 281 282
f 238 282 283
f 238 283 284
f 238 284 239
f 239 285 240
f 239 284 285
f 240 285 286
f 240 286 241
f 241 286 245
f 242 247 295
f 242 295 287
f 242 287 288
f 242 288 289
f 242 289 243
f 243 289 290
f 243 290 244
f 244 290 248
f 245 286 291
f 245 291 246
f 246 291 292
f 246 292 293
f 246 293 294
f 246 294 295
f 246 295 247
f 248 250 249
f 248 290 296
f 248 296 250
f 250 296 251
f 251 296 297
f 251 297 252
f 252 297 253
f 253 298 299
f 253 299 254
f 253 297 298
f 254 299 300
f 254 300 259
f 255 259 300
f 255 300 256
f 256 300 257
f 257 301 302
f 257 302 258
f 257 300 303
f 257 303 304
f 257 304 305
f 257 305 301
f 258 302 260
f 260 286 306
f 260 306 285
f 260 285 307
f 260 307 261
f 260 302 286
f 261 307 262
f 262 307 308
f 262 308 263
f 263 284 264
f 263 308 284
f 264 309 265
f 264 284 309
f 265 309 270
f 266 271 310
f 266 310 311
f 266 311 279
f 266 279 267
f 267 279 312
f 267 312 268
f 268 312 313
f 268 313 269
f 269 312 314
f 269 314 274
f 269 274 273
f 269 273 315
f 269 313 312
f 270 309 310
f 270 310 271
f 272 315 273
f 274 314 312
f 274 312 275
f 275 312 277
f 275 277 276
f 277 279 278
f 277 312 279
f 279 311 281
f 279 281 280
f 281 311 310
f 281 310 282
f 282 310 283
f 283 310 309
f 283 309 284
f 284 308 285
f 285 308 307
f 285 306 286
f 286 302 291
f 287 295 288
f 288 295 303
f 288 303 300
f 288 300 289
f 289 300 299
f 289 299 298
f 289 298 297
f 289 297 296
f 289 296 290
f 291 302 301
f 291 301 293
f 291 293 292
f 293 301 294
f 294 301 305
f 294 305 295
f 295 305 304
f 295 304 303

