# https://github.com/mikedh/trimesh
v 22.48410060 50.54854823 33.18688090
v 22.79723988 50.48094457 33.18688090
v 29.48515008 50.42129814 26.50074394
v 28.48450033 50.53561997 26.50074394
v 27.48385057 50.54158640 26.50074394
v 26.48495022 50.54456663 26.50074394
v 22.48410060 50.54854823 29.49996629
v 15.79968920 50.54854823 33.18688090
v 23.48475036 50.33183148 33.18688090
v 30.41932271 50.13797910 26.42357969
v 31.01061629 50.02166648 26.03860780
v 31.01061629 50.02166648 25.84103311
v 30.50329382 50.13598830 25.50439467
v 29.48515008 50.31691838 25.50100316
v 28.48450033 50.32686045 25.50100316
v 23.48475036 50.54655743 27.50048398
v 18.48674978 50.54456663 26.50074394
v 21.48694965 50.54854823 29.49996629
v 13.49574680 50.54854823 30.49970558
v 13.49574680 50.54755283 33.18688090
v 24.04280537 50.05745314 33.18688090
v 30.04320510 50.03856441 27.05615549
v 30.69922342 49.49975874 26.69662140
v 31.12432716 49.49975874 26.19717569
v 31.15231753 49.55741735 25.50439467
v 30.84792226 49.92921362 25.17369137
v 30.18140755 50.03657957 24.96509428
v 29.48515008 50.05447291 24.94728737
v 23.48475036 50.05447291 24.94728737
v 19.48565014 50.32586505 25.50100316
v 22.48410060 50.54655743 27.50048398
v 15.48654992 50.32486965 25.50100316
v 17.48610003 50.54357720 26.50074394
v 14.48590017 50.40240941 26.50074394
v 13.65494054 50.14692576 25.50100316
v 13.49574680 50.06441497 25.50100316
v 16.48719968 50.54258180 26.50074394
v 15.48654992 50.53860616 26.50074394
v 13.49574680 40.39370650 33.18688090
v 24.21774220 49.67372699 33.18688090
v 30.19890153 49.49975874 27.21387476
v 30.82692948 48.49968417 26.83653450
v 31.22404285 48.49968417 26.33624017
v 31.36574112 48.49968417 25.50100316
v 31.07884281 49.26216544 24.90912993
v 30.50329382 49.55741735 24.82942205
v 29.48515008 49.49975874 24.70901160
v 21.48694965 49.49975874 24.70985948
v 15.48654992 49.49975874 24.71155523
v 15.48654992 50.05248211 24.94898313
v 17.48610003 50.05347751 24.94898313
v 14.48590017 50.05248211 24.94983100
v 14.48590017 50.30896712 25.50100316
v 13.87536321 50.03458878 24.96679003
v 13.49574680 49.53355758 24.87690763
v 24.48714951 40.39370650 33.18688090
v 13.49574680 40.39370650 24.63693536
v 24.29471572 49.49975874 33.18688090
v 30.32835401 48.49968417 27.34361259
v 31.18205730 40.39370650 26.38966164
v 30.77445052 40.39370650 26.89080384
v 30.82692948 40.39370650 26.83653450
v 31.22404285 40.39370650 26.33624017
v 31.35174593 40.39370650 25.58919056
v 31.36574112 40.39370650 25.50100316
v 31.12782596 48.49968417 24.86334010
v 30.48405044 48.49968417 24.62591221
v 29.48515008 48.49968417 24.52585305
v 19.48565014 48.49968417 24.52500517
v 14.48590017 48.49968417 24.52500517
v 14.48590017 49.49975874 24.71240311
v 13.52023838 49.50970080 24.83535719
v 13.49574680 49.49777092 24.83790082
v 30.32835401 40.39370650 27.34361259
v 24.48714951 48.49968417 33.18688090
v 13.49574680 48.49968417 24.63693536
v 13.59196221 40.39370650 24.62591221
v 24.42941937 48.81183401 33.18688090
v 31.12782596 40.39370650 24.86334010
v 30.48405044 40.39370650 24.62591221
v 29.59186337 40.39370650 24.53602832
v 29.48515008 40.39370650 24.52585305
v 19.59236193 40.39370650 24.52500517
v 14.48590017 40.39370650 24.52500517
v 13.49574680 48.81083861 24.69883633
f 1 2 3
f 1 3 4
f 1 4 5
f 1 5 6
f 1 6 7
f 1 7 18
f 1 18 19
f 1 19 8
f 1 8 20
f 1 20 39
f 1 39 56
f 1 56 75
f 1 75 78
f 1 78 58
f 1 58 40
f 1 40 21
f 1 21 9
f 1 9 2
f 2 9 3
f 3 10 11
f 3 11 12
f 3 12 13
f 3 13 14
f 3 14 4
f 3 9 10
f 4 14 15
f 4 15 5
f 5 15 6
f 6 16 7
f 6 15 17
f 6 17 31
f 6 31 16
f 7 16 31
f 7 31 18
f 8 19 20
f 9 21 22
f 9 22 10
f 10 22 11
f 11 22 23
f 11 23 24
f 11 24 25
f 11 25 12
f 12 26 13
f 12 25 26
f 13 26 27
f 13 27 14
f 14 28 15
f 14 27 28
f 15 28 29
f 15 29 30
f 15 30 17
f 17 30 32
f 17 32 33
f 17 33 19
f 17 19 31
f 18 31 19
f 19 34 35
f 19 35 36
f 19 36 55
f 19 55 73
f 19 73 85
f 19 85 76
f 19 76 57
f 19 57 39
f 19 39 20
f 19 33 37
f 19 37 38
f 19 38 34
f 21 40 41
f 21 41 22
f 22 41 23
f 23 41 42
f 23 42 24
f 24 42 43
f 24 43 44
f 24 44 25
f 25 45 26
f 25 44 45
f 26 45 46
f 26 46 27
f 27 46 47
f 27 47 28
f 28 47 29
f 29 47 48
f 29 48 49
f 29 49 50
f 29 50 51
f 29 51 32
f 29 32 30
f 32 38 37
f 32 37 33
f 32 51 52
f 32 52 53
f 32 53 38
f 34 53 35
f 34 38 53
f 35 53 54
f 35 54 36
f 36 54 55
f 39 57 77
f 39 77 84
f 39 84 83
f 39 83 82
f 39 82 81
f 39 81 80
f 39 80 79
f 39 79 65
f 39 65 64
f 39 64 63
f 39 63 60
f 39 60 62
f 39 62 61
f 39 61 74
f 39 74 56
f 40 58 41
f 41 59 42
f 41 58 59
f 42 60 43
f 42 59 61
f 42 61 62
f 42 62 60
f 43 60 63
f 43 63 64
f 43 64 44
f 44 64 65
f 44 65 79
f 44 79 66
f 44 66 45
f 45 66 67
f 45 67 46
f 46 67 47
f 47 67 68
f 47 68 69
f 47 69 70
f 47 70 48
f 48 70 49
f 49 70 71
f 49 71 52
f 49 52 50
f 50 52 51
f 52 71 54
f 52 54 53
f 54 72 73
f 54 73 55
f 54 71 72
f 56 74 59
f 56 59 75
f 57 76 77
f 58 78 59
f 59 74 61
f 59 78 75
f 66 79 80
f 66 80 67
f 67 80 81
f 67 81 68
f 68 81 82
f 68 82 83
f 68 83 69
f 69 83 84
f 69 84 70
f 70 84 77
f 70 77 76
f 70 76 71
f 71 76 85
f 71 85 72
f 72 85 73

