# https://github.com/mikedh/trimesh
v 8.12061534 47.49923111 35.64660318
v 8.09846176 48.49925501 35.64660318
v 1.37230136 48.49925501 40.07269362
v 1.37230136 40.39469594 40.07269362
v 8.11956034 40.39469594 35.64660318
v 7.37584263 40.39469594 28.13911413
v 7.37584263 47.76364950 28.13911413
v 7.37584263 48.49925501 28.14343770
v 7.37584263 48.63444743 28.14487939
v 7.37584263 49.39291432 28.31350632
v 7.48344402 49.41875892 35.64660318
v 1.01362893 50.02612491 40.07269362
v 1.20562425 49.49828352 40.07269362
v 7.37584263 49.41875892 28.32503610
v 7.37584263 50.14442237 28.77614761
v 7.37584263 50.42474330 29.50109878
v 7.37584263 50.54801179 30.49988738
v 7.37584263 50.54801179 33.49913654
v 7.37584263 50.54403019 33.60867062
v 7.37584263 50.42772949 34.49936608
v 7.37584263 50.39492306 34.60313639
v 7.37584263 50.14839800 35.22719914
v 7.37584263 50.12851387 35.24449494
v 7.37584263 50.07980491 35.28628975
v -2.65643245 40.39469594 40.07269362
v 1.71093022 40.39469594 25.35893609
v 1.70671058 40.39668376 25.34884725
v 1.70671058 47.50917317 25.34884725
v 1.70249094 48.49925501 25.34884725
v 6.99923700 49.02014053 27.99498920
v 1.46091456 49.56786605 25.34884725
v 1.35858744 49.68814835 25.34884725
v 0.71297758 50.18418467 40.07269362
v 0.64546258 50.23289363 25.34884725
v 0.57056331 50.28259203 25.34884725
v -0.51283789 50.54801179 25.34884725
v 6.48443638 50.51122972 29.50109878
v -1.51395554 50.54999662 25.34884725
v -0.51283789 50.54999662 26.50185036
v -0.51283789 50.54999662 27.50208064
v -1.51395554 50.54900122 35.64660318
v -0.51389289 50.54801179 40.07269362
v 0.48616975 50.30148076 40.07269362
v -2.65643245 50.54801179 40.07269362
v -2.65643245 40.39469594 25.34884725
v -2.07939185 40.39469594 25.34884725
v -2.65643245 50.54999662 25.34884725
v -1.51395554 50.54999662 28.50231018
v -2.65537745 50.54900122 35.64660318
v -2.65643245 50.54999662 28.64355247
f 1 2 3
f 1 3 4
f 1 4 5
f 1 5 6
f 1 6 7
f 1 7 8
f 1 8 9
f 1 9 10
f 1 10 2
f 2 11 12
f 2 12 13
f 2 13 3
f 2 10 14
f 2 14 15
f 2 15 16
f 2 16 17
f 2 17 18
f 2 18 19
f 2 19 20
f 2 20 21
f 2 21 22
f 2 22 23
f 2 23 24
f 2 24 11
f 3 13 12
f 3 12 33
f 3 33 43
f 3 43 42
f 3 42 44
f 3 44 25
f 3 25 4
f 4 25 45
f 4 45 46
f 4 46 26
f 4 26 6
f 4 6 5
f 6 26 27
f 6 27 28
f 6 28 7
f 7 28 29
f 7 29 8
f 8 29 9
f 9 30 10
f 9 29 30
f 10 30 31
f 10 31 32
f 10 32 14
f 11 24 12
f 12 24 23
f 12 23 22
f 12 22 33
f 14 32 15
f 15 32 34
f 15 34 35
f 15 35 36
f 15 36 16
f 16 36 37
f 16 37 17
f 17 37 36
f 17 36 38
f 17 38 39
f 17 39 40
f 17 40 18
f 18 40 41
f 18 41 42
f 18 42 19
f 19 42 20
f 20 42 21
f 21 42 43
f 21 43 22
f 22 43 33
f 25 44 50
f 25 50 47
f 25 47 45
f 26 46 27
f 27 46 45
f 27 45 47
f 27 47 38
f 27 38 36
f 27 36 35
f 27 35 34
f 27 34 32
f 27 32 31
f 27 31 29
f 27 29 28
f 29 31 30
f 38 47 50
f 38 50 48
f 38 48 40
f 38 40 39
f 40 48 41
f 41 49 44
f 41 44 42
f 41 48 50
f 41 50 49
f 44 49 50

