# https://github.com/mikedh/trimesh
v 8.66128052 -27.05020905 35.53321695
v 1.69975567 -27.05020905 41.74729025
v 8.66128052 -29.03071642 35.53321695
v 8.66128052 -27.05020905 28.46689856
v 1.69975567 -29.03071642 41.74729025
v -3.47563555 -27.05020905 41.74729025
v 8.66128052 -29.03071642 28.46689856
v 1.35750244 -27.05020905 23.49456882
v -3.47444718 -29.03071642 41.74729025
v -3.47682391 -27.05020905 41.49894154
v 1.35631408 -29.03071642 23.50171617
v 1.35750244 -29.02742028 23.49456882
v 1.30521352 -27.05020905 23.49456882
v -3.47920065 -27.05020905 40.49840009
v -3.47444718 -29.03071642 23.49456882
v 1.30283679 -29.03071642 23.49456882
v -3.47801228 -27.05292404 23.49456882
v -3.47920065 -27.05020905 23.50171617
f 1 2 5
f 1 5 3
f 1 3 7
f 1 7 4
f 1 4 8
f 1 8 13
f 1 13 18
f 1 18 14
f 1 14 10
f 1 10 6
f 1 6 2
f 2 6 9
f 2 9 5
f 3 5 9
f 3 9 15
f 3 15 16
f 3 16 11
f 3 11 7
f 4 7 12
f 4 12 8
f 6 10 9
f 7 11 12
f 8 12 16
f 8 16 15
f 8 15 17
f 8 17 13
f 9 10 14
f 9 14 18
f 9 18 15
f 11 16 12
f 13 17 18
f 15 18 17

