# https://github.com/mikedh/trimesh
v 2.21608239 -5.40055931 24.54809359
v 3.48552759 -5.40055931 24.51169825
v 2.21608239 -5.40055931 26.38871258
v 2.21608239 -3.15249115 22.85002357
v 4.38599656 -5.40055931 24.48705620
v 7.54902135 -5.40055931 26.38871258
v 2.21608239 13.70615363 26.38871258
v 6.17423053 -3.03092301 22.98574856
v 4.48551918 -5.40055931 24.48516002
v 2.21608239 0.50015301 22.51602075
v 7.26474668 -5.40055931 25.46518034
v 7.22186710 -3.49849164 23.66323209
v 7.45638083 -3.49849164 24.49994570
v 7.59401838 -2.49976516 25.49968025
v 7.61625240 -2.49976516 26.38871258
v 3.18907644 13.70615363 26.38871258
v 2.21608239 13.70615363 25.91216078
v 7.08793471 -4.06705439 23.86833540
v 6.48497487 -0.32837801 22.75486550
v 7.18375142 -0.27414002 22.82158992
v 5.48498253 -5.40055931 24.63984078
v 2.21608239 1.30063016 22.72036558
v 4.40452467 1.53628457 22.79808483
v 5.48498253 1.25574358 22.79164007
v 5.48498253 0.50015301 22.65364116
v 6.84389169 -5.40055931 25.06596929
v 7.32774208 -0.56403242 23.44789317
v 7.57443155 -0.49857274 24.49994570
v 7.61466394 -0.49857274 25.49968025
v 7.62419249 -0.38822666 26.38871258
v 7.04929004 7.04049915 25.91860554
v 7.01858620 6.04364350 24.98104683
v 7.12181474 4.10229973 23.83611014
v 7.22663100 6.60846606 26.38871258
v 7.04929004 7.04049915 26.08693427
v 6.48497487 3.50007191 23.38761351
v 6.44897665 -5.40055931 24.83357003
v 6.56385193 0.58805607 22.73249736
v 7.18375142 0.31312592 22.82158992
v 7.33356546 0.58805607 23.41604716
v 7.58396010 0.50015301 24.49994570
v 7.61731113 0.50015301 25.49968025
v 7.62419249 0.50015301 26.38871258
v 7.23880674 6.57854155 26.38871258
v 7.52837579 5.60786985 26.38871258
v 7.17157568 6.42517954 25.55124050
v 7.22768973 3.50007191 23.66740292
v 7.50667150 3.50007191 24.49994570
v 7.59931202 2.50134580 25.49968025
v 7.61678140 2.50134580 26.38871258
v 7.53896306 5.50687537 26.38871258
f 1 2 5
f 1 5 9
f 1 9 21
f 1 21 37
f 1 37 26
f 1 26 11
f 1 11 6
f 1 6 3
f 1 3 7
f 1 7 17
f 1 17 22
f 1 22 10
f 1 10 4
f 1 4 2
f 2 4 5
f 3 6 15
f 3 15 30
f 3 30 43
f 3 43 50
f 3 50 51
f 3 51 45
f 3 45 44
f 3 44 34
f 3 34 16
f 3 16 7
f 4 8 9
f 4 9 5
f 4 10 8
f 6 11 12
f 6 12 13
f 6 13 14
f 6 14 15
f 7 16 17
f 8 12 18
f 8 18 9
f 8 10 19
f 8 19 20
f 8 20 12
f 9 18 21
f 10 22 23
f 10 23 24
f 10 24 25
f 10 25 19
f 11 26 18
f 11 18 12
f 12 20 13
f 13 20 27
f 13 27 28
f 13 28 14
f 14 28 29
f 14 29 15
f 15 29 30
f 16 31 32
f 16 32 33
f 16 33 17
f 16 34 35
f 16 35 31
f 17 33 36
f 17 36 23
f 17 23 22
f 18 26 37
f 18 37 21
f 19 25 38
f 19 38 20
f 20 38 39
f 20 39 40
f 20 40 27
f 23 36 24
f 24 38 25
f 24 36 38
f 27 40 28
f 28 40 41
f 28 41 29
f 29 41 42
f 29 42 30
f 30 42 43
f 31 35 34
f 31 34 44
f 31 44 45
f 31 45 46
f 31 46 32
f 32 46 33
f 33 46 47
f 33 47 36
f 36 47 39
f 36 39 38
f 39 47 48
f 39 48 40
f 40 48 41
f 41 48 49
f 41 49 42
f 42 49 50
f 42 50 43
f 45 51 48
f 45 48 46
f 46 48 47
f 48 51 49
f 49 51 50

