# https://github.com/mikedh/trimesh
v 7.51286219 -25.19665062 35.80591565
v 7.50580723 -25.19665062 35.80902553
v 7.51286219 -27.04620659 35.80591565
v 7.51286219 -25.19665062 28.35668659
v 2.19043638 -25.19665062 38.13457823
v 2.19631488 -25.48564970 38.13457823
v 7.50580723 -27.05001533 35.80902553
v 7.51286219 -27.05001533 28.30227873
v 7.51286219 -25.19900799 28.19346300
v 7.50580723 -25.19665062 28.19190806
v -4.49816068 -25.19665062 38.13457823
v 2.19631488 -27.05001533 38.13457823
v 7.51286219 -27.05001533 28.19346300
v 1.69546376 -26.49995685 22.25522062
v 1.68605815 -25.50034523 22.25522062
v 1.65784131 -25.38713813 22.25522062
v 1.60963717 -25.19665062 22.25522062
v -3.47764683 -27.05001533 38.13457823
v -4.49816068 -25.19665062 35.80902553
v 1.69546376 -27.05001533 22.25522062
v -3.71984248 -25.19665062 22.25522062
v -3.47764683 -27.05001533 22.95164278
v -4.49698498 -25.19665062 30.49880600
v -3.47529543 -27.05001533 22.25522062
v -4.21951790 -25.19665062 22.79463744
v -4.49228217 -25.19665062 24.50149319
v -4.44290233 -25.19665062 23.50194117
v -4.32885890 -25.19665062 23.06667677
f 1 2 7
f 1 7 3
f 1 3 8
f 1 8 13
f 1 13 9
f 1 9 4
f 1 4 10
f 1 10 17
f 1 17 21
f 1 21 25
f 1 25 28
f 1 28 27
f 1 27 26
f 1 26 23
f 1 23 19
f 1 19 11
f 1 11 5
f 1 5 2
f 2 5 6
f 2 6 12
f 2 12 7
f 3 7 8
f 4 9 10
f 5 11 18
f 5 18 12
f 5 12 6
f 7 12 18
f 7 18 22
f 7 22 24
f 7 24 20
f 7 20 13
f 7 13 8
f 9 13 20
f 9 20 14
f 9 14 15
f 9 15 16
f 9 16 17
f 9 17 10
f 11 19 22
f 11 22 18
f 14 20 24
f 14 24 21
f 14 21 17
f 14 17 16
f 14 16 15
f 19 23 22
f 21 24 25
f 22 23 26
f 22 26 24
f 24 26 27
f 24 27 28
f 24 28 25

