# https://github.com/mikedh/trimesh
v -3.47500001 -37.27823198 23.21401572
v -3.47500001 -33.15295577 23.21401572
v 1.41884978 -37.27823198 23.21401572
v -3.47500001 -37.27823198 35.78277564
v -3.47500001 -29.03091013 23.22141042
v 1.41884978 -33.15295577 23.21401572
v 10.27893866 -37.27823198 28.52597421
v -3.47500001 -33.15295577 35.80249584
v 7.60515998 -37.27823198 35.78277564
v -3.47500001 -29.03091013 35.80249584
v 1.41750346 -29.03091013 23.22141042
v 10.27893866 -29.03091013 28.52597421
v 10.27893866 -37.27823198 35.47342604
v 7.52707417 -33.15295577 35.80249584
v 7.52707417 -29.03091013 35.80249584
v 10.27893866 -29.03091013 35.47465837
v 10.27893866 -33.15295577 35.47465837
f 1 2 6
f 1 6 3
f 1 3 7
f 1 7 13
f 1 13 9
f 1 9 4
f 1 4 8
f 1 8 10
f 1 10 5
f 1 5 2
f 2 5 11
f 2 11 6
f 3 6 12
f 3 12 7
f 4 9 14
f 4 14 8
f 5 10 15
f 5 15 16
f 5 16 12
f 5 12 11
f 6 11 12
f 7 12 16
f 7 16 17
f 7 17 13
f 8 14 15
f 8 15 10
f 9 13 14
f 13 17 14
f 14 17 16
f 14 16 15

