# https://github.com/mikedh/trimesh
v 23.48450120 50.55000186 27.50048524
v 27.48347218 50.54790378 26.50074250
v 17.48604472 50.55000186 27.50048524
v 21.48676510 50.55000186 33.18689203
v 22.48388226 50.54790378 33.18689203
v 28.48408813 50.53638220 26.50074250
v 28.48408813 50.32369494 25.50015187
v 16.48542578 50.54790378 26.50074250
v 13.49581922 50.55000186 31.49945623
v 16.48542578 50.55000186 33.18689203
v 22.79701228 50.47980547 33.18689203
v 29.48470707 50.41170120 26.50074250
v 29.48470707 50.31007528 25.50015187
v 29.48470707 50.05024076 24.95152315
v 15.48655922 50.32369494 25.50015187
v 15.48655922 50.53428411 26.50074250
v 13.49581922 50.54790378 30.49971348
v 13.49581922 50.55000186 32.49919748
v 13.49581922 50.54895282 33.18689203
v 23.48450120 50.32998323 33.18689203
v 29.41473420 50.14453530 27.43180057
v 30.41535015 50.12358427 26.40661931
v 30.99088068 50.00623465 26.01147032
v 30.99088068 50.00623465 25.96822491
v 30.45383687 50.12148619 25.58155617
v 30.10047073 50.03347993 24.96763429
v 29.48470707 49.49914217 24.71409476
v 14.48594029 50.05024076 24.95152315
v 14.48594029 50.30797720 25.50015187
v 14.48594029 50.40436983 26.50074250
v 13.52030928 50.11834502 25.59257931
v 13.49581922 50.11310577 25.61123407
v 13.49581922 39.84654546 33.18689203
v 23.65768547 50.24511814 33.18689203
v 30.03574605 50.03662109 27.05191559
v 30.69524462 49.49914217 26.67626998
v 31.10983665 49.49914217 26.17682254
v 31.14132280 49.52114522 25.58155617
v 31.07834752 49.20159280 24.90997350
v 30.76696689 49.86793995 25.30172950
v 30.45383687 49.52114522 24.83196145
v 30.48357661 48.49962294 24.62760320
v 29.48470707 48.49962294 24.52500051
v 14.48594029 49.49914217 24.71409476
v 13.87717421 50.03347993 24.96763429
v 13.49581922 50.09633899 25.56968442
v 24.48686655 39.84654546 33.18689203
v 13.49581922 39.84654546 24.63608271
v 24.04078836 50.05652905 33.18689203
v 30.19493516 49.49914217 27.21133119
v 30.82819278 48.49962294 26.83653420
v 31.22354145 48.49962294 26.33623889
v 31.36523659 48.49962294 25.50015187
v 31.12557824 48.49962294 24.86503160
v 30.90341384 39.84654546 24.78277943
v 30.48357661 39.84654546 24.62760320
v 30.13720806 39.84654546 24.59198868
v 29.48470707 39.84654546 24.52500051
v 14.48594029 48.49962294 24.52500051
v 13.49581922 48.49962294 24.63608271
v 13.49581922 48.75945747 24.68780762
v 13.52030928 49.51171577 24.83535296
v 13.49581922 49.49809611 24.83874446
v 13.49581922 49.54000413 24.87605473
v 30.32788332 39.84654546 27.34361327
v 24.48686655 48.49962294 33.18689203
v 14.48594029 39.84654546 24.52500051
v 24.21572204 49.67306554 33.18689203
v 30.32788332 48.49962294 27.34361327
v 24.29269249 49.49914217 33.18689203
v 30.82819278 39.84654546 26.83653420
v 31.22354145 39.84654546 26.33623889
v 31.36523659 39.84654546 25.50015187
v 31.12557824 39.84654546 24.86503160
v 24.42739005 48.81184101 33.18689203
f 1 2 8
f 1 8 3
f 1 3 9
f 1 9 18
f 1 18 10
f 1 10 4
f 1 4 2
f 2 4 5
f 2 5 6
f 2 6 7
f 2 7 15
f 2 15 8
f 3 8 9
f 4 10 19
f 4 19 33
f 4 33 47
f 4 47 66
f 4 66 75
f 4 75 70
f 4 70 68
f 4 68 49
f 4 49 34
f 4 34 20
f 4 20 11
f 4 11 5
f 5 11 12
f 5 12 6
f 6 12 13
f 6 13 7
f 7 13 14
f 7 14 28
f 7 28 15
f 8 15 16
f 8 16 17
f 8 17 9
f 9 17 32
f 9 32 46
f 9 46 64
f 9 64 63
f 9 63 61
f 9 61 60
f 9 60 48
f 9 48 33
f 9 33 19
f 9 19 18
f 10 18 19
f 11 20 12
f 12 20 21
f 12 21 22
f 12 22 23
f 12 23 24
f 12 24 25
f 12 25 13
f 13 25 26
f 13 26 14
f 14 26 27
f 14 27 44
f 14 44 28
f 15 28 29
f 15 29 16
f 16 29 30
f 16 30 17
f 17 30 31
f 17 31 32
f 20 34 35
f 20 35 21
f 21 35 22
f 22 35 23
f 23 35 36
f 23 36 37
f 23 37 38
f 23 38 24
f 24 38 39
f 24 39 40
f 24 40 25
f 25 40 26
f 26 40 39
f 26 39 41
f 26 41 27
f 27 41 42
f 27 42 43
f 27 43 59
f 27 59 44
f 28 44 45
f 28 45 29
f 29 45 31
f 29 31 30
f 31 46 32
f 31 45 46
f 33 48 67
f 33 67 58
f 33 58 57
f 33 57 56
f 33 56 55
f 33 55 74
f 33 74 73
f 33 73 72
f 33 72 71
f 33 71 65
f 33 65 47
f 34 49 35
f 35 50 36
f 35 49 50
f 36 50 51
f 36 51 37
f 37 51 52
f 37 52 53
f 37 53 38
f 38 53 39
f 39 53 54
f 39 54 42
f 39 42 41
f 42 54 55
f 42 55 56
f 42 56 57
f 42 57 43
f 43 57 58
f 43 58 67
f 43 67 59
f 44 59 60
f 44 60 61
f 44 61 62
f 44 62 45
f 45 62 63
f 45 63 64
f 45 64 46
f 47 65 69
f 47 69 66
f 48 60 59
f 48 59 67
f 49 68 50
f 50 69 51
f 50 68 70
f 50 70 69
f 51 69 65
f 51 65 71
f 51 71 72
f 51 72 52
f 52 72 73
f 52 73 53
f 53 73 74
f 53 74 54
f 54 74 55
f 61 63 62
f 66 69 75
f 69 70 75

