# https://github.com/mikedh/trimesh
v 8.75868271 -5.40055931 35.09955144
v 8.75868271 -5.40443510 35.11824942
v 8.75868271 -5.40055931 32.66287780
v 7.24998782 -5.40055931 38.52318263
v 8.75868271 -9.22374725 35.50889230
v 8.75868271 -25.19665062 32.66287780
v -26.64347892 -5.40055931 32.66287780
v 7.01012681 -5.96250817 39.01398963
v 8.75868271 -9.50084627 35.52358186
v 6.67292992 -5.40055931 38.76558131
v 8.75868271 -25.19665062 35.52825636
v -4.29812488 -25.19665062 32.66287780
v -26.74776916 -5.40249720 32.66287780
v -26.65738468 -5.40055931 33.50025451
v 7.01012681 -6.03614300 39.01398963
v 8.75868271 -10.22362858 35.52825636
v 6.54083262 -5.40055931 38.81833440
v 1.59760038 -5.40055931 39.48476350
v 1.36121507 -25.19665062 39.48476350
v -4.49974765 -25.19665062 33.50025451
v -24.51253836 -25.04938245 32.66287780
v -26.47314374 -23.49917889 32.66287780
v -26.47314374 -23.49917889 38.49981016
v -26.45923798 -23.49917889 39.48476350
v -26.47314374 -20.51503807 39.48476350
v -26.47314374 -5.40249720 39.48476350
v -26.47314374 -5.40055931 38.59930670
v -25.78832214 -5.40055931 39.48476350
v -4.49974765 -25.19665062 39.48476350
v -24.52644114 -25.04938245 39.48476350
v -25.33293371 -25.02419055 32.66287780
v -26.28194993 -24.31303561 32.66287780
v -26.24371057 -24.46999252 39.48476350
v -25.33293371 -25.02419055 39.48476350
v -25.82656150 -24.97187108 39.48476350
v -25.83351438 -24.96993244 32.66287780
v -26.24371057 -24.46999252 32.66287780
v -26.17766266 -24.55137819 32.66287780
v -25.84046726 -24.96218234 39.48476350
v -25.83351438 -24.96993244 39.48476350
f 1 2 5
f 1 5 9
f 1 9 16
f 1 16 11
f 1 11 6
f 1 6 3
f 1 3 7
f 1 7 14
f 1 14 27
f 1 27 28
f 1 28 18
f 1 18 17
f 1 17 10
f 1 10 4
f 1 4 2
f 2 4 5
f 3 6 12
f 3 12 21
f 3 21 31
f 3 31 36
f 3 36 38
f 3 38 37
f 3 37 32
f 3 32 22
f 3 22 13
f 3 13 7
f 4 8 9
f 4 9 5
f 4 10 8
f 6 11 19
f 6 19 29
f 6 29 20
f 6 20 12
f 7 13 14
f 8 15 11
f 8 11 16
f 8 16 9
f 8 10 17
f 8 17 18
f 8 18 15
f 11 15 19
f 12 20 21
f 13 22 23
f 13 23 24
f 13 24 25
f 13 25 26
f 13 26 27
f 13 27 14
f 15 18 19
f 18 28 26
f 18 26 25
f 18 25 24
f 18 24 33
f 18 33 39
f 18 39 40
f 18 40 35
f 18 35 34
f 18 34 30
f 18 30 29
f 18 29 19
f 20 29 30
f 20 30 21
f 21 30 31
f 22 32 23
f 23 32 33
f 23 33 24
f 26 28 27
f 30 34 31
f 31 35 36
f 31 34 35
f 32 37 33
f 33 38 39
f 33 37 38
f 35 40 36
f 36 39 38
f 36 40 39

