# https://github.com/mikedh/trimesh
v -3.55627542 39.84654546 45.90965843
v -3.47291981 25.49578547 45.90965843
v -3.47458725 -25.19665360 45.91120815
v -3.55627542 39.84654546 46.50047755
v 13.47333188 39.84654546 45.90965843
v -3.41790472 24.49619919 45.90965843
v 13.44499136 -25.19665360 45.91120815
v -3.47458725 -25.19665360 47.49965107
v -3.06447600 22.65619487 45.90965843
v -2.51265993 22.52885848 45.90965843
v -1.51905795 22.49702364 45.90965843
v -3.53126903 39.84654546 47.49990737
v 13.47499932 39.84654546 46.50047755
v 13.47499932 -24.49630350 46.50021827
v 13.47333188 25.08831024 45.90965843
v 13.47499932 -25.19665360 46.50021827
v 11.48279305 22.49702364 45.90965843
v 12.45639021 22.51612544 45.90965843
v 12.96819593 22.59889245 45.90965843
v 13.03988094 22.65619487 45.90965843
v 13.17491825 23.19100499 45.90965843
v 13.37663974 24.08235669 45.90965843
v -3.24285780 -25.19665360 48.25148320
v -3.25952848 39.84654546 48.25561976
v 13.47499932 39.84654546 47.49990737
v 13.47499932 -25.19665360 47.49965107
v -2.51432736 -25.19665360 48.52647519
v -2.51265993 39.84654546 48.53061175
v 13.22826589 39.84654546 48.26001263
v 13.25327302 -5.39591312 48.18428791
v 13.47499932 -5.39591312 47.49990737
v 13.30328579 -25.19665360 48.02921748
v -2.20924472 -25.19665360 48.53371418
v -1.51238968 39.84654546 48.54973590
v -1.51238968 -25.19665360 48.54999518
v -1.51238968 -5.39591312 48.54999518
v 12.48306478 39.84654546 48.53500462
v 12.55808468 -5.39591312 48.50761032
v 13.22826589 -5.39591312 48.26001263
v 13.22826589 -25.19665360 48.25975335
v 11.48279305 39.84654546 48.54973590
v 11.48279305 -25.19665360 48.54999518
v 11.48279305 -5.39591312 48.54999518
v 12.48306478 -25.19665360 48.53500462
f 1 2 3
f 1 3 8
f 1 8 4
f 1 4 12
f 1 12 24
f 1 24 28
f 1 28 34
f 1 34 41
f 1 41 37
f 1 37 29
f 1 29 25
f 1 25 13
f 1 13 5
f 1 5 15
f 1 15 22
f 1 22 21
f 1 21 20
f 1 20 19
f 1 19 18
f 1 18 17
f 1 17 11
f 1 11 10
f 1 10 9
f 1 9 6
f 1 6 2
f 2 6 3
f 3 7 16
f 3 16 26
f 3 26 32
f 3 32 40
f 3 40 44
f 3 44 42
f 3 42 35
f 3 35 33
f 3 33 27
f 3 27 23
f 3 23 8
f 3 6 9
f 3 9 10
f 3 10 11
f 3 11 17
f 3 17 7
f 4 8 12
f 5 13 14
f 5 14 16
f 5 16 15
f 7 17 18
f 7 18 19
f 7 19 20
f 7 20 21
f 7 21 22
f 7 22 15
f 7 15 16
f 8 23 12
f 12 23 24
f 13 25 31
f 13 31 26
f 13 26 16
f 13 16 14
f 23 27 24
f 24 27 28
f 25 29 30
f 25 30 31
f 26 31 30
f 26 30 32
f 27 33 28
f 28 33 35
f 28 35 36
f 28 36 34
f 29 37 38
f 29 38 39
f 29 39 30
f 30 39 40
f 30 40 32
f 34 36 43
f 34 43 41
f 35 42 43
f 35 43 36
f 37 41 43
f 37 43 42
f 37 42 44
f 37 44 38
f 38 44 40
f 38 40 39

