# https://github.com/mikedh/trimesh
v 3.81502951 21.90458477 26.38871258
v 5.51345120 21.23207450 26.38871258
v 6.48500170 25.20377934 25.17081311
v 3.81502951 24.42902178 25.30248946
v 3.81502951 19.34126616 26.38871258
v 5.53233097 21.19175196 26.38871258
v 7.08915363 25.14905632 25.10694301
v 6.48500170 28.18183601 23.21447393
v 4.48526065 27.14642882 24.09727609
v 3.81502951 27.16082931 24.10777545
v 3.81502951 16.73762500 24.53911489
v 6.48500170 14.78777528 23.18078911
v 6.48500170 17.68950969 25.16775018
v 7.10236947 17.82631576 25.11744237
v 4.29835091 19.55727637 26.38871258
v 5.59501122 20.70356905 26.38871258
v 6.24032090 21.12118900 26.07855088
v 6.53824280 21.47256434 25.86594334
v 7.20054428 21.49992585 25.44291502
v 7.28776823 24.49958622 24.49974304
v 7.64157469 27.49924362 21.91958016
v 7.10387970 28.13431323 23.13660493
v 6.48500170 28.61385643 21.91958016
v 4.50867112 28.41080725 21.91958016
v 5.48550854 28.08967233 23.13004321
v 3.81502951 27.31635571 23.89997950
v 3.81502951 13.90501410 22.14399910
v 4.48526065 13.90213370 22.14793636
v 7.10236947 14.86553848 23.13266805
v 6.24032090 20.91957927 26.07855088
v 5.59501122 20.64596713 26.38871258
v 4.47279955 19.64223981 26.38871258
v 7.36215482 15.50060809 22.50009513
v 7.42408032 18.50026697 23.50013739
v 7.42030437 21.49992585 24.49974304
v 7.44560282 28.20919752 21.91958016
v 7.67216007 25.28010011 21.91958016
v 7.38669853 28.40360701 21.91958016
v 7.19563509 28.44969034 21.91958016
v 3.81502951 28.32296193 21.91958016
v 3.81502951 27.60292888 23.47388974
v 3.81502951 13.90645504 21.91958016
v 4.46222718 13.90501410 21.91958016
v 5.08412565 13.96837682 21.91958016
v 5.08412565 13.96837682 22.06613047
v 6.48500170 14.50552195 22.50009513
v 7.16731544 14.80217576 22.50009513
v 7.26473476 15.20683467 21.91958016
v 7.34667326 15.50060809 21.91958016
v 7.39840413 16.08095467 21.91958016
v 7.64535065 24.21877235 21.91958016
v 6.48500170 14.52424228 21.91958016
v 6.77121873 14.64808881 21.91958016
v 7.13710780 14.82521594 21.91958016
f 1 2 3
f 1 3 4
f 1 4 10
f 1 10 26
f 1 26 41
f 1 41 40
f 1 40 42
f 1 42 27
f 1 27 11
f 1 11 5
f 1 5 15
f 1 15 32
f 1 32 31
f 1 31 16
f 1 16 6
f 1 6 2
f 2 6 7
f 2 7 3
f 3 7 8
f 3 8 9
f 3 9 10
f 3 10 4
f 5 11 12
f 5 12 13
f 5 13 14
f 5 14 15
f 6 16 17
f 6 17 7
f 7 17 18
f 7 18 19
f 7 19 20
f 7 20 21
f 7 21 22
f 7 22 8
f 8 22 23
f 8 23 24
f 8 24 25
f 8 25 26
f 8 26 10
f 8 10 9
f 11 27 12
f 12 27 28
f 12 28 29
f 12 29 13
f 13 29 14
f 14 30 31
f 14 31 32
f 14 32 15
f 14 29 33
f 14 33 34
f 14 34 35
f 14 35 19
f 14 19 30
f 16 31 30
f 16 30 17
f 17 30 19
f 17 19 18
f 19 35 20
f 20 35 21
f 21 36 22
f 21 35 37
f 21 37 51
f 21 51 50
f 21 50 49
f 21 49 48
f 21 48 54
f 21 54 53
f 21 53 52
f 21 52 44
f 21 44 43
f 21 43 42
f 21 42 40
f 21 40 24
f 21 24 23
f 21 23 39
f 21 39 38
f 21 38 36
f 22 36 38
f 22 38 39
f 22 39 23
f 24 40 25
f 25 40 41
f 25 41 26
f 27 42 28
f 28 42 43
f 28 43 44
f 28 44 45
f 28 45 29
f 29 45 46
f 29 46 47
f 29 47 33
f 33 47 48
f 33 48 49
f 33 49 50
f 33 50 34
f 34 50 51
f 34 51 37
f 34 37 35
f 44 52 46
f 44 46 45
f 46 52 53
f 46 53 47
f 47 53 54
f 47 54 48

