# https://github.com/mikedh/trimesh
v -27.06939174 -0.49975720 36.91442655
v -27.51454352 -0.49975720 36.68866181
v -28.25529887 -1.49956634 36.12039204
v -27.06939174 -1.49956634 36.70506354
v -27.06939174 0.49905408 36.90381394
v -27.51454352 0.49905408 36.69252122
v -28.44444547 0.49905408 36.24099173
v -28.41239900 -0.49975720 36.22844941
v -28.70045066 -1.49956634 35.50002180
v -28.36746003 -2.42653508 35.47976067
v -28.08622417 -2.04537026 36.02584110
v -27.06939174 -2.46544969 36.36738202
v -27.06939174 1.19652566 36.78610656
v -28.24995829 1.49986099 36.11942644
v -28.68811248 1.49986099 35.50002180
v -28.88333875 0.49905408 35.50002180
v -28.84945050 -0.49975720 35.50002180
v -28.84963229 -2.49937539 34.49951808
v -28.23025000 -3.14196738 35.13339475
v -27.06939174 -3.32955606 35.92453545
v -27.06939174 1.49986099 36.71181675
v -27.06939174 2.19733253 36.47640499
v -27.06939174 2.46374880 36.36062732
v -28.03631417 2.01373495 36.00750967
v -28.24866785 3.12829265 35.13339475
v -28.34167801 2.40787125 35.47976067
v -28.85552720 2.49967013 34.49951808
v -28.90470108 1.49986099 34.49951808
v -28.90783331 0.49905408 34.49951808
v -28.91354344 -1.49956634 34.49951808
v -28.91096255 -2.49937539 33.49997846
v -28.85331586 -3.49918434 32.49947623
v -28.66766807 -3.49918434 33.49997846
v -28.34112369 -3.48521523 34.41365005
v -28.04515354 -4.01106284 34.02386806
v -27.06939174 -4.37426710 34.44548790
v -27.06939174 3.34082663 35.66307345
v -27.06939174 3.50646364 35.52028293
v -27.06939174 4.24484598 34.63169598
v -28.10519634 4.02732234 34.04509478
v -28.38937966 3.47652941 34.42715796
v -28.91335866 2.49967013 33.49997846
v -28.72420909 3.49947946 33.49997846
v -28.85626332 3.49947946 32.49947623
v -28.92403983 1.49986099 33.49997846
v -28.92238282 -1.49956634 33.49997846
v -28.95056094 1.49986099 31.50090221
v -28.92091058 -2.49937539 30.50039849
v -28.94024635 -1.49956634 30.50039849
v -28.85644809 -3.49918434 31.50090221
v -28.41571600 -4.23457304 32.49947623
v -28.22546076 -4.10984647 33.49997846
v -27.06939174 -4.48103328 34.18402590
v -27.06939174 4.35959473 34.44838320
v -27.06939174 5.09298741 32.40492528
v -28.27518896 4.12909961 33.49997846
v -28.92367326 2.49967013 32.49947623
v -28.87246983 3.49947946 31.50090221
v -28.40945452 4.22688485 32.49947623
v -28.42658194 4.23885869 31.50090221
v -28.93048607 2.49967013 31.50090221
v -28.94374812 1.49986099 30.50039849
v -28.82568908 -2.49937539 29.50086036
v -28.92625116 -1.49956634 29.50086036
v -28.92974996 -0.49975720 29.50086036
v -28.93159174 0.49905408 29.50086036
v -28.69381963 -3.49918434 30.50039849
v -28.41903002 -4.22958413 31.50090221
v -27.06939174 -5.10067486 31.59834696
v -27.06939174 -4.79733981 33.10633855
v -27.06939174 -4.70953239 33.49997846
v -27.06939174 4.81359930 30.87377875
v -28.68866382 3.49947946 30.50039849
v -28.84374037 2.49967013 29.50086036
v -28.91612134 2.49967013 30.50039849
v -28.24240638 4.12610596 30.50039849
v -28.91612134 1.49986099 29.50086036
v -28.84981707 -0.49975720 28.50035664
v -28.68553160 -1.49956634 28.50035664
v -28.33338998 -2.42254380 28.53605390
v -28.19028504 -3.09307439 28.89303244
v -28.33559833 -3.45627864 29.58093928
v -28.86160390 0.49905408 28.50035664
v -28.25180008 -4.11383775 30.50039849
v -27.06939174 -4.70254746 30.50039849
v -28.07572778 -4.02203905 29.96686187
v -27.06939174 4.73577045 30.50039849
v -28.33725534 3.47154050 29.59251601
v -28.34756994 2.41485599 28.52640688
v -28.68498025 1.49986099 28.50035664
v -28.23080432 3.11931227 28.87663071
v -27.06939174 4.49529676 29.81924634
v -27.06939174 4.37755512 29.56260786
v -28.03889207 4.00836432 29.98712151
v -28.40577095 -0.49975720 27.77289313
v -28.41847868 0.49905408 27.76324462
v -28.23982847 -1.49956634 27.88866931
v -28.07204421 -2.03738770 27.97936160
v -27.06939174 -3.32955606 28.34984731
v -27.06939174 -3.49319779 28.49746209
v -27.06939174 -4.23257777 29.37543567
v -27.06939174 -2.45048258 27.64746844
v -27.06939174 -4.35730434 29.55971256
v -28.05657381 2.02570860 27.98514996
v -28.24074937 1.49986099 27.88288095
v -27.06939174 3.49448980 28.48877842
v -27.06939174 2.64036182 27.74491394
v -27.51454352 -0.49975720 27.29241960
v -27.06939174 -1.21818286 27.19208030
v -27.06939174 1.49986099 27.30592752
v -27.51454352 0.49905408 27.32715275
v -27.06939174 -0.35906551 27.06376105
v -27.06939174 -0.49975720 27.05893754
v -27.06939174 -1.49956634 27.26154585
v -27.06939174 -2.17508611 27.52397345
v -27.06939174 2.46075534 27.63589097
v -27.06939174 0.49905408 27.11682563
f 1 2 3
f 1 3 4
f 1 4 12
f 1 12 20
f 1 20 36
f 1 36 53
f 1 53 71
f 1 71 70
f 1 70 69
f 1 69 85
f 1 85 103
f 1 103 101
f 1 101 100
f 1 100 99
f 1 99 102
f 1 102 115
f 1 115 114
f 1 114 109
f 1 109 113
f 1 113 112
f 1 112 117
f 1 117 110
f 1 110 116
f 1 116 107
f 1 107 106
f 1 106 93
f 1 93 92
f 1 92 87
f 1 87 72
f 1 72 55
f 1 55 54
f 1 54 39
f 1 39 38
f 1 38 37
f 1 37 23
f 1 23 22
f 1 22 21
f 1 21 13
f 1 13 5
f 1 5 6
f 1 6 7
f 1 7 2
f 2 8 3
f 2 7 8
f 3 8 9
f 3 9 10
f 3 10 11
f 3 11 4
f 4 11 12
f 5 13 6
f 6 13 7
f 7 13 14
f 7 14 15
f 7 15 16
f 7 16 17
f 7 17 8
f 8 17 9
f 9 18 10
f 9 17 18
f 10 18 19
f 10 19 11
f 11 19 20
f 11 20 12
f 13 21 14
f 14 21 22
f 14 22 23
f 14 23 24
f 14 24 25
f 14 25 26
f 14 26 15
f 15 26 27
f 15 27 16
f 16 27 28
f 16 28 29
f 16 29 30
f 16 30 17
f 17 30 18
f 18 30 31
f 18 31 32
f 18 32 33
f 18 33 34
f 18 34 19
f 19 34 35
f 19 35 36
f 19 36 20
f 23 37 25
f 23 25 24
f 25 37 38
f 25 38 39
f 25 39 40
f 25 40 41
f 25 41 27
f 25 27 26
f 27 42 28
f 27 41 43
f 27 43 44
f 27 44 42
f 28 42 45
f 28 45 29
f 29 45 30
f 30 46 31
f 30 45 47
f 30 47 46
f 31 48 32
f 31 46 49
f 31 49 48
f 32 50 51
f 32 51 33
f 32 48 50
f 33 51 52
f 33 52 34
f 34 52 35
f 35 52 53
f 35 53 36
f 39 54 40
f 40 54 55
f 40 55 56
f 40 56 41
f 41 56 43
f 42 57 47
f 42 47 45
f 42 44 58
f 42 58 57
f 43 56 59
f 43 59 44
f 44 59 60
f 44 60 58
f 46 47 49
f 47 57 61
f 47 61 62
f 47 62 49
f 48 63 50
f 48 49 64
f 48 64 63
f 49 65 64
f 49 62 66
f 49 66 65
f 50 67 68
f 50 68 51
f 50 63 67
f 51 68 69
f 51 69 70
f 51 70 71
f 51 71 52
f 52 71 53
f 55 72 60
f 55 60 59
f 55 59 56
f 57 58 61
f 58 60 73
f 58 73 74
f 58 74 75
f 58 75 61
f 60 72 76
f 60 76 73
f 61 75 62
f 62 75 77
f 62 77 66
f 63 64 78
f 63 78 79
f 63 79 80
f 63 80 81
f 63 81 82
f 63 82 67
f 64 65 83
f 64 83 78
f 65 66 83
f 66 77 83
f 67 82 84
f 67 84 68
f 68 84 69
f 69 84 86
f 69 86 85
f 72 87 76
f 73 76 88
f 73 88 74
f 74 89 90
f 74 90 83
f 74 83 77
f 74 77 75
f 74 88 91
f 74 91 89
f 76 87 92
f 76 92 93
f 76 93 94
f 76 94 88
f 78 95 79
f 78 83 96
f 78 96 95
f 79 97 80
f 79 95 97
f 80 97 98
f 80 98 81
f 81 99 100
f 81 100 101
f 81 101 86
f 81 86 82
f 81 98 102
f 81 102 99
f 82 86 84
f 83 90 96
f 85 86 103
f 86 101 103
f 88 94 91
f 89 104 105
f 89 105 90
f 89 91 104
f 90 105 96
f 91 94 93
f 91 93 106
f 91 106 107
f 91 107 104
f 95 108 109
f 95 109 97
f 95 96 108
f 96 105 110
f 96 110 111
f 96 111 112
f 96 112 113
f 96 113 108
f 97 109 114
f 97 114 98
f 98 114 115
f 98 115 102
f 104 107 116
f 104 116 105
f 105 116 110
f 108 113 109
f 110 117 111
f 111 117 112

