# https://github.com/mikedh/trimesh
v -0.26127623 -23.18935362 41.50047666
v -0.36158089 -23.18935362 40.58154197
v -0.49180078 -23.18935362 42.29642299
v 12.48443675 -23.50418865 45.32287574
v 1.00044884 -23.98973752 40.58154197
v -4.52509883 -23.18935362 40.58154197
v 11.14880259 -23.98553986 42.97819949
v 11.48315221 -24.43470751 42.84407102
v -0.55339144 -23.18935362 42.46907100
v 11.48491054 -23.49159716 45.32287574
v 13.09506311 -23.70848378 45.32287574
v 11.81398067 -24.05690309 43.15873618
v -1.51420290 -23.18935362 42.78513091
v 1.02508533 -24.03171712 40.58154197
v 12.10785571 -24.72435658 42.92018623
v 11.48491054 -25.50095522 42.64218393
v -4.52509883 -25.13854371 40.58154197
v -4.52509883 -23.18935362 42.45189888
v -1.51420290 -23.49159716 45.32287574
v 13.34142426 -24.49067782 45.32287574
v 13.15313449 -24.44310283 44.48144804
v 13.02467294 -23.96735000 44.80261011
v 12.80998722 -24.07089529 44.13568711
v 12.45980212 -24.39692707 43.52074238
v -2.51372910 -23.18935362 42.77723925
v 1.19401922 -24.50047236 40.58154197
v 13.06162785 -24.73835027 43.88228366
v 12.67096818 -25.50095522 43.32303059
v 12.17120508 -25.50095522 42.87980702
v 11.48491054 -37.48294343 42.64218393
v 1.37527116 -25.58211299 40.58154197
v 1.37351171 -25.50095522 40.58154197
v 1.21513605 -24.58163162 40.58154197
v -3.47454056 -37.48294343 45.32287574
v -4.52509883 -25.06018141 41.07349835
v -3.47454056 -37.48294343 40.58154197
v -3.49389794 -23.18935362 42.64450553
v -4.52509883 -23.49999248 42.40734437
v -3.47454056 -25.50095522 45.32287574
v -3.39887239 -24.67818081 45.32287574
v -3.36719696 -24.50047236 45.32287574
v -3.18242535 -23.80223602 45.32287574
v -3.12611455 -23.67350178 45.32287574
v -2.51372910 -23.50558936 45.32287574
v 13.45052769 -25.50095522 45.32287574
v 13.34670524 -25.50095522 44.50001193
v 13.10210243 -25.50095522 43.82334057
v 13.10386077 -32.49872644 43.82009211
v 13.09682294 -37.48294343 43.80941691
v 12.67096818 -26.50003737 43.32256866
v 12.67096818 -37.48294343 43.31792545
v 12.17120508 -37.48294343 42.87980702
v 12.67096818 -27.50051725 43.32210374
v 1.37527116 -37.48294343 40.58154197
v 13.45052769 -37.48294343 45.32287574
v -4.52509883 -23.50698859 42.40456083
v -4.52509883 -24.14645618 42.13259350
v -4.52509883 -24.64599725 41.57334341
v 13.34846358 -32.49872644 44.50001193
v 13.10386077 -34.49968918 43.81916228
v 13.10386077 -37.48294343 43.81823543
v 13.34846358 -37.48294343 44.50001193
v 13.34494392 -37.48294343 44.48840987
f 1 2 6
f 1 6 18
f 1 18 37
f 1 37 25
f 1 25 13
f 1 13 9
f 1 9 3
f 1 3 4
f 1 4 2
f 2 5 14
f 2 14 26
f 2 26 33
f 2 33 32
f 2 32 31
f 2 31 54
f 2 54 36
f 2 36 17
f 2 17 6
f 2 4 7
f 2 7 8
f 2 8 5
f 3 9 4
f 4 10 19
f 4 19 44
f 4 44 43
f 4 43 42
f 4 42 41
f 4 41 40
f 4 40 39
f 4 39 34
f 4 34 55
f 4 55 45
f 4 45 20
f 4 20 11
f 4 11 12
f 4 12 7
f 4 9 13
f 4 13 10
f 5 8 15
f 5 15 16
f 5 16 14
f 6 17 35
f 6 35 58
f 6 58 57
f 6 57 56
f 6 56 38
f 6 38 18
f 7 12 8
f 8 12 15
f 10 13 19
f 11 20 21
f 11 21 22
f 11 22 23
f 11 23 12
f 12 24 15
f 12 23 24
f 13 25 19
f 14 16 26
f 15 24 27
f 15 27 28
f 15 28 29
f 15 29 16
f 16 29 52
f 16 52 30
f 16 30 54
f 16 54 31
f 16 31 32
f 16 32 33
f 16 33 26
f 17 34 35
f 17 36 34
f 18 38 34
f 18 34 39
f 18 39 40
f 18 40 41
f 18 41 42
f 18 42 43
f 18 43 44
f 18 44 37
f 19 25 44
f 20 45 46
f 20 46 21
f 21 46 27
f 21 27 23
f 21 23 22
f 23 27 24
f 25 37 44
f 27 47 28
f 27 46 47
f 28 47 48
f 28 48 49
f 28 49 50
f 28 50 29
f 29 51 52
f 29 50 53
f 29 53 51
f 30 52 51
f 30 51 49
f 30 49 61
f 30 61 63
f 30 63 62
f 30 62 55
f 30 55 34
f 30 34 36
f 30 36 54
f 34 38 56
f 34 56 57
f 34 57 58
f 34 58 35
f 45 55 62
f 45 62 59
f 45 59 46
f 46 59 48
f 46 48 47
f 48 60 49
f 48 59 60
f 49 53 50
f 49 60 61
f 49 51 53
f 59 62 63
f 59 63 60
f 60 63 61

