# https://github.com/mikedh/trimesh
v 8.04777737 -38.93688917 35.66322809
v 1.41590643 -38.93688917 40.77500737
v 8.04777737 -41.17777944 35.66322809
v 8.04777737 -38.93688917 28.33651116
v 1.41590643 -41.17777944 40.77500737
v -3.47637800 -38.93688917 40.77500737
v 8.04777737 -41.17777944 28.33651116
v 1.35808098 -38.93688917 23.49207959
v -4.25943290 -41.17777944 40.77500737
v -3.47637800 -38.93688917 23.49207959
v 1.35808098 -41.17777944 23.49207959
v -4.25943290 -41.17777944 23.49207959
f 1 2 5
f 1 5 3
f 1 3 7
f 1 7 4
f 1 4 8
f 1 8 10
f 1 10 6
f 1 6 2
f 2 6 9
f 2 9 5
f 3 5 9
f 3 9 12
f 3 12 11
f 3 11 7
f 4 7 11
f 4 11 8
f 6 10 12
f 6 12 9
f 8 11 12
f 8 12 10

