# https://github.com/mikedh/trimesh
v -5.52695696 11.94435358 36.35491467
v -5.36309597 11.85768247 36.35491467
v -3.55260414 11.28733754 39.47860187
v -5.52695696 12.53147274 36.72798312
v -5.52695696 31.05372190 36.35491467
v -3.96970478 11.29013300 36.35491467
v -5.52695696 14.50251937 37.00319713
v -5.52695696 13.92937899 36.98821402
v -5.52695696 13.50162029 36.97689956
v -5.52695696 12.77750432 36.80015093
v -5.52695696 12.56502271 36.74724734
v -3.95137076 11.28733754 36.35491467
v 1.39645557 11.28733754 39.47860187
v -3.55833364 39.84375000 39.47860187
v -5.52695696 30.43584526 36.74755430
v -3.55833364 39.84375000 36.35491467
v -5.52695696 28.49834859 37.00319713
v 6.17821659 11.28733754 36.35491467
v 1.39645557 39.84375000 39.47860187
v -5.52695696 29.67258990 36.96160948
v -5.52695696 29.49925065 36.97689956
v 6.17707069 39.84375000 36.35491467
v 6.17821659 11.50261462 36.35491467
f 1 2 3
f 1 3 4
f 1 4 11
f 1 11 10
f 1 10 9
f 1 9 8
f 1 8 7
f 1 7 17
f 1 17 21
f 1 21 20
f 1 20 15
f 1 15 5
f 1 5 16
f 1 16 22
f 1 22 23
f 1 23 18
f 1 18 12
f 1 12 6
f 1 6 2
f 2 6 3
f 3 7 8
f 3 8 9
f 3 9 10
f 3 10 11
f 3 11 4
f 3 6 12
f 3 12 18
f 3 18 13
f 3 13 19
f 3 19 14
f 3 14 7
f 5 15 14
f 5 14 16
f 7 14 17
f 13 18 23
f 13 23 19
f 14 19 22
f 14 22 16
f 14 15 20
f 14 20 21
f 14 21 17
f 19 23 22

