# https://github.com/mikedh/trimesh
v -3.47626791 -38.93631697 38.57557660
v 1.76772769 -38.93631697 38.57557660
v -3.47626791 -38.93631697 42.51700377
v -3.47490520 -29.03187871 38.56239951
v -3.47490520 -33.15266669 38.56239951
v 1.77181507 -37.27733493 38.57208824
v 3.48393167 -37.27733493 42.52165592
v 3.45259155 -38.93631697 42.51700377
v 1.78067232 -33.15266669 38.56239951
v -3.47490520 -37.27733493 42.52165592
v -3.47490520 -33.15266669 42.52165592
v -3.47490520 -29.03187871 42.51661634
v 1.78067232 -29.03187871 38.56239951
v 3.48393167 -33.15266669 42.52165592
v 3.45327328 -29.03187871 42.51661634
f 1 2 8
f 1 8 3
f 1 3 12
f 1 12 4
f 1 4 5
f 1 5 9
f 1 9 2
f 2 6 7
f 2 7 8
f 2 9 6
f 3 8 7
f 3 7 10
f 3 10 11
f 3 11 12
f 4 12 15
f 4 15 13
f 4 13 9
f 4 9 5
f 6 9 7
f 7 9 13
f 7 13 14
f 7 14 11
f 7 11 10
f 11 14 15
f 11 15 12
f 13 15 14

