# https://github.com/mikedh/trimesh
v 1.70874665 -37.27879524 35.80372816
v -3.47491880 -37.27879524 35.80372816
v 1.70874665 -38.93688321 35.80372816
v 1.70874665 -37.27879524 25.88356099
v -3.47694927 -38.93688321 35.80372816
v -3.47491880 -37.27879524 22.25138432
v 1.70874665 -38.93688321 25.36354175
v 1.70874665 -37.27944493 25.36354175
v 1.69707159 -37.27879524 22.25138432
v -3.47694927 -38.93688321 22.25138432
v 1.69707159 -38.93688321 22.25138432
f 1 2 5
f 1 5 3
f 1 3 7
f 1 7 8
f 1 8 4
f 1 4 9
f 1 9 6
f 1 6 2
f 2 6 10
f 2 10 5
f 3 5 10
f 3 10 11
f 3 11 7
f 4 8 9
f 6 9 11
f 6 11 10
f 7 11 9
f 7 9 8

