# https://github.com/mikedh/trimesh
v 13.49784578 -38.93591464 24.63654017
v 13.49028344 -38.93591464 24.63761529
v 13.49784578 -37.27877736 24.63654017
v 13.49784578 -38.93591464 35.61978078
v 13.48461057 -38.93591464 24.63869041
v 13.48461057 -29.03091311 24.63869041
v 13.49753137 -29.03091311 24.63761529
v 13.49784578 -37.27877736 34.10266376
v 13.49784578 -37.47949600 35.61978078
v 13.49753137 -36.49917841 35.61978078
v 10.27856911 -38.93591464 35.47355270
v 13.13104476 -38.93591464 24.77201557
v 13.18997289 -29.03091311 24.74943659
v 13.49753137 -29.03091311 35.61978078
v 10.27856911 -37.27877736 35.47355270
v 10.27856911 -38.93591464 28.52556443
v 12.85689021 -38.93591464 24.87631103
v 12.85657431 -37.27780879 24.87631103
v 12.85657431 -29.03091311 24.87631103
v 10.27951534 -29.03091311 35.47355270
v 10.27856911 -37.27877736 28.52556443
v 10.27951534 -29.03091311 28.52663881
f 1 2 3
f 1 3 8
f 1 8 9
f 1 9 4
f 1 4 11
f 1 11 16
f 1 16 17
f 1 17 12
f 1 12 5
f 1 5 2
f 2 5 6
f 2 6 3
f 3 7 14
f 3 14 8
f 3 6 7
f 4 9 14
f 4 14 10
f 4 10 11
f 5 12 13
f 5 13 6
f 6 13 19
f 6 19 22
f 6 22 20
f 6 20 14
f 6 14 7
f 8 14 9
f 10 14 15
f 10 15 11
f 11 15 21
f 11 21 16
f 12 17 18
f 12 18 13
f 13 18 19
f 14 20 15
f 15 20 22
f 15 22 21
f 16 21 19
f 16 19 18
f 16 18 17
f 19 21 22

