# https://github.com/mikedh/trimesh
v 29.82726986 -5.40055931 36.15650719
v 29.67664297 -25.19665062 36.00477463
v 29.77774735 -5.40055931 36.10672987
v 29.82314224 -5.40055931 36.16955167
v 29.83964975 -5.40443510 36.16955167
v 29.82726986 -25.19665062 36.15650719
v 29.32792897 -5.40055931 35.65668201
v 29.32792897 -25.19665062 35.65668201
v 14.09807498 -5.40055931 36.16955167
v 29.83964975 -25.19665062 36.16955167
v 28.81208355 -5.40055931 35.15651262
v 28.81208355 -25.19665062 35.15651262
v 9.48640699 -5.40055931 35.36626136
v 8.76215915 -9.22374725 35.50838119
v 8.76215915 -9.50084627 35.52279955
v 8.76215915 -10.22362858 35.52760518
v 14.09807498 -25.19665062 36.16955167
v 28.66145666 -25.19665062 35.04254109
v 28.76256104 -5.40055931 35.11909431
v 8.85088439 -5.40055931 35.15239394
v 8.78072972 -5.40055931 35.12870705
v 8.76215915 -5.40443510 35.11737770
v 8.76215915 -25.19665062 35.52760518
v 28.31274564 -25.19665062 34.78129989
v 28.31274564 -5.40055931 34.78129989
v 8.76215915 -5.40055931 35.09884065
v 8.76215915 -25.19665062 32.66287780
v 24.47690959 -25.19665062 32.66287780
v 24.47690959 -5.40055931 32.66287780
v 8.76215915 -5.40055931 32.66287780
f 1 2 3
f 1 3 7
f 1 7 11
f 1 11 19
f 1 19 25
f 1 25 29
f 1 29 30
f 1 30 26
f 1 26 21
f 1 21 20
f 1 20 13
f 1 13 9
f 1 9 4
f 1 4 5
f 1 5 10
f 1 10 6
f 1 6 2
f 2 7 3
f 2 6 10
f 2 10 17
f 2 17 23
f 2 23 27
f 2 27 28
f 2 28 24
f 2 24 18
f 2 18 12
f 2 12 8
f 2 8 7
f 4 9 17
f 4 17 10
f 4 10 5
f 7 8 12
f 7 12 11
f 9 13 14
f 9 14 15
f 9 15 16
f 9 16 23
f 9 23 17
f 11 12 18
f 11 18 19
f 13 20 14
f 14 20 21
f 14 21 22
f 14 22 26
f 14 26 30
f 14 30 27
f 14 27 23
f 14 23 16
f 14 16 15
f 18 24 25
f 18 25 19
f 21 26 22
f 24 28 29
f 24 29 25
f 27 30 29
f 27 29 28

