# https://github.com/mikedh/trimesh
v -3.42470338 -25.19665062 18.70923413
v -4.44366639 -25.19665062 23.49963298
v -5.50524150 -25.05196929 23.50752538
v -5.50524150 -25.05170405 23.49963298
v -5.50524150 -25.02640486 22.95953593
v -5.50524150 -24.63874221 22.45495728
v -5.50524150 -24.14276451 21.87539636
v -5.50524150 -23.50500226 21.59858270
v -5.50524150 -22.51225710 21.45200109
v -5.50524150 -22.50435054 21.45087345
v -3.41173490 -25.05117655 18.70923413
v 13.41783549 -25.19665062 18.70923413
v -4.49183588 -25.19665062 24.46763551
v -5.50524150 -25.05196929 24.46763551
v -2.60397424 -23.53557348 18.70923413
v -3.11530908 -23.68763387 18.70923413
v -3.36171319 -24.49985743 18.70923413
v -5.50524150 -22.50435054 24.46763551
v -2.51319413 -22.50435054 21.43452390
v -1.51460995 -23.51211905 18.70923413
v -1.67023358 -23.51396382 18.70923413
v -2.51319413 -23.52793068 18.70923413
v 13.37151821 -24.70857948 18.70923413
v 13.35855122 -25.19665062 19.19689959
v 1.35330851 -25.19665062 24.46763551
v -0.67720753 -22.50435054 24.46763551
v -1.51460995 -22.50435054 21.43001369
v 11.48365731 -23.51211905 18.70923413
v 13.36040194 -24.64427650 18.70923413
v 13.29370732 -25.19665062 19.50641236
v 1.27549688 -24.49985743 24.46763551
v 11.72820921 -25.19665062 21.24735041
v -0.45674075 -22.50435054 22.50513321
v 1.07355709 -23.88475984 24.46763551
v 12.10800405 -24.72755313 21.07934541
v 11.47809918 -24.43634421 21.15545532
v 11.80787380 -24.06080365 20.83523086
v 12.48409445 -23.52661341 18.70923413
v -0.73278737 -22.50435054 21.71584776
v 12.32106085 -23.52266014 18.70923413
v 13.33076055 -24.48641658 18.70923413
v 13.15105255 -24.43449944 19.52163464
v 13.08991457 -25.19665062 20.16264683
v 13.06582983 -24.72412735 20.12487388
v 12.14505727 -25.19665062 21.10358773
v -0.45674075 -22.50435054 22.49949536
v 12.46556784 -24.39259738 20.48005237
v 12.82313163 -25.19665062 20.46708575
v 12.82313163 -24.05737787 19.86891998
v 12.95652385 -23.67814630 18.70923413
v 13.13067372 -23.80649000 18.70923413
v 13.08620865 -23.72584790 18.70923413
f 1 2 3
f 1 3 4
f 1 4 5
f 1 5 6
f 1 6 7
f 1 7 8
f 1 8 9
f 1 9 10
f 1 10 11
f 1 11 17
f 1 17 16
f 1 16 15
f 1 15 22
f 1 22 21
f 1 21 20
f 1 20 28
f 1 28 40
f 1 40 38
f 1 38 50
f 1 50 52
f 1 52 51
f 1 51 41
f 1 41 29
f 1 29 23
f 1 23 12
f 1 12 24
f 1 24 30
f 1 30 43
f 1 43 48
f 1 48 45
f 1 45 32
f 1 32 25
f 1 25 13
f 1 13 2
f 2 13 3
f 3 14 18
f 3 18 10
f 3 10 9
f 3 9 8
f 3 8 7
f 3 7 6
f 3 6 5
f 3 5 4
f 3 13 14
f 10 15 16
f 10 16 17
f 10 17 11
f 10 18 26
f 10 26 33
f 10 33 46
f 10 46 39
f 10 39 27
f 10 27 19
f 10 19 20
f 10 20 21
f 10 21 22
f 10 22 15
f 12 23 24
f 13 25 31
f 13 31 34
f 13 34 26
f 13 26 18
f 13 18 14
f 19 27 20
f 20 27 28
f 23 29 24
f 24 29 30
f 25 32 31
f 26 34 35
f 26 35 36
f 26 36 37
f 26 37 38
f 26 38 33
f 27 39 38
f 27 38 40
f 27 40 28
f 29 41 42
f 29 42 30
f 30 42 44
f 30 44 43
f 31 32 35
f 31 35 34
f 32 45 35
f 33 38 46
f 35 47 37
f 35 37 36
f 35 45 48
f 35 48 44
f 35 44 47
f 37 47 49
f 37 49 50
f 37 50 38
f 38 39 46
f 41 51 42
f 42 51 49
f 42 49 44
f 43 44 48
f 44 49 47
f 49 51 52
f 49 52 50

