# https://github.com/mikedh/trimesh
v -2.65643245 43.49994314 48.54973740
v -2.65643245 42.50030666 48.54336566
v -2.65643245 45.24515699 48.54336566
v -5.76954002 45.24515699 48.54336566
v -5.51520860 44.50005943 48.54336566
v -4.51524058 43.49994314 48.54336566
v -7.51438954 43.49994314 48.51787869
v -2.65643245 41.49686741 48.51787869
v -2.65643245 45.24515699 13.55022603
v -6.51442151 45.24515699 48.53699391
v -6.76875330 45.24515699 48.51150694
v -8.51435756 43.49994314 48.40318731
v -8.51435756 42.50030666 48.29486768
v -2.65643245 40.39370352 48.47964823
v -2.65643245 40.48108402 48.48601997
v -2.65643245 43.45055468 13.55022603
v -2.67529958 45.24515699 -15.49815300
v -7.51438954 45.24515699 48.35858511
v -9.25395659 43.49994314 48.14194585
v -9.31810541 42.50030666 48.14831759
v -8.43511460 45.24515699 48.09097786
v -9.12037574 41.97413123 48.02088869
v -3.29188381 40.39370352 48.25663722
v -2.65643245 40.39370352 16.10526025
v -2.65643245 42.50030666 13.56934107
v -2.67529958 43.49994314 -15.49815300
v -2.80208810 45.24515699 -16.02700171
v -10.16260648 43.21406109 47.28814421
v -9.81771130 42.50030666 47.86796686
v -8.72416203 45.24515699 47.49841173
v -10.09996640 41.91619247 47.19894577
v -9.47810008 41.83926068 47.51752696
v -9.51432559 41.63695933 46.49806000
v -3.63074065 40.39370352 47.49841173
v -2.74322212 40.39370352 16.16897682
v -8.51435756 41.52536144 -14.49780723
v -6.51442151 41.52536144 -14.49780723
v -4.51524058 41.52583530 -14.49780723
v -3.51451800 41.57617445 -14.49780723
v -2.84963366 41.81314190 -14.49780723
v -2.67982805 42.50030666 -14.49780723
v -2.81340852 42.41672597 -15.58098566
v -2.90170768 42.69406070 -16.13532134
v -2.84510556 43.49994314 -16.20541051
v -2.84510556 45.24515699 -16.20541051
v -9.15886510 45.24515699 46.49806000
v -10.23732098 43.32091146 46.49806000
v -10.36561861 42.50030666 46.49806000
v -10.18977579 42.50030666 47.37097687
v -10.14222986 41.87440361 46.49806000
v -3.69564422 40.39370352 45.49771423
v -3.69413491 40.39370352 46.49806000
v -9.51432559 41.63695933 20.49533146
v -2.79605052 40.39370352 16.21357840
v -9.51432559 41.63791002 -14.49780723
v -8.51435756 41.72338913 -15.49815300
v -7.51438954 41.72196458 -15.49815300
v -3.17037812 40.39370352 16.65959433
v -3.21339558 40.39370352 16.71693928
v -3.52432912 40.39370352 17.42419316
v -3.54923383 40.39370352 17.49428130
v -6.51442151 41.72813665 -15.49815300
v -5.51520860 41.73668694 -15.49815300
v -4.51524058 41.74570811 -15.49815300
v -3.53414005 41.82548901 -15.58098566
v -2.90472629 41.87582817 -15.30063493
v -3.21339558 42.02779334 -15.96965602
v -3.53414005 42.41672597 -16.19266703
v -3.51451800 43.49994314 -16.47301776
v -3.34395746 45.24515699 -16.40930033
v -9.18376981 45.24515699 45.49771423
v -10.23732098 43.32138532 45.49771423
v -10.23807572 43.32091146 25.49708192
v -10.23883047 43.32043761 1.50142337
v -10.36637336 42.50030666 -8.49570579
v -10.14222986 41.87440361 25.49708192
v -3.69564422 40.39370352 45.38939460
v -9.51432559 41.63743319 -4.49430483
v -10.14147512 41.87535431 -14.49780723
v -10.09921240 41.91714317 -15.15408484
v -9.45470449 41.84068523 -15.49178126
v -3.67677691 40.39370352 18.39268496
v -3.68809733 40.39370352 18.49463136
v -3.68960682 40.39370352 19.39303483
v -9.08264112 41.97555578 -16.02062996
v -8.51435756 41.96083342 -16.03974519
v -7.51438954 41.95940886 -16.03974519
v -6.51442151 41.96510707 -16.03337345
v -5.51520860 41.97413123 -16.02700171
v -4.51524058 41.98267854 -16.01425822
v -3.87978941 41.99169971 -16.00788648
v -4.51524058 42.50030666 -16.28824317
v -4.51524058 43.49994314 -16.53673519
v -4.51524058 45.24515699 -16.54310693
v -3.51451800 45.24515699 -16.47301776
v -9.18376981 45.24515699 14.50597444
v -10.23883047 43.32043761 -9.49605454
v -10.36637336 42.50030666 -9.49605454
v -10.14222986 41.87487747 14.50597444
v -10.14147512 41.87487747 -0.49927710
v -10.36561861 42.50030666 -14.49780723
v -10.17241741 42.55111967 -15.49178126
v -10.04336503 42.91773332 -16.02700171
v -9.74903476 42.25193982 -15.82311189
v -9.45470449 42.55111967 -16.12894960
v -8.51435756 42.50030666 -16.29461491
v -7.51438954 42.50030666 -16.30735840
v -6.51442151 42.50030666 -16.30098666
v -6.51442151 43.49994314 -16.53673519
v -6.51442151 45.24515699 -16.53673519
v -9.18301507 45.24515699 -13.49745550
v -10.23883047 43.31996077 -14.49780723
v -10.14826708 43.19126825 -15.49815300
v -10.04336503 43.04215218 -16.02700171
v -8.51435756 43.49994314 -16.39655684
v -7.51438954 43.49994314 -16.52399170
v -7.51438954 45.24515699 -16.37106987
v -9.17546837 45.24515699 -13.94984329
v -9.16188371 45.24515699 -14.49780723
v -8.72491677 45.24515699 -15.49815300
v -8.71284160 45.24515699 -15.52363997
v -8.43586934 45.24515699 -16.10346262
v -8.15663322 45.24515699 -16.18629528
f 1 2 8
f 1 8 15
f 1 15 14
f 1 14 24
f 1 24 25
f 1 25 16
f 1 16 9
f 1 9 3
f 1 3 4
f 1 4 5
f 1 5 6
f 1 6 2
f 2 6 7
f 2 7 8
f 3 9 17
f 3 17 27
f 3 27 45
f 3 45 70
f 3 70 95
f 3 95 94
f 3 94 110
f 3 110 117
f 3 117 123
f 3 123 122
f 3 122 121
f 3 121 120
f 3 120 119
f 3 119 118
f 3 118 111
f 3 111 96
f 3 96 71
f 3 71 46
f 3 46 30
f 3 30 21
f 3 21 18
f 3 18 11
f 3 11 10
f 3 10 4
f 4 10 5
f 5 10 7
f 5 7 6
f 7 10 11
f 7 11 12
f 7 12 13
f 7 13 14
f 7 14 15
f 7 15 8
f 9 16 26
f 9 26 17
f 11 18 12
f 12 19 20
f 12 20 13
f 12 18 21
f 12 21 19
f 13 20 22
f 13 22 14
f 14 22 23
f 14 23 34
f 14 34 52
f 14 52 51
f 14 51 77
f 14 77 84
f 14 84 83
f 14 83 82
f 14 82 61
f 14 61 60
f 14 60 59
f 14 59 58
f 14 58 54
f 14 54 35
f 14 35 24
f 16 25 26
f 17 26 27
f 19 21 28
f 19 28 29
f 19 29 20
f 20 29 22
f 21 30 28
f 22 29 31
f 22 31 32
f 22 32 23
f 23 32 31
f 23 31 33
f 23 33 34
f 24 35 36
f 24 36 37
f 24 37 38
f 24 38 39
f 24 39 40
f 24 40 41
f 24 41 26
f 24 26 25
f 26 41 42
f 26 42 43
f 26 43 44
f 26 44 27
f 27 44 45
f 28 30 46
f 28 46 47
f 28 47 48
f 28 48 49
f 28 49 29
f 29 49 31
f 31 49 48
f 31 48 50
f 31 50 33
f 33 51 52
f 33 52 34
f 33 50 76
f 33 76 53
f 33 53 77
f 33 77 51
f 35 54 36
f 36 55 56
f 36 56 57
f 36 57 37
f 36 54 58
f 36 58 59
f 36 59 60
f 36 60 61
f 36 61 55
f 37 57 38
f 38 57 62
f 38 62 63
f 38 63 64
f 38 64 39
f 39 64 65
f 39 65 66
f 39 66 40
f 40 66 41
f 41 66 42
f 42 66 43
f 43 66 67
f 43 67 68
f 43 68 69
f 43 69 44
f 44 69 70
f 44 70 45
f 46 71 47
f 47 71 72
f 47 72 48
f 48 72 73
f 48 73 74
f 48 74 75
f 48 75 50
f 50 75 98
f 50 98 76
f 53 76 78
f 53 78 77
f 55 79 80
f 55 80 81
f 55 81 56
f 55 61 82
f 55 82 83
f 55 83 84
f 55 84 77
f 55 77 78
f 55 78 79
f 56 81 85
f 56 85 86
f 56 86 87
f 56 87 57
f 57 87 62
f 62 87 88
f 62 88 63
f 63 88 64
f 64 88 89
f 64 89 90
f 64 90 91
f 64 91 65
f 65 91 67
f 65 67 66
f 67 91 68
f 68 91 92
f 68 92 69
f 69 93 94
f 69 94 95
f 69 95 70
f 69 92 93
f 71 73 72
f 71 96 97
f 71 97 74
f 71 74 73
f 74 97 98
f 74 98 75
f 76 98 99
f 76 99 79
f 76 79 100
f 76 100 78
f 78 100 79
f 79 98 101
f 79 101 80
f 79 99 98
f 80 101 102
f 80 102 103
f 80 103 104
f 80 104 85
f 80 85 81
f 85 104 103
f 85 103 105
f 85 105 106
f 85 106 86
f 86 106 107
f 86 107 87
f 87 107 108
f 87 108 92
f 87 92 88
f 88 92 89
f 89 92 90
f 90 92 91
f 92 108 93
f 93 108 107
f 93 107 109
f 93 109 94
f 94 109 110
f 96 111 97
f 97 111 112
f 97 112 98
f 98 112 101
f 101 112 113
f 101 113 102
f 102 113 114
f 102 114 103
f 103 114 115
f 103 115 105
f 105 115 106
f 106 115 116
f 106 116 109
f 106 109 107
f 109 116 110
f 110 116 115
f 110 115 117
f 111 118 112
f 112 118 119
f 112 119 113
f 113 119 114
f 114 119 120
f 114 120 121
f 114 121 122
f 114 122 123
f 114 123 115
f 115 123 117

