# https://github.com/mikedh/trimesh
v 13.49784578 -25.19665062 35.61978078
v 7.51462276 -25.19665062 35.80679035
v 7.51462276 -27.04620659 35.80788410
v 13.49784578 -27.05001533 35.61978078
v 13.49784578 -25.19665062 25.56504121
v 7.51462276 -25.19665062 28.35486493
v 7.94806252 -27.05001533 35.69086677
v 7.51462276 -27.05001533 28.30127811
v 13.49784578 -27.05001533 24.63546431
v 13.49784578 -25.20064116 24.63546431
v 13.48495926 -25.19665062 24.63765180
v 12.85647149 -25.19665062 24.87496695
v 7.51462276 -25.19882917 28.19300926
v 7.51462276 -27.05001533 28.19300926
v 13.48495926 -27.05001533 24.63765180
v 12.85647149 -27.05001533 24.87496695
f 1 2 3
f 1 3 4
f 1 4 9
f 1 9 10
f 1 10 5
f 1 5 11
f 1 11 12
f 1 12 6
f 1 6 2
f 2 6 13
f 2 13 14
f 2 14 8
f 2 8 3
f 3 7 4
f 3 8 7
f 4 7 8
f 4 8 14
f 4 14 16
f 4 16 15
f 4 15 9
f 5 10 11
f 6 12 13
f 9 15 11
f 9 11 10
f 11 15 16
f 11 16 12
f 12 16 14
f 12 14 13

