# https://github.com/mikedh/trimesh
v 8.48022099 22.57317752 18.23979764
v 7.45538021 22.57317752 21.41307665
v 7.42482613 16.49923772 21.41307665
v 8.38091965 14.50079381 18.23979764
v -4.52570361 22.57317752 18.23979764
v -4.52570361 22.57317752 21.41307665
v 7.33570899 15.50062895 21.41307665
v 8.31217165 13.48376274 18.23979764
v -4.52570361 10.91293097 18.23979764
v -4.52570361 11.02470607 21.41307665
v 7.12182964 14.81646746 21.41307665
v 7.89205129 12.50112206 18.23979764
v 7.07472558 12.90768981 20.08114418
v -3.21569038 10.02487093 18.23979764
v -4.52570361 10.92030108 18.50009596
v -1.74017479 10.72622985 21.41307665
v 6.48400928 14.51184899 21.41307665
v 7.48466100 12.09946871 18.23979764
v 6.49801339 11.64131314 18.23979764
v 4.48397989 11.14139482 18.23979764
v 5.48463161 11.33423746 18.23979764
f 1 2 3
f 1 3 4
f 1 4 8
f 1 8 12
f 1 12 18
f 1 18 19
f 1 19 21
f 1 21 20
f 1 20 14
f 1 14 9
f 1 9 5
f 1 5 6
f 1 6 2
f 2 6 10
f 2 10 16
f 2 16 17
f 2 17 11
f 2 11 7
f 2 7 3
f 3 7 8
f 3 8 4
f 5 9 15
f 5 15 10
f 5 10 6
f 7 11 8
f 8 11 13
f 8 13 12
f 9 14 15
f 10 15 14
f 10 14 16
f 11 17 13
f 12 13 18
f 13 19 18
f 13 17 16
f 13 16 19
f 14 20 16
f 16 20 21
f 16 21 19

