# https://github.com/mikedh/trimesh
v -10.53751414 -50.55000186 -15.49855733
v -10.53751414 -50.27479529 -16.26961195
v -4.51495261 -50.55000186 -15.49855733
v -10.53751414 -50.55000186 47.49855733
v -10.53751414 -50.25736094 -16.27598667
v -4.51495261 -50.27479529 -16.26961195
v -3.51530616 -50.24176836 -16.23775029
v -3.51530616 -50.48395395 -15.49855733
v -2.65758489 -50.55000186 16.35685196
v -2.65758489 -50.55000186 47.49855733
v -10.53751414 -50.28121471 48.25686848
v -10.53751414 -49.49961901 -16.54999816
v -4.51495261 -49.49961901 -16.54999816
v -3.51530616 -49.49961901 -16.47990012
v -2.90209693 -50.13902187 -16.13579357
v -2.84501840 -50.20874143 -15.49855733
v -2.65758489 -50.36469698 15.26717901
v -2.67532547 -49.49961901 -15.49855733
v -2.65758489 -50.31424165 48.16128349
v -2.65758489 -50.27479529 48.26961195
v -10.53751414 -50.27479529 48.26961195
v -10.53751414 -48.49969447 -16.54999816
v -4.51495261 -44.50090528 -16.54999816
v -3.51530616 -43.50006282 -16.47990012
v -2.84501840 -49.49961901 -16.20588863
v -2.65758489 -50.26470423 14.75101810
v -2.67532547 -43.50006282 -15.49855733
v -2.65758489 -48.49969447 13.54027035
v -2.65758489 -49.49961901 13.54664283
v -2.65758489 -49.49961901 48.54999816
v -10.53751414 -49.49961901 48.54999816
v -10.53751414 -47.49976695 -16.54362345
v -6.51501683 -43.50006282 -16.54362345
v -5.51537057 -44.50090528 -16.54999816
v -4.51495261 -43.50006282 -16.54362345
v -3.51530616 -42.50013530 -16.27598667
v -2.91906637 -42.50013530 -16.11030364
v -2.84501840 -43.50006282 -16.20588863
v -2.75091608 -42.50013530 -15.49855733
v -2.67995340 -42.50013530 -14.49809933
v -2.65758489 -41.17821455 15.75147811
v -2.65758489 -42.12676883 13.96084594
v -2.65758489 -42.50013530 13.56575990
v -2.65758489 -42.55793095 13.55938742
v -2.65758489 -43.50006282 13.54027035
v -2.65758489 -42.64324307 48.54999816
v -10.53751414 -48.49969447 48.54999816
v -10.53751414 -46.49984241 -16.32059181
v -10.01455118 -42.99918115 -15.99560046
v -9.48001747 -42.60012805 -16.11667538
v -8.51430972 -42.50013530 -16.30784833
v -7.51466346 -43.50006282 -16.53087997
v -7.51466346 -42.50013530 -16.32059181
v -4.51495261 -42.50013530 -16.32059181
v -3.51530616 -41.96531177 -16.03383684
v -3.00005605 -41.98549390 -16.01471865
v -2.92138052 -41.89559221 -15.49855733
v -2.84964633 -41.81303084 -14.49809933
v -8.51430972 -41.52589440 -14.49809933
v -3.51453484 -41.17821455 16.45880964
v -2.65758489 -41.17821455 48.51176178
v -3.51530616 -41.57543182 -14.49809933
v -4.51495261 -41.52589440 -14.49809933
v -5.51537057 -44.50090528 48.54999816
v -2.65758489 -41.64331853 48.54362345
v -6.51501683 -43.50006282 48.54362345
v -10.53751414 -47.49976695 48.54362345
v -10.53751414 -46.48699760 -16.31422007
v -10.15570466 -42.60012805 -15.51130378
v -10.10016878 -41.91669226 -15.18631244
v -9.79086463 -42.33317673 -15.84903860
v -9.12366216 -41.96806550 -16.02746212
v -8.51430972 -41.95155203 -16.04658031
v -5.51537057 -41.95155203 -16.04658031
v -4.51495261 -41.95246994 -16.04658031
v -4.51495261 -41.71487093 -15.49855733
v -3.51530616 -41.75248444 -15.49855733
v -8.51430972 -41.71395600 -15.49855733
v -9.51472824 -41.63689613 -14.49809933
v -8.51430972 -41.52589440 46.49809933
v -4.25964170 -41.17821455 19.49842384
v -4.25347095 -41.17821455 18.49796379
v -4.03904063 -41.17821455 17.49750374
v -3.21834316 -41.17821455 48.37157166
v -9.12211989 -41.96806550 48.02746212
v -8.51430972 -42.50013530 48.30784833
v -7.51466346 -43.50006282 48.53087997
v -6.51501683 -41.71395600 -15.49855733
v -10.53751414 -46.52185738 48.32696354
v -9.47924634 -42.59187281 48.11667538
v -10.01763647 -42.98542142 48.00197518
v -10.53751414 -45.95125914 -16.04658031
v -10.36704932 -42.50013530 -14.49809933
v -9.48001747 -41.83596373 -15.51130378
v -10.14259239 -41.87449217 -14.49809933
v -9.51472824 -41.63689613 46.49809933
v -3.46516972 -41.17821455 48.28873014
v -3.97039210 -41.17821455 47.49855733
v -4.25501377 -41.17821455 46.49809933
v -4.25732774 -41.17821455 46.02017140
v -4.25964170 -41.17821455 45.49763834
v -9.78855048 -42.31941402 47.84903860
v -9.47924634 -41.83596373 47.51130378
v -10.10016878 -41.91669226 47.17994070
v -10.53751414 -46.49984241 48.32059181
v -10.15724768 -42.59187281 47.51130378
v -10.53751414 -45.71366012 -15.49855733
v -10.53751414 -45.52284777 -14.49809933
v -10.36704932 -42.50013530 46.49809933
v -10.14259239 -41.87449217 46.49809933
v -10.53751414 -45.95125914 48.04658031
v -10.53751414 -45.52284777 46.49809933
v -10.53751414 -45.71366012 47.49855733
v -10.53751414 -45.71916461 47.51130378
f 1 2 6
f 1 6 3
f 1 3 9
f 1 9 10
f 1 10 4
f 1 4 11
f 1 11 21
f 1 21 31
f 1 31 47
f 1 47 67
f 1 67 89
f 1 89 105
f 1 105 111
f 1 111 114
f 1 114 113
f 1 113 112
f 1 112 108
f 1 108 107
f 1 107 92
f 1 92 68
f 1 68 48
f 1 48 32
f 1 32 22
f 1 22 12
f 1 12 5
f 1 5 2
f 2 5 6
f 3 6 7
f 3 7 8
f 3 8 9
f 4 10 11
f 5 12 13
f 5 13 6
f 6 13 7
f 7 13 14
f 7 14 15
f 7 15 8
f 8 15 16
f 8 16 9
f 9 17 26
f 9 26 29
f 9 29 28
f 9 28 45
f 9 45 44
f 9 44 43
f 9 43 42
f 9 42 41
f 9 41 61
f 9 61 65
f 9 65 46
f 9 46 30
f 9 30 20
f 9 20 19
f 9 19 10
f 9 16 18
f 9 18 17
f 10 19 11
f 11 19 20
f 11 20 21
f 12 22 34
f 12 34 23
f 12 23 13
f 13 23 24
f 13 24 14
f 14 24 38
f 14 38 25
f 14 25 15
f 15 18 16
f 15 25 18
f 17 18 26
f 18 25 38
f 18 38 27
f 18 27 45
f 18 45 28
f 18 28 29
f 18 29 26
f 20 30 31
f 20 31 21
f 22 32 33
f 22 33 34
f 23 34 33
f 23 33 35
f 23 35 24
f 24 36 37
f 24 37 38
f 24 35 36
f 27 38 39
f 27 39 40
f 27 40 41
f 27 41 42
f 27 42 43
f 27 43 44
f 27 44 45
f 30 46 64
f 30 64 47
f 30 47 31
f 32 48 49
f 32 49 50
f 32 50 51
f 32 51 52
f 32 52 33
f 33 52 51
f 33 51 53
f 33 53 54
f 33 54 35
f 35 54 36
f 36 54 55
f 36 55 56
f 36 56 37
f 37 56 39
f 37 39 38
f 39 56 57
f 39 57 58
f 39 58 40
f 40 58 41
f 41 59 60
f 41 60 83
f 41 83 82
f 41 82 81
f 41 81 101
f 41 101 100
f 41 100 99
f 41 99 98
f 41 98 97
f 41 97 84
f 41 84 61
f 41 58 62
f 41 62 63
f 41 63 59
f 46 65 66
f 46 66 64
f 47 64 66
f 47 66 67
f 48 68 69
f 48 69 49
f 49 69 70
f 49 70 71
f 49 71 50
f 50 71 72
f 50 72 51
f 51 72 73
f 51 73 53
f 53 73 74
f 53 74 54
f 54 74 75
f 54 75 55
f 55 75 76
f 55 76 77
f 55 77 56
f 56 77 57
f 57 77 62
f 57 62 58
f 59 63 88
f 59 88 78
f 59 78 79
f 59 79 96
f 59 96 80
f 59 80 101
f 59 101 81
f 59 81 82
f 59 82 83
f 59 83 60
f 61 84 85
f 61 85 86
f 61 86 87
f 61 87 65
f 62 77 63
f 63 77 76
f 63 76 88
f 65 87 66
f 66 87 67
f 67 87 86
f 67 86 90
f 67 90 91
f 67 91 89
f 68 92 69
f 69 92 93
f 69 93 70
f 70 94 72
f 70 72 71
f 70 93 95
f 70 95 79
f 70 79 94
f 72 94 78
f 72 78 73
f 73 78 88
f 73 88 74
f 74 88 76
f 74 76 75
f 78 94 79
f 79 95 110
f 79 110 96
f 80 96 97
f 80 97 98
f 80 98 99
f 80 99 100
f 80 100 101
f 84 97 85
f 85 102 90
f 85 90 86
f 85 97 103
f 85 103 104
f 85 104 102
f 89 91 105
f 90 102 91
f 91 102 104
f 91 104 106
f 91 106 105
f 92 107 93
f 93 107 108
f 93 108 112
f 93 112 109
f 93 109 110
f 93 110 95
f 96 110 104
f 96 104 103
f 96 103 97
f 104 110 109
f 104 109 106
f 105 106 111
f 106 109 111
f 109 112 113
f 109 113 114
f 109 114 111

