# https://github.com/mikedh/trimesh
v -2.65637902 -50.55000186 26.01944095
v -2.65637902 -50.55000186 35.64604706
v -2.65637902 -41.17821455 26.01944095
v -0.99466411 -50.55000186 26.01944095
v -2.65637902 -41.17821455 35.64604706
v -0.51472006 -50.55000186 35.64604706
v 2.45779636 -41.17821455 26.01944095
v -0.51472006 -50.54816604 26.01944095
v 9.66057177 -50.54816604 30.50010985
v 9.66057177 -50.55000186 31.49989730
v 8.11823900 -41.17821455 35.64604706
v 2.48553152 -50.55000186 35.49999034
v 0.48616747 -50.54908395 35.64604706
v 2.45779636 -47.49976695 26.01944095
v 9.66057177 -41.17821455 28.52503395
v 0.00501792 -50.52064657 26.01944095
v 9.66057177 -50.32341480 29.50032240
v 9.66057177 -50.55000186 32.49968475
v 8.11823900 -47.49976695 35.64604706
v 9.66057177 -41.17821455 35.47548985
v 3.48521392 -50.53623915 35.49999034
v 2.48553152 -50.53349137 35.64604706
v 1.48584987 -50.54541230 35.64604706
v 8.48482991 -50.54908395 33.49947220
v 9.66057177 -50.54816604 33.49947220
v 2.45297286 -48.03459048 26.01944095
v 9.66057177 -48.49969447 28.52503395
v 0.48616747 -50.43258071 26.01944095
v 9.66057177 -50.05003810 28.95190006
v 8.09773947 -48.49969447 35.64604706
v 9.66057177 -48.49969447 35.47548985
v 3.49003742 -50.49771070 35.64604706
v 4.48489557 -50.48120022 35.49999034
v 9.66057177 -50.50871968 33.67568290
v 2.44332547 -48.49969447 26.01944095
v 9.66057177 -48.67582917 28.55801618
v 2.15632389 -49.49228168 26.01944095
v 1.03605310 -50.31148791 26.01944095
v 9.66057177 -49.59686100 28.75589913
v 1.33873145 -50.18581152 26.01944095
v 7.61658992 -49.22532737 35.64604706
v 7.48032401 -49.41797554 35.64604706
v 9.66057177 -49.49961901 35.28608567
v 4.48489557 -50.43166280 35.64604706
v 9.66057177 -50.32341480 34.49925965
v 9.66057177 -49.49961901 28.71443814
v 6.29975866 -50.14635921 35.64604706
v 9.66057177 -49.95279908 35.09008622
v 9.66057177 -50.05003810 35.04768199
v 5.48457797 -50.29588938 35.64604706
f 1 2 5
f 1 5 3
f 1 3 7
f 1 7 14
f 1 14 26
f 1 26 35
f 1 35 37
f 1 37 40
f 1 40 38
f 1 38 28
f 1 28 16
f 1 16 8
f 1 8 4
f 1 4 10
f 1 10 18
f 1 18 12
f 1 12 6
f 1 6 2
f 2 6 13
f 2 13 23
f 2 23 22
f 2 22 32
f 2 32 44
f 2 44 50
f 2 50 47
f 2 47 42
f 2 42 41
f 2 41 30
f 2 30 19
f 2 19 11
f 2 11 5
f 3 5 11
f 3 11 20
f 3 20 15
f 3 15 7
f 4 8 9
f 4 9 10
f 6 12 13
f 7 15 27
f 7 27 14
f 8 16 9
f 9 17 29
f 9 29 39
f 9 39 46
f 9 46 36
f 9 36 27
f 9 27 15
f 9 15 20
f 9 20 31
f 9 31 43
f 9 43 48
f 9 48 49
f 9 49 45
f 9 45 34
f 9 34 25
f 9 25 18
f 9 18 10
f 9 16 17
f 11 19 31
f 11 31 20
f 12 21 22
f 12 22 23
f 12 23 13
f 12 18 24
f 12 24 25
f 12 25 21
f 14 27 26
f 16 28 17
f 17 28 29
f 18 25 24
f 19 30 31
f 21 32 22
f 21 25 33
f 21 33 32
f 25 34 33
f 26 27 35
f 27 36 37
f 27 37 35
f 28 38 29
f 29 38 40
f 29 40 39
f 30 41 31
f 31 41 42
f 31 42 43
f 32 33 44
f 33 34 45
f 33 45 44
f 36 46 37
f 37 46 40
f 39 40 46
f 42 47 43
f 43 47 48
f 44 45 49
f 44 49 50
f 47 50 49
f 47 49 48

