# https://github.com/mikedh/trimesh
v 13.49776233 -41.17799699 24.63546431
v 13.48514403 -41.17799699 24.63695517
v 13.49776233 -38.93688917 24.63546431
v 13.49776233 -41.17799699 27.17417067
v 13.48514403 -38.93688917 24.63695517
v 12.85699452 -41.17799699 24.87452438
v 13.13143964 -38.93688917 24.77064988
v 13.49776233 -38.93688917 27.17417067
v 13.15565850 -41.17799699 26.82005352
v 12.63276334 -41.17799699 25.50000584
v 12.85699452 -38.93688917 24.87452438
v 13.15565850 -38.93688917 26.82005352
v 12.98325057 -38.93688917 26.60161963
v 12.76105340 -41.17799699 26.32006592
v 12.63276334 -38.93688917 25.50000584
v 12.76105340 -38.93688917 26.32006592
f 1 2 5
f 1 5 3
f 1 3 8
f 1 8 4
f 1 4 9
f 1 9 14
f 1 14 10
f 1 10 6
f 1 6 2
f 2 6 7
f 2 7 5
f 3 5 7
f 3 7 11
f 3 11 15
f 3 15 16
f 3 16 13
f 3 13 12
f 3 12 8
f 4 8 12
f 4 12 9
f 6 10 15
f 6 15 11
f 6 11 7
f 9 12 13
f 9 13 14
f 10 14 16
f 10 16 15
f 13 16 14

