# https://github.com/mikedh/trimesh
v -2.65758433 -50.55000186 21.97876683
v -1.51455081 -50.55000186 21.97876683
v -2.65758433 -50.55000186 26.01944020
v -2.65758433 -41.17821455 21.97876683
v -0.51470944 -50.54724813 21.97876683
v -0.99535422 -50.55000186 26.01944020
v -2.65758433 -41.17821455 26.01944020
v 1.83794717 -41.17821455 21.97876683
v 0.52818986 -50.36469698 21.97876683
v 0.00448725 -50.52064657 26.01944020
v -0.51470944 -50.54816604 26.01944020
v 2.45727817 -41.17821455 26.01944020
v 1.83794717 -47.49976695 21.97876683
v 1.21761481 -50.11333823 21.97876683
v 1.03486958 -50.31148791 26.01944020
v 0.48513221 -50.43258071 26.01944020
v 2.45727817 -47.49976695 26.01944020
v 1.83744649 -47.63645530 21.97876683
v 1.33827696 -50.18581152 26.01944020
v 1.61915342 -49.52530563 21.97876683
v 2.15537320 -49.49228168 26.01944020
v 2.45227138 -48.03459048 26.01944020
v 1.83043699 -48.49969447 21.97876683
v 2.44175712 -48.49969447 26.01944020
f 1 2 6
f 1 6 3
f 1 3 7
f 1 7 4
f 1 4 8
f 1 8 13
f 1 13 18
f 1 18 23
f 1 23 20
f 1 20 14
f 1 14 9
f 1 9 5
f 1 5 2
f 2 5 6
f 3 6 11
f 3 11 10
f 3 10 16
f 3 16 15
f 3 15 19
f 3 19 21
f 3 21 24
f 3 24 22
f 3 22 17
f 3 17 12
f 3 12 7
f 4 7 12
f 4 12 8
f 5 9 10
f 5 10 11
f 5 11 6
f 8 12 17
f 8 17 13
f 9 14 15
f 9 15 16
f 9 16 10
f 13 17 18
f 14 19 15
f 14 20 21
f 14 21 19
f 17 22 23
f 17 23 18
f 20 23 24
f 20 24 21
f 22 24 23

