# https://github.com/mikedh/trimesh
v 13.47326483 -25.19821525 17.50171388
v 13.47500081 -37.27652133 17.50171388
v 13.47326483 -25.19821525 16.50088149
v 13.47152884 -25.19821525 18.19780803
v 13.47152884 -25.50169826 18.50097141
v 13.47500081 -37.27652133 16.50166883
v 13.47152884 -27.05196440 18.50254627
v 13.47500081 -38.93472552 17.50171388
v 13.22849686 -37.27652133 15.74100478
v 13.22675939 -25.19821525 15.74100478
v 13.44201858 -25.19821525 18.50097141
v 13.35695679 -25.19821525 19.19706574
v 13.34827687 -25.50169826 19.49944159
v 13.35001285 -37.27652133 19.49865407
v 13.41945077 -38.93472552 18.93721147
v 13.47500081 -38.93472552 16.50166883
v 13.47152884 -33.15134346 18.50254627
v 13.47326483 -41.17799401 17.50092635
v 13.47152884 -38.93472552 18.50175893
v 13.47152884 -41.17799401 18.50018388
v 13.22849686 -38.93472552 15.74100478
v 13.22675939 -38.93629014 15.74021725
v 12.48203809 -38.93629014 15.46540184
v 12.89172168 -27.05039978 15.61737730
v 12.48030360 -25.19821525 15.46618937
v 13.29272683 -25.19821525 19.50495353
v 13.10524340 -38.93629014 20.18687388
v 13.08788354 -25.19821525 20.16088849
v 13.10350890 -25.50169826 20.18608636
v 13.35001285 -38.93472552 19.49865407
v 13.38820304 -41.17799401 19.17895450
v 13.47326483 -41.17799401 16.50088149
v 13.22675939 -41.17799401 15.74021725
v 12.48203809 -41.17799401 15.46540184
v 11.91959227 -38.93629014 15.45674017
v 12.17824812 -25.19821525 15.46146458
v 12.76499922 -37.27652133 20.57586795
v 12.80839736 -41.17799401 20.52625938
v 13.10524340 -41.17799401 20.18687388
v 12.82054777 -25.19821525 20.46641408
v 12.66604955 -25.50169826 20.68610898
v 13.34827687 -41.17799401 19.49944159
v 11.48213441 -41.17799401 15.45044070
v 11.48213441 -38.93629014 15.45044070
v 11.48039694 -25.19821525 15.45122786
v 12.66778554 -38.93629014 20.68689650
v 12.66778554 -41.17799401 20.68689650
v 12.14179392 -25.19821525 21.10266311
v 12.16609771 -25.50169826 21.11841178
v 12.39350582 -27.05039978 20.92391512
v -0.51325937 -41.17799401 15.44965318
v 0.48838179 -25.19821525 15.45122786
v 12.16783221 -40.49907029 21.11841178
v 12.16783221 -41.17799401 21.11762425
v 11.72690238 -25.19821525 21.24597690
v 12.16783221 -38.93629014 21.11841178
v 11.48039694 -25.50169826 21.35385534
v 11.48039694 -26.50131583 21.35464287
v 11.48213441 -38.93629014 21.35464287
v -1.51316491 -41.17799401 15.46933910
v -0.51152338 -25.19821525 15.45280291
v 11.48213441 -41.17799401 21.35464287
v 11.47866244 -25.19821525 21.29716015
v 1.35809141 -27.05196440 23.49410912
v -2.44710450 -41.17799401 15.57249314
v -1.51316491 -25.19821525 15.57958013
v 1.35809141 -29.03085947 23.49410912
v 1.35809141 -41.17799401 23.48938471
v 10.76518739 -25.19821525 21.38220331
v 10.48049177 -25.19821525 21.41055091
v 1.61153967 -25.19821525 22.25310838
v 1.30601297 -27.05196440 23.49410912
v -2.58945157 -41.17799401 15.67958480
v -2.23358278 -25.19821525 15.85282086
v 1.30427699 -29.03242409 23.49410912
v -4.25943290 -41.17799401 23.48938471
v -3.72128938 -25.19821525 22.25310838
v -3.47478469 -27.05665827 23.49410912
v -3.51297562 -41.17799401 16.46072211
v -2.38634576 -25.19821525 15.98826012
v -3.47131272 -29.03242409 23.49410912
v -4.25943290 -41.17799401 19.49944159
v -3.44700967 -25.19821525 18.50097141
v -3.47304870 -25.50169826 18.50097141
v -4.25248896 -41.17799401 18.50018388
v -4.03723125 -41.17799401 17.50092635
v -3.13627501 -25.19821525 16.80010761
v -2.73353537 -25.19821525 16.30087233
v -3.36715584 -25.19821525 17.50171388
v -3.20744892 -25.19821525 17.01350285
f 1 2 6
f 1 6 3
f 1 3 10
f 1 10 25
f 1 25 36
f 1 36 45
f 1 45 52
f 1 52 61
f 1 61 66
f 1 66 74
f 1 74 80
f 1 80 88
f 1 88 87
f 1 87 90
f 1 90 89
f 1 89 83
f 1 83 77
f 1 77 71
f 1 71 70
f 1 70 69
f 1 69 63
f 1 63 55
f 1 55 48
f 1 48 40
f 1 40 28
f 1 28 26
f 1 26 12
f 1 12 11
f 1 11 4
f 1 4 5
f 1 5 2
f 2 5 7
f 2 7 17
f 2 17 8
f 2 8 16
f 2 16 6
f 3 6 9
f 3 9 10
f 4 11 5
f 5 11 12
f 5 12 13
f 5 13 14
f 5 14 15
f 5 15 7
f 6 16 21
f 6 21 9
f 7 15 17
f 8 18 32
f 8 32 16
f 8 17 19
f 8 19 20
f 8 20 18
f 9 21 33
f 9 33 22
f 9 22 10
f 10 22 23
f 10 23 24
f 10 24 25
f 12 26 13
f 13 27 14
f 13 26 28
f 13 28 29
f 13 29 27
f 14 27 39
f 14 39 30
f 14 30 15
f 15 20 19
f 15 19 17
f 15 30 31
f 15 31 20
f 16 32 33
f 16 33 21
f 18 20 31
f 18 31 42
f 18 42 39
f 18 39 38
f 18 38 47
f 18 47 54
f 18 54 62
f 18 62 68
f 18 68 76
f 18 76 82
f 18 82 85
f 18 85 86
f 18 86 79
f 18 79 73
f 18 73 65
f 18 65 60
f 18 60 51
f 18 51 43
f 18 43 34
f 18 34 33
f 18 33 32
f 22 33 34
f 22 34 23
f 23 34 35
f 23 35 36
f 23 36 25
f 23 25 24
f 27 29 37
f 27 37 38
f 27 38 39
f 28 40 41
f 28 41 29
f 29 41 37
f 30 42 31
f 30 39 42
f 34 43 35
f 35 44 45
f 35 45 36
f 35 43 44
f 37 41 46
f 37 46 47
f 37 47 38
f 40 48 41
f 41 48 49
f 41 49 50
f 41 50 46
f 43 51 44
f 44 51 45
f 45 51 52
f 46 50 47
f 47 50 53
f 47 53 54
f 48 55 49
f 49 56 50
f 49 55 57
f 49 57 58
f 49 58 59
f 49 59 56
f 50 56 53
f 51 60 61
f 51 61 52
f 53 56 59
f 53 59 62
f 53 62 54
f 55 63 57
f 57 63 64
f 57 64 58
f 58 64 59
f 59 64 67
f 59 67 62
f 60 65 61
f 61 65 66
f 62 67 68
f 63 69 64
f 64 69 70
f 64 70 71
f 64 71 77
f 64 77 72
f 64 72 78
f 64 78 81
f 64 81 75
f 64 75 67
f 65 73 74
f 65 74 66
f 67 75 68
f 68 75 81
f 68 81 76
f 72 77 78
f 73 79 74
f 74 79 80
f 76 81 78
f 76 78 77
f 76 77 82
f 77 83 84
f 77 84 85
f 77 85 82
f 79 86 87
f 79 87 88
f 79 88 80
f 83 89 84
f 84 89 85
f 85 89 86
f 86 89 90
f 86 90 87

