# https://github.com/mikedh/trimesh
v 13.49776233 -27.05001533 36.82582861
v 13.15565850 -27.05001533 37.17994577
v 13.49776233 -25.19665062 36.82582861
v 13.49776233 -27.05001533 39.36453646
v 13.15565850 -25.19665062 37.17994577
v 12.76105340 -27.05001533 37.67993337
v 13.03600664 -25.19665062 37.33153230
v 13.49776233 -25.19665062 39.36453646
v 13.48514403 -27.05001533 39.36304486
v 12.70330246 -27.05001533 38.04896063
v 12.72210027 -25.19665062 37.92868590
v 12.76105340 -25.19665062 37.67993337
v 13.48514403 -25.19665062 39.36304486
v 12.85699452 -27.05001533 39.12547714
v 12.63276334 -27.05001533 38.49999344
v 12.63276334 -25.19665062 38.49999344
v 12.85699452 -25.19665062 39.12547714
f 1 2 5
f 1 5 3
f 1 3 8
f 1 8 4
f 1 4 9
f 1 9 14
f 1 14 15
f 1 15 10
f 1 10 6
f 1 6 2
f 2 6 7
f 2 7 5
f 3 5 7
f 3 7 12
f 3 12 11
f 3 11 16
f 3 16 17
f 3 17 13
f 3 13 8
f 4 8 13
f 4 13 9
f 6 10 11
f 6 11 12
f 6 12 7
f 9 13 17
f 9 17 14
f 10 15 11
f 11 15 16
f 14 17 16
f 14 16 15

