# https://github.com/mikedh/trimesh
v -24.51437716 -5.40055819 21.45176417
v -24.61306159 -5.40055819 21.45705780
v -24.51437716 7.49906600 21.45176417
v -5.52810212 -5.40055819 21.45176417
v -25.51268940 7.49906600 21.51882535
v -25.51268940 -5.40055819 21.51882535
v -25.51268940 8.49874169 21.66353649
v -24.51437716 8.49874169 21.59823960
v -5.52810212 7.51280189 21.45352846
v -5.52810212 7.49906600 21.45176417
v -5.52810212 -5.40055819 39.47890735
v -26.20576923 7.49906600 21.79412952
v -26.13921468 8.49874169 21.86472005
v -26.20576923 -5.40055819 21.79412952
v -26.05430191 9.04665589 21.95648885
v -25.51268940 9.10465121 21.90354502
v -24.51437716 9.13822800 21.87177947
v -5.52810212 8.50789845 21.60176969
v -5.52810212 8.49874169 21.59823960
v -26.47427921 -5.40055819 39.47890735
v -5.52810212 10.05090922 39.47890735
v -26.36871194 8.49874169 22.50003850
v -28.90924220 -0.49986094 28.50026226
v -28.89547055 0.50134044 28.50026226
v -26.38477688 10.19132137 23.40536600
v -26.16446023 10.19132137 22.85299262
v -26.43526499 -5.40055819 22.50003850
v -25.61366712 10.19132137 22.53533340
v -24.51437716 10.19132137 22.33414984
v -5.52810212 9.13822800 21.87177947
v -26.47427921 5.49971610 39.47890735
v -28.45942681 -0.49986094 36.24760991
v -28.89776533 -0.49986094 35.49934661
v -28.73252933 -1.49953626 35.49934661
v -28.88629143 -2.49921121 34.49872172
v -28.72105544 -3.49888653 33.49985963
v -28.45024769 -4.24673520 32.49923474
v -26.77951162 -5.40055819 32.40570164
v -5.52810212 10.19132137 36.83704323
v -24.51437716 10.04938334 39.47890735
v -28.88858621 -2.49921121 29.50088716
v -28.94366686 -1.49953626 29.50088716
v -28.93678253 1.50101557 29.50088716
v -28.87940710 2.49916445 29.50088716
v -28.90694742 3.49883959 31.49860835
v -26.48116504 10.19132137 24.50128978
v -26.47427921 -5.40055819 23.50066340
v -28.45254247 -4.24673520 31.49860835
v -28.90006309 -3.49888653 31.49860835
v -28.73023455 -3.49888653 30.49974775
v -5.52810212 10.19132137 22.33414984
v -26.47198443 8.49874169 39.47890735
v -28.45254247 0.50134044 36.24937421
v -28.88858621 0.50134044 35.49934661
v -28.94596164 1.50101557 34.49872172
v -28.93219297 -1.49953626 34.49872172
v -28.94137208 -2.49921121 33.49985963
v -28.89547055 -3.49888653 32.49923474
v -26.78410118 -5.40055819 31.59037715
v -5.85169275 10.19132137 36.83351314
v -23.05248235 10.19132137 33.03749001
v -23.84654139 10.19132137 32.83277637
v -25.22122716 10.19132137 32.31922722
v -25.43465947 10.19132137 32.14098549
v -25.33368175 10.02496332 39.47890735
v -28.94366686 -2.49921121 30.49974775
v -28.97350197 -1.49953626 30.49974775
v -28.96202509 1.50101557 30.49974775
v -28.93678253 2.49916445 30.49974775
v -28.93907731 2.49916445 31.49860835
v -28.90924220 3.49883959 32.49923474
v -26.48116504 10.19132137 28.50026226
v -26.24478345 9.47094411 39.47890735
v -28.89547055 2.49916445 34.49872172
v -28.94137208 2.49916445 33.49985963
v -28.96890943 1.50101557 33.49985963
v -28.96661465 -1.49953626 33.49985963
v -25.75136428 10.19132137 31.66802710
v -26.11856018 10.19132137 31.03270864
v -26.33887683 10.19132137 30.49974775
v -25.83398377 9.97001976 39.47890735
v -28.94137208 2.49916445 32.49923474
v -26.47887026 10.19132137 29.50088716
f 1 2 3
f 1 3 10
f 1 10 4
f 1 4 11
f 1 11 20
f 1 20 38
f 1 38 59
f 1 59 47
f 1 47 27
f 1 27 14
f 1 14 6
f 1 6 2
f 2 5 3
f 2 6 5
f 3 5 7
f 3 7 8
f 3 8 9
f 3 9 10
f 4 10 9
f 4 9 19
f 4 19 18
f 4 18 30
f 4 30 51
f 4 51 39
f 4 39 21
f 4 21 11
f 5 6 14
f 5 14 12
f 5 12 13
f 5 13 7
f 7 13 15
f 7 15 16
f 7 16 8
f 8 16 17
f 8 17 18
f 8 18 19
f 8 19 9
f 11 21 40
f 11 40 65
f 11 65 81
f 11 81 73
f 11 73 52
f 11 52 31
f 11 31 20
f 12 22 13
f 12 14 23
f 12 23 24
f 12 24 22
f 13 22 25
f 13 25 26
f 13 26 15
f 14 27 23
f 15 26 28
f 15 28 29
f 15 29 16
f 16 29 17
f 17 29 51
f 17 51 30
f 17 30 18
f 20 31 32
f 20 32 33
f 20 33 34
f 20 34 35
f 20 35 36
f 20 36 37
f 20 37 38
f 21 39 40
f 22 24 25
f 23 41 42
f 23 42 43
f 23 43 24
f 23 27 41
f 24 43 44
f 24 44 25
f 25 44 45
f 25 45 46
f 25 46 72
f 25 72 83
f 25 83 80
f 25 80 79
f 25 79 78
f 25 78 64
f 25 64 63
f 25 63 62
f 25 62 61
f 25 61 60
f 25 60 39
f 25 39 51
f 25 51 29
f 25 29 28
f 25 28 26
f 27 47 48
f 27 48 49
f 27 49 50
f 27 50 41
f 31 52 32
f 32 53 33
f 32 52 53
f 33 54 55
f 33 55 56
f 33 56 35
f 33 35 34
f 33 53 54
f 35 56 57
f 35 57 58
f 35 58 36
f 36 58 37
f 37 58 49
f 37 49 48
f 37 48 59
f 37 59 38
f 39 60 40
f 40 61 62
f 40 62 63
f 40 63 64
f 40 64 65
f 40 60 61
f 41 50 49
f 41 49 66
f 41 66 42
f 42 66 67
f 42 67 43
f 43 67 68
f 43 68 69
f 43 69 44
f 44 69 45
f 45 69 70
f 45 70 82
f 45 82 71
f 45 71 46
f 46 71 72
f 47 59 48
f 49 58 57
f 49 57 66
f 52 73 74
f 52 74 54
f 52 54 53
f 54 74 55
f 55 75 76
f 55 76 77
f 55 77 56
f 55 74 75
f 56 77 57
f 57 77 67
f 57 67 66
f 64 78 65
f 65 78 79
f 65 79 80
f 65 80 81
f 67 77 76
f 67 76 68
f 68 76 70
f 68 70 69
f 70 76 82
f 71 83 72
f 71 82 75
f 71 75 74
f 71 74 73
f 71 73 83
f 73 81 83
f 75 82 76
f 80 83 81

