# https://github.com/mikedh/trimesh
v -3.44378230 -32.49943574 18.20867834
v -3.36759929 -31.49563588 17.50010748
v -3.36759929 -34.49689372 17.50010748
v -3.44212603 -37.48294343 18.20867834
v -3.44212603 -25.49818956 18.20867834
v -3.36594302 -24.49946206 17.50010748
v -3.13739549 14.30902746 16.80125795
v -3.13739549 -16.49948839 16.80125795
v -3.13739549 -28.49944741 16.80152794
v -3.14070802 -37.48294343 16.81367957
v -3.36594302 -37.48294343 17.50010748
v 13.47369902 -37.48294343 18.20867834
v -3.37587987 -24.49946206 18.20867834
v -3.03140268 14.30902746 18.01371340
v -3.05624517 14.30902746 17.91569085
v -3.15561367 14.30902746 17.50010748
v -3.15230113 14.30902746 17.36644039
v -2.73329719 14.30902746 16.30142388
v -2.73329719 13.49787597 16.30115385
v -2.73329719 -29.49817789 16.30142388
v -2.73329719 -4.50459800 16.30115385
v -2.73329719 -37.48294343 16.30169392
v -3.13573997 -37.48294343 16.80152794
v 13.47369902 -37.48294343 16.50043939
v 13.47535454 -32.49943574 18.20867834
v -3.08936751 -23.00390252 18.20867834
v -2.51303098 14.30902746 18.03882673
v -2.63889749 14.30902746 16.21528284
v -2.24307978 -37.48294343 15.85937723
v 13.47038500 -37.48294343 16.48747774
v 13.47369902 14.30902746 16.50043939
v 13.47369902 -25.20414763 18.20867834
v -2.51303098 -22.76562675 18.20867834
v -1.51437799 14.30902746 18.04989793
v -2.23314293 14.30902746 15.85181628
v -2.23479920 -9.50331383 15.85154620
v -2.23479920 -18.49694637 15.85154620
v -2.23314293 -37.48294343 15.85181628
v 13.23024509 -37.48294343 15.74029196
v 13.23024509 14.30902746 15.74029196
v 13.43395163 14.30902746 16.69135386
v 13.40745137 -24.49946206 18.20867834
v 13.26336892 14.30902746 17.50010748
v 13.21699646 14.30902746 17.60002024
v 13.01991648 14.30902746 18.02343456
v -1.76611101 -22.73520898 18.20867834
v 11.48467213 14.30902746 18.04989793
v -1.51437799 -22.73013960 18.20867834
v -2.09568331 14.30902746 15.79915953
v -1.51437799 14.30902746 15.57665097
v -1.51437799 -37.48294343 15.57665097
v 12.48498213 -37.48294343 15.46512666
v 12.48498213 14.30902746 15.46512666
v 13.37929709 -24.20542013 18.20867834
v 12.48498213 14.30902746 18.04827780
v 11.48467213 -22.73013960 18.20867834
v 12.22331151 -22.74027985 18.20867834
v 12.48498213 -22.75041861 18.20867834
v 12.84933377 -22.81125415 18.20867834
v -1.32226532 14.30902746 15.55234780
v -0.51406873 -37.48294343 15.45027475
v 12.46842096 -37.48294343 15.46485667
v 11.48467213 14.30902746 15.45000476
v 13.16068789 -23.32836371 18.20867834
v 13.07456803 -22.98362500 18.20867834
v -0.51406873 14.30902746 15.45027475
v 11.48467213 -35.49562420 15.45000476
v 11.48467213 -37.48294343 15.45027475
f 1 2 3
f 1 3 4
f 1 4 12
f 1 12 25
f 1 25 32
f 1 32 42
f 1 42 54
f 1 54 64
f 1 64 65
f 1 65 59
f 1 59 58
f 1 58 57
f 1 57 56
f 1 56 48
f 1 48 46
f 1 46 33
f 1 33 26
f 1 26 13
f 1 13 5
f 1 5 2
f 2 5 6
f 2 6 7
f 2 7 8
f 2 8 3
f 3 8 9
f 3 9 10
f 3 10 11
f 3 11 4
f 4 11 10
f 4 10 23
f 4 23 22
f 4 22 29
f 4 29 38
f 4 38 51
f 4 51 61
f 4 61 68
f 4 68 62
f 4 62 52
f 4 52 39
f 4 39 30
f 4 30 24
f 4 24 12
f 5 13 14
f 5 14 15
f 5 15 16
f 5 16 17
f 5 17 7
f 5 7 6
f 7 17 16
f 7 16 15
f 7 15 14
f 7 14 27
f 7 27 34
f 7 34 47
f 7 47 55
f 7 55 45
f 7 45 44
f 7 44 43
f 7 43 41
f 7 41 31
f 7 31 40
f 7 40 53
f 7 53 63
f 7 63 66
f 7 66 60
f 7 60 50
f 7 50 49
f 7 49 35
f 7 35 28
f 7 28 18
f 7 18 19
f 7 19 21
f 7 21 8
f 8 20 9
f 8 21 20
f 9 20 22
f 9 22 23
f 9 23 10
f 12 24 25
f 13 26 27
f 13 27 14
f 18 28 19
f 19 28 21
f 20 29 22
f 20 21 28
f 20 28 29
f 24 30 31
f 24 31 25
f 25 31 32
f 26 33 34
f 26 34 27
f 28 35 36
f 28 36 37
f 28 37 29
f 29 37 38
f 30 39 40
f 30 40 31
f 31 41 32
f 32 41 43
f 32 43 44
f 32 44 45
f 32 45 42
f 33 46 34
f 34 46 48
f 34 48 56
f 34 56 47
f 35 49 36
f 36 49 50
f 36 50 51
f 36 51 37
f 37 51 38
f 39 52 53
f 39 53 40
f 42 45 54
f 45 55 54
f 47 56 57
f 47 57 58
f 47 58 59
f 47 59 55
f 50 60 51
f 51 60 61
f 52 62 53
f 53 62 63
f 54 55 64
f 55 59 65
f 55 65 64
f 60 66 61
f 61 67 68
f 61 66 63
f 61 63 67
f 62 68 67
f 62 67 63

