# https://github.com/mikedh/trimesh
v -5.52810249 -5.40055931 21.45009151
v -0.51515275 -5.40055931 21.45009151
v -5.52810249 -5.40055931 26.38871258
v -5.52810249 10.82780287 21.41356355
v -1.74015300 10.72493792 21.41356355
v 0.38540433 -5.40055931 21.50025702
v -1.13295917 13.70615363 21.41356355
v 2.21608239 -5.40055931 26.38871258
v -5.52810249 13.70615363 26.38871258
v -5.52810249 13.70615363 21.41356355
v 0.48470828 -5.40055931 21.50610200
v 0.48470828 10.49863473 21.50610200
v -0.66979383 13.70615363 21.60399741
v 1.10630500 11.26357689 21.85385077
v 2.21608239 -5.40055931 24.54768828
v 2.21608239 13.70615363 26.38871258
v 1.20485085 0.50015301 21.78079447
v 1.09948250 -5.40055931 21.75351976
v 1.16694863 10.49863473 21.78079447
v 2.21608239 13.70615363 25.91238356
v 1.16694863 -5.40055931 21.78079447
v 2.21608239 -3.15249115 22.84985444
v 2.21608239 0.50015301 22.51574284
v 2.21608239 1.30063016 22.72030076
f 1 2 6
f 1 6 11
f 1 11 18
f 1 18 21
f 1 21 15
f 1 15 8
f 1 8 3
f 1 3 9
f 1 9 10
f 1 10 4
f 1 4 5
f 1 5 2
f 2 5 7
f 2 7 6
f 3 8 16
f 3 16 9
f 4 10 7
f 4 7 5
f 6 7 12
f 6 12 11
f 7 10 9
f 7 9 16
f 7 16 20
f 7 20 13
f 7 13 14
f 7 14 12
f 8 15 22
f 8 22 23
f 8 23 24
f 8 24 20
f 8 20 16
f 11 17 18
f 11 12 17
f 12 14 19
f 12 19 17
f 13 20 14
f 14 20 19
f 15 21 22
f 17 23 21
f 17 21 18
f 17 19 23
f 19 20 24
f 19 24 23
f 21 23 22

