# https://github.com/mikedh/trimesh
v 12.63276334 -25.19665062 25.50015932
v 12.85830135 -25.19665062 24.87460932
v 12.76111896 -25.19665062 26.31990200
v 12.63276334 -5.40055931 25.50015932
v 13.29470868 -25.19665062 24.70917439
v 12.85830135 -5.40055931 24.87460932
v 13.15718437 -25.19665062 26.82008332
v 12.76111896 -5.40055931 26.31990200
v 13.48540629 -25.19665062 24.63711983
v 13.42306281 -5.40055931 24.66070762
v 13.48540629 -5.40055931 24.63711983
v 14.09417535 -25.19665062 27.82594001
v 13.15718437 -5.40055931 26.82008332
v 14.18218906 -25.19665062 24.55924934
v 14.38755686 -5.40055931 24.53630826
v 29.84515126 -25.19665062 27.82594001
v 14.09417535 -5.40443510 27.82594001
v 14.10884405 -5.40055931 27.82594001
v 14.48657508 -25.19665062 24.52532238
v 14.48657508 -5.40055931 24.52532238
v 30.32740052 -25.19665062 27.34320647
v 29.87815733 -5.40055931 27.79330498
v 29.84515126 -5.40055931 27.82594001
v 29.48392327 -25.19665062 24.52532238
v 29.48392327 -5.40055931 24.52532238
v 30.47959204 -25.19665062 27.18940338
v 30.32740052 -5.40055931 27.34320647
v 30.18070753 -25.19665062 24.59608501
v 30.48509057 -5.40055931 24.62710327
v 30.82798417 -25.19665062 26.83591580
v 30.82798417 -5.40055931 26.83591580
v 30.48509057 -25.19665062 24.62710327
v 31.12503285 -5.40055931 24.86459276
v 31.22221525 -25.19665062 26.33605784
v 31.22221525 -5.40055931 26.33605784
v 31.12503285 -25.19665062 24.86459276
v 31.34140070 -5.40055931 25.43682939
v 31.26622136 -25.19665062 26.08273587
v 31.23688395 -5.40055931 26.25269404
v 31.36523957 -25.19665062 25.50015932
v 31.36523957 -5.40055931 25.50015932
f 1 2 5
f 1 5 9
f 1 9 14
f 1 14 19
f 1 19 24
f 1 24 28
f 1 28 32
f 1 32 36
f 1 36 40
f 1 40 38
f 1 38 34
f 1 34 30
f 1 30 26
f 1 26 21
f 1 21 16
f 1 16 12
f 1 12 7
f 1 7 3
f 1 3 8
f 1 8 4
f 1 4 6
f 1 6 2
f 2 6 5
f 3 7 13
f 3 13 8
f 4 8 13
f 4 13 18
f 4 18 23
f 4 23 22
f 4 22 27
f 4 27 31
f 4 31 35
f 4 35 39
f 4 39 41
f 4 41 37
f 4 37 33
f 4 33 29
f 4 29 25
f 4 25 20
f 4 20 15
f 4 15 11
f 4 11 10
f 4 10 6
f 5 6 10
f 5 10 11
f 5 11 9
f 7 12 17
f 7 17 13
f 9 11 14
f 11 15 14
f 12 16 23
f 12 23 18
f 12 18 17
f 13 17 18
f 14 15 19
f 15 20 19
f 16 21 22
f 16 22 23
f 19 20 25
f 19 25 24
f 21 26 27
f 21 27 22
f 24 25 28
f 25 29 28
f 26 30 31
f 26 31 27
f 28 29 32
f 29 33 36
f 29 36 32
f 30 34 35
f 30 35 31
f 33 37 36
f 34 38 39
f 34 39 35
f 36 37 40
f 37 41 40
f 38 40 41
f 38 41 39

