# https://github.com/mikedh/trimesh
v -24.51458876 13.50000501 -8.54999983
v -24.51458876 12.50026375 -8.40340817
v -25.51251953 12.50026375 -8.39177334
v -25.51251953 13.50000501 -8.53138530
v -24.51458876 29.49999571 -8.54999983
v -4.51628943 13.50000501 -8.54999983
v -24.51458876 11.86199933 -8.12651181
v -25.51251953 11.86612993 -8.12418425
v -4.51628943 12.50026375 -8.40340817
v -26.10280668 11.91363856 -8.07997549
v -26.22457002 12.50026375 -8.18933809
v -25.51251953 29.49999571 -8.53138530
v -26.30133336 13.50000501 -8.25681651
v -25.51251953 30.49973845 -8.39177334
v -24.51458876 30.49973845 -8.40340817
v -4.51628943 29.49999571 -8.54999983
v -3.51571296 13.50000501 -8.47321415
v -3.51571296 12.50026375 -8.32894856
v -24.51458876 11.36212870 -7.54246974
v -4.51628943 11.86199933 -8.12651181
v -25.51251953 11.36625931 -7.54014218
v -26.03663211 10.98619252 -7.02358001
v -3.51571296 11.89917922 -8.09160882
v -26.21398275 11.54803112 -7.41449261
v -26.54750799 12.50026375 -7.49825948
v -26.30133336 29.49999571 -8.25681651
v -26.22457002 30.49973845 -8.18933809
v -26.61633049 13.50000501 -7.49825948
v -26.62427132 14.50181156 -7.49825948
v -26.62956570 15.50155282 -7.49825948
v -25.51251953 31.13387227 -8.12418425
v -26.10280668 31.08636141 -8.07997549
v -24.51458876 31.13800287 -8.12651181
v -4.51628943 30.49973845 -8.40340817
v -3.51571296 30.49973845 -8.32894856
v -3.51571296 29.49999571 -8.47321415
v -2.83542727 13.50000501 -8.19864535
v -2.89895539 12.50026375 -8.12651181
v -2.98101311 11.95908114 -8.03809130
v -24.51458876 10.97586453 -7.04452211
v -25.51251953 10.97793058 -7.03986847
v -4.51628943 11.36212870 -7.54246974
v -25.51251953 10.95520929 -6.49771059
v -26.04721938 10.97999588 -6.49771059
v -26.37809818 11.50052249 -6.49771059
v -3.50247775 11.33734137 -7.41682017
v -3.82806216 10.98412722 -7.02823365
v -26.65868257 12.50026375 -6.49771059
v -26.62956570 27.49844790 -7.49825948
v -26.61368256 29.49999571 -7.49825948
v -26.54486005 30.49973845 -7.49825948
v -29.30306499 18.50077659 15.22120646
v -29.08865516 20.50025910 12.81523293
v -26.03663211 32.01380968 -7.02358001
v -25.51251953 31.63374066 -7.54014218
v -26.21398275 31.45197034 -7.41449261
v -24.51458876 31.63787127 -7.54246974
v -4.51628943 31.13800287 -8.12651181
v -3.51571296 31.10082150 -8.09160882
v -2.98101311 31.04091883 -8.03809130
v -2.89895539 30.49973845 -8.12651181
v -2.83542727 29.49999571 -8.19864535
v -2.61307662 13.50000501 -7.49825948
v -2.67925118 12.50026375 -7.49825948
v -2.88042580 11.74013019 -7.49825948
v -24.51458876 10.95107794 -6.49771059
v -4.51628943 10.97586453 -7.04452211
v -25.51251953 10.95520929 15.22120646
v -25.66339974 10.96140593 15.22120646
v -26.41250943 11.38278395 15.22120646
v -26.04721938 10.97999588 15.22120646
v -26.51309674 11.54183373 15.22120646
v -29.20247619 17.63736308 15.22120646
v -3.23248063 11.04196310 -6.49771059
v -3.73276924 10.97586453 -6.49771059
v -4.51628943 10.95107794 -6.49771059
v -29.28718035 18.33346486 15.22120646
v -29.08336227 22.49974161 12.82221338
v -29.07277350 23.30738306 12.88503817
v -29.31100433 24.22037125 15.22120646
v -29.30306499 24.49922413 15.22120646
v -26.37809818 31.49947822 -6.49771059
v -29.19718330 25.35644174 15.22120646
v -26.63221364 30.49973845 -6.49771059
v -29.31630020 20.50025910 15.22120646
v -29.16012411 20.50025910 13.49932960
v -25.51251953 32.04479218 -6.49771059
v -25.51251953 32.02207088 -7.03986847
v -26.04721938 32.02000558 -6.49771059
v -24.51458876 32.02413619 -7.04452211
v -4.51628943 31.63787127 -7.54246974
v -3.50247775 31.66266084 -7.41682017
v -3.82806216 32.01587200 -7.02823365
v -2.88042580 31.25987053 -7.49825948
v -2.67925118 30.49973845 -7.49825948
v -2.61572306 29.49999571 -7.49825948
v -2.61307662 23.49948287 -7.49825948
v -2.57601743 15.50155282 -6.49771059
v -2.57866536 12.50026375 -6.49771059
v -2.79572164 11.54183373 -6.49771059
v -24.51458876 10.95107794 15.22120646
v -4.79422738 10.94901264 15.22120646
v -3.23248063 11.04196310 -0.49906337
v -3.73276924 10.97586453 -0.49906337
v -4.51628943 10.94901264 15.22120646
v -29.15218179 22.49974161 13.49932960
v -29.31630020 23.22062999 15.22120646
v -26.51309674 31.45816624 15.22120646
v -29.31894665 22.22088873 15.22120646
v -25.51251953 32.04479218 15.22120646
v -25.23458158 32.04685748 15.22120646
v -24.51458876 32.04892278 -6.49771059
v -26.04721938 32.02000558 15.22120646
v -4.51628943 32.02413619 -7.04452211
v -3.23248063 31.95803761 -6.49771059
v -3.73276924 32.02413619 -6.49771059
v -4.51628943 32.04892278 -6.49771059
v -2.79572164 31.45816624 -6.49771059
v -2.57601743 30.49973845 -6.49771059
v -2.27690344 21.50000036 7.36805236
v -2.27690344 20.50232440 7.41691625
v -2.27690344 19.58107501 7.60771891
v -2.27690344 17.46592075 8.47563779
v -2.27690344 16.50129408 9.01779643
v -2.27690344 15.60276598 9.60183850
v -2.27690344 15.55938870 9.64372194
v -2.27690344 14.58650082 10.63729113
v -2.27690344 14.05564547 11.49822956
v -2.27690344 13.52479160 12.43130079
v -2.27690344 12.34947592 15.22120646
v -2.62366389 11.79796606 15.22120646
v -2.79572164 11.54183373 0.50148702
v -3.23512857 11.04196310 0.50148702
v -2.75336807 11.60999835 15.22120646
v -2.89630746 11.45094857 15.22120646
v -3.73541643 10.97586453 0.50148702
v -4.00806000 10.96760258 15.22120646
v -24.51458876 32.04892278 15.22120646
v -4.51628943 32.05098808 15.22120646
v -3.23248063 31.95803761 0.50148702
v -3.73276924 32.02413619 0.50148702
v -2.79572164 31.45816624 0.50148702
v -2.27690344 30.68357408 15.22120646
v -2.27690344 29.25832272 11.75651139
v -2.27690344 28.92989516 11.24460211
v -2.27690344 28.38458121 10.61169615
v -2.27690344 27.39930153 9.59951168
v -2.27690344 27.35798955 9.57158914
v -2.27690344 26.67014897 9.15275401
v -2.27690344 26.13103390 8.83397421
v -2.27690344 25.50309598 8.52915531
v -2.27690344 24.63142127 8.14754999
v -2.27690344 23.90846759 7.85203910
v -2.27690344 22.66085744 7.44018441
v -3.84659176 10.97586453 15.22120646
v -3.84659176 32.02413619 15.22120646
v -3.48394816 31.86095357 15.22120646
v -2.75336807 31.39000237 15.22120646
f 1 2 3
f 1 3 4
f 1 4 12
f 1 12 5
f 1 5 16
f 1 16 6
f 1 6 9
f 1 9 2
f 2 7 8
f 2 8 3
f 2 9 20
f 2 20 7
f 3 8 10
f 3 10 11
f 3 11 4
f 4 11 13
f 4 13 26
f 4 26 12
f 5 12 14
f 5 14 15
f 5 15 34
f 5 34 16
f 6 16 36
f 6 36 17
f 6 17 18
f 6 18 9
f 7 19 21
f 7 21 8
f 7 20 42
f 7 42 19
f 8 21 22
f 8 22 10
f 9 18 23
f 9 23 20
f 10 24 25
f 10 25 11
f 10 22 24
f 11 25 13
f 12 26 27
f 12 27 14
f 13 25 28
f 13 28 29
f 13 29 30
f 13 30 49
f 13 49 26
f 14 31 15
f 14 27 32
f 14 32 31
f 15 31 33
f 15 33 58
f 15 58 34
f 16 34 35
f 16 35 36
f 17 36 62
f 17 62 37
f 17 37 38
f 17 38 18
f 18 38 39
f 18 39 23
f 19 40 41
f 19 41 21
f 19 42 67
f 19 67 40
f 20 23 42
f 21 41 22
f 22 41 43
f 22 43 44
f 22 44 45
f 22 45 24
f 23 39 46
f 23 46 47
f 23 47 42
f 24 45 25
f 25 45 48
f 25 48 28
f 26 49 50
f 26 50 51
f 26 51 27
f 27 51 32
f 28 48 52
f 28 52 53
f 28 53 29
f 29 53 30
f 30 53 49
f 31 32 54
f 31 54 55
f 31 55 57
f 31 57 33
f 32 51 56
f 32 56 54
f 33 57 91
f 33 91 58
f 34 58 59
f 34 59 35
f 35 59 60
f 35 60 61
f 35 61 36
f 36 61 62
f 37 62 97
f 37 97 63
f 37 63 64
f 37 64 38
f 38 64 39
f 39 64 65
f 39 65 46
f 40 66 41
f 40 67 76
f 40 76 66
f 41 66 43
f 42 47 67
f 43 66 101
f 43 101 68
f 43 68 69
f 43 69 44
f 44 70 45
f 44 69 71
f 44 71 70
f 45 70 72
f 45 72 73
f 45 73 48
f 46 65 74
f 46 74 47
f 47 74 75
f 47 75 76
f 47 76 67
f 48 73 77
f 48 77 52
f 49 53 78
f 49 78 50
f 50 78 79
f 50 79 80
f 50 80 81
f 50 81 51
f 51 82 56
f 51 81 83
f 51 83 84
f 51 84 82
f 52 77 73
f 52 73 72
f 52 72 70
f 52 70 71
f 52 71 69
f 52 69 68
f 52 68 101
f 52 101 102
f 52 102 105
f 52 105 137
f 52 137 155
f 52 155 135
f 52 135 134
f 52 134 131
f 52 131 130
f 52 130 143
f 52 143 158
f 52 158 157
f 52 157 156
f 52 156 139
f 52 139 138
f 52 138 111
f 52 111 110
f 52 110 113
f 52 113 108
f 52 108 83
f 52 83 81
f 52 81 80
f 52 80 107
f 52 107 109
f 52 109 85
f 52 85 86
f 52 86 53
f 53 86 78
f 54 87 88
f 54 88 55
f 54 56 82
f 54 82 89
f 54 89 87
f 55 88 57
f 57 88 90
f 57 90 114
f 57 114 91
f 58 91 59
f 59 92 60
f 59 91 93
f 59 93 92
f 60 94 95
f 60 95 61
f 60 92 94
f 61 95 62
f 62 95 96
f 62 96 97
f 63 97 119
f 63 119 98
f 63 98 99
f 63 99 64
f 64 99 100
f 64 100 65
f 65 100 74
f 66 76 105
f 66 105 102
f 66 102 101
f 74 103 104
f 74 104 75
f 74 100 132
f 74 132 103
f 75 104 105
f 75 105 76
f 78 86 106
f 78 106 80
f 78 80 79
f 80 106 107
f 82 108 89
f 82 84 83
f 82 83 108
f 85 109 86
f 86 109 107
f 86 107 106
f 87 110 111
f 87 111 112
f 87 112 88
f 87 89 113
f 87 113 110
f 88 112 90
f 89 108 113
f 90 112 117
f 90 117 114
f 91 114 93
f 92 93 115
f 92 115 94
f 93 116 115
f 93 114 117
f 93 117 116
f 94 115 118
f 94 118 95
f 95 119 96
f 95 118 119
f 96 119 97
f 98 119 120
f 98 120 99
f 99 120 121
f 99 121 122
f 99 122 123
f 99 123 124
f 99 124 125
f 99 125 126
f 99 126 127
f 99 127 128
f 99 128 129
f 99 129 130
f 99 130 100
f 100 130 131
f 100 131 132
f 103 133 136
f 103 136 104
f 103 132 134
f 103 134 135
f 103 135 133
f 104 136 105
f 105 136 137
f 111 138 112
f 112 138 139
f 112 139 117
f 115 116 141
f 115 141 140
f 115 140 142
f 115 142 118
f 116 139 141
f 116 117 139
f 118 142 143
f 118 143 119
f 119 143 144
f 119 144 145
f 119 145 146
f 119 146 147
f 119 147 148
f 119 148 149
f 119 149 150
f 119 150 151
f 119 151 152
f 119 152 153
f 119 153 154
f 119 154 120
f 120 154 153
f 120 153 152
f 120 152 151
f 120 151 150
f 120 150 149
f 120 149 148
f 120 148 147
f 120 147 146
f 120 146 145
f 120 145 144
f 120 144 143
f 120 143 130
f 120 130 129
f 120 129 128
f 120 128 127
f 120 127 126
f 120 126 125
f 120 125 124
f 120 124 123
f 120 123 122
f 120 122 121
f 131 134 132
f 133 135 155
f 133 155 136
f 136 155 137
f 139 156 141
f 140 141 156
f 140 156 157
f 140 157 158
f 140 158 142
f 142 158 143

