# https://github.com/mikedh/trimesh
v 1.37710865 10.20082533 41.48251152
v 1.36377434 10.20082533 39.47890884
v 1.35043929 10.20082533 41.75727701
v 7.26424451 3.79595011 39.47890884
v -4.49335952 10.20082533 39.47890884
v 1.23376395 10.20082533 42.24036670
v 7.19757224 3.30726132 40.31492060
v 7.32091512 3.67072336 39.47890884
v -4.49335952 10.20082533 39.49965125
v -24.51162045 10.04963741 39.47890884
v 0.48370357 10.20082533 42.46432519
v 7.18090380 0.28808173 41.17768741
v 7.49092842 2.49939784 39.50025177
v 7.32758189 3.58367562 39.57330173
v 7.34425033 3.57604027 39.47890884
v -4.44002193 10.20082533 40.50010031
v -24.51162045 10.04963741 40.50010031
v -25.31835144 10.02520323 39.47890884
v 0.23701782 10.20082533 42.48957670
v 0.48370357 4.49996702 42.49408579
v 7.18090380 -0.30292608 41.17768741
v 7.32758189 -0.58086775 40.57525432
v 7.57760252 -0.49992874 39.50025177
v 7.31424834 0.57365913 40.55871999
v 7.55093391 0.50035585 39.50025177
v 7.49426181 2.49939784 39.47890884
v -4.32667961 10.20082533 40.93058294
v -25.33501987 10.02367586 40.50010031
v -25.22834544 10.01603976 41.02948344
v -24.51162045 10.02367586 41.04451573
v -2.51653497 10.20082533 42.52775347
v -2.80322437 10.20082533 42.44838989
v -3.33326687 10.20082533 42.25268996
v -4.21333690 10.20082533 41.21045506
v -25.34502004 10.02367586 39.47890884
v -0.81639965 10.20082533 42.54969990
v -0.51637595 4.49996702 42.54969990
v -0.41636755 -5.40055931 42.54428780
v 0.48370357 -5.40055931 42.49408579
v 6.48418213 -3.49925533 40.63207096
v 7.22424085 -3.49925533 40.34197664
v 7.49426181 -3.49925533 39.50025177
v 7.58093591 -0.49992874 39.47890884
v -25.83505963 9.97022539 40.50010031
v -25.54170345 9.67243090 41.41758120
v -24.51162045 9.63883325 41.54444075
v -1.81647916 10.20082533 42.54398680
v -25.51169996 9.10433009 42.09727085
v -24.51162045 9.13792774 42.12823546
v -24.51162045 8.49957764 42.40329897
v -25.83505963 9.97022539 39.47890884
v -1.51645546 10.20082533 42.54969990
v -0.51637595 -5.40055931 42.54969990
v 1.16709168 -5.40055931 42.21902227
v 7.12089981 -4.10095304 40.16100651
v 7.49426181 -3.49925533 39.47890884
v 7.20090563 -4.20632660 39.50025177
v 7.20090563 -4.21243533 39.47890884
v -26.23509173 9.48153660 39.47890884
v -26.24175851 9.47084650 40.50010031
v -26.15841930 9.27079022 41.49994886
v -26.05507677 9.04782563 42.04406178
v -25.51169996 8.49957764 42.33806467
v -24.51162045 7.49929398 42.54969990
v -24.51162045 -5.40055931 42.54969990
v 1.19042690 -5.40055931 42.14747584
v 4.54402710 -5.17912209 39.47890884
v 4.92739077 -4.98364717 39.94516319
v 6.48418213 -4.53924611 39.47890884
v 7.17757041 -4.22465280 39.47890884
v -26.24175851 9.47084650 39.47890884
v -26.24842678 9.44946706 39.47890884
v -26.47177731 8.49957764 40.50010031
v -26.36843626 8.49957764 41.49994886
v -26.13841747 8.49957764 42.13635063
v -25.51169996 7.49929398 42.48115754
v -25.41502570 -5.40055931 42.48807168
v 1.38710881 -5.40055931 41.40104687
v 1.59712578 -5.40055931 39.47890884
v -26.47177731 8.49957764 39.47890884
v -26.47511070 1.47926034 39.47890884
v -26.47177731 -5.40055931 40.50010031
v -26.46844392 -5.40055931 40.59960431
v -26.43510704 7.49929398 41.49994886
v -26.20508974 7.49929398 42.20609403
v -25.51169996 -5.40055931 42.48115754
v -26.47177731 -5.40055931 39.47890884
v -26.47511070 0.50035585 39.47890884
v -26.43510704 -5.40055931 41.49994886
v -26.20508974 -5.40055931 42.20609403
f 1 2 5
f 1 5 9
f 1 9 16
f 1 16 27
f 1 27 34
f 1 34 33
f 1 33 32
f 1 32 31
f 1 31 47
f 1 47 52
f 1 52 36
f 1 36 19
f 1 19 11
f 1 11 6
f 1 6 3
f 1 3 4
f 1 4 2
f 2 4 8
f 2 8 15
f 2 15 26
f 2 26 43
f 2 43 56
f 2 56 58
f 2 58 70
f 2 70 69
f 2 69 67
f 2 67 79
f 2 79 87
f 2 87 88
f 2 88 81
f 2 81 80
f 2 80 72
f 2 72 71
f 2 71 59
f 2 59 51
f 2 51 35
f 2 35 18
f 2 18 10
f 2 10 5
f 3 6 4
f 4 7 8
f 4 6 7
f 5 10 17
f 5 17 9
f 6 11 12
f 6 12 7
f 7 12 13
f 7 13 14
f 7 14 8
f 8 14 15
f 9 17 16
f 10 18 17
f 11 19 20
f 11 20 12
f 12 21 22
f 12 22 23
f 12 23 24
f 12 24 13
f 12 20 39
f 12 39 21
f 13 25 26
f 13 26 15
f 13 15 14
f 13 24 25
f 16 17 27
f 17 18 28
f 17 28 29
f 17 29 30
f 17 30 31
f 17 31 32
f 17 32 33
f 17 33 34
f 17 34 27
f 18 35 28
f 19 36 20
f 20 36 37
f 20 37 38
f 20 38 39
f 21 40 41
f 21 41 42
f 21 42 22
f 21 39 40
f 22 42 23
f 23 43 25
f 23 25 24
f 23 42 43
f 25 43 26
f 28 35 44
f 28 44 29
f 29 44 45
f 29 45 46
f 29 46 31
f 29 31 30
f 31 46 48
f 31 48 49
f 31 49 50
f 31 50 47
f 35 51 44
f 36 52 64
f 36 64 65
f 36 65 53
f 36 53 37
f 37 53 38
f 38 53 65
f 38 65 77
f 38 77 86
f 38 86 90
f 38 90 89
f 38 89 83
f 38 83 82
f 38 82 87
f 38 87 79
f 38 79 78
f 38 78 66
f 38 66 54
f 38 54 39
f 39 54 41
f 39 41 40
f 41 54 55
f 41 55 42
f 42 56 43
f 42 55 57
f 42 57 58
f 42 58 56
f 44 51 59
f 44 59 60
f 44 60 61
f 44 61 45
f 45 48 46
f 45 61 62
f 45 62 48
f 47 50 52
f 48 62 63
f 48 63 50
f 48 50 49
f 50 63 64
f 50 64 52
f 54 66 67
f 54 67 68
f 54 68 55
f 55 68 69
f 55 69 70
f 55 70 58
f 55 58 57
f 59 71 60
f 60 71 72
f 60 72 73
f 60 73 74
f 60 74 61
f 61 74 62
f 62 74 75
f 62 75 63
f 63 75 76
f 63 76 64
f 64 76 77
f 64 77 65
f 66 78 67
f 67 69 68
f 67 78 79
f 72 80 73
f 73 80 81
f 73 81 88
f 73 88 82
f 73 82 83
f 73 83 84
f 73 84 74
f 74 84 85
f 74 85 75
f 75 85 76
f 76 85 90
f 76 90 86
f 76 86 77
f 82 88 87
f 83 89 84
f 84 89 90
f 84 90 85

