# https://github.com/mikedh/trimesh
v -2.65791549 -41.03053502 15.81287075
v -3.47229062 -41.03053502 16.50751591
v -2.65791549 -37.48572399 16.23542043
v -2.65791549 -41.03053502 48.51244274
v -3.55431215 -41.03053502 16.69318158
v -3.13719636 -37.48294641 16.80201978
v -2.73474577 -37.48294641 16.30264410
v -2.65791549 -37.48294641 16.25782733
v -2.65791549 -37.48641838 48.47082673
v -3.08593290 -41.03053502 48.41640763
v -3.87863457 -41.03053502 17.50306797
v -3.36729789 -37.48294641 17.50306797
v -2.65791549 -37.48294641 48.37479163
v -3.23245554 -37.48294641 48.25635112
v -3.44464731 -41.03053502 48.29156558
v -3.89109363 -41.03053502 17.59910307
v -3.36911483 -37.48294641 17.51907332
v -3.24491451 -37.48294641 48.24994957
v -3.85345717 -41.03053502 47.58731512
v -3.98284874 -41.03053502 18.50182229
v -3.47488627 -37.48294641 18.50182229
v -3.47112261 -37.48294641 47.51048764
v -3.89485730 -41.03053502 47.49768455
v -3.98375716 -41.03053502 19.50057513
v -3.47501605 -37.48294641 37.49734418
v -3.47501605 -37.48294641 47.49768455
v -3.98219980 -41.03053502 46.49893023
v -3.98271892 -41.03053502 45.50017590
f 1 2 3
f 1 3 8
f 1 8 13
f 1 13 9
f 1 9 4
f 1 4 10
f 1 10 15
f 1 15 19
f 1 19 23
f 1 23 27
f 1 27 28
f 1 28 24
f 1 24 20
f 1 20 16
f 1 16 11
f 1 11 5
f 1 5 2
f 2 5 6
f 2 6 7
f 2 7 3
f 3 7 8
f 4 9 10
f 5 11 6
f 6 11 12
f 6 12 17
f 6 17 21
f 6 21 25
f 6 25 26
f 6 26 22
f 6 22 18
f 6 18 14
f 6 14 13
f 6 13 8
f 6 8 7
f 9 13 14
f 9 14 15
f 9 15 10
f 11 16 12
f 12 16 17
f 14 18 15
f 15 18 19
f 16 20 21
f 16 21 17
f 18 22 23
f 18 23 19
f 20 24 21
f 21 24 25
f 22 26 23
f 23 26 27
f 24 28 26
f 24 26 25
f 26 28 27

