# https://github.com/mikedh/trimesh
v -2.65758452 39.84654546 21.64293861
v 2.46766056 39.84654546 21.64293861
v -2.65758452 39.84654546 25.35886055
v -2.65758452 50.54476261 21.64293861
v 1.70637662 39.84864056 25.35886055
v 1.59697640 39.84654546 25.06238705
v 2.46916632 47.49905467 21.64293861
v -0.20360914 39.84654546 25.35886055
v -2.65758452 50.55000186 25.35886055
v -2.65758452 50.55000186 22.50034696
v -2.65708272 50.55000186 21.64293861
v 1.70637662 47.49905467 25.35886055
v 2.45963144 48.45771492 21.64293861
v 1.70085649 48.49962294 25.35886055
v -1.51440338 50.55000186 25.35886055
v -1.51440338 50.55000186 21.64293861
v 2.45862785 48.49962294 21.64293861
v 1.52270491 49.50962067 25.35886055
v -0.51474725 50.54686069 25.35886055
v -0.51474725 50.54895282 21.64293861
v 1.99844460 49.49914217 21.64293861
v 1.46499346 49.60601032 25.35886055
v 0.49795653 50.34569502 25.35886055
v 0.34188586 50.46303868 21.64293861
v 1.35760079 50.16025305 21.64293861
v 1.11722159 50.07748008 25.35886055
v 1.29738073 50.19692183 21.64293861
v 0.49795653 50.42322874 21.64293861
f 1 2 6
f 1 6 8
f 1 8 3
f 1 3 9
f 1 9 10
f 1 10 4
f 1 4 11
f 1 11 16
f 1 16 20
f 1 20 24
f 1 24 28
f 1 28 27
f 1 27 25
f 1 25 21
f 1 21 17
f 1 17 13
f 1 13 7
f 1 7 2
f 2 5 6
f 2 7 5
f 3 8 5
f 3 5 12
f 3 12 14
f 3 14 18
f 3 18 22
f 3 22 26
f 3 26 23
f 3 23 19
f 3 19 15
f 3 15 9
f 4 10 11
f 5 8 6
f 5 7 12
f 7 13 14
f 7 14 12
f 9 15 16
f 9 16 11
f 9 11 10
f 13 17 14
f 14 17 18
f 15 19 20
f 15 20 16
f 17 21 18
f 18 21 22
f 19 23 24
f 19 24 20
f 21 25 26
f 21 26 22
f 23 26 27
f 23 27 28
f 23 28 24
f 25 27 26

