# https://github.com/mikedh/trimesh
v -29.52985311 -45.51653118 46.49726725
v -29.53378106 -42.50026189 46.49726725
v -29.79520432 -42.51315736 47.54225099
v -29.97105608 -43.05741389 48.03288116
v -30.60302689 -45.51653118 47.49764879
v -29.52985311 -45.51653118 45.50962921
v -29.53221048 -42.50026189 2.50600406
v -29.53299428 -42.50026189 44.49650419
v -29.82660706 -41.83449521 46.49726725
v -29.88940955 -41.88997527 47.23640136
v -29.97105608 -42.85502611 48.03288116
v -31.51526200 -43.50008611 48.44067867
v -31.56314842 -45.51653118 48.11571382
v -29.53063989 -45.51653118 -14.49409386
v -29.53221048 -42.50026189 -14.49409386
v -29.82424969 -41.83097853 -8.49818386
v -29.82582027 -41.83332398 30.49754789
v -29.82503647 -41.83215274 11.50305828
v -30.51510101 -41.59694364 45.49688572
v -30.51510101 -41.59733405 46.49726725
v -30.53629644 -41.82121230 47.54225099
v -30.88407500 -41.97085289 48.02650942
v -30.21756326 -42.18847861 47.90544630
v -30.53629644 -42.51315736 48.14120079
v -31.51526200 -42.50026189 48.31324381
v -32.51463622 -43.50008611 48.53626078
v -33.51480019 -45.51653118 48.54263252
v -32.51463622 -45.51653118 48.38970473
v -32.24457922 -45.51653118 48.31324381
v -29.94122392 -45.51653118 -15.09942136
v -29.96006497 -43.07694933 -16.04245721
v -29.78892198 -42.44165556 -15.57730805
v -29.88783897 -41.88724239 -15.29695136
v -29.82424969 -41.83097853 -14.49409386
v -30.51510101 -41.59342994 -8.49818386
v -30.51510101 -41.59382035 -0.49513756
v -29.82503647 -41.83136894 2.50600406
v -29.82503647 -41.83175935 8.50191629
v -30.51510101 -41.59616281 34.49906955
v -31.51526200 -41.52505440 46.49726725
v -31.51526200 -41.71728256 47.49764879
v -31.51526200 -41.95483413 48.04562464
v -32.51463622 -42.50026189 48.31961555
v -33.51480019 -43.50008611 48.54263252
v -35.51433540 -45.51653118 48.54900426
v -30.90919838 -45.51653118 -15.73660758
v -31.56314842 -45.51653118 -16.11891812
v -31.60083350 -45.51653118 -16.13166161
v -31.51526200 -43.50008611 -16.43113949
v -29.96006497 -42.73625181 -16.04245721
v -30.16967386 -42.06931092 -15.96599629
v -30.50803487 -41.82824267 -15.57730805
v -30.51510101 -41.59342994 -14.49409386
v -30.51510101 -41.59460117 11.50305828
v -30.51510101 -41.59538199 23.49488238
v -35.51433540 -41.52544481 46.49726725
v -33.51480019 -41.71376588 47.49764879
v -32.51463622 -41.71494009 47.49764879
v -31.51526200 -41.52544481 -14.49409386
v -35.51433540 -41.52544481 -14.49409386
v -32.51463622 -41.95248868 48.04562464
v -33.51480019 -41.95131745 48.04562464
v -36.51449639 -42.50026189 48.31961555
v -35.51433540 -45.49973159 48.54900426
v -36.51449639 -43.50008611 48.54263252
v -36.51449639 -45.51653118 48.54263252
v -32.51463622 -45.51653118 -16.39290903
v -33.49831353 -45.51653118 -16.53945912
v -32.51463622 -43.50008611 -16.53308738
v -31.51526200 -42.50026189 -16.28458344
v -30.50803487 -42.44165556 -16.13803335
v -30.83697238 -41.98452621 -16.01059849
v -31.51526200 -41.73994426 -15.49447539
v -36.51449639 -41.52583522 46.49726725
v -34.51417440 -41.71415629 47.49764879
v -36.51449639 -41.52583522 -14.49409386
v -34.51417440 -41.95170786 48.04562464
v -37.17629936 -42.50026189 48.15395024
v -36.51449639 -41.95561495 48.04562464
v -37.05147518 -41.97124330 48.02650942
v -37.28149868 -43.50008611 48.26864161
v -37.28149868 -45.51653118 48.26864161
v -33.51480019 -44.49990736 -16.53945912
v -35.51433540 -45.51653118 -16.54583086
v -34.51417440 -43.50008611 -16.53945912
v -35.51433540 -42.50026189 -16.28458344
v -31.51526200 -41.97749584 -16.02334198
v -32.51463622 -41.74111550 -15.49447539
v -37.26579582 -41.76299638 46.49726725
v -37.16844942 -41.85989277 47.49764879
v -36.51449639 -41.71845379 47.49764879
v -35.51433540 -41.71611132 47.49764879
v -33.51480019 -41.74268012 -15.49447539
v -34.51417440 -41.74463217 -15.49447539
v -35.51433540 -41.74736803 -15.49447539
v -36.51449639 -41.75049430 -15.49447539
v -37.14646720 -41.87630195 -15.49447539
v -37.26579582 -41.76338679 -14.49409386
v -37.26579582 -41.76299638 22.49450159
v -37.43615501 -42.50026189 47.49764879
v -37.54920129 -43.50008611 47.49764879
v -37.28620745 -45.51653118 48.25589812
v -36.51449639 -45.51653118 -16.53945912
v -36.51449639 -43.50008611 -16.53945912
v -36.51449639 -42.50026189 -16.27821170
v -36.51449639 -41.98765248 -16.01059849
v -34.51417440 -41.98179334 -16.01697024
v -37.53350142 -42.50026189 46.49726725
v -37.02242981 -41.99273378 -16.00422675
v -37.41417280 -42.50026189 -15.49447539
v -37.53350142 -42.50026189 -14.49409386
v -37.54920129 -45.51653118 47.49764879
v -37.54920129 -43.50008611 -15.49447539
v -37.26893699 -45.51653118 -16.27183996
v -37.28149868 -43.50008611 -16.26546821
v -37.15431714 -42.50026189 -16.13803335
v -37.54920129 -45.51653118 -15.49447539
v -37.28149868 -45.51653118 -16.26546821
f 1 2 3
f 1 3 4
f 1 4 5
f 1 5 13
f 1 13 29
f 1 29 28
f 1 28 27
f 1 27 45
f 1 45 66
f 1 66 82
f 1 82 102
f 1 102 112
f 1 112 117
f 1 117 118
f 1 118 114
f 1 114 103
f 1 103 84
f 1 84 68
f 1 68 67
f 1 67 48
f 1 48 47
f 1 47 46
f 1 46 30
f 1 30 14
f 1 14 6
f 1 6 15
f 1 15 7
f 1 7 8
f 1 8 2
f 2 9 10
f 2 10 3
f 2 8 9
f 3 11 4
f 3 10 11
f 4 11 12
f 4 12 13
f 4 13 5
f 6 14 15
f 7 15 34
f 7 34 16
f 7 16 8
f 8 17 9
f 8 16 18
f 8 18 17
f 9 19 20
f 9 20 10
f 9 17 19
f 10 20 21
f 10 21 22
f 10 22 23
f 10 23 11
f 11 23 24
f 11 24 12
f 12 24 25
f 12 25 26
f 12 26 27
f 12 27 28
f 12 28 29
f 12 29 13
f 14 30 31
f 14 31 32
f 14 32 15
f 15 32 33
f 15 33 34
f 16 34 53
f 16 53 35
f 16 35 36
f 16 36 37
f 16 37 38
f 16 38 18
f 17 18 38
f 17 38 19
f 19 39 40
f 19 40 20
f 19 38 39
f 20 40 41
f 20 41 21
f 21 41 22
f 22 41 42
f 22 42 25
f 22 25 24
f 22 24 23
f 25 42 43
f 25 43 26
f 26 43 44
f 26 44 27
f 27 44 64
f 27 64 45
f 30 46 31
f 31 46 47
f 31 47 48
f 31 48 49
f 31 49 50
f 31 50 32
f 32 50 51
f 32 51 33
f 33 51 52
f 33 52 53
f 33 53 34
f 35 53 40
f 35 40 36
f 36 54 37
f 36 40 54
f 37 54 55
f 37 55 38
f 38 55 39
f 39 55 40
f 40 56 57
f 40 57 58
f 40 58 41
f 40 55 54
f 40 53 59
f 40 59 60
f 40 60 56
f 41 58 61
f 41 61 42
f 42 61 43
f 43 61 62
f 43 62 63
f 43 63 65
f 43 65 44
f 44 65 64
f 45 64 65
f 45 65 66
f 48 67 49
f 49 67 68
f 49 68 69
f 49 69 70
f 49 70 71
f 49 71 50
f 50 71 51
f 51 72 52
f 51 71 70
f 51 70 72
f 52 72 73
f 52 73 53
f 53 73 59
f 56 74 57
f 56 60 76
f 56 76 74
f 57 74 75
f 57 75 77
f 57 77 62
f 57 62 61
f 57 61 58
f 59 73 60
f 60 73 76
f 62 77 63
f 63 78 65
f 63 77 79
f 63 79 80
f 63 80 78
f 65 78 81
f 65 81 82
f 65 82 66
f 68 83 69
f 68 84 83
f 69 83 85
f 69 85 70
f 70 86 87
f 70 87 72
f 70 85 104
f 70 104 86
f 72 87 73
f 73 87 88
f 73 88 76
f 74 89 90
f 74 90 91
f 74 91 92
f 74 92 75
f 74 76 99
f 74 99 89
f 75 92 79
f 75 79 77
f 76 88 93
f 76 93 94
f 76 94 95
f 76 95 96
f 76 96 97
f 76 97 98
f 76 98 99
f 78 80 100
f 78 100 81
f 79 92 91
f 79 91 80
f 80 91 90
f 80 90 100
f 81 100 101
f 81 101 102
f 81 102 82
f 83 84 85
f 84 103 104
f 84 104 85
f 86 104 105
f 86 105 106
f 86 106 107
f 86 107 87
f 87 107 94
f 87 94 93
f 87 93 88
f 89 108 100
f 89 100 90
f 89 99 111
f 89 111 108
f 94 107 95
f 95 107 96
f 96 107 106
f 96 106 109
f 96 109 97
f 97 110 98
f 97 109 110
f 98 110 111
f 98 111 99
f 100 108 101
f 101 112 102
f 101 108 111
f 101 111 113
f 101 113 117
f 101 117 112
f 103 114 104
f 104 114 115
f 104 115 116
f 104 116 105
f 105 116 109
f 105 109 106
f 109 116 110
f 110 113 111
f 110 116 115
f 110 115 113
f 113 115 118
f 113 118 117
f 114 118 115

