# https://github.com/mikedh/trimesh
v -24.51393907 -22.50435054 21.45093194
v -24.51393907 -23.50018471 21.59655204
v -25.51300530 -23.50018471 21.66183031
v -25.51300530 -22.50435054 21.51945902
v -5.50709372 -22.50435054 21.45093194
v -5.50709372 -22.51208127 21.45181781
v -24.51393907 -24.13888425 21.87154739
v -25.51300530 -24.10546541 21.90256192
v -5.51529904 -23.50018471 21.59655204
v -5.50709372 -23.50517213 21.59861995
v -26.05459248 -24.04810488 21.95572963
v -26.13870208 -23.50018471 21.86357228
v -26.20434915 -22.50435054 21.79415895
v -5.50709372 -22.50435054 24.46819878
v -24.51393907 -24.63867217 22.45550564
v -5.51529904 -24.13888425 21.87154739
v -5.50709372 -24.63892102 22.45521060
v -25.54172580 -24.67283905 22.58222213
v -5.50709372 -24.14262593 21.87597787
v -26.15921800 -24.27181304 22.50010780
v -26.36846607 -23.50018471 22.50010780
v -26.43411462 -22.50435054 22.50010780
v -5.50709372 -25.05216897 24.46819878
v -26.45052527 -22.50435054 24.46819878
v -24.51393907 -25.02498627 22.95557743
v -25.22785072 -25.01650453 22.97005093
v -5.51529904 -25.02548397 22.95557743
v -5.50709372 -25.02648234 22.95941746
v -25.83508496 -24.97136444 23.49995559
v -26.24332761 -24.47132766 23.49995559
v -26.46283512 -23.50018471 23.49995559
v -26.44847338 -22.50435054 23.49995559
v -24.51393907 -25.04992485 24.46819878
v -5.50709372 -25.05216897 23.50763565
v -26.46488552 -23.50018471 24.46819878
v -24.51393907 -25.04992485 23.49995559
v -5.50709372 -25.05191863 23.49995559
v -25.33452814 -25.02498627 23.49995559
v -25.83508496 -24.97136444 24.46819878
v -26.24332761 -24.47132766 24.46819878
v -24.54060917 -25.04917681 24.46819878
v -25.33452814 -25.02498627 24.46819878
f 1 2 3
f 1 3 4
f 1 4 13
f 1 13 22
f 1 22 32
f 1 32 24
f 1 24 14
f 1 14 5
f 1 5 6
f 1 6 2
f 2 7 8
f 2 8 3
f 2 6 9
f 2 9 10
f 2 10 7
f 3 8 11
f 3 11 12
f 3 12 4
f 4 12 13
f 5 14 23
f 5 23 34
f 5 34 37
f 5 37 28
f 5 28 17
f 5 17 19
f 5 19 10
f 5 10 6
f 6 10 9
f 7 15 8
f 7 10 16
f 7 16 17
f 7 17 15
f 8 15 18
f 8 18 11
f 10 19 16
f 11 20 21
f 11 21 12
f 11 18 20
f 12 21 13
f 13 21 22
f 14 24 35
f 14 35 40
f 14 40 39
f 14 39 42
f 14 42 41
f 14 41 33
f 14 33 23
f 15 25 26
f 15 26 18
f 15 17 27
f 15 27 25
f 16 19 17
f 17 28 27
f 18 26 29
f 18 29 20
f 20 30 21
f 20 29 30
f 21 30 31
f 21 31 22
f 22 31 32
f 23 33 36
f 23 36 34
f 24 32 31
f 24 31 35
f 25 36 26
f 25 27 28
f 25 28 37
f 25 37 36
f 26 36 38
f 26 38 29
f 29 39 40
f 29 40 30
f 29 38 42
f 29 42 39
f 30 40 35
f 30 35 31
f 33 41 36
f 34 36 37
f 36 41 38
f 38 41 42

