# https://github.com/mikedh/trimesh
v 7.68480660 -37.48294045 32.11906559
v 24.47351195 -37.48294045 32.11906559
v 7.68480660 -37.48294045 35.76186527
v 7.68480660 40.39370054 32.11906559
v 28.31179867 -37.48294045 34.78163013
v 24.47351195 40.39370054 32.11906559
v 28.31396829 16.49557392 34.78083738
v 14.09929809 -37.48294045 36.16679728
v 7.68480660 26.49695886 35.76305438
v 7.68480660 40.39370054 35.76305438
v 28.81272854 -37.48294045 35.15684622
v 28.31179867 40.39370054 34.78123375
v 28.31396829 29.49280162 34.78083738
v 29.83626948 -37.48294045 36.16679728
v 14.09929809 40.39370054 36.16679728
v 29.31799465 -37.48294045 35.64815141
v 28.81272854 40.39370054 35.15684622
v 28.36601213 40.39370054 34.82125086
v 29.82759700 -37.48294045 36.15689247
v 29.83843909 -18.51689905 36.16679728
v 29.83626948 40.39370054 36.16679728
v 29.81892153 -37.48294045 36.14817528
v 29.32666713 40.39370054 35.65686860
v 29.38088059 40.39370054 35.70996149
v 29.83843909 -15.49818894 36.16679728
v 29.82759700 40.39370054 36.15689247
f 1 2 5
f 1 5 11
f 1 11 16
f 1 16 22
f 1 22 19
f 1 19 14
f 1 14 8
f 1 8 3
f 1 3 9
f 1 9 10
f 1 10 4
f 1 4 6
f 1 6 2
f 2 6 13
f 2 13 7
f 2 7 5
f 3 8 9
f 4 10 15
f 4 15 21
f 4 21 26
f 4 26 24
f 4 24 23
f 4 23 17
f 4 17 18
f 4 18 12
f 4 12 6
f 5 7 11
f 6 12 13
f 7 13 17
f 7 17 11
f 8 14 20
f 8 20 25
f 8 25 21
f 8 21 15
f 8 15 10
f 8 10 9
f 11 17 16
f 12 18 13
f 13 18 17
f 14 19 20
f 16 20 22
f 16 17 23
f 16 23 24
f 16 24 20
f 19 22 20
f 20 24 25
f 21 25 26
f 24 26 25

