# https://github.com/mikedh/trimesh
v -24.73343267 10.66473021 25.37052250
v -4.52509883 10.66473021 25.38932257
v -24.73343267 10.66473021 31.54974528
v -24.73343267 30.49846711 25.47157185
v -4.52509883 10.66473021 36.12511869
v -4.52509883 30.49846711 25.54441998
v -23.63558552 10.66473021 31.80119071
v -21.75440440 12.11076421 32.93857217
v -22.51399782 12.29495839 32.85397372
v -24.73343267 12.48550495 32.43685552
v -24.73343267 30.75252919 25.50682058
v -4.52509883 31.49989173 25.67014344
v -4.52509883 30.50905291 25.54559493
v -4.52509883 12.72051140 37.14500140
v -22.51399782 12.79461197 33.08426991
v -23.10149607 12.94916697 33.01964500
v -24.73343267 13.50175027 32.70475036
v -24.73343267 31.49989173 25.65486824
v -4.52509883 32.10964190 25.89808971
v -4.52509883 12.72686228 37.14735131
v -4.52509883 13.49116448 37.33299911
v -4.52509883 13.50175027 37.33417332
v -4.52509883 14.50105892 37.37412337
v -24.73343267 14.28298915 32.72707531
v -24.73343267 32.01648571 25.89926392
v -4.52509883 32.25572707 26.50085421
v -24.73343267 14.50105892 32.73295084
v -4.52509883 28.49984982 37.36472371
v -24.73343267 28.49984982 32.73295084
v -24.73343267 32.04188923 26.50085421
v -4.52509883 32.29383534 27.50076263
v -4.52509883 29.48433775 37.33417332
v -24.73343267 29.28108869 32.71062590
v -24.73343267 32.04400818 26.71940083
v -4.52509883 32.29383534 27.51133725
v -24.73343267 32.04824309 27.50076263
v -24.73343267 29.49915846 32.70357615
v -4.52509883 29.49915846 37.33299911
v -4.52509883 32.29171640 33.51196199
v -24.73343267 32.04824309 29.50057873
v -23.09951869 30.04962580 33.01847079
v -24.73343267 30.28039734 32.50030473
v -4.52509883 30.39472512 37.15087693
v -4.52509883 32.27477972 34.50012157
v -24.73343267 32.04400818 29.63570111
v -22.51399782 30.20841273 33.08426991
v -24.73343267 30.51540379 32.43802974
v -4.52509883 30.84992030 36.93468023
v -21.77022945 30.89437945 32.94209630
v -4.52509883 32.12022770 35.40015560
v -24.73343267 32.02283659 30.17854351
v -23.03819736 31.99954605 31.00455446
v -24.73343267 31.11456519 32.10668569
v -21.10360744 31.02140899 33.01847079
v -4.52509883 31.44696275 36.44823878
v -23.42788399 31.77936031 31.40169763
v -4.52509883 31.92968040 35.81609810
v -24.73343267 31.94026619 30.67908445
v -24.51386384 31.13785573 32.13018485
v -24.73343267 31.54223491 31.51802068
v -23.51294288 31.23947877 32.24063385
v -24.51386384 31.59093195 31.49922136
f 1 2 5
f 1 5 7
f 1 7 3
f 1 3 10
f 1 10 17
f 1 17 24
f 1 24 27
f 1 27 29
f 1 29 33
f 1 33 37
f 1 37 42
f 1 42 47
f 1 47 53
f 1 53 60
f 1 60 58
f 1 58 51
f 1 51 45
f 1 45 40
f 1 40 36
f 1 36 34
f 1 34 30
f 1 30 25
f 1 25 18
f 1 18 11
f 1 11 4
f 1 4 2
f 2 4 6
f 2 6 13
f 2 13 12
f 2 12 19
f 2 19 26
f 2 26 31
f 2 31 35
f 2 35 39
f 2 39 44
f 2 44 50
f 2 50 57
f 2 57 55
f 2 55 48
f 2 48 43
f 2 43 38
f 2 38 32
f 2 32 28
f 2 28 23
f 2 23 22
f 2 22 21
f 2 21 20
f 2 20 14
f 2 14 5
f 3 7 8
f 3 8 9
f 3 9 10
f 4 11 12
f 4 12 13
f 4 13 6
f 5 14 7
f 7 14 8
f 8 14 9
f 9 14 10
f 10 14 15
f 10 15 16
f 10 16 17
f 11 18 12
f 12 18 19
f 14 20 16
f 14 16 15
f 16 20 21
f 16 21 22
f 16 22 17
f 17 22 23
f 17 23 24
f 18 25 19
f 19 25 26
f 23 27 24
f 23 28 29
f 23 29 27
f 25 30 26
f 26 30 31
f 28 32 33
f 28 33 29
f 30 34 31
f 31 34 36
f 31 36 40
f 31 40 35
f 32 37 33
f 32 38 37
f 35 40 39
f 37 38 41
f 37 41 42
f 38 43 41
f 39 40 44
f 40 45 44
f 41 43 46
f 41 46 47
f 41 47 42
f 43 48 49
f 43 49 47
f 43 47 46
f 44 45 51
f 44 51 52
f 44 52 50
f 47 49 53
f 48 54 49
f 48 55 54
f 49 54 53
f 50 52 56
f 50 56 57
f 51 58 52
f 52 58 56
f 53 55 59
f 53 59 60
f 53 54 55
f 55 57 61
f 55 61 59
f 56 62 57
f 56 58 62
f 57 62 60
f 57 60 61
f 58 60 62
f 59 61 60

