# https://github.com/mikedh/trimesh
v 9.04583459 -37.48294045 28.49263559
v 14.10117415 -37.48294045 27.83461902
v 9.04583459 -37.48294045 32.11864686
v 9.04583459 9.93216454 28.49221613
v 29.82482538 -37.48294045 27.83461902
v 14.10117415 40.39370054 27.83461902
v 24.47438814 -37.48294045 32.11864686
v 9.04583459 40.39370054 32.11864686
v 9.04583459 22.49487990 28.49221613
v 29.83500288 -37.46007310 27.83461902
v 29.83500288 -37.48294045 27.83503849
v 9.04583459 40.39370054 28.49263559
v 29.83500288 40.39370054 27.83461902
v 28.81131591 -37.48294045 28.84324314
v 28.75840183 40.39370054 28.88350314
v 24.47438814 40.39370054 32.11864686
v 29.82686088 -37.48294045 27.84342636
v 29.82686088 40.39370054 27.84342636
v 29.32824666 -37.48294045 28.34333400
v 29.27329708 40.39370054 28.39659677
v 28.81131591 40.39370054 28.84324314
v 29.77394680 40.39370054 27.89668838
v 29.32824666 40.39370054 28.34333400
f 1 2 5
f 1 5 11
f 1 11 17
f 1 17 19
f 1 19 14
f 1 14 7
f 1 7 3
f 1 3 8
f 1 8 12
f 1 12 9
f 1 9 4
f 1 4 2
f 2 4 9
f 2 9 6
f 2 6 13
f 2 13 10
f 2 10 5
f 3 7 16
f 3 16 8
f 5 10 11
f 6 9 12
f 6 12 8
f 6 8 16
f 6 16 15
f 6 15 21
f 6 21 20
f 6 20 23
f 6 23 22
f 6 22 18
f 6 18 13
f 7 14 15
f 7 15 16
f 10 13 11
f 11 13 18
f 11 18 17
f 14 19 20
f 14 20 21
f 14 21 15
f 17 18 22
f 17 22 19
f 19 22 23
f 19 23 20

