# https://github.com/mikedh/trimesh
v -4.52509845 -7.82657908 24.51896721
v 1.42878911 -7.82657908 24.51896721
v -4.52509845 -7.82657908 32.11906559
v -4.52509845 7.63496791 24.51896721
v 6.48467926 -6.17992980 24.88055841
v 7.04526301 -6.09214884 24.95421493
v 7.01205350 -7.01384806 25.96384115
v 9.04583385 -7.82657908 28.70478737
v 7.19404380 -4.23512885 24.51896721
v 9.04583385 -7.82657908 32.11906559
v -4.52509845 7.63496791 32.11906559
v -0.49871884 7.63496791 24.51896721
v 7.50090447 -3.51926032 24.51896721
v 7.50488979 -3.49958556 24.51896721
v 7.57662331 -0.49990006 24.51896721
v 7.58725008 0.48082449 24.51896721
v 9.04583385 7.63496791 28.68916348
v 9.04583385 7.63496791 32.11906559
v 4.74048987 7.63496791 26.37528126
v 6.48467926 7.11887759 25.81652663
v 7.00806818 6.03372326 24.98769638
v 6.48467926 4.57171744 24.51896721
v 7.58725008 0.49898609 24.51896721
v 7.49957603 3.48202348 24.51896721
v 7.49824759 3.49867144 24.51896721
v 7.05323365 7.04320345 25.91027291
v 5.34491213 7.63496791 26.63642959
v 7.20599976 4.23270153 24.51896721
v 7.18474547 4.24329552 24.51896721
f 1 2 8
f 1 8 10
f 1 10 3
f 1 3 11
f 1 11 4
f 1 4 12
f 1 12 22
f 1 22 29
f 1 29 28
f 1 28 25
f 1 25 24
f 1 24 23
f 1 23 16
f 1 16 15
f 1 15 14
f 1 14 13
f 1 13 9
f 1 9 2
f 2 5 6
f 2 6 7
f 2 7 8
f 2 9 5
f 3 10 18
f 3 18 11
f 4 11 18
f 4 18 17
f 4 17 27
f 4 27 19
f 4 19 12
f 5 9 6
f 6 8 7
f 6 9 13
f 6 13 8
f 8 13 14
f 8 14 15
f 8 15 16
f 8 16 17
f 8 17 18
f 8 18 10
f 12 19 20
f 12 20 21
f 12 21 22
f 16 23 17
f 17 23 24
f 17 24 25
f 17 25 21
f 17 21 26
f 17 26 27
f 19 27 20
f 20 26 21
f 20 27 26
f 21 25 28
f 21 28 29
f 21 29 22

