# https://github.com/mikedh/trimesh
v -5.52810212 -5.40055931 26.38871258
v 7.54796038 -5.40055931 26.38871258
v -5.52810212 -5.40055931 36.35491318
v -5.52810212 32.04257190 26.38871258
v 11.01903613 -5.40055931 28.52516359
v 7.61598940 -2.49953568 26.38871258
v 7.53662283 -5.40055931 36.35491318
v -5.52810212 31.05489612 36.35491318
v -5.52810212 32.05142915 27.50083765
v -3.55851357 39.84654546 26.38871258
v 11.01903613 -5.40055931 35.47399378
v 7.62408818 -0.38688183 26.38871258
v 11.01903613 39.84654546 28.52516359
v 7.54634063 -5.26768714 36.35491318
v -3.55851357 39.84654546 36.35491318
v -5.52810212 31.23648763 36.23979872
v -5.52810212 32.05142915 33.50923842
v 3.19251227 39.84654546 26.38871258
v 7.61113013 -3.49607021 36.35491318
v 7.60141159 -4.49703485 36.35491318
v 11.01903613 8.50220695 35.47496831
v 7.62408818 0.50335526 26.38871258
v 7.61598940 2.50085443 26.38871258
v 7.53824259 5.51260337 26.38871258
v 7.52852405 5.61004207 26.38871258
v 11.01903613 39.84654546 35.47496831
v 6.17767121 39.84654546 36.35491318
v -5.52810212 32.02042580 34.47210526
v -5.52810212 31.98499382 34.87695789
v -5.52810212 31.76354170 35.41058338
v 7.61113013 3.64797562 36.35491318
v 7.59979184 4.50278074 36.35491318
f 1 2 5
f 1 5 11
f 1 11 7
f 1 7 3
f 1 3 8
f 1 8 16
f 1 16 30
f 1 30 29
f 1 29 28
f 1 28 17
f 1 17 9
f 1 9 4
f 1 4 10
f 1 10 18
f 1 18 25
f 1 25 24
f 1 24 23
f 1 23 22
f 1 22 12
f 1 12 6
f 1 6 2
f 2 6 5
f 3 7 14
f 3 14 20
f 3 20 19
f 3 19 31
f 3 31 32
f 3 32 27
f 3 27 15
f 3 15 8
f 4 9 10
f 5 6 12
f 5 12 22
f 5 22 13
f 5 13 26
f 5 26 21
f 5 21 11
f 7 11 14
f 8 15 16
f 9 17 15
f 9 15 10
f 10 15 27
f 10 27 26
f 10 26 13
f 10 13 18
f 11 19 20
f 11 20 14
f 11 21 19
f 13 22 23
f 13 23 24
f 13 24 25
f 13 25 18
f 15 17 28
f 15 28 29
f 15 29 30
f 15 30 16
f 19 21 26
f 19 26 31
f 26 27 32
f 26 32 31

