# https://github.com/mikedh/trimesh
v -3.47509712 21.49724615 47.49998827
v -3.47509712 21.78733331 47.49998827
v -3.47343788 -37.48294045 45.32287574
v -3.47343788 -37.48294045 47.49998827
v -3.47011938 -37.48294045 47.51294037
v -3.24447162 -37.48294045 48.25180328
v -3.27765504 21.78733331 46.50051273
v -3.47343788 -25.49660706 45.32287574
v -3.24447162 21.78733331 48.25180328
v 13.45178535 -37.48294045 45.32287574
v -2.51443616 -37.48294045 48.52662866
v -3.04703028 21.78733331 45.97613735
v -3.39877479 -24.67276423 45.32287574
v -2.51443616 21.78733331 48.52662866
v 13.47169481 -37.48294045 45.48334949
v 13.45178535 -25.49660706 45.32287574
v -1.51395479 -37.48294045 48.54968972
v -2.51443616 21.78733331 45.94517867
v -3.36725060 -24.49871253 45.32287574
v -1.51395479 21.78733331 48.54968972
v 13.47335332 -37.48294045 45.50040836
v 13.47335332 -25.49660706 45.50040836
v 13.34227959 -24.48711048 45.32287574
v 13.02205927 21.78733331 45.97329421
v 13.19627190 21.78733331 46.34667597
v 13.26761575 21.78733331 46.50051273
v 13.41694193 21.78733331 47.21284260
v 13.47335332 21.78733331 47.49998827
v 11.50225551 -37.48294045 48.54968972
v -1.51395479 21.78733331 45.93854467
v -3.12667037 -23.66906868 45.32287574
v -3.18142325 -23.79670620 45.32287574
v 11.48400455 21.78733331 48.54968972
v 13.47501331 -32.49927183 46.50051273
v 13.47335332 -37.48294045 47.49998827
v 13.09506311 -23.70387932 45.32287574
v 12.48448741 21.78733331 45.94201962
v 12.86609760 21.78733331 45.96002620
v 13.22945533 21.78733331 48.26001681
v 12.48448741 -37.48294045 48.53484218
v 12.48448741 21.78733331 48.53484218
v 11.77270143 21.78733331 48.54558295
v 10.48518317 21.78733331 45.93791286
v -1.51395479 -23.48921595 45.32287574
v -2.51443616 -23.50081950 45.32287574
v 13.22945533 -37.48294045 48.26001681
v 12.48448741 -23.50081950 45.32287574
v 12.19744903 21.78733331 45.93917648
v 12.49775989 -37.48294045 48.53010361
v 11.48400455 21.78733331 45.93791286
v 11.60014730 -23.48921595 45.32287574
f 1 2 8
f 1 8 3
f 1 3 4
f 1 4 5
f 1 5 6
f 1 6 9
f 1 9 2
f 2 7 8
f 2 9 14
f 2 14 20
f 2 20 33
f 2 33 42
f 2 42 41
f 2 41 39
f 2 39 28
f 2 28 27
f 2 27 26
f 2 26 25
f 2 25 24
f 2 24 38
f 2 38 37
f 2 37 48
f 2 48 50
f 2 50 43
f 2 43 30
f 2 30 18
f 2 18 12
f 2 12 7
f 3 10 15
f 3 15 21
f 3 21 35
f 3 35 46
f 3 46 49
f 3 49 40
f 3 40 29
f 3 29 17
f 3 17 11
f 3 11 6
f 3 6 5
f 3 5 4
f 3 8 13
f 3 13 19
f 3 19 32
f 3 32 31
f 3 31 45
f 3 45 44
f 3 44 51
f 3 51 47
f 3 47 36
f 3 36 23
f 3 23 16
f 3 16 10
f 6 11 14
f 6 14 9
f 7 12 8
f 8 12 13
f 10 16 15
f 11 17 20
f 11 20 14
f 12 18 19
f 12 19 13
f 15 16 22
f 15 22 21
f 16 23 24
f 16 24 25
f 16 25 26
f 16 26 27
f 16 27 28
f 16 28 22
f 17 29 33
f 17 33 20
f 18 30 31
f 18 31 32
f 18 32 19
f 21 34 35
f 21 22 34
f 22 28 34
f 23 36 37
f 23 37 38
f 23 38 24
f 28 39 46
f 28 46 35
f 28 35 34
f 29 40 41
f 29 41 42
f 29 42 33
f 30 43 44
f 30 44 45
f 30 45 31
f 36 47 48
f 36 48 37
f 39 41 49
f 39 49 46
f 40 49 41
f 43 50 51
f 43 51 44
f 47 51 50
f 47 50 48

