# https://github.com/mikedh/trimesh
v 6.48461742 50.54997278 46.49955011
v 10.48432040 50.54897738 47.49946673
v 10.48432040 50.54897738 44.49971390
v -0.51367794 50.54897738 40.07269362
v 3.48602465 50.54997278 46.49955011
v 11.48542910 50.27459308 48.27450671
v 11.48542910 50.54698659 47.49946673
v -2.65643245 50.54897738 47.49946673
v -2.65643245 50.51020452 47.60983080
v 11.48542910 50.53505968 45.49963052
v 11.48542910 50.50324865 44.49971390
v -0.08575863 50.44359626 40.07269362
v -2.65643245 50.54897738 40.07269362
v 11.46806029 50.20599403 43.43922102
v 11.12225167 50.02704878 42.97452784
v 11.48542910 49.49915077 48.54917414
v 12.48496127 49.49915077 48.43383009
v 12.48496127 50.16125474 48.16663114
v -2.65643245 50.27459308 48.27450671
v 12.48496127 50.31634618 47.49946673
v 12.48496127 50.29447125 45.49963052
v 12.52759503 50.19804276 44.54867321
v 12.22442016 50.13441474 43.73214239
v 0.48585310 50.30242848 40.07269362
v -2.65643245 40.39469594 40.07269362
v 11.78860546 49.90575917 43.06497798
v 11.48542910 40.39469594 48.54917414
v 12.37758637 40.39469594 48.53589719
v 12.48496127 48.50002689 48.53423720
v -2.65643245 49.49915077 48.54917414
v 3.48602465 42.50031262 48.55000264
v 13.22868792 48.50002689 48.25956977
v 13.12920767 49.49915077 48.15916267
v 13.01551765 50.03201981 48.03884163
v 13.02657135 50.04394671 47.49946673
v 13.01551765 50.03400465 45.49963052
v 13.00604349 50.02307315 44.91461928
v 12.89077395 49.86301067 44.24828337
v 12.50075056 49.55084891 43.47324339
v 0.71165547 50.18511450 40.07269362
v -2.65643245 40.39469594 48.48527789
v 1.37169302 40.39469594 40.07269362
v 12.11072866 49.23868417 42.91893155
v 11.46806029 49.54289466 42.84092985
v 1.01325156 50.02704878 40.07269362
v 3.48602465 40.39469594 48.55000264
v 12.48496127 40.39469594 48.53423720
v -2.65643245 43.50043190 48.54917414
v -0.61947331 40.39469594 48.55000264
v -0.51367794 40.50106948 48.55000264
v 13.22868792 40.39469594 48.25956977
v 13.47501778 40.50106948 47.49946673
v 13.47343825 48.50002689 47.49946673
v 13.27132168 49.49915077 47.49946673
v 13.26026798 49.49915077 45.49963052
v 13.14184089 49.51803950 44.54867321
v 13.06288849 49.19692809 43.88067731
v -2.65643245 42.50031262 48.54751414
v -2.51431845 40.39469594 48.53672569
v 1.37169302 48.50002689 40.07269362
v 11.48542910 41.50019335 42.64094713
v 11.48542910 40.39469594 42.64177563
v 12.67286659 48.50002689 43.31972849
v 12.17389027 48.50002689 42.87827220
v 11.48542910 48.50002689 42.64094713
v 1.20589434 49.49915077 40.07269362
v -2.51431845 41.50019335 48.54917414
v -1.51320899 40.39469594 48.54917414
v 13.44817331 40.39469594 47.58078841
v 13.47343825 48.50002689 45.49963052
v 13.47343825 40.39469594 47.49946673
v 13.47343825 40.39469594 45.49963052
v 13.34553699 48.50002689 44.49971390
v 13.10236469 48.50002689 43.82010105
v -2.51431845 40.50106948 48.53838568
v 12.17389027 44.50054819 42.87827220
v 12.17389027 40.39469594 42.87910071
v 11.55806638 40.39469594 42.66666954
v 12.67444463 47.49991060 43.31972849
v 12.67444463 45.49967206 43.31806850
v 12.67444463 43.50043190 43.31724000
v 13.35027258 40.50106948 44.49971390
v 13.34711651 47.49991060 44.49971390
v 13.35027258 40.39469594 44.49971390
v 13.10394421 45.49967206 43.81844404
v 12.67286659 40.39469594 43.31640851
v 13.10552374 41.50019335 43.81678405
v 13.10552374 40.50106948 43.81595256
v 13.10552374 40.39469594 43.81595256
f 1 2 3
f 1 3 4
f 1 4 13
f 1 13 5
f 1 5 8
f 1 8 2
f 2 6 7
f 2 7 3
f 2 8 9
f 2 9 6
f 3 7 10
f 3 10 11
f 3 11 4
f 4 12 24
f 4 24 40
f 4 40 45
f 4 45 66
f 4 66 60
f 4 60 42
f 4 42 25
f 4 25 13
f 4 11 14
f 4 14 15
f 4 15 12
f 5 13 8
f 6 16 17
f 6 17 18
f 6 18 7
f 6 9 19
f 6 19 30
f 6 30 16
f 7 18 20
f 7 20 10
f 8 13 25
f 8 25 41
f 8 41 58
f 8 58 48
f 8 48 30
f 8 30 19
f 8 19 9
f 10 20 21
f 10 21 11
f 11 21 22
f 11 22 23
f 11 23 14
f 12 15 24
f 14 23 26
f 14 26 15
f 15 26 24
f 16 27 28
f 16 28 29
f 16 29 17
f 16 30 31
f 16 31 46
f 16 46 27
f 17 29 32
f 17 32 33
f 17 33 34
f 17 34 18
f 18 34 20
f 20 34 35
f 20 35 36
f 20 36 21
f 21 36 37
f 21 37 22
f 22 37 23
f 23 37 38
f 23 38 39
f 23 39 26
f 24 26 40
f 25 42 62
f 25 62 78
f 25 78 77
f 25 77 86
f 25 86 89
f 25 89 84
f 25 84 72
f 25 72 71
f 25 71 69
f 25 69 51
f 25 51 47
f 25 47 28
f 25 28 27
f 25 27 46
f 25 46 49
f 25 49 68
f 25 68 59
f 25 59 41
f 26 39 43
f 26 43 44
f 26 44 45
f 26 45 40
f 28 47 29
f 29 47 51
f 29 51 32
f 30 48 49
f 30 49 50
f 30 50 31
f 31 50 49
f 31 49 46
f 32 51 52
f 32 52 53
f 32 53 33
f 33 53 54
f 33 54 34
f 34 54 35
f 35 54 55
f 35 55 36
f 36 55 37
f 37 55 56
f 37 56 38
f 38 56 57
f 38 57 39
f 39 57 43
f 41 59 58
f 42 60 65
f 42 65 61
f 42 61 62
f 43 57 63
f 43 63 64
f 43 64 65
f 43 65 45
f 43 45 44
f 45 65 66
f 48 58 67
f 48 67 49
f 49 67 68
f 51 69 52
f 52 70 53
f 52 69 71
f 52 71 72
f 52 72 70
f 53 70 54
f 54 70 55
f 55 70 56
f 56 70 73
f 56 73 57
f 57 73 74
f 57 74 63
f 58 59 75
f 58 75 67
f 59 68 75
f 60 66 65
f 61 65 64
f 61 64 76
f 61 76 77
f 61 77 78
f 61 78 62
f 63 74 79
f 63 79 64
f 64 79 80
f 64 80 81
f 64 81 76
f 67 75 68
f 70 72 84
f 70 84 82
f 70 82 83
f 70 83 73
f 73 83 74
f 74 85 79
f 74 83 85
f 76 81 86
f 76 86 77
f 79 85 87
f 79 87 88
f 79 88 80
f 80 88 81
f 81 88 89
f 81 89 86
f 82 84 89
f 82 89 88
f 82 88 87
f 82 87 83
f 83 87 85

