# https://github.com/mikedh/trimesh
v 31.36349018 -25.19821227 25.50070918
v 31.28828700 -41.17821455 25.29608271
v 31.29178281 -25.19821227 25.30749923
v 31.22357423 -25.19821227 26.33678055
v 31.26904662 -41.17821455 26.06716490
v 31.36349018 -41.17821455 25.50070918
v 31.12563188 -41.17821455 24.86487365
v 31.12563188 -25.19821227 24.86487365
v 31.22357423 -41.17821455 26.33678055
v 30.82830901 -25.19821227 26.83649099
v 30.91925378 -41.17821455 24.78846794
v 30.93149657 -25.19821227 24.79285932
v 30.82830901 -41.17821455 26.83649099
v 24.49356909 -25.19821227 33.49607921
v 30.48376436 -41.17821455 24.62775296
v 30.48376436 -25.19821227 24.62775296
v 24.49356909 -41.17508531 33.49607921
v 30.32810683 -41.17821455 27.34410575
v 13.49784727 -25.19821227 33.49607921
v 30.16195591 -41.17821455 24.59438032
v 30.18119330 -25.19821227 24.59613642
v 23.26055164 -41.17821455 33.49607921
v 24.48657448 -41.17821455 33.17816144
v 29.32769949 -41.17821455 28.34352663
v 29.48860521 -41.17821455 28.18281165
v 29.98880739 -41.17821455 27.68310121
v 13.49784727 -25.19821227 25.56481993
v 13.49784727 -41.17821455 33.49607921
v 29.48510642 -41.17821455 24.52500051
v 29.48510642 -25.19821227 24.52500051
v 13.49784727 -25.20134151 24.63565654
v 14.18344076 -25.19821227 24.55925083
v 13.49784727 -41.17821455 24.63565654
v 14.48601033 -41.17821455 24.52500051
v 14.48601033 -25.19821227 24.52500051
v 14.16420038 -41.17821455 24.56100768
f 1 2 3
f 1 3 8
f 1 8 12
f 1 12 16
f 1 16 21
f 1 21 30
f 1 30 35
f 1 35 32
f 1 32 27
f 1 27 19
f 1 19 14
f 1 14 10
f 1 10 4
f 1 4 5
f 1 5 6
f 1 6 2
f 2 6 5
f 2 5 9
f 2 9 13
f 2 13 18
f 2 18 26
f 2 26 25
f 2 25 24
f 2 24 23
f 2 23 22
f 2 22 28
f 2 28 33
f 2 33 36
f 2 36 34
f 2 34 29
f 2 29 20
f 2 20 15
f 2 15 11
f 2 11 7
f 2 7 8
f 2 8 3
f 4 9 5
f 4 10 13
f 4 13 9
f 7 11 12
f 7 12 8
f 10 14 17
f 10 17 13
f 11 15 12
f 12 15 16
f 13 17 18
f 14 19 28
f 14 28 22
f 14 22 17
f 15 20 21
f 15 21 16
f 17 22 23
f 17 23 24
f 17 24 25
f 17 25 26
f 17 26 18
f 19 27 31
f 19 31 33
f 19 33 28
f 20 29 21
f 21 29 30
f 27 32 31
f 29 34 35
f 29 35 30
f 31 32 35
f 31 35 36
f 31 36 33
f 34 36 35

