# https://github.com/mikedh/trimesh
v -3.55692064 39.84654546 42.55856609
v -3.55692064 39.84654546 45.90965843
v 10.75858022 39.84654546 42.55856609
v -3.47355534 25.50030351 42.55856609
v 13.47295637 39.84654546 45.90965843
v -3.47355534 25.50030351 45.90965843
v 11.48385848 39.84654546 42.64516568
v 10.75858022 39.49826956 42.55856609
v -3.43687465 24.55925047 42.55856609
v 13.47295637 39.84654546 45.49995697
v 13.47462381 25.50030351 45.90965843
v -3.42020174 24.50120449 45.90965843
v 11.93236406 39.84654546 42.79966390
v 11.48385848 30.50108552 42.64516568
v 10.75691278 25.50030351 42.55856609
v -3.42853819 24.50120449 42.55856609
v 13.47295637 25.50030351 45.49995697
v 13.43127484 39.84654546 45.15323377
v 13.47462381 25.09046197 45.90965843
v -3.26180761 23.57422113 42.55856609
v -3.06673204 22.66658843 45.90965843
v 12.16912265 39.84654546 42.88167095
v 12.16912265 28.50112319 42.88167095
v 11.48385848 25.50030351 42.64549351
v 11.48385848 24.50120449 42.76456571
v 10.62019314 25.36486387 42.55856609
v 13.37791975 24.50120449 45.49995697
v 13.35124369 25.50030351 44.49981189
v 13.35124369 39.84654546 44.49981189
v 13.41793532 24.50120449 45.90965843
v -3.25013627 23.54431897 42.55856609
v -2.82664006 22.94274867 42.55856609
v -2.51318594 22.54170030 42.55856609
v -1.51446913 21.88032269 42.55856609
v -2.51318594 22.53114581 45.90965843
v 12.49591405 39.84654546 43.16278732
v 12.66931440 27.50026584 43.31269300
v 12.16912265 25.50030351 42.88199878
v 12.66931440 39.49826956 43.31203735
v 12.66931440 32.49928653 43.31236517
v 12.07742090 24.50120449 42.94038749
v 10.48514242 24.50120449 42.64713264
v 10.48514242 25.23294091 42.55856609
v 11.98571916 23.99989367 42.99942887
v 11.48385848 23.95592034 42.94169879
v 13.37791975 24.09136146 45.90965843
v 13.15116580 24.43612218 44.47849131
v 13.06613381 24.72459376 43.87525356
v 13.10614939 25.50030351 43.81293094
v 13.10614939 27.50026584 43.81260014
v 13.10614939 34.49924588 43.81227231
v 13.10614939 39.84654546 43.81227231
v -1.13765788 21.87680602 42.55856609
v -1.51446913 22.50652015 45.90965843
v 12.66931440 39.84654546 43.31203735
v 12.66764696 25.50030351 43.31269300
v 0.48629972 21.96299583 42.55856609
v 12.82270546 24.05794114 44.13144028
v 13.04279114 22.65955210 45.90965843
v 12.96942974 22.60326445 45.90965843
v 13.17784334 23.19604158 45.90965843
v -0.51408489 21.87680602 42.55856609
v 11.48385848 22.50652015 45.90965843
v 12.48424346 22.52586931 45.90965843
f 1 2 5
f 1 5 10
f 1 10 18
f 1 18 29
f 1 29 52
f 1 52 55
f 1 55 36
f 1 36 22
f 1 22 13
f 1 13 7
f 1 7 3
f 1 3 8
f 1 8 15
f 1 15 26
f 1 26 43
f 1 43 57
f 1 57 62
f 1 62 53
f 1 53 34
f 1 34 33
f 1 33 32
f 1 32 31
f 1 31 20
f 1 20 16
f 1 16 9
f 1 9 4
f 1 4 6
f 1 6 2
f 2 6 12
f 2 12 21
f 2 21 35
f 2 35 54
f 2 54 63
f 2 63 64
f 2 64 60
f 2 60 59
f 2 59 61
f 2 61 46
f 2 46 30
f 2 30 19
f 2 19 11
f 2 11 5
f 3 7 14
f 3 14 8
f 4 9 6
f 5 11 10
f 6 9 12
f 7 13 14
f 8 14 15
f 9 16 12
f 10 11 19
f 10 19 17
f 10 17 18
f 12 16 20
f 12 20 21
f 13 22 23
f 13 23 14
f 14 23 24
f 14 24 15
f 15 24 25
f 15 25 26
f 17 19 27
f 17 27 28
f 17 28 18
f 18 28 29
f 19 30 27
f 20 31 21
f 21 31 32
f 21 32 33
f 21 33 34
f 21 34 35
f 22 36 23
f 23 37 38
f 23 38 24
f 23 36 39
f 23 39 40
f 23 40 37
f 24 38 41
f 24 41 25
f 25 42 43
f 25 43 26
f 25 41 44
f 25 44 45
f 25 45 42
f 27 30 46
f 27 46 47
f 27 47 28
f 28 47 48
f 28 48 49
f 28 49 50
f 28 50 51
f 28 51 52
f 28 52 29
f 34 53 54
f 34 54 35
f 36 55 39
f 37 50 49
f 37 49 56
f 37 56 38
f 37 40 50
f 38 56 41
f 39 55 52
f 39 52 51
f 39 51 50
f 39 50 40
f 41 56 48
f 41 48 44
f 42 45 57
f 42 57 43
f 44 58 59
f 44 59 60
f 44 60 57
f 44 57 45
f 44 48 58
f 46 61 47
f 47 61 59
f 47 59 48
f 48 56 49
f 48 59 58
f 53 62 63
f 53 63 54
f 57 60 64
f 57 64 62
f 62 64 63

