# https://github.com/mikedh/trimesh
v 13.49776233 -29.03071642 24.63546431
v 13.48514403 -29.03071642 24.63695517
v 13.49776233 -27.05020905 24.63546431
v 13.49776233 -29.03071642 27.17417067
v 12.85699452 -29.03071642 24.87452438
v 13.20248539 -27.05020905 24.74381140
v 13.48514403 -27.05020905 24.63695517
v 13.49776233 -27.05020905 27.17417067
v 13.15565850 -29.03071642 26.82005352
v 12.63276334 -29.03071642 25.50000584
v 12.85699452 -27.05020905 24.87452438
v 13.15565850 -27.05020905 26.82005352
v 12.94616158 -29.03071642 26.55465266
v 12.69297148 -29.03071642 25.88493711
v 12.69051577 -27.05020905 25.86928120
v 12.63276334 -27.05020905 25.50000584
v 12.76105340 -27.05020905 26.32006592
v 12.76105340 -29.03071642 26.32006592
f 1 2 7
f 1 7 3
f 1 3 8
f 1 8 4
f 1 4 9
f 1 9 13
f 1 13 18
f 1 18 14
f 1 14 10
f 1 10 5
f 1 5 2
f 2 5 6
f 2 6 7
f 3 7 6
f 3 6 11
f 3 11 16
f 3 16 15
f 3 15 17
f 3 17 12
f 3 12 8
f 4 8 12
f 4 12 9
f 5 10 16
f 5 16 11
f 5 11 6
f 9 12 13
f 10 14 15
f 10 15 16
f 12 17 13
f 13 17 18
f 14 18 15
f 15 18 17

