# https://github.com/mikedh/trimesh
v 13.47342782 -37.48422195 47.49970515
v 13.47500586 -40.50026176 47.49970515
v 13.47342782 -37.48422195 45.49979443
v 13.23023317 -37.48422195 48.25965918
v 13.23023317 -48.49955296 48.25965918
v 13.47342782 -48.49955296 47.49970515
v 13.47342782 -48.49955296 46.50007464
v 13.47342782 -44.49990736 45.49979443
v 13.47184830 -37.48422195 45.48290544
v 12.49749316 -37.48422195 48.52986519
v 12.48485994 -48.49955296 48.53441303
v 12.48485994 -49.49978548 48.43698318
v 13.13232350 -49.49978548 48.16222933
v 13.27760848 -49.49978548 47.49970515
v 13.47184830 -48.49955296 45.49979443
v 13.34867219 -46.49909090 44.50081361
v 13.34867219 -37.48422195 44.50081361
v 12.48485994 -37.48422195 48.53441303
v 11.50102915 -37.48422195 48.54935295
v 11.48523688 -49.49978548 48.54935295
v 11.48523688 -50.27489699 48.27459910
v 12.48485994 -50.16106393 48.16937593
v 13.01704353 -50.03187669 48.04271593
v 13.03441533 -50.04722490 47.49970515
v 13.27129187 -49.49978548 46.50007464
v 13.25707913 -49.49978548 45.49979443
v 13.13864011 -49.52792486 44.55732185
v 13.34709267 -48.49955296 44.50081361
v 13.10389802 -48.49955296 43.81815496
v 13.10547754 -45.49886136 43.81750527
v 13.10547754 -44.49990736 43.81685558
v 13.10547754 -41.50049428 43.81685558
v 13.10547754 -38.50108120 43.81815496
v 13.10389802 -37.48422195 43.81880465
v -1.51300857 -37.48422195 48.54935295
v -2.65791512 -49.49978548 48.54935295
v -2.65791512 -49.61106449 48.51038041
v 11.48523688 -50.54861968 47.49970515
v -2.65791512 -50.27489699 48.27459910
v 12.48485994 -50.32222313 47.49970515
v 12.48485994 -50.31327050 46.50007464
v 13.02651770 -50.04211081 46.50007464
v 13.01388448 -50.02931965 45.49979443
v 12.99967174 -50.01524697 44.92885586
v 13.06441884 -49.21455313 43.87921104
v 12.90334160 -49.88094565 44.26243353
v 12.66962261 -48.49955296 43.31801486
v 12.66962261 -46.49909090 43.31736517
v 12.66962261 -43.50095634 43.31671547
v 12.67120213 -39.50003222 43.31801486
v 12.67120213 -38.50108120 43.31801486
v 12.67120213 -37.48422195 43.31866455
v 13.09758141 -37.48422195 43.81035866
v -2.51420967 -37.48422195 48.52661673
v -2.65791512 -41.64375121 48.54740388
v -2.51420967 -41.50049428 48.54935295
v -2.65791512 -42.64398075 48.54935295
v 10.48403578 -50.54861968 44.50081361
v 11.48523688 -50.54606264 46.50007464
v -2.65791512 -50.54861968 47.49970515
v -2.51420967 -50.54990118 41.91437471
v 11.48523688 -50.54094855 45.49979443
v 12.48485994 -50.29664675 45.49979443
v 12.53539281 -50.19559889 44.55732185
v 12.50538780 -49.53943453 43.48884194
v 12.10743401 -49.19664489 42.92114885
v 12.23692821 -50.13420008 43.76489219
v 12.16902355 -48.49955296 42.88087693
v 12.17060158 -44.49990736 42.88022724
v 12.17060158 -37.48422195 42.88022724
v -2.65791512 -37.48422195 48.37462772
v -2.65791512 -37.48677899 48.47270726
v 11.48523688 -50.50768913 44.50081361
v -0.51338625 -50.54861968 41.91437471
v -2.65791512 -50.54990118 41.91437471
v 11.77264779 -49.86304040 43.09847285
v 11.45681140 -49.51769074 42.83735953
v 11.48523688 -48.49955296 42.64314952
v 11.45681140 -50.21222860 43.45896210
v 11.10465339 -50.03571523 42.96596563
v 11.48523688 -42.50072680 42.64249983
v 12.15954789 -37.48422195 42.87568238
v -2.65791512 -37.48422195 41.91437471
v 10.48403578 -50.32734317 43.50053341
v -0.09964094 -50.51664176 41.91437471
v 10.48403578 -49.49978548 42.71199892
v 10.48403578 -48.49955296 42.52558222
v 0.53992798 -50.36443518 41.91437471
v 0.98051963 -50.23908648 41.91437471
v 11.48523688 -37.48422195 42.64249983
v 1.78590214 -37.48422195 41.91437471
v 10.48403578 -37.48422195 42.52558222
v 1.20950079 -50.11757633 41.91437471
v 1.59640052 -49.53687749 41.91437471
v 1.69115152 -49.07001768 41.91437471
v 1.79063996 -48.49955296 41.91437471
v 1.79221912 -48.18874125 41.91437471
v 1.79537742 -47.49932342 41.91437471
v 1.79537742 -46.49909090 41.91437471
f 1 2 3
f 1 3 9
f 1 9 17
f 1 17 34
f 1 34 53
f 1 53 52
f 1 52 70
f 1 70 82
f 1 82 90
f 1 90 92
f 1 92 91
f 1 91 83
f 1 83 71
f 1 71 54
f 1 54 35
f 1 35 19
f 1 19 18
f 1 18 10
f 1 10 4
f 1 4 2
f 2 4 5
f 2 5 6
f 2 6 7
f 2 7 8
f 2 8 3
f 3 8 9
f 4 10 5
f 5 10 11
f 5 11 12
f 5 12 13
f 5 13 6
f 6 13 14
f 6 14 7
f 7 14 15
f 7 15 8
f 8 15 16
f 8 16 9
f 9 16 17
f 10 18 11
f 11 18 19
f 11 19 20
f 11 20 12
f 12 20 21
f 12 21 22
f 12 22 23
f 12 23 13
f 13 23 14
f 14 23 24
f 14 24 25
f 14 25 15
f 15 25 26
f 15 26 27
f 15 27 28
f 15 28 16
f 16 28 29
f 16 29 30
f 16 30 31
f 16 31 32
f 16 32 17
f 17 32 33
f 17 33 34
f 19 35 56
f 19 56 57
f 19 57 36
f 19 36 20
f 20 36 37
f 20 37 21
f 21 38 22
f 21 37 39
f 21 39 60
f 21 60 38
f 22 38 40
f 22 40 23
f 23 40 24
f 24 40 41
f 24 41 42
f 24 42 25
f 25 42 26
f 26 42 43
f 26 43 44
f 26 44 27
f 27 45 28
f 27 44 46
f 27 46 45
f 28 45 29
f 29 45 47
f 29 47 30
f 30 47 31
f 31 47 48
f 31 48 49
f 31 49 50
f 31 50 51
f 31 51 32
f 32 51 33
f 33 51 52
f 33 52 53
f 33 53 34
f 35 54 55
f 35 55 56
f 36 57 55
f 36 55 72
f 36 72 71
f 36 71 83
f 36 83 75
f 36 75 60
f 36 60 39
f 36 39 37
f 38 58 59
f 38 59 40
f 38 60 75
f 38 75 61
f 38 61 58
f 40 59 62
f 40 62 41
f 41 62 63
f 41 63 42
f 42 63 43
f 43 63 44
f 44 63 64
f 44 64 46
f 45 46 65
f 45 65 66
f 45 66 47
f 46 64 67
f 46 67 65
f 47 66 68
f 47 68 69
f 47 69 48
f 48 69 49
f 49 69 50
f 50 69 70
f 50 70 51
f 51 70 52
f 54 71 72
f 54 72 55
f 55 57 56
f 58 73 62
f 58 62 59
f 58 61 74
f 58 74 73
f 61 75 83
f 61 83 91
f 61 91 99
f 61 99 98
f 61 98 97
f 61 97 96
f 61 96 95
f 61 95 94
f 61 94 93
f 61 93 89
f 61 89 88
f 61 88 85
f 61 85 74
f 62 73 63
f 63 73 64
f 64 73 67
f 65 67 76
f 65 76 66
f 66 76 77
f 66 77 78
f 66 78 68
f 67 73 79
f 67 79 80
f 67 80 76
f 68 78 69
f 69 78 81
f 69 81 82
f 69 82 70
f 73 74 84
f 73 84 79
f 74 85 84
f 76 80 77
f 77 80 86
f 77 86 78
f 78 86 87
f 78 87 81
f 79 84 80
f 80 84 85
f 80 85 88
f 80 88 89
f 80 89 86
f 81 90 82
f 81 87 92
f 81 92 90
f 86 89 87
f 87 89 93
f 87 93 94
f 87 94 95
f 87 95 96
f 87 96 97
f 87 97 98
f 87 98 99
f 87 99 92
f 91 92 99

