# https://github.com/mikedh/trimesh
v -2.27690307 12.34809160 15.22040142
v -2.27690307 13.52451146 12.43087201
v 0.82694287 12.87493110 12.80866301
v 3.55600039 11.50968000 15.22040142
v -2.27690307 30.68362474 15.22040142
v -2.27690307 14.05512691 11.49968615
v 1.48578281 12.84094155 12.67333476
v 3.63293062 11.51156798 15.22040142
v 6.48428718 12.83150017 12.69186175
v 3.48498742 30.79881370 15.22040142
v 5.48517848 30.38149476 13.49980234
v 0.89795585 30.06614745 12.94560189
v -2.27690307 29.25794721 11.75825930
v -2.27690307 14.58574384 10.63777542
v 1.48578281 14.82556015 9.78794767
v 6.48428718 14.81989622 9.78714226
v 4.43379576 11.56066433 15.22040142
v 7.10564847 12.87870705 12.83041200
v 7.10268910 14.86710310 9.86447258
v 4.48508258 30.76293468 15.22040142
v 6.48428718 30.17944694 12.77724726
v 3.48498742 29.10310626 10.83996220
v -2.27690307 28.92938256 11.24514079
v 0.82398425 14.86143768 9.85400079
v -2.27690307 15.56011438 9.64537001
v -2.27690307 15.60354531 9.60348284
v 3.48498742 15.83392024 8.88978875
v 4.48508258 15.84902704 8.90106595
v 7.07211490 17.91861951 7.90785438
v 5.08770416 11.80425659 15.22040142
v 7.08394940 12.90325522 13.49980234
v 6.44483562 12.56335974 15.22040142
v 5.71892853 12.09505722 15.22040142
v 7.34235714 15.50157666 10.50003095
v 7.71122868 14.47433382 15.22040142
v 7.43408198 13.53017688 15.22040142
v 7.10564847 30.11901975 12.83282822
v 5.42304213 30.42492568 15.22040142
v 7.10564847 30.11901975 13.29681034
v 6.48428718 28.21370959 9.81694645
v 4.48508258 29.08988893 10.85768378
v 1.48578281 28.20804715 9.82741824
v -2.27690307 28.38554680 10.61360984
v -2.27690307 16.50049537 9.02028343
v 0.88020260 17.93183684 7.91993773
v 6.48428718 17.91106611 7.89335555
v 7.28120725 18.50022078 8.50072017
v 4.48508258 18.60785484 7.66619778
v 5.12814219 21.98793739 6.99439085
v 6.48428718 21.49886340 7.24249220
v 7.17370207 21.49886340 7.64283723
v 6.99715610 12.97501177 15.22040142
v 7.42224599 18.50022078 9.50037575
v 7.79013182 15.45436978 15.22040142
v 7.42520536 29.45055664 15.22040142
v 7.70136560 28.49884629 15.22040142
v 7.35912393 27.49992609 10.50003095
v 7.10466201 28.13628912 9.86527799
v 6.48428718 25.31325817 7.82730243
v -2.27690307 27.35830247 9.57287288
v -2.27690307 27.39984691 9.60026047
v 0.82497070 28.14573050 9.86125058
v 3.48498742 26.35371983 8.55146831
v 0.87625752 25.14142394 7.93202034
v -2.27690307 17.46731251 8.47736037
v -2.27690307 19.58033592 7.60900563
v 3.48498742 18.61351877 7.64605960
v 7.39364396 21.49886340 8.50072017
v 1.48578281 21.91995829 6.99197388
v 5.12814219 22.02192694 6.99439085
v 7.10564847 25.17163455 7.87805057
v 7.79111828 15.50157666 15.22040142
v 7.79013182 27.49992609 15.22040142
v 7.42421891 24.49939549 9.50037575
v 1.48578281 22.01814950 6.99197388
v 0.97981761 22.00304419 6.99761248
v -2.27690307 26.66907012 9.15319508
v -2.27690307 22.66017795 7.44145623
v -2.27690307 23.91024083 7.85388461
v -2.27690307 24.63157773 8.14790091
v -2.27690307 25.50209165 8.53052473
v -2.27690307 26.13089979 8.83581823
v -2.27690307 20.50183415 7.41890183
v 0.97981761 21.91806883 6.99761248
v 7.79802198 26.49911940 15.22040142
v 7.79900844 17.50130206 15.22040142
v 7.79900844 17.45409369 15.22040142
v 7.79802198 16.45328701 15.22040142
v -2.27690307 21.49886340 7.37057066
f 1 2 3
f 1 3 4
f 1 4 8
f 1 8 17
f 1 17 30
f 1 30 33
f 1 33 32
f 1 32 52
f 1 52 36
f 1 36 35
f 1 35 54
f 1 54 72
f 1 72 88
f 1 88 87
f 1 87 86
f 1 86 85
f 1 85 73
f 1 73 56
f 1 56 55
f 1 55 38
f 1 38 20
f 1 20 10
f 1 10 5
f 1 5 13
f 1 13 23
f 1 23 43
f 1 43 61
f 1 61 60
f 1 60 77
f 1 77 82
f 1 82 81
f 1 81 80
f 1 80 79
f 1 79 78
f 1 78 89
f 1 89 83
f 1 83 66
f 1 66 65
f 1 65 44
f 1 44 26
f 1 26 25
f 1 25 14
f 1 14 6
f 1 6 2
f 2 6 7
f 2 7 3
f 3 7 4
f 4 7 9
f 4 9 8
f 5 10 11
f 5 11 12
f 5 12 13
f 6 14 7
f 7 14 15
f 7 15 16
f 7 16 9
f 8 9 17
f 9 18 17
f 9 16 19
f 9 19 18
f 10 20 11
f 11 21 12
f 11 20 21
f 12 21 22
f 12 22 13
f 13 22 23
f 14 24 15
f 14 25 24
f 15 24 25
f 15 25 26
f 15 26 27
f 15 27 16
f 16 27 28
f 16 28 29
f 16 29 19
f 17 18 30
f 18 31 32
f 18 32 33
f 18 33 30
f 18 19 34
f 18 34 35
f 18 35 36
f 18 36 31
f 19 29 34
f 20 37 21
f 20 38 39
f 20 39 37
f 21 37 40
f 21 40 41
f 21 41 22
f 22 41 40
f 22 40 42
f 22 42 23
f 23 42 43
f 26 44 27
f 27 44 45
f 27 45 46
f 27 46 28
f 28 46 29
f 29 47 34
f 29 46 48
f 29 48 49
f 29 49 50
f 29 50 51
f 29 51 47
f 31 52 32
f 31 36 52
f 34 47 53
f 34 53 54
f 34 54 35
f 37 39 55
f 37 55 56
f 37 56 57
f 37 57 58
f 37 58 40
f 38 55 39
f 40 58 59
f 40 59 42
f 42 60 61
f 42 61 62
f 42 62 43
f 42 59 63
f 42 63 64
f 42 64 60
f 43 62 61
f 44 65 45
f 45 65 66
f 45 66 67
f 45 67 46
f 46 67 48
f 47 51 68
f 47 68 53
f 48 67 49
f 49 67 69
f 49 69 75
f 49 75 70
f 49 70 50
f 50 70 71
f 50 71 51
f 51 71 68
f 53 72 54
f 53 68 72
f 56 73 57
f 57 73 74
f 57 74 71
f 57 71 58
f 58 71 59
f 59 71 70
f 59 70 75
f 59 75 76
f 59 76 64
f 59 64 63
f 60 64 77
f 64 76 78
f 64 78 79
f 64 79 80
f 64 80 81
f 64 81 82
f 64 82 77
f 66 83 84
f 66 84 67
f 67 84 69
f 68 71 74
f 68 74 73
f 68 73 85
f 68 85 86
f 68 86 87
f 68 87 88
f 68 88 72
f 69 84 76
f 69 76 75
f 76 84 89
f 76 89 78
f 83 89 84

