# https://github.com/mikedh/trimesh
v 3.81502951 13.88161480 21.41307665
v 4.30729533 13.87907267 21.41307665
v 3.81502951 13.90703321 21.91957979
v 3.81502951 39.83383775 21.41307665
v 4.42403252 13.88415694 21.41307665
v 4.46200739 13.90703321 21.91957979
v 3.81502951 28.32182646 21.91957979
v 3.81502951 39.84654546 21.41555546
v 3.82839139 39.84654546 21.41307665
v 5.08437152 13.96803707 21.90614378
v 5.08437152 13.96803707 21.91957979
v 6.48521851 14.51199204 21.41307665
v 4.50842078 28.41079235 21.91957979
v 3.81502951 39.84654546 21.47693484
v 10.99859024 39.84654546 21.41307665
v 6.48521851 14.52470124 21.91957979
v 7.12235044 14.81701285 21.41307665
v 6.77213888 14.64925110 21.91957979
v 6.48521851 28.61159742 21.91957979
v 9.48452200 39.84654546 21.47500141
v 10.99929358 35.49999297 21.41307665
v 10.48452402 39.84654546 21.47420792
v 7.64133925 27.49826908 21.91957979
v 7.67228152 25.28178096 21.91957979
v 7.13782231 14.82463777 21.91957979
v 10.99859024 25.50038099 21.41307665
v 7.19619091 28.44891846 21.91957979
v 9.83121837 39.84654546 21.47475331
v 10.99929358 35.01195908 21.41307665
v 7.38747115 28.40316594 21.91957979
v 7.44583974 28.20998728 21.91957979
v 7.64485518 24.22183454 21.91957979
v 7.26510803 15.20845592 21.91957979
v 7.39942561 16.08285010 21.91957979
v 7.34738628 15.50076902 21.91957979
f 1 2 3
f 1 3 7
f 1 7 14
f 1 14 8
f 1 8 4
f 1 4 9
f 1 9 15
f 1 15 21
f 1 21 29
f 1 29 26
f 1 26 17
f 1 17 12
f 1 12 5
f 1 5 2
f 2 5 6
f 2 6 3
f 3 6 11
f 3 11 16
f 3 16 18
f 3 18 25
f 3 25 33
f 3 33 35
f 3 35 34
f 3 34 32
f 3 32 24
f 3 24 23
f 3 23 31
f 3 31 30
f 3 30 27
f 3 27 19
f 3 19 13
f 3 13 7
f 4 8 9
f 5 10 11
f 5 11 6
f 5 12 10
f 7 13 14
f 8 14 20
f 8 20 28
f 8 28 22
f 8 22 15
f 8 15 9
f 10 12 11
f 11 12 16
f 12 17 18
f 12 18 16
f 13 19 14
f 14 19 20
f 15 22 23
f 15 23 24
f 15 24 21
f 17 25 18
f 17 26 25
f 19 27 22
f 19 22 28
f 19 28 20
f 21 24 29
f 22 27 30
f 22 30 31
f 22 31 23
f 24 32 26
f 24 26 29
f 25 26 33
f 26 32 34
f 26 34 35
f 26 35 33

