# https://github.com/mikedh/trimesh
v 13.47256298 39.84485567 18.50009596
v 13.47432430 31.75937831 18.23979764
v 13.47256298 39.84485567 18.23979764
v 13.39327539 39.84485567 19.15363742
v 13.47256298 25.50166845 18.50009596
v 13.47432430 25.50166845 18.23979764
v -3.52844303 39.84485567 18.23979764
v 13.35098739 39.84485567 19.50028761
v 13.35098739 25.50166845 19.50028761
v 13.37741758 24.50070679 18.50009596
v 13.40208496 24.50070679 18.23979764
v -4.52570324 32.16686249 18.23979764
v -3.55663379 39.84485567 18.50009596
v 13.10607786 39.84485567 20.18768637
v 13.10607786 36.49873137 20.18768637
v 13.10607786 31.49899244 20.18737605
v 13.10607786 26.50094032 20.18706536
v 13.10607786 25.50166845 20.18675467
v 13.06555266 24.72558618 20.12463099
v 13.15188850 24.43476617 19.52140963
v 13.07964916 23.08042347 18.23979764
v -4.52570324 22.57317901 18.23979764
v -4.52570324 32.17362761 18.50009596
v -3.55839585 39.84485567 18.84674615
v 12.82064314 39.84485567 20.51445729
v 12.66911621 37.49969602 20.68778238
v 12.66911621 27.50021219 20.68716100
v 12.66911621 25.50166845 20.68685031
v 12.82240446 24.05771315 19.86868119
v 12.07710202 24.50070679 21.05959280
v 11.98548074 24.00022596 21.00057526
v 12.48411233 22.82341868 18.23979764
v -4.52570324 22.57317901 21.41307665
v 8.47921069 22.57317901 18.23979764
v -4.52570324 32.17362761 18.51096748
v -3.55839585 39.84485567 21.41307665
v 12.66911621 39.84485567 20.68778238
v 12.16872330 25.50166845 21.11829965
v 11.48508782 25.50166845 21.35499081
v 11.48508782 24.50070679 21.23571335
v 7.45552103 22.57317901 21.41307665
v -4.52570324 31.92169666 21.41307665
v -4.52570324 32.10937679 19.44406590
v 10.99703009 39.84485567 21.41307665
v 12.16872330 39.84485567 21.11829965
v 11.48508782 39.84485567 21.35499081
v 10.99879141 25.50166845 21.41307665
v 10.48430498 24.99442548 21.41307665
v 10.48430498 24.50070679 21.35312742
v 10.99879141 39.01297450 21.41307665
f 1 2 3
f 1 3 7
f 1 7 13
f 1 13 24
f 1 24 36
f 1 36 44
f 1 44 46
f 1 46 45
f 1 45 37
f 1 37 25
f 1 25 14
f 1 14 8
f 1 8 4
f 1 4 5
f 1 5 6
f 1 6 2
f 2 6 11
f 2 11 21
f 2 21 32
f 2 32 34
f 2 34 22
f 2 22 12
f 2 12 7
f 2 7 3
f 4 8 9
f 4 9 5
f 5 10 11
f 5 11 6
f 5 9 10
f 7 12 13
f 8 14 15
f 8 15 9
f 9 15 16
f 9 16 17
f 9 17 18
f 9 18 19
f 9 19 20
f 9 20 10
f 10 20 21
f 10 21 11
f 12 22 33
f 12 33 42
f 12 42 43
f 12 43 35
f 12 35 23
f 12 23 24
f 12 24 13
f 14 25 15
f 15 25 26
f 15 26 27
f 15 27 16
f 16 27 17
f 17 27 28
f 17 28 18
f 18 28 19
f 19 29 21
f 19 21 20
f 19 28 30
f 19 30 31
f 19 31 29
f 21 29 31
f 21 31 32
f 22 34 41
f 22 41 33
f 23 35 36
f 23 36 24
f 25 37 26
f 26 37 45
f 26 45 38
f 26 38 27
f 27 38 28
f 28 38 30
f 30 38 39
f 30 39 40
f 30 40 31
f 31 40 41
f 31 41 32
f 32 41 34
f 33 41 48
f 33 48 47
f 33 47 50
f 33 50 44
f 33 44 36
f 33 36 42
f 35 43 36
f 36 43 42
f 38 45 46
f 38 46 39
f 39 46 50
f 39 50 47
f 39 47 40
f 40 47 48
f 40 48 49
f 40 49 41
f 41 49 48
f 44 50 46

