# https://github.com/mikedh/trimesh
v 9.31427623 -5.40055931 32.66287780
v 9.31427623 -25.19665062 32.66287780
v 9.31427623 -5.40055931 28.69067228
v -26.64369796 -5.40055931 32.66287780
v 9.31427623 -25.19665062 28.51259744
v -4.29717307 -25.19665062 32.66287780
v 9.31427623 -9.50084627 28.51339912
v 7.05276872 -5.88306040 24.95670280
v 7.26478542 -5.40055931 25.46606249
v -26.77797382 -5.40055931 32.40539020
v -26.74970632 -5.40249720 32.66287780
v 7.05276872 -6.08846247 24.95670280
v 9.31427623 -10.50072759 28.51259744
v 1.34952920 -25.19665062 24.46819878
v -4.49858871 -25.19665062 32.52170122
v -24.51293324 -25.04938245 32.66287780
v 6.44852216 -5.40055931 24.83397534
v 6.84075202 -5.40055931 25.06659663
v -26.78504144 -5.40055931 31.59041440
v -26.77797382 -5.40249720 32.40619338
v -26.47408401 -23.49917889 32.66287780
v 5.48384781 -5.40055931 24.64065886
v -4.49505528 -25.19665062 24.46819878
v 1.99971232 -5.40055931 24.46819878
v 4.48383684 -5.50132319 24.48263726
v -4.49858871 -25.19665062 30.49950188
v -25.33272957 -25.02419055 32.66287780
v -24.51293324 -25.04938245 24.46819878
v -26.47408401 -20.53053975 24.46819878
v -26.46348332 -23.49917889 24.46819878
v -26.47408401 -23.49917889 25.50055495
v -26.47408401 -5.40055931 24.50028396
v -26.47408401 -5.40443510 24.46819878
v -26.24440049 -24.46999252 32.66287780
v 4.48383684 -5.40055931 24.48584622
v -26.44228195 -5.40055931 24.46819878
v -25.83450233 -24.96993244 32.66287780
v -25.81683402 -24.97187108 24.46819878
v -25.33272957 -25.02419055 24.46819878
v -26.24440049 -24.46999252 24.46819878
v -25.84863608 -24.95443076 24.46819878
v -25.83450233 -24.96993244 24.46819878
f 1 2 5
f 1 5 13
f 1 13 7
f 1 7 3
f 1 3 9
f 1 9 18
f 1 18 17
f 1 17 22
f 1 22 35
f 1 35 24
f 1 24 36
f 1 36 32
f 1 32 19
f 1 19 10
f 1 10 4
f 1 4 11
f 1 11 21
f 1 21 34
f 1 34 37
f 1 37 27
f 1 27 16
f 1 16 6
f 1 6 2
f 2 6 15
f 2 15 26
f 2 26 23
f 2 23 14
f 2 14 5
f 3 7 8
f 3 8 9
f 4 10 11
f 5 12 8
f 5 8 13
f 5 14 12
f 6 16 15
f 7 13 8
f 8 12 17
f 8 17 18
f 8 18 9
f 10 19 20
f 10 20 11
f 11 20 21
f 12 22 17
f 12 14 22
f 14 23 28
f 14 28 39
f 14 39 38
f 14 38 42
f 14 42 41
f 14 41 40
f 14 40 30
f 14 30 29
f 14 29 33
f 14 33 36
f 14 36 24
f 14 24 25
f 14 25 22
f 15 16 28
f 15 28 26
f 16 27 39
f 16 39 28
f 19 29 30
f 19 30 31
f 19 31 21
f 19 21 20
f 19 32 33
f 19 33 29
f 21 31 40
f 21 40 34
f 22 25 35
f 23 26 28
f 24 35 25
f 27 37 38
f 27 38 39
f 30 40 31
f 32 36 33
f 34 40 41
f 34 41 37
f 37 41 42
f 37 42 38

