# https://github.com/mikedh/trimesh
v -5.52810268 13.70615363 21.41356355
v -1.13181868 13.70615363 21.41356355
v -5.52810268 13.70615363 26.38871258
v -5.52810268 31.97832704 21.41356355
v 3.81502951 13.88270855 21.41356355
v -0.66996650 13.70615363 21.60399741
v 3.18855713 13.70615363 26.38871258
v -5.52810268 32.04485774 26.38871258
v -5.52810268 32.04997480 21.41453734
v -5.51438429 32.04997480 21.41356355
v 3.81502951 13.90573680 22.14412874
v 3.81502951 39.83375430 21.41356355
v 3.81502951 16.73829556 24.53892118
v 3.81502951 19.34056431 26.38871258
v -3.55814309 39.84654546 26.38871258
v -5.52810268 32.04997480 24.51310790
v -3.55814309 39.84654546 21.41356355
v 3.48121594 39.84654546 21.41356355
v 3.81502951 39.84654546 21.41599877
v 3.81502951 21.90701067 26.38871258
v 3.19312955 39.84654546 26.38871258
v 3.81502951 39.84654546 21.47736622
f 1 2 6
f 1 6 7
f 1 7 3
f 1 3 8
f 1 8 16
f 1 16 9
f 1 9 4
f 1 4 10
f 1 10 17
f 1 17 18
f 1 18 12
f 1 12 5
f 1 5 2
f 2 5 6
f 3 7 14
f 3 14 20
f 3 20 21
f 3 21 15
f 3 15 8
f 4 9 10
f 5 11 7
f 5 7 6
f 5 12 19
f 5 19 22
f 5 22 20
f 5 20 14
f 5 14 13
f 5 13 11
f 7 11 13
f 7 13 14
f 8 15 16
f 9 16 15
f 9 15 17
f 9 17 10
f 12 18 19
f 15 21 22
f 15 22 19
f 15 19 18
f 15 18 17
f 20 22 21

