# https://github.com/mikedh/trimesh
v 13.49731232 -38.93688917 39.36453646
v 13.49037732 -38.93688917 39.36345613
v 13.49731232 -41.17799699 39.36453646
v 13.49731232 -38.93688917 28.37923652
v 13.48504270 -38.93688917 39.36237729
v 13.48504270 -41.17799699 39.36237729
v 13.49731232 -41.17799699 28.37923652
v 8.04777811 -38.93688917 28.33497113
v 13.21029956 -38.93688917 39.25873226
v 13.05878903 -41.17799699 39.20151180
v 8.04777811 -41.17799699 28.33605072
v 8.04777811 -39.24820721 28.33497113
v 8.04777811 -38.93688917 35.66462284
v 12.85659964 -38.93688917 39.12485725
v 12.85659964 -41.17799699 39.12485725
v 8.04777811 -41.17799699 35.66462284
f 1 2 3
f 1 3 7
f 1 7 4
f 1 4 8
f 1 8 13
f 1 13 14
f 1 14 9
f 1 9 5
f 1 5 2
f 2 5 6
f 2 6 3
f 3 6 10
f 3 10 15
f 3 15 16
f 3 16 11
f 3 11 7
f 4 7 12
f 4 12 8
f 5 9 6
f 6 9 10
f 7 11 12
f 8 12 11
f 8 11 16
f 8 16 13
f 9 14 10
f 10 14 15
f 13 16 15
f 13 15 14

