# https://github.com/mikedh/trimesh
v -0.46187158 7.08230712 40.58154197
v 3.21131625 6.17058759 39.18327817
v 3.21131625 7.08230712 37.62431412
v -4.52434129 7.08230712 40.58154197
v 0.81730668 5.92629770 40.58154197
v 3.21131625 3.28274557 40.58154197
v 3.21131625 7.08230712 32.11906559
v -4.52434129 7.08230712 32.11906559
v -4.52434129 -25.13763474 40.58154197
v 3.21131625 -2.22247614 40.58154197
v 3.21131625 -37.48294045 32.11906559
v -4.52434129 -25.18125943 32.11906559
v -4.52434129 -25.15072095 40.49953484
v -3.47464282 -37.48294045 40.58154197
v 1.37396470 -37.48294045 40.58154197
v 3.21131625 -37.48294045 37.60360447
v -3.47464282 -37.48294045 32.11906559
v -4.52434129 -25.18125943 39.49971061
f 1 2 3
f 1 3 7
f 1 7 8
f 1 8 4
f 1 4 9
f 1 9 14
f 1 14 15
f 1 15 10
f 1 10 6
f 1 6 5
f 1 5 2
f 2 5 6
f 2 6 10
f 2 10 16
f 2 16 11
f 2 11 7
f 2 7 3
f 4 8 12
f 4 12 18
f 4 18 13
f 4 13 9
f 7 11 17
f 7 17 12
f 7 12 8
f 9 13 14
f 10 15 16
f 11 16 15
f 11 15 14
f 11 14 17
f 12 17 14
f 12 14 18
f 13 18 14

