# https://github.com/mikedh/trimesh
v 1.88208516 23.75619411 42.55852437
v 1.88208516 24.49487597 42.16891265
v 10.48492785 25.23198128 42.55852437
v 1.88208516 39.84497190 42.55852437
v 1.88208516 24.50117469 42.16594136
v 10.62134351 25.36428571 42.55852437
v 10.48492785 25.50131083 42.52606368
v 10.75862790 39.84497190 42.55852437
v 1.88208516 39.84497190 42.10554695
v 1.88208516 25.49658418 42.10895932
v 10.75689043 25.50131083 42.55852437
v 10.75775917 26.50144398 42.55852437
v 1.88208516 26.49672031 42.10687613
v 10.48492785 39.84497190 42.52606368
v 10.75862790 39.49846625 42.55852437
f 1 2 3
f 1 3 6
f 1 6 11
f 1 11 12
f 1 12 15
f 1 15 8
f 1 8 4
f 1 4 9
f 1 9 13
f 1 13 10
f 1 10 5
f 1 5 2
f 2 5 3
f 3 5 7
f 3 7 6
f 4 8 14
f 4 14 9
f 5 10 7
f 6 7 11
f 7 12 11
f 7 10 13
f 7 13 9
f 7 9 14
f 7 14 8
f 7 8 15
f 7 15 12

