# https://github.com/mikedh/trimesh
v -3.68945092 40.39370352 19.39384620
v -3.68890963 40.39370352 20.50004173
v -3.68782743 40.39370352 18.49972719
v -3.47515915 25.50021024 18.49972719
v -3.47461805 25.50021024 20.70800031
v -3.68836853 40.39370352 20.70800031
v -3.67592232 40.39370352 18.39368893
v -3.36801336 24.50186421 17.50059940
v -3.13748732 14.31158003 16.80157023
v -3.15588617 14.31158003 17.50059940
v -3.05631632 14.31158003 17.91600173
v -3.03250611 14.31158003 18.01431895
v -3.35989613 24.50186421 20.70800031
v 1.83884229 40.39370352 20.70800031
v -3.54875419 40.39370352 17.50059940
v -3.06064530 14.31158003 16.70582691
v -3.52386178 40.39370352 17.42596071
v -3.21270585 40.39370352 16.71766608
v -2.61312200 14.31158003 18.03439400
v -2.51409325 23.60309678 20.70800031
v -2.93618304 23.70778350 20.70800031
v -3.14127538 23.81247023 20.70800031
v 1.83884229 40.39370352 15.45035400
v 1.83884229 23.80736210 20.70800031
v -2.73433748 14.31158003 16.30123408
v -3.16995586 40.39370352 16.66464695
v -2.51409325 14.31158003 18.03902677
v -1.51406534 23.56735183 20.70800031
v -1.70508799 14.31158003 18.04829233
v -1.51406534 14.31158003 18.05035130
v 1.83884229 14.31158003 15.45035400
v -0.51457853 40.39370352 15.44983935
v 1.49792386 23.71799677 20.70800031
v 1.83884229 14.31158003 18.05035130
v -2.23432357 14.31158003 15.85185819
v -2.79548651 40.39370352 16.21784486
v -2.74245471 40.39370352 16.16997316
v 0.48544928 23.56479777 20.70800031
v -0.51457853 14.31158003 15.45035400
v -1.40800184 40.39370352 15.55278916
v -2.09687382 14.31158003 15.79935389
v -2.29547251 40.39370352 15.84156334
v -2.21917168 40.39370352 15.81222255
v -1.51406534 14.31158003 15.57698234
v -1.51406534 40.39370352 15.56617265
f 1 2 6
f 1 6 14
f 1 14 23
f 1 23 32
f 1 32 40
f 1 40 45
f 1 45 43
f 1 43 42
f 1 42 37
f 1 37 36
f 1 36 26
f 1 26 18
f 1 18 17
f 1 17 15
f 1 15 7
f 1 7 3
f 1 3 4
f 1 4 5
f 1 5 2
f 2 5 6
f 3 7 8
f 3 8 4
f 4 8 9
f 4 9 10
f 4 10 5
f 5 10 11
f 5 11 12
f 5 12 13
f 5 13 22
f 5 22 21
f 5 21 20
f 5 20 28
f 5 28 38
f 5 38 33
f 5 33 24
f 5 24 14
f 5 14 6
f 7 15 8
f 8 15 9
f 9 16 25
f 9 25 35
f 9 35 41
f 9 41 44
f 9 44 39
f 9 39 31
f 9 31 34
f 9 34 30
f 9 30 29
f 9 29 27
f 9 27 19
f 9 19 12
f 9 12 11
f 9 11 10
f 9 15 17
f 9 17 18
f 9 18 16
f 12 19 20
f 12 20 21
f 12 21 22
f 12 22 13
f 14 24 34
f 14 34 31
f 14 31 23
f 16 18 26
f 16 26 25
f 19 27 20
f 20 27 29
f 20 29 30
f 20 30 28
f 23 31 32
f 24 33 34
f 25 26 36
f 25 36 37
f 25 37 35
f 28 30 38
f 30 34 38
f 31 39 32
f 32 39 40
f 33 38 34
f 35 37 42
f 35 42 43
f 35 43 41
f 39 44 45
f 39 45 40
f 41 43 44
f 43 45 44

