# https://github.com/mikedh/trimesh
v -2.65643245 40.39370650 21.64426878
v 2.47544029 40.39370650 21.64426878
v -2.65643245 40.39370650 25.34884576
v -2.65643245 50.52216719 21.64426878
v 1.70621213 40.39569432 25.34884576
v 1.42635575 40.39370650 24.59132211
v 2.47594283 42.48441605 21.64426878
v -2.08064169 40.39370650 25.34884576
v -2.65643245 50.54900719 25.34884576
v -2.65643245 50.54900719 22.50042630
v -2.65592991 50.54900719 21.64426878
v 2.47644537 47.49993444 21.64426878
v 1.70621213 47.50987353 25.34884576
v -0.51404880 50.54900719 25.34884576
v -0.51404880 50.54900719 21.64426878
v 2.46941127 48.47321074 21.64426878
v 1.70068566 48.50005372 25.34884576
v 0.57020643 50.28356955 25.34884576
v 0.48529468 50.43467940 21.64426878
v 0.34109563 50.46649639 21.64426878
v 2.46890873 48.50005372 21.64426878
v 1.69716824 48.51595923 25.34884576
v 0.64406411 50.23385923 25.34884576
v 1.38013156 50.17222200 21.64426878
v 1.28316178 50.21795669 21.64426878
v 2.04837034 49.49918057 21.64426878
v 1.45951646 49.56877204 25.34884576
v 1.35701983 49.68906626 25.34884576
f 1 2 6
f 1 6 8
f 1 8 3
f 1 3 9
f 1 9 10
f 1 10 4
f 1 4 11
f 1 11 15
f 1 15 20
f 1 20 19
f 1 19 25
f 1 25 24
f 1 24 26
f 1 26 21
f 1 21 16
f 1 16 12
f 1 12 7
f 1 7 2
f 2 5 6
f 2 7 5
f 3 8 5
f 3 5 13
f 3 13 17
f 3 17 22
f 3 22 27
f 3 27 28
f 3 28 23
f 3 23 18
f 3 18 14
f 3 14 9
f 4 10 11
f 5 8 6
f 5 7 12
f 5 12 13
f 9 14 15
f 9 15 11
f 9 11 10
f 12 16 17
f 12 17 13
f 14 18 19
f 14 19 20
f 14 20 15
f 16 21 17
f 17 21 22
f 18 23 24
f 18 24 25
f 18 25 19
f 21 26 27
f 21 27 22
f 23 28 24
f 24 28 26
f 26 28 27

