# https://github.com/mikedh/trimesh
v 10.48409040 50.55000186 47.49940670
v 10.48409040 50.27445555 48.27448761
v 11.48369308 50.27340651 48.27448761
v 11.48369308 50.54790378 47.49940670
v 10.48409040 50.55000186 45.49946225
v -2.65758489 50.55000186 47.49940670
v 10.48409040 49.49914217 48.54999816
v -2.65758489 50.27445555 48.27448761
v 11.48369308 49.49914217 48.54916668
v 12.48487229 49.49914217 48.43962824
v 12.48487229 50.16444325 48.17241466
v 12.48487229 50.32998323 47.49940670
v 11.48369308 50.54790378 45.49946225
v 10.48409040 50.54790378 44.49949300
v -1.51428063 50.55000186 40.07306284
v -2.65758489 50.55000186 40.07306284
v 11.48369308 48.49962294 48.54999816
v -2.65758489 49.49914217 48.54999816
v 12.48487229 48.49962294 48.53506124
v 13.22865183 48.49962294 48.25955069
v 13.13390280 49.49914217 48.16494620
v 13.02178348 50.03767014 48.04710782
v 12.48487229 50.32998323 46.49943447
v 13.03915377 50.05652905 47.49940670
v 11.48369308 50.52276254 44.49949300
v 12.48487229 50.32893419 45.49946225
v -0.51467982 50.54371357 40.07306284
v -2.65758489 39.84654546 40.07306284
v 11.48369308 39.84654546 48.54999816
v -2.65758489 43.50097477 48.54999816
v 12.48487229 39.84654546 48.53506124
v 13.22865183 39.84654546 48.25955069
v 13.31392522 39.84654546 47.99648559
v 13.47499932 48.49962294 47.49940670
v 13.28392173 49.49914217 47.49940670
v 13.03915377 50.05652905 46.49943447
v 12.54172171 50.22101998 44.51193845
v 12.24642093 50.14977455 43.74100602
v 11.46316375 50.21787882 43.44475007
v 13.03915377 50.05548000 45.49946225
v 13.02020396 50.03662109 44.85300815
v 0.53229588 50.24616718 40.07306284
v 11.11575062 50.03243089 42.96924508
v -2.65758489 39.84654546 48.47697055
v 1.37082371 39.84654546 40.07306284
v -1.51428063 39.84654546 48.54999816
v -2.65758489 42.50040650 48.54418969
v -2.51388182 41.50088727 48.54999816
v 13.47499932 39.84654546 47.49940670
v 13.47499932 48.49962294 46.49943447
v 13.28392173 49.49914217 46.49943447
v 12.91282172 49.88679886 44.18746865
v 11.78215141 49.88051057 43.07463801
v 12.51013870 49.55048263 43.47462392
v 13.28234370 49.49914217 45.49946225
v 13.15285261 49.53162372 44.51193845
v 0.79759280 50.10367632 40.07306284
v -2.51388182 39.84654546 48.53008127
v 1.37082371 47.49905467 40.07306284
v 11.48369308 39.84654546 42.64560378
v 13.47499932 39.84654546 46.49943447
v 13.47341980 48.49962294 45.49946225
v 13.06599970 49.22045171 43.87544429
v 12.10745568 49.21416640 42.92194283
v 11.46316375 49.52847958 42.83978975
v 0.98551172 49.99890327 40.07306284
v 13.35024531 48.49962294 44.49949300
v 1.36924456 48.49962294 40.07306284
v 11.48369308 48.49962294 42.64560378
v 11.93217034 39.84654546 42.79995596
v 13.47341980 39.84654546 45.49946225
v 13.10705836 48.49962294 43.81237364
v 12.66805376 48.49962294 43.31197476
v 12.16904218 48.49962294 42.88211203
v 1.06288972 49.81031418 40.07306284
v 13.35024531 39.84654546 44.49949300
v 13.26655145 39.84654546 44.26215327
v 1.16237621 49.54524338 40.07306284
v 12.16904218 39.84654546 42.88211203
v 13.10705836 39.84654546 43.81237364
v 12.95545990 39.84654546 43.63893604
v 12.66963328 46.49953544 43.31197476
v 12.66963328 40.50031900 43.31197476
v 12.66963328 39.84654546 43.31280327
f 1 2 3
f 1 3 4
f 1 4 13
f 1 13 5
f 1 5 15
f 1 15 16
f 1 16 6
f 1 6 8
f 1 8 2
f 2 7 3
f 2 8 18
f 2 18 7
f 3 7 9
f 3 9 10
f 3 10 11
f 3 11 4
f 4 11 12
f 4 12 23
f 4 23 13
f 5 13 14
f 5 14 15
f 6 16 28
f 6 28 44
f 6 44 47
f 6 47 30
f 6 30 18
f 6 18 8
f 7 17 9
f 7 18 30
f 7 30 48
f 7 48 46
f 7 46 29
f 7 29 17
f 9 17 19
f 9 19 10
f 10 19 20
f 10 20 21
f 10 21 22
f 10 22 11
f 11 22 12
f 12 22 24
f 12 24 36
f 12 36 23
f 13 25 14
f 13 23 26
f 13 26 25
f 14 25 27
f 14 27 15
f 15 27 42
f 15 42 57
f 15 57 66
f 15 66 75
f 15 75 78
f 15 78 68
f 15 68 59
f 15 59 45
f 15 45 28
f 15 28 16
f 17 29 31
f 17 31 19
f 19 31 32
f 19 32 20
f 20 32 33
f 20 33 34
f 20 34 21
f 21 34 35
f 21 35 22
f 22 35 24
f 23 36 40
f 23 40 26
f 24 35 51
f 24 51 36
f 25 26 37
f 25 37 38
f 25 38 39
f 25 39 27
f 26 40 41
f 26 41 37
f 27 39 43
f 27 43 42
f 28 45 60
f 28 60 70
f 28 70 79
f 28 79 84
f 28 84 81
f 28 81 80
f 28 80 77
f 28 77 76
f 28 76 71
f 28 71 61
f 28 61 49
f 28 49 33
f 28 33 32
f 28 32 31
f 28 31 29
f 28 29 46
f 28 46 58
f 28 58 44
f 30 47 48
f 33 49 34
f 34 49 61
f 34 61 50
f 34 50 51
f 34 51 35
f 36 51 40
f 37 41 52
f 37 52 38
f 38 53 43
f 38 43 39
f 38 52 54
f 38 54 53
f 40 51 55
f 40 55 41
f 41 55 56
f 41 56 52
f 42 43 53
f 42 53 57
f 44 58 47
f 45 59 69
f 45 69 60
f 46 48 58
f 47 58 48
f 50 61 71
f 50 71 62
f 50 62 55
f 50 55 51
f 52 56 63
f 52 63 54
f 53 54 64
f 53 64 65
f 53 65 66
f 53 66 57
f 54 63 64
f 55 62 67
f 55 67 56
f 56 67 63
f 59 68 69
f 60 69 70
f 62 71 76
f 62 76 67
f 63 67 72
f 63 72 73
f 63 73 64
f 64 73 74
f 64 74 69
f 64 69 66
f 64 66 65
f 66 69 75
f 67 76 77
f 67 77 72
f 68 78 69
f 69 74 70
f 69 78 75
f 70 74 79
f 72 77 80
f 72 80 81
f 72 81 82
f 72 82 73
f 73 82 74
f 74 82 83
f 74 83 79
f 79 83 84
f 81 84 83
f 81 83 82

