# https://github.com/mikedh/trimesh
v 13.47499932 -41.17821455 17.50011433
v 13.47499932 -41.17821455 16.50045196
v 13.47341980 -41.17821455 18.49977671
v 13.47499932 -48.49969447 17.50011433
v 13.47499932 -48.49969447 16.50045196
v 13.39604254 -41.17821455 16.25590649
v 13.35024531 -41.17821455 19.49943936
v 13.47341980 -48.49969447 18.49977671
v 13.28392173 -49.49961901 17.50011433
v 13.28392173 -49.49961901 16.50045196
v 13.13390280 -49.49961901 15.83456116
v 13.22865183 -48.49969447 15.74037819
v 13.22865183 -41.17821455 15.74037819
v 13.18601365 -41.17821455 19.96622345
v 13.35024531 -48.49969447 19.49943936
v 13.28234370 -49.49961901 18.49977671
v 13.03915377 -50.05553961 18.49977671
v 13.03915377 -50.05645752 17.50011433
v 13.03915377 -50.05645752 16.50045196
v 13.02178348 -50.03719330 15.95270316
v 12.48487229 -49.49961901 15.56027362
v 12.48487229 -48.49969447 15.46526438
v 12.99020047 -41.17821455 15.65197816
v 13.10705836 -41.17821455 20.18763645
v 13.10705836 -48.49969447 20.18763645
v 13.06599970 -49.21982288 20.12484780
v 13.15285261 -49.53172803 19.48704681
v 13.02020396 -50.03719330 19.14583965
v 12.48487229 -50.32983422 18.49977671
v 12.48487229 -50.33075213 17.50011433
v 12.48487229 -50.33075213 16.50045196
v 12.48487229 -50.16471148 15.82712567
v 11.48369308 -50.27387738 15.72550701
v -2.65758489 -49.49961901 13.54277319
v 12.48487229 -41.17821455 15.46526438
v -2.65758489 -48.49969447 13.53864221
v 12.66963328 -41.17821455 20.68746759
v 12.66963328 -45.50083280 20.68746759
v 12.66805376 -48.49969447 20.68746759
v 12.91282172 -49.88674819 19.81255671
v 12.10745568 -49.21432137 21.07824458
v 12.51013870 -49.55099225 20.52553891
v 12.54172171 -50.22158623 19.48704681
v 11.48369308 -50.52340031 19.49943936
v 11.48369308 -50.54816604 18.49977671
v 11.48369308 -50.54816604 16.50045196
v -2.65758489 -50.26470423 14.75062983
v -2.65758489 -44.50090528 13.53864221
v -2.65758489 -43.50006282 13.53946848
v -2.65758489 -42.55793095 13.55764417
v -2.65758489 -42.50013530 13.56425358
v -2.65758489 -42.12676883 13.95750901
v 12.16272707 -41.17821455 15.46030732
v 12.33011628 -41.17821455 20.97993082
v 12.16904218 -48.49969447 21.11790067
v 12.24642093 -50.15003085 20.25951295
v 11.48369308 -48.49969447 21.35418466
v 11.46316375 -49.52805936 21.16086146
v 11.78373094 -49.88124371 20.92623001
v 11.46316375 -50.21883249 20.55528088
v 10.48409040 -50.32249689 20.49992791
v -0.51467982 -50.54724813 21.97876720
v 10.48409040 -50.54724813 19.49943936
v 10.48409040 -50.55000186 18.49977671
v 10.48409040 -50.55000186 16.50045196
v -2.65758489 -50.55000186 16.35752505
v -2.65758489 -50.36469698 15.26450569
v -2.65758489 -41.17821455 15.74946603
v -2.58968105 -41.17821455 15.67924170
v -2.44755750 -41.17821455 15.57266618
v -1.51428063 -41.17821455 15.46939517
v -0.51467982 -41.17821455 15.45039339
v 11.48369308 -41.17821455 15.45039339
v 12.16904218 -41.17821455 21.11790067
v 11.70477266 -41.17821455 21.27817719
v 11.11733015 -50.03260970 21.03115319
v 11.48369308 -41.17821455 21.35418466
v 10.80623711 -41.17821455 21.43514900
v 10.48409040 -48.49969447 21.47315255
v 10.48409040 -49.49961901 21.28478660
v 0.52913758 -50.36469698 21.97876720
v -1.51428063 -50.55000186 21.97876720
v 9.48448996 -50.54816604 19.49943936
v -2.65758489 -50.55000186 21.97876720
v -2.65758489 -41.17821455 21.97876720
v 10.48409040 -41.17821455 21.47315255
v 1.83983105 -47.49976695 21.97876720
v 1.83193530 -48.49969447 21.97876720
v 1.62032950 -49.52530563 21.97876720
v 1.21922563 -50.11333823 21.97876720
v 1.83983105 -41.17821455 21.97876720
f 1 2 6
f 1 6 13
f 1 13 23
f 1 23 35
f 1 35 53
f 1 53 73
f 1 73 72
f 1 72 71
f 1 71 70
f 1 70 69
f 1 69 68
f 1 68 85
f 1 85 91
f 1 91 86
f 1 86 78
f 1 78 77
f 1 77 75
f 1 75 74
f 1 74 54
f 1 54 37
f 1 37 24
f 1 24 14
f 1 14 7
f 1 7 3
f 1 3 8
f 1 8 4
f 1 4 5
f 1 5 2
f 2 5 6
f 3 7 15
f 3 15 8
f 4 8 16
f 4 16 9
f 4 9 10
f 4 10 5
f 5 10 11
f 5 11 12
f 5 12 6
f 6 12 13
f 7 14 15
f 8 15 16
f 9 16 17
f 9 17 18
f 9 18 19
f 9 19 10
f 10 19 20
f 10 20 11
f 11 20 21
f 11 21 12
f 12 21 22
f 12 22 23
f 12 23 13
f 14 24 25
f 14 25 15
f 15 25 26
f 15 26 27
f 15 27 16
f 16 27 28
f 16 28 17
f 17 28 29
f 17 29 30
f 17 30 18
f 18 30 31
f 18 31 19
f 19 31 20
f 20 31 32
f 20 32 21
f 21 32 33
f 21 33 34
f 21 34 22
f 22 35 23
f 22 34 36
f 22 36 48
f 22 48 35
f 24 37 38
f 24 38 25
f 25 38 39
f 25 39 26
f 26 40 27
f 26 39 41
f 26 41 42
f 26 42 40
f 27 40 28
f 28 40 43
f 28 43 29
f 29 43 44
f 29 44 45
f 29 45 30
f 30 45 46
f 30 46 31
f 31 46 32
f 32 46 33
f 33 46 47
f 33 47 34
f 34 47 67
f 34 67 66
f 34 66 84
f 34 84 85
f 34 85 68
f 34 68 52
f 34 52 51
f 34 51 50
f 34 50 49
f 34 49 48
f 34 48 36
f 35 48 49
f 35 49 50
f 35 50 51
f 35 51 52
f 35 52 53
f 37 54 38
f 38 54 55
f 38 55 39
f 39 55 41
f 40 42 56
f 40 56 43
f 41 55 57
f 41 57 58
f 41 58 59
f 41 59 42
f 42 59 56
f 43 56 44
f 44 56 60
f 44 60 61
f 44 61 62
f 44 62 63
f 44 63 45
f 45 63 64
f 45 64 65
f 45 65 46
f 46 65 66
f 46 66 67
f 46 67 47
f 52 68 69
f 52 69 70
f 52 70 71
f 52 71 72
f 52 72 73
f 52 73 53
f 54 74 55
f 55 74 75
f 55 75 57
f 56 59 76
f 56 76 60
f 57 75 77
f 57 77 78
f 57 78 79
f 57 79 80
f 57 80 58
f 58 80 76
f 58 76 59
f 60 76 62
f 60 62 61
f 62 81 90
f 62 90 89
f 62 89 88
f 62 88 87
f 62 87 91
f 62 91 85
f 62 85 84
f 62 84 82
f 62 82 63
f 62 76 81
f 63 83 64
f 63 82 83
f 64 83 82
f 64 82 84
f 64 84 66
f 64 66 65
f 76 80 81
f 78 86 79
f 79 86 91
f 79 91 87
f 79 87 88
f 79 88 89
f 79 89 90
f 79 90 80
f 80 90 81

