# https://github.com/mikedh/trimesh
v -27.06920696 -5.10199212 31.59934087
v -27.06920696 -4.80020307 33.10501235
v -27.06920696 -4.70545543 30.50055197
v -26.48000551 -23.49708526 23.50093449
v -26.47338641 -23.49708526 38.49982082
v -26.47117954 -23.49708526 40.49912059
v -27.06920696 -4.71247388 33.49950311
v -27.06920696 -4.35804717 29.56079885
v -26.43807807 -22.49697046 22.50128386
v -26.37408199 -23.49708526 22.50128386
v -26.24388445 -24.46912774 23.50093449
v -26.24388445 -24.46912774 40.49912059
v -27.06920696 -4.23522608 29.37491264
v -27.06920696 -3.49479036 28.49918541
v -27.06920696 -3.33336815 28.35047763
v -27.06920696 -2.45256558 27.64824405
v -27.06920696 -2.17884997 27.52432065
v -27.06920696 -1.50157921 27.26201524
v -27.02507266 10.66472872 22.90816644
v -26.36966826 -23.49708526 41.49877196
v -26.43587120 -22.49697046 41.49877196
v -27.06920696 -1.50157921 36.70499350
v -27.06920696 -2.46660211 36.36626890
v -27.06920696 -3.33336815 35.92427468
v -27.06920696 -4.37559330 34.44545363
v -27.06920696 -4.48437748 34.18314822
v -26.20416387 -22.49697046 21.79491968
v -26.05410456 -24.04802646 21.95602002
v -26.16002808 -24.26910478 22.50128386
v -26.14016779 -23.49708526 21.86514296
v -25.83563692 -24.97093975 23.50093449
v -26.16002808 -24.26910478 41.49877196
v -25.83563692 -24.97093975 40.49912059
v -27.06920696 -1.22084514 27.19179196
v -27.04934667 10.66472872 23.45962620
v -26.06955261 10.66472872 22.14397079
v -26.14016779 8.49956843 21.86514296
v -26.20416387 7.49945363 21.79491968
v -26.05410456 -24.04802646 42.04403581
v -26.14016779 -23.49708526 42.13491212
v -26.20416387 -22.49697046 42.20513540
v -26.43587120 7.49945363 41.49877196
v -27.06920696 -0.50146403 36.91359805
v -25.51345263 -22.49697046 21.52022245
v -25.51345263 -23.49708526 21.66273432
v -25.51345263 -24.10417260 21.90438521
v -25.54214037 -24.67265993 22.58389971
v -25.22878204 -25.01655672 22.97219382
v -25.33470557 -25.02357816 23.50093449
v -25.54214037 -24.67265993 41.41615686
v -25.33470557 -25.02357816 40.49912059
v -25.22878204 -25.01655672 41.02992731
v -27.06920696 -0.50146403 27.05960660
v -27.02948639 10.66472872 28.00349182
v -27.06920696 -0.36109719 27.06373721
v -27.06920696 0.49865077 27.11743807
v -27.06920696 1.49876482 27.30538884
v -27.06920696 2.46027887 27.63585148
v -27.06920696 2.63924722 27.74531701
v -27.06920696 3.49197672 28.48885889
v -27.06920696 4.37628852 29.56286416
v -27.06920696 4.49560000 29.82103747
v -27.06920696 4.73422446 30.50055197
v -27.06920696 4.81142596 30.87438821
v -27.06920696 5.09215965 32.40484482
v -27.06920696 4.35874238 34.44751893
v -25.81577663 10.66472872 22.17082122
v -4.52730420 10.05764288 22.92882022
v -4.52730420 9.64706928 22.43312588
v -4.52730420 9.64356005 22.42899528
v -4.52730420 9.14525726 21.87340417
v -4.52730420 8.49956843 21.59664164
v -24.51379529 8.49956843 21.59664164
v -25.51345263 8.49956843 21.66273432
v -25.51345263 7.49945363 21.52022245
v -25.51345263 -23.49708526 42.33732076
v -25.51345263 -24.10417260 42.09566838
v -25.51345263 -22.49697046 42.47983263
v -26.20416387 7.49945363 42.20513540
v -26.36966826 8.49956843 41.49877196
v -26.46676581 8.49956843 40.49912059
v -27.06920696 2.46378810 36.36007299
v -27.06920696 2.19709132 36.47573443
v -27.06920696 1.49876482 36.71118941
v -27.06920696 1.19697651 36.78554330
v -27.06920696 0.49865077 36.90327153
v -24.51379529 -22.49697046 21.44999842
v -24.51379529 -23.49708526 21.59664164
v -24.51379529 -24.13575564 21.87340417
v -24.51379529 -24.63756766 22.45584496
v -24.51379529 -25.02357816 22.95567065
v -24.51379529 -25.04814126 23.50093449
v -24.51379529 -24.63756766 41.54421161
v -24.51379529 -25.04814126 40.49912059
v -24.51379529 -25.02357816 41.04438443
v -27.02727803 10.66472872 28.50125071
v -27.06920696 4.24294012 34.63133835
v -4.52730420 10.66472872 25.38870343
v -4.52730420 7.50998131 21.45206447
v -5.51592647 7.49945363 21.44999842
v -24.51379529 7.49945363 21.44999842
v -24.51379529 -23.49708526 42.40341344
v -24.51379529 -22.49697046 42.54799061
v -24.51379529 -24.13575564 42.12665091
v -25.51345263 7.49945363 42.47983263
v -26.14016779 8.49956843 42.13491212
v -26.05410456 9.04700040 42.04403581
v -26.15782121 9.27158646 41.49877196
v -26.24388445 9.46810019 40.49912059
v -27.00741774 10.66472872 29.52362042
v -27.06920696 3.50601288 35.51945740
v -27.06920696 3.33757296 35.66196927
v -5.51592647 -22.49697046 21.44999842
v -4.52730420 -23.48655758 21.59251104
v -4.52730420 -24.14277410 21.86927357
v -4.52730420 -23.49708526 21.59457634
v -4.52730420 -24.64458611 22.43312588
v -4.52730420 -25.05515971 22.93295083
v -4.52730420 -25.14288890 23.49473784
v -4.52730420 -25.17797819 24.49025786
v -4.52730420 -25.18148890 29.49057408
v -4.52730420 -25.18499962 38.48949281
v -4.52730420 -24.64458611 41.57312585
v -4.52730420 -25.05866745 41.07123635
v -4.52730420 -25.18499962 39.49947070
v -4.52730420 -25.14990735 40.49912059
v -4.52730420 10.66472872 36.12461801
v -4.52730420 -22.49697046 21.45206447
v -4.52730420 -24.14277410 42.13078151
v -4.52730420 -23.50410372 42.40341344
v -4.52730420 -23.49708526 42.40547874
v -4.52730420 -22.49697046 42.55005591
v -24.51379529 7.49945363 42.54799061
v -4.52730420 -24.14979255 42.12458560
v -25.51345263 8.49956843 42.33732076
v -25.51345263 9.10314654 42.09566838
v -25.54214037 9.67163238 41.41615686
v -25.83343006 9.96991220 40.49912059
v -26.77571041 10.66472872 30.18041659
v -25.50021144 10.66472872 31.45682900
v -25.22657518 10.01553216 41.02992731
v -24.51379529 10.02255061 41.04438443
v -4.52730420 10.14888129 40.50531650
v -4.52730420 7.49945363 42.54799061
v -24.51379529 8.49956843 42.40341344
v -24.51379529 9.13823881 42.12665091
v -24.51379529 9.63654160 41.54421161
v -26.66316630 10.66472872 30.36217070
v -4.52730420 10.05413365 41.07742928
v -4.52730420 10.05764288 41.07123635
v -4.52730420 8.49956843 42.40341344
v -4.52730420 9.13823881 42.13078151
v -4.52730420 9.14525726 42.12665091
v -4.52730420 9.64005082 41.57725646
f 1 2 7
f 1 7 26
f 1 26 25
f 1 25 24
f 1 24 23
f 1 23 22
f 1 22 43
f 1 43 86
f 1 86 85
f 1 85 84
f 1 84 83
f 1 83 82
f 1 82 112
f 1 112 111
f 1 111 97
f 1 97 66
f 1 66 65
f 1 65 64
f 1 64 63
f 1 63 62
f 1 62 61
f 1 61 60
f 1 60 59
f 1 59 58
f 1 58 57
f 1 57 56
f 1 56 55
f 1 55 53
f 1 53 34
f 1 34 18
f 1 18 17
f 1 17 16
f 1 16 15
f 1 15 14
f 1 14 13
f 1 13 8
f 1 8 3
f 1 3 4
f 1 4 5
f 1 5 6
f 1 6 2
f 2 6 7
f 3 8 4
f 4 9 10
f 4 10 11
f 4 11 12
f 4 12 5
f 4 8 13
f 4 13 14
f 4 14 15
f 4 15 16
f 4 16 17
f 4 17 18
f 4 18 19
f 4 19 9
f 5 12 6
f 6 12 20
f 6 20 21
f 6 21 22
f 6 22 23
f 6 23 24
f 6 24 25
f 6 25 26
f 6 26 7
f 9 27 10
f 9 19 27
f 10 28 29
f 10 29 11
f 10 27 30
f 10 30 28
f 11 29 31
f 11 31 33
f 11 33 12
f 12 32 20
f 12 33 32
f 18 34 35
f 18 35 19
f 19 35 54
f 19 54 96
f 19 96 110
f 19 110 139
f 19 139 148
f 19 148 140
f 19 140 127
f 19 127 98
f 19 98 67
f 19 67 36
f 19 36 37
f 19 37 38
f 19 38 27
f 20 32 39
f 20 39 40
f 20 40 41
f 20 41 21
f 21 41 79
f 21 79 42
f 21 42 43
f 21 43 22
f 27 44 30
f 27 38 75
f 27 75 44
f 28 30 45
f 28 45 46
f 28 46 47
f 28 47 29
f 29 47 31
f 30 44 45
f 31 48 49
f 31 49 51
f 31 51 33
f 31 47 48
f 32 33 50
f 32 50 39
f 33 51 52
f 33 52 50
f 34 53 35
f 35 53 55
f 35 55 56
f 35 56 57
f 35 57 58
f 35 58 59
f 35 59 60
f 35 60 61
f 35 61 62
f 35 62 63
f 35 63 64
f 35 64 65
f 35 65 66
f 35 66 54
f 36 67 68
f 36 68 69
f 36 69 70
f 36 70 71
f 36 71 72
f 36 72 73
f 36 73 74
f 36 74 75
f 36 75 37
f 37 75 38
f 39 76 40
f 39 50 77
f 39 77 76
f 40 76 78
f 40 78 41
f 41 78 105
f 41 105 79
f 42 79 80
f 42 80 81
f 42 81 82
f 42 82 83
f 42 83 84
f 42 84 85
f 42 85 86
f 42 86 43
f 44 87 45
f 44 75 101
f 44 101 87
f 45 87 88
f 45 88 46
f 46 88 89
f 46 89 90
f 46 90 47
f 47 90 48
f 48 91 92
f 48 92 49
f 48 90 91
f 49 92 94
f 49 94 51
f 50 52 93
f 50 93 77
f 51 94 52
f 52 94 95
f 52 95 93
f 54 66 96
f 66 97 96
f 67 98 68
f 68 98 127
f 68 127 143
f 68 143 150
f 68 150 149
f 68 149 154
f 68 154 153
f 68 153 152
f 68 152 151
f 68 151 144
f 68 144 132
f 68 132 131
f 68 131 130
f 68 130 129
f 68 129 134
f 68 134 123
f 68 123 124
f 68 124 126
f 68 126 125
f 68 125 122
f 68 122 121
f 68 121 120
f 68 120 119
f 68 119 118
f 68 118 117
f 68 117 115
f 68 115 116
f 68 116 114
f 68 114 128
f 68 128 99
f 68 99 72
f 68 72 71
f 68 71 70
f 68 70 69
f 72 99 100
f 72 100 101
f 72 101 73
f 73 101 74
f 74 101 75
f 76 102 103
f 76 103 78
f 76 77 102
f 77 104 102
f 77 93 104
f 78 103 133
f 78 133 105
f 79 105 106
f 79 106 80
f 80 106 107
f 80 107 108
f 80 108 109
f 80 109 81
f 81 109 110
f 81 110 111
f 81 111 112
f 81 112 82
f 87 113 114
f 87 114 88
f 87 101 100
f 87 100 113
f 88 115 89
f 88 114 116
f 88 116 115
f 89 115 117
f 89 117 90
f 90 117 118
f 90 118 91
f 91 118 119
f 91 119 92
f 92 119 120
f 92 120 121
f 92 121 122
f 92 122 125
f 92 125 94
f 93 123 104
f 93 95 124
f 93 124 123
f 94 125 126
f 94 126 95
f 95 126 124
f 96 97 110
f 97 111 110
f 99 128 113
f 99 113 100
f 102 104 129
f 102 129 130
f 102 130 131
f 102 131 132
f 102 132 103
f 103 132 133
f 104 134 129
f 104 123 134
f 105 133 135
f 105 135 106
f 106 135 107
f 107 136 137
f 107 137 108
f 107 135 136
f 108 137 138
f 108 138 109
f 109 138 110
f 110 138 139
f 113 128 114
f 127 140 141
f 127 141 142
f 127 142 143
f 132 144 133
f 133 144 151
f 133 151 145
f 133 145 135
f 135 145 136
f 136 145 146
f 136 146 147
f 136 147 137
f 137 147 141
f 137 141 138
f 138 141 139
f 139 141 148
f 140 148 141
f 141 147 142
f 142 149 150
f 142 150 143
f 142 147 149
f 145 151 152
f 145 152 146
f 146 152 153
f 146 153 154
f 146 154 147
f 147 154 149

