# https://github.com/mikedh/trimesh
v -4.52509883 -23.18795589 40.58175655
v -0.36283334 -23.18795589 40.58175655
v -4.52509883 -23.18795589 42.45160980
v -4.52509883 10.11207390 40.58175655
v -0.26207419 -23.18795589 41.50029188
v 0.99710874 -21.00874826 40.58175655
v -3.49369230 -23.18795589 42.64398697
v -4.52509883 -22.50997919 42.54844659
v -4.52509883 10.05924476 41.07326589
v -4.52326673 10.13848921 40.58175655
v -0.49229345 -23.18795589 42.29611305
v 0.99222339 -21.00434645 41.07348345
v 1.13511822 -20.57290673 41.44421876
v 1.10641706 -20.28675050 42.14622211
v 1.15343810 -20.56850492 40.58175655
v -2.51419206 -23.18795589 42.77705447
v -4.52509883 -22.49677377 42.54995458
v -4.52509883 9.64541599 41.57318844
v -3.47476184 21.78733480 41.50029188
v -3.47476184 21.78733480 40.58175655
v -0.55397017 -23.18795589 42.46886238
v 1.17603238 -20.50246887 40.58175655
v 1.34946046 -19.49871371 41.50029188
v 1.16748320 -19.49871371 42.21933324
v -1.51392928 -23.18795589 42.78481798
v -1.51392928 21.78733480 42.55750352
v -2.22718135 21.78733480 42.54089765
v -2.51419206 21.78733480 42.53378085
v -4.52509883 7.49702697 42.54995458
v -4.52509883 9.14353841 42.12853740
v -3.40881036 21.78733480 41.71919612
v -4.52509883 8.49638032 42.40330019
v 1.35984137 21.78733480 40.58175655
v 0.48537478 -19.49871371 42.49409603
v 1.34884952 -19.49871371 40.58175655
v 1.71341425 -4.38074687 40.58175655
v 1.71341425 -3.74679570 40.98074449
v 1.71341425 -0.50220015 41.70086470
v 1.27190617 10.49948883 42.27497722
v 0.48537478 10.49948883 42.54974001
v 0.48537478 21.78733480 42.55577796
v -0.51488792 21.78733480 42.55750352
v -3.03447530 21.78733480 42.33773799
v -3.24454258 21.78733480 42.25492023
v -4.52509883 8.48757522 42.40481117
v 1.42579286 21.78733480 41.21302104
v 1.71341425 4.15557751 40.58175655
v 1.71341425 3.42477316 41.40992817
v 1.45571517 21.78733480 41.50029188
v 1.27190617 21.78733480 42.27713491
f 1 2 5
f 1 5 11
f 1 11 21
f 1 21 25
f 1 25 16
f 1 16 7
f 1 7 3
f 1 3 8
f 1 8 17
f 1 17 29
f 1 29 45
f 1 45 32
f 1 32 30
f 1 30 18
f 1 18 9
f 1 9 4
f 1 4 10
f 1 10 20
f 1 20 33
f 1 33 47
f 1 47 36
f 1 36 35
f 1 35 22
f 1 22 15
f 1 15 6
f 1 6 2
f 2 6 5
f 3 7 8
f 4 9 10
f 5 6 12
f 5 12 13
f 5 13 14
f 5 14 11
f 6 15 12
f 7 16 17
f 7 17 8
f 9 18 19
f 9 19 10
f 10 19 20
f 11 14 21
f 12 15 13
f 13 15 22
f 13 22 23
f 13 23 14
f 14 23 24
f 14 24 21
f 16 25 26
f 16 26 27
f 16 27 28
f 16 28 29
f 16 29 17
f 18 30 19
f 19 31 44
f 19 44 43
f 19 43 28
f 19 28 27
f 19 27 26
f 19 26 42
f 19 42 41
f 19 41 50
f 19 50 49
f 19 49 46
f 19 46 33
f 19 33 20
f 19 30 32
f 19 32 31
f 21 24 34
f 21 34 25
f 22 35 23
f 23 35 36
f 23 36 37
f 23 37 38
f 23 38 24
f 24 38 39
f 24 39 34
f 25 34 40
f 25 40 41
f 25 41 42
f 25 42 26
f 28 43 29
f 29 43 44
f 29 44 45
f 31 32 44
f 32 45 44
f 33 46 47
f 34 39 40
f 36 47 48
f 36 48 38
f 36 38 37
f 38 48 49
f 38 49 50
f 38 50 39
f 39 50 41
f 39 41 40
f 46 49 47
f 47 49 48

