# https://github.com/mikedh/trimesh
v 10.27773018 -37.27879524 35.47462857
v 10.27773018 -38.93688321 35.47462857
v 10.27773018 -37.27879524 28.52573133
v 7.52961631 -37.27879524 35.80372816
v 10.27773018 -38.93688321 28.52573133
v 7.52961631 -38.93688321 35.80372816
v 1.70874703 -37.27944493 25.36249644
v 2.08371873 -37.27879524 25.75087434
v 1.70874703 -37.27879524 35.80372816
v 1.70874703 -38.93688321 25.36249644
v 1.70874703 -38.93688321 35.80372816
v 1.70874703 -37.27879524 25.88374054
f 1 2 5
f 1 5 3
f 1 3 8
f 1 8 12
f 1 12 9
f 1 9 4
f 1 4 6
f 1 6 2
f 2 6 11
f 2 11 10
f 2 10 5
f 3 5 10
f 3 10 7
f 3 7 8
f 4 9 11
f 4 11 6
f 7 10 11
f 7 11 9
f 7 9 12
f 7 12 8

