# https://github.com/mikedh/trimesh
v 13.49784578 -27.05020905 39.36453497
v 13.48506356 -27.05020905 39.36238474
v 13.49784578 -29.03071642 39.36453497
v 13.49784578 -27.05020905 28.38021702
v 13.13945944 -27.05020905 39.23227227
v 13.48506356 -29.03071642 39.36238474
v 13.49784578 -29.03071642 28.38021702
v 8.66128052 -27.05020905 28.46516705
v 12.85682018 -27.05020905 39.12474102
v 12.85682018 -29.03071642 39.12474102
v 13.15129395 -29.03071642 39.23657274
v 8.66128052 -29.03071642 28.46516705
v 8.66128052 -27.05020905 35.53427196
v 8.66128052 -29.03071642 35.53427196
f 1 2 6
f 1 6 3
f 1 3 7
f 1 7 4
f 1 4 8
f 1 8 13
f 1 13 9
f 1 9 5
f 1 5 2
f 2 5 6
f 3 6 11
f 3 11 10
f 3 10 14
f 3 14 12
f 3 12 7
f 4 7 12
f 4 12 8
f 5 9 10
f 5 10 11
f 5 11 6
f 8 12 14
f 8 14 13
f 9 13 14
f 9 14 10

