# https://github.com/mikedh/trimesh
v 11.01903762 -5.40055931 31.99522829
v 24.47353299 -5.40055931 31.99522829
v 11.01903762 -5.40055931 35.47489083
v 11.01903762 39.84654546 31.99522829
v 28.31346388 -5.40055931 34.78124624
v 24.47353299 39.84654546 31.99522829
v 14.09614081 -5.40055931 36.17057687
v 11.01903762 39.84654546 35.47489083
v 28.81280179 -5.40055931 35.15647686
v 28.31346388 39.84654546 34.78124624
v 29.84280283 -5.40055931 36.17057687
v 14.09614081 39.84654546 36.17057687
v 29.27713091 -5.40055931 35.60691512
v 28.81280179 39.84654546 35.15647686
v 29.14999421 39.84654546 35.48306561
v 29.32687993 -5.40055931 35.65637356
v 29.84280283 39.84654546 36.17057687
v 29.32687993 39.84654546 35.65637356
f 1 2 5
f 1 5 9
f 1 9 13
f 1 13 16
f 1 16 11
f 1 11 7
f 1 7 3
f 1 3 8
f 1 8 4
f 1 4 6
f 1 6 2
f 2 6 10
f 2 10 5
f 3 7 12
f 3 12 8
f 4 8 12
f 4 12 17
f 4 17 18
f 4 18 15
f 4 15 14
f 4 14 10
f 4 10 6
f 5 10 14
f 5 14 9
f 7 11 17
f 7 17 12
f 9 14 15
f 9 15 13
f 11 16 18
f 11 18 17
f 13 15 18
f 13 18 16

