# https://github.com/mikedh/trimesh
v -4.52509845 -25.18321446 30.48893203
v -4.52509845 -25.18321446 32.11906559
v -4.52509845 -25.17740896 24.51896721
v -3.47433418 -37.48004068 24.51896721
v -3.47433418 -37.48004068 32.11906559
v -4.52509845 -7.82948034 32.11906559
v -4.52509845 -7.82948034 24.51896721
v 1.39956455 -37.48004068 24.51896721
v 9.04583385 -37.48004068 32.11906559
v 9.04583385 -7.82948034 32.11906559
v 1.42878911 -7.82948034 24.51896721
v 9.04583385 -37.48004068 28.49199931
v 9.04583385 -7.82948034 28.70478737
v 9.04583385 -8.50005861 28.58202552
v 9.04583385 -9.50156965 28.49497508
v 9.04583385 -10.50017943 28.49199931
f 1 2 6
f 1 6 7
f 1 7 3
f 1 3 4
f 1 4 5
f 1 5 2
f 2 5 9
f 2 9 10
f 2 10 6
f 3 7 11
f 3 11 8
f 3 8 4
f 4 8 12
f 4 12 9
f 4 9 5
f 6 10 13
f 6 13 11
f 6 11 7
f 8 11 12
f 9 12 16
f 9 16 15
f 9 15 14
f 9 14 13
f 9 13 10
f 11 13 14
f 11 14 15
f 11 15 16
f 11 16 12

