# https://github.com/mikedh/trimesh
v 19.03649271 17.36511723 43.69490167
v 19.03649271 8.59812271 43.69490167
v 18.37910786 17.36339992 43.69490167
v 26.61088922 15.96507832 47.95992884
v 26.61088922 16.14029761 47.03534933
v 26.61088922 16.14029761 46.69953977
v 26.61088922 15.94360487 45.92644243
v 26.61088922 15.79758832 45.82153246
v 26.61088922 14.92836205 45.36708690
v 26.61088922 13.62108612 45.11804836
v 21.99575816 13.62108612 44.23513897
v 22.00299353 12.34301294 44.23513897
v 26.61088922 9.93116629 46.66718467
v 26.61088922 9.99558518 47.96924385
v 18.32535941 8.59039246 43.69490167
v 26.61088922 12.34301294 45.11412650
v 26.61088922 11.24187777 45.39748155
v 26.61088922 10.97818971 45.48180105
v 26.61088922 10.36749720 46.02988207
v 26.61088922 9.98184247 46.50982019
v 18.23646775 17.36254080 43.69490167
v 26.61088922 15.73832372 48.21828239
v 20.79261985 15.62236904 47.67657474
v 26.61088922 10.65523562 48.54967902
v 20.79261985 10.95585762 48.26044166
v 20.79261985 10.36148521 47.62019742
v 19.93677920 10.38209905 47.52656291
v 17.09948138 8.64965802 43.69490167
v 16.95270677 16.63159987 43.69490167
v 18.92899582 15.49353124 47.29615344
v 19.78276922 15.59574273 47.54666232
v 26.61088922 15.25389258 48.52222695
v 22.07121271 15.09069727 48.35505639
v 26.61088922 11.23071196 48.67370817
v 20.79261985 11.59489421 48.65508006
v 20.14143674 11.66103089 48.64380364
v 19.61222127 11.14052541 47.90110095
v 19.08300579 10.62087906 47.12408175
v 16.58783751 9.41753193 43.69490167
v 16.53408906 16.18066711 43.69490167
v 16.08343282 14.90087662 43.69490167
v 18.79772557 14.64062364 47.44861584
v 19.03649271 14.77890994 47.57460640
v 19.41893358 14.99965254 47.77560145
v 20.74610677 14.84590575 48.37417653
v 26.61088922 15.11474715 48.57272006
v 21.14198475 14.38380622 48.65458994
v 22.07121271 14.45080203 48.66439411
v 26.61088922 12.34301294 48.70263248
v 25.91009216 12.34301294 48.70165225
v 22.07121271 12.34301294 48.69086595
v 22.07121271 11.54507668 48.66390400
v 20.14143674 12.12828328 48.64380364
v 19.51299336 13.62108612 48.11925473
v 19.03649271 13.62108612 47.71628345
v 18.76671685 13.62108612 47.48685421
v 18.78118759 12.34301294 47.46773502
v 18.81633080 11.47378619 47.42263412
v 19.03649271 11.38102272 47.55499711
v 20.66445048 12.47013343 48.66194355
v 16.11340410 10.22319891 43.69490167
v 16.05242410 13.62108612 43.69490167
v 20.25513538 13.62108612 48.62958845
v 26.61088922 14.70074832 48.67321806
v 20.89494862 13.62108612 48.66341389
v 22.07121271 13.62108612 48.69135606
v 26.61088922 14.29447880 48.68841538
v 26.61088922 13.62108612 48.70263248
v 25.91009216 13.62108612 48.70165225
v 20.15280661 12.98033175 48.63743026
v 16.05242410 12.72179655 43.69490167
v 16.06482759 11.45403100 43.69490167
f 1 2 15
f 1 15 28
f 1 28 39
f 1 39 61
f 1 61 72
f 1 72 71
f 1 71 62
f 1 62 41
f 1 41 40
f 1 40 29
f 1 29 21
f 1 21 3
f 1 3 4
f 1 4 5
f 1 5 6
f 1 6 7
f 1 7 8
f 1 8 9
f 1 9 10
f 1 10 11
f 1 11 12
f 1 12 2
f 2 13 14
f 2 14 15
f 2 12 16
f 2 16 17
f 2 17 18
f 2 18 19
f 2 19 20
f 2 20 13
f 3 21 4
f 4 22 32
f 4 32 46
f 4 46 64
f 4 64 67
f 4 67 68
f 4 68 49
f 4 49 34
f 4 34 24
f 4 24 14
f 4 14 13
f 4 13 20
f 4 20 19
f 4 19 18
f 4 18 17
f 4 17 16
f 4 16 10
f 4 10 9
f 4 9 8
f 4 8 7
f 4 7 6
f 4 6 5
f 4 21 23
f 4 23 22
f 10 16 11
f 11 16 12
f 14 24 25
f 14 25 26
f 14 26 27
f 14 27 28
f 14 28 15
f 21 29 30
f 21 30 31
f 21 31 23
f 22 23 33
f 22 33 32
f 23 31 33
f 24 34 35
f 24 35 36
f 24 36 25
f 25 36 27
f 25 27 26
f 27 36 37
f 27 37 38
f 27 38 28
f 28 38 39
f 29 40 30
f 30 40 41
f 30 41 42
f 30 42 43
f 30 43 44
f 30 44 45
f 30 45 31
f 31 45 33
f 32 33 47
f 32 47 48
f 32 48 46
f 33 45 47
f 34 49 50
f 34 50 51
f 34 51 52
f 34 52 35
f 35 52 51
f 35 51 36
f 36 53 54
f 36 54 55
f 36 55 56
f 36 56 57
f 36 57 58
f 36 58 59
f 36 59 37
f 36 51 60
f 36 60 53
f 37 59 38
f 38 59 58
f 38 58 39
f 39 58 61
f 41 62 56
f 41 56 42
f 42 55 54
f 42 54 63
f 42 63 43
f 42 56 55
f 43 63 44
f 44 63 45
f 45 63 47
f 46 48 64
f 47 63 65
f 47 65 66
f 47 66 48
f 48 66 67
f 48 67 64
f 49 68 69
f 49 69 50
f 50 69 66
f 50 66 51
f 51 66 60
f 53 60 65
f 53 65 70
f 53 70 54
f 54 70 63
f 56 62 71
f 56 71 72
f 56 72 57
f 57 72 61
f 57 61 58
f 60 66 65
f 63 70 65
f 66 69 67
f 67 69 68

