v 59.769970 -15.000000 40.133372
v 60.182184 -15.000000 39.250087
v 61.231839 -15.000000 40.133372
v 62.323490 -11.998825 40.133458
v 62.181751 -11.610024 40.133458
v 59.769970 -9.000000 40.133372
v 60.820376 -15.000000 39.250087
v 60.182184 -9.000000 39.250087
v 61.895029 -13.178152 40.133372
v 62.323490 -12.000000 40.133372
v 61.911777 -12.000000 39.250087
v 62.181751 -11.998825 39.829605
v 60.820625 -9.000000 39.250087
v 61.231588 -9.000000 40.133372
f 1 2 7
f 1 7 3
f 1 3 4
f 1 4 5
f 1 5 6
f 1 6 8
f 1 8 2
f 2 8 13
f 2 13 11
f 2 11 7
f 3 7 9
f 3 9 4
f 4 10 11
f 4 11 12
f 4 12 13
f 4 13 14
f 4 14 5
f 4 9 10
f 5 14 6
f 6 14 13
f 6 13 8
f 7 11 9
f 9 11 10
f 11 13 12
