# https://github.com/mikedh/trimesh
v 89.79307337 -10.98516825 14.71926316
v 89.51114960 -10.98516825 13.83163485
v 89.75041446 -10.98516825 15.00272592
v 91.88154091 -14.95275253 13.17465437
v 91.88154091 -14.89531012 12.98200557
v 91.88154091 -14.84794460 12.82241462
v 88.61900634 -10.98516825 13.47749663
v 89.54267894 -10.98516825 15.98040919
v 91.88154091 -15.17950138 13.46381732
v 91.88154091 -21.28053109 12.82241462
v 88.93987980 -14.20196591 12.82241462
v 87.33921598 -10.98516825 13.37072252
v 89.47405356 -10.98516825 16.12479996
v 91.88154091 -16.09556293 14.28950829
v 91.88154091 -15.74485931 14.03150376
v 91.88154091 -15.45562961 13.81453620
v 91.88154091 -21.28053109 14.63908770
v 72.93508957 -21.28053109 12.82241462
v 88.61900634 -14.17173146 12.82241462
v 87.57291605 -14.13545165 12.82241462
v 87.33921598 -14.13142204 12.82241462
v 80.94212169 -10.98516825 13.36996256
v 89.14946897 -10.98516825 16.62029102
v 91.88154091 -16.54704297 14.41870079
v 91.88154091 -18.37513455 14.63908770
v 89.14946897 -21.28053109 16.61953201
v 72.93508957 -21.28053109 14.62882870
v 72.93508957 -14.85197611 12.82241462
v 80.94212169 -14.12839745 12.82241462
v 79.66233229 -14.13242896 12.82241462
v 79.66233229 -10.98516825 13.37224244
v 89.00479786 -10.98516825 16.63282991
v 91.88154091 -17.67372731 14.60108963
v 91.88154091 -17.09526791 14.56955171
v 88.50957380 -21.28053109 16.67120748
v 78.96493940 -21.28053109 16.67120748
v 78.96123018 -10.98516825 16.67120748
v 72.93508957 -18.37513455 14.62882870
v 72.93508957 -14.95678404 13.17313445
v 78.56616464 -10.98516825 15.99902777
v 78.23230604 -10.98516825 14.71926316
v 78.31948039 -10.98516825 14.49583640
v 78.62737158 -10.98516825 13.72714158
v 78.85550781 -10.98516825 13.64696612
v 88.50957380 -10.98516825 16.67120748
v 87.33921598 -10.98516825 16.70388678
v 88.19426321 -21.28053109 16.67994752
v 79.66233229 -21.28053109 16.70350727
v 79.66233229 -10.98516825 16.70388678
v 72.93508957 -15.08477033 13.33804418
v 72.93508957 -15.45462078 13.81301627
v 72.93508957 -15.61888688 13.93422965
v 72.93508957 -16.09455410 14.28266864
v 72.93508957 -16.35153549 14.35334410
v 72.93508957 -17.09526791 14.55739232
v 87.33921598 -21.28053109 16.70350727
f 1 2 7
f 1 7 12
f 1 12 22
f 1 22 31
f 1 31 44
f 1 44 43
f 1 43 42
f 1 42 41
f 1 41 40
f 1 40 37
f 1 37 49
f 1 49 46
f 1 46 45
f 1 45 32
f 1 32 23
f 1 23 13
f 1 13 8
f 1 8 3
f 1 3 4
f 1 4 5
f 1 5 6
f 1 6 2
f 2 6 7
f 3 8 4
f 4 9 16
f 4 16 15
f 4 15 14
f 4 14 24
f 4 24 34
f 4 34 33
f 4 33 25
f 4 25 17
f 4 17 10
f 4 10 6
f 4 6 5
f 4 8 9
f 6 10 18
f 6 18 28
f 6 28 30
f 6 30 29
f 6 29 21
f 6 21 20
f 6 20 19
f 6 19 11
f 6 11 12
f 6 12 7
f 8 13 14
f 8 14 15
f 8 15 16
f 8 16 9
f 10 17 26
f 10 26 35
f 10 35 47
f 10 47 56
f 10 56 48
f 10 48 36
f 10 36 27
f 10 27 18
f 11 19 12
f 12 19 20
f 12 20 21
f 12 21 22
f 13 23 14
f 14 23 24
f 17 25 23
f 17 23 26
f 18 27 38
f 18 38 55
f 18 55 54
f 18 54 53
f 18 53 52
f 18 52 51
f 18 51 50
f 18 50 39
f 18 39 28
f 21 29 22
f 22 29 30
f 22 30 31
f 23 32 26
f 23 25 33
f 23 33 34
f 23 34 24
f 26 32 35
f 27 36 37
f 27 37 38
f 28 39 40
f 28 40 41
f 28 41 42
f 28 42 43
f 28 43 44
f 28 44 31
f 28 31 30
f 32 45 35
f 35 45 46
f 35 46 47
f 36 48 49
f 36 49 37
f 37 40 39
f 37 39 50
f 37 50 51
f 37 51 52
f 37 52 53
f 37 53 54
f 37 54 55
f 37 55 38
f 46 56 47
f 46 49 48
f 46 48 56

