# https://github.com/mikedh/trimesh
v 35.92420751 -14.47302519 8.41484126
v 37.91532560 -14.57358802 8.41484126
v 35.92420751 -4.30048623 8.40120104
v 35.92420751 -42.69311172 8.41484126
v 37.91532560 -4.30048623 8.33413278
v 37.91532560 -41.56368884 8.41484126
v 35.92420751 -3.42634557 7.95104879
v 35.92420751 -42.68150919 0.64176379
v 36.14892916 -42.68150919 -0.63821369
v 36.14892916 -42.68924421 8.31935501
v 36.14892916 -42.68924421 8.41484126
v 37.91532560 -3.53851283 7.86465633
v 37.29729100 -42.36821055 8.41484126
v 37.14487915 -42.35660422 -3.19816842
v 37.60231302 -41.40897328 -3.19816842
v 37.70366155 -40.12870616 -3.19816842
v 37.91532560 -41.52114245 8.37505627
v 35.92420751 -3.22134668 7.03937776
v 35.92420751 -42.66216784 -0.63821369
v 36.14892916 -42.65056532 -3.19816842
v 36.26314269 -42.66990286 8.41484126
v 37.91532560 -3.39540169 7.03937776
v 37.91532560 -20.76993997 -3.19816842
v 35.92420751 -3.18653529 6.04131380
v 35.92420751 -42.60028009 -3.19703181
v 35.92420751 -41.98528914 -3.19816842
v 37.91532560 -3.38379726 6.55284986
v 37.91532560 -3.37219474 -3.19816842
v 35.92420751 -3.18266779 5.76053712
v 37.91532560 -3.37219474 5.76053712
v 35.92420751 -3.54624975 -3.19816842
v 36.14892916 -3.37219474 -3.19816842
v 35.92420751 -3.23295111 0.91458316
v 35.92420751 -3.20200723 1.92174128
v 35.92420751 -3.19427222 2.20365456
v 35.92420751 -3.18266779 3.20058215
v 35.92420751 -3.17880028 4.48055940
v 35.92420751 -3.37219474 -3.19703181
f 1 2 3
f 1 3 7
f 1 7 18
f 1 18 24
f 1 24 29
f 1 29 37
f 1 37 36
f 1 36 35
f 1 35 34
f 1 34 33
f 1 33 38
f 1 38 31
f 1 31 26
f 1 26 25
f 1 25 19
f 1 19 8
f 1 8 4
f 1 4 11
f 1 11 21
f 1 21 13
f 1 13 6
f 1 6 2
f 2 5 3
f 2 6 17
f 2 17 23
f 2 23 28
f 2 28 30
f 2 30 27
f 2 27 22
f 2 22 12
f 2 12 5
f 3 5 7
f 4 8 9
f 4 9 10
f 4 10 11
f 5 12 7
f 6 13 14
f 6 14 15
f 6 15 16
f 6 16 17
f 7 12 18
f 8 19 20
f 8 20 9
f 9 20 14
f 9 14 13
f 9 13 21
f 9 21 10
f 10 21 11
f 12 22 18
f 14 20 26
f 14 26 31
f 14 31 32
f 14 32 28
f 14 28 23
f 14 23 16
f 14 16 15
f 16 23 17
f 18 22 24
f 19 25 20
f 20 25 26
f 22 27 24
f 24 27 30
f 24 30 29
f 28 32 33
f 28 33 34
f 28 34 35
f 28 35 36
f 28 36 37
f 28 37 30
f 29 30 37
f 31 38 32
f 32 38 33

