# https://github.com/mikedh/trimesh
v 37.91532560 -3.37212418 -3.19816866
v 37.91532560 -3.37212418 -5.75803566
v 34.86955836 -3.37212418 -3.19816866
v 37.91532560 -13.17859438 -3.19816866
v 37.91532560 -3.37980389 -6.24404818
v 34.86955836 -3.37212418 -5.75803566
v 33.97188273 -3.51516475 -3.19816866
v 33.29579927 -13.17859438 -3.19816866
v 37.91532560 -13.17859438 -5.76658880
v 37.91532560 -3.39324386 -7.03696307
v 34.86955836 -3.39324386 -7.03696307
v 33.99042502 -3.52572412 -7.03696307
v 33.97233470 -3.51516475 -5.75803566
v 33.50518248 -4.29853054 -4.47810228
v 33.50518248 -4.29853054 -3.19816866
v 33.36679894 -13.17859438 -4.40062197
v 33.29534730 -5.57821887 -3.19816866
v 33.29579927 -5.57821887 -4.47810228
v 33.29851301 -5.57821887 -5.75803566
v 37.91532560 -5.57533922 -8.15438961
v 36.07113275 -13.17859438 -5.76658880
v 37.91532560 -3.44796394 -7.35040617
v 34.86955836 -3.53724464 -7.86056820
v 34.08177487 -3.57756550 -7.79918773
v 33.52598464 -4.29853054 -7.03696307
v 33.50563445 -4.29853054 -5.75803566
v 33.37222641 -13.17859438 -4.47810228
v 36.14891581 -5.57533922 -8.15438961
v 37.91532560 -4.78333351 -8.26809396
v 34.86955836 -13.17859438 -5.75401082
v 34.86955836 -5.57533922 -8.15388615
v 37.91532560 -3.53724464 -7.86056820
v 37.91532560 -3.82620735 -8.04219375
v 34.86955836 -4.29853054 -8.33752411
v 33.88822022 -4.29853054 -8.00747867
v 33.92168522 -5.36317743 -7.99490069
v 33.67341144 -5.70494077 -7.16425232
v 33.81088914 -13.17859438 -5.37516288
v 37.91532560 -4.29853054 -8.33752411
v 34.80805583 -13.17859438 -5.73841445
v 33.83892666 -13.17859438 -5.43000263
f 1 2 6
f 1 6 3
f 1 3 7
f 1 7 15
f 1 15 17
f 1 17 8
f 1 8 4
f 1 4 9
f 1 9 20
f 1 20 29
f 1 29 39
f 1 39 33
f 1 33 32
f 1 32 22
f 1 22 10
f 1 10 5
f 1 5 2
f 2 5 6
f 3 6 7
f 4 8 16
f 4 16 27
f 4 27 38
f 4 38 41
f 4 41 40
f 4 40 30
f 4 30 21
f 4 21 9
f 5 10 11
f 5 11 6
f 6 11 12
f 6 12 13
f 6 13 7
f 7 13 14
f 7 14 15
f 8 17 18
f 8 18 19
f 8 19 16
f 9 21 28
f 9 28 20
f 10 22 11
f 11 22 23
f 11 23 24
f 11 24 12
f 12 24 25
f 12 25 13
f 13 25 26
f 13 26 14
f 14 26 18
f 14 18 17
f 14 17 15
f 16 19 27
f 18 26 19
f 19 26 25
f 19 25 27
f 20 28 29
f 21 30 31
f 21 31 28
f 22 32 23
f 23 33 34
f 23 34 24
f 23 32 33
f 24 34 35
f 24 35 25
f 25 35 36
f 25 36 37
f 25 37 27
f 27 37 36
f 27 36 38
f 28 31 34
f 28 34 29
f 29 34 39
f 30 40 36
f 30 36 31
f 31 36 34
f 33 39 34
f 34 36 35
f 36 40 41
f 36 41 38

