# https://github.com/mikedh/trimesh
v 89.79436440 -10.98053571 46.71812117
v 89.51218506 -10.98053571 45.83049467
v 89.75150143 -10.98053571 46.99892457
v 91.17847273 -14.95012092 45.16667446
v 91.17847273 -14.84735352 44.82317470
v 88.61921213 -10.98053571 45.47673591
v 89.54254538 -10.98053571 47.98078630
v 91.17847273 -15.45790491 45.80769582
v 91.17847273 -14.86045118 44.82241474
v 90.52660308 -14.58842499 44.82241474
v 87.34047433 -10.98053571 45.37072175
v 91.17847273 -16.09666545 46.29634632
v 89.47646591 -10.98053571 48.12365812
v 91.17847273 -21.27324504 44.82241474
v 88.94246754 -14.20456337 44.82241474
v 88.61921213 -14.17433845 44.82241474
v 87.57622070 -14.13706124 44.82241474
v 87.34047433 -14.13303163 44.82241474
v 81.22896851 -10.98053571 45.36996179
v 91.17847273 -17.09611309 46.58322942
v 89.16035433 -10.98053571 48.62066724
v 91.17847273 -21.27324504 46.65238592
v 72.93503813 -21.27324504 44.82241474
v 80.94321725 -14.12900011 44.82241474
v 80.94321725 -10.98053571 45.36996179
v 91.17847273 -18.37564994 46.65238592
v 89.01747775 -10.98053571 48.63244712
v 89.16035433 -19.65317104 48.61990823
v 89.16035433 -21.27324504 48.61952873
v 72.93503813 -21.27324504 46.62920662
v 72.93503813 -14.84634660 44.82241474
v 79.66269445 -14.13605240 44.82241474
v 79.94844571 -10.98053571 45.37110221
v 88.52098543 -10.98053571 48.67044520
v 88.52098543 -21.27324504 48.67044520
v 88.99068743 -21.27324504 48.63320804
v 78.96438992 -21.27324504 48.67044520
v 78.95903300 -10.98053571 48.67044520
v 72.93503813 -19.98262629 46.62920662
v 72.93503813 -14.95012092 45.17047427
v 78.56433834 -10.98053571 47.99750545
v 78.23215315 -10.98053571 46.71812117
v 78.31609219 -10.98053571 46.49659476
v 78.62684685 -10.98053571 45.72600043
v 78.85366152 -10.98053571 45.64658588
v 79.66269445 -10.98053571 45.37186217
v 88.25666566 -10.98053571 48.67804482
v 87.34047433 -10.98053571 48.70388351
v 87.34047433 -21.27324504 48.70350210
v 79.47695680 -21.27324504 48.69476397
v 79.50731712 -10.98053571 48.69628389
v 72.93503813 -15.45387530 45.81035616
v 72.93503813 -15.61809755 45.93308852
v 72.93503813 -16.09364277 46.28646778
v 72.93503813 -16.35055745 46.35752275
v 72.93503813 -17.09309041 46.56195050
v 72.93503813 -18.37262726 46.62882712
v 80.94321725 -10.98053571 48.70388351
v 79.66269445 -21.27324504 48.70350210
v 79.66269445 -10.98053571 48.70350210
f 1 2 6
f 1 6 11
f 1 11 19
f 1 19 25
f 1 25 33
f 1 33 46
f 1 46 45
f 1 45 44
f 1 44 43
f 1 43 42
f 1 42 41
f 1 41 38
f 1 38 51
f 1 51 60
f 1 60 58
f 1 58 48
f 1 48 47
f 1 47 34
f 1 34 27
f 1 27 21
f 1 21 13
f 1 13 7
f 1 7 3
f 1 3 4
f 1 4 5
f 1 5 2
f 2 5 6
f 3 7 8
f 3 8 4
f 4 8 12
f 4 12 20
f 4 20 26
f 4 26 22
f 4 22 14
f 4 14 9
f 4 9 5
f 5 9 10
f 5 10 6
f 6 10 11
f 7 12 8
f 7 13 12
f 9 14 23
f 9 23 31
f 9 31 32
f 9 32 24
f 9 24 18
f 9 18 17
f 9 17 16
f 9 16 15
f 9 15 10
f 10 15 11
f 11 15 16
f 11 16 17
f 11 17 18
f 11 18 19
f 12 13 20
f 13 21 20
f 14 22 29
f 14 29 36
f 14 36 35
f 14 35 49
f 14 49 59
f 14 59 50
f 14 50 37
f 14 37 30
f 14 30 23
f 18 24 19
f 19 24 25
f 20 21 26
f 21 27 28
f 21 28 22
f 21 22 26
f 22 28 29
f 23 30 39
f 23 39 57
f 23 57 56
f 23 56 55
f 23 55 54
f 23 54 53
f 23 53 52
f 23 52 40
f 23 40 31
f 24 32 25
f 25 32 33
f 27 34 35
f 27 35 36
f 27 36 28
f 28 36 29
f 30 37 38
f 30 38 39
f 31 40 41
f 31 41 42
f 31 42 43
f 31 43 44
f 31 44 45
f 31 45 46
f 31 46 32
f 32 46 33
f 34 47 35
f 35 47 48
f 35 48 49
f 37 50 38
f 38 50 51
f 38 41 40
f 38 40 52
f 38 52 53
f 38 53 54
f 38 54 55
f 38 55 56
f 38 56 57
f 38 57 39
f 48 58 59
f 48 59 49
f 50 59 51
f 51 59 60
f 58 60 59

