# https://github.com/mikedh/trimesh
v 125.72646548 -3.43136859 17.28213320
v 125.72646548 -3.57329641 18.02648358
v 127.00779306 -3.59462301 17.99972474
v 127.00779306 -3.47843281 17.28213320
v 127.00779306 -3.53946907 16.36841818
v 125.72646548 -3.51446662 16.30837455
v 95.01944803 -3.51446662 16.30739527
v 82.22411193 -3.51446662 16.30706917
v 39.99412470 -3.51446662 16.30608989
v 89.90310660 -3.43136859 17.28213320
v 112.93112747 -3.57329641 18.02648358
v 125.72646548 -4.29617145 18.37956915
v 127.00779306 -4.29617145 18.35281030
v 127.69773516 -3.62992070 17.95632397
v 127.76941755 -3.59094621 17.28213320
v 127.76045439 -3.59462301 16.50025482
v 127.00779306 -4.18954227 15.72881853
v 125.72646548 -4.16601016 15.66877489
v 93.73812236 -4.16527499 15.66746856
v 54.07078648 -4.16453982 15.66649024
v 41.27544847 -4.16453982 15.66616413
v 37.91533143 -3.51446662 16.30608989
v 84.77780202 -3.57403254 18.02615748
v 51.51709448 -3.43283988 17.28213320
v 88.62177903 -4.29617145 18.37956915
v 127.00779306 -5.57572737 18.62855620
v 128.28911301 -5.57572737 18.43439222
v 128.19054876 -4.34029499 18.14624570
v 129.02386328 -4.79622805 18.02615748
v 128.40560357 -4.05349771 17.28213320
v 127.78733624 -4.88079642 15.34473187
v 129.06866382 -4.75210547 16.31424828
v 128.19951192 -4.38956472 15.98041634
v 127.00779306 -4.82932023 15.33298441
v 125.72646548 -4.80652329 15.33004754
v 116.76614323 -4.80578812 15.33004754
v 37.91533143 -4.16453982 15.66616413
v 72.94121985 -4.63959302 15.41685098
v 50.23577072 -4.80431778 15.33004754
v 37.91533143 -3.43357505 17.28213320
v 79.67041993 -4.29617145 18.37924304
v 39.99412470 -3.57550288 18.02452599
v 64.30347124 -3.57476771 18.02550431
v 42.55677604 -4.29617145 18.37761156
v 37.91533143 -5.57572737 18.62823009
v 72.94121985 -5.57572737 18.62855620
v 127.00779306 -9.67692419 18.62986158
v 128.28911301 -9.67692419 18.44613968
v 128.28911301 -8.13483922 18.44287671
v 128.28911301 -6.85528330 18.43928668
v 129.10450120 -9.41439419 18.09207580
v 129.09554567 -6.85528330 18.08554890
v 129.08658251 -5.57572737 18.08130665
v 129.36435656 -5.57572737 17.28213320
v 129.10450120 -4.69327567 17.28213320
v 128.57584259 -5.57572737 15.45731488
v 127.93966419 -5.57572737 15.33298441
v 127.00779306 -5.57572737 15.29937256
v 129.20306545 -5.57572737 16.09691453
v 125.72646548 -5.57572737 15.29643569
v 72.94121985 -5.37717622 15.30492018
v 37.91533143 -4.80431778 15.33004754
v 37.91533143 -3.52182022 17.74225320
v 37.91533143 -3.57623805 18.02452599
v 37.91533143 -4.29617145 18.37728450
v 37.91533143 -5.08964377 18.53294217
v 37.91533143 -6.36919874 18.62855620
v 47.42223100 -10.94324324 18.62920937
v 47.67311938 -10.94324324 18.62888231
v 129.10450120 -9.67692419 18.09240190
v 48.70355476 -10.94324324 18.41840156
v 48.95444314 -10.94324324 18.35770572
v 129.45395765 -8.13483922 17.28213320
v 129.44499449 -6.85528330 17.28213320
v 128.66545130 -6.85528330 15.40347108
v 128.02030975 -6.85528330 15.33004754
v 127.00779306 -6.85528330 15.29643569
v 129.27474784 -6.85528330 16.04372390
v 87.34045336 -9.41439419 15.29610959
v 72.94121985 -5.57572737 15.29643569
v 37.91533143 -5.57572737 15.29676180
v 37.91533143 -5.09773254 15.31732176
v 37.91533143 -10.94324324 18.62888231
v 129.45395765 -9.67692419 17.28213320
v 49.57270666 -10.94324324 18.07314827
v 49.70711210 -10.94324324 18.00429404
v 129.31955602 -9.67692419 16.29695319
v 129.27474784 -8.13483922 16.04274463
v 128.79089740 -9.67692419 15.53367528
v 128.66545130 -9.41439419 15.40281887
v 128.15471138 -9.67692419 15.34473187
v 128.02030975 -9.67692419 15.33004754
v 127.00779306 -9.67692419 15.29643569
v 87.34045336 -9.67692419 15.29610959
v 79.67041993 -9.41439419 15.29610959
v 37.91533143 -10.94324324 15.29676180
v 49.86839558 -10.94324324 17.41527426
v 49.87735493 -10.94324324 17.28213320
v 49.76983134 -10.94324324 16.37755584
v 129.27474784 -9.67692419 16.04274463
v 128.66545130 -9.67692419 15.40281887
v 48.47058507 -10.94324324 15.32972144
v 47.82544351 -10.94324324 15.30296164
v 47.67311938 -10.94324324 15.29676180
v 79.67041993 -9.67692419 15.29610959
v 49.11573044 -10.94324324 15.73762913
f 1 2 3
f 1 3 4
f 1 4 5
f 1 5 6
f 1 6 7
f 1 7 8
f 1 8 9
f 1 9 22
f 1 22 10
f 1 10 11
f 1 11 2
f 2 11 25
f 2 25 12
f 2 12 13
f 2 13 3
f 3 13 14
f 3 14 4
f 4 14 15
f 4 15 16
f 4 16 5
f 5 16 17
f 5 17 6
f 6 17 18
f 6 18 19
f 6 19 20
f 6 20 7
f 7 20 21
f 7 21 8
f 8 21 9
f 9 21 37
f 9 37 22
f 10 23 11
f 10 22 24
f 10 24 23
f 11 23 25
f 12 26 13
f 12 25 46
f 12 46 26
f 13 26 27
f 13 27 28
f 13 28 14
f 14 28 29
f 14 29 30
f 14 30 15
f 15 30 16
f 16 31 17
f 16 30 32
f 16 32 33
f 16 33 31
f 17 31 18
f 18 31 34
f 18 34 35
f 18 35 19
f 19 35 36
f 19 36 20
f 20 36 21
f 21 36 38
f 21 38 39
f 21 39 62
f 21 62 37
f 22 37 62
f 22 62 82
f 22 82 81
f 22 81 96
f 22 96 83
f 22 83 67
f 22 67 45
f 22 45 66
f 22 66 65
f 22 65 64
f 22 64 63
f 22 63 40
f 22 40 24
f 23 41 25
f 23 24 42
f 23 42 43
f 23 43 44
f 23 44 41
f 24 40 42
f 25 41 45
f 25 45 46
f 26 47 48
f 26 48 49
f 26 49 50
f 26 50 27
f 26 46 47
f 27 50 51
f 27 51 52
f 27 52 53
f 27 53 29
f 27 29 28
f 29 53 54
f 29 54 55
f 29 55 30
f 30 55 32
f 31 33 32
f 31 32 56
f 31 56 57
f 31 57 58
f 31 58 34
f 32 55 54
f 32 54 59
f 32 59 56
f 34 58 35
f 35 58 60
f 35 60 61
f 35 61 36
f 36 61 39
f 36 39 38
f 39 61 62
f 40 63 42
f 41 44 45
f 42 63 64
f 42 64 65
f 42 65 44
f 42 44 43
f 44 65 66
f 44 66 45
f 45 67 46
f 46 67 47
f 47 67 68
f 47 68 69
f 47 69 48
f 48 70 51
f 48 51 49
f 48 69 71
f 48 71 72
f 48 72 70
f 49 51 50
f 51 70 73
f 51 73 52
f 52 73 74
f 52 74 53
f 53 74 54
f 54 74 59
f 56 59 75
f 56 75 57
f 57 75 76
f 57 76 58
f 58 76 77
f 58 77 60
f 59 74 78
f 59 78 75
f 60 77 79
f 60 79 95
f 60 95 80
f 60 80 61
f 61 80 81
f 61 81 82
f 61 82 62
f 67 83 68
f 68 83 96
f 68 96 104
f 68 104 103
f 68 103 102
f 68 102 106
f 68 106 99
f 68 99 98
f 68 98 97
f 68 97 86
f 68 86 85
f 68 85 72
f 68 72 71
f 68 71 69
f 70 84 73
f 70 72 85
f 70 85 86
f 70 86 84
f 73 84 87
f 73 87 78
f 73 78 74
f 75 78 88
f 75 88 89
f 75 89 90
f 75 90 76
f 76 90 91
f 76 91 92
f 76 92 93
f 76 93 77
f 77 93 94
f 77 94 79
f 78 87 88
f 79 94 105
f 79 105 95
f 80 95 81
f 81 95 105
f 81 105 96
f 84 86 97
f 84 97 98
f 84 98 99
f 84 99 87
f 87 99 100
f 87 100 88
f 88 100 89
f 89 100 99
f 89 99 101
f 89 101 90
f 90 101 91
f 91 101 102
f 91 102 92
f 92 102 103
f 92 103 104
f 92 104 93
f 93 104 94
f 94 104 96
f 94 96 105
f 99 106 101
f 101 106 102

