# https://github.com/mikedh/trimesh
v 11.77273913 41.77725857 12.26786302
v 11.77321590 40.49721267 12.26786302
v 12.42395650 40.49721267 15.58662901
v 12.42253002 49.45287694 15.59140523
v 12.42205326 53.29301845 15.59401122
v 11.77273913 53.29301845 12.26786302
v 11.78035591 39.15188065 12.26786302
v 11.78273592 39.01431714 12.26786302
v 12.44776036 39.21716677 15.47633639
v 12.95807305 39.21716677 16.11638031
v 12.94140920 40.49721267 16.22667294
v 12.93950596 50.73292665 16.23231973
v 12.93950596 53.29301845 16.23405515
v 12.43062356 54.57306435 15.55536475
v 11.77321590 53.32565960 12.26786302
v 12.04741228 38.17727251 12.26786302
v 12.47203717 38.57597671 15.36387258
v 13.66070080 38.36147115 16.66046313
v 13.59786334 39.21716677 16.67131809
v 13.58120330 40.49721267 16.67131809
v 13.57977683 48.17283104 16.67131809
v 13.57930006 52.01297255 16.67131809
v 13.57930006 53.29301845 16.67131809
v 13.62357044 54.57306435 16.66263336
v 12.98377634 54.57306435 16.19541058
v 13.58072654 41.77725857 16.67131809
v 12.45061713 55.23990430 15.46374410
v 11.79701595 54.57306435 12.26786302
v 12.38254289 37.46613548 12.26786302
v 13.63642399 37.14204290 15.70560636
v 15.00550648 35.97857719 16.65308092
v 13.96441458 37.50810595 16.55885333
v 14.39189624 39.21716677 16.70388487
v 14.85127149 36.65707116 16.66567321
v 15.76621550 35.48194762 16.67349023
v 15.67196121 36.65707116 16.69823999
v 14.39189624 53.29301845 16.70388487
v 14.39189624 54.57306435 16.68651541
v 13.69640469 55.22591415 16.64917337
v 13.20703909 55.33549735 15.93400768
v 13.11278480 55.50104117 14.71905148
v 12.02122841 55.33316693 12.26786302
v 11.79939595 54.59871424 12.26786302
v 15.14308143 33.76822214 12.26786302
v 16.30175853 33.44412956 15.39947920
v 16.25605786 34.64257257 16.66046313
v 16.63498208 33.21097110 15.65480242
v 16.63498208 33.79620245 16.24708224
v 15.67196121 37.93711706 16.70388487
v 16.63498208 34.40941220 16.66914786
v 16.63498208 35.40500367 16.69563495
v 16.63498208 36.65707116 16.70214754
v 16.63498208 53.29301845 16.70345006
v 16.63498208 54.25596685 16.69085778
v 16.63498208 54.57306435 16.68651541
v 16.63498208 55.06969582 16.66220046
v 14.39189624 55.23290923 16.65394863
v 14.39189624 55.47772552 15.99870643
v 14.39189624 55.70389081 14.71905148
v 13.11278480 55.59430761 12.26786302
v 16.30175853 32.23869529 12.26786302
v 16.63498208 31.88429198 12.26786302
v 16.63498208 37.93711706 16.70345006
v 16.63498208 55.23290923 16.65394863
v 16.63498208 55.47772552 15.99870643
v 16.63498208 55.70389081 14.71905148
v 14.39189624 55.70389081 12.26786302
v 16.63498208 55.70389081 12.26786302
f 1 2 3
f 1 3 4
f 1 4 5
f 1 5 6
f 1 6 15
f 1 15 28
f 1 28 43
f 1 43 42
f 1 42 60
f 1 60 67
f 1 67 68
f 1 68 62
f 1 62 61
f 1 61 44
f 1 44 29
f 1 29 16
f 1 16 8
f 1 8 7
f 1 7 2
f 2 7 3
f 3 7 8
f 3 8 9
f 3 9 10
f 3 10 11
f 3 11 12
f 3 12 5
f 3 5 4
f 5 12 13
f 5 13 14
f 5 14 6
f 6 14 15
f 8 16 17
f 8 17 9
f 9 17 10
f 10 17 18
f 10 18 11
f 11 18 19
f 11 19 20
f 11 20 12
f 12 20 13
f 13 21 22
f 13 22 23
f 13 23 24
f 13 24 25
f 13 25 14
f 13 20 26
f 13 26 21
f 14 25 27
f 14 27 28
f 14 28 15
f 16 29 17
f 17 29 30
f 17 30 31
f 17 31 32
f 17 32 18
f 18 33 19
f 18 32 31
f 18 31 34
f 18 34 35
f 18 35 36
f 18 36 33
f 19 33 20
f 20 33 26
f 21 26 33
f 21 33 22
f 22 33 37
f 22 37 23
f 23 37 24
f 24 38 39
f 24 39 25
f 24 37 38
f 25 39 27
f 27 39 40
f 27 40 41
f 27 41 42
f 27 42 43
f 27 43 28
f 29 44 45
f 29 45 30
f 30 45 31
f 31 46 35
f 31 35 34
f 31 45 47
f 31 47 48
f 31 48 46
f 33 36 49
f 33 49 37
f 35 46 50
f 35 50 51
f 35 51 36
f 36 51 52
f 36 52 49
f 37 53 54
f 37 54 38
f 37 49 53
f 38 54 55
f 38 55 56
f 38 56 57
f 38 57 39
f 39 57 58
f 39 58 40
f 40 58 59
f 40 59 41
f 41 59 60
f 41 60 42
f 44 61 45
f 45 61 62
f 45 62 47
f 46 48 50
f 47 62 68
f 47 68 66
f 47 66 65
f 47 65 64
f 47 64 56
f 47 56 55
f 47 55 54
f 47 54 53
f 47 53 63
f 47 63 52
f 47 52 51
f 47 51 50
f 47 50 48
f 49 52 63
f 49 63 53
f 56 64 57
f 57 64 65
f 57 65 58
f 58 65 66
f 58 66 59
f 59 66 68
f 59 68 67
f 59 67 60

