# https://github.com/mikedh/trimesh
v 37.91532560 -36.46865549 8.06908644
v 37.91532560 -40.13165447 8.06993127
v 37.91532560 -36.46865549 16.70304005
v 63.02360595 -36.46865549 9.44680026
v 72.93323591 -40.13165447 9.42144310
v 37.91532560 -40.21588909 8.08768118
v 72.93323591 -41.41165841 9.51695319
v 37.91532560 -40.13165447 16.70304005
v 47.49246289 -36.46865549 16.70388487
v 63.20527679 -36.46865549 9.49920423
v 72.93323591 -38.91146722 9.83053122
v 37.91532560 -41.52275200 8.37674783
v 72.93323591 -42.09713793 9.82038854
v 47.66727881 -37.57286328 16.70388487
v 37.91532560 -40.72923400 16.68359953
v 72.93323591 -40.38008654 16.69543280
v 72.93323591 -40.13165447 16.70304005
v 47.66727881 -36.46865549 16.70388487
v 64.16847549 -36.46865549 9.85166234
v 72.93323591 -38.31327743 10.88029830
v 37.91532560 -41.63933791 8.48070998
v 72.93323591 -42.33519180 9.92604130
v 37.91532560 -41.09547249 16.67092142
v 46.38872614 -41.09608275 16.67092142
v 72.93323591 -41.09608275 16.67092142
v 72.93323591 -39.57558008 16.67937349
v 48.46251698 -36.46865549 16.67092142
v 72.93323591 -39.38208646 16.67092142
v 64.68263757 -36.46865549 10.88029830
v 72.93323591 -38.29618640 12.15996565
v 37.91532560 -42.13864307 9.11378267
v 72.93323591 -42.66175592 10.88029830
v 37.91532560 -42.41271359 9.57358319
v 37.91532560 -41.49223149 16.61598107
v 72.93323591 -41.26089045 16.64809970
v 72.93323591 -38.93771592 16.17223986
v 72.93323591 -38.78389667 15.99896865
v 63.02360595 -36.46865549 14.69140871
v 64.72719877 -36.46865549 12.15996565
v 72.93323591 -38.29618640 14.71845552
v 72.93323591 -42.69288668 11.83032927
v 37.91532560 -42.69227643 10.88029830
v 37.91532560 -42.51587002 9.92350587
v 37.91532560 -41.73578150 16.58217280
v 72.93323591 -41.73578150 16.58217280
v 72.93323591 -38.42192998 15.04893864
v 64.14105299 -36.46865549 14.41755656
v 64.71691498 -36.46865549 12.42283031
v 64.65178809 -36.46865549 13.43878818
v 64.59694405 -36.46865549 13.62051146
v 72.93323591 -42.70326106 12.15996565
v 37.91532560 -42.70143029 11.36714659
v 37.91532560 -42.13376101 16.18576279
v 72.93323591 -41.90119946 16.41735366
v 72.93323591 -42.70387132 14.71845552
v 37.91532560 -42.70326106 12.15996565
v 37.91532560 -42.37731102 15.94233865
v 72.93323591 -42.37731102 15.94233865
v 72.93323591 -42.46154564 15.62707097
v 37.91532560 -42.70387132 14.71845552
f 1 2 6
f 1 6 12
f 1 12 21
f 1 21 31
f 1 31 33
f 1 33 43
f 1 43 42
f 1 42 52
f 1 52 56
f 1 56 60
f 1 60 57
f 1 57 53
f 1 53 44
f 1 44 34
f 1 34 23
f 1 23 15
f 1 15 8
f 1 8 3
f 1 3 9
f 1 9 18
f 1 18 27
f 1 27 38
f 1 38 47
f 1 47 50
f 1 50 49
f 1 49 48
f 1 48 39
f 1 39 29
f 1 29 19
f 1 19 10
f 1 10 4
f 1 4 5
f 1 5 2
f 2 5 7
f 2 7 6
f 3 8 9
f 4 10 11
f 4 11 5
f 5 11 20
f 5 20 30
f 5 30 40
f 5 40 46
f 5 46 37
f 5 37 36
f 5 36 28
f 5 28 26
f 5 26 17
f 5 17 16
f 5 16 25
f 5 25 35
f 5 35 45
f 5 45 54
f 5 54 58
f 5 58 59
f 5 59 55
f 5 55 51
f 5 51 41
f 5 41 32
f 5 32 22
f 5 22 13
f 5 13 7
f 6 7 12
f 7 13 12
f 8 14 9
f 8 15 16
f 8 16 17
f 8 17 14
f 9 14 18
f 10 19 11
f 11 19 20
f 12 13 22
f 12 22 21
f 14 17 18
f 15 23 24
f 15 24 25
f 15 25 16
f 17 26 18
f 18 26 28
f 18 28 27
f 19 29 20
f 20 29 30
f 21 22 31
f 22 32 33
f 22 33 31
f 23 34 24
f 24 34 35
f 24 35 25
f 27 28 36
f 27 36 37
f 27 37 38
f 29 39 30
f 30 39 40
f 32 41 42
f 32 42 43
f 32 43 33
f 34 44 35
f 35 44 45
f 37 46 47
f 37 47 38
f 39 48 40
f 40 48 49
f 40 49 50
f 40 50 47
f 40 47 46
f 41 51 42
f 42 51 52
f 44 53 45
f 45 53 54
f 51 55 60
f 51 60 56
f 51 56 52
f 53 57 58
f 53 58 54
f 55 59 60
f 57 60 59
f 57 59 58

