# https://github.com/mikedh/trimesh
v 118.36488109 -42.70173852 17.28262998
v 125.73425390 -42.70173852 17.28262998
v 118.36488109 -42.70173852 19.84123932
v 118.36488109 -42.37658940 16.05408493
v 125.73425390 -42.37658940 16.05408493
v 127.01434951 -42.34931851 16.07215237
v 127.01434951 -42.64929831 17.28262998
v 125.73425390 -42.70173852 18.56279521
v 124.45526437 -42.70173852 19.84123932
v 125.73425390 -42.69544524 21.12140359
v 127.01434951 -42.64510279 24.08436539
v 118.36488109 -42.69334748 20.15009646
v 118.36488109 -41.75355825 15.41486383
v 125.73425390 -41.75355825 15.41486383
v 127.98545640 -42.23184391 16.27346780
v 127.01434951 -41.72418960 15.43206928
v 128.15098881 -42.32204762 17.28262998
v 128.14878044 -42.32204762 21.12140359
v 128.14657207 -42.32204762 24.08436539
v 125.73425390 -42.69964076 19.84123932
v 118.36488109 -42.65978330 21.12140359
v 126.13704305 -42.43952223 24.08436539
v 118.36488109 -42.33253643 22.07378415
v 118.36488109 -41.11374501 15.32969092
v 125.73425390 -41.11374501 15.32969092
v 127.01434951 -41.08437635 15.32969092
v 128.78992862 -41.91089031 17.28262998
v 128.34520713 -41.45987173 15.84416486
v 129.12650862 -41.10535396 16.26830636
v 127.85192821 -40.96061228 15.34087580
v 128.78992862 -41.91089031 18.56279521
v 128.78882634 -41.91089031 19.84123932
v 128.78661797 -41.90879255 24.08436539
v 125.75411778 -42.34512299 24.08436539
v 118.36488109 -42.11017759 22.17272218
v 118.36488109 -40.12990280 15.29613819
v 119.33709026 -40.12990280 15.29613819
v 127.01434951 -40.12990280 15.29699828
v 129.22361588 -41.27107707 17.28262998
v 129.22472197 -41.27107707 19.84123932
v 128.63433197 -40.12990280 15.42088631
v 129.25451780 -40.12990280 16.06096749
v 129.57564303 -40.12990280 17.28262998
v 127.99538835 -40.12990280 15.32969092
v 129.22472197 -41.26897931 24.08436539
v 125.55658881 -42.01368059 24.08436539
v 118.36488109 -41.40952928 22.48243941
v 118.36488109 -38.39087051 15.33915373
v 118.68159339 -21.27324694 15.35119869
v 119.33709026 -21.27324694 15.31764596
v 120.61608360 -21.27324694 15.29699828
v 127.01434951 -21.27324694 15.29699828
v 128.04394579 -33.72967262 15.32969092
v 128.04283970 -36.28892559 15.32969092
v 128.04173742 -37.56855207 15.32969092
v 128.03952905 -38.85027632 15.32969092
v 127.28692112 -21.27324694 15.30560100
v 129.57674912 -40.12990280 19.84123932
v 129.46639165 -40.48861609 24.08436539
v 128.67957877 -38.85027632 15.40023671
v 129.28651819 -38.85027632 16.04031980
v 129.63743925 -38.85027632 17.28262998
v 125.22221717 -41.40952928 24.08436539
v 118.36488109 -41.10115844 22.50566734
v 118.36488109 -21.27324694 15.97837579
v 118.43991990 -21.27324694 15.82953966
v 128.68399169 -33.72967262 15.39937663
v 128.04394579 -31.17251741 15.32969092
v 128.68288942 -35.00929910 15.39937663
v 128.03732450 -21.27324694 15.32969092
v 128.03842677 -22.21303808 15.32969092
v 128.04173742 -27.33364178 15.32969092
v 129.61868146 -39.25304258 24.08436539
v 129.57674912 -40.12990280 24.08436539
v 129.28651819 -36.28892559 16.03945972
v 129.63743925 -38.85027632 24.08436539
v 129.63743925 -21.27324694 17.28262998
v 129.63854534 -22.21303808 23.68087301
v 129.63854534 -22.61790211 24.08436539
v 125.10193157 -40.12990280 24.08436539
v 118.36488109 -40.12990280 22.57879528
v 118.36488109 -21.27324694 22.58567785
v 128.68399169 -32.45004614 15.39937663
v 128.20726601 -21.27324694 15.34861845
v 128.67957877 -24.77438881 15.40023671
v 128.68288942 -31.17251741 15.39937663
v 129.28651819 -33.72967262 16.03945972
v 129.37921633 -21.27324694 16.37068472
v 129.63854534 -21.27324694 23.68087301
v 129.63854534 -21.27324694 24.08436539
v 125.02247983 -21.27954023 24.08436539
v 125.01916918 -21.27324694 24.08006403
v 128.68068105 -26.05401338 15.40023671
v 129.28541973 -21.27324694 16.04118084
v 129.28541973 -23.49476232 16.04031980
v 128.67737040 -21.27324694 15.40109870
v 129.24900260 -21.27324694 24.08436539
f 1 2 8
f 1 8 9
f 1 9 3
f 1 3 12
f 1 12 21
f 1 21 23
f 1 23 35
f 1 35 47
f 1 47 64
f 1 64 81
f 1 81 82
f 1 82 65
f 1 65 48
f 1 48 36
f 1 36 24
f 1 24 13
f 1 13 4
f 1 4 5
f 1 5 2
f 2 5 6
f 2 6 7
f 2 7 8
f 3 9 10
f 3 10 11
f 3 11 12
f 4 13 14
f 4 14 5
f 5 14 6
f 6 15 7
f 6 14 16
f 6 16 15
f 7 11 8
f 7 15 17
f 7 17 18
f 7 18 19
f 7 19 11
f 8 11 20
f 8 20 9
f 9 20 10
f 10 20 11
f 11 21 12
f 11 19 33
f 11 33 45
f 11 45 59
f 11 59 74
f 11 74 73
f 11 73 76
f 11 76 79
f 11 79 90
f 11 90 97
f 11 97 91
f 11 91 80
f 11 80 63
f 11 63 46
f 11 46 34
f 11 34 22
f 11 22 23
f 11 23 21
f 13 24 25
f 13 25 14
f 14 25 26
f 14 26 16
f 15 27 17
f 15 16 28
f 15 28 29
f 15 29 27
f 16 26 30
f 16 30 28
f 17 27 31
f 17 31 18
f 18 31 19
f 19 31 32
f 19 32 33
f 22 34 23
f 23 34 35
f 24 36 37
f 24 37 25
f 25 37 38
f 25 38 26
f 26 38 30
f 27 29 39
f 27 39 40
f 27 40 31
f 28 30 41
f 28 41 29
f 29 41 42
f 29 42 43
f 29 43 39
f 30 38 44
f 30 44 41
f 31 33 32
f 31 40 45
f 31 45 33
f 34 46 47
f 34 47 35
f 36 48 49
f 36 49 50
f 36 50 51
f 36 51 52
f 36 52 37
f 37 52 38
f 38 53 54
f 38 54 55
f 38 55 56
f 38 56 44
f 38 52 57
f 38 57 53
f 39 43 58
f 39 58 40
f 40 58 59
f 40 59 45
f 41 44 60
f 41 60 42
f 42 60 61
f 42 61 62
f 42 62 43
f 43 62 58
f 44 56 60
f 46 63 47
f 47 63 64
f 48 65 66
f 48 66 49
f 49 66 65
f 49 65 82
f 49 82 92
f 49 92 97
f 49 97 90
f 49 90 89
f 49 89 77
f 49 77 88
f 49 88 94
f 49 94 96
f 49 96 84
f 49 84 70
f 49 70 57
f 49 57 52
f 49 52 51
f 49 51 50
f 53 67 54
f 53 57 68
f 53 68 83
f 53 83 67
f 54 67 69
f 54 69 55
f 55 69 56
f 56 69 60
f 57 70 71
f 57 71 72
f 57 72 68
f 58 62 73
f 58 73 74
f 58 74 59
f 60 69 61
f 61 75 62
f 61 69 67
f 61 67 75
f 62 76 73
f 62 75 87
f 62 87 77
f 62 77 89
f 62 89 78
f 62 78 79
f 62 79 76
f 63 80 81
f 63 81 64
f 67 83 87
f 67 87 75
f 68 72 83
f 70 84 85
f 70 85 86
f 70 86 71
f 71 86 83
f 71 83 72
f 77 87 88
f 78 89 90
f 78 90 79
f 80 91 81
f 81 91 82
f 82 91 92
f 83 86 85
f 83 85 93
f 83 93 94
f 83 94 95
f 83 95 87
f 84 96 85
f 85 96 94
f 85 94 93
f 87 95 94
f 87 94 88
f 91 97 92

