# https://github.com/mikedh/trimesh
v 23.38582221 -36.28587811 33.92036596
v 23.50288108 -36.28587811 32.64057595
v 23.79224621 -37.67646470 32.68761156
v 23.67987107 -37.56138536 33.92036596
v 23.83906824 -37.56138536 34.76349705
v 23.69485290 -36.28587811 34.95304356
v 23.69485290 -19.64677668 34.95374560
v 23.69485290 4.66453221 34.95444763
v 23.38582221 45.61493873 33.92036596
v 23.81191177 -36.28587811 31.82552602
v 23.87184289 -37.32162274 31.88379395
v 23.50288108 53.28715191 32.64057595
v 24.01231277 -38.17515967 32.29237208
v 23.98515630 -38.21352199 33.14603333
v 23.98234530 -38.21352199 33.92036596
v 23.98515630 -38.21352199 34.56973832
v 28.47732806 -38.96156062 37.69936197
v 24.63130859 -36.28587811 35.49781441
v 24.63130859 -14.52557799 35.49851621
v 24.63130859 21.29404306 35.49921848
v 23.69485290 13.61224502 34.95444763
v 23.69579117 53.28715191 34.95444763
v 23.38676049 53.28715191 33.92036596
v 24.63130859 -36.28587811 31.53629200
v 23.81191177 31.53644046 31.82552602
v 24.51612245 -37.67646470 31.70898992
v 24.86542252 -38.39573731 31.82412195
v 23.53940119 54.57224783 32.64057595
v 23.82595532 54.57224783 31.83886444
v 23.81191177 53.28715191 31.82622805
v 27.49030489 -39.64247091 31.84728862
v 32.77097155 -42.12634942 31.88028377
v 27.31237663 -39.71918793 32.64057595
v 24.51612245 -38.44368831 32.68761156
v 25.91050408 -39.09582494 33.92036596
v 24.63130859 -38.51081666 33.92036596
v 32.68013469 -42.16470412 32.64057595
v 31.99184029 -41.85782078 37.69936197
v 31.02916640 -41.34953714 37.69936197
v 30.19759493 -40.87001952 37.69936197
v 29.32481963 -40.05485255 37.69936197
v 28.44736059 -37.56138536 37.69936197
v 24.63130859 53.28715191 35.49921848
v 23.71732945 54.57224783 34.93128073
v 23.43077151 54.57224783 33.92036596
v 32.95170700 -4.39826375 30.52748334
v 32.95170700 -37.64769105 30.66086803
v 32.95170700 -38.84647365 30.66578204
v 25.91050408 -37.56138536 31.43449863
v 24.63130859 48.17554189 31.53629200
v 32.95170700 -40.31378489 30.82163136
v 32.95170700 -40.87960820 31.01679416
v 32.95170700 -41.41666549 31.20212847
v 32.95170700 -41.81945845 31.51312533
v 32.95170700 -42.15511544 31.78691458
v 23.78381703 55.40659979 32.64057595
v 23.88963571 55.31069779 31.90134458
v 24.63130859 54.57224783 31.56998919
v 24.63130859 53.28715191 31.53699403
v 32.95170700 -42.20306644 32.04736566
v 32.95170700 -42.26060611 32.64057595
v 29.35103782 -40.65903818 33.92036596
v 32.95170700 -42.27020242 33.92036596
v 32.69699306 -42.17430042 37.69936197
v 32.67826196 -42.16470412 33.92036596
v 32.03866613 -41.87699812 33.92036596
v 28.44736059 53.28715191 37.69936197
v 28.47638979 54.43798351 37.69936197
v 28.48107352 54.56265153 37.69936197
v 23.82220987 55.36823746 34.79157796
v 23.73324955 55.44496211 33.92036596
v 25.91050408 53.28715191 31.42115997
v 27.19063784 53.28715191 31.42115997
v 31.02916640 53.28715191 31.42186200
v 32.30930016 53.28715191 31.51312533
v 32.95170700 54.57224783 31.73145479
v 32.95170700 -39.51779526 30.69456498
v 24.63130859 55.64635478 32.64057595
v 24.63130859 55.39700348 31.80235911
v 25.91050408 54.57224783 31.46257954
v 32.95170700 -42.26060611 37.69936197
v 28.98207602 55.00380682 37.69936197
v 29.66756323 55.36823746 37.69936197
v 31.02916640 55.61758113 37.69936197
v 24.63130859 55.44496211 34.94953339
v 24.63130859 55.69430578 33.92036596
v 31.02916640 54.57224783 31.46257954
v 32.30930016 54.57224783 31.54682228
v 32.95170700 55.34905248 31.86554128
v 25.91050408 55.68471710 32.64057595
v 25.91050408 55.44496211 31.75181332
v 32.95170700 55.68471710 37.69936197
v 32.30930016 55.70389445 37.69936197
v 25.91050408 55.70389445 33.92036596
v 31.02916640 55.44496211 31.75181332
v 32.30930016 55.41618846 31.79112679
v 32.30930016 55.65594345 32.64057595
v 32.95170700 55.55045278 32.65391449
v 31.02916640 55.68471710 32.64057595
v 32.95170700 55.68471710 35.19945418
v 32.30930016 55.70389445 33.92036596
v 32.95170700 55.66553213 33.92036596
f 1 2 3
f 1 3 4
f 1 4 5
f 1 5 6
f 1 6 7
f 1 7 8
f 1 8 21
f 1 21 9
f 1 9 12
f 1 12 2
f 2 10 11
f 2 11 3
f 2 12 25
f 2 25 10
f 3 13 4
f 3 11 13
f 4 13 14
f 4 14 15
f 4 15 16
f 4 16 5
f 5 16 17
f 5 17 6
f 6 17 18
f 6 18 7
f 7 18 19
f 7 19 8
f 8 19 20
f 8 20 43
f 8 43 21
f 9 21 22
f 9 22 23
f 9 23 12
f 10 24 11
f 10 25 50
f 10 50 24
f 11 24 26
f 11 26 27
f 11 27 13
f 12 23 28
f 12 28 29
f 12 29 30
f 12 30 25
f 13 27 31
f 13 31 32
f 13 32 33
f 13 33 34
f 13 34 14
f 14 35 36
f 14 36 15
f 14 34 33
f 14 33 37
f 14 37 35
f 15 36 16
f 16 36 35
f 16 35 38
f 16 38 39
f 16 39 40
f 16 40 41
f 16 41 17
f 17 42 18
f 17 41 40
f 17 40 39
f 17 39 38
f 17 38 64
f 17 64 81
f 17 81 92
f 17 92 93
f 17 93 84
f 17 84 83
f 17 83 82
f 17 82 69
f 17 69 68
f 17 68 67
f 17 67 42
f 18 42 19
f 19 42 20
f 20 42 67
f 20 67 43
f 21 43 22
f 22 43 44
f 22 44 23
f 23 44 45
f 23 45 28
f 24 46 47
f 24 47 48
f 24 48 49
f 24 49 26
f 24 50 46
f 25 30 50
f 26 49 51
f 26 51 27
f 27 51 52
f 27 52 53
f 27 53 54
f 27 54 55
f 27 55 31
f 28 45 56
f 28 56 57
f 28 57 29
f 29 58 59
f 29 59 30
f 29 57 58
f 30 59 50
f 31 55 32
f 32 55 60
f 32 60 61
f 32 61 37
f 32 37 33
f 35 37 62
f 35 62 38
f 37 61 63
f 37 63 64
f 37 64 65
f 37 65 66
f 37 66 62
f 38 62 66
f 38 66 65
f 38 65 64
f 43 67 68
f 43 68 69
f 43 69 44
f 44 69 70
f 44 70 45
f 45 70 71
f 45 71 56
f 46 50 59
f 46 59 72
f 46 72 73
f 46 73 74
f 46 74 75
f 46 75 76
f 46 76 89
f 46 89 98
f 46 98 102
f 46 102 100
f 46 100 92
f 46 92 81
f 46 81 63
f 46 63 61
f 46 61 60
f 46 60 55
f 46 55 54
f 46 54 53
f 46 53 52
f 46 52 51
f 46 51 77
f 46 77 48
f 46 48 47
f 48 77 49
f 49 77 51
f 56 71 78
f 56 78 57
f 57 78 79
f 57 79 58
f 58 80 72
f 58 72 59
f 58 79 80
f 63 81 64
f 69 82 70
f 70 82 83
f 70 83 84
f 70 84 85
f 70 85 86
f 70 86 71
f 71 86 78
f 72 80 87
f 72 87 73
f 73 87 74
f 74 87 88
f 74 88 75
f 75 88 76
f 76 88 89
f 78 86 90
f 78 90 91
f 78 91 79
f 79 91 80
f 80 91 95
f 80 95 87
f 84 93 86
f 84 86 85
f 86 93 94
f 86 94 90
f 87 95 96
f 87 96 88
f 88 96 89
f 89 96 97
f 89 97 98
f 90 99 95
f 90 95 91
f 90 94 101
f 90 101 99
f 92 100 101
f 92 101 93
f 93 101 94
f 95 99 97
f 95 97 96
f 97 99 101
f 97 101 102
f 97 102 98
f 100 102 101

