v 119.460229 -9.000000 8.133372
v 120.921990 -9.000000 8.133372
v 119.872482 -9.000000 7.250087
v 119.872233 -15.000000 7.250087
v 119.460478 -15.000000 8.133372
v 122.014248 -12.000000 8.133372
v 120.510738 -9.000000 7.250087
v 120.510486 -15.000000 7.250087
v 120.921990 -15.000000 8.133372
v 121.585494 -13.178152 8.133372
v 121.602243 -12.000000 7.250087
f 1 2 7
f 1 7 3
f 1 3 4
f 1 4 5
f 1 5 9
f 1 9 10
f 1 10 6
f 1 6 2
f 2 6 7
f 3 7 11
f 3 11 8
f 3 8 4
f 4 8 9
f 4 9 5
f 6 10 8
f 6 8 11
f 6 11 7
f 8 10 9
