# https://github.com/mikedh/trimesh
v 37.91532953 -13.46471172 28.78362953
v 37.91532953 -13.46471172 26.13589254
v 33.29639771 -13.46471172 28.78362953
v 37.91532953 -20.77994704 28.78362953
v 37.91532953 -13.48760592 18.83635753
v 37.42834007 -13.46471172 26.13491851
v 33.29594574 -14.55226532 28.78362953
v 33.30091934 -13.46471172 28.58984506
v 33.32533727 -15.81440220 18.83635753
v 33.29639771 -17.09657079 18.83635753
v 37.70371314 -40.12983796 28.78362953
v 37.91532953 -41.44921129 23.60987906
v 36.14869642 -13.48760592 18.83635753
v 37.91532953 -42.69990012 18.83635753
v 36.14869642 -13.46471172 26.13491851
v 33.29639771 -38.84766747 18.83635753
v 33.29639771 -38.84766747 28.78362953
v 33.36422404 -13.46471172 27.52062304
v 33.71556084 -14.54654224 18.83635753
v 37.59971378 -41.40914406 28.78362953
v 37.91532953 -42.04736682 23.11714174
v 37.91532953 -41.64668687 23.47354845
v 34.86950284 -13.51622510 18.83635753
v 33.42888465 -13.46471172 27.30249405
v 33.81684645 -13.46471172 26.50885439
v 34.08317626 -13.46471172 26.39784232
v 34.86950284 -13.46471172 26.14855205
v 35.17562336 -13.46471172 26.14465688
v 37.91532953 -42.69990012 19.84228343
v 37.42834007 -42.69990012 18.83635753
v 33.35879846 -40.12983796 18.83635753
v 33.35834459 -40.12983796 19.84228343
v 33.35789261 -40.12983796 21.12184412
v 33.35789261 -40.12983796 22.40237932
v 33.35834459 -40.12983796 23.68194001
v 33.35879846 -40.12983796 24.96052715
v 33.36151030 -40.12983796 27.52062304
v 33.29730165 -38.86483859 28.78362953
v 37.14799531 -42.33929122 28.78362953
v 37.91532953 -42.41084012 22.41601190
v 37.91532953 -42.69131456 21.12184412
v 37.42834007 -42.69703954 21.12184412
v 37.42834007 -42.69990012 19.84228343
v 36.42271166 -42.67986841 18.83635753
v 33.72550804 -41.12294464 18.83635753
v 33.82453379 -41.39483352 19.84228343
v 33.82453379 -41.39769410 21.12184412
v 33.82453379 -41.40055850 23.68194001
v 33.82543773 -41.40341908 24.96052715
v 33.82815147 -41.40628348 27.52062304
v 33.37643300 -40.12983796 28.78362953
v 37.14211586 -42.35073736 28.78362953
v 36.14869642 -42.64838293 28.78362953
v 36.14869642 -42.67414343 22.40237932
v 36.14869642 -42.67414343 18.83635753
v 33.82543773 -41.39197293 18.83635753
v 33.91587220 -41.52934957 18.83635753
v 34.24007924 -42.04164184 23.68194001
v 34.23510564 -42.04450623 26.24008784
v 34.23103598 -42.04736682 28.53141765
v 34.01489796 -41.69247908 28.78362953
v 33.91316037 -41.52648517 28.78362953
v 36.13286977 -42.64552234 28.78362953
v 34.87266855 -42.34787678 27.52062304
v 34.87538038 -42.35073736 26.24008784
v 34.87764215 -42.35073736 24.96052715
v 34.88216378 -42.35073736 22.40237932
v 34.88894527 -42.35073736 18.83635753
v 34.24867052 -42.03305627 18.83635753
v 34.24686263 -42.03591686 19.84228343
v 34.58644243 -42.21622512 28.78362953
v 34.75284255 -42.29349900 28.78362953
f 1 2 6
f 1 6 15
f 1 15 28
f 1 28 27
f 1 27 26
f 1 26 25
f 1 25 24
f 1 24 18
f 1 18 8
f 1 8 3
f 1 3 7
f 1 7 17
f 1 17 38
f 1 38 51
f 1 51 62
f 1 62 61
f 1 61 71
f 1 71 72
f 1 72 63
f 1 63 53
f 1 53 52
f 1 52 39
f 1 39 20
f 1 20 11
f 1 11 4
f 1 4 12
f 1 12 22
f 1 22 21
f 1 21 40
f 1 40 41
f 1 41 29
f 1 29 14
f 1 14 5
f 1 5 2
f 2 5 6
f 3 8 9
f 3 9 10
f 3 10 7
f 4 11 12
f 5 13 15
f 5 15 6
f 5 14 30
f 5 30 44
f 5 44 55
f 5 55 68
f 5 68 69
f 5 69 57
f 5 57 56
f 5 56 45
f 5 45 31
f 5 31 16
f 5 16 10
f 5 10 9
f 5 9 19
f 5 19 23
f 5 23 13
f 7 10 16
f 7 16 17
f 8 18 9
f 9 18 19
f 11 20 21
f 11 21 22
f 11 22 12
f 13 23 24
f 13 24 25
f 13 25 26
f 13 26 27
f 13 27 28
f 13 28 15
f 14 29 43
f 14 43 30
f 16 31 32
f 16 32 33
f 16 33 34
f 16 34 17
f 17 34 35
f 17 35 36
f 17 36 37
f 17 37 38
f 18 24 23
f 18 23 19
f 20 39 40
f 20 40 21
f 29 41 42
f 29 42 43
f 30 43 44
f 31 45 46
f 31 46 47
f 31 47 32
f 32 47 48
f 32 48 33
f 33 48 49
f 33 49 34
f 34 49 35
f 35 49 36
f 36 49 50
f 36 50 37
f 37 51 38
f 37 50 51
f 39 52 40
f 40 52 41
f 41 53 42
f 41 52 53
f 42 53 54
f 42 54 43
f 43 54 44
f 44 54 55
f 45 56 46
f 46 56 57
f 46 57 58
f 46 58 59
f 46 59 60
f 46 60 47
f 47 60 49
f 47 49 48
f 49 60 50
f 50 60 61
f 50 61 62
f 50 62 51
f 53 63 54
f 54 63 64
f 54 64 65
f 54 65 55
f 55 65 66
f 55 66 67
f 55 67 68
f 57 69 70
f 57 70 58
f 58 60 59
f 58 70 68
f 58 68 60
f 60 68 71
f 60 71 61
f 63 72 64
f 64 72 65
f 65 72 71
f 65 71 66
f 66 71 67
f 67 71 68
f 68 70 69

