# https://github.com/mikedh/trimesh
v 103.84878419 -14.09816303 22.18672378
v 103.98101941 -9.41501780 22.57880863
v 103.98441015 -14.09816303 22.18864610
v 100.13940142 -14.09816303 22.90362211
v 100.65139238 -8.70580300 22.99203319
v 103.98101941 -8.56114046 22.80175866
v 107.29369653 -8.70457771 22.99011279
v 106.54097036 -14.09816303 22.33856162
v 95.00255152 -14.09816303 25.85962935
v 95.00255152 -7.83660151 25.77890608
v 96.16215748 -7.83660151 25.42526175
v 98.55257503 -7.83660151 24.88518511
v 103.98101941 -7.83660151 24.74680251
v 107.93791888 -7.83660151 24.73527054
v 127.01377358 -7.83660151 25.78659390
v 98.92215472 -7.83660151 24.85058922
v 100.01055695 -7.83660151 24.81791565
v 101.37699259 -7.83660151 24.79292988
v 128.00045730 -7.83660151 25.90767856
v 128.17677219 -7.83660151 25.93650847
v 128.29205369 -14.09816303 26.03452921
v 95.00255152 -14.09816303 38.12955312
v 95.00255152 -7.83660151 38.22180835
v 128.88881325 -7.83660151 26.32282639
v 129.13632614 -14.09816303 26.47081912
v 100.26146441 -14.09816303 41.46419046
v 95.89090556 -7.83660151 38.46013401
v 100.66156461 -8.71070699 41.00483615
v 129.13972070 -7.83660151 26.54193226
v 129.40757806 -7.83660151 27.21078138
v 129.48217444 -14.09816303 27.52214248
v 103.97423792 -14.09816303 41.82167752
v 96.36220758 -7.83660151 38.57929684
v 98.93232695 -7.83660151 39.14820290
v 103.98101941 -9.41501780 41.36424742
v 103.98101941 -8.62182486 41.14321971
v 129.48556900 -7.83660151 27.52214248
v 129.62458570 -7.83660151 28.50235246
v 129.63475412 -14.09816303 28.80218137
v 104.10647313 -14.09816303 41.81975521
v 101.42107227 -7.83660151 39.20586224
v 107.28691504 -8.70948075 41.00675846
v 127.33249592 -7.83660151 38.20835456
v 107.94809112 -7.83660151 39.27120988
v 103.98101941 -7.83660151 39.25199010
v 129.63814868 -7.83660151 28.80218137
v 129.63475412 -14.09816303 33.91849383
v 128.29205369 -14.09816303 37.95273096
v 128.00384805 -7.83660151 38.08534758
v 129.63475412 -7.83660151 35.19853283
v 129.63136719 -14.09816303 35.19853283
v 128.40055369 -14.09816303 37.90660358
v 128.26831848 -7.83660151 37.99693650
v 129.54659477 -14.09816303 36.04228252
v 129.46861146 -7.83660151 36.47857196
v 129.12615772 -14.09816303 37.51836335
v 129.12954465 -7.83660151 37.44917205
v 129.46522453 -14.09816303 36.47857196
v 129.25499838 -14.09816303 37.24352045
f 1 2 3
f 1 3 8
f 1 8 21
f 1 21 25
f 1 25 31
f 1 31 39
f 1 39 47
f 1 47 51
f 1 51 54
f 1 54 58
f 1 58 59
f 1 59 56
f 1 56 52
f 1 52 48
f 1 48 40
f 1 40 32
f 1 32 26
f 1 26 22
f 1 22 9
f 1 9 4
f 1 4 5
f 1 5 2
f 2 6 7
f 2 7 8
f 2 8 3
f 2 5 6
f 4 9 10
f 4 10 5
f 5 10 11
f 5 11 12
f 5 12 6
f 6 13 14
f 6 14 15
f 6 15 7
f 6 12 16
f 6 16 17
f 6 17 18
f 6 18 13
f 7 15 19
f 7 19 8
f 8 19 20
f 8 20 21
f 9 22 23
f 9 23 10
f 10 23 27
f 10 27 33
f 10 33 34
f 10 34 41
f 10 41 45
f 10 45 44
f 10 44 43
f 10 43 49
f 10 49 53
f 10 53 57
f 10 57 55
f 10 55 50
f 10 50 46
f 10 46 38
f 10 38 37
f 10 37 30
f 10 30 29
f 10 29 24
f 10 24 20
f 10 20 19
f 10 19 15
f 10 15 14
f 10 14 13
f 10 13 18
f 10 18 17
f 10 17 16
f 10 16 12
f 10 12 11
f 20 24 25
f 20 25 21
f 22 26 23
f 23 26 28
f 23 28 27
f 24 29 25
f 25 29 30
f 25 30 31
f 26 32 28
f 27 28 33
f 28 34 33
f 28 32 35
f 28 35 36
f 28 36 34
f 30 37 31
f 31 37 38
f 31 38 39
f 32 40 35
f 34 36 41
f 35 40 42
f 35 42 36
f 36 42 43
f 36 43 44
f 36 44 45
f 36 45 41
f 38 46 39
f 39 46 47
f 40 48 43
f 40 43 42
f 43 48 49
f 46 50 47
f 47 50 51
f 48 52 53
f 48 53 49
f 50 54 51
f 50 55 54
f 52 56 53
f 53 56 57
f 54 55 58
f 55 57 59
f 55 59 58
f 56 59 57

