# https://github.com/mikedh/trimesh
v 18.23197673 -9.41687860 16.70388869
v 18.23197673 -6.85856894 16.70286078
v 16.63546266 -10.69997006 16.70388869
v 18.23197673 -19.65405529 16.70388869
v 23.35780139 -26.04982990 16.70286078
v 18.98482487 -6.15798555 16.65971938
v 18.23197673 -6.11862680 16.67101868
v 16.95199948 -6.85856894 16.69361729
v 16.95199948 -8.13772329 16.70286078
v 19.51195016 -8.13772329 16.69464328
v 19.45140879 -6.93335030 16.67410048
v 16.63546266 -8.45652856 16.70286078
v 16.63546266 -13.25828067 16.70388869
v 16.95199948 -32.44954449 16.70286078
v 19.51195016 -33.73263405 16.70286078
v 22.07058497 -35.01178744 16.70286078
v 23.35780139 -35.01178744 16.70286078
v 16.95199948 -15.81659128 16.70388869
v 23.35780139 -25.20361997 16.66793688
v 23.35056221 -25.20361997 16.67101868
v 20.17266847 -7.40958963 16.65458368
v 23.35714155 2.27263116 11.62860003
v 16.95199948 -6.15404939 16.66074728
v 16.63546266 2.27263116 11.62860003
v 16.63546266 -6.85856894 16.68026409
v 16.63546266 -7.18918078 16.68950758
v 16.63546266 -6.17766445 16.65355769
v 16.63546266 -31.17038728 16.70286078
v 16.63546266 -32.44954449 16.70183479
v 18.23197673 -33.73263405 16.69053549
v 23.35780139 -36.31849397 16.67718229
v 23.35780139 2.10732381 11.62860003
v 23.35780139 2.27263116 10.94860806
v 16.63546266 2.27263116 6.21023454
v 16.63546266 -33.51222425 16.66691089
v 18.23197673 -34.43321744 16.65869148
v 21.11307167 -35.71237084 16.65971938
v 22.91425089 -36.72782428 16.60219688
v 23.35780139 -37.36937287 16.08963577
v 23.35780139 2.27263116 6.37150132
v 23.35780139 -35.01965977 6.37150132
v 16.63546266 -32.13467443 6.21126149
v 16.63546266 -34.02388713 16.42757738
v 16.71508984 -34.03569562 16.46044738
v 17.56862668 -34.37811499 16.64328438
v 22.07058497 -37.14109075 15.72704166
v 23.35780139 -37.47957396 15.96842907
v 23.35780139 -36.29881316 6.37252827
v 16.63546266 -33.37840619 6.22769649
v 16.63546266 -34.09079425 16.35875748
v 16.63546266 -34.57490782 15.84516752
v 17.06584686 -34.63788259 16.01978797
v 19.51195016 -35.91703599 15.80408002
v 18.69329336 -35.73205164 15.53804106
v 21.33747866 -36.97184724 15.45894786
v 23.35780139 -37.93219823 14.71835254
v 23.35780139 -36.97971956 6.38999069
v 23.35056221 -36.97578340 6.38690889
v 17.46333054 -34.39385582 6.39101764
v 16.63546266 -33.64604612 6.30987054
v 22.65759941 -36.94823408 6.39204507
v 16.63546266 -34.87796939 14.71835254
v 21.29075581 -36.99546039 14.71835254
v 22.07058497 -37.34969207 14.71835254
v 23.33871558 -37.92432591 14.71835254
v 16.95199948 -35.02359593 14.71835254
v 23.35780139 -37.93613439 8.32108566
v 23.35780139 -37.52286793 7.05046633
v 16.63546266 -34.16558133 6.47216475
v 23.35780139 -37.57403421 7.15215671
v 22.16732606 -37.10566529 7.07203703
v 18.69329336 -35.73205164 7.40792427
v 16.63546266 -34.58671630 7.09977086
v 16.63546266 -34.49225224 6.95699298
v 16.63546266 -34.18919448 6.50606170
v 16.63546266 -34.87796939 8.32108566
v 16.95199948 -35.02359593 8.32108566
v 21.33747866 -36.97184724 7.51988699
v 23.35780139 -37.93219823 8.30054191
v 16.63546266 -34.83467542 7.97287265
f 1 2 3
f 1 3 13
f 1 13 18
f 1 18 4
f 1 4 17
f 1 17 5
f 1 5 2
f 2 6 7
f 2 7 8
f 2 8 9
f 2 9 3
f 2 5 10
f 2 10 11
f 2 11 6
f 3 9 12
f 3 12 26
f 3 26 25
f 3 25 27
f 3 27 24
f 3 24 34
f 3 34 42
f 3 42 49
f 3 49 60
f 3 60 69
f 3 69 75
f 3 75 74
f 3 74 73
f 3 73 80
f 3 80 76
f 3 76 62
f 3 62 51
f 3 51 50
f 3 50 43
f 3 43 35
f 3 35 29
f 3 29 28
f 3 28 13
f 4 14 15
f 4 15 16
f 4 16 17
f 4 18 14
f 5 17 31
f 5 31 39
f 5 39 47
f 5 47 56
f 5 56 67
f 5 67 79
f 5 79 70
f 5 70 68
f 5 68 57
f 5 57 48
f 5 48 41
f 5 41 40
f 5 40 33
f 5 33 32
f 5 32 19
f 5 19 20
f 5 20 21
f 5 21 10
f 6 22 7
f 6 11 21
f 6 21 22
f 7 23 8
f 7 22 24
f 7 24 23
f 8 25 26
f 8 26 12
f 8 12 9
f 8 23 27
f 8 27 25
f 10 21 11
f 13 28 18
f 14 28 29
f 14 29 15
f 14 18 28
f 15 29 16
f 16 29 30
f 16 30 31
f 16 31 17
f 19 32 22
f 19 22 21
f 19 21 20
f 22 32 33
f 22 33 40
f 22 40 34
f 22 34 24
f 23 24 27
f 29 35 30
f 30 36 37
f 30 37 31
f 30 35 36
f 31 37 38
f 31 38 39
f 34 40 41
f 34 41 42
f 35 43 44
f 35 44 45
f 35 45 36
f 36 45 37
f 37 45 38
f 38 46 47
f 38 47 39
f 38 45 46
f 41 48 42
f 42 48 49
f 43 50 45
f 43 45 44
f 45 50 51
f 45 51 52
f 45 52 46
f 46 53 51
f 46 51 54
f 46 54 55
f 46 55 56
f 46 56 47
f 46 52 53
f 48 57 58
f 48 58 49
f 49 59 60
f 49 58 61
f 49 61 59
f 51 62 54
f 51 53 52
f 54 62 55
f 55 63 64
f 55 64 65
f 55 65 56
f 55 62 66
f 55 66 63
f 56 65 67
f 57 68 61
f 57 61 58
f 59 69 60
f 59 61 69
f 61 68 70
f 61 70 71
f 61 71 72
f 61 72 73
f 61 73 74
f 61 74 75
f 61 75 69
f 62 76 77
f 62 77 66
f 63 67 64
f 63 66 67
f 64 67 65
f 66 77 67
f 67 78 79
f 67 77 78
f 70 79 78
f 70 78 71
f 71 78 72
f 72 78 76
f 72 76 80
f 72 80 73
f 76 78 77

