v 106.893861 -15.000000 40.133372
v 107.305863 -15.000000 39.250087
v 108.355619 -15.000000 40.133372
v 106.894110 -9.000000 40.133372
v 107.944116 -15.000000 39.250087
v 107.306114 -9.000000 39.250087
v 109.019123 -13.178152 40.133372
v 108.355619 -9.000000 40.133372
v 109.035873 -12.000000 39.250087
v 109.447874 -12.000000 40.133372
v 107.944367 -9.000000 39.250087
f 1 2 5
f 1 5 3
f 1 3 7
f 1 7 10
f 1 10 8
f 1 8 4
f 1 4 6
f 1 6 2
f 2 6 11
f 2 11 9
f 2 9 5
f 3 5 7
f 4 8 11
f 4 11 6
f 5 9 10
f 5 10 7
f 8 10 11
f 9 11 10
