# https://github.com/mikedh/trimesh
v 35.92420751 -14.04682317 12.95627463
v 37.91532560 -14.08609515 12.95627463
v 35.92420751 -14.47039345 8.41484221
v 35.92420751 -42.70084292 12.95627463
v 37.91532560 -14.57137584 8.41484221
v 37.91532560 -42.70084292 12.95627463
v 35.92420751 -42.69242899 8.41484221
v 35.92420751 -42.70084292 9.37549547
v 37.91532560 -41.56477968 8.41484221
v 37.91532560 -42.70084292 11.36615110
v 35.94096861 -42.69242899 8.41484221
v 37.91532560 -41.63771310 8.48063466
v 37.29729100 -42.36984299 8.41484221
v 36.14892916 -42.68962181 8.41484221
v 37.91532560 -42.69242899 10.87982249
v 37.91532560 -42.13701826 9.11410496
v 37.91532560 -42.41191644 9.57331621
v 37.91532560 -42.51570601 9.92317023
v 36.26314269 -42.66998677 8.41484221
f 1 2 3
f 1 3 7
f 1 7 8
f 1 8 4
f 1 4 6
f 1 6 2
f 2 5 3
f 2 6 10
f 2 10 15
f 2 15 18
f 2 18 17
f 2 17 16
f 2 16 12
f 2 12 9
f 2 9 5
f 3 5 9
f 3 9 13
f 3 13 19
f 3 19 14
f 3 14 11
f 3 11 7
f 4 8 10
f 4 10 6
f 7 11 8
f 8 11 10
f 9 12 13
f 10 11 14
f 10 14 15
f 12 16 13
f 13 16 17
f 13 17 18
f 13 18 19
f 14 19 15
f 15 19 18

