v 72.336342 -15.000000 40.133372
v 72.748554 -15.000000 39.250087
v 73.798208 -15.000000 40.133372
v 72.336592 -9.000000 40.133372
v 72.748554 -9.000000 39.250087
v 73.386746 -15.000000 39.250087
v 74.461397 -13.178152 40.133372
v 73.798208 -9.000000 40.133372
v 73.386746 -9.000000 39.250087
v 74.478146 -12.000000 39.250087
v 74.890108 -12.000000 40.133372
v 74.889857 -11.998825 40.133372
f 1 2 6
f 1 6 3
f 1 3 7
f 1 7 11
f 1 11 12
f 1 12 8
f 1 8 4
f 1 4 5
f 1 5 2
f 2 5 9
f 2 9 10
f 2 10 6
f 3 6 7
f 4 8 9
f 4 9 5
f 6 10 11
f 6 11 7
f 8 12 9
f 9 12 10
f 10 12 11
