# https://github.com/mikedh/trimesh
v 19.03600450 -22.20042291 48.70122317
v 19.03600450 -22.20042291 44.43839197
v 19.51159359 -22.20042291 48.69955449
v 19.03600450 -8.13527307 48.69830156
v 21.24146820 -22.20042291 44.43839197
v 19.03600450 -4.88842655 44.43839197
v 20.20673813 -22.20042291 48.66617340
v 19.51159359 -8.13527307 48.69496421
v 19.03600450 -6.89821779 48.68411497
v 21.05645714 -8.13527307 44.43839197
v 20.89540632 -22.20042291 46.71752140
v 19.03600450 -5.39002691 46.71752140
v 19.51159359 -5.57643298 46.71752140
v 19.63875222 -5.15786676 44.43839197
v 20.57525368 -22.20042291 47.99728900
v 20.18536767 -8.13527307 48.66200076
v 20.17392534 -7.38965068 48.65365358
v 19.46410028 -6.92024714 48.67368338
v 19.03600450 -6.20512809 48.66033018
v 20.94765200 -7.00328223 44.43839197
v 20.70370149 -8.13527307 46.71752140
v 20.46148258 -8.13527307 47.99728900
v 19.03600450 -5.79334145 47.99728900
v 19.46410028 -5.92551946 47.99687136
v 20.20220697 -6.15259539 47.57000373
v 20.43945990 -5.64421640 44.43839197
v 20.30604613 -6.92024714 47.99687136
v 19.85895227 -6.53557406 48.42332134
v 19.03600450 -6.13903909 48.61568220
v 20.92411894 -6.85585351 44.43839197
v 20.65663918 -5.92382504 44.43839197
v 20.59511376 -5.76453252 44.43839197
f 1 2 5
f 1 5 11
f 1 11 15
f 1 15 7
f 1 7 3
f 1 3 4
f 1 4 9
f 1 9 19
f 1 19 29
f 1 29 23
f 1 23 12
f 1 12 6
f 1 6 2
f 2 6 14
f 2 14 26
f 2 26 32
f 2 32 31
f 2 31 30
f 2 30 20
f 2 20 10
f 2 10 5
f 3 7 8
f 3 8 4
f 4 8 9
f 5 10 11
f 6 12 13
f 6 13 14
f 7 15 16
f 7 16 8
f 8 16 17
f 8 17 18
f 8 18 9
f 9 18 19
f 10 20 21
f 10 21 11
f 11 21 22
f 11 22 15
f 12 23 24
f 12 24 13
f 13 24 25
f 13 25 14
f 14 25 26
f 15 22 16
f 16 22 17
f 17 27 25
f 17 25 28
f 17 28 19
f 17 19 18
f 17 22 27
f 19 28 29
f 20 30 27
f 20 27 21
f 21 27 22
f 23 29 24
f 24 29 28
f 24 28 25
f 25 27 30
f 25 30 31
f 25 31 32
f 25 32 26

