# https://github.com/mikedh/trimesh
v 46.38728631 -3.42966003 14.71949773
v 51.50640005 -3.51487202 15.69602341
v 51.50640005 -3.43069937 14.71949773
v 51.51172455 -3.43069937 14.71548910
v 51.50640005 -3.57410420 13.97252808
v 48.94684223 -3.57410420 13.97252808
v 37.91532560 -3.57410420 13.97289233
v 37.91532560 -3.48473578 14.43564879
v 37.91532560 -3.43069937 14.71949773
v 37.91532560 -3.48265804 15.32472455
v 37.91532560 -3.51487202 15.69602341
v 51.51172455 -4.16954878 16.33586519
v 51.51172455 -3.51487202 15.69092204
v 37.91532560 -3.92014888 16.09282818
v 51.51172455 -3.57722223 13.97107109
v 51.51172455 -4.29840563 13.61871978
v 37.91532560 -4.29840563 13.61871978
v 37.91532560 -3.84948486 13.83807402
v 51.51172455 -4.80655954 16.66963416
v 37.91532560 -4.16954878 16.33586519
v 51.51172455 -4.30464170 13.61726279
v 37.91532560 -5.57762387 13.37130894
v 51.50640005 -4.80967757 16.67109115
v 51.51172455 -5.57762387 16.70352062
v 37.91532560 -4.80967757 16.67109115
v 51.51172455 -5.57762387 13.37130894
v 37.91532560 -14.04581624 12.98470691
v 46.38728631 -14.04581624 12.98142773
v 37.91532560 -5.28561750 16.69149664
v 47.66639966 -9.41631602 16.70388487
v 51.51172455 -8.13709778 16.70352062
v 37.91532560 -5.57762387 16.70352062
v 51.51172455 -6.86411561 13.37130894
v 47.66639966 -14.04581624 12.98871554
v 47.62114524 -14.04581624 12.98835034
v 37.91532560 -14.04581624 16.68785226
v 47.66639966 -14.04581624 16.70388487
v 51.51172455 -8.84581190 16.67109115
v 48.45835769 -14.04581624 16.67109115
v 37.91532560 -13.25604751 16.70352062
v 51.51172455 -8.14333290 13.37422387
v 51.50640005 -8.13709778 13.37240263
v 48.81374122 -14.04581624 13.19203622
v 37.91931897 -14.04581624 16.70352062
v 49.09724880 -14.04581624 16.12562190
v 49.61368600 -14.04581624 15.48577822
v 51.51172455 -9.31032094 15.99881895
v 48.70326552 -14.04581624 16.46230485
v 51.51172455 -9.20536426 13.73131231
v 49.95176492 -14.04581624 13.73604848
v 49.68689212 -14.04581624 13.57608756
v 48.94684223 -14.04581624 13.22956707
v 49.77207742 -14.04581624 14.71949773
v 51.51172455 -9.66675526 14.71949773
f 1 2 3
f 1 3 4
f 1 4 5
f 1 5 6
f 1 6 7
f 1 7 8
f 1 8 9
f 1 9 10
f 1 10 11
f 1 11 2
f 2 12 13
f 2 13 4
f 2 4 3
f 2 11 14
f 2 14 12
f 4 13 12
f 4 12 19
f 4 19 24
f 4 24 31
f 4 31 38
f 4 38 47
f 4 47 54
f 4 54 49
f 4 49 41
f 4 41 33
f 4 33 26
f 4 26 21
f 4 21 16
f 4 16 15
f 4 15 5
f 5 15 16
f 5 16 17
f 5 17 6
f 6 17 18
f 6 18 7
f 7 18 17
f 7 17 22
f 7 22 27
f 7 27 36
f 7 36 40
f 7 40 32
f 7 32 29
f 7 29 25
f 7 25 20
f 7 20 14
f 7 14 11
f 7 11 10
f 7 10 9
f 7 9 8
f 12 14 20
f 12 20 19
f 16 21 17
f 17 21 22
f 19 23 24
f 19 20 25
f 19 25 23
f 21 26 22
f 22 26 28
f 22 28 27
f 23 25 29
f 23 29 24
f 24 30 37
f 24 37 31
f 24 29 32
f 24 32 30
f 26 33 34
f 26 34 35
f 26 35 28
f 27 28 35
f 27 35 34
f 27 34 43
f 27 43 52
f 27 52 51
f 27 51 50
f 27 50 53
f 27 53 46
f 27 46 45
f 27 45 48
f 27 48 39
f 27 39 37
f 27 37 44
f 27 44 36
f 30 32 40
f 30 40 37
f 31 37 39
f 31 39 38
f 33 41 42
f 33 42 34
f 34 42 43
f 36 44 40
f 37 40 44
f 38 45 46
f 38 46 47
f 38 39 48
f 38 48 45
f 41 49 50
f 41 50 51
f 41 51 52
f 41 52 43
f 41 43 42
f 46 53 47
f 47 53 50
f 47 50 54
f 49 54 50

