# https://github.com/mikedh/trimesh
v 114.14017765 -35.93786722 39.03743160
v 114.14017765 -40.13031854 39.03743160
v 114.13671063 -35.93786722 34.35914006
v 78.73245957 -35.93786722 39.03743160
v 114.05351343 -41.40988400 39.03743160
v 114.05351343 -41.40988400 34.35914006
v 114.10897823 -40.56872004 34.35914006
v 114.13671063 -40.13031854 34.35914006
v 78.73245957 -35.93786722 34.35914006
v 78.72552743 -40.13209973 39.03743160
v 113.77272242 -42.24124569 39.03743160
v 113.77272242 -42.24124569 34.35914006
v 78.73245957 -40.13031854 34.35914006
v 78.79485842 -41.41077268 39.03743160
v 78.79832545 -41.40988400 34.35914006
v 112.93380498 -42.50589157 39.03743160
v 107.43579885 -44.76562624 34.35914006
v 78.94392149 -42.14144567 34.35914006
v 78.94392149 -42.14144567 39.03743160
v 111.65463619 -42.56737503 39.03743160
v 105.25531758 -44.79324803 36.05596516
v 106.06649500 -44.71572623 35.94925541
v 106.51022100 -44.82710971 35.18579871
v 107.34220057 -44.73176457 34.74979914
v 106.96087724 -44.86720745 34.35914006
v 79.19004987 -42.23233593 34.35914006
v 79.66497148 -42.40609155 39.03743160
v 109.09629479 -42.57895848 39.03743160
v 103.97614497 -44.81730744 36.11275536
v 105.25531758 -44.99819164 35.19999602
v 106.52755232 -44.95185782 34.35914006
v 79.66497148 -42.40609155 34.35914006
v 80.94414218 -42.57895848 37.75920251
v 80.94414218 -42.56737503 39.03743160
v 103.97614497 -42.58252086 39.03743160
v 102.69697618 -44.79592172 36.06329302
v 102.69697618 -45.00710140 35.19999602
v 103.97614497 -45.02937962 35.19999602
v 83.50248357 -42.57895848 39.03743160
v 105.25531758 -45.02492474 34.35914006
v 80.94414218 -42.57895848 34.35914006
v 101.85459553 -45.01868867 34.35914006
v 103.13723134 -45.04007057 34.35914006
v 103.97614497 -45.03918188 34.35914006
f 1 2 8
f 1 8 3
f 1 3 9
f 1 9 4
f 1 4 10
f 1 10 14
f 1 14 19
f 1 19 27
f 1 27 34
f 1 34 39
f 1 39 35
f 1 35 28
f 1 28 20
f 1 20 16
f 1 16 11
f 1 11 5
f 1 5 2
f 2 5 6
f 2 6 7
f 2 7 8
f 3 8 7
f 3 7 6
f 3 6 12
f 3 12 17
f 3 17 25
f 3 25 31
f 3 31 40
f 3 40 44
f 3 44 43
f 3 43 42
f 3 42 41
f 3 41 32
f 3 32 26
f 3 26 18
f 3 18 15
f 3 15 13
f 3 13 9
f 4 9 10
f 5 11 12
f 5 12 6
f 9 13 10
f 10 13 15
f 10 15 14
f 11 16 17
f 11 17 12
f 14 15 18
f 14 18 19
f 16 20 21
f 16 21 22
f 16 22 23
f 16 23 24
f 16 24 17
f 17 24 25
f 18 26 19
f 19 26 27
f 20 28 29
f 20 29 21
f 21 29 30
f 21 30 22
f 22 30 23
f 23 30 31
f 23 31 25
f 23 25 24
f 26 32 27
f 27 33 34
f 27 32 41
f 27 41 33
f 28 35 29
f 29 36 37
f 29 37 38
f 29 38 30
f 29 35 39
f 29 39 34
f 29 34 36
f 30 38 40
f 30 40 31
f 33 42 34
f 33 41 42
f 34 42 37
f 34 37 36
f 37 42 38
f 38 43 44
f 38 44 40
f 38 42 43

