# https://github.com/mikedh/trimesh
v 118.36595556 -42.70388276 -14.40700637
v 124.45523209 -42.70388276 -13.43568313
v 118.36595556 -42.70388276 -12.15667276
v 118.36595556 -42.70178500 -14.71555453
v 125.73422148 -42.70178500 -14.71555453
v 123.17624270 -42.70388276 -12.15667276
v 125.73422148 -42.70178500 -10.87766239
v 127.01431696 -42.64936006 -7.89905019
v 118.36595556 -42.65984505 -10.87766239
v 118.36595556 -42.45643092 -15.64723296
v 125.73422148 -42.37674272 -15.94371518
v 127.01431696 -42.34948327 -15.90837841
v 127.01431696 -42.64936006 -14.71555453
v 127.38179122 -42.54450636 -7.89905019
v 126.13590831 -42.45014145 -7.89905019
v 118.36595556 -42.33270500 -9.92616109
v 118.36595556 -42.37674272 -15.94371518
v 118.36595556 -41.90700835 -16.42894724
v 125.73422148 -41.75601917 -16.58322037
v 127.97438571 -42.23205063 -15.70066864
v 127.01431696 -41.69520699 -16.54788264
v 128.13550135 -42.32431777 -14.71555453
v 128.13660363 -42.32431777 -12.15667276
v 128.13770972 -42.32431777 -7.89905019
v 125.75077472 -42.35577274 -7.89905019
v 118.36595556 -41.41001072 -9.51763651
v 118.36595556 -41.75601917 -16.58322037
v 118.36595556 -41.27160428 -16.64872199
v 125.73422148 -41.11642340 -16.66940782
v 127.01431696 -41.05561122 -16.66940782
v 128.77555100 -41.89862112 -14.71555453
v 128.31979153 -41.43517240 -16.13160302
v 129.12978267 -41.09545342 -15.70928758
v 127.81106551 -40.91930255 -16.65820196
v 128.77665328 -41.90071507 -9.59779004
v 128.56808629 -42.03912150 -7.89905019
v 125.55324195 -42.02234323 -7.89905019
v 125.21777188 -41.41001072 -7.89905019
v 118.36595556 -41.10174289 -9.49436567
v 118.36595556 -41.11642340 -16.66940782
v 118.36595556 -40.36778222 -16.69526367
v 127.01431696 -40.13081536 -16.70301966
v 129.22688992 -41.25902154 -14.71555453
v 128.61222699 -40.13081536 -16.56339844
v 129.25668575 -40.13081536 -15.92303031
v 129.57891704 -40.13081536 -14.71555453
v 127.97218116 -40.13081536 -16.66940782
v 128.77665328 -41.90071507 -7.89905019
v 129.22688992 -41.26111930 -8.31791768
v 125.11072888 -40.13081536 -7.89905019
v 118.36595556 -40.13081536 -9.42196909
v 118.36595556 -40.13081536 -16.70301966
v 128.05715190 -37.57242847 -16.66940782
v 128.05604962 -38.85162001 -16.66940782
v 120.61605173 -38.85162001 -16.70388165
v 127.01431696 -21.28262695 -16.70301966
v 127.29571438 -21.28262695 -16.69440168
v 128.69609546 -38.85162001 -16.60131832
v 129.28648158 -38.85162001 -15.96095210
v 129.63740260 -38.85162001 -14.71555453
v 129.61864481 -39.26893325 -7.89905019
v 129.57891704 -40.13081536 -7.89905019
v 129.22688992 -41.26111930 -7.89905019
v 125.02575432 -21.28262695 -7.89905019
v 118.36595556 -21.28262695 -9.41421215
v 118.36595556 -38.38817511 -16.65992594
v 118.68046327 -21.28262695 -16.64786000
v 118.85702606 -21.28262695 -16.65733997
v 119.33706234 -21.28262695 -16.68233384
v 120.61605173 -21.28262695 -16.70301966
v 128.69719774 -36.29113536 -16.60131832
v 128.05715190 -26.05548813 -16.66940782
v 128.22930177 -21.28262695 -16.65130796
v 128.05604962 -21.28262695 -16.66940782
v 129.28648158 -23.49500348 -15.96095210
v 129.38138427 -21.28262695 -15.62482410
v 129.63740260 -38.85162001 -7.89905019
v 129.63740260 -21.28262695 -14.71555453
v 129.63740260 -21.28262695 -7.89905019
v 118.36595556 -21.28262695 -16.02300768
v 118.43989208 -21.28262695 -16.17210887
v 128.69719774 -29.89516623 -16.60131832
v 128.69609546 -21.28262695 -16.60131832
v 129.28537549 -21.28262695 -15.96095210
f 1 2 6
f 1 6 3
f 1 3 9
f 1 9 16
f 1 16 26
f 1 26 39
f 1 39 51
f 1 51 65
f 1 65 80
f 1 80 66
f 1 66 52
f 1 52 41
f 1 41 40
f 1 40 28
f 1 28 27
f 1 27 18
f 1 18 17
f 1 17 10
f 1 10 4
f 1 4 5
f 1 5 2
f 2 5 7
f 2 7 6
f 3 6 7
f 3 7 8
f 3 8 9
f 4 10 5
f 5 10 11
f 5 11 12
f 5 12 13
f 5 13 8
f 5 8 7
f 8 13 14
f 8 14 24
f 8 24 36
f 8 36 48
f 8 48 63
f 8 63 62
f 8 62 61
f 8 61 77
f 8 77 79
f 8 79 64
f 8 64 50
f 8 50 38
f 8 38 37
f 8 37 25
f 8 25 15
f 8 15 16
f 8 16 9
f 10 17 11
f 11 17 18
f 11 18 19
f 11 19 12
f 12 20 13
f 12 19 21
f 12 21 20
f 13 20 22
f 13 22 14
f 14 22 23
f 14 23 24
f 15 25 16
f 16 25 26
f 18 27 19
f 19 28 29
f 19 29 30
f 19 30 21
f 19 27 28
f 20 31 22
f 20 21 32
f 20 32 33
f 20 33 31
f 21 30 34
f 21 34 32
f 22 31 35
f 22 35 23
f 23 35 24
f 24 35 36
f 25 37 26
f 26 38 39
f 26 37 38
f 28 40 29
f 29 40 41
f 29 41 42
f 29 42 30
f 30 42 34
f 31 33 43
f 31 43 35
f 32 34 44
f 32 44 33
f 33 44 45
f 33 45 46
f 33 46 43
f 34 42 47
f 34 47 44
f 35 48 36
f 35 43 49
f 35 49 63
f 35 63 48
f 38 50 51
f 38 51 39
f 41 52 42
f 42 53 54
f 42 54 47
f 42 52 55
f 42 55 56
f 42 56 57
f 42 57 53
f 43 46 49
f 44 47 58
f 44 58 45
f 45 58 59
f 45 59 60
f 45 60 46
f 46 60 61
f 46 61 62
f 46 62 63
f 46 63 49
f 47 54 58
f 50 64 51
f 51 64 65
f 52 66 67
f 52 67 68
f 52 68 69
f 52 69 70
f 52 70 55
f 53 71 58
f 53 58 54
f 53 57 72
f 53 72 73
f 53 73 71
f 55 70 56
f 56 70 69
f 56 69 68
f 56 68 67
f 56 67 81
f 56 81 80
f 56 80 65
f 56 65 64
f 56 64 79
f 56 79 78
f 56 78 76
f 56 76 84
f 56 84 83
f 56 83 73
f 56 73 74
f 56 74 57
f 57 74 72
f 58 71 59
f 59 71 82
f 59 82 75
f 59 75 76
f 59 76 60
f 60 77 61
f 60 76 78
f 60 78 79
f 60 79 77
f 66 80 81
f 66 81 67
f 71 73 82
f 72 74 73
f 73 83 82
f 75 82 83
f 75 83 84
f 75 84 76

