# https://github.com/mikedh/trimesh
v 51.50730271 -42.70107868 17.28283309
v 61.74628933 -42.70383247 17.28283309
v 56.62679650 -42.70383247 18.56286291
v 52.78665171 -42.70383247 19.84127746
v 51.50730271 -42.70107868 19.84127746
v 51.50730271 -42.37612027 16.05449018
v 72.93325218 -42.70383247 17.28283309
v 63.02354106 -42.70383247 19.84127746
v 51.50730271 -42.65976805 21.12130633
v 51.50730271 -41.75374514 15.41407049
v 72.93325218 -42.21639676 15.88893299
v 72.93325218 -42.37612027 16.05449018
v 72.93325218 -42.70383247 18.56286291
v 72.93325218 -42.70107868 19.84127746
v 72.93325218 -42.67078320 20.79100245
v 72.93325218 -42.65976805 21.12130633
v 72.93325218 -42.41742709 21.82875520
v 51.50730271 -42.33205966 22.07345423
v 72.93325218 -41.58851405 15.39226522
v 72.93325218 -41.75374514 15.41407049
v 51.50730271 -41.11484728 15.33008187
v 72.93325218 -42.33205966 22.07426283
v 64.30289006 -42.33205966 22.07426283
v 51.50730271 -41.40951021 22.48209518
v 72.93325218 -41.11484728 15.33008187
v 51.50730271 -40.12896072 15.29696967
v 70.70173143 -40.12896072 15.29616298
v 72.93325218 -40.85873738 15.32119881
v 72.93325218 -41.40951021 22.48290282
v 66.86368512 -41.40951021 22.48290282
v 51.50730271 -40.12896072 22.57819838
v 51.50730271 -39.37715374 15.33008187
v 72.93325218 -40.12896072 15.29616298
v 72.93325218 -40.45942670 22.55397019
v 72.93325218 -40.12896072 22.57819838
v 51.50730271 -19.75581638 23.54649808
v 72.93325218 -39.37715374 15.33008187
v 51.50730271 -17.09557530 17.28364072
v 72.93325218 -19.75581638 23.54649808
v 51.50730271 -19.72827660 23.54649808
v 70.70173143 -17.09557530 17.29010183
v 72.93325218 -17.09557530 17.29090946
v 51.50730271 -15.98851825 17.63736516
v 70.70173143 -15.98576447 17.64059571
v 72.93325218 -14.57302743 23.54649808
v 51.64152984 -14.57302743 23.54649808
v 51.50730271 -14.57302743 23.54569044
v 72.93325218 -15.98576447 17.64140335
v 51.50730271 -15.34962040 18.10738182
v 52.78665171 -15.34686470 18.10738182
v 65.58433635 -15.34411092 18.10576750
v 70.70173143 -15.34411092 18.10576750
v 72.93325218 -15.82053147 17.76092613
v 72.93325218 -14.57302743 21.12130633
v 51.50730271 -14.57302743 21.12049870
v 51.50730271 -14.92827751 18.74699292
v 54.06809848 -14.92552372 18.74699292
v 59.18549403 -14.92552372 18.74618528
v 68.14303413 -14.92552372 18.74537764
v 72.93325218 -15.23671128 18.27051515
v 72.93325218 -15.34686470 18.10576750
v 72.93325218 -14.92552372 18.74537764
v 72.93325218 -14.61158237 20.17158135
v 51.50730271 -14.62535130 19.84127746
v 72.93325218 -14.62535130 19.84127746
f 1 2 3
f 1 3 4
f 1 4 5
f 1 5 9
f 1 9 18
f 1 18 24
f 1 24 31
f 1 31 36
f 1 36 40
f 1 40 47
f 1 47 55
f 1 55 64
f 1 64 56
f 1 56 49
f 1 49 43
f 1 43 38
f 1 38 32
f 1 32 26
f 1 26 21
f 1 21 10
f 1 10 6
f 1 6 2
f 2 6 12
f 2 12 7
f 2 7 13
f 2 13 8
f 2 8 4
f 2 4 3
f 4 8 16
f 4 16 9
f 4 9 5
f 6 10 11
f 6 11 12
f 7 12 11
f 7 11 20
f 7 20 19
f 7 19 25
f 7 25 28
f 7 28 33
f 7 33 37
f 7 37 42
f 7 42 48
f 7 48 53
f 7 53 61
f 7 61 60
f 7 60 62
f 7 62 65
f 7 65 63
f 7 63 54
f 7 54 45
f 7 45 39
f 7 39 35
f 7 35 34
f 7 34 29
f 7 29 22
f 7 22 17
f 7 17 16
f 7 16 15
f 7 15 14
f 7 14 13
f 8 13 14
f 8 14 15
f 8 15 16
f 9 16 17
f 9 17 18
f 10 19 20
f 10 20 11
f 10 21 19
f 17 22 23
f 17 23 18
f 18 23 24
f 19 21 25
f 21 26 27
f 21 27 28
f 21 28 25
f 22 29 30
f 22 30 23
f 23 30 24
f 24 30 31
f 26 32 27
f 27 32 37
f 27 37 33
f 27 33 28
f 29 34 30
f 30 34 31
f 31 34 35
f 31 35 39
f 31 39 36
f 32 38 37
f 36 39 45
f 36 45 46
f 36 46 40
f 37 38 41
f 37 41 42
f 38 43 44
f 38 44 41
f 40 46 47
f 41 44 48
f 41 48 42
f 43 49 50
f 43 50 51
f 43 51 52
f 43 52 44
f 44 52 53
f 44 53 48
f 45 54 55
f 45 55 47
f 45 47 46
f 49 56 50
f 50 56 57
f 50 57 51
f 51 57 58
f 51 58 59
f 51 59 62
f 51 62 52
f 52 60 61
f 52 61 53
f 52 62 60
f 54 63 55
f 55 63 64
f 56 64 57
f 57 64 58
f 58 64 59
f 59 64 65
f 59 65 62
f 63 65 64

