# https://github.com/mikedh/trimesh
v 32.95170890 -38.84781622 48.70387588
v 32.95170890 -40.12857930 48.69607602
v 33.58949876 -40.12857930 48.70387588
v 35.89597345 -5.57734360 48.70192687
v 32.95170890 -5.57734360 48.70192687
v 32.95170890 -40.90289716 48.66292949
v 33.58949876 -40.97404939 48.66877843
v 34.86911189 -41.09124175 48.66877843
v 35.89597345 -41.10798189 48.66877843
v 35.89597345 -40.31692771 48.69607602
v 35.89597345 -40.12857930 48.70192687
v 35.89597345 -4.95789104 48.67657829
v 32.95170890 -4.53515599 48.67267836
v 32.95170890 -41.56839081 48.19497436
v 33.58949876 -41.61442712 48.41920211
v 34.86911189 -41.73162330 48.57713680
v 35.89597345 -41.74836343 48.58493665
v 35.89597345 -4.80721269 48.66877843
v 32.95170890 0.05632949 48.36460883
v 32.95170890 -42.16272841 47.59053318
v 33.58949876 -42.27155261 47.77771542
v 34.86911189 -42.37200103 47.93760008
v 35.89597345 -41.87393158 48.45819948
v 35.89597345 -4.16683305 48.34706011
v 33.58949876 0.05632949 48.01169299
v 33.20734395 0.05632949 48.22422096
v 32.97505317 0.05632949 48.35290905
v 32.95170890 0.05632949 31.70737035
v 32.95170890 -42.26736472 46.71701793
v 33.58949876 -42.49338128 46.71701793
v 34.86911189 -42.69847364 46.71701793
v 35.89597345 -42.37618892 47.94344902
v 35.89597345 -3.43018526 47.69582361
v 34.28146996 0.05632949 47.42869951
v 32.98513958 0.05632949 31.71711922
v 35.89597345 -3.37158908 28.78850301
v 34.88496334 -3.37158908 28.78460308
v 34.86911189 -3.37158908 28.78460308
v 33.97338327 -3.51389546 28.78460308
v 33.50678405 -4.29658337 28.78460308
v 33.29610974 -5.57734360 28.78460308
v 32.95170890 -4.40540567 30.52773459
v 32.95170890 -42.26736472 32.64133019
v 33.58949876 -42.49756918 36.48050857
v 34.86911189 -42.69847364 32.64133019
v 35.89597345 -42.70265772 46.71701793
v 35.89597345 -3.28787889 46.71701793
v 34.70310845 0.05632949 45.43794164
v 34.59215025 0.05632949 46.20421744
v 34.51779416 0.05632949 46.71701793
v 33.26786625 0.05632949 31.80291096
v 35.89597345 -3.56830756 28.78460308
v 33.90767187 0.05632949 32.34885847
v 34.20019699 0.05632949 32.73297135
v 34.39559769 0.05632949 32.99034610
v 34.63249973 0.05632949 33.92040601
v 34.70368438 0.05632949 35.20143227
v 35.89597345 -3.21672666 32.94745023
v 33.29610974 -38.84781622 28.78460308
v 32.95170890 -38.84781622 30.66617155
v 32.95170890 -42.20876854 32.04858736
v 33.58949876 -42.49756918 32.64133019
v 35.89597345 -42.68172970 32.64133019
v 35.89597345 -42.69847364 41.34528747
v 35.89597345 -42.58546154 28.78460308
v 35.89597345 -42.65661759 31.36030393
v 35.89597345 -3.16650054 37.75958487
v 34.70339642 0.05632949 44.92514114
v 34.70368438 0.05632949 44.15691633
v 35.89597345 -3.16650054 35.20143227
v 35.89597345 -3.17905659 34.23822536
v 35.89597345 -3.18742666 33.92040601
v 33.29697364 -38.86456016 28.78460308
v 32.95170890 -40.31692771 30.82215580
v 32.95170890 -39.52586592 30.69541815
v 32.95170890 -42.15854051 31.78731268
v 34.75239057 -42.29247682 28.78460308
v 33.37651692 -40.12857930 28.78460308
v 32.95170890 -41.42189845 31.20236923
v 32.95170890 -41.82788764 31.51433917
v 33.38228194 -40.14532325 28.78460308
v 33.91314893 -41.52653476 28.78460308
v 34.01488270 -41.68976725 28.78460308
v 34.58638713 -42.21295262 28.78460308
f 1 2 3
f 1 3 4
f 1 4 5
f 1 5 13
f 1 13 19
f 1 19 28
f 1 28 42
f 1 42 60
f 1 60 75
f 1 75 74
f 1 74 79
f 1 79 80
f 1 80 76
f 1 76 61
f 1 61 43
f 1 43 29
f 1 29 20
f 1 20 14
f 1 14 6
f 1 6 2
f 2 6 7
f 2 7 3
f 3 7 8
f 3 8 9
f 3 9 10
f 3 10 11
f 3 11 4
f 4 12 13
f 4 13 5
f 4 11 10
f 4 10 9
f 4 9 17
f 4 17 23
f 4 23 32
f 4 32 46
f 4 46 64
f 4 64 63
f 4 63 66
f 4 66 65
f 4 65 52
f 4 52 36
f 4 36 58
f 4 58 72
f 4 72 71
f 4 71 70
f 4 70 67
f 4 67 47
f 4 47 33
f 4 33 24
f 4 24 18
f 4 18 12
f 6 14 15
f 6 15 16
f 6 16 7
f 7 16 8
f 8 16 17
f 8 17 9
f 12 18 13
f 13 18 19
f 14 20 21
f 14 21 15
f 15 21 16
f 16 21 22
f 16 22 17
f 17 22 23
f 18 24 25
f 18 25 26
f 18 26 27
f 18 27 19
f 19 27 26
f 19 26 25
f 19 25 34
f 19 34 50
f 19 50 49
f 19 49 48
f 19 48 68
f 19 68 69
f 19 69 57
f 19 57 56
f 19 56 55
f 19 55 54
f 19 54 53
f 19 53 51
f 19 51 35
f 19 35 28
f 20 29 30
f 20 30 21
f 21 30 31
f 21 31 22
f 22 31 32
f 22 32 23
f 24 33 34
f 24 34 25
f 28 35 36
f 28 36 37
f 28 37 38
f 28 38 39
f 28 39 40
f 28 40 41
f 28 41 42
f 29 43 62
f 29 62 44
f 29 44 30
f 30 44 31
f 31 45 46
f 31 46 32
f 31 44 62
f 31 62 45
f 33 47 48
f 33 48 49
f 33 49 50
f 33 50 34
f 35 51 36
f 36 52 37
f 36 51 53
f 36 53 54
f 36 54 55
f 36 55 56
f 36 56 57
f 36 57 58
f 37 52 65
f 37 65 77
f 37 77 84
f 37 84 83
f 37 83 82
f 37 82 81
f 37 81 78
f 37 78 73
f 37 73 59
f 37 59 41
f 37 41 40
f 37 40 39
f 37 39 38
f 41 59 42
f 42 59 60
f 43 61 62
f 45 63 64
f 45 64 46
f 45 62 65
f 45 65 66
f 45 66 63
f 47 67 48
f 48 67 68
f 57 69 67
f 57 67 70
f 57 70 71
f 57 71 72
f 57 72 58
f 59 73 74
f 59 74 75
f 59 75 60
f 61 76 77
f 61 77 62
f 62 77 65
f 67 69 68
f 73 78 74
f 74 78 79
f 76 80 78
f 76 78 81
f 76 81 82
f 76 82 83
f 76 83 84
f 76 84 77
f 78 80 79

