# https://github.com/mikedh/trimesh
v 118.36485328 -21.28053300 -9.41401763
v 118.36485328 -40.13081918 -9.42141128
v 118.36485328 -21.28053300 -16.02287990
v 114.26907103 -21.28053300 -8.31733222
v 114.26907103 -21.28472662 -8.31158244
v 114.25572927 -40.13711246 -8.31158244
v 118.36485328 -41.10174670 -9.49452300
v 114.13565727 -41.41420624 -8.31158244
v 118.36485328 -38.38817892 -16.65953309
v 87.34185344 -21.28053300 -16.70389309
v 113.93553854 -21.28053300 -8.31158244
v 118.36485328 -41.41001453 -9.51834689
v 113.79767752 -42.24253944 -8.31158244
v 118.36485328 -40.13081918 -16.70307115
v 87.34185344 -37.57243229 -16.70389309
v 79.66615117 -21.28053300 -16.70389309
v 78.45653853 -21.28053300 -8.31158244
v 118.36485328 -42.11042629 -9.82722593
v 112.93494105 -42.49837851 -8.31158244
v 118.36485328 -42.33271263 -9.92580447
v 118.36485328 -40.36778603 -16.69567941
v 72.93323591 -40.13081918 -16.70307115
v 79.66615117 -37.57243229 -16.70389309
v 78.96350816 -21.28053300 -16.66939065
v 72.93323591 -21.28053300 -9.41401763
v 72.93323591 -40.13081918 -9.42141128
v 78.50100915 -40.13081918 -8.31158244
v 111.65417428 -42.56338620 -8.31158244
v 118.36485328 -42.65984886 -10.87708646
v 118.36485328 -41.11642721 -16.66939065
v 72.93323591 -40.86058814 -16.67842819
v 72.93323591 -39.93579609 -16.69485747
v 72.93323591 -39.37588472 -16.66939065
v 72.93323591 -21.28053300 -14.77832811
v 72.93323591 -40.46005317 -9.44605615
v 78.65221192 -41.41001453 -8.31158244
v 110.37340752 -42.57177343 -8.31158244
v 118.36485328 -42.70178882 -12.15696264
v 109.09708801 -42.57806671 -8.31158244
v 112.93494105 -42.67243161 -10.87708646
v 118.36485328 -41.27160810 -16.64885358
v 95.02200297 -41.11642721 -16.66939065
v 72.93323591 -41.11433326 -16.66939065
v 72.93323591 -41.41001453 -9.51752495
v 78.91459029 -42.14188125 -8.31158244
v 118.36485328 -42.70178882 -14.71589494
v 111.65417428 -42.67452937 -10.87708646
v 72.93323591 -42.70178882 -12.15696264
v 83.50400230 -42.57806671 -8.31158244
v 118.36485328 -41.75602679 -16.58313455
v 91.18415183 -41.75602679 -16.58313455
v 72.93323591 -41.58826316 -16.60531551
v 72.93323591 -42.33271263 -9.92580447
v 79.66615117 -42.41029926 -8.31158244
v 118.36485328 -42.37675035 -15.94319647
v 72.93323591 -42.70178882 -14.71589494
v 80.94247068 -42.67452937 -10.87708646
v 72.93323591 -42.65984886 -10.87708646
v 80.94247068 -42.55499897 -8.31158244
v 118.36485328 -41.90701216 -16.42951554
v 80.94247068 -42.37675035 -15.94319647
v 72.93323591 -42.37675035 -15.94237452
v 72.93323591 -41.75392903 -16.58231261
v 82.22323745 -41.75392903 -16.58313455
f 1 2 7
f 1 7 12
f 1 12 18
f 1 18 20
f 1 20 29
f 1 29 38
f 1 38 46
f 1 46 55
f 1 55 60
f 1 60 50
f 1 50 41
f 1 41 30
f 1 30 21
f 1 21 14
f 1 14 9
f 1 9 3
f 1 3 10
f 1 10 16
f 1 16 24
f 1 24 34
f 1 34 25
f 1 25 17
f 1 17 11
f 1 11 4
f 1 4 5
f 1 5 6
f 1 6 2
f 2 6 8
f 2 8 7
f 3 9 10
f 4 11 5
f 5 11 17
f 5 17 27
f 5 27 36
f 5 36 45
f 5 45 54
f 5 54 59
f 5 59 49
f 5 49 39
f 5 39 37
f 5 37 28
f 5 28 19
f 5 19 13
f 5 13 8
f 5 8 6
f 7 8 12
f 8 13 12
f 9 14 10
f 10 15 23
f 10 23 16
f 10 14 15
f 12 13 18
f 13 19 20
f 13 20 18
f 14 21 22
f 14 22 23
f 14 23 15
f 16 23 22
f 16 22 24
f 17 25 26
f 17 26 27
f 19 28 29
f 19 29 20
f 21 30 31
f 21 31 22
f 22 31 43
f 22 43 52
f 22 52 63
f 22 63 62
f 22 62 56
f 22 56 48
f 22 48 58
f 22 58 53
f 22 53 44
f 22 44 35
f 22 35 26
f 22 26 25
f 22 25 34
f 22 34 33
f 22 33 32
f 22 32 24
f 24 32 33
f 24 33 34
f 26 35 36
f 26 36 27
f 28 37 29
f 29 37 39
f 29 39 40
f 29 40 38
f 30 41 42
f 30 42 31
f 31 42 43
f 35 44 36
f 36 44 45
f 38 40 47
f 38 47 57
f 38 57 48
f 38 48 56
f 38 56 46
f 39 47 40
f 39 49 57
f 39 57 47
f 41 50 51
f 41 51 43
f 41 43 42
f 43 51 52
f 44 53 45
f 45 53 54
f 46 56 61
f 46 61 55
f 48 57 58
f 49 59 58
f 49 58 57
f 50 60 51
f 51 61 62
f 51 62 63
f 51 63 64
f 51 64 52
f 51 60 61
f 52 64 63
f 53 58 59
f 53 59 54
f 55 61 60
f 56 62 61

