# https://github.com/mikedh/trimesh
v 29.75026460 2.10981613 48.70390067
v 29.75026460 -0.45552034 48.70390067
v 32.95170890 -5.57030752 48.70282318
v 31.02947916 53.28946326 48.70282318
v 26.61151092 53.28946326 48.70282318
v 26.61151092 12.34733337 48.70282318
v 29.75026460 -17.08652060 48.70282318
v 32.95170890 -17.08652060 48.70282318
v 32.95170890 53.28946326 48.36566343
v 32.56688993 53.28946326 48.58217905
v 31.92697371 53.28946326 48.67050813
v 31.86118030 54.56815910 48.66189015
v 31.02947916 54.56815910 48.68558913
v 26.61151092 53.98837615 48.69420711
v 26.61151092 11.23542287 48.67374059
v 27.81003797 -16.71323741 48.65219468
v 27.80010602 -15.80782476 48.65973518
v 28.47043596 -15.80782476 48.69205214
v 28.41891877 -17.11829215 48.67266120
v 29.64537274 -18.47640921 48.67374059
v 31.02947916 -18.37316124 48.69636017
v 32.95170890 -17.72984283 48.69959263
v 32.95170890 53.77393922 48.34627440
v 32.50109653 54.56815910 48.54340099
v 31.75318376 55.22735947 48.64788664
v 31.02947916 55.23530045 48.65327407
v 26.61151092 54.93349750 48.66835316
v 26.61151092 54.56815910 48.68558913
v 26.61151092 -25.42584844 44.66660546
v 27.95837636 -17.56305558 48.60480054
v 28.81180649 -18.12695277 48.65865960
v 29.14883275 -18.97677094 48.63172816
v 30.00101948 -19.03236542 48.65434965
v 32.95170890 -18.37316124 48.69528269
v 31.02947916 -19.04825119 48.66296764
v 32.95170890 -19.04825119 48.66296764
v 32.95170890 54.56815910 48.29995584
v 32.95170890 54.89378498 48.16530820
v 32.95170890 55.37826094 47.83784202
v 32.23172496 55.41797346 48.07266918
v 31.02947916 55.47356794 47.99726612
v 26.61151092 55.23530045 48.65327407
v 26.61151092 -25.42584844 38.34244248
v 27.38177056 -25.42584844 44.35314374
v 28.34381512 -25.42584844 43.95243041
v 28.56353459 -25.42584844 43.84255733
v 30.93575501 -25.42584844 42.43790621
v 32.41854773 -25.42584844 41.27562179
v 32.95170890 -25.42584844 40.66162531
v 32.95170890 55.49739850 47.35418609
v 32.95170890 55.64035900 46.71756907
v 32.30930779 55.69595347 46.71756907
v 26.61151092 55.60064648 47.29709458
v 26.61151092 55.47356794 47.99726612
v 28.44808909 -25.42584844 37.69936197
v 26.61151092 53.28946326 38.34244248
v 32.95170890 -25.42584844 37.69936197
v 32.95170890 55.68007152 46.07556558
v 26.61151092 55.69595347 46.71756907
v 32.36889564 55.69595347 37.69936197
v 28.44808909 53.28946326 37.69936197
v 26.61151092 53.82159272 38.34890549
v 28.47726322 54.44108057 37.69936197
v 32.95170890 55.68007152 37.69936197
v 26.61151092 55.69595347 40.31908003
v 32.30930779 55.69595347 37.69936197
v 26.61151092 54.48873407 38.37044901
v 28.48160749 54.56021813 37.69936197
v 31.02947916 55.61652843 37.69936197
v 26.61151092 55.56887494 39.62321748
v 26.61151092 54.77465505 38.38014401
v 26.61151092 55.13205247 38.40707353
v 28.98249176 55.00498157 37.69936197
v 29.66833750 55.37031996 37.69936197
v 26.61151092 55.45768598 39.04692253
v 26.61151092 55.28295395 38.69683676
f 1 2 8
f 1 8 3
f 1 3 4
f 1 4 5
f 1 5 6
f 1 6 2
f 2 6 7
f 2 7 8
f 3 8 22
f 3 22 34
f 3 34 36
f 3 36 49
f 3 49 57
f 3 57 64
f 3 64 58
f 3 58 51
f 3 51 50
f 3 50 39
f 3 39 38
f 3 38 37
f 3 37 23
f 3 23 9
f 3 9 10
f 3 10 11
f 3 11 4
f 4 11 12
f 4 12 13
f 4 13 14
f 4 14 5
f 5 14 28
f 5 28 27
f 5 27 42
f 5 42 54
f 5 54 53
f 5 53 59
f 5 59 65
f 5 65 70
f 5 70 75
f 5 75 76
f 5 76 72
f 5 72 71
f 5 71 67
f 5 67 62
f 5 62 56
f 5 56 43
f 5 43 29
f 5 29 15
f 5 15 6
f 6 15 16
f 6 16 17
f 6 17 18
f 6 18 7
f 7 18 19
f 7 19 20
f 7 20 21
f 7 21 22
f 7 22 8
f 9 23 10
f 10 23 24
f 10 24 12
f 10 12 11
f 12 24 25
f 12 25 13
f 13 25 26
f 13 26 27
f 13 27 28
f 13 28 14
f 15 29 16
f 16 29 30
f 16 30 31
f 16 31 19
f 16 19 18
f 16 18 17
f 19 31 20
f 20 32 33
f 20 33 21
f 20 31 32
f 21 34 22
f 21 33 35
f 21 35 36
f 21 36 34
f 23 37 24
f 24 37 38
f 24 38 25
f 25 39 40
f 25 40 41
f 25 41 26
f 25 38 39
f 26 42 27
f 26 41 54
f 26 54 42
f 29 43 55
f 29 55 57
f 29 57 49
f 29 49 48
f 29 48 47
f 29 47 46
f 29 46 45
f 29 45 44
f 29 44 36
f 29 36 35
f 29 35 33
f 29 33 32
f 29 32 30
f 30 32 31
f 36 44 45
f 36 45 46
f 36 46 47
f 36 47 48
f 36 48 49
f 39 50 40
f 40 50 51
f 40 51 52
f 40 52 41
f 41 53 54
f 41 52 53
f 43 56 61
f 43 61 55
f 51 58 52
f 52 59 53
f 52 58 60
f 52 60 66
f 52 66 65
f 52 65 59
f 55 61 63
f 55 63 68
f 55 68 73
f 55 73 74
f 55 74 69
f 55 69 66
f 55 66 60
f 55 60 64
f 55 64 57
f 56 62 63
f 56 63 61
f 58 64 60
f 62 67 68
f 62 68 63
f 65 66 69
f 65 69 70
f 67 71 68
f 68 71 72
f 68 72 73
f 69 74 75
f 69 75 70
f 72 76 74
f 72 74 73
f 74 76 75

