# https://github.com/mikedh/trimesh
v 23.38499600 -1.73217502 1.92176893
v 23.69496111 -0.45667030 2.95509077
v 23.38499600 0.82842453 1.92176893
v 23.50017831 -36.28587952 0.64151611
v 23.38593427 -36.28587952 1.92176893
v 23.69496111 -36.28587952 2.95368789
v 23.69496111 -23.49247473 2.95438945
v 24.63140144 -8.12887837 3.49875976
v 23.69496111 9.77613685 2.95509077
v 23.38593427 45.60534749 1.92176893
v 23.50017831 53.28714472 0.64151611
v 23.81013961 -36.28587952 -0.17574115
v 23.87007453 -37.32162784 -0.11681457
v 23.79141232 -37.67646977 0.69974125
v 23.68091374 -37.57097530 1.92176893
v 23.83917261 -37.57097530 2.76357905
v 28.47736710 -38.94238439 5.69167527
v 24.63140144 -36.28587952 3.49735688
v 24.63140144 -31.16468137 3.49805844
v 28.46425419 -37.57097530 5.69167527
v 24.63140144 53.28714472 3.49875976
v 23.69589556 52.01164142 2.95509077
v 23.38686873 53.28714472 1.92176893
v 23.53669842 54.57224050 0.64151611
v 23.82325252 54.57224050 -0.16241250
v 23.81013961 53.28714472 -0.17574115
v 24.63140144 -36.28587952 -0.46616561
v 24.51621913 -37.67646977 -0.29078854
v 24.86644599 -38.39573849 -0.17433827
v 24.01334777 -38.17516087 0.31250858
v 23.98619130 -38.21352319 1.16554291
v 23.98338412 -38.21352319 1.92176893
v 23.98619130 -38.21352319 2.56926134
v 29.34825814 -40.07403471 5.69167527
v 28.46425419 53.28714472 5.69167527
v 28.47362164 54.42838752 5.69167527
v 28.47830156 54.55305934 5.69167527
v 23.71649557 54.57224050 2.93264258
v 23.69683002 53.28714472 2.95509077
v 23.42994529 54.57224050 1.92176893
v 23.78204868 55.40659236 0.64151611
v 23.88786736 55.31069037 -0.09927682
v 24.63140144 54.57224050 -0.43249322
v 24.63140144 53.28714472 -0.46546430
v 24.63140144 32.81194080 -0.46616561
v 32.95074626 -4.39826762 -1.47493483
v 32.95074626 -38.84647859 -1.39355984
v 25.91058154 -37.57097530 -0.56577992
v 32.95074626 -40.40969166 -1.22379475
v 27.49129375 -39.64247195 -0.15118853
v 32.95074626 -41.41667015 -0.83024866
v 32.95074626 -41.82905175 -0.49492758
v 32.95074626 -42.15512003 -0.20871222
v 32.77282183 -42.12635020 -0.11611302
v 30.00095538 -40.94674889 0.64151611
v 27.31430378 -39.71919278 0.64151611
v 24.51621913 -38.44368948 0.69974125
v 25.91058154 -39.09582605 1.92176893
v 24.63140144 -38.51082164 1.92176893
v 31.98621118 -41.85782158 5.69167527
v 31.02917084 -41.34953800 5.69167527
v 30.97579236 -41.32076817 5.69167527
v 30.19760709 -40.87961674 5.69167527
v 28.98304565 54.99421077 5.69167527
v 23.82137979 55.36823004 2.79304257
v 23.73241567 55.44495468 1.92176893
v 24.63140144 55.64635114 0.64151611
v 24.63140144 55.39700369 -0.19889089
v 25.91058154 54.57224050 -0.53771951
v 25.91058154 53.28714472 -0.57840701
v 31.02917084 53.28714472 -0.57840701
v 32.30928539 53.28714472 -0.48931559
v 32.95074626 54.57224050 -0.27184790
v 32.95074626 -39.61370212 -1.34305124
v 32.95074626 -42.21266351 0.05014452
v 32.68292325 -42.16470870 0.64151611
v 29.35293805 -40.65903911 1.92176893
v 32.04052411 -41.87700274 1.92176893
v 32.68105053 -42.16470870 1.92176893
v 32.70165435 -42.17430119 5.69167527
v 29.66758308 55.36823004 5.69167527
v 31.02917084 55.61757750 5.69167527
v 24.63140144 55.44495468 2.95088189
v 24.63140144 55.69430214 1.92176893
v 25.91058154 55.68470965 0.64151611
v 25.91058154 55.44495468 -0.24799660
v 31.02917084 54.57224050 -0.53771951
v 32.30928539 54.57224050 -0.45564320
v 32.95074626 55.34905270 -0.13575521
v 32.95074626 -42.26061450 0.64151611
v 32.95074626 -42.27020318 1.92176893
v 32.95074626 -42.26061450 5.69167527
v 32.30928539 55.70389081 5.69167527
v 25.91058154 55.70389081 1.92176893
v 31.02917084 55.68470965 0.64151611
v 28.46987619 55.44495468 -0.24799660
v 31.02917084 55.44495468 -0.24729505
v 32.30928539 55.41618485 -0.21011510
v 32.30928539 55.65593982 0.64151611
v 32.95074626 55.55044534 0.65484476
v 32.95074626 55.68470965 5.69167527
v 32.30928539 55.70389081 1.92176893
v 32.95074626 55.66552849 1.92176893
v 32.95074626 55.68470965 3.20061887
f 1 2 9
f 1 9 3
f 1 3 11
f 1 11 4
f 1 4 5
f 1 5 6
f 1 6 7
f 1 7 2
f 2 7 19
f 2 19 8
f 2 8 21
f 2 21 9
f 3 9 10
f 3 10 11
f 4 12 13
f 4 13 14
f 4 14 5
f 4 11 26
f 4 26 12
f 5 14 15
f 5 15 16
f 5 16 6
f 6 16 17
f 6 17 18
f 6 18 19
f 6 19 7
f 8 19 20
f 8 20 35
f 8 35 21
f 9 21 22
f 9 22 10
f 10 22 23
f 10 23 11
f 11 23 24
f 11 24 25
f 11 25 26
f 12 27 13
f 12 26 45
f 12 45 27
f 13 27 28
f 13 28 29
f 13 29 30
f 13 30 14
f 14 30 15
f 15 30 31
f 15 31 32
f 15 32 33
f 15 33 16
f 16 33 17
f 17 33 34
f 17 34 63
f 17 63 62
f 17 62 61
f 17 61 60
f 17 60 80
f 17 80 92
f 17 92 101
f 17 101 93
f 17 93 82
f 17 82 81
f 17 81 64
f 17 64 37
f 17 37 36
f 17 36 35
f 17 35 20
f 17 20 18
f 18 20 19
f 21 35 36
f 21 36 37
f 21 37 38
f 21 38 39
f 21 39 22
f 22 39 23
f 23 39 38
f 23 38 40
f 23 40 24
f 24 40 41
f 24 41 42
f 24 42 25
f 25 43 44
f 25 44 26
f 25 42 43
f 26 44 45
f 27 46 47
f 27 47 48
f 27 48 28
f 27 45 46
f 28 48 49
f 28 49 29
f 29 50 30
f 29 49 51
f 29 51 52
f 29 52 53
f 29 53 50
f 30 50 54
f 30 54 55
f 30 55 56
f 30 56 57
f 30 57 31
f 31 58 59
f 31 59 32
f 31 57 55
f 31 55 58
f 32 59 33
f 33 59 58
f 33 58 60
f 33 60 61
f 33 61 62
f 33 62 63
f 33 63 34
f 37 64 65
f 37 65 38
f 38 65 40
f 40 65 66
f 40 66 41
f 41 66 67
f 41 67 42
f 42 67 68
f 42 68 43
f 43 69 70
f 43 70 44
f 43 68 69
f 44 70 46
f 44 46 45
f 46 70 71
f 46 71 72
f 46 72 73
f 46 73 89
f 46 89 100
f 46 100 103
f 46 103 104
f 46 104 101
f 46 101 92
f 46 92 91
f 46 91 90
f 46 90 75
f 46 75 53
f 46 53 52
f 46 52 51
f 46 51 49
f 46 49 74
f 46 74 47
f 47 74 48
f 48 74 49
f 50 53 54
f 53 75 54
f 54 75 76
f 54 76 55
f 55 76 58
f 55 57 56
f 58 76 77
f 58 77 60
f 60 77 78
f 60 78 76
f 60 76 79
f 60 79 80
f 64 81 65
f 65 81 82
f 65 82 83
f 65 83 84
f 65 84 66
f 66 84 67
f 67 84 85
f 67 85 86
f 67 86 68
f 68 86 69
f 69 87 71
f 69 71 70
f 69 86 96
f 69 96 87
f 71 87 88
f 71 88 72
f 72 88 73
f 73 88 89
f 75 90 76
f 76 90 91
f 76 91 79
f 76 78 77
f 79 91 80
f 80 91 92
f 82 93 84
f 82 84 83
f 84 93 94
f 84 94 85
f 85 95 96
f 85 96 86
f 85 94 102
f 85 102 95
f 87 96 97
f 87 97 98
f 87 98 88
f 88 98 89
f 89 98 99
f 89 99 100
f 93 101 104
f 93 104 102
f 93 102 94
f 95 99 97
f 95 97 96
f 95 102 99
f 97 99 98
f 99 102 103
f 99 103 100
f 102 104 103

