# https://github.com/mikedh/trimesh
v 114.24139271 -21.27324694 24.02160754
v 114.15724580 -21.27324694 34.35763801
v 114.27294684 -21.28022867 23.68842304
v 113.94337336 -21.27324694 23.68842304
v 114.15724580 -21.37333111 34.35763801
v 78.64714364 -21.27324694 34.35763801
v 114.25892236 -38.85559700 23.68842304
v 78.45781119 -21.27324694 23.68842304
v 114.13620716 -40.12876620 34.35763801
v 78.49988655 -38.84861336 23.68842304
v 78.50339172 -40.12876620 23.68842304
v 78.73129055 -40.12876620 34.35763801
v 114.25541719 -40.13574983 23.68842304
v 114.10815819 -40.56867427 34.35763801
v 78.65064881 -41.40892284 23.68842304
v 78.79790590 -41.40892284 34.35763801
v 114.05206025 -41.40892284 34.35763801
v 114.13620716 -41.41357606 23.68842304
v 78.91010368 -42.13977509 23.68842304
v 78.94516489 -42.13977509 34.35763801
v 78.89257212 -41.89072511 34.35763801
v 113.77157056 -42.23985735 34.35763801
v 113.79611055 -42.23985735 23.68842304
v 79.19059338 -42.23055092 34.35763801
v 79.66392069 -42.40977217 23.68842304
v 79.66392069 -42.40511514 34.35763801
v 107.43598955 -44.76525627 34.35763801
v 107.54468026 -44.80482386 33.91896237
v 108.49484006 -44.65353335 32.19768333
v 112.93711181 -42.50054418 23.68842304
v 108.49484006 -44.65353335 31.85614307
v 107.51663129 -44.81180749 30.07950746
v 80.94365969 -42.57735274 34.35763801
v 80.94365969 -42.56571589 23.68842304
v 80.94365969 -42.57735274 26.24109667
v 106.96266224 -44.86534235 34.35763801
v 106.53491355 -45.01663286 33.91896237
v 107.88126790 -44.79784403 32.63009215
v 107.35184265 -44.74430918 29.23453488
v 106.51387873 -44.83042798 28.80630394
v 106.06860038 -44.71404802 28.05011098
v 105.25517646 -44.79086040 27.93730890
v 111.66087988 -42.56106268 23.68842304
v 107.85321893 -44.79551361 31.40180074
v 106.53491355 -45.02128608 30.07950746
v 101.41596136 -45.03059632 32.63949226
v 101.41596136 -45.02361650 33.91896237
v 101.85773454 -45.01895947 34.35763801
v 83.50313578 -42.57735274 23.68842304
v 103.97543936 -44.81646452 27.88821891
v 102.69569846 -44.80482386 27.93313102
v 102.69569846 -45.01895947 28.80108171
v 101.41596136 -45.00266559 30.07950746
v 101.41596136 -45.02594311 31.36002216
v 106.52790321 -44.95146115 34.35763801
v 105.25517646 -45.02361650 34.35763801
v 105.25517646 -45.03757996 33.91896237
v 106.53491355 -45.03525335 32.63949226
v 106.53491355 -45.03292293 31.36002216
v 105.25517646 -45.00266559 28.80108171
v 103.97543936 -45.04921681 28.80108171
v 109.10140188 -42.57735274 23.68842304
v 105.25517646 -45.04223699 30.07950746
v 102.69569846 -45.04456359 33.91896237
v 103.13747163 -45.03990657 34.35763801
v 103.97543936 -45.03757996 34.35763801
v 103.97543936 -45.04456359 33.91896237
f 1 2 3
f 1 3 4
f 1 4 8
f 1 8 6
f 1 6 2
f 2 5 3
f 2 6 12
f 2 12 16
f 2 16 21
f 2 21 20
f 2 20 24
f 2 24 26
f 2 26 33
f 2 33 48
f 2 48 65
f 2 65 66
f 2 66 56
f 2 56 55
f 2 55 36
f 2 36 27
f 2 27 22
f 2 22 17
f 2 17 14
f 2 14 9
f 2 9 5
f 3 5 7
f 3 7 13
f 3 13 18
f 3 18 23
f 3 23 30
f 3 30 43
f 3 43 62
f 3 62 49
f 3 49 34
f 3 34 25
f 3 25 19
f 3 19 15
f 3 15 11
f 3 11 10
f 3 10 8
f 3 8 4
f 5 9 7
f 6 8 10
f 6 10 11
f 6 11 12
f 7 9 13
f 9 14 13
f 11 15 16
f 11 16 12
f 13 14 17
f 13 17 18
f 15 19 20
f 15 20 21
f 15 21 16
f 17 22 18
f 18 22 23
f 19 24 20
f 19 25 26
f 19 26 24
f 22 27 28
f 22 28 29
f 22 29 23
f 23 29 31
f 23 31 32
f 23 32 30
f 25 33 26
f 25 34 35
f 25 35 33
f 27 36 28
f 28 36 37
f 28 37 38
f 28 38 29
f 29 38 31
f 30 32 39
f 30 39 40
f 30 40 41
f 30 41 42
f 30 42 43
f 31 38 44
f 31 44 32
f 32 44 45
f 32 45 39
f 33 46 47
f 33 47 48
f 33 35 46
f 34 49 50
f 34 50 51
f 34 51 52
f 34 52 53
f 34 53 54
f 34 54 35
f 35 54 46
f 36 55 37
f 37 55 56
f 37 56 57
f 37 57 58
f 37 58 38
f 38 58 59
f 38 59 44
f 39 45 40
f 40 45 60
f 40 60 41
f 41 60 42
f 42 60 61
f 42 61 50
f 42 50 43
f 43 50 62
f 44 59 45
f 45 59 63
f 45 63 61
f 45 61 60
f 46 54 61
f 46 61 64
f 46 64 47
f 47 64 65
f 47 65 48
f 49 62 50
f 50 61 51
f 51 61 52
f 52 61 54
f 52 54 53
f 56 66 57
f 57 66 67
f 57 67 58
f 58 67 61
f 58 61 63
f 58 63 59
f 61 67 64
f 64 67 65
f 65 67 66

