v 62.911564 -9.000000 8.133458
v 62.923062 -9.031128 8.133458
v 62.923062 -9.000000 8.133458
v 63.323776 -9.000000 7.250087
v 63.323776 -15.000000 7.250087
v 62.911813 -15.000000 8.133372
v 64.373433 -15.000000 8.133372
v 65.036623 -13.178152 8.133372
v 65.465085 -12.000000 8.133372
v 65.465085 -11.998825 8.133372
v 64.373433 -9.000000 8.133372
v 63.961970 -9.000000 7.250087
v 63.961970 -15.000000 7.250087
v 65.053372 -12.000000 7.250087
f 1 2 3
f 1 3 11
f 1 11 12
f 1 12 4
f 1 4 5
f 1 5 6
f 1 6 2
f 2 6 7
f 2 7 8
f 2 8 9
f 2 9 10
f 2 10 3
f 3 10 11
f 4 12 14
f 4 14 13
f 4 13 5
f 5 13 7
f 5 7 6
f 7 13 8
f 8 13 14
f 8 14 9
f 9 14 10
f 10 14 12
f 10 12 11
