# https://github.com/mikedh/trimesh
v 37.91532953 -40.12897597 48.70387588
v 35.89616988 -40.12897597 48.70306538
v 36.14898439 -41.11550331 48.67062637
v 37.91532953 -41.11550331 48.67062637
v 37.91532953 -28.12687762 48.70306538
v 35.89616988 -28.61278005 48.70306538
v 35.89616988 -41.10998048 48.67062637
v 36.14898439 -41.75416851 48.58628685
v 37.91532953 -41.75416851 48.58628685
v 37.91532953 -23.90102041 48.67387027
v 37.84199372 -23.90102041 48.67143687
v 37.80265879 -23.90102041 48.66981587
v 35.89616988 -27.47348996 48.67224927
v 35.89616988 -41.75048407 48.58466585
v 35.89616988 -41.87748252 48.45815752
v 36.14898439 -42.37626520 47.94644691
v 37.91532953 -42.14067522 48.18973186
v 37.91532953 -23.90102041 42.55686069
v 37.16281313 -23.90102041 48.58628685
v 35.89616988 -26.70598792 48.63656636
v 35.89616988 -27.24710342 48.66576147
v 35.89616988 -42.37626520 47.94482496
v 37.91532953 -42.37626520 47.94644691
v 35.89616988 -42.70203983 46.71704368
v 37.91532953 -42.57872582 47.18496258
v 36.02801415 -26.50169080 40.41919090
v 35.97760877 -26.47960329 40.41919090
v 35.90190249 -26.46487892 40.41919090
v 37.42867571 -23.90102041 42.89421591
v 37.91532953 -28.72873283 40.45244041
v 37.88469078 -28.69560347 40.41919090
v 37.82519256 -28.57412786 40.41919090
v 37.31501712 -27.58944273 40.41919090
v 37.29525049 -27.55263275 40.41919090
v 37.21183589 -27.43483776 40.41919090
v 36.60618564 -26.81089884 40.41919090
v 36.83804924 -23.90102041 48.41679922
v 36.14898439 -23.90102041 48.05430233
v 35.91514699 -23.90102041 47.86697324
v 35.89616988 -23.90102041 47.85156519
v 35.89616988 -42.70203983 45.18434428
v 37.91532953 -42.70203983 46.71704368
v 35.89616988 -26.48696643 40.41919090
v 35.89616988 -23.90102041 44.12280864
v 36.02247797 -23.90102041 43.99386691
v 36.66232363 -23.90102041 43.42944433
v 36.90703506 -23.90102041 43.25833380
v 37.91532953 -28.85020844 40.41919090
v 37.91532953 -42.70203983 44.15849060
v 35.89616988 -42.70019762 41.34610941
v 35.89616988 -42.69099798 40.41919090
v 37.91532953 -41.51121729 40.41919090
v 37.91532953 -42.70019762 43.36537967
v 35.91593651 -42.69099798 40.41919090
v 36.14898439 -42.68915577 40.41919090
v 37.91532953 -41.66029943 40.57408289
v 37.27489077 -42.36890397 40.41919090
v 37.91532953 -42.69099798 42.87880786
v 36.26659630 -42.66706825 40.41919090
v 37.91532953 -42.06889747 41.11255426
v 37.91532953 -42.40939457 41.59507167
v 37.91532953 -42.51798611 41.95026835
f 1 2 3
f 1 3 4
f 1 4 9
f 1 9 17
f 1 17 23
f 1 23 25
f 1 25 42
f 1 42 49
f 1 49 53
f 1 53 58
f 1 58 62
f 1 62 61
f 1 61 60
f 1 60 56
f 1 56 52
f 1 52 48
f 1 48 30
f 1 30 18
f 1 18 10
f 1 10 5
f 1 5 6
f 1 6 2
f 2 7 3
f 2 6 13
f 2 13 21
f 2 21 20
f 2 20 40
f 2 40 44
f 2 44 43
f 2 43 51
f 2 51 50
f 2 50 41
f 2 41 24
f 2 24 22
f 2 22 15
f 2 15 14
f 2 14 7
f 3 7 8
f 3 8 9
f 3 9 4
f 5 10 6
f 6 10 11
f 6 11 12
f 6 12 13
f 7 14 8
f 8 14 15
f 8 15 16
f 8 16 17
f 8 17 9
f 10 18 29
f 10 29 47
f 10 47 46
f 10 46 45
f 10 45 44
f 10 44 40
f 10 40 39
f 10 39 38
f 10 38 37
f 10 37 19
f 10 19 12
f 10 12 11
f 12 19 20
f 12 20 21
f 12 21 13
f 15 22 16
f 16 23 17
f 16 22 24
f 16 24 25
f 16 25 23
f 18 26 27
f 18 27 28
f 18 28 29
f 18 30 31
f 18 31 32
f 18 32 33
f 18 33 34
f 18 34 35
f 18 35 36
f 18 36 26
f 19 37 20
f 20 37 38
f 20 38 39
f 20 39 40
f 24 41 49
f 24 49 42
f 24 42 25
f 26 36 35
f 26 35 34
f 26 34 33
f 26 33 32
f 26 32 31
f 26 31 48
f 26 48 52
f 26 52 57
f 26 57 59
f 26 59 55
f 26 55 54
f 26 54 51
f 26 51 43
f 26 43 28
f 26 28 27
f 28 43 44
f 28 44 45
f 28 45 46
f 28 46 47
f 28 47 29
f 30 48 31
f 41 50 49
f 49 50 53
f 50 54 55
f 50 55 53
f 50 51 54
f 52 56 57
f 53 55 58
f 55 59 58
f 56 60 57
f 57 60 61
f 57 61 62
f 57 62 59
f 58 59 62

