# https://github.com/mikedh/trimesh
v 28.47064664 -28.61434225 16.70388296
v 32.95168072 -28.61434225 16.70280548
v 27.19180218 -27.33459004 16.69525926
v 27.19180218 -28.61434225 16.70280548
v 27.19180218 -36.29078065 16.70280548
v 28.47064664 -37.57053667 16.70280548
v 31.02946452 -38.85029270 16.70280548
v 32.95168072 -38.85029270 16.70280548
v 32.95168072 -27.99221129 16.68663556
v 32.95168072 -27.37216665 16.67046564
v 27.19180218 -26.63312559 16.66292133
v 27.19180218 -37.57053667 16.70172608
v 32.95168072 -40.13004491 16.69633675
v 32.95168072 -27.05066386 16.65106326
v 32.95168072 -26.73124739 16.63166088
v 27.19180218 -20.94208030 11.62895379
v 27.19180218 -38.33254250 16.66938815
v 29.75005558 -38.85029270 16.69633675
v 32.30943795 -40.13004491 16.68986992
v 32.95168072 -40.90666641 16.66399881
v 32.95168072 -20.94208030 8.55144361
v 31.09600168 -20.94208030 9.89886481
v 29.95304634 -20.94208030 10.68791458
v 28.65897596 -20.94208030 11.34761262
v 28.01899115 -20.94208030 11.57397911
v 27.19180218 -20.94208030 6.31795693
v 27.19180218 -39.06532461 16.09161339
v 28.18307417 -39.18432103 16.52063404
v 29.03620290 -39.51417672 16.64998577
v 32.30943795 -40.83150936 16.65753199
v 31.65084410 -40.77722695 16.64243956
v 32.95168072 -41.57055043 16.19725280
v 32.95168072 -20.94208030 5.69167527
v 28.46500938 -20.94208030 5.69167527
v 27.19180218 -37.57262299 6.31795693
v 27.19180218 -39.18640735 15.96980787
v 27.48106430 -39.64987514 15.66798493
v 31.14618774 -41.03610205 16.02047070
v 32.77068212 -42.13214002 15.53755476
v 32.95168072 -42.16345767 15.59145195
v 32.95168072 -42.26992856 5.69167527
v 28.46500938 -37.57262299 5.69167527
v 28.47797736 -38.94214792 5.69167527
v 27.19180218 -38.50373502 6.35999653
v 27.19180218 -39.67701635 14.71832203
v 30.12558906 -40.88996442 15.60869841
v 31.02946452 -41.42232648 14.71832203
v 32.04103902 -41.88161782 14.71832203
v 32.68102764 -42.17180676 14.71832203
v 32.95168072 -42.26784224 14.71832203
v 27.30626363 -39.72920863 14.71832203
v 32.95168072 -42.26992856 5.76066346
v 32.70189082 -42.18015585 5.69167527
v 29.34914683 -40.07367618 5.69167527
v 27.84870257 -39.42023138 6.42251695
v 27.19180218 -39.21772501 6.86986106
v 27.19180218 -39.67701635 8.32076432
v 28.47064664 -40.25948437 12.15929914
v 32.07543466 -41.89831980 5.69167527
v 32.68102764 -42.17180676 5.69167527
v 27.30626363 -39.72920863 8.32076432
v 30.19776347 -40.87952520 5.69167527
v 27.19180218 -39.29288205 7.00352513
v 27.19180218 -39.57471810 7.64705372
v 30.97589916 -41.32629100 5.69167527
v 31.98690917 -41.85656674 5.69167527
v 28.47064664 -40.25948437 8.32076432
v 27.48106430 -39.64987514 7.27516510
f 1 2 3
f 1 3 4
f 1 4 5
f 1 5 6
f 1 6 7
f 1 7 8
f 1 8 2
f 2 9 3
f 2 8 13
f 2 13 20
f 2 20 32
f 2 32 40
f 2 40 50
f 2 50 52
f 2 52 41
f 2 41 33
f 2 33 21
f 2 21 15
f 2 15 14
f 2 14 10
f 2 10 9
f 3 9 10
f 3 10 11
f 3 11 16
f 3 16 26
f 3 26 35
f 3 35 44
f 3 44 56
f 3 56 63
f 3 63 64
f 3 64 57
f 3 57 45
f 3 45 36
f 3 36 27
f 3 27 17
f 3 17 12
f 3 12 5
f 3 5 4
f 5 12 6
f 6 12 7
f 7 12 13
f 7 13 8
f 10 14 11
f 11 14 15
f 11 15 16
f 12 17 18
f 12 18 13
f 13 19 20
f 13 18 19
f 15 21 22
f 15 22 23
f 15 23 24
f 15 24 25
f 15 25 16
f 16 25 24
f 16 24 23
f 16 23 22
f 16 22 21
f 16 21 33
f 16 33 34
f 16 34 26
f 17 27 28
f 17 28 29
f 17 29 30
f 17 30 19
f 17 19 18
f 19 30 20
f 20 30 31
f 20 31 32
f 26 34 42
f 26 42 35
f 27 36 37
f 27 37 28
f 28 37 29
f 29 37 31
f 29 31 30
f 31 38 39
f 31 39 40
f 31 40 32
f 31 37 38
f 33 41 53
f 33 53 60
f 33 60 59
f 33 59 66
f 33 66 65
f 33 65 62
f 33 62 54
f 33 54 43
f 33 43 42
f 33 42 34
f 35 42 43
f 35 43 44
f 36 45 37
f 37 45 46
f 37 46 38
f 38 46 39
f 39 47 48
f 39 48 49
f 39 49 50
f 39 50 40
f 39 46 45
f 39 45 51
f 39 51 47
f 41 52 53
f 43 54 44
f 44 55 56
f 44 54 55
f 45 57 61
f 45 61 51
f 47 58 59
f 47 59 48
f 47 51 58
f 48 59 49
f 49 59 60
f 49 60 53
f 49 53 52
f 49 52 50
f 51 61 67
f 51 67 58
f 54 62 55
f 55 62 56
f 56 62 63
f 57 64 65
f 57 65 66
f 57 66 59
f 57 59 61
f 58 67 59
f 59 67 61
f 62 65 64
f 62 64 68
f 62 68 63
f 63 68 64

