# https://github.com/mikedh/trimesh
v 37.91532953 -5.57653787 48.70388541
v 37.91532953 -4.80570326 48.67063591
v 35.89616988 -4.80570326 48.67063591
v 35.89616988 -4.95906292 48.67712371
v 35.89616988 -5.57653787 48.70307492
v 35.89616988 -17.09264988 48.70307492
v 37.91532953 -17.09264988 48.70307492
v 37.91532953 -4.56153820 48.54169417
v 35.89616988 -4.16603114 48.34706583
v 35.89616988 -18.37199412 48.69577471
v 37.91532953 -23.89900084 48.67387981
v 37.91532953 -18.37199412 48.70064151
v 37.91532953 -4.16603114 48.33246923
v 35.89616988 -3.42748297 47.69668178
v 35.89616988 -19.13475712 48.66252711
v 37.80265879 -23.89900084 48.66982541
v 37.84199372 -23.89900084 48.67144831
v 37.91532953 -23.89900084 42.55686260
v 37.91532953 -3.91783075 48.08918237
v 37.91532953 -3.51425208 47.69262738
v 35.89616988 -3.28623024 46.71705035
v 35.89616988 -23.89900084 47.85157377
v 35.91514699 -23.89900084 47.86698182
v 36.14898439 -23.89900084 48.05431186
v 36.83804924 -23.89900084 48.41680875
v 37.16281313 -23.89900084 48.58629829
v 35.89616988 -19.67151691 40.41919090
v 37.91532953 -19.62510491 40.41919090
v 37.42867571 -23.89900084 42.89421877
v 37.91532953 -3.43151829 46.71705035
v 37.91532953 -3.48600191 46.43402809
v 37.91532953 -3.57478869 45.97340749
v 35.89616988 -3.45371546 45.86473966
v 35.89616988 -23.89900084 44.12281246
v 35.89616988 -14.45930018 40.41919090
v 36.90703506 -23.89900084 43.25833666
v 36.66232363 -23.89900084 43.42944815
v 36.02247797 -23.89900084 43.99387073
v 37.91532953 -14.56826742 40.41919090
f 1 2 3
f 1 3 4
f 1 4 5
f 1 5 6
f 1 6 7
f 1 7 12
f 1 12 11
f 1 11 18
f 1 18 28
f 1 28 39
f 1 39 32
f 1 32 31
f 1 31 30
f 1 30 20
f 1 20 19
f 1 19 13
f 1 13 8
f 1 8 2
f 2 8 9
f 2 9 3
f 3 9 14
f 3 14 21
f 3 21 33
f 3 33 35
f 3 35 27
f 3 27 34
f 3 34 22
f 3 22 15
f 3 15 10
f 3 10 6
f 3 6 5
f 3 5 4
f 6 10 11
f 6 11 12
f 6 12 7
f 8 13 9
f 9 13 14
f 10 15 16
f 10 16 17
f 10 17 11
f 11 17 16
f 11 16 26
f 11 26 25
f 11 25 24
f 11 24 23
f 11 23 22
f 11 22 34
f 11 34 38
f 11 38 37
f 11 37 36
f 11 36 29
f 11 29 18
f 13 19 14
f 14 20 21
f 14 19 20
f 15 22 23
f 15 23 24
f 15 24 25
f 15 25 26
f 15 26 16
f 18 27 28
f 18 29 27
f 20 30 21
f 21 30 31
f 21 31 32
f 21 32 33
f 27 35 39
f 27 39 28
f 27 29 36
f 27 36 37
f 27 37 38
f 27 38 34
f 32 39 33
f 33 39 35

