v 94.327492 -15.000000 8.133372
v 94.739744 -15.000000 7.250087
v 95.789252 -15.000000 8.133372
v 94.327742 -9.000000 8.133372
v 94.739744 -9.000000 7.250087
v 95.377748 -15.000000 7.250087
v 96.452756 -13.178152 8.133372
v 95.789252 -9.000000 8.133372
v 95.377998 -9.000000 7.250087
v 96.469256 -12.000000 7.250087
v 96.881508 -12.000000 8.133372
f 1 2 6
f 1 6 3
f 1 3 7
f 1 7 11
f 1 11 8
f 1 8 4
f 1 4 5
f 1 5 2
f 2 5 9
f 2 9 10
f 2 10 6
f 3 6 7
f 4 8 9
f 4 9 5
f 6 10 11
f 6 11 7
f 8 11 9
f 9 11 10
