# https://github.com/mikedh/trimesh
v 35.92420751 -5.57956525 16.70191298
v 35.92420751 -4.94671283 16.67658728
v 32.95197249 -4.53722042 16.67268926
v 32.95197249 -5.57956525 16.70191298
v 35.92420751 -40.12998007 16.70191298
v 35.92420751 -4.81021536 16.67074216
v 32.95197249 -0.44643275 16.36488676
v 32.95197249 -38.85186411 16.70191298
v 33.58948195 -40.12998007 16.70191298
v 35.92420751 -40.29956686 16.69801496
v 35.92420751 -4.16909204 16.34735329
v 33.58948195 -0.44643275 16.01032707
v 32.95197249 -0.44643275 -0.29351706
v 32.95197249 -40.12998007 16.69606785
v 33.58948195 -40.98205229 16.67074216
v 34.86886800 -41.08959876 16.67074216
v 35.92420751 -41.09373707 16.67074216
v 35.92420751 -3.43696786 15.69862845
v 34.27936676 -0.44643275 15.42589096
v 33.26039861 -0.44643275 -0.20000699
v 35.92420751 -3.37492373 -3.19622084
v 34.86886800 -3.37492373 -3.19622084
v 33.97181407 -3.51555760 -3.19622084
v 33.50510239 -4.30145311 -3.19622084
v 33.29560475 -5.57956525 -3.19622084
v 32.95197249 -4.40485935 -1.47407952
v 32.95197249 -40.90760086 16.66294993
v 34.86886800 -41.72658568 16.57918063
v 35.92420751 -41.73485848 16.58112773
v 35.92420751 -41.20541422 16.65515771
v 35.92420751 -3.30047039 14.71872251
v 34.70301523 -0.44643275 13.43880534
v 34.51737868 -0.44643275 14.70703417
v 34.51563181 -0.44643275 14.71872251
v 34.28140349 -0.44643275 15.42004679
v 33.26912720 -0.44643275 -0.19611088
v 33.90314483 -0.44643275 0.34351945
v 34.39255239 -0.44643275 0.98250400
v 34.63405612 -0.44643275 1.92149932
v 34.70301523 -0.44643275 3.18972767
v 34.70359689 -0.44643275 3.20141649
v 35.92420751 -3.23015346 0.91431963
v 35.92420751 -42.59934182 -3.19622084
v 33.29560475 -14.53876519 -3.19622084
v 33.29618641 -38.85186411 -3.19622084
v 32.95197249 -38.85186411 -1.39225827
v 32.95197249 -41.56941001 16.19734815
v 33.58948195 -41.62318134 16.42138136
v 33.58948195 -42.26844106 15.78239775
v 34.86886800 -42.37184540 15.93824802
v 35.92420751 -42.37598371 15.94019607
v 35.92420751 -3.18051854 5.76125084
v 34.70388867 -0.44643275 12.15888817
v 34.70388867 -0.44643275 8.30744831
v 35.92420751 -3.18051854 3.20141649
v 35.92420751 -3.19292774 2.20397709
v 35.92420751 -42.66138976 -0.63833503
v 34.86886800 -42.69861548 0.64158215
v 33.58948195 -42.49593366 0.64158215
v 34.87410478 -42.34703080 -3.19622084
v 33.36689238 -40.12998007 -3.19622084
v 32.95197249 -40.40711332 -1.22277209
v 32.95197249 -39.61708142 -1.34160784
v 32.95197249 -42.16089459 15.59148151
v 33.58948195 -42.49179917 14.71872251
v 34.86886800 -42.69447717 14.71872251
v 35.92420751 -42.43389335 15.72590220
v 35.92420751 -42.68206987 0.64158215
v 35.92420751 -42.69861548 9.37501966
v 35.92420751 -42.70274997 14.49274030
v 34.86886800 -42.69861548 12.15888817
v 33.58948195 -42.49593366 8.31913665
v 32.95197249 -42.26844106 0.64158215
v 32.95197249 -42.21053142 0.05130092
v 32.95197249 -42.15676010 -0.20779970
v 34.23426681 -42.04508295 -3.19622084
v 33.83360407 -41.40395391 -3.19622084
v 32.95197249 -41.82585552 -0.49417358
v 32.95197249 -41.42049952 -0.82925079
v 32.95197249 -42.26844106 14.71872251
v 35.92420751 -42.69861548 14.71872251
f 1 2 3
f 1 3 4
f 1 4 8
f 1 8 9
f 1 9 5
f 1 5 10
f 1 10 17
f 1 17 30
f 1 30 29
f 1 29 51
f 1 51 67
f 1 67 81
f 1 81 70
f 1 70 69
f 1 69 68
f 1 68 57
f 1 57 43
f 1 43 21
f 1 21 42
f 1 42 56
f 1 56 55
f 1 55 52
f 1 52 31
f 1 31 18
f 1 18 11
f 1 11 6
f 1 6 2
f 2 6 3
f 3 6 7
f 3 7 13
f 3 13 26
f 3 26 46
f 3 46 63
f 3 63 62
f 3 62 79
f 3 79 78
f 3 78 75
f 3 75 74
f 3 74 73
f 3 73 80
f 3 80 64
f 3 64 47
f 3 47 27
f 3 27 14
f 3 14 8
f 3 8 4
f 5 9 10
f 6 11 12
f 6 12 7
f 7 12 19
f 7 19 35
f 7 35 34
f 7 34 33
f 7 33 32
f 7 32 53
f 7 53 54
f 7 54 41
f 7 41 40
f 7 40 39
f 7 39 38
f 7 38 37
f 7 37 36
f 7 36 20
f 7 20 13
f 8 14 9
f 9 14 15
f 9 15 16
f 9 16 10
f 10 16 17
f 11 18 19
f 11 19 12
f 13 20 21
f 13 21 22
f 13 22 23
f 13 23 24
f 13 24 25
f 13 25 26
f 14 27 15
f 15 27 28
f 15 28 16
f 16 28 29
f 16 29 30
f 16 30 17
f 18 31 32
f 18 32 33
f 18 33 34
f 18 34 35
f 18 35 19
f 20 36 21
f 21 36 37
f 21 37 38
f 21 38 39
f 21 39 40
f 21 40 41
f 21 41 42
f 21 43 60
f 21 60 76
f 21 76 77
f 21 77 61
f 21 61 45
f 21 45 44
f 21 44 25
f 21 25 24
f 21 24 23
f 21 23 22
f 25 44 26
f 26 44 45
f 26 45 46
f 27 47 48
f 27 48 28
f 28 48 49
f 28 49 50
f 28 50 29
f 29 50 51
f 31 52 32
f 32 52 53
f 41 54 55
f 41 55 56
f 41 56 42
f 43 57 58
f 43 58 59
f 43 59 60
f 45 61 62
f 45 62 63
f 45 63 46
f 47 64 49
f 47 49 48
f 49 64 65
f 49 65 66
f 49 66 50
f 50 66 67
f 50 67 51
f 52 55 54
f 52 54 53
f 57 68 58
f 58 68 69
f 58 69 70
f 58 70 71
f 58 71 72
f 58 72 59
f 59 72 80
f 59 80 73
f 59 73 74
f 59 74 60
f 60 74 75
f 60 75 76
f 61 77 75
f 61 75 78
f 61 78 79
f 61 79 62
f 64 80 65
f 65 72 71
f 65 71 66
f 65 80 72
f 66 71 70
f 66 70 81
f 66 81 67
f 75 77 76

