# https://github.com/mikedh/trimesh
v 51.46173076 -9.67615565 46.71793046
v 50.20866193 -9.67615565 48.01856602
v 49.10145327 -14.07857757 48.12478519
v 49.61328879 -14.07857757 47.48490615
v 49.77638684 -14.07857757 46.71793046
v 49.96600440 -14.07857757 45.72203471
v 50.10921281 -9.67615565 45.78320160
v 50.14236220 -9.67615565 48.08046522
v 48.68906686 -14.07857757 48.47640614
v 49.71936875 -14.07857757 45.57332731
v 48.94631146 -14.07857757 45.21254868
v 48.86012209 -14.07857757 45.18837484
v 48.94631146 -9.67615565 45.50886312
v 49.33615552 -9.67615565 48.53427764
v 48.46099639 -14.07857757 48.67053102
v 47.67467935 -14.07857757 44.97300632
v 47.66672311 -9.67615565 45.37077801
v 48.78188706 -9.67615565 48.67565909
v 47.66672311 -14.07857757 48.70386253
v 47.66672311 -14.07857757 44.97227401
v 46.38713477 -14.07857757 44.96201787
v 46.38713477 -9.67615565 45.37077801
v 48.58961774 -9.67615565 48.68371830
v 47.66672311 -13.25411942 48.70386253
v 37.91532953 -11.97455205 48.70349638
v 39.98919115 -13.25411942 48.70349638
v 42.54836784 -14.07857757 48.70349638
v 39.98919115 -14.07857757 44.96311633
v 37.91532953 -9.67615565 45.37114512
v 47.66672311 -9.67615565 48.70349638
v 37.91532953 -9.67615565 48.70349638
v 37.91532953 -14.07857757 48.70313022
v 37.91532953 -14.07857757 44.96348248
f 1 2 3
f 1 3 4
f 1 4 5
f 1 5 6
f 1 6 7
f 1 7 13
f 1 13 17
f 1 17 22
f 1 22 29
f 1 29 31
f 1 31 30
f 1 30 23
f 1 23 18
f 1 18 14
f 1 14 8
f 1 8 2
f 2 8 3
f 3 8 9
f 3 9 15
f 3 15 19
f 3 19 27
f 3 27 32
f 3 32 33
f 3 33 28
f 3 28 21
f 3 21 20
f 3 20 16
f 3 16 12
f 3 12 11
f 3 11 10
f 3 10 6
f 3 6 5
f 3 5 4
f 6 10 7
f 7 10 11
f 7 11 12
f 7 12 13
f 8 14 15
f 8 15 9
f 12 16 13
f 13 16 17
f 14 18 15
f 15 18 19
f 16 20 17
f 17 20 21
f 17 21 22
f 18 23 19
f 19 23 24
f 19 24 31
f 19 31 25
f 19 25 26
f 19 26 27
f 21 28 29
f 21 29 22
f 23 30 24
f 24 30 31
f 25 31 29
f 25 29 33
f 25 33 32
f 25 32 26
f 26 32 27
f 28 33 29

