# https://github.com/mikedh/trimesh
v 23.35780139 53.29883496 16.70285888
v 23.35780139 54.57312919 16.68642387
v 16.63546266 54.25455563 16.69053358
v 16.63546266 53.29183607 16.70285888
v 23.35780139 27.70093967 16.70285888
v 16.63546266 55.07024124 16.66177137
v 16.63546266 54.57312919 16.68642387
v 23.35780139 55.23478195 16.65047207
v 23.35056221 55.23128060 16.65355387
v 16.63546266 37.93379497 16.70285888
v 23.35056221 27.70093967 16.70285888
v 23.35780139 26.41964465 16.69772508
v 16.63546266 55.23128060 16.65355387
v 23.35780139 55.47983853 15.99101051
v 16.63546266 55.41682181 16.16049813
v 16.63546266 36.65950266 16.70183288
v 16.95199948 35.37820764 16.70285888
v 22.07058497 28.97873334 16.70285888
v 23.35056221 26.41964465 16.69772508
v 23.35780139 26.32512337 16.69566928
v 16.63546266 55.64787679 15.03468722
v 16.63546266 55.47633718 15.99820011
v 23.35780139 55.70388700 14.71830868
v 16.63546266 55.70388700 14.71830868
v 16.63546266 35.40621465 16.69566928
v 19.51195016 31.53782393 16.69772508
v 20.79126756 30.26002836 16.70285888
v 23.35780139 25.29938709 16.67101678
v 19.60605570 30.36505370 16.67307067
v 23.35780139 55.70388700 8.32090735
v 16.63546266 55.70388700 8.32090735
v 16.63546266 34.40848537 16.66896288
v 22.68392059 25.74048893 16.65355387
v 16.63546266 19.94315202 11.62849133
v 23.35780139 24.47319742 15.95505871
v 18.84531235 30.85866630 16.65252788
v 23.35780139 55.45533288 7.04204287
v 16.63546266 55.45183152 7.01019934
v 16.63546266 19.94315202 6.21103789
v 19.51195016 19.94315202 11.62849133
v 20.71164038 19.94315202 11.62746438
v 21.98569431 19.94315202 11.60897452
v 23.21762903 19.94315202 11.58637592
v 23.35780139 19.94315202 11.58329412
v 23.35056221 55.14376203 6.40517848
v 16.63546266 55.17526658 6.40517848
v 23.35780139 55.14026067 6.40517848
v 16.63546266 52.01053915 6.21001046
v 23.35780139 19.94315202 6.37128105
v 16.63546266 53.29183607 6.21103789
v 16.63546266 54.56613029 6.29321385
v 23.35780139 54.50311356 6.38668911
v 23.35780139 53.29183607 6.37128105
f 1 2 7
f 1 7 3
f 1 3 4
f 1 4 10
f 1 10 17
f 1 17 27
f 1 27 18
f 1 18 11
f 1 11 5
f 1 5 12
f 1 12 20
f 1 20 28
f 1 28 35
f 1 35 44
f 1 44 49
f 1 49 53
f 1 53 52
f 1 52 47
f 1 47 37
f 1 37 30
f 1 30 23
f 1 23 14
f 1 14 8
f 1 8 2
f 2 6 7
f 2 8 9
f 2 9 6
f 3 7 6
f 3 6 13
f 3 13 15
f 3 15 22
f 3 22 21
f 3 21 24
f 3 24 31
f 3 31 38
f 3 38 46
f 3 46 51
f 3 51 50
f 3 50 48
f 3 48 39
f 3 39 34
f 3 34 32
f 3 32 25
f 3 25 16
f 3 16 10
f 3 10 4
f 5 11 19
f 5 19 12
f 6 9 13
f 8 14 15
f 8 15 13
f 8 13 9
f 10 16 17
f 11 18 19
f 12 19 20
f 14 21 22
f 14 22 15
f 14 23 24
f 14 24 21
f 16 25 17
f 17 25 26
f 17 26 19
f 17 19 27
f 18 27 19
f 19 28 20
f 19 26 29
f 19 29 28
f 23 30 31
f 23 31 24
f 25 32 29
f 25 29 26
f 28 33 34
f 28 34 35
f 28 29 33
f 29 32 36
f 29 36 33
f 30 37 38
f 30 38 31
f 32 34 36
f 33 36 34
f 34 39 49
f 34 49 44
f 34 44 43
f 34 43 42
f 34 42 41
f 34 41 40
f 34 40 35
f 35 40 41
f 35 41 42
f 35 42 43
f 35 43 44
f 37 45 46
f 37 46 38
f 37 47 45
f 39 48 49
f 45 47 50
f 45 50 51
f 45 51 46
f 47 52 50
f 48 50 53
f 48 53 49
f 50 52 53

