# https://github.com/mikedh/trimesh
v 116.00948003 -3.43176351 -14.71635550
v 118.05714231 -3.51532113 -15.69431433
v 116.00948003 -3.51532113 -15.69395104
v 116.00948003 -3.57515117 -13.97171055
v 123.17431276 -3.57515117 -13.97171055
v 125.73422148 -3.43279523 -14.71635550
v 125.73422148 -3.51532113 -15.69431433
v 116.00948003 -3.77424391 -15.94979774
v 123.17431276 -4.16314393 -16.33429437
v 116.00948003 -4.29827881 -13.61919523
v 125.73422148 -4.29827881 -13.61919523
v 125.73422148 -3.57618289 -13.97171055
v 127.01417965 -3.60506714 -14.00914318
v 127.01417965 -3.49056279 -14.71635550
v 127.01417965 -3.54317272 -15.63144349
v 127.01417965 -4.17655435 -16.27142258
v 125.73422148 -4.16314393 -16.33429437
v 116.00948003 -4.16417565 -16.33393203
v 120.61705103 -4.16314393 -16.33393203
v 116.00948003 -4.80374568 -16.66973011
v 116.00948003 -4.41897156 -16.46803233
v 116.00948003 -5.06679437 -13.47019320
v 125.73422148 -5.57741981 -13.37097961
v 127.01417965 -5.57741981 -13.37715847
v 127.01417965 -4.29827881 -13.65989751
v 127.69055489 -3.64220323 -14.05638761
v 127.77129578 -3.60403543 -14.71635550
v 127.77261928 -3.60094028 -15.49806883
v 127.75938432 -4.86564010 -16.65810089
v 127.01417965 -4.81612437 -16.66936586
v 125.73422148 -4.80374568 -16.66973011
v 116.00948003 -5.57741981 -16.70352694
v 116.00948003 -5.57741981 -13.37134386
v 127.01417965 -13.97023583 -12.99120770
v 128.29413401 -13.97023583 -13.14784081
v 128.29413401 -5.57741981 -13.57594799
v 128.18824287 -4.34263596 -13.86849978
v 129.02345291 -4.79858804 -13.98043247
v 128.41061312 -4.04348195 -14.71635550
v 129.06845941 -4.73875705 -15.63035266
v 128.19221336 -4.37564613 -15.99086426
v 127.01417965 -5.57741981 -16.70352694
v 128.57341842 -5.57741981 -16.50437508
v 128.69519533 -6.85759253 -16.60104371
v 127.93410489 -5.57741981 -16.66936586
v 116.00948003 -8.13776525 -16.70389119
v 116.00948003 -8.13776525 -13.37134386
v 119.33709667 -13.97023583 -13.06716190
v 119.51314074 -13.97023583 -13.05480609
v 120.61705103 -13.97023583 -13.00719836
v 128.48341305 -13.97023583 -13.24160309
v 129.08169437 -5.57741981 -13.92228636
v 129.35833179 -5.57741981 -14.71635550
v 129.10155063 -4.68305293 -14.71635550
v 129.21141226 -5.57741981 -15.86439409
v 128.05587799 -6.85759253 -16.66973011
v 127.01417965 -13.97023583 -16.70352694
v 118.05714231 -8.13776525 -16.70389119
v 129.28553568 -6.85759253 -15.96106366
v 128.69651882 -10.69604725 -16.60104371
v 116.00948003 -8.84954496 -16.66973011
v 120.61705103 -13.97023583 -16.70352694
v 120.05053361 -13.97023583 -16.69444173
v 119.33709667 -13.97023583 -16.68245017
v 118.68057388 -13.97023583 -16.64828909
v 116.00948003 -9.20337234 -13.72385918
v 118.20141866 -13.97023583 -13.60066056
v 129.18890901 -13.97023583 -13.63845649
v 129.44834479 -6.85759253 -14.71635550
v 128.41326012 -13.97023583 -16.63157184
v 128.05587799 -13.97023583 -16.66973011
v 129.28553568 -10.69604725 -15.96142696
v 129.53040918 -13.97023583 -14.71635550
v 129.44172349 -13.97023583 -15.26657141
v 128.69651882 -13.97023583 -16.60104371
v 118.44496485 -13.97023583 -15.99595228
v 116.00948003 -9.03522729 -16.40043676
v 116.00948003 -9.66654453 -14.71635550
v 118.13258922 -13.97023583 -14.71635550
v 129.34907113 -13.97023583 -14.03058420
v 129.28553568 -13.97023583 -15.96142696
v 116.00948003 -9.31271811 -15.99595228
f 1 2 3
f 1 3 8
f 1 8 18
f 1 18 21
f 1 21 20
f 1 20 32
f 1 32 46
f 1 46 61
f 1 61 77
f 1 77 82
f 1 82 78
f 1 78 66
f 1 66 47
f 1 47 33
f 1 33 22
f 1 22 10
f 1 10 4
f 1 4 5
f 1 5 6
f 1 6 7
f 1 7 2
f 2 8 3
f 2 7 17
f 2 17 9
f 2 9 8
f 4 10 11
f 4 11 5
f 5 11 12
f 5 12 6
f 6 12 13
f 6 13 14
f 6 14 15
f 6 15 7
f 7 15 16
f 7 16 17
f 8 9 19
f 8 19 18
f 9 17 31
f 9 31 20
f 9 20 21
f 9 21 18
f 9 18 19
f 10 22 23
f 10 23 11
f 11 23 24
f 11 24 25
f 11 25 12
f 12 25 13
f 13 26 14
f 13 25 26
f 14 26 27
f 14 27 28
f 14 28 15
f 15 28 16
f 16 28 29
f 16 29 30
f 16 30 17
f 17 30 31
f 20 31 42
f 20 42 32
f 22 33 23
f 23 34 24
f 23 33 34
f 24 35 36
f 24 36 25
f 24 34 35
f 25 36 37
f 25 37 26
f 26 37 38
f 26 38 39
f 26 39 27
f 27 39 28
f 28 39 40
f 28 40 41
f 28 41 29
f 29 42 30
f 29 41 40
f 29 40 43
f 29 43 44
f 29 44 45
f 29 45 42
f 30 42 31
f 32 42 58
f 32 58 46
f 33 47 48
f 33 48 49
f 33 49 50
f 33 50 34
f 34 50 49
f 34 49 48
f 34 48 67
f 34 67 79
f 34 79 76
f 34 76 65
f 34 65 64
f 34 64 63
f 34 63 62
f 34 62 57
f 34 57 71
f 34 71 70
f 34 70 75
f 34 75 81
f 34 81 74
f 34 74 73
f 34 73 80
f 34 80 68
f 34 68 51
f 34 51 35
f 35 51 52
f 35 52 36
f 36 52 38
f 36 38 37
f 38 52 53
f 38 53 54
f 38 54 39
f 39 54 40
f 40 54 53
f 40 53 55
f 40 55 43
f 42 45 56
f 42 56 71
f 42 71 57
f 42 57 58
f 43 55 44
f 44 55 59
f 44 59 60
f 44 60 56
f 44 56 45
f 46 58 57
f 46 57 62
f 46 62 63
f 46 63 64
f 46 64 65
f 46 65 61
f 47 66 67
f 47 67 48
f 51 68 52
f 52 68 69
f 52 69 53
f 53 69 55
f 55 69 59
f 56 70 71
f 56 60 70
f 59 72 60
f 59 69 73
f 59 73 74
f 59 74 72
f 60 75 70
f 60 72 81
f 60 81 75
f 61 76 77
f 61 65 76
f 66 78 67
f 67 78 79
f 68 80 69
f 69 80 73
f 72 74 81
f 76 79 82
f 76 82 77
f 78 82 79

