# https://github.com/mikedh/trimesh
v 114.32420849 -21.27324694 40.44884466
v 114.32420849 -21.41534926 40.44884466
v 114.15886298 -21.27324694 34.35868284
v 78.39213220 -21.27324694 40.44884466
v 114.31365485 -35.93554443 40.44884466
v 114.13775569 -35.93554443 34.35868284
v 78.64894199 -21.27324694 34.35868284
v 78.43083017 -29.89120509 40.44884466
v 78.68412144 -35.93554443 40.44884466
v 78.73337115 -35.93554443 34.35868284
v 78.44841894 -33.53847888 40.44884466
v 78.55395729 -34.83605076 40.44884466
v 78.45545598 -33.73081685 40.44884466
f 1 2 3
f 1 3 7
f 1 7 4
f 1 4 8
f 1 8 11
f 1 11 13
f 1 13 12
f 1 12 9
f 1 9 5
f 1 5 2
f 2 5 3
f 3 5 6
f 3 6 10
f 3 10 7
f 4 7 8
f 5 9 10
f 5 10 6
f 7 10 11
f 7 11 8
f 9 12 10
f 10 12 13
f 10 13 11

