# https://github.com/mikedh/trimesh
v 72.93323591 -21.19504353 -9.41362287
v 72.93323591 -21.26662676 -9.41362287
v 72.93323591 -21.19504353 -14.77882585
v 37.91532560 -21.19504353 -7.71555144
v 72.93323591 -40.13107854 -9.42154191
v 72.93323591 -39.37523632 -16.66957945
v 48.46594396 -21.19504353 -16.66957945
v 37.91532560 -21.19504353 -16.70301394
v 37.91532560 -40.13107854 -8.06660405
v 72.93323591 -40.46162840 -9.44617725
v 72.93323591 -39.93527738 -16.69509585
v 47.66727881 -21.19504353 -16.70301394
v 47.83180999 -21.19504353 -16.69685415
v 37.91532560 -40.13107854 -16.70301394
v 47.66727881 -40.13107854 -16.70389309
v 37.91532560 -41.46801189 -8.38334207
v 72.93323591 -41.41116639 -9.51832305
v 72.93323591 -40.13107854 -16.70301394
v 50.22780923 -40.13107854 -16.70389309
v 37.91532560 -40.50373618 -16.69069627
v 66.86268761 -41.11430275 -16.66957945
v 41.27109418 -41.11219736 -16.66957945
v 37.91532560 -41.11009197 -16.66957945
v 37.91532560 -41.64276298 -8.50035992
v 72.93323591 -42.33333814 -9.92568432
v 72.93323591 -41.64907914 -9.62302228
v 72.93323591 -40.85955070 -16.67837860
v 72.93323591 -41.11430275 -16.66957945
v 69.42321803 -41.75434859 -16.58247662
v 37.91532560 -41.35432089 -16.63614687
v 55.34887007 -41.75224320 -16.58247662
v 37.91532560 -42.06805534 -8.86812882
v 72.93323591 -42.41755370 -10.17115664
v 37.91532560 -42.40702675 -9.57727108
v 72.93323591 -41.75434859 -16.58247662
v 66.86268761 -42.37755131 -15.94284080
v 37.91532560 -42.37755131 -15.94196069
v 42.54964495 -41.75224320 -16.58159556
v 37.91532560 -41.75013781 -16.58159556
v 72.93323591 -42.65967341 -10.87765953
v 37.91532560 -42.68704347 -10.87765953
v 72.93323591 -42.37755131 -15.94284080
v 37.91532560 -42.50176925 -15.47565044
v 72.93323591 -42.70178119 -12.15693212
v 37.91532560 -42.70178119 -12.15693212
v 72.93323591 -42.61967103 -15.03221627
v 37.91532560 -42.70178119 -14.71547730
v 72.93323591 -42.70178119 -14.71547730
f 1 2 5
f 1 5 10
f 1 10 17
f 1 17 26
f 1 26 25
f 1 25 33
f 1 33 40
f 1 40 44
f 1 44 48
f 1 48 46
f 1 46 42
f 1 42 35
f 1 35 28
f 1 28 27
f 1 27 18
f 1 18 11
f 1 11 6
f 1 6 3
f 1 3 7
f 1 7 13
f 1 13 12
f 1 12 8
f 1 8 4
f 1 4 2
f 2 4 5
f 3 6 7
f 4 8 14
f 4 14 20
f 4 20 23
f 4 23 30
f 4 30 39
f 4 39 37
f 4 37 43
f 4 43 47
f 4 47 45
f 4 45 41
f 4 41 34
f 4 34 32
f 4 32 24
f 4 24 16
f 4 16 9
f 4 9 5
f 5 9 10
f 6 11 12
f 6 12 13
f 6 13 7
f 8 12 19
f 8 19 15
f 8 15 14
f 9 16 17
f 9 17 10
f 11 18 12
f 12 18 19
f 14 15 20
f 15 19 28
f 15 28 21
f 15 21 22
f 15 22 23
f 15 23 20
f 16 24 25
f 16 25 26
f 16 26 17
f 18 27 19
f 19 27 28
f 21 28 35
f 21 35 29
f 21 29 22
f 22 30 23
f 22 29 31
f 22 31 30
f 24 32 25
f 25 32 34
f 25 34 33
f 29 35 42
f 29 42 36
f 29 36 37
f 29 37 38
f 29 38 31
f 30 31 39
f 31 38 39
f 33 34 40
f 34 41 40
f 36 42 46
f 36 46 43
f 36 43 37
f 37 39 38
f 40 41 44
f 41 45 44
f 43 46 47
f 44 45 47
f 44 47 48
f 46 48 47

