# https://github.com/mikedh/trimesh
v 27.19086391 13.62436809 16.70390966
v 27.19011253 13.62436809 16.70390966
v 27.19086391 12.34012953 16.70289320
v 27.19086391 53.29076812 16.70289320
v 23.35845742 53.29594387 16.70289320
v 24.63105055 12.34012953 16.70289320
v 23.35845742 27.69920806 16.70289320
v 27.19086391 11.05071236 16.67747597
v 27.19086391 54.56982617 16.68662602
v 23.35845742 54.56982617 16.68662602
v 23.35845742 12.34012953 16.70187674
v 26.75866420 10.63126322 16.57885262
v 27.19086391 9.80790171 16.22096703
v 23.35845742 11.52194567 16.67035884
v 27.19086391 55.23266131 16.65307330
v 27.19011253 55.23266131 16.65409166
v 24.63105055 55.23266131 16.65409166
v 23.35845742 55.23266131 16.65002391
v 27.19086391 9.43505718 16.06439208
v 27.19086391 2.80673055 13.22367236
v 23.35845742 2.80673055 11.62843602
v 27.19086391 55.47604349 15.99728854
v 27.19011253 55.47604349 15.99830500
v 23.35845742 55.47604349 15.99830500
v 27.19086391 2.80673055 11.08550601
v 23.35845742 2.80673055 6.37198523
v 27.19086391 55.70389081 14.71825242
v 23.35845742 55.70389081 14.71825242
v 27.19011253 2.80673055 6.31809901
v 27.19086391 3.38153030 6.31809901
v 23.35845742 53.29076812 6.37198523
v 27.19086391 48.16934875 6.31708255
v 27.19086391 55.70389081 9.60007600
v 23.35845742 55.70389081 8.32104084
v 23.35845742 54.50250712 6.38621949
v 27.19011253 53.29076812 6.31809901
v 27.19086391 52.01170626 6.31708255
v 27.19086391 55.69871506 8.32002438
v 27.19011253 55.70389081 8.32104084
v 23.35845742 55.45532906 7.04200473
v 23.35845742 55.13944827 6.40553701
v 27.19086391 54.52840111 6.35876791
v 27.19086391 53.29076812 6.31809901
v 27.19086391 55.45532906 7.04403813
v 27.19086391 55.16534226 6.40553701
v 27.19011253 55.16534226 6.40553701
f 1 2 6
f 1 6 3
f 1 3 8
f 1 8 13
f 1 13 19
f 1 19 20
f 1 20 25
f 1 25 30
f 1 30 32
f 1 32 37
f 1 37 43
f 1 43 42
f 1 42 45
f 1 45 44
f 1 44 38
f 1 38 33
f 1 33 27
f 1 27 22
f 1 22 15
f 1 15 9
f 1 9 4
f 1 4 5
f 1 5 2
f 2 5 7
f 2 7 6
f 3 6 8
f 4 9 5
f 5 9 10
f 5 10 18
f 5 18 24
f 5 24 28
f 5 28 34
f 5 34 40
f 5 40 41
f 5 41 35
f 5 35 31
f 5 31 26
f 5 26 21
f 5 21 14
f 5 14 11
f 5 11 7
f 6 11 8
f 6 7 11
f 8 12 13
f 8 11 14
f 8 14 12
f 9 15 16
f 9 16 17
f 9 17 10
f 10 17 18
f 12 19 13
f 12 14 20
f 12 20 19
f 14 21 20
f 15 22 23
f 15 23 16
f 16 23 24
f 16 24 17
f 17 24 18
f 20 21 26
f 20 26 29
f 20 29 25
f 22 27 23
f 23 27 28
f 23 28 24
f 25 29 30
f 26 31 37
f 26 37 32
f 26 32 29
f 27 33 39
f 27 39 34
f 27 34 28
f 29 32 30
f 31 35 36
f 31 36 37
f 33 38 39
f 34 39 40
f 35 41 36
f 36 41 42
f 36 42 43
f 36 43 37
f 38 44 39
f 39 44 40
f 40 44 45
f 40 45 46
f 40 46 41
f 41 46 42
f 42 46 45

