# https://github.com/mikedh/trimesh
v 117.25365041 -14.79104189 13.27547370
v 117.25365041 -15.10042916 13.67257501
v 117.25365041 -14.79421904 13.04090211
v 91.88154281 -14.84758416 12.82203511
v 91.88154281 -14.95240735 13.17457809
v 117.25365041 -15.95362463 14.48267867
v 91.88154281 -15.17984084 13.46391553
v 91.88154281 -15.45555524 13.81449519
v 117.25365041 -14.79803124 12.82203511
v 91.88154281 -21.28053109 12.82203511
v 117.25365041 -16.48917338 14.63578755
v 91.88154281 -15.74524835 14.03139983
v 91.88154281 -16.09529403 14.28932998
v 117.25365041 -21.28053109 12.82203511
v 91.88154281 -21.28053109 14.63892847
v 117.25365041 -17.09587436 14.77849343
v 91.88154281 -16.54825586 14.41849101
v 91.88154281 -17.09587436 14.56904824
v 117.25365041 -21.28053109 14.82737030
v 91.88154281 -18.37535005 14.63892847
v 117.25365041 -17.77309442 14.81166666
v 117.25365041 -21.11599038 14.82737030
v 117.25365041 -18.37535005 14.82717387
f 1 2 6
f 1 6 11
f 1 11 16
f 1 16 21
f 1 21 23
f 1 23 22
f 1 22 19
f 1 19 14
f 1 14 9
f 1 9 3
f 1 3 4
f 1 4 5
f 1 5 2
f 2 5 7
f 2 7 8
f 2 8 6
f 3 9 4
f 4 10 15
f 4 15 20
f 4 20 18
f 4 18 17
f 4 17 13
f 4 13 12
f 4 12 8
f 4 8 7
f 4 7 5
f 4 9 14
f 4 14 10
f 6 8 12
f 6 12 13
f 6 13 11
f 10 14 19
f 10 19 15
f 11 13 17
f 11 17 18
f 11 18 16
f 15 19 22
f 15 22 20
f 16 18 20
f 16 20 21
f 20 22 23
f 20 23 21

