# https://github.com/mikedh/trimesh
v 103.87245882 -14.11709624 -9.82020129
v 103.98095881 -9.41712461 -9.41433229
v 103.98435337 -14.11709624 -9.81827707
v 100.21393379 -14.11709624 -9.39124930
v 100.65133214 -8.70877474 -9.00653907
v 103.98095881 -8.56230432 -9.19889418
v 107.26990418 -8.72415990 -8.99307431
v 106.54090948 -14.11709624 -9.67016373
v 95.00248617 -14.11709624 -6.15006802
v 95.00248617 -7.83056823 -6.22508633
v 96.15531242 -7.83056823 -6.57517254
v 98.54572971 -7.83056823 -7.11569012
v 101.36336930 -7.83056823 -7.20417319
v 103.98095881 -7.83056823 -7.23495019
v 107.93786549 -7.83056823 -7.26380346
v 127.01372959 -7.83056823 -6.21739231
v 98.92209085 -7.83056823 -7.14839039
v 100.00371148 -7.83056823 -7.18109067
v 127.99702246 -7.83056823 -6.10774999
v 128.17672807 -7.83056823 -6.08081999
v 128.29200955 -14.11709624 -5.98656618
v 95.00248617 -14.11709624 6.13756907
v 95.00248617 -7.83056823 6.22412839
v 128.88876905 -7.83056823 -5.69995725
v 129.14645796 -14.11709624 -5.54607316
v 100.24784123 -14.11709624 9.47877490
v 95.87388639 -7.83056823 6.46072528
v 100.66150055 -8.71246679 9.00558209
v 129.14645796 -7.83056823 -5.47490186
v 129.41092837 -7.83056823 -4.79781244
v 129.49570078 -14.11709624 -4.47657949
v 101.42101195 -14.11709624 9.64227722
v 96.35875134 -7.83056823 6.58383236
v 98.94582606 -7.83056823 7.14935620
v 103.98095881 -9.41712461 9.42491585
v 103.98095881 -8.58569054 9.18254822
v 129.48891166 -7.83056823 -4.47657949
v 129.62115449 -7.83056823 -3.50326315
v 129.63471747 -14.11709624 -3.19741871
v 103.97417732 -14.11709624 9.83078485
v 101.42101195 -7.83056823 7.20706273
v 104.08607187 -14.11709624 9.82886064
v 107.28685790 -8.71185177 9.00750535
v 127.33584645 -7.83056823 6.21258737
v 107.93447475 -7.83056823 7.26476927
v 103.98095881 -7.83056823 7.24168627
v 129.63471747 -7.83056823 -3.19741871
v 129.63810440 -8.13704820 -3.19741871
v 129.63471747 -14.11709624 3.20030825
v 107.74459690 -14.11709624 9.38067408
v 128.29200955 -14.11709624 5.96060246
v 127.99363171 -7.83056823 6.09717430
v 129.63471747 -7.83056823 3.20030825
v 129.55333961 -14.11709624 4.06205854
v 128.38355964 -14.11709624 5.92020769
v 128.26827434 -7.83056823 6.00484375
v 129.47874325 -7.83056823 4.47946904
v 129.47196176 -14.11709624 4.47946904
v 129.13628955 -14.11709624 5.52203271
v 129.13967648 -7.83056823 5.45855590
v 129.25834870 -14.11709624 5.25850677
f 1 2 3
f 1 3 8
f 1 8 21
f 1 21 25
f 1 25 31
f 1 31 39
f 1 39 49
f 1 49 54
f 1 54 58
f 1 58 61
f 1 61 59
f 1 59 55
f 1 55 51
f 1 51 50
f 1 50 42
f 1 42 40
f 1 40 32
f 1 32 26
f 1 26 22
f 1 22 9
f 1 9 4
f 1 4 5
f 1 5 2
f 2 6 7
f 2 7 8
f 2 8 3
f 2 5 6
f 4 9 10
f 4 10 5
f 5 10 11
f 5 11 12
f 5 12 6
f 6 13 14
f 6 14 15
f 6 15 16
f 6 16 7
f 6 12 17
f 6 17 18
f 6 18 13
f 7 16 19
f 7 19 8
f 8 19 20
f 8 20 21
f 9 22 23
f 9 23 10
f 10 23 27
f 10 27 33
f 10 33 34
f 10 34 41
f 10 41 46
f 10 46 45
f 10 45 44
f 10 44 52
f 10 52 56
f 10 56 60
f 10 60 57
f 10 57 53
f 10 53 47
f 10 47 38
f 10 38 37
f 10 37 30
f 10 30 29
f 10 29 24
f 10 24 20
f 10 20 19
f 10 19 16
f 10 16 15
f 10 15 14
f 10 14 13
f 10 13 18
f 10 18 17
f 10 17 12
f 10 12 11
f 20 24 25
f 20 25 21
f 22 26 23
f 23 26 28
f 23 28 27
f 24 29 25
f 25 29 30
f 25 30 31
f 26 32 28
f 27 28 33
f 28 34 33
f 28 32 35
f 28 35 36
f 28 36 34
f 30 37 31
f 31 37 38
f 31 38 39
f 32 40 35
f 34 36 41
f 35 40 42
f 35 42 43
f 35 43 36
f 36 43 44
f 36 44 45
f 36 45 46
f 36 46 41
f 38 47 48
f 38 48 39
f 39 48 49
f 42 50 43
f 43 50 44
f 44 50 51
f 44 51 52
f 47 53 48
f 48 53 49
f 49 53 54
f 51 55 56
f 51 56 52
f 53 57 54
f 54 57 58
f 55 59 56
f 56 59 60
f 57 60 61
f 57 61 58
f 59 61 60

