# https://github.com/mikedh/trimesh
v 78.53645749 -40.13160488 8.11209816
v 78.67664130 -35.58045221 8.11209816
v 78.54882665 -40.34009178 8.11209816
v 72.93323591 -40.13160488 9.42154895
v 72.93323591 -38.91136423 9.83112050
v 72.93323591 -38.75726274 10.10108417
v 72.93323591 -38.31309816 10.87985873
v 78.56944192 -35.58045221 9.01618245
v 114.24205187 -35.58045221 8.11209816
v 78.67664130 -41.41181479 8.11209816
v 72.93323591 -41.41181479 9.51658322
v 78.69725657 -41.53034971 8.11209816
v 72.93323591 -38.29636185 12.15987411
v 78.63953382 -35.58045221 9.42407198
v 72.93323591 -38.29636185 14.71906387
v 115.05428953 -35.58045221 9.29539725
v 114.24205187 -38.85279094 8.11209816
v 72.93323591 -42.09724091 9.82018735
v 78.91577743 -42.14605008 8.11209816
v 79.55485066 -35.58045221 10.49299448
v 72.93323591 -38.42187277 15.04873935
v 79.78574069 -35.58045221 10.71670254
v 115.05428953 -40.13160488 9.29539725
v 115.05428953 -35.58045221 14.63243971
v 114.23792501 -40.13160488 8.11209816
v 72.93323591 -42.33571052 9.92615382
v 79.66617214 -42.40544008 8.11209816
v 72.93323591 -38.78375936 15.99823825
v 80.94431671 -35.58045221 10.99844037
v 115.05428953 -41.41181479 9.37949838
v 115.05428953 -39.38133127 16.67104538
v 105.25793054 -35.58045221 14.63243971
v 114.12247952 -41.41181479 8.11209816
v 72.93323591 -42.57766623 10.63428343
v 80.73404195 -42.52606895 8.11209816
v 80.94431671 -42.54977746 8.11209816
v 72.93323591 -38.93786086 16.17232759
v 103.97566101 -35.58045221 14.49451481
v 115.05428953 -41.90827845 9.60236638
v 115.05428953 -40.13160488 16.70300381
v 72.93323591 -39.38133127 16.67104538
v 77.10575996 -40.13160488 16.70384482
v 113.79263527 -42.24227626 8.11209816
v 115.05428953 -42.34407868 9.81345926
v 72.93323591 -42.66134018 10.87985873
v 83.50472889 -42.57906219 8.11209816
v 115.05428953 -40.46490472 16.69207066
v 72.93323591 -40.13160488 16.70384482
v 72.93323591 -40.38053660 16.69543471
v 115.05428953 -41.09594544 16.67104538
v 113.65657833 -42.28480741 8.11209816
v 115.05428953 -42.55953776 10.44757987
v 80.94431671 -42.67528838 10.87985873
v 72.93323591 -42.69271886 11.83019864
v 107.60806701 -42.57906219 8.11209816
v 72.93323591 -41.09594544 16.67104538
v 115.05428953 -41.73604849 16.58189818
v 72.93323591 -41.26050522 16.64833808
v 112.93504403 -42.50027031 8.11209816
v 115.05428953 -42.66343413 10.87985873
v 72.93323591 -42.70317715 12.15987411
v 111.65689756 -42.67528838 10.87985873
v 109.09648538 -42.57836421 8.11209816
v 115.05428953 -41.95778560 16.36071412
v 72.93323591 -41.73604849 16.58189818
v 72.93323591 -41.90130625 16.41705997
v 112.72889137 -42.51142658 8.11209816
v 115.05428953 -42.69062873 11.71750312
v 112.93504403 -42.67459040 10.87985873
v 111.65689756 -42.56860390 8.11209816
v 72.93323591 -42.70387514 14.71906387
v 115.05428953 -42.70317715 12.15987411
v 110.16847919 -42.57487811 8.11209816
v 115.05428953 -42.37754750 15.94189049
v 72.93323591 -42.37754750 15.94189049
v 110.37462803 -42.57418013 8.11209816
v 105.25793054 -42.70387514 14.71906387
v 115.05428953 -42.49050618 15.51970473
v 115.05428953 -42.70317715 14.71906387
f 1 2 9
f 1 9 17
f 1 17 25
f 1 25 33
f 1 33 43
f 1 43 51
f 1 51 59
f 1 59 67
f 1 67 70
f 1 70 76
f 1 76 73
f 1 73 63
f 1 63 55
f 1 55 46
f 1 46 36
f 1 36 35
f 1 35 27
f 1 27 19
f 1 19 12
f 1 12 10
f 1 10 3
f 1 3 4
f 1 4 2
f 2 4 5
f 2 5 6
f 2 6 7
f 2 7 8
f 2 8 14
f 2 14 20
f 2 20 22
f 2 22 29
f 2 29 38
f 2 38 32
f 2 32 24
f 2 24 16
f 2 16 9
f 3 10 4
f 4 11 18
f 4 18 26
f 4 26 34
f 4 34 45
f 4 45 54
f 4 54 61
f 4 61 71
f 4 71 75
f 4 75 66
f 4 66 65
f 4 65 58
f 4 58 56
f 4 56 49
f 4 49 48
f 4 48 41
f 4 41 37
f 4 37 28
f 4 28 21
f 4 21 15
f 4 15 13
f 4 13 7
f 4 7 6
f 4 6 5
f 4 10 12
f 4 12 11
f 7 13 8
f 8 13 15
f 8 15 14
f 9 16 23
f 9 23 17
f 11 12 19
f 11 19 18
f 14 15 20
f 15 21 22
f 15 22 20
f 16 24 31
f 16 31 40
f 16 40 47
f 16 47 50
f 16 50 57
f 16 57 64
f 16 64 74
f 16 74 78
f 16 78 79
f 16 79 72
f 16 72 68
f 16 68 60
f 16 60 52
f 16 52 44
f 16 44 39
f 16 39 30
f 16 30 23
f 17 23 25
f 18 19 26
f 19 27 26
f 21 28 22
f 22 28 29
f 23 30 25
f 24 32 41
f 24 41 31
f 25 30 33
f 26 27 35
f 26 35 36
f 26 36 34
f 28 37 32
f 28 32 38
f 28 38 29
f 30 39 33
f 31 41 48
f 31 48 42
f 31 42 40
f 32 37 41
f 33 39 44
f 33 44 43
f 34 36 45
f 36 46 45
f 40 42 47
f 42 48 49
f 42 49 50
f 42 50 47
f 43 44 52
f 43 52 51
f 45 53 54
f 45 46 53
f 46 55 62
f 46 62 53
f 49 56 50
f 50 56 58
f 50 58 57
f 51 52 59
f 52 60 59
f 53 61 54
f 53 62 72
f 53 72 61
f 55 63 62
f 57 58 65
f 57 65 66
f 57 66 64
f 59 60 67
f 60 68 69
f 60 69 70
f 60 70 67
f 61 72 77
f 61 77 71
f 62 63 69
f 62 69 72
f 63 73 69
f 64 66 75
f 64 75 74
f 68 72 69
f 69 73 76
f 69 76 70
f 71 77 78
f 71 78 75
f 72 79 77
f 74 75 78
f 77 79 78

