v 34.000000 -3.450470 -15.998794
v 34.000000 -3.522416 -15.989397
v 34.000000 -0.000000 -15.998794
v 128.934662 -3.450470 -15.998794
v 34.000000 -3.547377 -15.983133
v 128.934662 -3.522416 -15.989397
v 34.000000 -0.000000 15.999999
v 128.934662 -0.000000 -15.998794
v 34.000000 -3.570869 -15.976869
v 128.934662 -3.547377 -15.983133
v 34.000000 -3.425509 15.999999
v 128.934662 -0.000000 15.999999
v 34.000000 -3.616386 -15.961207
v 128.934662 -3.570869 -15.976869
v 34.000000 -3.498924 15.993734
v 128.934662 -3.425509 15.999999
v 34.000000 -3.660435 -15.939282
v 128.934662 -3.616386 -15.961207
v 34.000000 -3.547377 15.984338
v 128.934662 -3.498924 15.993734
v 34.000000 -3.682459 -15.926752
v 128.934662 -3.660435 -15.939282
v 34.000000 -13.387823 13.882616
v 128.934662 -3.547377 15.984338
v 34.000000 -3.703015 -15.914224
v 128.934662 -3.682459 -15.926752
v 34.000000 -13.483261 13.860691
v 128.934662 -13.387823 13.882616
v 34.000000 -3.723571 -15.898563
v 128.934662 -3.703015 -15.914224
v 34.000000 -13.578699 13.835632
v 128.934662 -13.483261 13.860691
v 34.000000 -3.761746 -15.867240
v 128.934662 -3.723571 -15.898563
v 34.000000 -13.671202 13.804311
v 128.934662 -13.578699 13.835632
v 34.000000 -3.779366 -15.851579
v 128.934662 -3.761746 -15.867240
v 34.000000 -13.762235 13.769856
v 128.934662 -13.671202 13.804311
v 34.000000 -3.827819 -15.795200
v 128.934662 -3.779366 -15.851579
v 34.000000 -13.853269 13.729137
v 128.934662 -13.762235 13.769856
v 34.000000 -3.841034 -15.776406
v 128.934662 -3.827819 -15.795200
v 34.000000 -13.939898 13.685286
v 128.934662 -13.853269 13.729137
v 34.000000 -3.854248 -15.754481
v 128.934662 -3.841034 -15.776406
v 34.000000 -14.025058 13.638303
v 128.934662 -13.939898 13.685286
v 34.000000 -3.877741 -15.710630
v 128.934662 -3.854248 -15.754481
v 34.000000 -14.107282 13.585055
v 128.934662 -14.025058 13.638303
v 128.934662 -3.877741 -15.710630
v 126.146840 -15.000000 7.248567
v 35.050079 -15.000000 7.251699
v 34.000000 -3.888019 -15.688703
v 34.000000 -14.188038 13.528674
v 128.934662 -14.107282 13.585055
v 128.934662 -3.888019 -15.688703
v 126.788038 -15.000000 7.248567
v 34.000000 -15.000000 9.500636
v 34.000000 -14.265857 13.469162
v 128.934662 -14.188038 13.528674
v 128.934662 -15.000000 9.500636
v 34.000000 -15.000000 11.921844
v 34.000000 -14.339271 13.403386
v 128.934662 -14.265857 13.469162
v 128.934662 -15.000000 11.921844
v 34.000000 -14.995595 12.018943
v 34.000000 -14.411217 13.334477
v 128.934662 -14.339271 13.403386
v 128.934662 -14.995595 12.018943
v 34.000000 -14.986785 12.119174
v 34.000000 -14.480227 13.265568
v 128.934662 -14.411217 13.334477
v 128.934662 -14.986785 12.119174
v 34.000000 -14.976507 12.216273
v 34.000000 -14.544831 13.190395
v 128.934662 -14.480227 13.265568
v 128.934662 -14.976507 12.216273
v 34.000000 -14.958888 12.313373
v 34.000000 -14.659357 13.033784
v 128.934662 -14.544831 13.190395
v 128.934662 -14.958888 12.313373
v 34.000000 -14.936863 12.407339
v 34.000000 -14.712215 12.949214
v 128.934662 -14.659357 13.033784
v 128.934662 -14.936863 12.407339
v 34.000000 -14.911903 12.501306
v 34.000000 -14.760669 12.864644
v 128.934662 -14.712215 12.949214
v 128.934662 -14.911903 12.501306
v 34.000000 -14.879600 12.595272
v 34.000000 -14.804718 12.776941
v 128.934662 -14.760669 12.864644
v 128.934662 -14.879600 12.595272
v 34.000000 -14.844362 12.686107
v 128.934662 -14.804718 12.776941
v 128.934662 -14.844362 12.686107
f 1 2 5
f 1 5 9
f 1 9 13
f 1 13 17
f 1 17 21
f 1 21 25
f 1 25 29
f 1 29 33
f 1 33 37
f 1 37 41
f 1 41 45
f 1 45 49
f 1 49 53
f 1 53 60
f 1 60 65
f 1 65 69
f 1 69 73
f 1 73 77
f 1 77 81
f 1 81 85
f 1 85 89
f 1 89 93
f 1 93 97
f 1 97 101
f 1 101 98
f 1 98 94
f 1 94 90
f 1 90 86
f 1 86 82
f 1 82 78
f 1 78 74
f 1 74 70
f 1 70 66
f 1 66 61
f 1 61 55
f 1 55 51
f 1 51 47
f 1 47 43
f 1 43 39
f 1 39 35
f 1 35 31
f 1 31 27
f 1 27 23
f 1 23 19
f 1 19 15
f 1 15 11
f 1 11 7
f 1 7 3
f 1 3 8
f 1 8 4
f 1 4 6
f 1 6 2
f 2 6 10
f 2 10 5
f 3 7 12
f 3 12 8
f 4 8 12
f 4 12 16
f 4 16 20
f 4 20 24
f 4 24 28
f 4 28 32
f 4 32 36
f 4 36 40
f 4 40 44
f 4 44 48
f 4 48 52
f 4 52 56
f 4 56 62
f 4 62 67
f 4 67 71
f 4 71 75
f 4 75 79
f 4 79 83
f 4 83 87
f 4 87 91
f 4 91 95
f 4 95 99
f 4 99 102
f 4 102 103
f 4 103 100
f 4 100 96
f 4 96 92
f 4 92 88
f 4 88 84
f 4 84 80
f 4 80 76
f 4 76 72
f 4 72 68
f 4 68 63
f 4 63 57
f 4 57 54
f 4 54 50
f 4 50 46
f 4 46 42
f 4 42 38
f 4 38 34
f 4 34 30
f 4 30 26
f 4 26 22
f 4 22 18
f 4 18 14
f 4 14 10
f 4 10 6
f 5 10 14
f 5 14 9
f 7 11 16
f 7 16 12
f 9 14 18
f 9 18 13
f 11 15 20
f 11 20 16
f 13 18 22
f 13 22 17
f 15 19 24
f 15 24 20
f 17 22 26
f 17 26 21
f 19 23 28
f 19 28 24
f 21 26 30
f 21 30 25
f 23 27 32
f 23 32 28
f 25 30 34
f 25 34 29
f 27 31 36
f 27 36 32
f 29 34 38
f 29 38 33
f 31 35 40
f 31 40 36
f 33 38 42
f 33 42 37
f 35 39 44
f 35 44 40
f 37 42 46
f 37 46 41
f 39 43 48
f 39 48 44
f 41 46 50
f 41 50 45
f 43 47 52
f 43 52 48
f 45 50 54
f 45 54 49
f 47 51 56
f 47 56 52
f 49 54 57
f 49 57 53
f 51 55 62
f 51 62 56
f 53 57 64
f 53 64 58
f 53 58 59
f 53 59 60
f 55 61 67
f 55 67 62
f 57 63 64
f 58 64 68
f 58 68 72
f 58 72 69
f 58 69 65
f 58 65 59
f 59 65 60
f 61 66 71
f 61 71 67
f 63 68 64
f 66 70 75
f 66 75 71
f 69 72 76
f 69 76 73
f 70 74 79
f 70 79 75
f 73 76 80
f 73 80 77
f 74 78 83
f 74 83 79
f 77 80 84
f 77 84 81
f 78 82 87
f 78 87 83
f 81 84 88
f 81 88 85
f 82 86 91
f 82 91 87
f 85 88 92
f 85 92 89
f 86 90 95
f 86 95 91
f 89 92 96
f 89 96 93
f 90 94 99
f 90 99 95
f 93 96 100
f 93 100 97
f 94 98 102
f 94 102 99
f 97 100 103
f 97 103 101
f 98 101 103
f 98 103 102
