# https://github.com/mikedh/trimesh
v 16.63545885 -8.45366130 16.70248509
v 16.63545885 -7.18848090 16.68845680
v 14.39201829 -10.69661555 16.70248509
v 16.63545885 -32.45060481 16.70248509
v 14.47231294 -9.49958281 16.67723187
v 16.63545885 -6.85959399 16.68003905
v 13.70209534 -9.97958095 16.66039639
v 13.62953571 -10.69661555 16.67021772
v 13.58254968 -11.97660996 16.67021772
v 13.58195468 -13.25660437 16.67021772
v 13.57957468 -27.33358693 16.67021772
v 13.57897968 -31.17060850 16.67021772
v 14.39201829 -31.17060850 16.70248509
v 15.67194596 -32.45060481 16.69827813
v 16.63545885 -33.51133937 16.66600885
v 16.29823048 -6.20181826 16.64636809
v 16.63545885 -6.17811452 16.65338224
v 10.55937532 -4.61367617 11.62792970
v 12.44060509 -11.23587162 15.50715249
v 12.94258395 -11.97660996 16.22267003
v 12.94198895 -13.25660437 16.22407171
v 12.94139394 -17.09658950 16.22687699
v 12.94020394 -27.33358693 16.23389305
v 12.93961275 -31.17060850 16.23529473
v 13.63667191 -31.92912441 16.66039639
v 14.46755293 -32.39430854 16.67302300
v 14.94455318 -33.12022907 16.65338224
v 15.67194596 -33.18245246 16.66600885
v 16.63545885 -34.02689265 16.42750300
v 16.63545885 -5.94107901 16.31245990
v 16.63545885 -5.83441265 15.99819248
v 16.63545885 -4.61367617 12.10494139
v 10.55937532 -4.61367617 2.37251165
v 10.55937532 -13.25067915 11.65458651
v 12.42454768 -11.97660996 15.58291311
v 12.42454768 -13.25660437 15.58431575
v 12.42276268 -23.49360180 15.59133085
v 12.42216768 -26.05359061 15.59273349
v 12.93961275 -28.61357943 16.23389305
v 12.42157268 -29.89357574 15.59413709
v 12.42157268 -31.17060850 15.59413709
v 12.43882008 -31.98542067 15.51557023
v 13.10971444 -32.38541785 16.01783515
v 14.09106974 -32.78245528 16.51869647
v 13.43564160 -33.25059917 15.66568789
v 14.46755293 -33.41652441 16.05431139
v 16.63545885 -34.57503750 15.84526954
v 16.63545885 -34.09207579 16.35875748
v 16.63545885 -4.61367617 6.21104790
v 13.11268563 -4.61367617 2.37251165
v 10.55937532 -29.89950287 2.37251165
v 10.55937532 -14.53067356 11.65598915
v 10.55937532 -17.09066428 11.65739179
v 10.55937532 -29.89357574 11.65458651
v 10.55937532 -31.12023554 11.59706401
v 10.55937532 -18.37658391 11.65739179
v 10.55937532 -31.17060850 11.55216907
v 10.55937532 -31.92319728 10.79596642
v 12.63687539 -32.71430476 14.71868056
v 13.27624612 -33.33060013 14.71868056
v 14.39201829 -33.85800385 14.71868056
v 16.04783414 -34.49207679 15.60676370
v 10.55937532 -31.95578885 10.73563864
v 16.63545885 -34.87725996 14.71868056
v 15.35196499 -4.61367617 3.20166918
v 16.63545885 -32.13652809 6.21104790
v 13.42612540 -4.61367617 2.39355648
v 13.11268563 -31.17060850 2.37251165
v 11.83275797 -31.17060850 2.37812364
v 10.55937532 -31.18838606 2.45248115
v 10.55937532 -32.11578696 9.60624437
v 15.27583535 -34.26096459 14.71868056
v 11.83275797 -32.69652719 9.59922927
v 15.91579728 -34.55133280 14.71868056
v 16.63545885 -34.88022353 9.59922927
v 15.03852523 -19.65658023 2.55630123
v 15.03793023 -9.41958376 2.55630123
v 15.11465487 -4.61367617 2.71483710
v 15.35196499 -27.33358693 3.20166918
v 16.63545885 -33.37800571 6.22788386
v 15.35136999 -32.45060481 3.20166918
v 14.39201829 -4.61367617 2.46230201
v 14.39201829 -27.33358693 2.46089889
v 14.39201829 -31.17060850 2.46089889
v 14.39201829 -32.45060481 2.47633173
v 13.15551046 -32.43578699 2.46089889
v 13.60990830 -33.14689733 2.51982403
v 11.83275797 -32.00912155 2.47212286
v 10.97630334 -31.89060571 2.50579430
v 10.55937532 -31.19727294 2.45388426
v 10.55937532 -32.11578696 4.48118110
v 11.83275797 -32.69652719 4.48118110
v 16.63545885 -34.88022353 8.32112094
v 15.03852523 -32.45060481 2.55630123
v 14.55022377 -4.61367617 2.48474947
v 15.03793023 -4.61367617 2.55770434
v 16.63545885 -34.16615344 6.47200122
v 15.03614523 -33.09948794 2.55770434
v 14.39201829 -33.13800664 2.52683866
v 14.39201829 -33.46689355 3.20166918
v 13.38389938 -33.25356273 3.20166918
v 10.55937532 -31.97949355 3.29847463
v 10.55937532 -31.75727204 2.72886683
v 10.55937532 -31.98542067 3.32232474
v 12.58929436 -33.04022811 4.48118110
v 16.63545885 -34.83577770 7.97318303
v 13.22926010 -33.32170944 4.48118110
v 16.63545885 -34.18985432 6.50567218
v 16.63545885 -34.49207679 6.95742970
v 16.63545885 -34.58689175 7.10053320
f 1 2 3
f 1 3 13
f 1 13 4
f 1 4 15
f 1 15 29
f 1 29 48
f 1 48 47
f 1 47 64
f 1 64 75
f 1 75 93
f 1 93 106
f 1 106 110
f 1 110 109
f 1 109 108
f 1 108 97
f 1 97 80
f 1 80 66
f 1 66 49
f 1 49 32
f 1 32 31
f 1 31 30
f 1 30 17
f 1 17 6
f 1 6 2
f 2 5 3
f 2 6 5
f 3 5 7
f 3 7 8
f 3 8 9
f 3 9 10
f 3 10 11
f 3 11 12
f 3 12 13
f 4 13 14
f 4 14 15
f 5 6 16
f 5 16 7
f 6 17 16
f 7 16 18
f 7 18 19
f 7 19 20
f 7 20 8
f 8 20 9
f 9 20 21
f 9 21 22
f 9 22 23
f 9 23 24
f 9 24 10
f 10 24 11
f 11 24 12
f 12 24 25
f 12 25 13
f 13 25 26
f 13 26 14
f 14 26 27
f 14 27 28
f 14 28 15
f 15 28 27
f 15 27 29
f 16 17 30
f 16 30 18
f 18 30 31
f 18 31 32
f 18 32 49
f 18 49 65
f 18 65 78
f 18 78 96
f 18 96 95
f 18 95 82
f 18 82 67
f 18 67 50
f 18 50 33
f 18 33 51
f 18 51 70
f 18 70 90
f 18 90 103
f 18 103 102
f 18 102 104
f 18 104 91
f 18 91 71
f 18 71 63
f 18 63 58
f 18 58 57
f 18 57 55
f 18 55 54
f 18 54 56
f 18 56 53
f 18 53 52
f 18 52 34
f 18 34 35
f 18 35 19
f 19 35 20
f 20 35 21
f 21 35 36
f 21 36 22
f 22 36 37
f 22 37 38
f 22 38 23
f 23 38 39
f 23 39 24
f 24 39 40
f 24 40 41
f 24 41 42
f 24 42 25
f 25 42 43
f 25 43 44
f 25 44 27
f 25 27 26
f 27 44 45
f 27 45 46
f 27 46 47
f 27 47 48
f 27 48 29
f 33 50 68
f 33 68 51
f 34 52 36
f 34 36 35
f 36 52 37
f 37 52 38
f 38 40 39
f 38 52 40
f 40 52 53
f 40 53 56
f 40 56 41
f 41 54 55
f 41 55 42
f 41 56 54
f 42 55 57
f 42 57 58
f 42 58 59
f 42 59 45
f 42 45 43
f 43 45 44
f 45 60 61
f 45 61 62
f 45 62 47
f 45 47 46
f 45 59 63
f 45 63 60
f 47 62 64
f 49 66 79
f 49 79 65
f 50 67 68
f 51 68 69
f 51 69 70
f 58 63 59
f 60 63 71
f 60 71 61
f 61 72 62
f 61 71 73
f 61 73 72
f 62 72 74
f 62 74 64
f 64 74 75
f 65 76 77
f 65 77 78
f 65 79 94
f 65 94 76
f 66 80 81
f 66 81 79
f 67 82 83
f 67 83 84
f 67 84 68
f 68 84 85
f 68 85 86
f 68 86 69
f 69 86 87
f 69 87 88
f 69 88 89
f 69 89 70
f 70 89 90
f 71 91 92
f 71 92 73
f 72 75 74
f 72 73 75
f 73 92 93
f 73 93 75
f 76 94 84
f 76 84 83
f 76 83 77
f 77 95 96
f 77 96 78
f 77 83 95
f 79 81 94
f 80 97 98
f 80 98 81
f 81 98 94
f 82 95 83
f 84 94 98
f 84 98 85
f 85 98 99
f 85 99 86
f 86 99 87
f 87 99 100
f 87 100 101
f 87 101 102
f 87 102 89
f 87 89 88
f 89 102 103
f 89 103 90
f 91 104 92
f 92 105 93
f 92 104 105
f 93 105 107
f 93 107 101
f 93 101 106
f 97 108 98
f 98 108 109
f 98 109 110
f 98 110 100
f 98 100 99
f 100 110 106
f 100 106 101
f 101 107 105
f 101 105 104
f 101 104 102

