# https://github.com/mikedh/trimesh
v 47.66727881 -21.19503972 -16.70387974
v 47.66727881 -13.25645562 -16.70387974
v 48.46594396 -21.19503972 -16.66951270
v 37.91532560 -21.19503972 -16.70306162
v 48.46594396 -13.25645562 -16.66951270
v 37.91532560 -13.25645562 -16.70306162
v 72.93323591 -21.19503972 -14.77853694
v 37.91532560 -21.19503972 -10.31989169
v 49.10693474 -13.25645562 -16.12374023
v 72.93323591 -14.62268515 -12.15686347
v 72.93323591 -14.84650477 -12.96693089
v 72.93323591 -14.92499534 -13.24922749
v 72.93323591 -15.35009700 -13.88909883
v 72.93323591 -15.82493655 -14.23931043
v 72.93323591 -15.99046894 -14.36041129
v 72.93323591 -16.81113959 -14.62143278
v 72.93323591 -17.09635303 -14.71144006
v 72.93323591 -18.04525216 -14.76135342
v 72.93323591 -18.37476458 -14.77853694
v 37.91532560 -13.25645562 -13.25331813
v 72.93323591 -21.19503972 -9.41327101
v 37.94617603 -21.19503972 -8.34545365
v 37.91532560 -21.18882272 -8.34545365
v 49.61424191 -13.25645562 -15.48386794
v 72.93323591 -14.57139300 -10.87711984
v 37.91532560 -14.56983875 -8.34545365
v 43.82819572 -13.25645562 -13.25250000
v 72.93323591 -19.71146146 -8.34545365
v 38.21353943 -21.19503972 -8.34545365
v 49.64166441 -13.25645562 -14.71634978
v 72.93323591 -14.57061683 -8.34545365
v 69.45064053 -14.56983875 -8.34545365
v 46.38872614 -13.25645562 -13.25250000
v 49.64166441 -13.25645562 -14.71553165
v 49.61766984 -13.25645562 -14.02574696
v 48.94925847 -13.25645562 -13.62071324
v 47.66727881 -13.25645562 -13.25904597
f 1 2 5
f 1 5 3
f 1 3 7
f 1 7 21
f 1 21 29
f 1 29 22
f 1 22 8
f 1 8 4
f 1 4 6
f 1 6 2
f 2 6 20
f 2 20 27
f 2 27 33
f 2 33 37
f 2 37 36
f 2 36 35
f 2 35 34
f 2 34 30
f 2 30 24
f 2 24 9
f 2 9 5
f 3 5 19
f 3 19 7
f 4 8 23
f 4 23 26
f 4 26 20
f 4 20 6
f 5 9 10
f 5 10 11
f 5 11 12
f 5 12 13
f 5 13 14
f 5 14 15
f 5 15 16
f 5 16 17
f 5 17 18
f 5 18 19
f 7 19 18
f 7 18 17
f 7 17 16
f 7 16 15
f 7 15 14
f 7 14 13
f 7 13 12
f 7 12 11
f 7 11 10
f 7 10 25
f 7 25 31
f 7 31 28
f 7 28 21
f 8 22 23
f 9 24 10
f 10 24 25
f 20 26 27
f 21 28 29
f 22 29 28
f 22 28 31
f 22 31 32
f 22 32 26
f 22 26 23
f 24 30 25
f 25 30 31
f 26 32 33
f 26 33 27
f 30 34 31
f 31 34 35
f 31 35 36
f 31 36 37
f 31 37 33
f 31 33 32

