# https://github.com/mikedh/trimesh
v 33.29613644 -17.09477815 18.56189985
v 33.29613644 -17.09477815 18.83635753
v 33.29704039 -15.81471495 17.28213892
v 33.29658841 -19.65490455 17.28213892
v 33.29658841 -38.84816330 17.28213892
v 33.32507410 -15.81471495 18.83635753
v 33.33456933 -6.85811527 17.28213892
v 33.29658841 -38.84816330 18.83635753
v 33.72975123 -6.85811527 16.00272316
v 33.73155912 -27.33143722 16.00272316
v 33.73291695 -38.84816330 16.00272316
v 33.35988930 -40.12822841 17.28213892
v 33.35898536 -40.12822841 18.56189985
v 33.34542047 -39.85529828 18.83635753
v 33.72975123 -9.41824263 16.00272316
v 33.71573438 -14.54618372 18.83635753
v 34.86917673 -5.57805207 18.59135622
v 33.87760523 -5.57805207 18.23823442
v 33.48197135 -5.57805207 17.28213892
v 33.89930752 -5.65493310 15.93237571
v 34.20677251 -6.13159395 15.34915433
v 34.19546749 -6.85811527 15.34257118
v 34.19818123 -28.61150233 15.34395570
v 34.19908517 -36.28803690 15.34464987
v 34.19953715 -38.84816330 15.34499695
v 34.20948435 -39.68616536 15.35088784
v 33.86991789 -40.11669454 15.88801951
v 34.19637334 -14.53464985 15.34291635
v 33.96125249 -41.18149124 16.23802232
v 33.82651141 -41.38907040 17.28213892
v 33.82560746 -41.39291120 18.56189985
v 33.82515549 -41.39291120 18.83635753
v 33.35898536 -40.12822841 18.83635753
v 34.86917673 -13.51598100 18.83635753
v 36.14876889 -5.57805207 18.62878219
v 36.14876889 -4.29798887 18.37754290
v 34.91032145 -4.26723761 18.21570924
v 34.04670955 -4.67470477 18.10793677
v 33.92960300 -4.54016392 17.28213892
v 34.01234632 -4.66701743 16.31218103
v 34.86917673 -6.85811527 15.30930260
v 34.53458197 -5.27821912 15.45900644
v 35.38779470 -4.85537537 15.34118475
v 34.92433831 -5.65493310 15.32836171
v 34.86917673 -8.13817943 15.30930260
v 34.19592137 -9.41824263 15.34257118
v 34.86917673 -37.56809819 15.31138129
v 34.19953715 -37.56809819 15.34464987
v 34.86917673 -38.84816330 15.31172837
v 34.83933323 -40.11669454 15.32905587
v 35.24582016 -40.92394342 15.34083766
v 34.39260743 -40.53953828 15.38484869
v 34.86917673 -23.49124953 15.31034194
v 34.74528679 -41.48132610 15.83465247
v 35.09841813 -42.25013257 16.28411203
v 34.25153492 -42.03102335 17.28213892
v 33.91558615 -41.53129858 18.83635753
v 36.14876889 -13.48907435 18.83635753
v 37.91532953 -5.57805207 18.62843510
v 37.91532953 -5.08986117 18.53313764
v 37.91532953 -13.48907435 18.83635753
v 37.91532953 -4.29798887 18.37754290
v 36.14876889 -3.57915489 18.02442110
v 35.36383065 -3.60606344 17.99011413
v 34.64490894 -3.89821096 17.28213892
v 35.35524127 -3.59453148 16.46881606
v 34.94513856 -4.33258667 15.96391077
v 36.14876889 -6.85811527 15.29648146
v 36.14876889 -5.57805207 15.29682664
v 36.14876889 -4.80924561 15.33009522
v 36.14876889 -4.17113728 15.70400774
v 34.86917673 -18.37484135 15.30999486
v 36.14876889 -40.12822841 15.29648146
v 36.14876889 -41.05848236 15.32974814
v 36.14876889 -41.70043532 15.43960024
v 36.14876889 -42.36161139 16.07930860
v 36.14876889 -42.67682093 17.28213892
v 34.89178297 -42.35007752 17.28213892
v 34.88907113 -42.35007752 18.56189985
v 34.24927506 -42.03102335 18.56189985
v 34.24882308 -42.03102335 18.83635753
v 37.91532953 -42.69988486 18.83635753
v 37.91532953 -3.57915489 18.02442110
v 37.91532953 -3.52149507 17.74233997
v 37.42836105 -3.43692670 17.28213892
v 36.14876889 -3.45999063 17.28213892
v 35.28470501 -3.57146755 17.28213892
v 36.14876889 -3.54071437 16.34406222
v 37.42836105 -5.57805207 15.29648146
v 37.91532953 -33.72791050 15.29613438
v 37.42836105 -4.80540289 15.32974814
v 37.91532953 -5.09754851 15.31692700
v 37.42836105 -4.16729265 15.66623660
v 37.42836105 -3.51380773 16.30594305
v 37.91532953 -38.84816330 15.29613438
v 37.91532953 -40.12822841 15.29648146
v 37.91532953 -40.50109586 15.30895551
v 37.42836105 -41.11229946 15.32974814
v 37.42836105 -41.75425242 15.41395607
v 37.42836105 -42.37314526 16.05366442
v 37.42836105 -42.69988486 17.28213892
v 36.14876889 -42.67682093 18.56189985
v 34.88861916 -42.35007752 18.83635753
v 37.42836105 -42.69988486 18.83635753
v 37.91532953 -42.70372949 17.76867640
v 37.91532953 -3.43692670 17.28213892
v 37.91532953 -3.46383525 16.91134348
v 37.91532953 -5.57805207 15.29648146
v 37.91532953 -4.40946579 15.53836473
v 37.91532953 -4.80540289 15.32974814
v 37.91532953 -4.16729265 15.66623660
v 37.91532953 -3.51380773 16.30594305
v 37.91532953 -41.11229946 15.32974814
v 37.91532953 -41.35831722 15.36163029
v 37.91532953 -41.75425242 15.41395607
v 37.91532953 -42.37314526 16.05366442
v 37.91532953 -42.49999495 16.52114280
v 37.91532953 -42.69988486 17.28213892
v 36.42277269 -42.68066556 18.83635753
v 36.14876889 -42.67297631 18.83635753
f 1 2 3
f 1 3 4
f 1 4 5
f 1 5 8
f 1 8 2
f 2 6 7
f 2 7 3
f 2 8 14
f 2 14 33
f 2 33 32
f 2 32 57
f 2 57 81
f 2 81 103
f 2 103 120
f 2 120 119
f 2 119 104
f 2 104 82
f 2 82 61
f 2 61 58
f 2 58 34
f 2 34 16
f 2 16 6
f 3 7 9
f 3 9 4
f 4 9 15
f 4 15 5
f 5 10 11
f 5 11 12
f 5 12 13
f 5 13 14
f 5 14 8
f 5 15 10
f 6 16 17
f 6 17 18
f 6 18 7
f 7 18 19
f 7 19 9
f 9 19 20
f 9 20 21
f 9 21 22
f 9 22 15
f 10 15 22
f 10 22 11
f 11 23 24
f 11 24 25
f 11 25 26
f 11 26 27
f 11 27 12
f 11 22 28
f 11 28 23
f 12 27 29
f 12 29 30
f 12 30 31
f 12 31 32
f 12 32 13
f 13 33 14
f 13 32 33
f 16 34 35
f 16 35 17
f 17 35 36
f 17 36 37
f 17 37 38
f 17 38 18
f 18 38 19
f 19 38 39
f 19 39 40
f 19 40 20
f 20 40 21
f 21 41 22
f 21 40 42
f 21 42 43
f 21 43 44
f 21 44 41
f 22 41 45
f 22 45 46
f 22 46 28
f 23 47 48
f 23 48 24
f 23 28 47
f 24 48 25
f 25 49 26
f 25 48 47
f 25 47 49
f 26 50 51
f 26 51 52
f 26 52 27
f 26 49 50
f 27 52 29
f 28 46 53
f 28 53 47
f 29 54 55
f 29 55 56
f 29 56 30
f 29 52 54
f 30 57 31
f 30 56 57
f 31 57 32
f 34 58 35
f 35 59 60
f 35 60 36
f 35 58 61
f 35 61 59
f 36 62 83
f 36 83 63
f 36 63 64
f 36 64 37
f 36 60 62
f 37 64 38
f 38 64 65
f 38 65 39
f 39 65 40
f 40 65 66
f 40 66 67
f 40 67 42
f 41 68 73
f 41 73 45
f 41 44 69
f 41 69 68
f 42 67 43
f 43 70 69
f 43 69 44
f 43 67 66
f 43 66 71
f 43 71 70
f 45 72 46
f 45 73 72
f 46 72 53
f 47 73 49
f 47 53 73
f 49 73 50
f 50 73 51
f 51 74 75
f 51 75 52
f 51 73 74
f 52 75 54
f 53 72 73
f 54 75 55
f 55 76 77
f 55 77 78
f 55 78 56
f 55 75 76
f 56 78 79
f 56 79 80
f 56 80 57
f 57 80 81
f 59 61 82
f 59 82 105
f 59 105 118
f 59 118 117
f 59 117 116
f 59 116 115
f 59 115 114
f 59 114 113
f 59 113 97
f 59 97 96
f 59 96 95
f 59 95 90
f 59 90 108
f 59 108 92
f 59 92 110
f 59 110 109
f 59 109 111
f 59 111 112
f 59 112 107
f 59 107 106
f 59 106 84
f 59 84 83
f 59 83 62
f 59 62 60
f 63 83 84
f 63 84 85
f 63 85 86
f 63 86 64
f 64 86 87
f 64 87 65
f 65 87 66
f 66 87 86
f 66 86 88
f 66 88 71
f 68 69 89
f 68 89 90
f 68 90 95
f 68 95 73
f 69 70 91
f 69 91 92
f 69 92 89
f 70 71 93
f 70 93 91
f 71 88 94
f 71 94 93
f 73 95 96
f 73 96 97
f 73 97 98
f 73 98 74
f 74 98 99
f 74 99 75
f 75 99 76
f 76 99 100
f 76 100 101
f 76 101 77
f 77 101 104
f 77 104 102
f 77 102 103
f 77 103 79
f 77 79 78
f 79 103 81
f 79 81 80
f 82 104 105
f 84 106 85
f 85 106 107
f 85 107 94
f 85 94 86
f 86 94 88
f 89 92 108
f 89 108 90
f 91 93 109
f 91 109 110
f 91 110 92
f 93 111 109
f 93 94 112
f 93 112 111
f 94 107 112
f 97 113 98
f 98 113 114
f 98 114 99
f 99 114 115
f 99 115 116
f 99 116 100
f 100 116 117
f 100 117 101
f 101 105 104
f 101 117 118
f 101 118 105
f 102 104 119
f 102 119 120
f 102 120 103

