# https://github.com/mikedh/trimesh
v 115.05428953 -42.70386751 14.71864432
v 115.05428953 -42.70176975 12.16019641
v 118.05649010 -42.70386751 14.71864432
v 115.05428953 -42.48996839 15.51970091
v 123.65509279 -42.70176975 12.16019641
v 115.05428953 -42.69128476 11.71758322
v 123.65509279 -42.70176975 14.71864432
v 123.65509279 -42.58014159 15.17721956
v 123.65509279 -42.37672746 15.94199729
v 115.05428953 -42.37672746 15.94199729
v 123.65509279 -42.66821702 10.88024681
v 115.05428953 -42.66402150 10.88024681
v 123.65509279 -41.73503393 16.58197065
v 115.05428953 -41.95732027 16.36066454
v 115.05428953 -42.55917161 10.44706687
v 123.65509279 -42.32640028 9.81289668
v 123.65509279 -41.49597313 16.61534793
v 115.05428953 -41.73503393 16.58197065
v 115.05428953 -42.34317473 9.81362231
v 115.05428953 -41.90699309 9.60247412
v 123.65509279 -41.40999546 9.39060030
v 115.05428953 -41.09543816 16.67121892
v 123.65509279 -41.09543816 16.67121892
v 115.05428953 -41.40999546 9.37971674
v 123.65509279 -40.69909871 9.33690621
v 115.05428953 -40.46422962 16.69226137
v 123.65509279 -40.13080011 16.70314493
v 115.05428953 -40.13080011 9.29554791
v 123.65509279 -40.13080011 9.30062640
v 115.05428953 -40.13080011 16.70314493
v 120.61584958 -37.57241322 16.70387152
v 123.65509279 -21.28262695 16.70314493
v 115.05428953 -39.48491487 9.29482227
v 123.65509279 -21.28262695 9.29409664
v 115.05428953 -39.38006117 16.67121892
v 120.61584958 -21.28262695 16.70387152
v 120.26982969 -21.28262695 16.69806645
v 119.33616984 -21.28262695 16.68210439
v 119.16021349 -21.28262695 16.67339678
v 118.68201561 -21.28262695 16.64945180
v 115.05428953 -21.28262695 9.29119410
v 115.05428953 -21.28262695 14.62867042
f 1 2 5
f 1 5 3
f 1 3 4
f 1 4 10
f 1 10 14
f 1 14 18
f 1 18 22
f 1 22 26
f 1 26 30
f 1 30 35
f 1 35 42
f 1 42 41
f 1 41 33
f 1 33 28
f 1 28 24
f 1 24 20
f 1 20 19
f 1 19 15
f 1 15 12
f 1 12 6
f 1 6 2
f 2 6 5
f 3 5 7
f 3 7 8
f 3 8 9
f 3 9 4
f 4 9 10
f 5 6 11
f 5 11 16
f 5 16 21
f 5 21 25
f 5 25 29
f 5 29 34
f 5 34 32
f 5 32 27
f 5 27 23
f 5 23 17
f 5 17 13
f 5 13 9
f 5 9 8
f 5 8 7
f 6 12 11
f 9 13 14
f 9 14 10
f 11 12 15
f 11 15 16
f 13 17 18
f 13 18 14
f 15 19 16
f 16 19 20
f 16 20 21
f 17 22 18
f 17 23 22
f 20 24 21
f 21 24 25
f 22 23 26
f 23 27 26
f 24 28 25
f 25 28 29
f 26 27 30
f 27 31 30
f 27 32 36
f 27 36 31
f 28 33 29
f 29 33 34
f 30 31 36
f 30 36 37
f 30 37 38
f 30 38 39
f 30 39 40
f 30 40 35
f 32 34 41
f 32 41 42
f 32 42 40
f 32 40 39
f 32 39 38
f 32 38 37
f 32 37 36
f 33 41 34
f 35 40 42

