# https://github.com/mikedh/trimesh
v 10.55937532 39.20712804 11.65899753
v 10.55937532 53.29685926 11.65445207
v 6.17648974 53.28826225 11.62808608
v 6.17648974 -23.48744201 11.62899574
v 6.17648974 -27.33009702 11.62899574
v 10.55937532 -18.37250091 11.65717916
v 10.55937532 54.56914725 11.62990541
v 6.17648974 54.56914725 11.61081197
v 6.17648974 54.03616349 11.61808548
v 6.17648974 -28.62817221 11.61081197
v 6.71362326 -28.61098202 11.62899574
v 10.55937532 -29.89186321 11.65536078
v 10.55937532 55.25686947 11.55717223
v 10.55250993 55.25686947 11.56080899
v 6.17648974 55.25686947 11.55626352
v 6.17648974 -29.36747645 11.56353703
v 10.55937532 -31.11257299 11.59717557
v 9.27273864 -29.89186321 11.62808608
v 10.55937532 55.50617115 10.87894620
v 10.55250993 55.50617115 10.87894620
v 6.17648974 55.49757415 10.87894620
v 6.17648974 -29.83168799 10.90621995
v 8.44258230 -30.58818624 11.55444514
v 10.55937532 -31.16415121 11.55171805
v 10.55937532 55.70389081 9.59976992
v 9.27273864 55.70389081 9.59976992
v 7.99339835 55.66090960 9.59976992
v 6.17648974 55.54915236 10.13616922
v 6.17648974 -29.95204224 9.56340429
v 7.26019669 -30.57099223 10.43891707
v 8.00712534 -30.73432769 10.87076398
v 10.55937532 -31.95503366 10.73620885
v 10.55937532 -31.92064945 10.79621338
v 10.19942630 -31.52520632 11.11259764
v 10.55937532 55.70389081 4.48124880
v 9.27273864 55.70389081 4.48124880
v 6.17648974 55.56634637 9.59976992
v 7.38418579 -30.29590335 4.48124880
v 8.02385784 -30.88046532 4.48124880
v 7.24818606 -30.57958923 9.59976992
v 6.17648974 -29.56519611 8.67698124
v 7.99339835 -30.93204734 9.59976992
v 9.26072801 -31.52520632 9.59976992
v 9.90468712 -31.80889221 10.25890442
v 10.55937532 -32.11836911 9.59976992
v 10.55937532 55.54915236 3.19752729
v 9.27273864 55.54915236 3.20116381
v 7.99425653 55.35143270 3.29480641
v 7.99339835 55.47178313 4.48124880
v 7.34557555 55.22248526 3.78392981
v 6.17648974 55.42880193 8.94154508
v 7.33441928 -29.52221490 3.70483375
v 7.59612063 -29.92625123 3.24753075
v 8.17144102 -30.77730889 3.20116381
v 9.90468712 -31.80889221 3.81575022
v 9.26072801 -31.52520632 4.48124880
v 6.17648974 -29.35028244 8.56242825
v 9.90039625 -31.81748922 9.59976992
v 10.55937532 -32.11836911 8.31968493
v 10.55937532 55.29985449 2.48566200
v 9.27273864 55.29985449 2.48566200
v 8.42070075 55.27406347 2.51111833
v 7.63945274 54.56914725 3.05660879
v 7.33356110 54.56914725 3.69665129
v 6.17648974 53.28826225 6.54138560
v 6.17648974 54.43160281 7.10324075
v 6.17648974 54.66371049 7.41144326
v 6.17648974 55.31704468 8.59333971
v 6.17648974 -26.15236844 6.97686879
v 6.17648974 -24.75973001 6.63411902
v 7.32497935 -28.61098202 3.63664747
v 7.60384421 -28.61098202 2.99751416
v 8.42370627 -30.63116745 2.49929935
v 8.28169932 -29.89186321 2.46747871
v 10.55079358 -31.98082467 3.31389865
v 10.55250993 -32.10977211 4.48124880
v 9.90039625 -31.81748922 4.48124880
v 10.55937532 -32.10977211 4.48124880
v 10.55937532 54.56914725 2.39111021
v 9.27273864 54.56914725 2.39111021
v 8.27955579 54.56914725 2.47657059
v 7.60384421 53.28826225 2.99751416
v 7.32497935 53.28826225 3.63664747
v 6.17648974 46.89243805 6.52683906
v 6.17648974 -22.20655700 6.52592987
v 6.17648974 -15.81073090 6.52047522
v 8.24394344 -28.61098202 2.46656952
v 9.27273864 -29.89186321 2.37201820
v 9.27273864 -30.77730889 2.46747871
v 10.55937532 -31.19853922 2.45293264
v 10.55937532 -31.75731400 2.72931451
v 10.55937532 -31.98082467 3.31298947
v 10.55937532 53.28826225 2.37110901
v 9.27273864 53.28826225 2.37110901
v 8.24394344 53.28826225 2.46656952
v 6.17648974 18.73876568 6.52047522
v 9.27273864 -28.61098202 2.37110901
v 10.55937532 -29.89186321 2.37201820
v 10.55937532 -31.18994222 2.45202346
v 10.55937532 -10.69578980 2.37110901
f 1 2 3
f 1 3 4
f 1 4 5
f 1 5 6
f 1 6 12
f 1 12 17
f 1 17 24
f 1 24 33
f 1 33 32
f 1 32 45
f 1 45 59
f 1 59 78
f 1 78 92
f 1 92 91
f 1 91 90
f 1 90 99
f 1 99 98
f 1 98 100
f 1 100 93
f 1 93 79
f 1 79 60
f 1 60 46
f 1 46 35
f 1 35 25
f 1 25 19
f 1 19 13
f 1 13 7
f 1 7 2
f 2 7 8
f 2 8 9
f 2 9 3
f 3 9 8
f 3 8 15
f 3 15 21
f 3 21 28
f 3 28 37
f 3 37 51
f 3 51 68
f 3 68 67
f 3 67 66
f 3 66 65
f 3 65 84
f 3 84 96
f 3 96 86
f 3 86 85
f 3 85 70
f 3 70 69
f 3 69 57
f 3 57 41
f 3 41 29
f 3 29 22
f 3 22 16
f 3 16 10
f 3 10 5
f 3 5 4
f 5 10 11
f 5 11 12
f 5 12 6
f 7 13 14
f 7 14 15
f 7 15 8
f 10 16 17
f 10 17 11
f 11 17 18
f 11 18 12
f 12 18 17
f 13 19 14
f 14 19 20
f 14 20 15
f 15 20 21
f 16 22 23
f 16 23 17
f 17 23 24
f 19 25 26
f 19 26 20
f 20 26 21
f 21 26 27
f 21 27 28
f 22 29 30
f 22 30 31
f 22 31 23
f 23 31 32
f 23 32 33
f 23 33 34
f 23 34 24
f 24 34 33
f 25 35 36
f 25 36 26
f 26 36 27
f 27 36 37
f 27 37 28
f 29 38 39
f 29 39 40
f 29 40 30
f 29 41 38
f 30 40 42
f 30 42 43
f 30 43 44
f 30 44 32
f 30 32 31
f 32 44 45
f 35 46 36
f 36 46 47
f 36 47 48
f 36 48 49
f 36 49 37
f 37 49 48
f 37 48 50
f 37 50 51
f 38 41 52
f 38 52 53
f 38 53 54
f 38 54 39
f 39 54 55
f 39 55 56
f 39 56 40
f 40 56 42
f 41 57 52
f 42 56 43
f 43 56 77
f 43 77 58
f 43 58 44
f 44 58 45
f 45 58 77
f 45 77 59
f 46 60 61
f 46 61 47
f 47 61 62
f 47 62 48
f 48 62 50
f 50 62 63
f 50 63 64
f 50 64 65
f 50 65 66
f 50 66 67
f 50 67 68
f 50 68 51
f 52 57 69
f 52 69 70
f 52 70 71
f 52 71 72
f 52 72 53
f 53 73 54
f 53 72 74
f 53 74 73
f 54 73 75
f 54 75 55
f 55 75 76
f 55 76 77
f 55 77 56
f 59 77 76
f 59 76 78
f 60 79 80
f 60 80 61
f 61 80 62
f 62 80 81
f 62 81 63
f 63 81 82
f 63 82 64
f 64 82 83
f 64 83 65
f 65 83 84
f 70 85 71
f 71 85 86
f 71 86 96
f 71 96 83
f 71 83 82
f 71 82 72
f 72 87 74
f 72 82 95
f 72 95 87
f 73 74 88
f 73 88 89
f 73 89 90
f 73 90 91
f 73 91 75
f 74 87 88
f 75 91 92
f 75 92 76
f 76 92 78
f 79 93 94
f 79 94 80
f 80 94 81
f 81 94 95
f 81 95 82
f 83 96 84
f 87 97 88
f 87 95 94
f 87 94 97
f 88 98 99
f 88 99 90
f 88 90 89
f 88 97 98
f 93 100 97
f 93 97 94
f 97 100 98

