# https://github.com/mikedh/trimesh
v 90.27997887 -9.86516814 -14.71644799
v 89.80816008 -13.97023583 -14.02533694
v 89.74661942 -13.97023583 -14.71644799
v 89.66094306 -13.97023583 -15.27383157
v 89.88659535 -9.86516814 -16.09975901
v 89.78402630 -9.86516814 -13.73794755
v 89.72610522 -13.97023583 -13.62270135
v 89.45218536 -13.97023583 -15.97798973
v 89.33030738 -13.97023583 -16.26103104
v 89.17222967 -13.97023583 -16.61800315
v 89.56320076 -9.86516814 -16.38026203
v 89.48597075 -9.86516814 -13.62233901
v 88.62077036 -13.97023583 -13.09322371
v 88.85124942 -9.86516814 -16.66004227
v 89.06845536 -9.86516814 -16.64192143
v 89.20239738 -9.99858762 -16.62887527
v 88.53267967 -13.97023583 -16.66982737
v 88.62077036 -9.86516814 -13.44041072
v 88.17187820 -9.86516814 -13.40380670
v 87.34046320 -13.97023583 -13.00515877
v 88.65938442 -9.86516814 -16.67453779
v 87.34046320 -13.97023583 -16.70389309
v 87.34046320 -9.86516814 -13.37119034
v 86.06015603 -13.97023583 -13.00153441
v 87.34046320 -9.86516814 -16.70389309
v 79.66224552 -13.97023583 -16.70389309
v 80.94255268 -9.86516814 -13.37119034
v 79.66224552 -9.86516814 -13.37155268
v 82.38455524 -13.97023583 -13.00479643
v 79.66224552 -9.86516814 -16.70389309
v 78.96236106 -13.97023583 -16.66982737
v 78.67034039 -9.86516814 -16.67381311
v 78.95029417 -9.86516814 -16.68722162
v 78.43141404 -9.86516814 -13.67670057
v 79.66224552 -13.97023583 -13.03306375
v 79.82756336 -13.97023583 -13.02943939
v 80.94255268 -13.97023583 -13.00660813
v 81.10545524 -13.97023583 -13.00624579
v 78.78738971 -13.97023583 -16.37192820
v 78.27574971 -9.86516814 -16.11498113
v 77.95235512 -9.86516814 -14.71644799
v 78.47002809 -13.97023583 -13.50202004
v 78.82479755 -13.97023583 -13.35778184
v 78.56656417 -13.97023583 -15.99574823
v 78.20576174 -9.86516814 -15.99574823
v 78.15266647 -13.97023583 -14.66027473
f 1 2 3
f 1 3 4
f 1 4 5
f 1 5 11
f 1 11 15
f 1 15 14
f 1 14 21
f 1 21 25
f 1 25 30
f 1 30 33
f 1 33 32
f 1 32 40
f 1 40 45
f 1 45 41
f 1 41 34
f 1 34 28
f 1 28 27
f 1 27 23
f 1 23 19
f 1 19 18
f 1 18 12
f 1 12 6
f 1 6 7
f 1 7 2
f 2 7 13
f 2 13 20
f 2 20 24
f 2 24 29
f 2 29 38
f 2 38 37
f 2 37 36
f 2 36 35
f 2 35 43
f 2 43 42
f 2 42 46
f 2 46 44
f 2 44 39
f 2 39 31
f 2 31 26
f 2 26 22
f 2 22 17
f 2 17 10
f 2 10 9
f 2 9 8
f 2 8 4
f 2 4 3
f 4 8 5
f 5 8 9
f 5 9 10
f 5 10 11
f 6 12 13
f 6 13 7
f 10 14 15
f 10 15 16
f 10 16 11
f 10 17 14
f 11 16 15
f 12 18 13
f 13 18 19
f 13 19 20
f 14 17 21
f 17 22 21
f 19 23 20
f 20 23 24
f 21 22 25
f 22 26 30
f 22 30 25
f 23 27 24
f 24 27 28
f 24 28 29
f 26 31 32
f 26 32 33
f 26 33 30
f 28 34 35
f 28 35 36
f 28 36 37
f 28 37 38
f 28 38 29
f 31 39 40
f 31 40 32
f 34 41 42
f 34 42 43
f 34 43 35
f 39 44 40
f 40 44 45
f 41 45 46
f 41 46 42
f 44 46 45

