v 69.194748 -15.000000 40.133372
v 69.606960 -15.000000 39.250087
v 70.656614 -15.000000 40.133372
v 69.197748 -9.008222 40.133458
v 69.194748 -9.000587 40.133458
v 69.606960 -9.000000 39.250087
v 70.245152 -15.000000 39.250087
v 71.319803 -13.178152 40.133372
v 69.197748 -9.000587 40.133458
v 71.748514 -12.000000 40.133372
v 69.197997 -9.000000 40.133372
v 69.197997 -9.000000 40.127232
v 70.245152 -9.000000 39.250087
v 71.336552 -12.000000 39.250087
v 70.656364 -9.000000 40.133372
v 71.748263 -11.998825 40.133372
f 1 2 7
f 1 7 3
f 1 3 4
f 1 4 5
f 1 5 6
f 1 6 2
f 2 6 13
f 2 13 14
f 2 14 7
f 3 7 8
f 3 8 4
f 4 9 5
f 4 8 10
f 4 10 9
f 5 9 15
f 5 15 11
f 5 11 12
f 5 12 6
f 6 12 11
f 6 11 15
f 6 15 13
f 7 14 10
f 7 10 8
f 9 10 16
f 9 16 15
f 10 14 16
f 13 15 16
f 13 16 14
