# https://github.com/mikedh/trimesh
v 129.52707565 -13.97023583 -14.71578338
v 129.56592618 -14.53625360 -14.71578338
v 129.43826791 -13.97023583 -15.26629870
v 129.34945254 -13.97023583 -14.03014272
v 129.07747597 -15.04287995 -10.31354310
v 129.23289333 -15.38277820 -10.31354310
v 129.42716122 -15.81641392 -10.31354310
v 129.52152231 -16.38028626 -10.31354310
v 129.63253580 -17.09585910 -10.31354310
v 129.62698245 -15.81641392 -14.71578338
v 129.28285054 -13.97023583 -15.96132302
v 129.18848946 -13.97023583 -13.63790058
v 128.73334024 -14.90978276 -10.31354310
v 129.63808914 -20.93490978 -14.71578338
v 129.63253580 -17.09585910 -14.71578338
v 129.63253580 -21.28053109 -10.31354310
v 129.28285054 -21.28053109 -15.96132302
v 128.85545280 -21.28053109 -16.42863448
v 128.69448590 -13.97023583 -16.60129734
v 128.48356561 -13.97023583 -13.24190535
v 128.28929009 -14.73947702 -10.31354310
v 129.63808914 -21.28053109 -14.71578338
v 72.93323400 -21.28053109 -10.31354310
v 128.69448590 -21.28053109 -16.60129734
v 128.22823382 -21.28053109 -16.65134419
v 128.05616786 -13.97023583 -16.66948601
v 128.28929009 -13.97023583 -13.14806775
v 127.01265401 -14.56845423 -10.31354310
v 127.72868455 -14.66362581 -10.31354310
v 72.93323400 -14.57131672 -10.31354310
v 72.93323400 -21.28053109 -14.77834242
v 128.05616786 -21.28053109 -16.66948601
v 127.29573727 -21.28053109 -16.69450848
v 127.59546912 -13.97023583 -16.68450025
v 127.01265401 -13.97023583 -12.99167207
v 103.97769775 -14.34662749 -10.31354310
v 79.66610349 -13.97023583 -13.03296077
v 78.82796421 -13.97023583 -13.35763881
v 78.47272562 -13.97023583 -13.50214877
v 78.15634136 -13.97023583 -14.66010691
v 72.93323400 -14.57131672 -10.87719517
v 72.93323400 -18.37530428 -14.77834242
v 78.96672917 -21.28053109 -16.66948601
v 127.01265401 -21.28053109 -16.70326758
v 127.01265401 -13.97023583 -16.70326758
v 86.06593632 -13.97023583 -13.00168125
v 82.22492710 -13.97023583 -13.00480882
v 80.94273958 -13.97023583 -13.00668536
v 72.93323400 -14.62212257 -12.15714190
v 78.56708670 -13.97023583 -15.99573011
v 72.93323400 -18.04542570 -14.76145163
v 78.96672917 -13.97023583 -16.66948601
v 79.15544944 -21.28053109 -16.67886872
v 87.34257240 -21.28053109 -16.70389309
v 87.34257240 -13.97023583 -16.70389309
v 72.93323400 -14.92481036 -13.25003799
v 78.78910987 -13.97023583 -16.37170698
v 72.93323400 -17.09585910 -14.71203030
v 79.66610349 -13.97023583 -16.70389309
v 72.93323400 -15.99029921 -14.36045134
v 72.93323400 -15.82500139 -14.23908826
v 72.93323400 -15.35057567 -13.88938584
v 72.93323400 -15.24037840 -13.72423201
v 79.66610349 -21.28053109 -16.70389309
f 1 2 3
f 1 3 11
f 1 11 19
f 1 19 26
f 1 26 34
f 1 34 45
f 1 45 55
f 1 55 59
f 1 59 52
f 1 52 57
f 1 57 50
f 1 50 40
f 1 40 39
f 1 39 38
f 1 38 37
f 1 37 48
f 1 48 47
f 1 47 46
f 1 46 35
f 1 35 27
f 1 27 20
f 1 20 12
f 1 12 4
f 1 4 5
f 1 5 6
f 1 6 7
f 1 7 8
f 1 8 9
f 1 9 2
f 2 10 3
f 2 9 10
f 3 10 11
f 4 12 5
f 5 12 13
f 5 13 21
f 5 21 29
f 5 29 28
f 5 28 36
f 5 36 30
f 5 30 23
f 5 23 16
f 5 16 9
f 5 9 8
f 5 8 7
f 5 7 6
f 9 14 15
f 9 15 10
f 9 16 22
f 9 22 14
f 10 15 11
f 11 15 14
f 11 14 22
f 11 22 17
f 11 17 18
f 11 18 19
f 12 20 21
f 12 21 13
f 16 23 31
f 16 31 43
f 16 43 53
f 16 53 64
f 16 64 54
f 16 54 44
f 16 44 33
f 16 33 32
f 16 32 25
f 16 25 24
f 16 24 18
f 16 18 17
f 16 17 22
f 18 24 19
f 19 24 25
f 19 25 26
f 20 27 28
f 20 28 29
f 20 29 21
f 23 30 41
f 23 41 49
f 23 49 56
f 23 56 63
f 23 63 62
f 23 62 61
f 23 61 60
f 23 60 58
f 23 58 51
f 23 51 42
f 23 42 31
f 25 32 26
f 26 32 33
f 26 33 34
f 27 35 28
f 28 35 36
f 30 37 38
f 30 38 39
f 30 39 40
f 30 40 41
f 30 36 37
f 31 42 52
f 31 52 43
f 33 44 45
f 33 45 34
f 35 46 36
f 36 46 47
f 36 47 48
f 36 48 37
f 40 49 41
f 40 50 49
f 42 51 52
f 43 52 53
f 44 54 55
f 44 55 45
f 49 50 57
f 49 57 52
f 49 52 56
f 51 58 52
f 52 59 53
f 52 58 60
f 52 60 61
f 52 61 62
f 52 62 63
f 52 63 56
f 53 59 64
f 54 64 59
f 54 59 55

