v 56.628379 -15.000000 8.133372
v 57.040380 -15.000000 7.250087
v 58.090138 -15.000000 8.133372
v 56.628379 -9.000000 8.133372
v 57.678885 -15.000000 7.250087
v 57.040632 -9.000000 7.250087
v 58.753643 -13.178152 8.133372
v 58.090138 -9.000000 8.133372
v 58.770143 -12.000000 7.250087
v 59.182395 -12.000000 8.133372
v 57.678885 -9.000000 7.250087
f 1 2 5
f 1 5 3
f 1 3 7
f 1 7 10
f 1 10 8
f 1 8 4
f 1 4 2
f 2 4 6
f 2 6 11
f 2 11 9
f 2 9 5
f 3 5 7
f 4 8 11
f 4 11 6
f 5 9 10
f 5 10 7
f 8 10 11
f 9 11 10
