# https://github.com/mikedh/trimesh
v 28.47043596 -28.61282201 48.70388541
v 32.95170890 -28.61282201 48.70280793
v 26.61151092 -27.33231065 48.69849989
v 26.61151092 -28.61282201 48.70280793
v 26.61151092 -36.28930318 48.70280793
v 28.47043596 -37.56981454 48.70280793
v 31.02947916 -38.85032590 48.70280793
v 32.95170890 -38.85032590 48.70280793
v 32.95170890 -27.98987095 48.68665136
v 32.95170890 -27.37021528 48.67049288
v 26.61151092 -26.50500336 48.66618484
v 26.61151092 -37.55333377 48.68988191
v 27.19060352 -37.56981454 48.70173044
v 32.95170890 -40.12918956 48.69742240
v 32.95170890 -26.73078345 48.63063733
v 26.61151092 -25.96115695 48.05541986
v 26.61151092 -38.07410862 48.66941539
v 29.75026460 -38.85032590 48.69634492
v 32.30930779 -40.12918956 48.69095939
v 32.95170890 -40.90540684 48.66402987
v 32.95170890 -26.60718148 48.30963606
v 26.61151092 -25.76998610 47.38433377
v 32.95170890 -26.49017219 47.99078880
v 26.61151092 -38.27516946 48.66079741
v 32.30930779 -40.83454448 48.65864434
v 31.63959955 -40.78015908 48.64356335
v 32.95170890 -41.56956174 48.19545493
v 26.61151092 -25.59200063 46.71755572
v 32.95170890 -26.37316290 47.35201777
v 26.61151092 -38.85527280 48.06403785
v 29.02966086 -39.51612849 48.65002636
v 31.13933698 -41.03724920 48.01771738
v 32.76922850 -42.13153661 47.53729391
v 32.95170890 -42.16285046 47.59115297
v 27.47983515 -39.64961855 47.66332452
v 30.93575501 -25.43379132 42.43789953
v 28.56353459 -25.43379132 43.84254875
v 28.34381512 -25.43379132 43.95242183
v 27.38177056 -25.43379132 44.35313420
v 26.61151092 -25.43379132 44.66659593
v 32.95170890 -26.27428209 46.71755572
v 26.61151092 -39.41395228 46.71755572
v 30.12453183 -40.89057758 47.60407899
v 29.35241472 -40.65985440 46.71755572
v 32.03931452 -41.88103727 46.71755572
v 32.67923075 -42.17108894 46.71755572
v 32.95170890 -42.26832206 46.71755572
v 32.41854773 -25.43379132 41.27561702
v 26.61151092 -25.43379132 38.34244152
v 32.95170890 -25.43379132 40.66162149
v 26.61151092 -39.41395228 40.31907622
v 28.47043596 -40.25938423 42.87846840
v 31.02947916 -41.42288630 40.31907622
v 32.67861286 -42.17273663 37.75968451
v 32.95170890 -42.26996976 37.69936197
v 28.44808909 -25.43379132 37.69936197
v 26.61151092 -36.98971120 38.34244152
v 32.95170890 -25.43379132 37.69936197
v 26.61151092 -38.97722517 38.97259505
v 27.47983515 -39.64961855 39.27420681
v 30.19777419 -40.87903990 37.69936197
v 30.98292794 -41.32894857 37.69936197
v 31.99152372 -41.85961341 37.69936197
v 32.67861286 -42.17273663 37.69936197
v 28.47043596 -40.25938423 40.31907622
v 28.44808909 -37.56981454 37.69936197
v 26.61151092 -37.56981454 38.34459602
v 26.61151092 -38.79429662 38.70329882
v 29.32572357 -40.05997490 37.69936197
v 26.61151092 -38.38064106 38.37260256
v 28.47788111 -38.96568749 37.69936197
f 1 2 3
f 1 3 4
f 1 4 5
f 1 5 6
f 1 6 7
f 1 7 8
f 1 8 2
f 2 9 3
f 2 8 14
f 2 14 20
f 2 20 27
f 2 27 34
f 2 34 47
f 2 47 55
f 2 55 58
f 2 58 50
f 2 50 41
f 2 41 29
f 2 29 23
f 2 23 21
f 2 21 15
f 2 15 10
f 2 10 9
f 3 9 10
f 3 10 11
f 3 11 16
f 3 16 22
f 3 22 28
f 3 28 40
f 3 40 49
f 3 49 57
f 3 57 67
f 3 67 70
f 3 70 68
f 3 68 59
f 3 59 51
f 3 51 42
f 3 42 30
f 3 30 24
f 3 24 17
f 3 17 12
f 3 12 5
f 3 5 4
f 5 12 13
f 5 13 6
f 6 13 7
f 7 13 14
f 7 14 8
f 10 15 11
f 11 15 16
f 12 17 13
f 13 17 18
f 13 18 14
f 14 19 20
f 14 18 19
f 15 21 16
f 16 21 23
f 16 23 22
f 17 24 19
f 17 19 18
f 19 25 20
f 19 24 25
f 20 25 26
f 20 26 27
f 22 23 28
f 23 29 28
f 24 30 31
f 24 31 26
f 24 26 25
f 26 32 33
f 26 33 34
f 26 34 27
f 26 31 35
f 26 35 32
f 28 36 37
f 28 37 38
f 28 38 39
f 28 39 40
f 28 29 41
f 28 41 36
f 30 42 35
f 30 35 31
f 32 43 33
f 32 35 43
f 33 44 45
f 33 45 46
f 33 46 47
f 33 47 34
f 33 43 42
f 33 42 44
f 35 42 43
f 36 41 48
f 36 48 50
f 36 50 58
f 36 58 56
f 36 56 49
f 36 49 40
f 36 40 39
f 36 39 38
f 36 38 37
f 41 50 48
f 42 51 65
f 42 65 52
f 42 52 44
f 44 52 53
f 44 53 54
f 44 54 45
f 45 54 46
f 46 54 47
f 47 54 55
f 49 56 66
f 49 66 57
f 51 59 60
f 51 60 61
f 51 61 62
f 51 62 63
f 51 63 64
f 51 64 65
f 52 65 64
f 52 64 54
f 52 54 53
f 54 64 55
f 55 64 63
f 55 63 62
f 55 62 61
f 55 61 69
f 55 69 71
f 55 71 66
f 55 66 56
f 55 56 58
f 57 66 67
f 59 68 61
f 59 61 60
f 61 68 70
f 61 70 69
f 66 71 67
f 67 71 70
f 69 70 71

