# https://github.com/mikedh/trimesh
v 19.03674444 -3.02326924 38.37148931
v 26.61088922 -3.02326924 38.34206822
v 19.03674444 -3.02326924 43.63734006
v 19.03674444 53.29525308 38.37148931
v 26.61088922 52.01332669 38.34149133
v 26.61088922 -3.02326924 44.22403705
v 19.03674444 9.79024300 44.23442096
v 19.03674444 54.46795479 38.38533453
v 26.61088922 53.29525308 38.34206822
v 26.61088922 52.59392968 38.34149133
v 19.50980477 9.70976336 44.23442096
v 26.61088922 18.91318749 44.23442096
v 21.70975326 11.21588222 44.23442096
v 21.23150574 10.61228492 44.23442096
v 20.54638468 9.94545442 44.23442096
v 19.03674444 55.70389445 44.23442096
v 19.03674444 55.11179192 38.40610284
v 26.61088922 53.82411766 38.34841394
v 26.61088922 55.70389445 44.23442096
v 19.03674444 55.70389445 40.31906955
v 19.03674444 55.45670576 39.04645054
v 26.61088922 55.12903933 38.40610284
v 26.61088922 54.77837763 38.38014257
v 26.61088922 55.70389445 40.31906955
v 19.03674444 55.54868303 39.51892349
v 26.61088922 55.28425074 38.69627847
v 26.61088922 55.45670576 39.04645054
f 1 2 6
f 1 6 3
f 1 3 7
f 1 7 16
f 1 16 20
f 1 20 25
f 1 25 21
f 1 21 17
f 1 17 8
f 1 8 4
f 1 4 10
f 1 10 5
f 1 5 2
f 2 5 10
f 2 10 9
f 2 9 18
f 2 18 23
f 2 23 22
f 2 22 26
f 2 26 27
f 2 27 24
f 2 24 19
f 2 19 12
f 2 12 6
f 3 6 7
f 4 8 9
f 4 9 10
f 6 11 7
f 6 12 13
f 6 13 14
f 6 14 15
f 6 15 11
f 7 11 15
f 7 15 14
f 7 14 13
f 7 13 12
f 7 12 19
f 7 19 16
f 8 17 18
f 8 18 9
f 16 19 24
f 16 24 20
f 17 21 22
f 17 22 23
f 17 23 18
f 20 24 25
f 21 26 22
f 21 25 27
f 21 27 26
f 24 27 25

