# https://github.com/mikedh/trimesh
v 129.45879394 -9.67708248 17.28208933
v 129.35424917 -13.95396104 17.95176039
v 129.53471762 -13.95396104 17.28208933
v 129.32189025 -9.67708248 16.29663281
v 129.10781185 -9.67708248 18.09280238
v 129.18996017 -13.95396104 18.35510163
v 129.44261448 -13.95396104 16.72048920
v 129.28579351 -9.67708248 16.04239182
v 128.94103605 -9.67708248 18.16533723
v 128.29383869 -13.95396104 18.82951311
v 128.50790946 -13.95396104 18.72693832
v 129.28579351 -13.95396104 16.04202567
v 129.28579351 -11.97441284 16.04202567
v 129.00824831 -13.95396104 15.75188436
v 128.67219846 -13.25433682 15.40202744
v 128.67095506 -10.69490841 15.40239359
v 128.66971166 -9.67708248 15.40275975
v 128.29383869 -9.67708248 18.44632085
v 127.01437240 -9.67708248 18.62985776
v 127.01437240 -13.95396104 18.98081220
v 128.67219846 -13.95396104 15.40202744
v 128.38220401 -13.95396104 15.36905636
v 128.16066520 -9.67708248 15.34451256
v 120.61705620 -9.67708248 18.62949161
v 120.61705620 -13.95396104 19.03869419
v 120.74525227 -13.95396104 19.03759477
v 128.03246913 -13.95396104 15.32985875
v 128.03246913 -13.25433682 15.32985875
v 128.03122573 -10.69490841 15.32985875
v 128.02997852 -9.67708248 15.32985875
v 119.33635032 -9.67708248 18.58553017
v 119.48196925 -13.95396104 18.98667353
v 127.01437240 -13.95396104 15.29652151
v 127.01437240 -9.67708248 15.29652151
v 118.10169220 -9.67708248 18.29648733
v 119.33635032 -13.95396104 18.97641644
v 120.61705620 -13.95396104 15.29615536
v 120.61705620 -13.25433682 15.29615536
v 120.61705620 -9.67708248 15.29652151
v 116.81973911 -9.67708248 17.28208933
v 118.20499357 -13.95396104 18.40932017
v 119.33635032 -13.95396104 15.31776992
v 119.33635032 -9.67708248 15.30897649
v 119.59896328 -9.67708248 15.30494688
v 118.13529452 -13.95396104 17.28208933
v 118.30580815 -9.67708248 15.33645334
v 118.68168112 -13.95396104 15.35074100
v 118.44644966 -13.95396104 16.00282710
v 118.47880858 -9.67708248 15.32765991
f 1 2 3
f 1 3 4
f 1 4 8
f 1 8 17
f 1 17 23
f 1 23 30
f 1 30 34
f 1 34 39
f 1 39 44
f 1 44 43
f 1 43 49
f 1 49 46
f 1 46 40
f 1 40 35
f 1 35 31
f 1 31 24
f 1 24 19
f 1 19 18
f 1 18 9
f 1 9 5
f 1 5 6
f 1 6 2
f 2 6 11
f 2 11 10
f 2 10 20
f 2 20 26
f 2 26 25
f 2 25 32
f 2 32 36
f 2 36 41
f 2 41 45
f 2 45 48
f 2 48 47
f 2 47 42
f 2 42 37
f 2 37 33
f 2 33 27
f 2 27 22
f 2 22 21
f 2 21 14
f 2 14 12
f 2 12 7
f 2 7 3
f 3 7 8
f 3 8 4
f 5 9 10
f 5 10 11
f 5 11 6
f 7 12 13
f 7 13 8
f 8 13 14
f 8 14 15
f 8 15 16
f 8 16 17
f 9 18 10
f 10 18 19
f 10 19 20
f 12 14 13
f 14 21 15
f 15 21 22
f 15 22 23
f 15 23 16
f 16 23 17
f 19 24 25
f 19 25 26
f 19 26 20
f 22 27 28
f 22 28 29
f 22 29 23
f 23 29 30
f 24 31 25
f 25 31 32
f 27 33 34
f 27 34 28
f 28 34 29
f 29 34 30
f 31 35 36
f 31 36 32
f 33 37 38
f 33 38 34
f 34 38 39
f 35 40 41
f 35 41 36
f 37 42 43
f 37 43 44
f 37 44 38
f 38 44 39
f 40 45 41
f 40 46 47
f 40 47 48
f 40 48 45
f 42 47 49
f 42 49 43
f 46 49 47

