# https://github.com/mikedh/trimesh
v 72.93541192 -4.29618480 23.65714162
v 72.93541192 -5.24435744 23.79597334
v 72.93541192 -3.53386709 24.13570427
v 94.99916269 -3.53386709 24.13570427
v 94.99916269 -4.29618480 23.65877501
v 94.99916269 -5.55306393 23.84170643
v 72.93541192 -5.57406442 23.84497321
v 72.93541192 -3.49711718 24.34803581
v 94.99916269 -3.39106393 24.96216436
v 94.99916269 -5.57406442 23.84497321
v 72.93541192 -14.09711415 25.86049039
v 72.93541192 -3.39106393 24.96216436
v 94.99916269 -3.37216311 26.24105376
v 72.93541192 -3.38581381 25.29209494
v 94.99916269 -14.09711415 25.86049039
v 72.93541192 -14.09711415 38.13979067
v 94.99916269 -3.37216311 37.77882706
v 72.93541192 -3.37216311 26.24105376
v 77.10408893 -3.37111422 28.80209984
v 94.99916269 -14.09711415 38.12999079
v 72.93541192 -5.57301459 40.15694124
v 93.78959760 -14.09711415 38.13979067
v 94.99916269 -3.39106393 39.03811670
v 72.93541192 -3.37111422 29.13203042
v 72.93541192 -3.37216311 37.75759390
v 72.93541192 -3.37636435 38.08915788
v 72.93541192 -3.37111422 28.80209984
v 94.99916269 -5.57301459 40.15530785
v 72.93541192 -4.62589273 40.29414052
v 79.66361365 -5.57301459 40.15694124
v 94.99916269 -4.29618480 40.34313944
v 94.99916269 -3.39316360 39.05118337
v 83.50181992 -3.39106393 39.03811670
v 72.93541192 -3.39211472 39.03811670
v 72.93541192 -4.29618480 40.34150605
v 94.99916269 -3.54646796 39.87274375
v 72.93541192 -3.53386709 39.86457679
v 94.99916269 -3.53386709 39.86457679
f 1 2 7
f 1 7 11
f 1 11 16
f 1 16 21
f 1 21 29
f 1 29 35
f 1 35 37
f 1 37 34
f 1 34 26
f 1 26 25
f 1 25 24
f 1 24 27
f 1 27 18
f 1 18 14
f 1 14 12
f 1 12 8
f 1 8 3
f 1 3 4
f 1 4 5
f 1 5 6
f 1 6 2
f 2 6 7
f 3 8 4
f 4 9 13
f 4 13 17
f 4 17 23
f 4 23 32
f 4 32 38
f 4 38 36
f 4 36 31
f 4 31 28
f 4 28 20
f 4 20 15
f 4 15 10
f 4 10 6
f 4 6 5
f 4 8 9
f 6 10 7
f 7 10 15
f 7 15 11
f 8 12 9
f 9 12 14
f 9 14 13
f 11 15 20
f 11 20 22
f 11 22 16
f 13 14 18
f 13 18 27
f 13 27 19
f 13 19 17
f 16 22 30
f 16 30 21
f 17 19 24
f 17 24 25
f 17 25 26
f 17 26 23
f 19 27 24
f 20 28 22
f 21 30 31
f 21 31 29
f 22 28 30
f 23 26 33
f 23 33 32
f 26 34 33
f 28 31 30
f 29 31 35
f 31 36 37
f 31 37 35
f 32 33 37
f 32 37 38
f 33 34 37
f 36 38 37

