# https://github.com/mikedh/trimesh
v 129.53307756 -13.95437869 17.28296563
v 129.57193572 -14.53467273 17.28296563
v 129.43871646 -13.95437869 16.72056453
v 129.34990871 -13.95437869 17.95234109
v 129.08347783 -15.03329523 21.68708292
v 129.23889521 -15.37860573 21.68708292
v 129.43316312 -15.81418479 21.68708292
v 129.52197850 -16.37943408 21.68708292
v 129.63299200 -17.09441391 21.68708292
v 129.63299200 -15.81418479 17.28296563
v 129.28329908 -13.95437869 16.04180445
v 129.18893798 -13.95437869 18.35584348
v 128.73378491 -14.90004164 21.68708292
v 129.63299200 -21.27324504 21.68708292
v 129.63299200 -21.27324504 17.28296563
v 129.37766018 -21.27324504 16.37086303
v 129.28329908 -18.37320891 16.04117893
v 128.83924507 -21.27324504 15.57073890
v 128.67272863 -13.95437869 15.40183101
v 128.50621218 -13.95437869 18.72681532
v 128.28973471 -14.73096975 21.68708292
v 72.93325313 -21.27324504 21.68708292
v 129.28329908 -21.27324504 16.04117893
v 128.67272863 -21.27324504 15.40120550
v 128.67272863 -18.37320891 15.40120550
v 128.03440670 -15.81418479 15.32988926
v 128.02885336 -13.95437869 15.32988926
v 128.28973471 -13.95437869 18.82941108
v 127.01308704 -14.56977590 21.68708292
v 72.93325313 -14.57192515 21.68708292
v 72.93325313 -21.27324504 17.22165761
v 128.20647649 -21.27324504 15.34865659
v 128.03440670 -21.27324504 15.32988926
v 127.28507127 -21.27324504 15.30549039
v 127.01308704 -13.95437869 15.29673319
v 127.01308704 -13.95437869 18.98080266
v 103.97795286 -14.34482347 21.68708292
v 79.66617292 -13.95437869 18.95890681
v 78.83912880 -13.95437869 18.64173586
v 78.47278729 -13.95437869 18.49347184
v 78.15640110 -13.95437869 17.33363799
v 72.93325313 -14.57192515 21.12155425
v 72.93325313 -18.37320891 17.22165761
v 78.96679281 -21.27324504 15.32988926
v 127.01308704 -21.27324504 15.29673319
v 87.34270178 -13.95437869 15.29610768
v 120.61320776 -13.95437869 19.03835664
v 86.06605602 -13.95437869 18.99206287
v 80.94281868 -13.95437869 18.98393023
v 79.85489512 -13.95437869 18.96266085
v 72.93325313 -14.62350718 19.84160738
v 78.56714839 -13.95437869 16.00301876
v 72.93325313 -18.04294317 17.23917391
v 78.96679281 -13.95437869 15.32988926
v 79.66617292 -21.27324504 15.29610768
v 87.34270178 -21.27324504 15.29610768
v 79.66617292 -13.95437869 15.29610768
v 72.93325313 -14.84702741 19.02772195
v 78.78362205 -13.95437869 15.63454897
v 72.93325313 -17.09441391 17.29047180
v 72.93325313 -15.98469079 17.64142528
v 72.93325313 -15.81920035 17.76091183
v 72.93325313 -15.34421771 18.10560921
v 72.93325313 -15.23604000 18.27013850
v 72.93325313 -14.92511751 18.74495713
f 1 2 3
f 1 3 11
f 1 11 19
f 1 19 27
f 1 27 35
f 1 35 46
f 1 46 57
f 1 57 54
f 1 54 59
f 1 59 52
f 1 52 41
f 1 41 40
f 1 40 39
f 1 39 38
f 1 38 50
f 1 50 49
f 1 49 48
f 1 48 47
f 1 47 36
f 1 36 28
f 1 28 20
f 1 20 12
f 1 12 4
f 1 4 5
f 1 5 6
f 1 6 7
f 1 7 8
f 1 8 9
f 1 9 2
f 2 9 10
f 2 10 3
f 3 10 11
f 4 12 5
f 5 12 13
f 5 13 21
f 5 21 29
f 5 29 37
f 5 37 30
f 5 30 22
f 5 22 14
f 5 14 9
f 5 9 8
f 5 8 7
f 5 7 6
f 9 14 15
f 9 15 10
f 10 15 16
f 10 16 11
f 11 16 17
f 11 17 18
f 11 18 19
f 12 20 21
f 12 21 13
f 14 22 31
f 14 31 44
f 14 44 55
f 14 55 56
f 14 56 45
f 14 45 34
f 14 34 33
f 14 33 32
f 14 32 24
f 14 24 18
f 14 18 23
f 14 23 16
f 14 16 15
f 16 23 17
f 17 23 18
f 18 24 25
f 18 25 19
f 19 25 26
f 19 26 27
f 20 28 21
f 21 28 29
f 22 30 42
f 22 42 51
f 22 51 58
f 22 58 65
f 22 65 64
f 22 64 63
f 22 63 62
f 22 62 61
f 22 61 60
f 22 60 53
f 22 53 43
f 22 43 31
f 24 32 25
f 25 32 26
f 26 32 33
f 26 33 34
f 26 34 35
f 26 35 27
f 28 36 29
f 29 36 37
f 30 38 39
f 30 39 40
f 30 40 41
f 30 41 42
f 30 37 38
f 31 43 54
f 31 54 44
f 34 45 35
f 35 45 56
f 35 56 46
f 36 47 37
f 37 47 48
f 37 48 49
f 37 49 50
f 37 50 38
f 41 51 42
f 41 52 51
f 43 53 54
f 44 54 57
f 44 57 55
f 46 56 55
f 46 55 57
f 51 52 59
f 51 59 54
f 51 54 58
f 53 60 54
f 54 60 61
f 54 61 62
f 54 62 63
f 54 63 64
f 54 64 65
f 54 65 58

