# https://github.com/mikedh/trimesh
v 72.94311255 -3.43005288 14.71947771
v 63.02531992 -3.57350920 13.97283512
v 52.79473592 -3.57350920 13.97283512
v 51.51305377 -3.43153180 14.71556157
v 52.79473592 -3.43079282 14.71947771
v 51.51305377 -3.51435235 15.69063503
v 125.72864906 -3.51583031 15.69585654
v 125.72864906 -3.43079282 14.71947771
v 72.93548242 -4.29818537 13.61876745
v 52.79473592 -4.29818537 13.61844135
v 51.51305377 -3.57720698 13.97087753
v 124.44696310 -3.57498812 13.97381439
v 125.72864906 -4.29892435 13.61974673
v 51.51305377 -4.16951827 16.33578891
v 52.79473592 -3.51509133 15.69553044
v 72.93548242 -3.51509133 15.69553044
v 125.72864906 -4.16951827 16.33546280
v 127.01033503 -4.17987071 16.30185096
v 127.01033503 -3.54614868 15.66224470
v 127.01033503 -3.48033620 14.71947771
v 127.01033503 -3.59273517 13.99633099
v 125.72864906 -3.57498812 13.97414050
v 125.72864906 -5.57819980 13.37140906
v 51.51305377 -4.29818537 13.61844135
v 127.01033503 -4.29892435 13.64291554
v 127.01033503 -5.57819980 13.37238833
v 51.51305377 -4.80619815 16.66962463
v 52.79473592 -4.80915599 16.67125707
v 72.93548242 -4.16951827 16.33578891
v 125.72864906 -4.80989497 16.67092905
v 127.01033503 -4.81950844 16.66603555
v 72.93548242 -4.80915599 16.67125707
v 127.73509225 -4.86609398 16.65363397
v 127.75797691 -3.60382756 15.53856550
v 127.71220759 -3.62675036 14.03908049
v 127.77324098 -3.59347511 14.71947771
v 127.01033503 -8.13600981 13.37173612
v 127.01033503 -10.69529969 13.37108295
v 125.72864906 -8.13600981 13.37108295
v 120.89944394 -10.98443022 13.37010368
v 72.94311255 -5.57819980 13.37140906
v 51.51305377 -5.57819980 13.37173612
v 128.20046709 -4.34033415 13.85144057
v 128.28438515 -5.57819980 13.56753347
v 128.28438515 -6.85821423 13.56524977
v 128.28438515 -8.13600981 13.56459660
v 128.28438515 -10.69529969 13.56329122
v 51.51305377 -5.57819980 16.70323647
v 72.93548242 -5.00807233 16.67974155
v 125.72864906 -5.57819980 16.70323647
v 127.01033503 -5.57819980 16.69834106
v 127.89530776 -5.57819980 16.66603555
v 128.65058550 -6.85821423 16.59620110
v 128.53614693 -5.57819980 16.51429117
v 129.06255517 -4.74925920 15.64788553
v 128.16995421 -4.38100496 16.01990239
v 128.41408015 -4.04898571 14.71947771
v 129.02440644 -4.79510576 13.97479366
v 127.01033503 -10.98443022 13.37108295
v 125.72864906 -10.98443022 13.37075684
v 80.94600636 -10.98443022 13.37010368
v 52.79473592 -8.13674974 13.37140906
v 51.51305377 -6.86412992 13.37173612
v 129.08543983 -5.57819980 13.92062281
v 129.10069627 -6.85821423 13.91866427
v 128.46748532 -10.98443022 13.64291554
v 128.28438515 -10.98443022 13.56329122
v 51.51305377 -8.13674974 16.70323647
v 69.42611008 -8.13674974 16.70356258
v 87.34679653 -9.41602424 16.70356258
v 127.01033503 -6.85821423 16.70323647
v 72.93548242 -8.13674974 16.70356258
v 128.01736692 -6.85821423 16.67092905
v 128.65821372 -9.41602424 16.59685331
v 129.27616822 -8.13600981 15.95691999
v 129.26854000 -6.85821423 15.95659389
v 129.20750661 -5.57819980 15.87435881
v 129.36771450 -5.57819980 14.71947771
v 129.10832449 -4.68936242 14.71947771
v 79.95422710 -10.98443022 13.37173612
v 51.51305377 -8.14192549 13.37434592
v 129.44400433 -6.85821423 14.71947771
v 129.09306805 -10.98443022 13.91703278
v 129.45163255 -9.41602424 14.71947771
v 51.51305377 -8.84589677 16.67125707
v 79.67195148 -10.98443022 16.70323647
v 79.67195148 -9.41602424 16.70356258
v 127.01033503 -10.98443022 16.70323647
v 128.01736692 -10.98443022 16.67092905
v 128.65821372 -10.69529969 16.59717942
v 129.13884500 -10.98443022 16.10148431
v 129.27616822 -9.41602424 15.95724705
v 79.67195148 -10.98443022 13.37238833
v 51.51305377 -9.20527653 13.73135141
v 129.44400433 -10.98443022 14.71947771
v 129.27616822 -10.98443022 15.95724705
v 51.51305377 -9.31028089 15.99869022
v 78.97007701 -10.98443022 16.67092905
v 79.51174168 -10.98443022 16.69605832
v 128.65821372 -10.98443022 16.59717942
v 78.86327048 -10.98443022 13.64715778
v 51.51305377 -9.66670282 14.71947771
v 78.87852883 -10.98443022 16.51951269
v 78.63439812 -10.98443022 13.72743527
v 78.23768680 -10.98443022 14.71947771
v 78.57336568 -10.98443022 15.99869022
f 1 2 3
f 1 3 4
f 1 4 5
f 1 5 6
f 1 6 7
f 1 7 8
f 1 8 2
f 2 9 10
f 2 10 11
f 2 11 3
f 2 8 12
f 2 12 13
f 2 13 9
f 3 11 4
f 4 11 24
f 4 24 42
f 4 42 63
f 4 63 81
f 4 81 94
f 4 94 102
f 4 102 97
f 4 97 85
f 4 85 68
f 4 68 48
f 4 48 27
f 4 27 14
f 4 14 6
f 4 6 5
f 6 14 15
f 6 15 16
f 6 16 7
f 7 17 18
f 7 18 19
f 7 19 8
f 7 16 17
f 8 19 20
f 8 20 21
f 8 21 22
f 8 22 12
f 9 13 23
f 9 23 10
f 10 24 11
f 10 23 41
f 10 41 24
f 12 22 13
f 13 22 25
f 13 25 26
f 13 26 23
f 14 27 28
f 14 28 32
f 14 32 29
f 14 29 16
f 14 16 15
f 16 29 17
f 17 30 31
f 17 31 18
f 17 29 32
f 17 32 30
f 18 31 33
f 18 33 34
f 18 34 19
f 19 34 20
f 20 35 21
f 20 34 36
f 20 36 35
f 21 35 25
f 21 25 22
f 23 26 37
f 23 37 38
f 23 38 39
f 23 39 40
f 23 40 61
f 23 61 41
f 24 41 42
f 25 35 43
f 25 43 44
f 25 44 26
f 26 44 45
f 26 45 46
f 26 46 47
f 26 47 37
f 27 48 28
f 28 48 49
f 28 49 32
f 30 50 51
f 30 51 31
f 30 32 49
f 30 49 50
f 31 51 33
f 33 52 53
f 33 53 54
f 33 54 55
f 33 55 56
f 33 56 34
f 33 51 52
f 34 56 55
f 34 55 57
f 34 57 36
f 35 36 57
f 35 57 58
f 35 58 43
f 37 47 38
f 38 59 60
f 38 60 39
f 38 47 67
f 38 67 59
f 39 60 40
f 40 60 59
f 40 59 67
f 40 67 66
f 40 66 83
f 40 83 95
f 40 95 96
f 40 96 91
f 40 91 100
f 40 100 89
f 40 89 88
f 40 88 86
f 40 86 99
f 40 99 98
f 40 98 103
f 40 103 106
f 40 106 105
f 40 105 104
f 40 104 101
f 40 101 93
f 40 93 80
f 40 80 61
f 41 61 42
f 42 62 63
f 42 61 62
f 43 58 44
f 44 58 64
f 44 64 65
f 44 65 45
f 45 65 46
f 46 65 47
f 47 65 66
f 47 66 67
f 48 68 69
f 48 69 72
f 48 72 50
f 48 50 49
f 50 70 71
f 50 71 51
f 50 72 70
f 51 71 73
f 51 73 52
f 52 73 53
f 53 73 74
f 53 74 75
f 53 75 76
f 53 76 77
f 53 77 54
f 54 77 55
f 55 77 78
f 55 78 79
f 55 79 57
f 57 79 58
f 58 79 78
f 58 78 64
f 61 80 62
f 62 81 63
f 62 80 81
f 64 78 82
f 64 82 65
f 65 83 66
f 65 82 84
f 65 84 83
f 68 85 86
f 68 86 87
f 68 87 69
f 69 87 70
f 69 70 72
f 70 87 86
f 70 86 88
f 70 88 71
f 71 88 89
f 71 89 73
f 73 89 100
f 73 100 90
f 73 90 74
f 74 90 91
f 74 91 75
f 75 91 92
f 75 92 84
f 75 84 82
f 75 82 76
f 76 82 77
f 77 82 78
f 80 93 81
f 81 93 94
f 83 84 95
f 84 92 96
f 84 96 95
f 85 97 98
f 85 98 99
f 85 99 86
f 90 100 91
f 91 96 92
f 93 101 102
f 93 102 94
f 97 102 98
f 98 102 103
f 101 104 102
f 102 105 106
f 102 106 103
f 102 104 105

