# https://github.com/mikedh/trimesh
v 19.03674444 -35.96985616 40.31928981
v 19.51202839 -36.18714986 40.31928981
v 19.03674444 -35.96985616 44.43839197
v 19.03674444 -35.92354905 39.78933249
v 21.33679427 -36.97082754 39.51659593
v 23.98088450 -38.21402927 39.66102104
v 19.51202839 -36.18714986 44.43839197
v 23.33654772 -37.92549180 40.31928981
v 24.91069220 -38.64148809 44.43839197
v 19.03674444 -4.88985112 44.43839197
v 19.03674444 -35.78462388 39.25161727
v 25.25622011 -38.21402927 38.39640499
v 24.74979394 -38.33158016 39.15612958
v 26.61088922 -38.97633649 38.97231567
v 26.61088922 -39.38242484 40.22857596
v 26.61088922 -39.41092006 40.31928981
v 25.91019896 -39.09388738 40.31928981
v 24.63041609 -38.51325006 40.31928981
v 25.91019896 -39.09388738 44.43839197
v 19.63882087 -5.15701622 44.43839197
v 26.61088922 -3.02683353 44.22414193
v 19.03674444 -3.02683353 43.63748881
v 19.03674444 -35.26810558 38.63810899
v 20.07406429 -35.66706918 38.38984043
v 22.66106492 -36.94589470 38.39103377
v 26.61088922 -38.38144965 38.37313033
v 26.61088922 -38.79110039 38.70256269
v 26.61088922 -39.41092006 44.43839197
v 20.43961247 -5.64503358 44.43839197
v 26.61088922 -3.02683353 38.34209682
v 20.59531972 -5.76614780 44.43839197
v 20.65686421 -5.92288391 44.43839197
v 26.61088922 -25.13371045 44.43839197
v 19.03674444 -3.02683353 38.37133961
v 19.03674444 -35.13986755 38.52113594
v 19.22063034 -35.30016699 38.55276636
v 19.03674444 -34.73021682 38.38387278
v 26.61088922 -37.56927294 38.34388707
v 26.61088922 -35.70981773 38.34149991
v 19.03674444 -33.72924544 38.37133961
v 19.03674444 -34.43812078 38.37790465
v 26.61088922 -36.98863944 38.34209682
v 26.61088922 -36.29045505 38.34149991
f 1 2 7
f 1 7 3
f 1 3 10
f 1 10 22
f 1 22 34
f 1 34 40
f 1 40 41
f 1 41 37
f 1 37 35
f 1 35 23
f 1 23 11
f 1 11 4
f 1 4 5
f 1 5 6
f 1 6 2
f 2 6 8
f 2 8 9
f 2 9 7
f 3 7 9
f 3 9 19
f 3 19 28
f 3 28 33
f 3 33 32
f 3 32 31
f 3 31 29
f 3 29 20
f 3 20 10
f 4 11 5
f 5 12 13
f 5 13 6
f 5 11 12
f 6 13 14
f 6 14 15
f 6 15 16
f 6 16 17
f 6 17 18
f 6 18 8
f 8 18 9
f 9 18 17
f 9 17 19
f 10 20 21
f 10 21 22
f 11 23 24
f 11 24 25
f 11 25 12
f 12 26 27
f 12 27 14
f 12 14 13
f 12 25 26
f 14 27 26
f 14 26 38
f 14 38 42
f 14 42 43
f 14 43 39
f 14 39 30
f 14 30 21
f 14 21 33
f 14 33 28
f 14 28 16
f 14 16 15
f 16 28 19
f 16 19 17
f 20 29 21
f 21 30 34
f 21 34 22
f 21 29 31
f 21 31 32
f 21 32 33
f 23 35 36
f 23 36 24
f 24 36 35
f 24 35 37
f 24 37 38
f 24 38 26
f 24 26 25
f 30 39 34
f 34 39 43
f 34 43 40
f 37 41 38
f 38 41 40
f 38 40 42
f 40 43 42

