# https://github.com/mikedh/trimesh
v 10.62920887 53.29066471 43.69490357
v 12.42354958 53.29066471 47.59383429
v 12.43137232 54.57291911 47.55460902
v 10.68239664 54.57291911 43.69490357
v 10.63077265 39.21468948 43.69490357
v 12.93666570 53.29066471 48.23368567
v 12.42354958 43.05424784 47.58795007
v 12.98203454 54.57291911 48.19446136
v 12.45170916 55.23925950 47.46243150
v 10.92957008 55.28608152 43.69490357
v 10.65110949 38.02608293 43.69490357
v 12.42511337 40.49694388 47.58696984
v 13.57649420 49.45110635 48.67005997
v 13.57649420 53.29066471 48.67005997
v 13.62186304 54.57291911 48.66123412
v 12.93822948 40.49694388 48.22682218
v 13.57806179 40.49694388 48.67005997
v 13.69538765 55.22484979 48.64750714
v 13.20730354 55.33650787 47.93214685
v 13.11343828 55.49858851 46.71716287
v 14.39310291 55.70389445 46.71716287
v 13.11343828 55.63546168 43.69490357
v 12.44858159 39.21829000 47.47615944
v 10.77000295 36.88069979 43.69490357
v 12.95543875 39.21829000 48.11601273
v 14.39310291 49.45110635 48.70340102
v 14.39310291 53.29066471 48.70340102
v 14.39310291 54.57291911 48.68574932
v 13.65940915 38.35745286 48.65878356
v 13.59526725 39.21829000 48.67005997
v 14.39310291 39.21829000 48.70291091
v 14.39310291 55.23205464 48.65240827
v 14.39310291 55.47697775 47.99686754
v 19.03460854 55.70389445 46.71716287
v 14.39310291 55.70389445 43.69490357
v 12.47204600 38.57356036 47.36240836
v 12.34689359 34.61514478 43.69490357
v 15.00477183 35.98384219 48.65191816
v 13.95976654 37.50381676 48.55925053
v 19.03617233 34.10008156 48.70340102
v 19.03617233 53.29426523 48.70340102
v 19.03617233 54.57291911 48.68623943
v 19.03617233 55.23565898 48.65290029
v 14.84677229 36.66098604 48.66466682
v 15.67275990 36.66098604 48.69800787
v 16.95242453 35.38233597 48.70291091
v 20.79140315 30.26052320 48.70340102
v 19.51174234 32.82142958 48.70340102
v 19.03460854 55.47697775 47.99686754
v 26.61088922 55.36892400 48.29399439
v 19.03460854 55.70389445 43.69490357
v 26.61088922 55.59944122 47.29670744
v 26.61088922 55.70029393 46.71716287
v 13.42475362 33.13478928 43.69490357
v 15.76506138 35.48318677 48.67251245
v 18.84219047 30.86203133 48.65191816
v 22.68273669 25.74021856 48.65240827
v 26.61088922 53.29426523 48.70340102
v 26.61088922 53.99302174 48.69408506
v 26.61088922 54.57291911 48.68623943
v 26.61088922 55.23565898 48.65290029
v 23.34916098 26.42096674 48.69849798
v 24.63038939 25.14231476 48.70340102
v 26.61088922 55.47337723 47.99735766
v 26.61088922 55.70029393 44.23571299
v 19.03460854 26.43177212 43.69490357
v 17.26373224 28.01297842 43.69490357
v 23.44302625 25.24316747 48.67251245
v 26.52171912 20.62201012 48.65240827
v 26.61088922 20.56438082 48.65486074
v 26.61088922 23.86006036 48.70340102
v 26.61088922 21.30275831 48.67545313
v 25.91004639 23.86006036 48.70340102
v 26.61088922 18.90753689 44.23571299
v 18.38852109 26.57944876 43.69490357
v 26.61088922 20.10334638 47.99735766
v 26.61088922 22.57780786 48.69163449
v 26.61088922 19.66032027 46.71716287
f 1 2 3
f 1 3 4
f 1 4 10
f 1 10 22
f 1 22 35
f 1 35 51
f 1 51 66
f 1 66 75
f 1 75 67
f 1 67 54
f 1 54 37
f 1 37 24
f 1 24 11
f 1 11 5
f 1 5 2
f 2 6 3
f 2 5 7
f 2 7 6
f 3 8 9
f 3 9 4
f 3 6 8
f 4 9 10
f 5 11 12
f 5 12 7
f 6 13 14
f 6 14 15
f 6 15 8
f 6 7 16
f 6 16 17
f 6 17 13
f 7 12 16
f 8 15 18
f 8 18 9
f 9 18 19
f 9 19 20
f 9 20 10
f 10 20 21
f 10 21 22
f 11 23 12
f 11 24 23
f 12 23 25
f 12 25 16
f 13 26 27
f 13 27 14
f 13 17 26
f 14 27 15
f 15 28 18
f 15 27 28
f 16 25 29
f 16 29 30
f 16 30 17
f 17 30 31
f 17 31 26
f 18 32 33
f 18 33 19
f 18 28 32
f 19 33 21
f 19 21 20
f 21 34 51
f 21 51 35
f 21 35 22
f 21 33 49
f 21 49 34
f 23 24 36
f 23 36 25
f 24 37 38
f 24 38 39
f 24 39 36
f 25 36 29
f 26 31 40
f 26 40 48
f 26 48 47
f 26 47 63
f 26 63 73
f 26 73 71
f 26 71 58
f 26 58 41
f 26 41 27
f 27 41 42
f 27 42 28
f 28 42 43
f 28 43 32
f 29 36 39
f 29 39 38
f 29 38 44
f 29 44 45
f 29 45 31
f 29 31 30
f 31 45 46
f 31 46 47
f 31 47 48
f 31 48 40
f 32 43 33
f 33 43 50
f 33 50 49
f 34 49 52
f 34 52 53
f 34 53 65
f 34 65 51
f 37 54 38
f 38 55 44
f 38 54 56
f 38 56 57
f 38 57 55
f 41 58 59
f 41 59 42
f 42 59 60
f 42 60 61
f 42 61 43
f 43 61 50
f 44 55 45
f 45 55 62
f 45 62 47
f 45 47 46
f 47 62 63
f 49 50 64
f 49 64 52
f 50 61 60
f 50 60 59
f 50 59 58
f 50 58 71
f 50 71 77
f 50 77 72
f 50 72 70
f 50 70 76
f 50 76 78
f 50 78 74
f 50 74 65
f 50 65 53
f 50 53 52
f 50 52 64
f 51 65 74
f 51 74 66
f 54 67 56
f 55 57 68
f 55 68 62
f 56 67 57
f 57 67 69
f 57 69 70
f 57 70 68
f 62 68 72
f 62 72 63
f 63 72 73
f 66 74 75
f 67 75 69
f 68 70 72
f 69 76 70
f 69 75 76
f 71 73 77
f 72 77 73
f 74 78 75
f 75 78 76

