# https://github.com/mikedh/trimesh
v 129.45099941 -10.98516825 14.71925553
v 129.28491779 -10.98516825 15.95759795
v 129.63646433 -15.81641011 14.71925553
v 129.63646433 -17.09526791 12.82241462
v 129.48372447 -15.81641011 12.82241462
v 129.10066576 -10.98516825 13.91674577
v 129.54191254 -21.28053109 15.05401426
v 129.14430681 -10.98516825 16.10198967
v 128.66911444 -21.28053109 16.59975776
v 129.12005669 -21.28053109 16.13238623
v 129.28491779 -21.28053109 15.95987784
v 129.63767722 -21.28053109 13.43949569
v 129.63646433 -21.28053109 14.71925553
v 129.63646433 -21.28053109 12.82241462
v 129.14915073 -14.78647067 12.82241462
v 128.29453831 -10.98516825 13.56298800
v 128.66062805 -10.98516825 16.59747692
v 128.02906479 -20.93486591 16.67119413
v 128.02906479 -21.28053109 16.67119413
v 128.51637459 -10.98516825 16.61419607
v 128.02057840 -10.98516825 16.67119413
v 117.25365041 -21.28053109 12.82241462
v 128.50425334 -14.41258871 12.82241462
v 127.01443520 -10.98516825 13.37110011
v 127.01443520 -10.98516825 16.70349202
v 127.75510107 -21.28053109 16.67993226
v 117.25365041 -21.28053109 14.82716911
v 117.25365041 -14.79755639 12.82241462
v 128.29453831 -14.30878961 12.82241462
v 127.01443520 -14.13343780 12.82241462
v 120.90485234 -10.98516825 13.36996065
v 127.01443520 -21.28053109 16.70349202
v 120.61634542 -10.98516825 16.70349202
v 120.61634542 -15.81641011 16.70387152
v 118.68285472 -21.28053109 16.64991521
v 118.67800698 -10.98516825 16.64991521
v 117.25365041 -18.37513455 14.82716911
v 117.25365041 -14.79050219 13.27572638
v 118.10099313 -10.98516825 14.71925553
v 118.15311676 -10.98516825 14.51140846
v 118.41010770 -10.98516825 13.79781323
v 118.60769768 -10.98516825 13.71763873
v 119.33624231 -10.98516825 13.44291600
v 118.04523084 -14.53352079 12.82241462
v 125.73433209 -14.13343780 12.82241462
v 120.61634542 -10.98516825 13.36996065
v 120.61634542 -21.28053109 16.70387152
v 120.32783849 -10.98516825 16.69893225
v 119.33624231 -10.98516825 16.68259260
v 119.33624231 -21.28053109 16.68259260
v 118.36767953 -10.98516825 15.99901537
v 117.25365041 -17.09526791 14.77853157
v 117.25365041 -17.77248988 14.81158942
v 117.25365041 -15.10089448 13.67280100
v 117.25365041 -15.95346635 14.48291038
v 119.62474923 -10.98516825 13.42619684
v 119.33624231 -14.16568610 12.82241462
v 120.61634542 -14.14049199 12.82241462
v 117.25365041 -16.48859173 14.63604118
f 1 2 3
f 1 3 4
f 1 4 5
f 1 5 6
f 1 6 16
f 1 16 24
f 1 24 31
f 1 31 46
f 1 46 56
f 1 56 43
f 1 43 42
f 1 42 41
f 1 41 40
f 1 40 39
f 1 39 51
f 1 51 36
f 1 36 49
f 1 49 48
f 1 48 33
f 1 33 25
f 1 25 21
f 1 21 20
f 1 20 17
f 1 17 8
f 1 8 2
f 2 7 3
f 2 8 9
f 2 9 10
f 2 10 11
f 2 11 7
f 3 12 4
f 3 7 13
f 3 13 12
f 4 12 14
f 4 14 22
f 4 22 28
f 4 28 44
f 4 44 57
f 4 57 58
f 4 58 45
f 4 45 30
f 4 30 29
f 4 29 23
f 4 23 15
f 4 15 5
f 5 15 6
f 6 15 16
f 7 11 10
f 7 10 9
f 7 9 19
f 7 19 26
f 7 26 32
f 7 32 47
f 7 47 50
f 7 50 35
f 7 35 27
f 7 27 22
f 7 22 14
f 7 14 12
f 7 12 13
f 8 17 9
f 9 18 19
f 9 17 20
f 9 20 21
f 9 21 18
f 15 23 24
f 15 24 16
f 18 21 25
f 18 25 26
f 18 26 19
f 22 27 37
f 22 37 53
f 22 53 52
f 22 52 59
f 22 59 55
f 22 55 54
f 22 54 38
f 22 38 28
f 23 29 24
f 24 29 30
f 24 30 31
f 25 32 26
f 25 33 34
f 25 34 47
f 25 47 32
f 27 35 36
f 27 36 37
f 28 38 39
f 28 39 40
f 28 40 41
f 28 41 42
f 28 42 43
f 28 43 44
f 30 45 46
f 30 46 31
f 33 48 34
f 34 48 49
f 34 49 50
f 34 50 47
f 35 50 36
f 36 51 52
f 36 52 53
f 36 53 37
f 36 50 49
f 38 54 39
f 39 54 55
f 39 55 51
f 43 56 44
f 44 56 46
f 44 46 57
f 45 58 46
f 46 58 57
f 51 55 59
f 51 59 52

