# https://github.com/mikedh/trimesh
v 117.21453007 -14.79942922 45.25894161
v 117.21453007 -15.13021750 45.67616717
v 117.21453007 -14.80513322 44.82222976
v 91.17847273 -14.84695685 44.82320426
v 91.17847273 -14.94961364 45.16657148
v 91.17847273 -15.45720311 45.80770631
v 117.21453007 -15.96859525 46.46482131
v 117.21453007 -21.27324504 44.82222976
v 91.18102055 -14.84759000 44.82222976
v 91.17847273 -14.86026428 44.82222976
v 91.17847273 -16.09596747 46.29606027
v 117.21453007 -16.53955235 46.62948982
v 117.21453007 -21.27324504 46.81286653
v 91.17847273 -21.27324504 44.82222976
v 91.17847273 -17.09656888 46.58291476
v 117.21453007 -17.09403440 46.76063992
v 117.21453007 -18.37346255 46.81267106
v 91.17847273 -18.37599703 46.65209510
v 91.17847273 -21.27324504 46.65209510
v 117.21453007 -17.82024678 46.79786087
f 1 2 7
f 1 7 12
f 1 12 16
f 1 16 20
f 1 20 17
f 1 17 13
f 1 13 8
f 1 8 3
f 1 3 4
f 1 4 5
f 1 5 6
f 1 6 2
f 2 6 7
f 3 8 14
f 3 14 10
f 3 10 9
f 3 9 4
f 4 9 10
f 4 10 14
f 4 14 19
f 4 19 18
f 4 18 15
f 4 15 11
f 4 11 6
f 4 6 5
f 6 11 7
f 7 11 12
f 8 13 19
f 8 19 14
f 11 15 12
f 12 15 16
f 13 17 18
f 13 18 19
f 15 18 16
f 16 18 20
f 17 20 18

