# https://github.com/mikedh/trimesh
v 72.93323591 -3.37237877 5.76044606
v 72.93323591 -3.37749444 6.09031558
v 72.93323591 -3.37237877 0.38583414
v 37.91532560 -3.37237877 5.76044606
v 37.91532560 -3.38431503 6.55353640
v 72.93323591 -3.39283956 7.04015250
v 72.93323591 -19.57741837 0.38583414
v 37.91532560 -3.37237877 0.38583414
v 37.91532560 -3.39283956 7.04015250
v 72.93323591 -3.42864643 7.25304708
v 72.93323591 -19.71382621 8.35261214
v 37.91532560 -20.78120304 0.38583414
v 37.91532560 -3.48150428 7.55172337
v 72.93323591 -3.53606608 7.86599604
v 37.91532560 -3.53606608 7.86521653
v 48.94925847 -3.53606608 7.86599604
v 72.93323591 -14.56961181 8.35261214
v 41.27109418 -19.71382621 8.35261214
v 37.91532560 -20.77438151 3.20103270
v 37.91532560 -20.78972949 1.92132602
v 37.91532560 -20.78290795 0.64161957
v 72.93323591 -3.73215043 7.98920992
v 37.91532560 -4.29823590 8.33389630
v 38.71056376 -4.29823590 8.34325422
v 72.93323591 -4.29823590 8.34325422
v 37.91532560 -14.56961181 8.35261214
v 40.03710367 -19.67972425 8.35261214
v 37.91532560 -19.60640561 8.35261214
f 1 2 6
f 1 6 10
f 1 10 14
f 1 14 22
f 1 22 25
f 1 25 17
f 1 17 11
f 1 11 7
f 1 7 3
f 1 3 8
f 1 8 4
f 1 4 5
f 1 5 2
f 2 5 6
f 3 7 12
f 3 12 8
f 4 8 12
f 4 12 21
f 4 21 20
f 4 20 19
f 4 19 28
f 4 28 26
f 4 26 23
f 4 23 15
f 4 15 13
f 4 13 9
f 4 9 5
f 5 9 6
f 6 9 10
f 7 11 12
f 9 13 10
f 10 13 15
f 10 15 16
f 10 16 14
f 11 17 26
f 11 26 28
f 11 28 27
f 11 27 18
f 11 18 19
f 11 19 20
f 11 20 21
f 11 21 12
f 14 16 22
f 15 23 24
f 15 24 16
f 16 24 22
f 17 25 24
f 17 24 26
f 18 27 19
f 19 27 28
f 22 24 25
f 23 26 24

