# https://github.com/mikedh/trimesh
v 27.19086391 -14.53500448 13.22410717
v 23.35845742 -22.22109258 11.68192701
v 27.19086391 -15.81357051 13.22140296
v 27.19086391 2.80155480 13.22343112
v 23.35845742 -22.22109258 6.37117712
v 27.19011253 -22.22109258 11.62716306
v 27.19086391 -17.09458519 13.02533386
v 27.19086391 -16.11729192 13.18489335
v 23.35845742 2.80155480 11.62851516
v 27.19086391 2.80155480 11.08493294
v 27.19011253 -22.22109258 6.31776527
v 23.35845742 2.80155480 6.37117712
v 27.19086391 -22.22109258 11.60079612
v 27.19086391 -22.21374279 11.62716306
v 27.19086391 2.09858854 6.31776527
v 27.19011253 2.80155480 6.31776527
v 27.19086391 -22.21374279 6.31776527
f 1 2 3
f 1 3 8
f 1 8 7
f 1 7 14
f 1 14 13
f 1 13 17
f 1 17 15
f 1 15 10
f 1 10 4
f 1 4 2
f 2 5 11
f 2 11 13
f 2 13 6
f 2 6 7
f 2 7 8
f 2 8 3
f 2 4 9
f 2 9 12
f 2 12 5
f 4 10 16
f 4 16 12
f 4 12 9
f 5 12 16
f 5 16 11
f 6 13 14
f 6 14 7
f 10 15 16
f 11 17 13
f 11 16 15
f 11 15 17

