v 34.000000 -3.450470 16.001206
v 34.000000 -3.522416 16.010603
v 34.000000 -0.000000 16.001206
v 128.934662 -3.450470 16.001206
v 34.000000 -3.547377 16.016867
v 128.934662 -3.522416 16.010603
v 34.000000 -0.000000 47.999999
v 128.934662 -0.000000 16.001206
v 34.000000 -3.570869 16.023131
v 128.934662 -3.547377 16.016867
v 34.000000 -3.425509 47.999999
v 128.934662 -0.000000 47.999999
v 34.000000 -3.616386 16.038793
v 128.934662 -3.570869 16.023131
v 34.000000 -3.498924 47.993734
v 128.934662 -3.425509 47.999999
v 34.000000 -3.660435 16.060718
v 128.934662 -3.616386 16.038793
v 34.000000 -3.547377 47.984338
v 128.934662 -3.498924 47.993734
v 34.000000 -3.682459 16.073248
v 128.934662 -3.660435 16.060718
v 34.000000 -13.483261 45.863823
v 128.934662 -3.547377 47.984338
v 34.000000 -3.703015 16.085776
v 128.934662 -3.682459 16.073248
v 34.000000 -13.578699 45.835632
v 128.934662 -13.483261 45.863823
v 34.000000 -3.723571 16.101437
v 128.934662 -3.703015 16.085776
v 34.000000 -13.671202 45.804311
v 128.934662 -13.578699 45.835632
v 34.000000 -3.761746 16.132760
v 128.934662 -3.723571 16.101437
v 34.000000 -13.762235 45.769856
v 128.934662 -13.671202 45.804311
v 34.000000 -3.779366 16.148421
v 128.934662 -3.761746 16.132760
v 34.000000 -13.853269 45.729137
v 128.934662 -13.762235 45.769856
v 34.000000 -3.827819 16.204800
v 128.934662 -3.779366 16.148421
v 34.000000 -13.939898 45.685286
v 128.934662 -13.853269 45.729137
v 34.000000 -3.841034 16.223594
v 128.934662 -3.827819 16.204800
v 34.000000 -14.025058 45.638303
v 128.934662 -13.939898 45.685286
v 34.000000 -3.854248 16.245519
v 128.934662 -3.841034 16.223594
v 34.000000 -14.107282 45.585055
v 128.934662 -14.025058 45.638303
v 34.000000 -3.877741 16.289370
v 128.934662 -3.854248 16.245519
v 34.000000 -14.188038 45.528674
v 128.934662 -14.107282 45.585055
v 128.934662 -3.877741 16.289370
v 35.050079 -15.000000 39.248567
v 34.000000 -3.888019 16.311297
v 34.000000 -14.265857 45.469162
v 128.934662 -14.188038 45.528674
v 128.934662 -3.888019 16.311297
v 126.788038 -15.000000 39.248567
v 34.000000 -15.000000 41.500636
v 34.000000 -14.339271 45.403386
v 128.934662 -14.265857 45.469162
v 128.934662 -15.000000 41.500636
v 34.000000 -15.000000 43.921844
v 34.000000 -14.411217 45.337609
v 128.934662 -14.339271 45.403386
v 128.934662 -15.000000 43.921844
v 34.000000 -14.995595 44.018943
v 34.000000 -14.480227 45.265568
v 128.934662 -14.411217 45.337609
v 128.934662 -14.995595 44.018943
v 34.000000 -14.986785 44.119174
v 34.000000 -14.544831 45.190395
v 128.934662 -14.480227 45.265568
v 128.934662 -14.986785 44.119174
v 34.000000 -14.976507 44.216273
v 34.000000 -14.659357 45.033784
v 128.934662 -14.544831 45.190395
v 128.934662 -14.976507 44.216273
v 34.000000 -14.958888 44.310239
v 34.000000 -14.712215 44.949214
v 128.934662 -14.659357 45.033784
v 128.934662 -14.958888 44.310239
v 34.000000 -14.936863 44.407339
v 34.000000 -14.760669 44.864644
v 128.934662 -14.712215 44.949214
v 128.934662 -14.936863 44.407339
v 34.000000 -14.911903 44.501306
v 34.000000 -14.804718 44.776941
v 128.934662 -14.760669 44.864644
v 128.934662 -14.911903 44.501306
v 34.000000 -14.879600 44.595272
v 34.000000 -14.844362 44.686107
v 128.934662 -14.804718 44.776941
v 128.934662 -14.879600 44.595272
v 128.934662 -14.844362 44.686107
f 1 2 5
f 1 5 9
f 1 9 13
f 1 13 17
f 1 17 21
f 1 21 25
f 1 25 29
f 1 29 33
f 1 33 37
f 1 37 41
f 1 41 45
f 1 45 49
f 1 49 53
f 1 53 59
f 1 59 64
f 1 64 68
f 1 68 72
f 1 72 76
f 1 76 80
f 1 80 84
f 1 84 88
f 1 88 92
f 1 92 96
f 1 96 97
f 1 97 93
f 1 93 89
f 1 89 85
f 1 85 81
f 1 81 77
f 1 77 73
f 1 73 69
f 1 69 65
f 1 65 60
f 1 60 55
f 1 55 51
f 1 51 47
f 1 47 43
f 1 43 39
f 1 39 35
f 1 35 31
f 1 31 27
f 1 27 23
f 1 23 19
f 1 19 15
f 1 15 11
f 1 11 7
f 1 7 3
f 1 3 8
f 1 8 4
f 1 4 6
f 1 6 2
f 2 6 10
f 2 10 5
f 3 7 12
f 3 12 8
f 4 8 12
f 4 12 16
f 4 16 20
f 4 20 24
f 4 24 28
f 4 28 32
f 4 32 36
f 4 36 40
f 4 40 44
f 4 44 48
f 4 48 52
f 4 52 56
f 4 56 61
f 4 61 66
f 4 66 70
f 4 70 74
f 4 74 78
f 4 78 82
f 4 82 86
f 4 86 90
f 4 90 94
f 4 94 98
f 4 98 100
f 4 100 99
f 4 99 95
f 4 95 91
f 4 91 87
f 4 87 83
f 4 83 79
f 4 79 75
f 4 75 71
f 4 71 67
f 4 67 62
f 4 62 57
f 4 57 54
f 4 54 50
f 4 50 46
f 4 46 42
f 4 42 38
f 4 38 34
f 4 34 30
f 4 30 26
f 4 26 22
f 4 22 18
f 4 18 14
f 4 14 10
f 4 10 6
f 5 10 14
f 5 14 9
f 7 11 16
f 7 16 12
f 9 14 18
f 9 18 13
f 11 15 20
f 11 20 16
f 13 18 22
f 13 22 17
f 15 19 24
f 15 24 20
f 17 22 26
f 17 26 21
f 19 23 28
f 19 28 24
f 21 26 30
f 21 30 25
f 23 27 32
f 23 32 28
f 25 30 34
f 25 34 29
f 27 31 36
f 27 36 32
f 29 34 38
f 29 38 33
f 31 35 40
f 31 40 36
f 33 38 42
f 33 42 37
f 35 39 44
f 35 44 40
f 37 42 46
f 37 46 41
f 39 43 48
f 39 48 44
f 41 46 50
f 41 50 45
f 43 47 52
f 43 52 48
f 45 50 54
f 45 54 49
f 47 51 56
f 47 56 52
f 49 54 57
f 49 57 53
f 51 55 61
f 51 61 56
f 53 57 63
f 53 63 58
f 53 58 59
f 55 60 66
f 55 66 61
f 57 62 63
f 58 64 59
f 58 63 67
f 58 67 71
f 58 71 68
f 58 68 64
f 60 65 70
f 60 70 66
f 62 67 63
f 65 69 74
f 65 74 70
f 68 71 75
f 68 75 72
f 69 73 78
f 69 78 74
f 72 75 79
f 72 79 76
f 73 77 82
f 73 82 78
f 76 79 83
f 76 83 80
f 77 81 86
f 77 86 82
f 80 83 87
f 80 87 84
f 81 85 90
f 81 90 86
f 84 87 91
f 84 91 88
f 85 89 94
f 85 94 90
f 88 91 95
f 88 95 92
f 89 93 98
f 89 98 94
f 92 95 99
f 92 99 96
f 93 97 100
f 93 100 98
f 96 99 100
f 96 100 97
