# https://github.com/mikedh/trimesh
v 125.72994395 -3.42783958 46.71798004
v 118.05555672 -3.51359796 47.69412728
v 125.72994395 -3.51359796 47.69412728
v 127.01362102 -3.54612755 47.61710608
v 127.01362102 -3.47885141 46.71798004
v 127.01362102 -3.58900674 45.99280415
v 125.72994395 -3.57052451 45.96930636
v 121.89551938 -3.57052451 45.96930636
v 115.49374067 -3.57052451 45.96963247
v 103.97385651 -3.42857952 46.71798004
v 72.93325504 -3.51359796 47.69347411
v 78.38334259 -3.51359796 47.69380022
v 88.62508205 -4.16492218 48.33379654
v 125.72994395 -4.16492218 48.33379654
v 127.01362102 -4.19079806 48.25677439
v 127.76058789 -3.60453207 47.47905435
v 127.78825163 -3.59270356 46.71798004
v 127.72738987 -3.62375424 46.03686284
v 127.01362102 -4.29577860 45.64294436
v 125.72994395 -4.29577860 45.61585655
v 123.17365836 -4.29577860 45.61585655
v 109.09749242 -4.29577860 45.61650971
v 75.82705700 -4.29577860 45.61814120
v 95.02132648 -3.57126349 45.97061174
v 72.93325504 -3.57200343 45.97191712
v 83.50697850 -3.42931851 46.71798004
v 72.93325504 -3.45149756 46.96960455
v 72.93325504 -3.68141978 47.85861366
v 72.93325504 -4.16492218 48.33346853
v 72.93325504 -4.80515688 48.67060158
v 98.86128914 -4.80441790 48.67060158
v 125.72994395 -4.80441790 48.67060158
v 127.01362102 -4.83103181 48.66701059
v 127.73845460 -4.88352255 48.65493512
v 128.17556693 -4.38819068 47.97838818
v 129.06086015 -4.74527344 47.62461225
v 128.43009016 -4.05920266 46.71798004
v 129.00553266 -4.81107066 45.99476269
v 128.20876877 -4.34900832 45.86487029
v 128.29176381 -5.57624800 45.58583187
v 127.01362102 -5.57624800 45.37728679
v 125.72994395 -5.57624800 45.37141210
v 72.93325504 -5.57624800 45.37141210
v 72.93325504 -5.24578011 45.43505245
v 72.93325504 -4.29577860 45.61846731
v 75.82705700 -3.57200343 45.97159102
v 72.93325504 -3.43005749 46.71798004
v 72.93325504 -5.57624800 48.70356312
v 125.72994395 -5.57624800 48.70356312
v 127.01362102 -5.57624800 48.70030015
v 127.92104752 -5.57624800 48.66701059
v 128.69568194 -6.85597746 48.60402246
v 128.55735178 -5.57624800 48.50089273
v 129.20472077 -5.57624800 47.86122442
v 129.34305094 -5.57624800 46.71798004
v 129.08852771 -4.69869743 46.71798004
v 129.06639824 -5.57624800 45.93340700
v 129.09405817 -6.85597746 45.91219292
v 128.29176381 -6.85597746 45.56298630
v 127.01362102 -8.13496699 45.37402286
v 128.29176381 -9.41469646 45.55482696
v 128.29176381 -10.69442592 45.55189010
v 127.01362102 -9.41469646 45.37239138
v 127.01362102 -10.98053571 45.37141210
v 120.61184231 -10.98053571 45.37010672
v 80.94516054 -10.98053571 45.36978062
v 72.93325504 -8.13496699 45.37141210
v 72.93325504 -8.13496699 48.70356312
v 127.01362102 -6.85597746 48.70356312
v 128.05937387 -6.85597746 48.67060158
v 128.69568194 -9.41469646 48.60369636
v 129.28218536 -8.13496699 47.96402805
v 129.28218536 -6.85597746 47.96402805
v 129.44264499 -6.85597746 46.71798004
v 129.09959626 -8.13496699 45.90990827
v 129.10512672 -10.69442592 45.90533896
v 128.47435673 -10.98053571 45.63054278
v 128.29176381 -10.98053571 45.55156304
v 79.94920472 -10.98053571 45.37108600
v 72.93325504 -9.20251748 45.72453486
v 79.66701775 -10.98053571 45.37173821
v 72.93325504 -8.31831415 48.69507863
v 79.66701775 -10.98053571 48.70356312
v 127.01362102 -10.98053571 48.70356312
v 127.82144965 -10.98053571 48.67810775
v 128.05384341 -10.98053571 48.67060158
v 128.69568194 -10.98053571 48.60337025
v 129.28218536 -10.98053571 47.96337584
v 129.45924400 -10.98053571 46.71798004
v 129.45371354 -9.41469646 46.71798004
v 129.44817545 -8.13496699 46.71798004
v 129.10512672 -10.98053571 45.90468675
v 72.93325504 -9.66679773 46.71798004
v 78.85365484 -10.98053571 45.64653439
v 78.62679727 -10.98053571 45.72584024
v 72.93325504 -8.84617466 48.67060158
v 79.50655811 -10.98053571 48.69638306
v 78.23394959 -10.98053571 46.71798004
v 78.56593360 -10.98053571 47.99764372
v 78.95878318 -10.98053571 48.67060158
v 72.93325504 -9.31045491 47.99764372
v 78.31694464 -10.98053571 46.49638022
f 1 2 3
f 1 3 4
f 1 4 5
f 1 5 6
f 1 6 7
f 1 7 8
f 1 8 9
f 1 9 10
f 1 10 11
f 1 11 12
f 1 12 2
f 2 12 13
f 2 13 14
f 2 14 3
f 3 14 15
f 3 15 4
f 4 15 16
f 4 16 5
f 5 16 17
f 5 17 18
f 5 18 6
f 6 19 7
f 6 18 19
f 7 19 20
f 7 20 21
f 7 21 8
f 8 21 22
f 8 22 23
f 8 23 9
f 9 23 24
f 9 24 25
f 9 25 26
f 9 26 10
f 10 26 11
f 11 27 47
f 11 47 25
f 11 25 45
f 11 45 44
f 11 44 43
f 11 43 67
f 11 67 80
f 11 80 93
f 11 93 101
f 11 101 96
f 11 96 82
f 11 82 68
f 11 68 48
f 11 48 30
f 11 30 29
f 11 29 28
f 11 28 12
f 11 26 27
f 12 28 13
f 13 28 29
f 13 29 30
f 13 30 31
f 13 31 32
f 13 32 14
f 14 32 33
f 14 33 34
f 14 34 15
f 15 34 16
f 16 34 35
f 16 35 36
f 16 36 37
f 16 37 17
f 17 37 18
f 18 37 38
f 18 38 39
f 18 39 19
f 19 39 40
f 19 40 41
f 19 41 20
f 20 41 42
f 20 42 43
f 20 43 21
f 21 43 44
f 21 44 22
f 22 44 23
f 23 44 45
f 23 45 25
f 23 25 46
f 23 46 24
f 24 46 25
f 25 47 26
f 26 47 27
f 30 48 31
f 31 48 49
f 31 49 32
f 32 49 50
f 32 50 33
f 33 50 34
f 34 51 52
f 34 52 53
f 34 53 36
f 34 36 35
f 34 50 51
f 36 54 55
f 36 55 56
f 36 56 37
f 36 53 54
f 37 56 38
f 38 56 55
f 38 55 57
f 38 57 40
f 38 40 39
f 40 57 58
f 40 58 59
f 40 59 41
f 41 60 42
f 41 59 61
f 41 61 62
f 41 62 60
f 42 60 63
f 42 63 64
f 42 64 65
f 42 65 66
f 42 66 43
f 43 66 67
f 48 68 83
f 48 83 84
f 48 84 69
f 48 69 49
f 49 69 50
f 50 69 70
f 50 70 51
f 51 70 52
f 52 71 72
f 52 72 73
f 52 73 54
f 52 54 53
f 52 70 71
f 54 73 74
f 54 74 55
f 55 74 57
f 57 74 58
f 58 74 75
f 58 75 59
f 59 75 61
f 60 62 63
f 61 75 76
f 61 76 77
f 61 77 62
f 62 77 78
f 62 78 63
f 63 78 64
f 64 78 77
f 64 77 92
f 64 92 89
f 64 89 88
f 64 88 87
f 64 87 86
f 64 86 85
f 64 85 84
f 64 84 83
f 64 83 97
f 64 97 100
f 64 100 99
f 64 99 98
f 64 98 102
f 64 102 95
f 64 95 94
f 64 94 81
f 64 81 79
f 64 79 66
f 64 66 65
f 66 79 67
f 67 79 81
f 67 81 80
f 68 82 83
f 69 84 85
f 69 85 70
f 70 85 86
f 70 86 71
f 71 86 87
f 71 87 72
f 72 88 89
f 72 89 73
f 72 87 88
f 73 89 90
f 73 90 91
f 73 91 74
f 74 91 75
f 75 91 90
f 75 90 89
f 75 89 76
f 76 92 77
f 76 89 92
f 80 81 94
f 80 94 95
f 80 95 93
f 82 96 83
f 83 96 97
f 93 98 99
f 93 99 100
f 93 100 101
f 93 95 102
f 93 102 98
f 96 101 100
f 96 100 97

