# https://github.com/mikedh/trimesh
v 123.65509279 -42.70385607 14.71701284
v 123.65509279 -42.70175831 12.15702211
v 124.45572792 -42.70175831 12.15702211
v 125.73545725 -42.70175831 13.43822178
v 125.73545725 -42.70175831 14.71701284
v 125.73545725 -42.37465259 15.94041443
v 123.65509279 -42.37465259 15.94041443
v 123.65509279 -42.66611545 10.87823010
v 127.01518658 -42.64724323 -7.89905114
v 125.73545725 -42.69966436 10.87823010
v 127.01518658 -42.64934099 2.36017968
v 127.01401565 -42.64724323 14.71701284
v 127.01401565 -42.34739695 15.92114841
v 125.73545725 -41.73302390 16.58101331
v 123.65509279 -41.73302390 16.58101331
v 123.65509279 -42.32432922 9.81136722
v 125.21888179 -41.41010988 -7.89905114
v 125.55506509 -42.02029123 -7.89905114
v 125.75244148 -42.35578418 -7.89905114
v 126.13723943 -42.45014145 -7.89905114
v 127.38124199 -42.54240097 -7.89905114
v 128.13736645 -42.32432922 -7.89905114
v 128.14029569 -42.32432922 1.92187453
v 128.14029569 -42.32432922 2.36017968
v 128.14263755 -42.32223527 14.71701284
v 127.97981700 -42.22997576 15.71885372
v 127.01401565 -41.70157274 16.56174824
v 127.01401565 -41.06203800 16.67012046
v 125.73545725 -41.09348915 16.67012046
v 123.65509279 -41.49398598 16.61473005
v 123.65509279 -41.40801594 9.38992044
v 125.11228504 -40.12894645 -7.89905114
v 128.77693934 -41.89867452 -7.89905114
v 128.77811027 -41.90077228 -4.47689893
v 128.77986476 -41.90286622 1.92187453
v 128.78162307 -41.90496398 9.59703044
v 128.78221044 -41.90496398 10.87823010
v 128.78279400 -41.90496398 13.43822178
v 128.78279400 -41.90496398 14.71701284
v 129.12776882 -41.09977862 15.75979438
v 128.38511198 -41.44785432 16.16679141
v 127.93706083 -40.94251904 16.65807741
v 127.01401565 -40.12894645 16.70142858
v 123.65509279 -40.73283452 16.68216161
v 123.65509279 -41.09348915 16.67012046
v 123.65509279 -40.69718785 9.33693768
v 125.02618913 -21.28471899 -7.89905114
v 123.65509279 -40.12894645 9.30081329
v 129.22615761 -41.25913977 -7.89905114
v 129.22615761 -41.26123753 -4.47689893
v 129.22615761 -41.26333529 0.64308300
v 129.22499049 -41.26543305 10.87823010
v 129.22440312 -41.26543305 14.71701284
v 129.22499049 -41.26543305 12.15702211
v 129.57639972 -40.12894645 14.71701284
v 129.25486260 -40.12894645 15.96449672
v 128.71661156 -40.12894645 16.60509560
v 128.07645511 -40.12894645 16.67012046
v 123.65509279 -40.12894645 16.70142858
v 127.75491037 -21.28471899 16.67975300
v 127.01401565 -21.28471899 16.70142858
v 123.65509279 -37.57081129 16.70383529
v 129.63789844 -21.28471899 -7.89905114
v 123.65509279 -21.28471899 9.29358936
v 129.46336475 -40.50008607 -7.89905114
v 129.57874159 -40.12894645 -7.89905114
v 129.22615761 -41.26333529 2.36017968
v 129.57874159 -40.12894645 -5.75568998
v 129.57816184 -40.12894645 0.64308300
v 129.57698710 -40.12894645 10.87823010
v 129.63731106 -38.84988078 14.71701284
v 129.28590183 -38.84988078 15.96690533
v 129.28590183 -36.28964786 15.96690533
v 129.28531446 -23.49687621 15.95968046
v 128.71309876 -38.84988078 16.60750612
v 128.02959877 -21.28471899 16.67012046
v 123.65509279 -21.28471899 16.70142858
v 123.65509279 -28.61524238 16.70383529
v 129.63848581 -38.84988078 -7.89905114
v 129.63789844 -21.28471899 2.36017968
v 129.63731106 -29.89640963 14.71701284
v 129.63673132 -22.21780863 14.71701284
v 129.28472709 -21.28471899 15.95727184
v 128.70958215 -37.57081129 16.60750612
v 128.66917165 -21.28471899 16.59787168
v 129.63731106 -21.28471899 8.66503067
v 129.63731106 -23.49687621 10.87823010
v 129.63731106 -27.33617671 13.43822178
v 129.63673132 -21.28471899 13.78260447
v 129.63614395 -21.28471899 14.71701284
v 129.11898111 -21.28471899 16.13066797
f 1 2 3
f 1 3 4
f 1 4 5
f 1 5 6
f 1 6 7
f 1 7 15
f 1 15 30
f 1 30 45
f 1 45 44
f 1 44 59
f 1 59 62
f 1 62 78
f 1 78 77
f 1 77 64
f 1 64 48
f 1 48 46
f 1 46 31
f 1 31 16
f 1 16 8
f 1 8 2
f 2 8 9
f 2 9 10
f 2 10 3
f 3 10 4
f 4 10 9
f 4 9 11
f 4 11 5
f 5 11 12
f 5 12 13
f 5 13 6
f 6 13 14
f 6 14 15
f 6 15 7
f 8 16 17
f 8 17 18
f 8 18 19
f 8 19 20
f 8 20 9
f 9 20 19
f 9 19 18
f 9 18 17
f 9 17 32
f 9 32 47
f 9 47 63
f 9 63 79
f 9 79 66
f 9 66 65
f 9 65 49
f 9 49 33
f 9 33 22
f 9 22 21
f 9 21 11
f 11 21 22
f 11 22 23
f 11 23 24
f 11 24 25
f 11 25 12
f 12 25 26
f 12 26 13
f 13 26 27
f 13 27 14
f 14 27 28
f 14 28 29
f 14 29 30
f 14 30 15
f 16 31 32
f 16 32 17
f 22 33 34
f 22 34 35
f 22 35 36
f 22 36 37
f 22 37 23
f 23 37 38
f 23 38 39
f 23 39 24
f 24 39 25
f 25 39 26
f 26 40 41
f 26 41 27
f 26 39 40
f 27 41 42
f 27 42 28
f 28 42 43
f 28 43 29
f 29 43 44
f 29 44 45
f 29 45 30
f 31 46 32
f 32 46 48
f 32 48 47
f 33 49 34
f 34 49 35
f 35 49 50
f 35 50 37
f 35 37 36
f 37 50 51
f 37 51 38
f 38 51 52
f 38 52 54
f 38 54 39
f 39 53 40
f 39 54 53
f 40 53 55
f 40 55 56
f 40 56 57
f 40 57 41
f 41 57 42
f 42 58 43
f 42 57 58
f 43 59 44
f 43 58 60
f 43 60 61
f 43 61 78
f 43 78 62
f 43 62 59
f 47 48 64
f 47 64 77
f 47 77 61
f 47 61 60
f 47 60 76
f 47 76 85
f 47 85 91
f 47 91 83
f 47 83 90
f 47 90 89
f 47 89 86
f 47 86 80
f 47 80 63
f 49 65 50
f 50 65 51
f 51 65 66
f 51 66 68
f 51 68 67
f 51 67 54
f 51 54 52
f 53 54 55
f 54 67 68
f 54 68 69
f 54 69 70
f 54 70 55
f 55 71 56
f 55 70 71
f 56 72 57
f 56 71 72
f 57 72 73
f 57 73 74
f 57 74 75
f 57 75 58
f 58 76 60
f 58 75 76
f 61 77 78
f 63 80 79
f 66 79 68
f 68 79 71
f 68 71 69
f 69 71 70
f 71 81 73
f 71 73 72
f 71 79 81
f 73 81 82
f 73 82 74
f 74 82 83
f 74 83 75
f 75 84 76
f 75 83 84
f 76 84 85
f 79 80 81
f 80 86 87
f 80 87 88
f 80 88 81
f 81 88 82
f 82 88 87
f 82 87 86
f 82 86 89
f 82 89 90
f 82 90 83
f 83 91 84
f 84 91 85

