# https://github.com/mikedh/trimesh
v 91.13337468 -9.67708248 17.28201019
v 90.94293042 -9.67708248 17.01355688
v 89.84136760 -9.67708248 18.28129287
v 89.71942857 -13.95396104 18.37608305
v 89.80437454 -13.95396104 17.96399701
v 89.74135017 -13.95396104 17.28201019
v 89.65366377 -13.95396104 16.71181782
v 89.45225775 -13.95396104 16.02259563
v 89.32209932 -13.95396104 15.73243431
v 89.16179607 -13.95396104 15.38257738
v 90.06743375 -9.67708248 15.89198618
v 89.67969508 -9.67708248 18.34424477
v 88.62060619 -13.95396104 18.90503059
v 88.77542666 -9.67708248 15.33084088
v 88.88229423 -9.67708248 15.33988604
v 89.19467942 -9.98984050 15.37027688
v 88.52195803 -13.95396104 15.32939342
v 88.62060619 -9.67708248 18.56747417
v 88.35754507 -9.67708248 18.58881984
v 87.34093012 -13.95396104 18.99149934
v 88.68225938 -9.67708248 15.32396594
v 87.34093012 -13.95396104 15.29610768
v 87.34093012 -9.67708248 18.62934095
v 86.06125405 -13.95396104 18.99222306
v 87.34093012 -10.69490841 15.29610768
v 87.34093012 -9.67708248 15.29647002
v 79.66287372 -13.95396104 15.29610768
v 80.94254978 -9.67708248 18.62897957
v 79.66287372 -9.67708248 18.62789350
v 80.94254978 -13.95396104 18.98390163
v 79.66287372 -10.69490841 15.29610768
v 79.66287372 -9.67708248 15.29647002
v 78.96275080 -13.95396104 15.32939342
v 78.60652336 -9.67708248 15.32469063
v 78.79148770 -9.67708248 15.31600590
v 78.39004779 -9.67708248 18.33302937
v 79.66287372 -13.95396104 18.95929966
v 78.56679082 -13.95396104 16.00269646
v 77.13777420 -9.67708248 17.28201019
v 78.47225332 -13.95396104 18.49366732
v 78.83670112 -13.95396104 18.64164241
v 78.15439011 -13.95396104 17.33338531
f 1 2 11
f 1 11 15
f 1 15 14
f 1 14 21
f 1 21 26
f 1 26 32
f 1 32 35
f 1 35 34
f 1 34 39
f 1 39 36
f 1 36 29
f 1 29 28
f 1 28 23
f 1 23 19
f 1 19 18
f 1 18 12
f 1 12 3
f 1 3 4
f 1 4 5
f 1 5 6
f 1 6 7
f 1 7 8
f 1 8 9
f 1 9 10
f 1 10 2
f 2 10 11
f 3 12 13
f 3 13 4
f 4 13 20
f 4 20 24
f 4 24 30
f 4 30 37
f 4 37 41
f 4 41 40
f 4 40 42
f 4 42 38
f 4 38 33
f 4 33 27
f 4 27 22
f 4 22 17
f 4 17 10
f 4 10 9
f 4 9 8
f 4 8 7
f 4 7 6
f 4 6 5
f 10 14 15
f 10 15 16
f 10 16 11
f 10 17 14
f 11 16 15
f 12 18 13
f 13 18 19
f 13 19 20
f 14 17 21
f 17 22 21
f 19 23 20
f 20 23 24
f 21 22 25
f 21 25 26
f 22 27 31
f 22 31 25
f 23 28 24
f 24 28 29
f 24 29 30
f 25 31 32
f 25 32 26
f 27 33 34
f 27 34 35
f 27 35 31
f 29 36 37
f 29 37 30
f 31 35 32
f 33 38 39
f 33 39 34
f 36 39 40
f 36 40 41
f 36 41 37
f 38 42 39
f 39 42 40

