# https://github.com/mikedh/trimesh
v 61.74839587 -3.43097685 -14.71669400
v 60.47162247 -3.43097685 -14.71669400
v 72.93746767 -3.57456570 -13.97120900
v 111.65580291 -3.43223646 -14.71636789
v 116.00815654 -3.51536690 -15.69414460
v 72.93746767 -3.51473662 -15.69316533
v 57.91178431 -3.57456570 -13.97120900
v 63.02517116 -3.51473662 -15.69316533
v 51.75433628 -3.51473662 -15.69283922
v 51.75433628 -3.43160618 -14.71669400
v 51.75433628 -3.57456570 -13.97153510
v 80.95032584 -4.29817774 -13.61885768
v 109.09596284 -4.29817774 -13.61918379
v 89.90032424 -3.57519503 -13.97120900
v 114.21564298 -3.57582531 -13.97153510
v 116.00815654 -3.57582531 -13.97186121
v 116.00815654 -3.51851545 -14.26940281
v 116.00815654 -3.43286579 -14.71636789
v 116.00815654 -3.46561469 -15.10656472
v 116.00815654 -4.16403548 -16.33392440
v 109.09596284 -3.51536690 -15.69414460
v 51.75433628 -4.29817774 -13.61885768
v 102.69322366 -4.16403548 -16.33392440
v 54.06888329 -4.16466576 -16.33294418
v 51.75433628 -4.16466576 -16.33261807
v 116.00815654 -5.57851256 -13.37123230
v 72.93746767 -4.62818028 -13.55491222
v 116.00815654 -4.29817774 -13.61950989
v 116.00815654 -4.80388775 -16.66963666
v 51.75433628 -5.33038085 -13.41919092
v 64.30823402 -4.80388775 -16.66963666
v 51.75433628 -4.80451803 -16.66963666
v 51.75433628 -4.28810181 -16.39786987
v 87.34048799 -9.86476670 -13.37090619
v 116.00815654 -8.13666202 -13.37123230
v 72.93746767 -5.57851256 -13.37123230
v 116.00815654 -5.57851256 -16.70356699
v 72.93746767 -5.37887345 -16.69508441
v 51.75433628 -5.57788227 -13.37155840
v 51.75433628 -5.57788227 -16.70324088
v 80.50376982 -9.86476670 -13.37123230
v 88.17070536 -9.86476670 -13.40385724
v 116.00815654 -9.20287269 -13.72423678
v 116.00815654 -8.77714361 -13.58296976
v 51.75433628 -8.13603174 -13.37155840
v 116.00815654 -8.13666202 -16.70356699
v 87.34048799 -9.41636655 -16.70389309
v 72.93746767 -5.57851256 -16.70356699
v 51.75433628 -8.13603174 -16.70356699
v 79.66726298 -9.86476670 -13.37155840
v 88.61726138 -9.86476670 -13.44039737
v 116.00815654 -9.66701748 -14.71636789
v 51.75433628 -9.20287269 -13.72423678
v 116.00815654 -8.42132051 -16.69019090
v 87.34048799 -9.86476670 -16.70389309
v 79.66726298 -9.41636655 -16.70389309
v 51.75433628 -8.84956785 -16.66963666
v 79.66726298 -9.86476670 -16.70389309
v 78.43451491 -9.86476670 -13.67725648
v 51.75433628 -9.66575787 -14.71669400
v 89.48521556 -9.86476670 -13.62244580
v 116.00815654 -9.45478323 -15.48436473
v 89.78082436 -9.86476670 -13.73793897
v 90.27769612 -9.86476670 -14.71636789
v 89.88774531 -9.86476670 -16.09967510
v 89.56698055 -9.86476670 -16.37992448
v 89.06381741 -9.86476670 -16.64190618
v 116.00815654 -8.84956785 -16.66963666
v 88.65499819 -9.86476670 -16.67420406
v 51.75433628 -9.31245398 -15.99592749
v 78.95025603 -9.86476670 -16.68692793
v 78.67351754 -9.86476670 -16.67387795
v 77.95651059 -9.86476670 -14.71636789
v 51.75433628 -9.38172871 -15.74797600
v 78.28356673 -9.86476670 -16.11500973
v 78.20809121 -9.86476670 -15.99592749
v 116.00815654 -9.31308331 -15.99592749
v 88.84997360 -9.86476670 -16.66017576
f 1 2 7
f 1 7 3
f 1 3 4
f 1 4 5
f 1 5 6
f 1 6 8
f 1 8 2
f 2 8 9
f 2 9 10
f 2 10 11
f 2 11 7
f 3 12 13
f 3 13 14
f 3 14 15
f 3 15 4
f 3 7 22
f 3 22 12
f 4 15 16
f 4 16 17
f 4 17 18
f 4 18 19
f 4 19 5
f 5 19 18
f 5 18 17
f 5 17 16
f 5 16 28
f 5 28 26
f 5 26 35
f 5 35 44
f 5 44 43
f 5 43 52
f 5 52 62
f 5 62 77
f 5 77 68
f 5 68 54
f 5 54 46
f 5 46 37
f 5 37 29
f 5 29 20
f 5 20 23
f 5 23 21
f 5 21 8
f 5 8 6
f 7 11 22
f 8 21 23
f 8 23 9
f 9 23 24
f 9 24 25
f 9 25 33
f 9 33 32
f 9 32 40
f 9 40 49
f 9 49 57
f 9 57 70
f 9 70 74
f 9 74 60
f 9 60 53
f 9 53 45
f 9 45 39
f 9 39 30
f 9 30 22
f 9 22 11
f 9 11 10
f 12 26 13
f 12 22 27
f 12 27 26
f 13 15 14
f 13 26 28
f 13 28 15
f 15 28 16
f 20 29 31
f 20 31 23
f 22 30 27
f 23 31 32
f 23 32 33
f 23 33 24
f 24 33 25
f 26 34 35
f 26 27 36
f 26 36 34
f 27 30 36
f 29 37 38
f 29 38 31
f 30 39 36
f 31 38 32
f 32 38 40
f 34 41 50
f 34 50 59
f 34 59 73
f 34 73 76
f 34 76 75
f 34 75 72
f 34 72 71
f 34 71 58
f 34 58 55
f 34 55 69
f 34 69 78
f 34 78 67
f 34 67 66
f 34 66 65
f 34 65 64
f 34 64 63
f 34 63 61
f 34 61 51
f 34 51 42
f 34 42 43
f 34 43 44
f 34 44 35
f 34 36 39
f 34 39 45
f 34 45 41
f 37 46 55
f 37 55 47
f 37 47 56
f 37 56 48
f 37 48 38
f 38 48 40
f 40 48 49
f 41 45 50
f 42 51 52
f 42 52 43
f 45 53 50
f 46 54 55
f 47 55 58
f 47 58 56
f 48 56 49
f 49 56 58
f 49 58 57
f 50 53 60
f 50 60 59
f 51 61 52
f 52 61 63
f 52 63 64
f 52 64 65
f 52 65 66
f 52 66 67
f 52 67 62
f 54 68 55
f 55 68 69
f 57 58 71
f 57 71 72
f 57 72 70
f 59 60 73
f 60 74 72
f 60 72 75
f 60 75 76
f 60 76 73
f 62 67 77
f 67 78 77
f 68 77 69
f 69 77 78
f 70 72 74

