# https://github.com/mikedh/trimesh
v 6.75701698 18.73892173 37.79361484
v 6.76312337 53.29484116 37.79361484
v 7.32557119 53.29484116 35.63625519
v 7.32557119 -28.60417542 35.63625519
v 6.75789041 -15.80827101 37.79361484
v 7.04914352 54.56919654 37.79361484
v 7.34650303 55.22382760 35.78434542
v 7.33342063 54.56919654 35.69656343
v 7.60636220 53.29484116 34.99631799
v 7.60636220 -28.60417542 34.99631799
v 7.33429406 -29.52066043 35.70426960
v 6.76312337 -22.20622417 37.79361484
v 7.33952321 55.22382760 37.79361484
v 7.34213969 55.22382760 36.47923037
v 7.97522484 55.46822818 37.79361484
v 7.99353638 55.46822818 36.47923037
v 7.99615286 55.35475839 35.29450849
v 8.42431348 55.26746866 34.51016668
v 7.64298529 54.56919654 35.05662623
v 8.28304645 54.56919654 34.47532192
v 8.24641954 53.29484116 34.46560547
v 8.24641954 -28.60417542 34.46560547
v 8.28391606 -29.88725749 34.46627556
v 7.59764314 -29.92217186 35.24659706
v 6.90613344 -25.99436832 37.79361484
v 6.83462650 -24.77238449 37.79361484
v 7.38312612 -30.29749560 36.47923037
v 9.27365489 55.70389445 37.79361484
v 9.27365489 55.70389445 36.47923037
v 9.27365489 55.54678361 35.19969066
v 9.27365489 55.30238303 34.48537305
v 9.27365489 54.56919654 34.39122531
v 9.27365489 53.29484116 34.37112256
v 9.27365489 -4.29544963 34.37112256
v 9.27365489 -28.60417542 34.37145749
v 9.27365489 -29.88725749 34.37212782
v 8.42518309 -30.62917066 34.49810503
v 8.17229993 -30.77755482 35.19969066
v 7.38312612 -30.29749560 37.79361484
v 8.02318346 -30.88229792 36.47923037
v 11.83214885 55.70389445 37.79361484
v 13.11226735 55.70389445 36.47923037
v 13.11226735 55.54678361 35.19969066
v 13.11226735 55.30238303 34.48537305
v 13.11226735 54.56919654 34.39122531
v 13.11226735 53.29484116 34.37145749
v 13.11226735 -31.17033956 34.37145749
v 10.55289996 -29.88725749 34.37145749
v 11.83214885 -31.17033956 34.37715339
v 9.27365489 -30.77755482 34.46627556
v 10.97670105 -31.88607267 34.50447078
v 9.90412356 -31.80751725 35.81014407
v 10.55115691 -31.97335478 35.30992084
v 8.02318346 -30.88229792 37.79361484
v 9.25882944 -31.51947561 36.47923037
v 13.07738349 55.61661234 37.79361484
v 14.44383439 55.50314255 36.52948700
v 15.20946370 55.37221176 35.43187750
v 14.48656387 55.44204050 35.08309472
v 14.12293038 55.26746866 34.51016668
v 14.48656387 54.52555549 34.49006393
v 14.39151242 53.29484116 34.45990957
v 14.39151242 -11.96775531 34.46124976
v 14.39151242 -23.48930242 34.46158492
v 14.39151242 -31.17033956 34.46192009
v 14.39151242 -32.44468731 34.47733195
v 13.15499302 -32.42723394 34.45923972
v 14.39151242 44.33072768 34.45990957
v 14.39151242 28.97738964 34.46024474
v 14.39151242 14.89840507 34.46057990
v 13.61018805 -33.14296705 34.51753745
v 11.83214885 -32.00826915 34.47130137
v 9.89889060 -31.81624393 36.47923037
v 13.38259244 -33.24771016 35.19969066
v 13.22649996 -33.31753890 36.47923037
v 12.58644262 -33.03822395 36.47923037
v 9.25882944 -31.51947561 37.79361484
v 9.91720214 -31.82497062 37.79361484
v 14.44383439 55.36348508 37.79361484
v 15.20946370 55.37221176 36.13614349
v 15.42572377 54.63902528 37.79361484
v 15.66465492 53.29484116 37.79361484
v 15.26701482 54.52555549 35.08309472
v 14.97576170 54.92705929 34.57885094
v 15.03680273 54.07167633 34.55606783
v 15.03854578 53.29484116 34.55405756
v 15.03767616 4.66866528 34.55506258
v 15.03854578 34.09226073 34.55439272
v 15.03680273 -22.20622417 34.55573291
v 15.03680273 -32.44468731 34.55606783
v 15.03767616 -6.85288422 34.55539774
v 15.03505968 -33.09059932 34.55740802
v 14.39151242 -33.13424037 34.52624888
v 15.03854578 49.45432927 34.55405756
v 14.39151242 -33.46591543 35.19969066
v 10.58778000 -32.13046562 37.79361484
v 14.44819392 -33.43973537 36.55361029
v 14.53888203 -33.39609432 37.79361484
v 13.35381497 -33.24771016 37.79361484
v 13.32503751 -33.23897585 37.79361484
v 12.68498017 -33.02949726 37.79361484
v 11.83214885 -32.68908789 37.79361484
v 15.66465492 -31.17033956 37.79361484
v 15.35247378 53.29484116 35.19969066
v 15.35247378 31.53482518 35.19969066
v 15.03854578 22.57943839 34.55472765
v 15.34985730 -32.44468731 35.19969066
v 15.35072692 -17.09135308 35.19969066
v 15.19027872 -33.30007790 35.19969066
v 15.24085383 -33.36990664 36.17634898
v 14.71241262 -33.35244564 37.79361484
v 15.61669248 -32.34867852 37.79361484
v 15.35160035 5.94301875 35.19969066
v 15.60884685 -32.44468731 37.79361484
v 15.37340180 -33.03822395 37.79361484
f 1 2 3
f 1 3 4
f 1 4 5
f 1 5 12
f 1 12 26
f 1 26 25
f 1 25 39
f 1 39 54
f 1 54 77
f 1 77 78
f 1 78 96
f 1 96 102
f 1 102 101
f 1 101 100
f 1 100 99
f 1 99 98
f 1 98 111
f 1 111 115
f 1 115 114
f 1 114 112
f 1 112 103
f 1 103 82
f 1 82 81
f 1 81 79
f 1 79 56
f 1 56 41
f 1 41 28
f 1 28 15
f 1 15 13
f 1 13 6
f 1 6 2
f 2 6 7
f 2 7 8
f 2 8 3
f 3 8 9
f 3 9 10
f 3 10 4
f 4 10 11
f 4 11 12
f 4 12 5
f 6 13 14
f 6 14 7
f 7 14 15
f 7 15 16
f 7 16 17
f 7 17 18
f 7 18 19
f 7 19 8
f 8 19 9
f 9 19 20
f 9 20 21
f 9 21 22
f 9 22 10
f 10 22 23
f 10 23 24
f 10 24 11
f 11 25 26
f 11 26 12
f 11 24 27
f 11 27 25
f 13 15 14
f 15 28 29
f 15 29 16
f 16 29 17
f 17 29 30
f 17 30 18
f 18 30 31
f 18 31 32
f 18 32 20
f 18 20 19
f 20 32 33
f 20 33 21
f 21 33 34
f 21 34 22
f 22 34 35
f 22 35 36
f 22 36 23
f 23 36 37
f 23 37 24
f 24 37 38
f 24 38 27
f 25 27 39
f 27 38 40
f 27 40 54
f 27 54 39
f 28 41 42
f 28 42 29
f 29 42 43
f 29 43 30
f 30 43 44
f 30 44 31
f 31 44 45
f 31 45 32
f 32 45 33
f 33 45 46
f 33 46 47
f 33 47 34
f 34 47 48
f 34 48 35
f 35 48 36
f 36 48 47
f 36 47 49
f 36 49 50
f 36 50 37
f 37 50 51
f 37 51 38
f 38 52 40
f 38 51 53
f 38 53 52
f 40 52 55
f 40 55 77
f 40 77 54
f 41 56 42
f 42 57 58
f 42 58 59
f 42 59 43
f 42 56 57
f 43 59 60
f 43 60 44
f 44 60 45
f 45 61 62
f 45 62 46
f 45 60 61
f 46 62 68
f 46 68 47
f 47 63 64
f 47 64 65
f 47 65 66
f 47 66 67
f 47 67 49
f 47 68 69
f 47 69 70
f 47 70 63
f 49 67 71
f 49 71 72
f 49 72 50
f 50 72 51
f 51 72 71
f 51 71 53
f 52 73 55
f 52 53 74
f 52 74 75
f 52 75 76
f 52 76 73
f 53 71 74
f 55 73 78
f 55 78 77
f 56 79 57
f 57 79 80
f 57 80 58
f 58 81 82
f 58 82 83
f 58 83 84
f 58 84 60
f 58 60 59
f 58 80 81
f 60 84 61
f 61 85 62
f 61 84 85
f 62 85 86
f 62 86 94
f 62 94 68
f 63 87 91
f 63 91 64
f 63 70 88
f 63 88 87
f 64 89 90
f 64 90 65
f 64 91 89
f 65 90 92
f 65 92 66
f 66 92 93
f 66 93 67
f 67 93 71
f 68 94 88
f 68 88 69
f 69 88 70
f 71 93 95
f 71 95 74
f 73 76 96
f 73 96 78
f 74 95 75
f 75 95 97
f 75 97 98
f 75 98 99
f 75 99 100
f 75 100 101
f 75 101 102
f 75 102 76
f 76 102 96
f 79 81 80
f 82 103 105
f 82 105 104
f 82 104 83
f 83 104 85
f 83 85 84
f 85 104 86
f 86 104 105
f 86 105 94
f 87 88 91
f 88 105 106
f 88 106 91
f 88 94 105
f 89 91 90
f 90 107 92
f 90 91 108
f 90 108 107
f 91 106 108
f 92 109 95
f 92 95 93
f 92 107 109
f 95 110 97
f 95 109 110
f 97 110 98
f 98 110 111
f 103 112 107
f 103 107 108
f 103 108 113
f 103 113 105
f 105 113 106
f 106 113 108
f 107 112 114
f 107 114 109
f 109 114 110
f 110 114 115
f 110 115 111

