v 97.469082 -9.000000 40.133372
v 98.930843 -9.000000 40.133372
v 97.881335 -9.000000 39.250087
v 97.881085 -15.000000 39.250087
v 97.469332 -15.000000 40.133372
v 100.023101 -12.000000 40.133372
v 98.519589 -9.000000 39.250087
v 98.519339 -15.000000 39.250087
v 98.931093 -15.000000 40.133372
v 99.594347 -13.178152 40.133372
v 99.611098 -12.000000 39.250087
f 1 2 7
f 1 7 3
f 1 3 4
f 1 4 5
f 1 5 9
f 1 9 10
f 1 10 6
f 1 6 2
f 2 6 7
f 3 7 11
f 3 11 8
f 3 8 4
f 4 8 9
f 4 9 5
f 6 10 8
f 6 8 11
f 6 11 7
f 8 10 9
