# https://github.com/mikedh/trimesh
v 37.91532953 -3.37111232 28.78410105
v 37.91532953 -3.37210113 26.24079726
v 37.42833626 -3.37111232 28.78410105
v 37.91532953 -13.46470982 28.78410105
v 37.91532953 -3.37901706 25.75442235
v 34.86947233 -3.37210113 26.24079726
v 34.86947233 -3.37210113 28.78410105
v 33.29635194 -13.46470982 28.78410105
v 37.91532953 -13.46470982 26.13639457
v 37.91532953 -3.39087322 24.96136530
v 34.86947233 -3.39087322 24.96136530
v 33.98908597 -3.52425649 24.96136530
v 33.97371129 -3.51437603 26.24079726
v 33.98456434 -3.51239937 28.78410105
v 33.30087357 -13.46470982 28.58985221
v 33.29589997 -5.57637005 28.78410105
v 33.29635194 -5.57637005 27.52073078
v 33.29861371 -5.57637005 26.24079726
v 37.42833626 -13.46470982 26.13589301
v 37.91532953 -5.57340649 23.84355627
v 37.91532953 -3.44521477 24.64715410
v 34.86947233 -3.53413599 24.13518031
v 34.07952043 -3.57464470 24.19742040
v 33.52470083 -4.29589874 24.96136530
v 33.50706629 -4.29589874 26.24079726
v 33.96783374 -3.52326768 28.78410105
v 33.97371129 -3.51437603 28.78410105
v 33.36417827 -13.46470982 27.52073078
v 33.50661432 -4.29589874 28.78410105
v 36.14867735 -13.46470982 26.13589301
v 34.86947233 -5.57340649 23.84355627
v 37.42833626 -4.29589874 23.65683649
v 37.91532953 -4.78200333 23.72811173
v 37.91532953 -3.53413599 24.13518031
v 36.14867735 -4.29589874 23.65683649
v 34.86947233 -4.29589874 23.65733804
v 33.88598865 -4.29589874 23.98911799
v 33.92171161 -5.36098150 24.00266953
v 33.42884079 -13.46470982 27.30238916
v 35.17559475 -13.46470982 26.14593127
v 34.86947233 -13.46470982 26.14944502
v 37.91532953 -4.29589874 23.65733804
v 37.91532953 -3.82362603 23.95347989
v 34.08313812 -13.46470982 26.39840490
v 33.81680640 -13.46470982 26.50883055
f 1 2 6
f 1 6 3
f 1 3 7
f 1 7 14
f 1 14 27
f 1 27 26
f 1 26 29
f 1 29 16
f 1 16 8
f 1 8 4
f 1 4 9
f 1 9 20
f 1 20 33
f 1 33 42
f 1 42 43
f 1 43 34
f 1 34 21
f 1 21 10
f 1 10 5
f 1 5 2
f 2 5 6
f 3 6 7
f 4 8 15
f 4 15 28
f 4 28 39
f 4 39 45
f 4 45 44
f 4 44 41
f 4 41 40
f 4 40 30
f 4 30 19
f 4 19 9
f 5 10 11
f 5 11 6
f 6 11 12
f 6 12 13
f 6 13 14
f 6 14 7
f 8 16 17
f 8 17 18
f 8 18 15
f 9 19 20
f 10 21 11
f 11 21 22
f 11 22 23
f 11 23 12
f 12 23 24
f 12 24 13
f 13 24 25
f 13 25 26
f 13 26 27
f 13 27 14
f 15 18 28
f 16 29 25
f 16 25 17
f 17 25 18
f 18 25 24
f 18 24 28
f 19 30 31
f 19 31 20
f 20 31 35
f 20 35 32
f 20 32 33
f 21 34 22
f 22 34 32
f 22 32 35
f 22 35 36
f 22 36 23
f 23 36 37
f 23 37 24
f 24 37 38
f 24 38 39
f 24 39 28
f 25 29 26
f 30 40 31
f 31 38 36
f 31 36 35
f 31 40 41
f 31 41 38
f 32 42 33
f 32 34 43
f 32 43 42
f 36 38 37
f 38 41 44
f 38 44 45
f 38 45 39

