# https://github.com/mikedh/trimesh
v 114.25467277 -21.28053300 8.11049052
v 114.24064828 -38.85200905 8.11049052
v 114.27220242 -21.28751664 -8.30892973
v 114.23714311 -21.28053300 -7.96973948
v 78.49742580 -21.28053300 8.11049052
v 114.23714311 -40.13023181 8.11049052
v 114.25467277 -40.13488883 -8.30892973
v 114.25817793 -38.85433947 -8.30892973
v 113.93563007 -21.28053300 -8.30892973
v 78.45535425 -21.28053300 -8.30892973
v 78.53949734 -40.13023181 8.11049052
v 114.12144590 -41.41078117 8.11049052
v 114.13547038 -41.41311159 -8.30892973
v 78.50093096 -40.12790520 -8.30892973
v 78.55001475 -40.33977521 8.11049052
v 113.79188770 -42.24197495 8.11049052
v 113.79539287 -42.23964834 -8.30892973
v 78.65168748 -41.40845456 -8.30892973
v 78.67622938 -41.41078117 8.11049052
v 113.65515185 -42.28388439 8.11049052
v 107.57232117 -44.79609003 1.91985115
v 108.47335131 -44.63311311 0.20139003
v 108.47335131 -44.63311311 -0.16352172
v 112.93643618 -42.49575821 -8.30892973
v 107.55829668 -44.79609003 -1.91734861
v 78.91112898 -42.13953176 -8.30892973
v 78.91813932 -42.14418879 8.11049052
v 78.70077127 -41.52952205 8.11049052
v 112.93292720 -42.50041524 8.11049052
v 107.45311878 -44.76349465 2.35870958
v 106.94826027 -44.86593783 2.35870958
v 106.53806416 -45.00563725 1.91985115
v 107.90538834 -44.77979234 0.63221094
v 107.88785869 -44.77746573 -0.60881048
v 111.65676025 -42.56094898 -8.30892973
v 107.34794088 -44.73322968 -2.75326986
v 106.51001519 -44.82170178 -3.18569818
v 106.06826495 -44.71227496 -3.94124243
v 105.25488306 -44.78910640 -4.04251754
v 106.53806416 -45.00796386 -1.91734861
v 79.66490967 -42.40728230 -8.30892973
v 79.66490967 -42.40495569 8.11049052
v 111.65325508 -42.56793262 8.11049052
v 105.25488306 -44.80307748 4.07717052
v 106.08228943 -44.71460157 3.95178260
v 106.52053451 -44.82170178 3.19945342
v 107.34092673 -44.73089926 2.77184756
v 106.53105001 -44.94277308 2.35870958
v 106.53806416 -45.02891858 0.64024864
v 105.25488306 -45.01494749 3.20106106
v 103.97521095 -45.06384439 3.20106106
v 106.53806416 -45.02891858 -0.63774622
v 103.97521095 -44.81238773 -4.11646456
v 110.37357915 -42.57026304 -8.30892973
v 105.25488306 -45.00098022 -3.19695100
v 105.25488306 -45.04754288 -1.91734861
v 103.97521095 -45.04055924 -3.19695100
v 80.94808886 -42.57724668 5.76026584
v 80.94458370 -42.55163493 -8.30892973
v 101.41586290 -45.00098022 -1.91734861
v 101.41586290 -45.02193494 -0.63774622
v 80.94458370 -42.57492007 -5.75615578
v 80.94808886 -42.57724668 2.35870958
v 101.41586290 -45.02193494 1.91985115
v 80.94808886 -42.54930832 8.11049052
v 110.16672851 -42.57492007 8.11049052
v 103.97521095 -44.83567287 4.14629507
v 105.25488306 -45.04987330 -0.63774622
v 102.69553502 -44.80307748 4.08038582
v 102.69553502 -45.01029428 3.20106106
v 101.85410416 -45.01960452 2.35870958
v 103.97521095 -45.06617099 -1.91734861
v 102.69553502 -44.77280871 -4.05537777
v 83.50743691 -42.57492007 -8.30892973
v 109.09741220 -42.57492007 -8.30892973
v 102.69553502 -45.04055924 -1.91734861
v 102.69553502 -44.98468253 -3.19695100
v 83.50743691 -42.57724668 8.11049052
v 109.09390322 -42.57724668 8.11049052
f 1 2 3
f 1 3 4
f 1 4 9
f 1 9 10
f 1 10 5
f 1 5 11
f 1 11 15
f 1 15 19
f 1 19 28
f 1 28 27
f 1 27 42
f 1 42 65
f 1 65 78
f 1 78 79
f 1 79 66
f 1 66 43
f 1 43 29
f 1 29 20
f 1 20 16
f 1 16 12
f 1 12 6
f 1 6 2
f 2 6 7
f 2 7 8
f 2 8 3
f 3 8 7
f 3 7 13
f 3 13 17
f 3 17 24
f 3 24 35
f 3 35 54
f 3 54 75
f 3 75 74
f 3 74 59
f 3 59 41
f 3 41 26
f 3 26 18
f 3 18 14
f 3 14 10
f 3 10 9
f 3 9 4
f 5 10 11
f 6 12 7
f 7 12 13
f 10 14 11
f 11 14 15
f 12 16 13
f 13 16 17
f 14 18 15
f 15 18 19
f 16 20 21
f 16 21 22
f 16 22 23
f 16 23 17
f 17 23 25
f 17 25 24
f 18 26 27
f 18 27 28
f 18 28 19
f 20 29 21
f 21 30 31
f 21 31 32
f 21 32 33
f 21 33 22
f 21 29 30
f 22 33 23
f 23 33 34
f 23 34 25
f 24 25 36
f 24 36 37
f 24 37 38
f 24 38 39
f 24 39 35
f 25 34 40
f 25 40 36
f 26 41 27
f 27 41 42
f 29 43 44
f 29 44 45
f 29 45 46
f 29 46 47
f 29 47 30
f 30 47 31
f 31 46 48
f 31 48 32
f 31 47 46
f 32 49 33
f 32 48 50
f 32 50 51
f 32 51 49
f 33 49 52
f 33 52 34
f 34 52 40
f 35 39 53
f 35 53 54
f 36 40 37
f 37 40 55
f 37 55 38
f 38 55 39
f 39 55 53
f 40 52 56
f 40 56 57
f 40 57 55
f 41 58 42
f 41 59 60
f 41 60 61
f 41 61 62
f 41 62 63
f 41 63 58
f 42 58 64
f 42 64 65
f 43 66 67
f 43 67 44
f 44 50 45
f 44 67 50
f 45 50 46
f 46 50 48
f 49 51 68
f 49 68 52
f 50 67 51
f 51 67 69
f 51 69 70
f 51 70 71
f 51 71 64
f 51 64 72
f 51 72 68
f 52 68 56
f 53 57 73
f 53 73 59
f 53 59 74
f 53 74 75
f 53 75 54
f 53 55 57
f 56 68 72
f 56 72 57
f 57 72 76
f 57 76 60
f 57 60 77
f 57 77 73
f 58 63 61
f 58 61 64
f 59 73 77
f 59 77 60
f 60 76 61
f 61 76 72
f 61 72 64
f 61 63 62
f 64 71 65
f 65 71 70
f 65 70 69
f 65 69 67
f 65 67 78
f 66 79 67
f 67 79 78

