# https://github.com/mikedh/trimesh
v 0.32734186 37.93598219 40.31908862
v 0.48300334 53.28997435 41.59840806
v 0.33833413 44.33422903 40.31908862
v 0.64415715 37.93598219 39.21246304
v 0.64415715 3.38724950 39.21246304
v 0.32917263 -3.01099544 40.31908862
v 0.47934180 -23.48897060 41.59840806
v 0.80164940 53.28997435 42.43704040
v 0.81630321 54.57321662 42.42202425
v 0.56724179 54.57321662 41.59840806
v 0.36763413 53.28997435 40.31908862
v 0.35847263 50.73246825 40.31908862
v 0.65331864 44.33422903 39.22343719
v 1.59461063 53.28997435 38.78332839
v 1.59461063 31.53773535 38.75387202
v 1.59461063 -3.01099544 38.75444986
v 1.59461063 -9.40924037 38.75618242
v 0.65881096 -24.77220904 39.22054943
v 0.34199567 -24.77220904 40.31908862
v 0.48300334 -24.77220904 41.59840806
v 0.80164940 -26.04647289 42.43588568
v 1.59461063 30.25449690 43.07641121
v 1.59461063 53.28997435 43.07641121
v 1.59461063 54.57321662 43.04060243
v 0.87124166 55.30007930 42.35040479
v 0.80348017 55.35392692 41.59840806
v 0.62584179 54.62705660 40.31793389
v 0.73755709 54.23221224 39.33144279
v 0.68628018 53.28997435 39.26213420
v 0.67162637 50.73246825 39.24769493
v 7.33942785 55.22829011 37.79394953
v 7.05008179 54.57321662 37.79394953
v 6.76439728 53.28997435 37.79394953
v 6.75707037 18.73226992 37.79394953
v 6.75707037 -15.80748721 37.79394953
v 6.76256651 -22.20573215 37.79394953
v 1.59461063 -15.80748721 38.76773345
v 1.59461063 -24.77220904 38.79430207
v 0.73755709 -25.66957773 39.34010654
v 0.64781869 -26.08236748 40.36529466
v 0.58189560 -26.04647289 41.59840806
v 0.85475708 -26.92589809 42.37004269
v 1.59461063 -26.04647289 43.07294609
v 1.59461063 -22.20573215 43.07352393
v 1.59461063 -1.72775699 43.07467865
v 2.24289119 36.65274184 43.51709736
v 2.24289119 50.73246825 43.51709736
v 2.24472197 53.28997435 43.51709736
v 2.34178345 54.57321662 43.49688258
v 3.22264467 55.24623932 43.54251078
v 1.59461063 55.39879611 42.62186362
v 1.59461063 55.51545450 41.59840806
v 0.83644935 55.30905772 40.74360294
v 7.99503533 55.47058530 37.79394953
v 6.83398573 -24.77220904 37.79394953
v 6.90540876 -25.99263290 37.79394953
v 7.38337785 -30.30000528 37.79394953
v 0.87124166 -26.83615970 40.82215264
v 8.02433914 -30.88329722 37.79394953
v 0.81630321 -26.97973808 41.59840806
v 1.36203379 -27.61687000 41.59840806
v 1.97369127 -28.09247434 42.59356197
v 1.56713759 -27.34766245 42.78531638
v 2.36925268 -27.32971324 43.46338324
v 2.26303733 -26.04647289 43.51536576
v 2.26120655 -23.48897060 43.51536576
v 2.25021810 12.33402499 43.51652048
v 2.24472197 30.25449690 43.51709736
v 2.88201790 39.21024604 43.57312283
v 2.88201790 46.89172751 43.57312283
v 2.88384867 53.28997435 43.57312283
v 2.98091016 54.57321662 43.56445908
v 4.15477898 54.57321662 43.61066417
v 10.92696504 55.28213773 43.69441155
v 13.11171812 55.63211289 43.69441155
v 14.39180229 55.69492366 43.69441155
v 2.82891022 55.42571611 42.98977559
v 4.15477898 55.50647609 42.87830440
v 9.27329255 55.69492366 41.59840806
v 9.23849641 55.69492366 37.79394953
v 2.18612197 -27.98479437 40.93882247
v 8.05730068 -30.90124642 37.79394953
v 2.00299126 -28.07453276 41.59840806
v 4.61444034 -29.33084740 42.57565758
v 13.23990656 -33.32414494 43.69441155
v 4.94407485 -29.09753063 43.42873014
v 3.24827931 -28.04760514 43.55463965
v 9.26047332 -31.52042914 37.79394953
v 7.99503533 -30.93713720 41.59840806
v 3.00837938 -27.32971324 43.57312283
v 2.90216403 -26.04647289 43.57312283
v 2.25937197 -14.53322146 43.51594264
v 2.25754119 -10.69248073 43.51594264
v 2.24655655 25.13948851 43.51709736
v 2.88384867 32.81199919 43.57312283
v 2.90033326 -20.93146640 43.57312283
v 4.15477898 -26.04647289 43.62914640
v 4.15477898 53.28997435 43.62856856
v 10.67973821 54.57321662 43.69441155
v 19.03600450 55.69492366 43.69441155
v 11.83163013 55.69492366 37.79394953
v 7.25885095 -30.56922047 42.44108336
v 13.96876784 -33.66514168 43.69441155
v 12.32791457 -32.76777299 43.69441155
v 4.15477898 -27.32971324 43.62856856
v 11.28589955 -31.95116428 43.69441155
v 9.91608079 -31.82553511 37.79394953
v 9.89776925 -31.81656432 41.59840806
v 2.25387965 3.38724950 43.51652048
v 10.63578440 -29.88721935 43.69441155
v 10.63029208 -18.36498951 43.69441155
v 10.62846130 39.21024604 43.69441155
v 10.62846130 53.28997435 43.69441155
v 19.03600450 55.69492366 40.31908862
v 19.03600450 -35.96241102 43.69441155
v 13.11171812 55.61416368 37.79394953
v 15.50524035 -34.36509201 43.69441155
v 10.76947279 -31.13456320 43.69441155
v 10.58634208 -32.13064107 37.79394953
v 17.59476271 -35.31630068 43.69441155
v 19.03600450 55.45263610 39.04612252
v 18.90231993 -35.90856341 43.69441155
v 19.03600450 -35.96241102 40.31908862
v 19.03600450 55.11163173 38.40617436
v 14.44307920 55.36289771 37.79394953
v 11.83163013 -32.68701301 37.79394953
v 17.96102413 -35.47782827 40.31908862
v 16.95014369 -35.02017313 40.31908862
v 19.03600450 -35.91754182 39.78945645
v 19.03600450 54.46552902 38.38538221
v 15.42465964 54.63602739 37.79394953
v 12.68502212 -33.02800976 37.79394953
v 18.68988541 -35.72909425 39.40594953
v 19.03600450 -35.78293423 39.25173789
v 19.03600450 53.28997435 38.37151982
v 15.66456338 53.28997435 37.79394953
v 13.30766805 -33.23440654 37.79394953
v 19.03600450 -35.26246070 38.63835786
v 19.03600450 -33.72796008 38.37151982
v 15.66456338 -31.17045398 37.79394953
v 13.35344882 -33.24337733 37.79394953
v 19.03600450 -35.13683152 38.52111115
v 19.03600450 -34.43688120 38.37787318
v 15.61694802 -32.34600864 37.79394953
v 14.53830610 -33.39593413 37.79394953
v 19.03600450 -34.72403796 38.38364917
v 15.60779034 -32.44471782 37.79394953
v 14.71228294 -33.36003572 37.79394953
v 15.37338273 -33.03698055 37.79394953
f 1 2 3
f 1 3 4
f 1 4 5
f 1 5 6
f 1 6 7
f 1 7 2
f 2 8 9
f 2 9 10
f 2 10 11
f 2 11 12
f 2 12 3
f 2 7 8
f 3 13 4
f 3 12 13
f 4 13 14
f 4 14 15
f 4 15 5
f 5 16 17
f 5 17 18
f 5 18 19
f 5 19 6
f 5 15 16
f 6 19 7
f 7 19 20
f 7 20 21
f 7 21 8
f 8 22 23
f 8 23 9
f 8 21 22
f 9 24 25
f 9 25 10
f 9 23 24
f 10 25 26
f 10 26 27
f 10 27 11
f 11 27 28
f 11 28 29
f 11 29 30
f 11 30 13
f 11 13 12
f 13 30 14
f 14 30 29
f 14 29 28
f 14 28 31
f 14 31 32
f 14 32 33
f 14 33 15
f 15 33 34
f 15 34 35
f 15 35 16
f 16 35 36
f 16 36 17
f 17 36 37
f 17 37 18
f 18 37 38
f 18 38 39
f 18 39 19
f 19 39 40
f 19 40 41
f 19 41 20
f 20 41 21
f 21 41 42
f 21 42 43
f 21 43 44
f 21 44 45
f 21 45 22
f 22 46 47
f 22 47 23
f 22 45 46
f 23 47 48
f 23 48 24
f 24 49 25
f 24 48 49
f 25 50 51
f 25 51 52
f 25 52 26
f 25 49 50
f 26 53 27
f 26 52 53
f 27 53 28
f 28 53 54
f 28 54 31
f 31 54 80
f 31 80 101
f 31 101 116
f 31 116 125
f 31 125 131
f 31 131 136
f 31 136 140
f 31 140 144
f 31 144 147
f 31 147 149
f 31 149 148
f 31 148 145
f 31 145 141
f 31 141 137
f 31 137 132
f 31 132 126
f 31 126 119
f 31 119 107
f 31 107 88
f 31 88 82
f 31 82 59
f 31 59 57
f 31 57 56
f 31 56 55
f 31 55 36
f 31 36 35
f 31 35 34
f 31 34 33
f 31 33 32
f 36 55 38
f 36 38 37
f 38 55 56
f 38 56 57
f 38 57 39
f 39 58 40
f 39 57 59
f 39 59 58
f 40 58 60
f 40 60 41
f 41 60 42
f 42 60 61
f 42 61 62
f 42 62 63
f 42 63 64
f 42 64 43
f 43 64 65
f 43 65 66
f 43 66 67
f 43 67 68
f 43 68 46
f 43 46 44
f 44 46 45
f 46 68 95
f 46 95 69
f 46 69 70
f 46 70 47
f 47 70 71
f 47 71 48
f 48 71 72
f 48 72 49
f 49 72 50
f 50 72 73
f 50 73 74
f 50 74 75
f 50 75 76
f 50 76 77
f 50 77 51
f 51 77 52
f 52 77 78
f 52 78 79
f 52 79 80
f 52 80 53
f 53 80 54
f 58 59 81
f 58 81 61
f 58 61 60
f 59 82 83
f 59 83 81
f 61 81 83
f 61 83 62
f 62 84 85
f 62 85 86
f 62 86 87
f 62 87 64
f 62 64 63
f 62 83 88
f 62 88 89
f 62 89 84
f 64 87 90
f 64 90 65
f 65 90 91
f 65 91 92
f 65 92 66
f 66 92 93
f 66 93 67
f 67 94 68
f 67 93 94
f 68 94 91
f 68 91 96
f 68 96 95
f 69 95 97
f 69 97 70
f 70 98 71
f 70 97 98
f 71 98 72
f 72 98 73
f 73 98 74
f 74 98 99
f 74 99 113
f 74 113 112
f 74 112 111
f 74 111 110
f 74 110 118
f 74 118 106
f 74 106 104
f 74 104 85
f 74 85 103
f 74 103 117
f 74 117 120
f 74 120 122
f 74 122 115
f 74 115 100
f 74 100 76
f 74 76 75
f 76 100 114
f 76 114 101
f 76 101 80
f 76 80 79
f 76 79 78
f 76 78 77
f 82 88 83
f 84 89 102
f 84 102 103
f 84 103 85
f 85 104 87
f 85 87 86
f 87 105 90
f 87 104 106
f 87 106 105
f 88 107 89
f 89 107 108
f 89 108 103
f 89 103 102
f 90 105 91
f 91 109 92
f 91 105 97
f 91 97 96
f 91 94 109
f 92 109 94
f 92 94 93
f 95 96 97
f 97 105 110
f 97 110 111
f 97 111 112
f 97 112 113
f 97 113 98
f 98 113 99
f 100 115 123
f 100 123 129
f 100 129 134
f 100 134 138
f 100 138 142
f 100 142 146
f 100 146 143
f 100 143 139
f 100 139 135
f 100 135 130
f 100 130 124
f 100 124 121
f 100 121 114
f 101 114 116
f 103 108 117
f 105 106 118
f 105 118 110
f 107 119 108
f 108 119 120
f 108 120 117
f 114 121 116
f 115 122 123
f 116 121 124
f 116 124 125
f 119 126 123
f 119 123 127
f 119 127 128
f 119 128 120
f 120 128 122
f 122 127 123
f 122 128 127
f 123 126 129
f 124 130 131
f 124 131 125
f 126 132 133
f 126 133 129
f 129 133 134
f 130 135 136
f 130 136 131
f 132 137 134
f 132 134 133
f 134 137 138
f 135 139 140
f 135 140 136
f 137 141 142
f 137 142 138
f 139 143 144
f 139 144 140
f 141 145 142
f 142 145 146
f 143 146 147
f 143 147 144
f 145 148 146
f 146 148 149
f 146 149 147

