v 66.053155 -9.000000 40.133342
v 68.464938 -11.610024 40.133428
v 67.514773 -9.000000 40.133342
v 66.465368 -9.000000 39.250087
v 66.465368 -15.000000 39.250087
v 66.053404 -15.000000 40.133342
v 68.606676 -11.998825 40.133428
v 67.103810 -9.000000 39.250087
v 67.103561 -15.000000 39.250087
v 67.515024 -15.000000 40.133342
v 68.606676 -12.000000 40.133342
v 68.194963 -12.000000 39.250087
v 68.178214 -13.178152 40.133342
f 1 2 3
f 1 3 8
f 1 8 4
f 1 4 5
f 1 5 6
f 1 6 2
f 2 7 3
f 2 6 7
f 3 7 8
f 4 8 12
f 4 12 9
f 4 9 5
f 5 9 10
f 5 10 6
f 6 10 7
f 7 11 12
f 7 12 8
f 7 10 13
f 7 13 11
f 9 12 13
f 9 13 10
f 11 13 12
