# https://github.com/mikedh/trimesh
v 37.91532560 -19.60657724 8.35261214
v 39.98911453 -20.81454599 9.48153822
v 39.81087353 -20.81454599 9.52976860
v 38.79625728 -20.81454599 9.89027258
v 38.07642980 -20.81454599 10.34478674
v 37.91532560 -20.81454599 10.45432703
v 37.91532560 -14.57061683 8.35261214
v 40.03710367 -19.68012854 8.35261214
v 41.27109418 -20.81454599 9.38017157
v 41.10313412 -20.81454599 9.38752899
v 37.91532560 -20.81454599 16.67527332
v 37.91532560 -14.04581815 12.98357889
v 46.34416589 -14.04581815 12.98112642
v 72.93323591 -14.57061683 8.35261214
v 41.27109418 -19.71458521 8.35261214
v 72.93323591 -20.81454599 9.38017157
v 37.91532560 -18.37541870 16.70143240
v 38.71056376 -20.81454599 16.70306674
v 37.91532560 -14.04581815 16.68753569
v 46.38872614 -14.04581815 12.98112642
v 72.93323591 -14.57326764 10.88022870
v 72.93323591 -19.71458521 8.35261214
v 47.66727881 -14.04581815 12.98766666
v 48.81557581 -14.04581815 13.19121619
v 48.94925847 -14.04581815 13.22882045
v 49.68965163 -14.04581815 13.57542772
v 49.95358901 -14.04581815 13.73565182
v 72.93323591 -20.81454599 14.62832905
v 37.91532560 -17.09588580 16.70306674
v 47.66727881 -20.81454599 16.70388487
v 37.91532560 -14.04979245 16.70306674
v 37.92218146 -14.04581815 16.70306674
v 72.93323591 -14.65477136 12.16038711
v 49.77534611 -14.04581815 14.71906769
v 49.61424191 -14.04581815 15.48585450
v 49.29888841 -14.04581815 15.88069309
v 49.10007887 -14.04581815 16.12511653
v 48.70588772 -14.04581815 16.46191391
v 48.45909000 -14.04581815 16.67118650
v 48.45909000 -20.81454599 16.67118650
v 72.93323591 -18.37541870 14.62832905
v 47.66727881 -14.04581815 16.70388487
v 72.93323591 -14.95626533 13.17241453
v 72.93323591 -17.42587499 14.57519373
v 72.93323591 -17.09588580 14.55639112
v 72.93323591 -16.35242037 14.35284159
v 72.93323591 -16.09399533 14.28172179
v 72.93323591 -15.61889260 13.93347922
v 72.93323591 -15.45389801 13.81249374
f 1 2 3
f 1 3 4
f 1 4 5
f 1 5 6
f 1 6 11
f 1 11 17
f 1 17 29
f 1 29 31
f 1 31 19
f 1 19 12
f 1 12 7
f 1 7 14
f 1 14 22
f 1 22 15
f 1 15 8
f 1 8 9
f 1 9 10
f 1 10 2
f 2 10 9
f 2 9 16
f 2 16 28
f 2 28 40
f 2 40 30
f 2 30 18
f 2 18 11
f 2 11 6
f 2 6 5
f 2 5 4
f 2 4 3
f 7 12 13
f 7 13 20
f 7 20 14
f 8 15 9
f 9 15 22
f 9 22 16
f 11 18 17
f 12 19 32
f 12 32 42
f 12 42 39
f 12 39 38
f 12 38 37
f 12 37 36
f 12 36 35
f 12 35 34
f 12 34 27
f 12 27 26
f 12 26 25
f 12 25 24
f 12 24 23
f 12 23 20
f 12 20 13
f 14 21 33
f 14 33 43
f 14 43 49
f 14 49 48
f 14 48 47
f 14 47 46
f 14 46 45
f 14 45 44
f 14 44 41
f 14 41 28
f 14 28 16
f 14 16 22
f 14 20 23
f 14 23 24
f 14 24 25
f 14 25 26
f 14 26 27
f 14 27 21
f 17 18 29
f 18 30 29
f 19 31 32
f 21 27 34
f 21 34 35
f 21 35 36
f 21 36 37
f 21 37 38
f 21 38 39
f 21 39 33
f 28 41 39
f 28 39 40
f 29 30 42
f 29 42 31
f 30 40 39
f 30 39 42
f 31 42 32
f 33 39 43
f 39 41 44
f 39 44 45
f 39 45 46
f 39 46 47
f 39 47 48
f 39 48 49
f 39 49 43

