# https://github.com/mikedh/trimesh
v 32.95185235 1.31181294 16.36517472
v 32.95185235 -0.44093853 16.36354419
v 33.58937896 -0.44093853 16.01126725
v 33.58937896 4.66346991 16.01126725
v 33.58937896 27.69650005 16.00963672
v 32.95185235 15.38877451 16.36354419
v 32.95185235 -0.44093853 -0.29292015
v 34.27904447 -0.44093853 15.42740326
v 34.27904447 37.93279186 15.42740326
v 34.27887283 40.49323837 15.42740326
v 34.27870120 41.77345972 15.42740326
v 33.58937896 41.77345972 16.00800618
v 32.95185235 26.91078381 16.36191175
v 32.95185235 12.34481039 -0.29455163
v 33.26041005 -0.44093853 -0.19995884
v 34.28127381 -0.44093853 15.42087922
v 34.51573670 35.37234535 14.71795778
v 34.51505016 45.61413139 14.71795778
v 34.51453526 53.28997479 14.71795778
v 34.27818629 52.00975344 15.42577177
v 34.27801466 53.28997479 15.42577177
v 33.58937896 52.00975344 16.00637565
v 32.95185235 37.93279186 16.36028312
v 32.95185235 47.31743291 -0.29618216
v 33.27035916 12.34481039 -0.19832735
v 33.26915771 -0.44093853 -0.19669682
v 34.51573670 -0.44093853 14.71795778
v 34.70303240 52.00975344 13.43932501
v 34.51745115 -0.44093853 14.70654120
v 34.70320403 2.10302340 13.43932501
v 34.70286076 53.28997479 13.43932501
v 34.48949372 54.57019995 14.71795778
v 34.26823909 54.57019995 15.41272466
v 33.58937896 53.28997479 16.00474321
v 32.95185235 53.28997479 16.35702015
v 32.95185235 47.38336744 16.35865069
v 32.95185235 53.28997479 -0.29455163
v 33.27155870 53.28997479 -0.19832735
v 33.27173033 52.00975344 -0.19832735
v 33.27190197 49.44930693 -0.19832735
v 33.27207360 45.61413139 -0.19832735
v 33.27207360 43.05368488 -0.19832735
v 33.27190197 36.65256861 -0.19832735
v 33.27173033 32.81189884 -0.19832735
v 33.27138706 25.14154776 -0.19832735
v 33.27087216 17.46020919 -0.19832735
v 33.27053079 13.62503365 -0.19832735
v 33.90994158 11.06458618 0.34639576
v 33.90308190 -0.44093853 0.34313374
v 34.70389057 53.28997479 12.15906266
v 34.70320403 -0.44093853 13.43932501
v 34.67215908 54.57019995 13.43932501
v 34.34679260 55.33394119 14.71795778
v 34.24885769 55.23503750 15.38499893
v 33.58937896 54.57019995 15.95255474
v 32.95185235 53.78448180 16.33581942
v 32.95185235 54.57019995 -0.27171846
v 33.25252057 54.57019995 -0.18528024
v 33.91131466 53.28997479 0.34639576
v 33.91148629 52.00975344 0.34639576
v 33.91165793 49.44930693 0.34639576
v 33.91165793 37.93279186 0.34639576
v 33.91148629 32.81189884 0.34639576
v 33.91079975 20.02065474 0.34639576
v 33.91131466 28.97672330 0.34639576
v 33.91028485 13.62503365 0.34639576
v 34.39687568 0.82280014 0.98734268
v 33.90908340 0.82280014 0.34802629
v 34.39224535 -0.44093853 0.98244965
v 34.70389057 46.89435274 10.87880031
v 34.70371894 53.28997479 3.20211543
v 34.67301726 54.57019995 3.20211543
v 34.67301726 54.57019995 12.15906266
v 34.70389057 -0.44093853 12.15906266
v 34.43563848 55.42184880 12.15906266
v 34.43529521 55.41635648 13.43932501
v 33.58937896 55.57569475 14.71795778
v 32.95185235 54.89987256 16.15641893
v 32.95185235 54.57019995 16.29178361
v 33.58937896 55.35042196 15.62963501
v 32.95185235 55.35042196 -0.13472230
v 33.13880478 55.32844124 -0.11352061
v 33.89227653 54.57019995 0.36596644
v 34.38452750 54.57019995 1.00528235
v 34.39653241 53.28997479 0.98734268
v 34.39670404 43.05368488 0.98571167
v 34.39687568 26.42177102 0.98571167
v 34.39687568 25.14154776 0.98571167
v 34.63408282 -0.44093853 1.92185260
v 34.70389057 35.37234535 9.59853701
v 34.63408282 41.77345972 1.92185260
v 34.63391119 53.28997479 1.92185260
v 34.60646866 54.57019995 1.92185260
v 34.70389057 23.86132451 8.31990519
v 34.70389057 12.34481039 7.04127337
v 34.70371894 5.94369316 3.20211543
v 34.40407863 55.39437958 1.92185260
v 34.43563848 55.42184880 3.20211543
v 34.70389057 -0.44093853 8.30685807
v 33.58937896 55.66360999 13.43932501
v 32.95185235 55.64163309 14.71795778
v 32.95185235 55.49877178 15.35238066
v 32.95185235 55.37789500 15.83676026
v 32.95185235 55.40536803 0.05609382
v 33.57497116 55.44382952 0.66768449
v 34.32466694 55.31196047 1.11129173
v 34.70303240 -0.44093853 3.19069932
v 34.70389057 8.50413967 7.04127337
v 34.70371894 -0.44093853 4.46933114
v 34.70354730 -0.44093853 3.20211543
v 33.58937896 55.63613696 1.92185260
v 33.58937896 55.66360999 3.20211543
v 32.95185235 55.68558690 12.79674851
v 32.95185235 55.68009458 14.07701086
v 32.95185235 55.54822553 0.65463737
v 32.95185235 55.66910231 1.92185260
v 32.95185235 55.68558690 3.20211543
f 1 2 3
f 1 3 4
f 1 4 5
f 1 5 12
f 1 12 6
f 1 6 13
f 1 13 23
f 1 23 36
f 1 36 35
f 1 35 56
f 1 56 79
f 1 79 78
f 1 78 103
f 1 103 102
f 1 102 101
f 1 101 114
f 1 114 113
f 1 113 117
f 1 117 116
f 1 116 115
f 1 115 104
f 1 104 81
f 1 81 57
f 1 57 37
f 1 37 24
f 1 24 14
f 1 14 7
f 1 7 2
f 2 7 15
f 2 15 26
f 2 26 49
f 2 49 69
f 2 69 89
f 2 89 107
f 2 107 110
f 2 110 109
f 2 109 99
f 2 99 74
f 2 74 51
f 2 51 29
f 2 29 27
f 2 27 16
f 2 16 8
f 2 8 3
f 3 8 9
f 3 9 4
f 4 9 10
f 4 10 5
f 5 10 11
f 5 11 12
f 6 12 13
f 7 14 15
f 8 16 9
f 9 17 18
f 9 18 10
f 9 16 17
f 10 18 19
f 10 19 20
f 10 20 21
f 10 21 11
f 11 21 22
f 11 22 12
f 12 22 23
f 12 23 13
f 14 24 25
f 14 25 15
f 15 25 26
f 16 27 17
f 17 28 18
f 17 27 29
f 17 29 30
f 17 30 28
f 18 28 19
f 19 28 31
f 19 31 32
f 19 32 33
f 19 33 21
f 19 21 20
f 21 34 22
f 21 33 34
f 22 34 35
f 22 35 36
f 22 36 23
f 24 37 38
f 24 38 39
f 24 39 40
f 24 40 41
f 24 41 42
f 24 42 43
f 24 43 44
f 24 44 45
f 24 45 46
f 24 46 47
f 24 47 25
f 25 47 66
f 25 66 48
f 25 48 26
f 26 48 49
f 28 50 31
f 28 30 50
f 29 51 30
f 30 51 74
f 30 74 50
f 31 50 52
f 31 52 32
f 32 52 53
f 32 53 54
f 32 54 33
f 33 54 55
f 33 55 34
f 34 55 35
f 35 55 56
f 37 57 58
f 37 58 38
f 38 58 59
f 38 59 60
f 38 60 39
f 39 60 61
f 39 61 40
f 40 61 41
f 41 61 62
f 41 62 42
f 42 62 43
f 43 62 63
f 43 63 44
f 44 63 65
f 44 65 45
f 45 64 46
f 45 65 64
f 46 64 66
f 46 66 47
f 48 66 67
f 48 67 68
f 48 68 49
f 49 68 69
f 50 70 71
f 50 71 72
f 50 72 73
f 50 73 52
f 50 74 99
f 50 99 108
f 50 108 95
f 50 95 94
f 50 94 90
f 50 90 70
f 52 73 75
f 52 75 76
f 52 76 53
f 53 76 77
f 53 77 54
f 54 78 79
f 54 79 55
f 54 77 80
f 54 80 78
f 55 79 56
f 57 81 82
f 57 82 58
f 58 82 83
f 58 83 59
f 59 83 84
f 59 84 85
f 59 85 86
f 59 86 60
f 60 86 61
f 61 86 87
f 61 87 88
f 61 88 62
f 62 88 63
f 63 88 65
f 64 67 66
f 64 65 67
f 65 88 67
f 67 88 89
f 67 89 69
f 67 69 68
f 70 90 71
f 71 91 92
f 71 92 93
f 71 93 72
f 71 90 94
f 71 94 95
f 71 95 108
f 71 108 96
f 71 96 89
f 71 89 91
f 72 93 97
f 72 97 98
f 72 98 75
f 72 75 73
f 75 98 112
f 75 112 100
f 75 100 76
f 76 100 77
f 77 101 102
f 77 102 80
f 77 100 101
f 78 80 103
f 80 102 103
f 81 104 82
f 82 104 105
f 82 105 106
f 82 106 83
f 83 106 84
f 84 106 93
f 84 93 92
f 84 92 85
f 85 92 86
f 86 92 91
f 86 91 87
f 87 91 89
f 87 89 88
f 89 96 107
f 93 106 97
f 96 108 99
f 96 99 109
f 96 109 110
f 96 110 107
f 97 106 111
f 97 111 98
f 98 111 112
f 100 112 117
f 100 117 113
f 100 113 114
f 100 114 101
f 104 115 105
f 105 115 111
f 105 111 106
f 111 115 116
f 111 116 112
f 112 116 117

