# https://github.com/mikedh/trimesh
v 72.93325218 -3.37277527 32.34019996
v 72.93325218 -19.57731410 32.34019996
v 72.93325218 -3.37277527 26.24159203
v 38.57859955 -3.37277527 32.34019996
v 72.93325218 -19.75501733 23.54649808
v 38.57859955 -19.99474944 32.34019996
v 38.57859955 -20.49600748 23.54649808
v 72.93325218 -3.38618664 25.29129350
v 38.57859955 -3.37277527 26.16154005
v 72.93325218 -14.56976636 23.54649808
v 38.57859955 -14.56976636 23.54649808
v 72.93325218 -3.39121649 24.96161608
v 38.57859955 -3.39121649 24.96161608
v 72.93325218 -4.29649756 23.65753828
v 38.57859955 -4.29649756 23.65753828
v 72.93325218 -3.49683208 24.34788182
v 38.57859955 -3.53371453 24.13526994
v 72.93325218 -3.53371453 24.13526994
v 38.57859955 -4.21938101 23.70574197
f 1 2 5
f 1 5 10
f 1 10 14
f 1 14 18
f 1 18 16
f 1 16 12
f 1 12 8
f 1 8 3
f 1 3 9
f 1 9 4
f 1 4 6
f 1 6 2
f 2 6 7
f 2 7 5
f 3 8 9
f 4 9 13
f 4 13 17
f 4 17 19
f 4 19 15
f 4 15 11
f 4 11 7
f 4 7 6
f 5 7 11
f 5 11 10
f 8 12 9
f 9 12 13
f 10 11 15
f 10 15 14
f 12 16 13
f 13 16 17
f 14 15 19
f 14 19 18
f 16 18 17
f 17 18 19

