# https://github.com/mikedh/trimesh
v 129.45851932 -10.98053571 46.71812498
v 129.28583165 -10.98053571 47.96331291
v 129.63486091 -15.81456239 46.71812498
v 129.63729432 -17.09309041 44.82203524
v 129.49378459 -15.81456239 44.82203524
v 129.18610791 -10.98053571 46.08660171
v 129.28583165 -11.97494681 47.96331291
v 129.63729432 -17.09309041 46.71812498
v 128.69478944 -10.98053571 48.60319480
v 129.63850720 -19.03657620 44.82203524
v 129.15935574 -14.78287407 44.82203524
v 129.10705666 -10.98053571 45.90497281
v 128.69478944 -11.97494681 48.60319480
v 129.28583165 -15.81456239 47.96255294
v 129.63729432 -21.27324504 46.71812498
v 128.55250404 -10.98053571 48.61839403
v 129.63850720 -21.27324504 44.82203524
v 128.50872187 -14.41211010 44.82203524
v 127.01410160 -10.98053571 45.37148362
v 127.29988909 -10.98053571 45.41138112
v 128.29468542 -10.98053571 45.55159355
v 128.69114315 -15.81456239 48.60243579
v 128.68627635 -21.27324504 48.60129537
v 129.28583165 -21.27324504 47.96141348
v 129.28583165 -19.65317104 47.96179298
v 128.04659278 -20.93270598 48.67045092
v 128.05510588 -10.98053571 48.67045092
v 128.05024289 -17.09309041 48.67045092
v 128.04780949 -19.65317104 48.67045092
v 117.21453007 -21.27324504 44.82203524
v 128.29468542 -14.30833769 44.82203524
v 127.01410160 -14.13504548 44.82203524
v 120.61604546 -14.11287977 44.82203524
v 120.90183295 -10.98053571 45.37034415
v 128.68749305 -19.65317104 48.60167488
v 128.04537608 -21.27324504 48.67045092
v 127.82282654 -10.98053571 48.67805054
v 127.01410160 -21.27324504 48.70350972
v 117.21453007 -21.27324504 46.81273971
v 117.21453007 -14.80604670 44.82203524
v 119.33667452 -14.13605240 44.82203524
v 120.61604546 -10.98053571 45.37034415
v 127.01410160 -10.98053571 48.70350972
v 120.61604546 -21.27324504 48.70350972
v 118.68118147 -21.27324504 48.64917390
v 118.67753518 -10.98053571 48.64917390
v 117.21453007 -18.37262726 46.81273971
v 117.21453007 -14.80000134 45.25901026
v 118.09987287 -10.98053571 46.71812498
v 118.15216433 -10.98053571 46.51217731
v 118.40998676 -10.98053571 45.79705922
v 118.60578032 -10.98053571 45.71764372
v 119.33667452 -10.98053571 45.44292000
v 118.04636471 -14.52495056 44.82203524
v 119.62246583 -10.98053571 45.42658035
v 120.61604546 -10.98053571 48.70350972
v 120.27674218 -21.27324504 48.69819095
v 119.16277015 -21.27324504 48.67349077
v 118.36620459 -10.98053571 47.99751117
v 117.21453007 -17.09309041 46.76106328
v 117.21453007 -17.81950494 46.79754048
v 119.19073902 -10.98053571 48.67501069
v 117.21453007 -15.13046351 45.67622629
v 117.21453007 -15.96871158 46.46505969
v 120.33025415 -10.98053571 48.69894996
v 119.33667452 -10.98053571 48.68223080
v 119.33667452 -21.27324504 48.68223080
v 117.21453007 -16.53896116 46.62997039
f 1 2 3
f 1 3 4
f 1 4 5
f 1 5 6
f 1 6 12
f 1 12 21
f 1 21 20
f 1 20 19
f 1 19 34
f 1 34 42
f 1 42 55
f 1 55 53
f 1 53 52
f 1 52 51
f 1 51 50
f 1 50 49
f 1 49 59
f 1 59 46
f 1 46 62
f 1 62 66
f 1 66 65
f 1 65 56
f 1 56 43
f 1 43 37
f 1 37 27
f 1 27 16
f 1 16 9
f 1 9 2
f 2 7 15
f 2 15 8
f 2 8 3
f 2 9 13
f 2 13 7
f 3 8 4
f 4 8 10
f 4 10 17
f 4 17 30
f 4 30 40
f 4 40 54
f 4 54 41
f 4 41 33
f 4 33 32
f 4 32 31
f 4 31 18
f 4 18 11
f 4 11 5
f 5 11 12
f 5 12 6
f 7 13 14
f 7 14 15
f 8 15 17
f 8 17 10
f 9 16 13
f 11 18 19
f 11 19 20
f 11 20 21
f 11 21 12
f 13 22 23
f 13 23 24
f 13 24 25
f 13 25 14
f 13 16 26
f 13 26 22
f 14 25 15
f 15 25 24
f 15 24 23
f 15 23 36
f 15 36 38
f 15 38 44
f 15 44 57
f 15 57 67
f 15 67 58
f 15 58 45
f 15 45 39
f 15 39 30
f 15 30 17
f 16 27 28
f 16 28 29
f 16 29 26
f 18 31 19
f 19 31 32
f 19 32 33
f 19 33 34
f 22 35 23
f 22 26 35
f 23 35 26
f 23 26 36
f 26 29 37
f 26 37 38
f 26 38 36
f 27 37 28
f 28 37 29
f 30 39 47
f 30 47 61
f 30 61 60
f 30 60 68
f 30 68 64
f 30 64 63
f 30 63 48
f 30 48 40
f 33 41 42
f 33 42 34
f 37 43 38
f 38 43 56
f 38 56 44
f 39 45 46
f 39 46 47
f 40 48 49
f 40 49 50
f 40 50 51
f 40 51 52
f 40 52 53
f 40 53 54
f 41 53 55
f 41 55 42
f 41 54 53
f 44 56 57
f 45 58 46
f 46 59 60
f 46 60 61
f 46 61 47
f 46 58 62
f 48 63 49
f 49 63 64
f 49 64 59
f 56 65 57
f 57 65 66
f 57 66 67
f 58 67 62
f 59 64 68
f 59 68 60
f 62 67 66

