# https://github.com/mikedh/trimesh
v 72.93323400 -21.27983120 -10.31291854
v 72.93323400 -21.27983120 12.82203607
v 72.93323400 -14.57134723 -10.31291854
v 129.63288670 -21.27983120 -10.31291854
v 72.93323400 -14.85180257 12.82203607
v 129.63288670 -21.27983120 12.82203607
v 72.93323400 -14.11771031 -6.15061916
v 100.21456693 -14.11771031 -9.39123404
v 103.86687877 -14.11771031 -9.81923918
v 103.97788845 -14.34628231 -10.31291854
v 129.63288670 -17.09614325 -10.31291854
v 129.63844004 -21.27983120 -7.03607057
v 72.93323400 -14.65478280 12.15851343
v 79.66614545 -14.13243468 12.82203607
v 129.63844004 -21.27983120 -6.69185380
v 129.63288670 -17.09614325 12.82203607
v 72.93323400 -14.11771031 6.14831723
v 103.97788845 -14.11771031 -9.81697551
v 127.01298965 -14.56854195 -10.31291854
v 129.52187320 -16.38028244 -10.31291854
v 129.63288670 -14.11771031 -3.19760631
v 129.63844004 -20.93487164 -7.03607057
v 80.94278916 -14.12822772 12.82203607
v 129.63288670 -14.11771031 3.19983340
v 129.48302268 -15.81586660 12.82203607
v 101.41350196 -14.11771031 9.64256519
v 106.53672922 -14.11771031 -9.66977755
v 128.28963336 -14.11771031 -5.98756929
v 129.14443649 -14.11771031 -5.54597638
v 127.72902019 -14.66389661 -10.31291854
v 129.42751212 -15.81586660 -10.31291854
v 129.49412174 -14.11771031 -4.47709440
v 104.08335241 -14.11771031 9.82825991
v 103.97233892 -14.11771031 9.83052454
v 127.01298965 -14.13313648 12.82203607
v 129.54963230 -14.11771031 4.06037366
v 129.14443649 -14.78659654 12.82203607
v 129.07782686 -15.04321178 -10.31291854
v 128.73368733 -14.90929456 -10.31291854
v 128.28963336 -14.73962005 -10.31291854
v 129.23324423 -15.38256270 -10.31291854
v 107.74121378 -14.11771031 9.37987312
v 128.28963336 -14.30912143 12.82203607
v 129.26099569 -14.11771031 5.25833704
v 129.13332980 -14.11771031 5.52329279
v 128.38399445 -14.11771031 5.91959458
v 128.28963336 -14.11771031 5.96035692
v 129.47191599 -14.11771031 4.47932124
v 128.50056128 -14.41289002 12.82203607
f 1 2 5
f 1 5 13
f 1 13 17
f 1 17 7
f 1 7 3
f 1 3 10
f 1 10 19
f 1 19 30
f 1 30 40
f 1 40 39
f 1 39 38
f 1 38 41
f 1 41 31
f 1 31 20
f 1 20 11
f 1 11 4
f 1 4 12
f 1 12 15
f 1 15 6
f 1 6 2
f 2 6 16
f 2 16 25
f 2 25 37
f 2 37 49
f 2 49 43
f 2 43 35
f 2 35 23
f 2 23 14
f 2 14 5
f 3 7 8
f 3 8 9
f 3 9 10
f 4 11 22
f 4 22 12
f 5 14 13
f 6 15 16
f 7 17 26
f 7 26 34
f 7 34 33
f 7 33 42
f 7 42 47
f 7 47 46
f 7 46 45
f 7 45 44
f 7 44 48
f 7 48 36
f 7 36 24
f 7 24 21
f 7 21 32
f 7 32 29
f 7 29 28
f 7 28 27
f 7 27 18
f 7 18 9
f 7 9 8
f 9 18 10
f 10 18 19
f 11 20 21
f 11 21 22
f 12 22 15
f 13 14 17
f 14 23 17
f 15 22 16
f 16 22 24
f 16 24 25
f 17 23 26
f 18 27 19
f 19 28 29
f 19 29 30
f 19 27 28
f 20 31 21
f 21 24 22
f 21 31 32
f 23 33 34
f 23 34 26
f 23 35 33
f 24 36 37
f 24 37 25
f 29 38 39
f 29 39 40
f 29 40 30
f 29 32 38
f 31 41 32
f 32 41 38
f 33 35 42
f 35 43 44
f 35 44 45
f 35 45 46
f 35 46 47
f 35 47 42
f 36 48 49
f 36 49 37
f 43 49 48
f 43 48 44

