# https://github.com/mikedh/trimesh
v 0.32773863 3.38184688 8.32066897
v 0.64321894 3.38184688 7.21287639
v 0.32945498 -3.01441880 8.32066897
v 0.47889182 -23.49251668 9.60000639
v 0.32773863 37.93340212 8.32066897
v 1.59425207 -3.01441880 6.75375526
v 1.59425207 -9.41068448 6.75625588
v 0.65810923 -24.77344364 7.22087839
v 0.34033282 -24.77344364 8.32066897
v 0.64321894 37.93340212 7.21287639
v 0.48347638 -24.77344364 9.60000639
v 0.80182490 -26.04599863 10.43622717
v 0.80124516 -24.77344364 10.43622717
v 0.80182490 53.28778549 10.43722742
v 0.48233215 53.28778549 9.60000639
v 0.33804436 44.32966875 8.32066897
v 6.17648593 -15.81532118 6.52019345
v 1.59425207 31.52876351 6.75375526
v 6.17648593 18.73623215 6.51969333
v 6.17648593 -22.21158591 6.52569483
v 1.59425207 -15.81532118 6.76775876
v 1.59425207 -24.77344364 6.79326563
v 0.73712234 -25.67762805 7.34090987
v 0.64780350 -26.07948651 8.36668049
v 0.58138459 -26.04599863 9.60000639
v 0.65238044 44.32966875 7.22337902
v 1.59425207 53.28778549 6.78326312
v 0.85335353 -26.92506521 10.37070934
v 1.59425207 -26.04599863 11.07539576
v 1.59425207 -24.77344364 11.07589636
v 1.59425207 -5.57627367 11.07639601
v 1.59425207 18.73623215 11.07689566
v 1.59425207 44.32966875 11.07689566
v 1.59425207 53.28778549 11.07639601
v 0.81499121 54.56871626 10.42222367
v 0.56592219 54.56871626 9.60000639
v 0.36610095 53.28778549 8.32066897
v 0.35693946 50.72593157 8.32066897
v 6.17648593 46.89152267 6.52619495
v 6.17648593 -24.76507167 6.63422390
v 4.15361537 -26.04599863 6.81477149
v 2.87450774 -26.04599863 6.95530810
v 1.72193322 -26.07948651 7.25738801
v 2.18513784 -27.98831709 8.94083280
v 0.87167652 -26.84134549 8.82430124
v 0.81670756 -26.98367283 9.60000639
v 0.67013131 50.72593157 7.24788563
v 0.68559371 53.28778549 7.26288939
v 0.73655022 54.23382976 7.33240774
v 1.59425207 54.30918132 7.20187316
v 6.17648593 53.28778549 6.54119871
v 1.36293391 -27.61995032 9.60000639
v 1.97500706 -28.08878075 10.59626914
v 1.56676759 -27.34367143 10.78782043
v 2.35690629 -27.32692749 11.46649939
v 2.24125102 -26.04599863 11.51901301
v 2.24067509 -13.25346727 11.51901301
v 2.24067509 -0.45256393 11.51901301
v 2.24125102 14.89345032 11.51901301
v 2.24182314 23.85156992 11.51901301
v 2.24468372 52.00686234 11.51851241
v 2.24525584 53.28778549 11.51851241
v 1.59425207 54.56871626 11.04138725
v 0.86996017 55.29708926 10.35120494
v 0.80182490 55.34732109 9.60000639
v 0.62432384 54.62731625 8.31816786
v 6.17648593 -26.15483426 6.97631383
v 6.17648593 -29.35296758 8.56273243
v 6.17648593 -29.56227069 8.67776313
v 2.87450774 -26.80785760 7.49495082
v 4.83897665 -29.21901603 8.99534692
v 2.00306366 -28.07203680 9.60000639
v 0.83560266 55.30545742 8.74278036
v 6.17648593 54.43476471 7.10384767
v 1.59425207 54.94545881 8.09610941
v 6.17648593 54.66080414 7.41242921
v 3.24610124 -28.04692470 11.55602228
v 4.61453152 -29.32784785 9.84807231
v 4.61453152 -29.32784785 10.57376303
v 4.94719058 -29.09343263 11.42698902
v 2.99703603 -27.32692749 11.57402774
v 2.88137695 -26.04599863 11.57402774
v 2.88080484 -20.93065895 11.57402774
v 2.88080484 7.22462918 11.57402774
v 2.88137695 18.73623215 11.57402774
v 2.88194907 26.41342574 11.57402774
v 2.88252119 32.80969047 11.57402774
v 2.88309330 37.93340212 11.57402774
v 2.88424135 48.17244581 11.57402774
v 2.88481347 53.28778549 11.57402774
v 2.98100151 54.56871626 11.56502549
v 2.34087558 54.56871626 11.49850740
v 3.22262540 55.23848164 11.54401927
v 1.59425207 55.39755292 10.62277626
v 1.59425207 55.51476053 9.60000639
v 6.17648593 -29.95575718 9.56349678
v 1.59425207 55.33057715 8.73627825
v 6.17648593 55.32220136 8.59424079
v 5.80031168 -29.31947969 11.55602228
v 4.15361537 -28.23110809 11.57402774
v 4.15361537 -27.32692749 11.62854186
v 6.17648593 -29.83017379 10.90685119
v 5.39780100 -29.50366307 10.95186341
v 4.15361537 53.28778549 11.62854186
v 4.15361537 54.56871626 11.61103700
v 4.15361537 55.25522558 11.55602228
v 4.15361537 55.49801658 10.87984442
v 2.82755605 55.42266502 10.99137377
v 2.87450774 55.53987263 9.60000639
v 6.17648593 55.43104081 8.94233270
v 6.17648593 -29.02645686 11.58603074
v 6.17648593 -29.36971152 11.56352463
v 6.17648593 -28.62459458 11.61103700
v 6.17648593 -27.32692749 11.62854186
v 6.17648593 53.28778549 11.62854186
v 6.17648593 54.03290243 11.61853936
v 6.17648593 54.56871626 11.61103700
v 5.43329893 55.25522558 11.55652288
v 6.17648593 55.39755292 11.16341875
v 6.17648593 55.49801658 10.87984442
v 6.17648593 55.54824842 10.13664789
v 6.17648593 55.57336052 9.60000639
v 6.17648593 55.25522558 11.55652288
f 1 2 3
f 1 3 4
f 1 4 5
f 1 5 10
f 1 10 2
f 2 6 7
f 2 7 8
f 2 8 9
f 2 9 3
f 2 10 18
f 2 18 6
f 3 9 4
f 4 9 11
f 4 11 12
f 4 12 13
f 4 13 14
f 4 14 15
f 4 15 5
f 5 15 16
f 5 16 10
f 6 17 7
f 6 18 19
f 6 19 17
f 7 17 20
f 7 20 21
f 7 21 8
f 8 21 22
f 8 22 23
f 8 23 9
f 9 23 24
f 9 24 25
f 9 25 11
f 10 16 26
f 10 26 27
f 10 27 18
f 11 25 12
f 12 25 28
f 12 28 29
f 12 29 30
f 12 30 13
f 13 30 31
f 13 31 32
f 13 32 14
f 14 32 33
f 14 33 34
f 14 34 35
f 14 35 15
f 15 35 36
f 15 36 37
f 15 37 38
f 15 38 16
f 16 38 26
f 17 19 39
f 17 39 51
f 17 51 74
f 17 74 76
f 17 76 98
f 17 98 110
f 17 110 122
f 17 122 121
f 17 121 120
f 17 120 119
f 17 119 123
f 17 123 117
f 17 117 116
f 17 116 115
f 17 115 114
f 17 114 113
f 17 113 111
f 17 111 112
f 17 112 102
f 17 102 96
f 17 96 69
f 17 69 68
f 17 68 67
f 17 67 40
f 17 40 20
f 18 27 39
f 18 39 19
f 20 40 22
f 20 22 21
f 22 40 41
f 22 41 42
f 22 42 23
f 23 42 43
f 23 43 44
f 23 44 45
f 23 45 24
f 24 45 46
f 24 46 25
f 25 46 28
f 26 38 37
f 26 37 47
f 26 47 27
f 27 47 48
f 27 48 49
f 27 49 50
f 27 50 51
f 27 51 39
f 28 46 52
f 28 52 53
f 28 53 54
f 28 54 55
f 28 55 29
f 29 55 56
f 29 56 30
f 30 56 57
f 30 57 31
f 31 57 32
f 32 57 58
f 32 58 33
f 33 58 59
f 33 59 60
f 33 60 34
f 34 61 62
f 34 62 63
f 34 63 35
f 34 60 61
f 35 63 64
f 35 64 36
f 36 64 65
f 36 65 66
f 36 66 37
f 37 66 49
f 37 49 48
f 37 48 47
f 40 67 41
f 41 67 68
f 41 68 69
f 41 69 42
f 42 70 43
f 42 69 70
f 43 70 69
f 43 69 44
f 44 69 71
f 44 71 72
f 44 72 52
f 44 52 45
f 45 52 46
f 49 66 73
f 49 73 50
f 50 74 51
f 50 73 75
f 50 75 76
f 50 76 74
f 52 72 53
f 53 77 55
f 53 55 54
f 53 72 78
f 53 78 79
f 53 79 80
f 53 80 77
f 55 81 56
f 55 77 81
f 56 81 82
f 56 82 83
f 56 83 57
f 57 83 84
f 57 84 58
f 58 84 59
f 59 85 60
f 59 84 85
f 60 85 86
f 60 86 87
f 60 87 88
f 60 88 89
f 60 89 90
f 60 90 61
f 61 90 62
f 62 90 91
f 62 91 92
f 62 92 63
f 63 92 64
f 64 92 93
f 64 93 94
f 64 94 95
f 64 95 65
f 65 73 66
f 65 95 73
f 69 96 71
f 71 96 78
f 71 78 72
f 73 95 97
f 73 97 75
f 75 97 76
f 76 97 98
f 77 80 99
f 77 99 100
f 77 100 101
f 77 101 81
f 78 96 79
f 79 96 102
f 79 102 103
f 79 103 80
f 80 103 102
f 80 102 99
f 81 101 82
f 82 101 83
f 83 101 104
f 83 104 84
f 84 104 85
f 85 104 86
f 86 104 87
f 87 104 88
f 88 104 89
f 89 104 90
f 90 104 91
f 91 104 105
f 91 105 93
f 91 93 92
f 93 105 106
f 93 106 107
f 93 107 108
f 93 108 94
f 94 108 95
f 95 107 109
f 95 109 97
f 95 108 107
f 97 109 110
f 97 110 98
f 99 111 100
f 99 102 112
f 99 112 111
f 100 111 113
f 100 113 101
f 101 113 114
f 101 114 115
f 101 115 104
f 104 115 116
f 104 116 105
f 105 116 117
f 105 117 123
f 105 123 118
f 105 118 106
f 106 118 119
f 106 119 107
f 107 120 121
f 107 121 122
f 107 122 109
f 107 119 120
f 109 122 110
f 118 123 119

