# https://github.com/mikedh/trimesh
v 114.62226216 -21.27324694 46.62802138
v 114.62226216 -35.93411032 46.63529299
v 114.62226216 -21.27324694 42.49688571
v 88.52021498 -21.27324694 48.67056153
v 105.25376142 -35.93411032 46.63529299
v 114.62226216 -35.93411032 41.18232292
v 88.52021498 -31.17058747 48.67056153
v 88.34067908 -31.93556457 48.65925079
v 87.34099115 -32.63451941 48.54209466
v 114.62226216 -21.28042319 41.17989906
v 114.61818107 -21.27324694 41.17828283
v 87.34099115 -21.27324694 48.70368899
v 103.97252920 -35.93411032 46.46723564
v 86.06383811 -32.63308530 48.54047938
v 82.22422254 -32.62160102 48.53401446
v 80.94707141 -32.61873281 48.53078391
v 82.22422254 -33.68654266 47.89410587
v 80.94707141 -33.68080242 47.89087341
v 79.66583823 -33.67075605 47.88117794
v 79.66583823 -34.31086680 47.21056576
v 72.94140961 -34.51179796 46.24585227
v 114.30807480 -35.93411032 40.44949592
v 114.32031428 -21.41677002 40.44949592
v 114.36111764 -21.27324694 40.54806875
v 87.34099115 -31.17058747 48.70368899
v 87.34099115 -31.99584277 48.67056153
v 80.94707141 -31.97861825 48.66975485
v 79.66583823 -31.97431593 48.66975485
v 79.66583823 -21.27324694 48.70368899
v 80.94707141 -35.93411032 42.86127821
v 83.50545476 -32.62447304 48.53644024
v 79.66583823 -32.61586078 48.52108844
v 72.94140961 -33.72960015 46.52056168
v 72.94140961 -34.66536931 45.43707774
v 79.89025764 -35.93411032 42.59545758
v 78.98441877 -31.91977415 48.65925079
v 78.68655294 -35.93411032 40.44949592
v 114.32031428 -21.27324694 40.44949592
v 80.94707141 -31.17058747 48.70368899
v 79.66583823 -31.17058747 48.70288040
v 79.47814204 -21.27324694 48.69480020
v 79.66583823 -29.89036217 48.70368899
v 72.94140961 -32.44937485 46.62882902
v 72.94140961 -34.67684978 44.15887392
v 78.65390987 -35.93411032 40.66522392
v 78.75999936 -35.93411032 41.31482894
v 79.45774036 -35.93411032 42.16885026
v 78.96809723 -31.17058747 48.66975485
v 72.94140961 -34.67684978 42.87905387
v 72.94140961 -34.63809842 42.65282276
v 72.94140961 -34.52328224 42.00321774
v 72.94140961 -33.72960015 41.59438608
v 72.94140961 -32.44937485 41.42148101
v 78.55598067 -34.83472345 40.44949592
v 78.39276725 -21.27324694 40.44949592
v 78.96401709 -21.27324694 48.66975485
v 78.96401709 -29.89036217 48.66975485
v 72.94140961 -24.77377092 46.62882902
v 72.94140961 -21.27324694 41.41420941
v 78.43357061 -29.89036217 40.44949592
v 78.45397229 -33.53727744 40.44949592
v 78.45805243 -33.72960015 40.44949592
v 72.94140961 -21.27324694 46.62802138
f 1 2 6
f 1 6 10
f 1 10 3
f 1 3 11
f 1 11 24
f 1 24 38
f 1 38 55
f 1 55 59
f 1 59 63
f 1 63 56
f 1 56 41
f 1 41 29
f 1 29 12
f 1 12 4
f 1 4 2
f 2 5 13
f 2 13 30
f 2 30 35
f 2 35 47
f 2 47 46
f 2 46 45
f 2 45 37
f 2 37 22
f 2 22 6
f 2 4 7
f 2 7 8
f 2 8 9
f 2 9 5
f 3 10 11
f 4 12 25
f 4 25 7
f 5 9 14
f 5 14 15
f 5 15 16
f 5 16 17
f 5 17 18
f 5 18 19
f 5 19 20
f 5 20 21
f 5 21 13
f 6 22 23
f 6 23 24
f 6 24 10
f 7 25 8
f 8 25 26
f 8 26 9
f 9 26 27
f 9 27 28
f 9 28 14
f 10 24 11
f 12 29 42
f 12 42 39
f 12 39 25
f 13 21 30
f 14 31 15
f 14 28 31
f 15 31 28
f 15 28 16
f 16 28 32
f 16 32 18
f 16 18 17
f 18 32 19
f 19 32 21
f 19 21 20
f 21 33 43
f 21 43 58
f 21 58 63
f 21 63 59
f 21 59 53
f 21 53 52
f 21 52 51
f 21 51 50
f 21 50 49
f 21 49 44
f 21 44 34
f 21 34 35
f 21 35 30
f 21 32 36
f 21 36 33
f 22 37 54
f 22 54 62
f 22 62 61
f 22 61 60
f 22 60 55
f 22 55 38
f 22 38 23
f 23 38 24
f 25 39 26
f 26 39 28
f 26 28 27
f 28 39 40
f 28 40 36
f 28 36 32
f 29 41 42
f 33 36 43
f 34 44 45
f 34 45 46
f 34 46 47
f 34 47 35
f 36 40 48
f 36 48 43
f 37 45 49
f 37 49 50
f 37 50 51
f 37 51 52
f 37 52 53
f 37 53 54
f 39 42 40
f 40 42 48
f 41 56 57
f 41 57 42
f 42 57 48
f 43 48 57
f 43 57 56
f 43 56 58
f 44 49 45
f 53 59 55
f 53 55 60
f 53 60 61
f 53 61 62
f 53 62 54
f 56 63 58

