# https://github.com/mikedh/trimesh
v 37.91532560 -3.37105623 0.38583414
v 37.91532560 -3.37105623 0.15424089
v 37.91532560 -20.78154440 0.38583414
v 72.93323591 -3.37280118 0.38583414
v 37.91532560 -3.37280118 -5.75694387
v 72.93323591 -3.37280118 -5.75694387
v 37.91532560 -21.19504163 -7.71480483
v 72.93323591 -19.57769299 0.38583414
v 37.91532560 -3.37978005 -6.24405914
v 72.93323591 -3.39373779 -7.03711659
v 37.91532560 -21.18806371 -8.34463648
v 37.94617603 -21.19504163 -8.34463648
v 38.21353943 -21.19504163 -8.34463648
v 72.93323591 -19.71029053 -8.34463648
v 37.91532560 -3.39373779 -7.03711659
v 72.93323591 -3.53680411 -7.86179396
v 37.91532560 -3.44782378 -7.34989603
v 37.91532560 -14.56862205 -8.34463648
v 72.93323591 -14.56862205 -8.34463648
v 72.93323591 -4.29924283 -8.34036372
v 57.90254511 -3.53680411 -7.86179396
v 39.98911453 -3.53680411 -7.86093960
v 37.91532560 -3.53680411 -7.86008524
v 37.91532560 -4.29924283 -8.33779968
v 47.66727881 -4.29924283 -8.33865500
v 59.18452428 -4.29924283 -8.33950936
v 71.98032052 -4.29924283 -8.34036372
v 37.91532560 -3.82642666 -8.04211174
f 1 2 5
f 1 5 9
f 1 9 15
f 1 15 17
f 1 17 23
f 1 23 28
f 1 28 24
f 1 24 18
f 1 18 11
f 1 11 7
f 1 7 3
f 1 3 8
f 1 8 4
f 1 4 6
f 1 6 2
f 2 6 5
f 3 7 8
f 4 8 14
f 4 14 19
f 4 19 20
f 4 20 16
f 4 16 10
f 4 10 6
f 5 6 9
f 6 10 9
f 7 11 12
f 7 12 13
f 7 13 8
f 8 13 14
f 9 10 15
f 10 16 17
f 10 17 15
f 11 18 19
f 11 19 14
f 11 14 13
f 11 13 12
f 16 20 27
f 16 27 21
f 16 21 17
f 17 22 23
f 17 21 22
f 18 24 25
f 18 25 26
f 18 26 27
f 18 27 20
f 18 20 19
f 21 27 22
f 22 28 23
f 22 27 28
f 24 28 25
f 25 28 26
f 26 28 27

