# https://github.com/mikedh/trimesh
v 82.22310014 -4.29787261 -8.34074322
v 72.93539470 -5.57492539 -8.15456316
v 72.93539470 -4.29787261 -8.33910888
v 72.93539470 -4.10116083 -8.21662254
v 72.93539470 -3.53627013 -7.86222782
v 94.99909733 -3.53627013 -7.86222782
v 94.99909733 -4.28524886 -8.33257721
v 94.99909733 -4.29787261 -8.33910888
v 94.99909733 -5.55493754 -8.15782994
v 72.93539470 -14.11771031 -6.15068114
v 94.99909733 -5.57492539 -8.15456316
v 72.93539470 -3.39320667 -7.03585126
v 94.99909733 -3.39320667 -7.03585126
v 72.93539470 -14.11771031 6.14861378
v 93.73985550 -14.11771031 -6.15068114
v 94.99909733 -14.11560683 -6.14904775
v 72.93539470 -3.38689432 -6.70595409
v 94.99909733 -3.37216804 -5.75709024
v 72.93539470 -5.57387269 8.15739454
v 93.76361740 -14.11771031 6.14861378
v 94.99909733 -14.11771031 5.93793663
v 72.93539470 -3.37216804 -5.75709024
v 94.99909733 -3.37216804 5.78115382
v 72.93539470 -4.29787261 8.34357461
v 78.38274218 -5.57387269 8.15739454
v 94.99909733 -14.11771031 6.13718193
v 94.99909733 -5.57387269 8.15576210
v 72.93539470 -3.37216804 5.75992257
v 94.99909733 -3.39215398 7.04031699
v 72.93539470 -3.39215398 7.04031699
v 72.93539470 -3.73193017 7.98918036
v 94.99909733 -4.31891124 8.34030782
v 94.99909733 -4.29787261 8.34194217
v 94.99909733 -3.54784119 7.87322616
v 94.99909733 -3.39425841 7.05338222
v 72.93539470 -3.42897158 7.25262705
v 72.93539470 -3.53521744 7.86506015
v 94.99909733 -3.53521744 7.86506015
f 1 2 3
f 1 3 4
f 1 4 5
f 1 5 6
f 1 6 7
f 1 7 8
f 1 8 9
f 1 9 2
f 2 10 14
f 2 14 19
f 2 19 24
f 2 24 31
f 2 31 37
f 2 37 36
f 2 36 30
f 2 30 28
f 2 28 22
f 2 22 17
f 2 17 12
f 2 12 5
f 2 5 4
f 2 4 3
f 2 9 11
f 2 11 15
f 2 15 10
f 5 12 13
f 5 13 6
f 6 13 18
f 6 18 23
f 6 23 29
f 6 29 35
f 6 35 38
f 6 38 34
f 6 34 33
f 6 33 32
f 6 32 27
f 6 27 26
f 6 26 21
f 6 21 16
f 6 16 11
f 6 11 9
f 6 9 8
f 6 8 7
f 10 15 21
f 10 21 26
f 10 26 20
f 10 20 14
f 11 16 15
f 12 17 13
f 13 17 18
f 14 20 25
f 14 25 19
f 15 16 21
f 17 22 18
f 18 22 28
f 18 28 23
f 19 25 24
f 20 26 27
f 20 27 25
f 23 28 30
f 23 30 29
f 24 25 32
f 24 32 33
f 24 33 34
f 24 34 31
f 25 27 32
f 29 30 35
f 30 36 35
f 31 34 37
f 34 38 37
f 35 36 37
f 35 37 38

