v 66.053710 -15.000000 8.133372
v 66.465699 -15.000000 7.250087
v 70.656382 -15.000000 8.133372
v 66.053710 -9.000000 8.133372
v 70.244952 -15.000000 7.250087
v 66.465699 -9.000000 7.250087
v 71.319800 -13.178152 8.133372
v 70.656382 -9.000000 8.133372
v 71.336525 -12.000000 7.250087
v 71.748513 -12.000000 8.133372
v 70.244952 -9.000000 7.250087
f 1 2 5
f 1 5 3
f 1 3 7
f 1 7 10
f 1 10 8
f 1 8 4
f 1 4 6
f 1 6 2
f 2 6 11
f 2 11 9
f 2 9 5
f 3 5 7
f 4 8 11
f 4 11 6
f 5 9 10
f 5 10 7
f 8 10 11
f 9 11 10
