# https://github.com/mikedh/trimesh
v 37.91532560 -14.57188502 -9.94470815
v 37.91532560 -4.30013342 -13.61871274
v 34.86915788 -14.57188502 -9.94470815
v 37.91532560 -42.46937983 -9.94470815
v 37.91532560 -4.02334917 -13.75302187
v 36.14875562 -4.30013342 -13.61871274
v 34.10818186 -14.79100565 -9.94470815
v 34.90894667 -4.25400176 -13.76030014
v 37.50522103 -42.51935230 -9.94470815
v 37.91532560 -42.68465583 -10.87693771
v 37.91532560 -3.57742057 -13.97135870
v 36.14875562 -3.57742057 -13.97135870
v 35.36155378 -3.60432911 -14.00642468
v 33.82422708 -14.87557782 -9.94470815
v 34.00735014 -4.64995598 -13.85425121
v 36.14875562 -42.67312197 -9.94470815
v 37.42835336 -42.69618970 -10.87693771
v 37.91532560 -42.70003433 -12.15718290
v 37.91532560 -3.43518286 -14.71568707
v 37.42835336 -3.43518286 -14.71568707
v 36.14875562 -3.45056135 -14.71568707
v 35.27745265 -3.56588670 -14.71568707
v 34.63720276 -3.88495799 -14.71568707
v 33.69717144 -15.12929625 -9.94470815
v 33.89928495 -4.52309677 -14.71568707
v 33.45165335 -5.58025751 -14.71568707
v 33.84864501 -5.58025751 -13.73383499
v 33.35760502 -15.81741131 -9.94470815
v 36.14875562 -42.67696659 -10.87693771
v 34.88272276 -42.35020795 -9.94470815
v 37.42835336 -42.70003433 -12.15718290
v 37.91532560 -42.70003433 -14.71568707
v 37.91532560 -3.51591232 -15.69224518
v 37.42835336 -3.51591232 -15.69224518
v 36.14875562 -3.53513353 -15.65188617
v 35.34753693 -3.58895253 -15.52617787
v 34.01096782 -4.67302182 -15.72532686
v 33.89973693 -5.63407651 -16.08922063
v 33.73244052 -6.86038160 -15.99593131
v 33.33454491 -6.86038160 -14.71568707
v 33.34087443 -16.16723578 -9.94470815
v 36.14875562 -42.67696659 -14.71568707
v 34.41655077 -42.12339808 -9.94470815
v 34.88543459 -42.35020795 -12.15718290
v 37.42835336 -42.70003433 -14.71568707
v 37.91532560 -42.50013300 -15.47589454
v 37.91532560 -3.76194150 -15.93572367
v 37.42835336 -4.16558497 -16.33203642
v 36.14875562 -4.17711883 -16.29167741
v 35.32493070 -4.86523390 -16.65821722
v 34.90939865 -4.34241856 -16.05217036
v 34.47171424 -5.24196691 -16.57816095
v 34.20901168 -6.09538361 -16.64763306
v 33.73108460 -10.69691115 -15.99593131
v 33.29656400 -15.81741131 -14.71568707
v 34.19816054 -6.86038160 -16.65424864
v 34.19635074 -13.25716314 -16.65557213
v 34.19228109 -28.61097058 -16.65821722
v 33.29656400 -17.09753731 -9.94470815
v 34.88860030 -42.35020795 -14.71568707
v 35.09613939 -42.25025920 -15.75973109
v 36.14875562 -42.36173801 -15.95160276
v 34.24563667 -42.03882781 -12.15718290
v 34.24292293 -42.03882781 -9.94470815
v 37.42835336 -42.37711650 -15.94167750
v 37.91532560 -42.37711650 -15.94167750
v 37.91532560 -4.16558497 -16.33203642
v 37.91532560 -4.40777143 -16.46039267
v 37.42835336 -4.80757027 -16.66946503
v 36.14875562 -4.81525761 -16.66946503
v 36.14875562 -5.58025751 -16.70320846
v 34.88679241 -5.63407651 -16.67012678
v 34.86915788 -6.86038160 -16.68799016
v 33.73017875 -13.25716314 -15.99593131
v 33.72837086 -19.65778549 -15.99593131
v 33.72701495 -24.77059641 -15.99593131
v 33.72430121 -35.01159674 -15.99593131
v 33.72339726 -38.85197091 -15.99593131
v 33.29656400 -38.85197091 -14.71568707
v 34.86915788 -8.14050760 -16.68865382
v 34.19770857 -9.42063168 -16.65491038
v 34.86915788 -27.33084458 -16.69196065
v 34.19047320 -37.57184491 -16.65954071
v 34.19002123 -38.85197091 -16.65954071
v 34.86915788 -11.97703714 -16.68931366
v 33.29656400 -38.85197091 -9.94470815
v 34.24880048 -42.03498319 -14.71568707
v 33.95942203 -41.18540921 -15.77627193
v 34.69372216 -41.54676564 -16.19441951
v 36.14875562 -41.79663944 -16.59139401
v 33.82422708 -41.39684059 -14.71568707
v 34.12852823 -41.86583503 -9.94470815
v 37.91532560 -41.98885152 -16.33865390
v 37.91532560 -4.80757027 -16.66946503
v 37.91532560 -5.09973112 -16.68269808
v 37.91532560 -5.58025751 -16.70387021
v 36.14875562 -40.12824847 -16.70320846
v 34.86915788 -36.29171892 -16.69328415
v 34.20313414 -39.83224300 -16.65160164
v 33.86492173 -40.20897792 -16.11965532
v 33.35760502 -40.12824847 -14.71568707
v 33.35669917 -40.12824847 -12.15718290
v 33.35624720 -40.12824847 -9.94470815
v 34.86915788 -38.85197091 -16.69328415
v 34.29130302 -40.68566160 -16.62910602
v 35.14451947 -41.05854809 -16.65821722
v 36.14875562 -41.15465604 -16.66946503
v 37.91532560 -41.10852437 -16.66946503
v 37.91532560 -41.35455355 -16.63638525
v 37.91532560 -41.75051159 -16.58146969
v 33.82332314 -41.40068522 -10.87693771
v 33.82287116 -41.40068522 -9.94470815
v 37.91532560 -40.12824847 -16.70320846
v 34.77827526 -40.20897792 -16.67211202
v 37.91532560 -40.50113877 -16.69063715
f 1 2 6
f 1 6 3
f 1 3 7
f 1 7 14
f 1 14 24
f 1 24 28
f 1 28 41
f 1 41 59
f 1 59 86
f 1 86 103
f 1 103 112
f 1 112 92
f 1 92 64
f 1 64 43
f 1 43 30
f 1 30 16
f 1 16 9
f 1 9 4
f 1 4 10
f 1 10 18
f 1 18 32
f 1 32 46
f 1 46 66
f 1 66 93
f 1 93 110
f 1 110 109
f 1 109 108
f 1 108 115
f 1 115 113
f 1 113 96
f 1 96 95
f 1 95 94
f 1 94 68
f 1 68 67
f 1 67 47
f 1 47 33
f 1 33 19
f 1 19 11
f 1 11 5
f 1 5 2
f 2 5 6
f 3 6 8
f 3 8 7
f 4 9 10
f 5 11 12
f 5 12 6
f 6 12 13
f 6 13 8
f 7 8 14
f 8 13 15
f 8 15 14
f 9 16 10
f 10 16 17
f 10 17 18
f 11 19 20
f 11 20 12
f 12 20 21
f 12 21 13
f 13 21 22
f 13 22 23
f 13 23 15
f 14 15 24
f 15 23 25
f 15 25 26
f 15 26 27
f 15 27 28
f 15 28 24
f 16 29 17
f 16 30 29
f 17 31 18
f 17 29 31
f 18 31 45
f 18 45 32
f 19 33 34
f 19 34 20
f 20 34 21
f 21 34 35
f 21 35 36
f 21 36 22
f 22 36 23
f 23 36 37
f 23 37 25
f 25 37 26
f 26 38 39
f 26 39 40
f 26 40 28
f 26 28 27
f 26 37 38
f 28 40 41
f 29 42 45
f 29 45 31
f 29 30 42
f 30 43 44
f 30 44 42
f 32 45 46
f 33 47 34
f 34 47 48
f 34 48 49
f 34 49 35
f 35 49 36
f 36 49 50
f 36 50 51
f 36 51 37
f 37 51 52
f 37 52 38
f 38 53 39
f 38 52 53
f 39 54 55
f 39 55 40
f 39 53 56
f 39 56 57
f 39 57 58
f 39 58 54
f 40 55 59
f 40 59 41
f 42 44 60
f 42 60 61
f 42 61 62
f 42 62 45
f 43 63 60
f 43 60 44
f 43 64 63
f 45 62 65
f 45 65 46
f 46 65 66
f 47 67 48
f 48 67 68
f 48 68 69
f 48 69 70
f 48 70 49
f 49 70 50
f 50 70 71
f 50 71 72
f 50 72 53
f 50 53 52
f 50 52 51
f 53 72 73
f 53 73 56
f 54 74 55
f 54 58 74
f 55 74 75
f 55 75 76
f 55 76 77
f 55 77 78
f 55 78 79
f 55 79 86
f 55 86 59
f 56 73 80
f 56 80 81
f 56 81 57
f 57 81 80
f 57 80 58
f 58 82 83
f 58 83 84
f 58 84 74
f 58 80 85
f 58 85 82
f 60 63 87
f 60 87 61
f 61 87 88
f 61 88 89
f 61 89 90
f 61 90 62
f 62 90 65
f 63 64 91
f 63 91 87
f 64 92 91
f 65 90 66
f 66 90 93
f 68 94 69
f 69 94 95
f 69 95 70
f 70 95 71
f 71 85 80
f 71 80 73
f 71 73 72
f 71 95 96
f 71 96 97
f 71 97 104
f 71 104 98
f 71 98 82
f 71 82 85
f 74 84 75
f 75 84 76
f 76 84 77
f 77 84 78
f 78 84 99
f 78 99 100
f 78 100 101
f 78 101 79
f 79 101 102
f 79 102 103
f 79 103 86
f 82 98 83
f 83 98 84
f 84 104 99
f 84 98 104
f 87 91 88
f 88 101 100
f 88 100 105
f 88 105 89
f 88 91 101
f 89 105 90
f 90 105 106
f 90 106 107
f 90 107 108
f 90 108 109
f 90 109 110
f 90 110 93
f 91 92 111
f 91 111 101
f 92 112 111
f 96 113 97
f 97 113 107
f 97 107 106
f 97 106 114
f 97 114 104
f 99 104 114
f 99 114 105
f 99 105 100
f 101 111 112
f 101 112 102
f 102 112 103
f 105 114 106
f 107 113 115
f 107 115 108

