# https://github.com/mikedh/trimesh
v 10.63161939 -18.29148397 43.69490262
v 12.42421324 -13.25479833 47.58342653
v 10.63244324 -17.00982837 43.69490262
v 10.63655485 -29.89064060 43.69490262
v 12.42174551 -31.16908471 47.59470486
v 12.42174551 -28.60898120 47.59372463
v 12.93756201 -19.65023417 48.22775473
v 12.93838205 -14.53645392 48.22432203
v 12.93920589 -11.97635422 48.22236158
v 12.42503708 -11.97635422 47.58244631
v 10.63326327 -15.73138427 43.69490262
v 10.77147520 -31.13696227 43.69490262
v 12.43902343 -31.98497637 47.51575754
v 12.93591432 -31.16908471 48.23462013
v 12.93673816 -26.05209298 48.23216766
v 13.57924035 -11.97635422 48.67054627
v 13.62777873 -10.69791011 48.67054627
v 13.70181824 -9.97517048 48.65926795
v 12.44066731 -11.23434189 47.50693169
v 10.64724961 -11.97635422 43.69490262
v 10.63902258 -13.25479833 43.69490262
v 10.67357460 -10.70112159 43.69490262
v 11.28646404 -31.95285393 43.69490262
v 12.63564083 -32.71092749 46.71745751
v 13.43445290 -33.25057074 47.65845104
v 13.10785442 -32.38007246 48.01346846
v 13.63518192 -31.92394679 48.65926795
v 13.57595259 -31.16908471 48.67054627
v 13.57677263 -24.77043739 48.67054627
v 13.57842032 -13.25479833 48.67054627
v 14.39286262 -10.69791011 48.70340102
v 10.91461877 -9.41625166 43.69490262
v 14.47183759 -9.49655681 48.67692156
v 16.29569571 -6.20086773 48.64651928
v 12.32878419 -32.76874559 43.69490262
v 13.27485526 -33.32766536 46.71745751
v 14.39286262 -33.85767417 46.71745751
v 16.04642451 -34.49046945 47.60647330
v 17.05584032 -34.63823191 48.01886352
v 17.55191118 -34.38446769 48.64553906
v 14.46443440 -33.41760590 48.04975591
v 14.93746803 -33.12529628 48.65485502
v 14.08518213 -32.77838385 48.51167140
v 14.46443440 -32.38971072 48.67397897
v 14.39286262 -31.16908471 48.70340102
v 18.23143313 -8.13780755 48.70389114
v 15.67128766 -9.41625166 48.70340102
v 16.95136039 -6.85615101 48.69408315
v 13.76351911 -5.57770594 43.69490262
v 16.95136039 -6.14947259 48.66074020
v 18.23143313 -5.54879594 47.99728710
v 16.95136039 -5.69976797 47.99728710
v 16.95136039 -3.20712272 43.69490262
v 15.67128766 -3.64719004 43.69490262
v 15.01479912 -4.29604940 43.69490262
v 13.24194711 -33.32766536 43.69490262
v 13.97001124 -33.66815483 43.69490262
v 15.91315185 -34.55150285 46.71745751
v 18.69130807 -35.73036816 47.53978548
v 19.03600450 -35.81067426 47.65256682
v 19.03600450 -35.25175449 48.27090567
v 19.03600450 -34.59647121 48.66662346
v 18.23143313 -34.43907812 48.65975806
v 15.67128766 -32.45074030 48.69996832
v 18.23143313 -33.72918823 48.69310292
v 16.95136039 -32.45074030 48.70340102
v 19.03600450 -8.13780755 48.69800596
v 18.23143313 -6.85615101 48.70340102
v 19.03600450 -32.45074030 48.70340102
v 19.03600450 -23.49199137 48.70340102
v 18.23143313 -6.11735111 48.67054627
v 19.00556409 -6.15589651 48.65926795
v 19.03600450 -3.16215245 43.69490262
v 18.23143313 -3.15572758 43.69490262
v 16.95136039 -35.02368974 43.69490262
v 16.95136039 -35.02368974 46.71745751
v 18.60081448 -35.77212504 46.71745751
v 19.03600450 -35.96807116 46.71745751
v 19.03600450 -33.72918823 48.69947821
v 19.03600450 -6.89790884 48.68427707
v 19.03600450 -6.20729165 48.66025008
v 19.03600450 -6.13983624 48.61562689
v 19.03600450 -35.97128264 43.69490262
f 1 2 3
f 1 3 11
f 1 11 21
f 1 21 20
f 1 20 22
f 1 22 32
f 1 32 49
f 1 49 55
f 1 55 54
f 1 54 53
f 1 53 74
f 1 74 73
f 1 73 83
f 1 83 75
f 1 75 57
f 1 57 56
f 1 56 35
f 1 35 23
f 1 23 12
f 1 12 4
f 1 4 5
f 1 5 6
f 1 6 2
f 2 7 8
f 2 8 9
f 2 9 10
f 2 10 11
f 2 11 3
f 2 6 7
f 4 12 13
f 4 13 5
f 5 13 14
f 5 14 6
f 6 14 15
f 6 15 7
f 7 16 8
f 7 15 16
f 8 16 9
f 9 16 17
f 9 17 18
f 9 18 19
f 9 19 10
f 10 20 21
f 10 21 11
f 10 19 22
f 10 22 20
f 12 23 24
f 12 24 13
f 13 24 25
f 13 25 26
f 13 26 27
f 13 27 14
f 14 27 28
f 14 28 29
f 14 29 30
f 14 30 16
f 14 16 15
f 16 30 31
f 16 31 17
f 17 31 18
f 18 32 19
f 18 31 33
f 18 33 34
f 18 34 32
f 19 32 22
f 23 35 36
f 23 36 24
f 24 36 25
f 25 36 37
f 25 37 38
f 25 38 39
f 25 39 40
f 25 40 41
f 25 41 42
f 25 42 43
f 25 43 26
f 26 43 27
f 27 43 42
f 27 42 44
f 27 44 45
f 27 45 28
f 28 45 31
f 28 31 29
f 29 31 30
f 31 46 47
f 31 47 48
f 31 48 33
f 31 45 46
f 32 34 49
f 33 48 34
f 34 48 50
f 34 50 51
f 34 51 52
f 34 52 53
f 34 53 54
f 34 54 55
f 34 55 49
f 35 56 36
f 36 56 37
f 37 56 57
f 37 57 58
f 37 58 59
f 37 59 38
f 38 59 60
f 38 60 39
f 39 60 40
f 40 60 61
f 40 61 62
f 40 62 63
f 40 63 42
f 40 42 41
f 42 64 44
f 42 63 65
f 42 65 64
f 44 64 45
f 45 64 66
f 45 66 46
f 46 67 68
f 46 68 47
f 46 66 69
f 46 69 70
f 46 70 67
f 47 68 48
f 48 68 71
f 48 71 50
f 50 71 51
f 51 71 72
f 51 72 73
f 51 73 74
f 51 74 53
f 51 53 52
f 57 75 76
f 57 76 58
f 58 76 59
f 59 76 77
f 59 77 78
f 59 78 60
f 60 78 83
f 60 83 73
f 60 73 82
f 60 82 81
f 60 81 80
f 60 80 67
f 60 67 70
f 60 70 69
f 60 69 79
f 60 79 62
f 60 62 61
f 62 79 65
f 62 65 63
f 64 65 79
f 64 79 66
f 66 79 69
f 67 80 68
f 68 72 71
f 68 80 72
f 72 81 82
f 72 82 73
f 72 80 81
f 75 83 76
f 76 83 77
f 77 83 78

