# https://github.com/mikedh/trimesh
v 32.95171081 0.82411567 48.36649682
v 32.95171081 0.05632567 48.36486629
v 32.97503600 0.05632567 48.35344875
v 33.20726576 0.05632567 48.22460237
v 33.58939769 0.05632567 48.01257787
v 32.95171081 53.29516917 48.36486629
v 32.95171081 0.05632567 31.70618130
v 34.28111144 0.05632567 47.42869093
v 33.58939769 32.81534035 48.00931489
v 33.58939769 48.17112515 48.00768436
v 33.58939769 53.29516917 48.00605383
v 33.58939769 54.57481854 47.95386249
v 32.95171081 53.77435877 48.34529418
v 32.95171081 25.14289069 31.70455077
v 32.98515484 0.05632567 31.71596736
v 34.51779989 0.05632567 46.71759005
v 34.51779989 0.82411567 46.71759005
v 34.51762825 3.38341441 46.71759005
v 34.51711335 9.78710399 46.71759005
v 34.51556863 27.70218943 46.71759005
v 34.51385419 46.89147959 46.71759005
v 34.51333928 52.01551980 46.71759005
v 34.28008163 12.34640177 47.42706040
v 34.27990999 13.62605114 47.42706040
v 34.27733738 41.77288212 47.42379933
v 34.27630757 53.29516917 47.42216784
v 34.26636036 54.57481854 47.40748829
v 32.95171081 54.57481854 48.29962592
v 34.24732223 55.23369852 47.38139405
v 32.95171081 26.42254006 31.70455077
v 33.26883885 23.86324323 31.80077792
v 33.26815231 8.50745462 31.80077792
v 33.26763741 0.05632567 31.80240845
v 34.70320571 0.05632567 45.43728275
v 34.70337735 17.46499830 45.43728275
v 34.70337735 53.29516917 45.43728275
v 34.51316765 53.29516917 46.71759005
v 34.27750901 40.49323275 47.42379933
v 34.48761311 54.57481854 46.71759005
v 32.95171081 54.89608871 48.16588795
v 34.34560042 55.33171735 46.71759005
v 33.58939769 55.57675489 46.71759005
v 33.58939769 55.34805319 47.62929980
v 32.95171081 45.61183023 31.70618130
v 33.26832395 35.37463909 31.80077792
v 33.26849558 34.09498972 31.80077792
v 33.26883885 28.97639225 31.80077792
v 33.90858344 23.86324323 32.34878218
v 33.90789690 8.50745462 32.34878218
v 33.90755363 2.10376504 32.34878218
v 33.90738199 0.05632567 32.34878218
v 34.70372062 0.05632567 44.15697354
v 34.70372062 53.29516917 44.15697354
v 34.67216076 54.57481854 45.43728275
v 32.95171081 55.38072486 47.83806419
v 34.43495740 55.41884308 45.43728275
v 32.95171081 55.63665168 46.71759005
v 32.95171081 55.50052226 47.35366737
v 33.58939769 55.66388062 45.43728275
v 32.95171081 53.29516917 31.70781279
v 33.26677923 53.29516917 31.80240845
v 33.90652573 53.29516917 32.34878218
v 33.90669736 52.01551980 32.34878218
v 33.90738199 44.33218086 32.34878218
v 33.90824017 34.09498972 32.34878218
v 33.90841180 31.53569099 32.34878218
v 33.90858344 27.70218943 32.34878218
v 34.39585323 17.46499830 32.98812057
v 34.39653977 49.45077452 32.98812057
v 34.39636814 39.21358720 32.98812057
v 34.39619650 30.25604162 32.98812057
v 34.39533833 0.05632567 32.98975158
v 34.70372062 0.05632567 35.19971020
v 34.70372062 53.29516917 35.19971020
v 34.67250403 54.57481854 44.15697354
v 34.43512904 55.41884308 44.15697354
v 32.95171081 55.68021645 46.07499060
v 33.58939769 55.66388062 35.19971020
v 32.95171081 55.68566300 44.79468139
v 32.95171081 54.57481854 31.73227745
v 33.24757137 54.57481854 31.81708706
v 33.88731596 54.57481854 32.36672281
v 34.38418968 54.57481854 33.00769220
v 34.39636814 53.29516917 32.98812057
v 34.39653977 50.73042389 32.98812057
v 34.63322822 20.02429513 33.92103296
v 34.63288495 8.50745462 33.92103296
v 34.63271332 3.38341441 33.92103296
v 34.53752265 0.05632567 33.54754189
v 34.63374313 43.05253149 33.92103296
v 34.63357149 34.09498972 33.92103296
v 34.63339986 26.42254006 33.92103296
v 34.67524828 0.05632567 34.68758719
v 34.63374313 53.29516917 33.92103296
v 34.60578570 54.57481854 33.92103296
v 34.67250403 54.57481854 35.19971020
v 34.43512904 55.41884308 35.19971020
v 33.58939769 55.63665168 33.92103296
v 32.95171081 55.66932335 33.92103296
v 32.95171081 55.68021645 35.19971020
v 32.95171081 55.68566300 39.04063449
v 32.95171081 55.34805319 31.86601638
v 33.13540028 55.32627080 31.88721902
v 34.32433294 55.31538152 33.11207440
v 34.63254168 0.05632567 33.92103296
v 34.40357109 55.39161414 33.92103296
v 33.57293217 55.44062165 32.66682037
v 32.95171081 55.54952977 32.65377277
v 32.95171081 55.40250343 32.05520818
f 1 2 3
f 1 3 4
f 1 4 5
f 1 5 6
f 1 6 13
f 1 13 28
f 1 28 40
f 1 40 55
f 1 55 58
f 1 58 57
f 1 57 77
f 1 77 79
f 1 79 101
f 1 101 100
f 1 100 99
f 1 99 108
f 1 108 109
f 1 109 102
f 1 102 80
f 1 80 60
f 1 60 44
f 1 44 30
f 1 30 14
f 1 14 7
f 1 7 2
f 2 7 15
f 2 15 33
f 2 33 51
f 2 51 72
f 2 72 89
f 2 89 105
f 2 105 93
f 2 93 73
f 2 73 52
f 2 52 34
f 2 34 16
f 2 16 8
f 2 8 5
f 2 5 4
f 2 4 3
f 5 8 9
f 5 9 6
f 6 9 10
f 6 10 11
f 6 11 12
f 6 12 13
f 7 14 15
f 8 16 17
f 8 17 18
f 8 18 19
f 8 19 20
f 8 20 21
f 8 21 22
f 8 22 23
f 8 23 24
f 8 24 25
f 8 25 10
f 8 10 9
f 10 25 26
f 10 26 11
f 11 26 27
f 11 27 12
f 12 28 13
f 12 27 29
f 12 29 28
f 14 30 47
f 14 47 31
f 14 31 32
f 14 32 15
f 15 32 33
f 16 34 35
f 16 35 36
f 16 36 17
f 17 36 18
f 18 36 19
f 19 36 20
f 20 36 21
f 21 36 22
f 22 36 37
f 22 37 25
f 22 25 38
f 22 38 23
f 23 38 25
f 23 25 24
f 25 37 26
f 26 37 27
f 27 37 39
f 27 39 29
f 28 29 40
f 29 39 41
f 29 41 42
f 29 42 43
f 29 43 40
f 30 44 45
f 30 45 46
f 30 46 47
f 31 48 49
f 31 49 32
f 31 47 67
f 31 67 48
f 32 49 50
f 32 50 51
f 32 51 33
f 34 52 35
f 35 52 53
f 35 53 36
f 36 53 75
f 36 75 54
f 36 54 39
f 36 39 37
f 39 54 41
f 40 43 55
f 41 56 42
f 41 54 56
f 42 57 58
f 42 58 55
f 42 55 43
f 42 56 59
f 42 59 57
f 44 60 61
f 44 61 45
f 45 61 62
f 45 62 63
f 45 63 46
f 46 63 64
f 46 64 65
f 46 65 66
f 46 66 47
f 47 66 67
f 48 68 49
f 48 67 85
f 48 85 69
f 48 69 70
f 48 70 71
f 48 71 68
f 49 68 50
f 50 68 51
f 51 68 72
f 52 73 74
f 52 74 53
f 53 74 96
f 53 96 75
f 54 75 56
f 56 76 59
f 56 75 76
f 57 59 77
f 59 78 101
f 59 101 79
f 59 79 77
f 59 76 97
f 59 97 78
f 60 80 81
f 60 81 61
f 61 81 62
f 62 81 82
f 62 82 83
f 62 83 84
f 62 84 63
f 63 84 64
f 64 84 65
f 65 84 66
f 66 84 85
f 66 85 67
f 68 86 87
f 68 87 88
f 68 88 89
f 68 89 72
f 68 71 86
f 69 85 94
f 69 94 90
f 69 90 70
f 70 90 91
f 70 91 71
f 71 91 92
f 71 92 86
f 73 93 87
f 73 87 86
f 73 86 92
f 73 92 91
f 73 91 90
f 73 90 94
f 73 94 74
f 74 94 95
f 74 95 96
f 75 96 97
f 75 97 76
f 78 97 98
f 78 98 99
f 78 99 100
f 78 100 101
f 80 102 103
f 80 103 81
f 81 103 82
f 82 103 104
f 82 104 83
f 83 104 95
f 83 95 94
f 83 94 84
f 84 94 85
f 87 93 88
f 88 93 105
f 88 105 89
f 95 104 106
f 95 106 96
f 96 106 97
f 97 106 98
f 98 106 104
f 98 104 107
f 98 107 108
f 98 108 99
f 102 109 103
f 103 109 107
f 103 107 104
f 107 109 108

