# https://github.com/mikedh/trimesh
v 37.91532560 -13.17859628 -3.19816889
v 37.91532560 -13.17859628 -5.76642384
v 33.29555708 -13.17859628 -3.19816889
v 37.91532560 -20.76919813 -3.19816889
v 36.07121666 -13.17859628 -5.76642384
v 37.91532560 -14.57025449 -9.94470815
v 33.36655293 -13.17859628 -4.40073782
v 33.35750967 -15.81754862 -9.94470815
v 33.34077717 -16.16402049 -9.94470815
v 33.29646102 -17.09660667 -9.94470815
v 33.29646102 -38.85209678 -9.94470815
v 33.29600905 -38.85209678 -3.19816889
v 37.70369207 -40.13115482 -3.19816889
v 37.91532560 -41.46795468 -8.38288723
v 34.86924560 -13.17859628 -5.75387637
v 34.86924560 -14.57025449 -9.94470815
v 37.91532560 -42.47272099 -9.94470815
v 33.37243238 -13.17859628 -4.47800406
v 33.69711804 -15.13038327 -9.94470815
v 33.31274155 -39.19856673 -9.94470815
v 33.35615375 -40.13115482 -9.59668299
v 33.35524790 -40.13115482 -4.47800406
v 33.36700680 -40.13115482 -3.19816889
v 37.60194496 -41.41020905 -3.19816889
v 37.91532560 -42.06850159 -8.86761297
v 37.91532560 -41.64407503 -8.49911557
v 34.80774498 -13.17859628 -5.73868716
v 34.10817614 -14.78968597 -9.94470815
v 33.83911164 -13.17859628 -5.42962504
v 37.91532560 -42.40631351 -9.57687155
v 37.14476091 -42.35434245 -3.19816889
v 36.14854393 -42.65172862 -3.19816889
v 37.71906674 -42.49581924 -9.94470815
v 33.81062406 -13.17859628 -5.37547325
v 33.82418894 -14.87341522 -9.94470815
v 33.35660573 -40.13115482 -9.94470815
v 33.82283302 -41.40154721 -9.94470815
v 33.82238105 -41.40443449 -7.03701313
v 33.82192908 -41.40443449 -5.75783876
v 33.82192908 -41.40443449 -4.47800406
v 33.83368607 -41.40732177 -3.19816889
v 36.14854393 -42.67193959 -9.59668299
v 34.87421920 -42.34856789 -3.19816889
v 36.14854393 -42.67193959 -9.94470815
v 34.12852633 -41.86639570 -9.94470815
v 34.24067452 -42.04251987 -8.31684782
v 34.23750881 -42.04540334 -5.75783876
v 34.23434309 -42.04540334 -3.19816889
v 35.80486590 -42.58532115 -9.94470815
v 34.88235851 -42.35145517 -9.59668299
v 34.24293438 -42.03962877 -9.94470815
v 34.88281048 -42.35145517 -9.94470815
f 1 2 5
f 1 5 15
f 1 15 27
f 1 27 29
f 1 29 34
f 1 34 18
f 1 18 7
f 1 7 3
f 1 3 12
f 1 12 23
f 1 23 41
f 1 41 48
f 1 48 43
f 1 43 32
f 1 32 31
f 1 31 24
f 1 24 13
f 1 13 4
f 1 4 14
f 1 14 26
f 1 26 25
f 1 25 30
f 1 30 17
f 1 17 6
f 1 6 2
f 2 6 16
f 2 16 5
f 3 7 8
f 3 8 9
f 3 9 10
f 3 10 11
f 3 11 12
f 4 13 14
f 5 16 15
f 6 17 33
f 6 33 44
f 6 44 49
f 6 49 52
f 6 52 51
f 6 51 45
f 6 45 37
f 6 37 36
f 6 36 20
f 6 20 11
f 6 11 10
f 6 10 9
f 6 9 8
f 6 8 19
f 6 19 35
f 6 35 28
f 6 28 16
f 7 18 8
f 8 18 19
f 11 20 21
f 11 21 22
f 11 22 12
f 12 22 23
f 13 24 25
f 13 25 26
f 13 26 14
f 15 16 27
f 16 28 29
f 16 29 27
f 17 30 31
f 17 31 32
f 17 32 33
f 18 34 35
f 18 35 19
f 20 36 21
f 21 36 37
f 21 37 38
f 21 38 39
f 21 39 22
f 22 39 40
f 22 40 41
f 22 41 23
f 24 31 30
f 24 30 25
f 28 35 29
f 29 35 34
f 32 42 33
f 32 43 42
f 33 42 44
f 37 45 46
f 37 46 47
f 37 47 48
f 37 48 38
f 38 48 39
f 39 48 40
f 40 48 41
f 42 43 49
f 42 49 44
f 43 50 49
f 43 48 50
f 45 51 46
f 46 51 52
f 46 52 47
f 47 52 50
f 47 50 48
f 49 50 52

