v 110.035455 -15.000000 8.133372
v 110.447457 -15.000000 7.250087
v 111.497213 -15.000000 8.133372
v 110.035704 -9.000000 8.133372
v 111.085710 -15.000000 7.250087
v 110.447709 -9.000000 7.250087
v 112.160718 -13.178152 8.133372
v 111.497213 -9.000000 8.133372
v 112.177467 -12.000000 7.250087
v 112.589468 -12.000000 8.133372
v 111.085961 -9.000000 7.250087
f 1 2 5
f 1 5 3
f 1 3 7
f 1 7 10
f 1 10 8
f 1 8 4
f 1 4 6
f 1 6 2
f 2 6 11
f 2 11 9
f 2 9 5
f 3 5 7
f 4 8 11
f 4 11 6
f 5 9 10
f 5 10 7
f 8 10 11
f 9 11 10
