# https://github.com/mikedh/trimesh
v 16.63545885 55.69798657 12.26786302
v 16.63545885 55.69798657 8.32020555
v 14.39201829 55.69798657 12.26786302
v 16.63545885 31.88150959 12.26786302
v 16.63545885 55.45001982 7.00948610
v 15.21041192 55.36736805 3.43673446
v 14.48123415 55.44411558 3.08701559
v 13.11268563 55.69798657 4.48104713
v 10.55937532 55.69798657 9.59992439
v 13.11268563 55.59171402 12.26786302
v 16.30179667 32.23574698 12.26786302
v 16.63545885 -4.60481218 12.10511303
v 16.63545885 55.23748234 6.54448552
v 16.63545885 55.17253567 6.40498539
v 14.96774679 54.85962607 2.58423386
v 14.11426335 55.27290399 2.51157793
v 13.11268563 55.55038813 3.20132781
v 10.55937532 55.69798657 4.47523490
v 10.55937532 55.50315800 10.87964323
v 10.55937532 55.26109550 11.55680036
v 12.02129707 55.33194260 12.26786302
v 15.14320349 33.76486572 12.26786302
v 10.55937532 -4.60481218 11.62848847
v 16.63545885 -4.60481218 6.21026696
v 12.38291286 37.46073088 12.26786302
v 12.04746949 38.17510610 12.26786302
v 11.78280076 39.00755853 12.26786302
v 16.63545885 54.56442920 6.29261074
v 15.26572415 54.48768167 3.08701559
v 15.03436022 54.00946091 2.55904643
v 14.48123415 54.48768167 2.49220272
v 13.11268563 55.30242138 2.48639002
v 13.11268563 54.57033344 2.39145252
v 11.83275797 55.55038813 3.20132781
v 10.55937532 55.54448770 3.19745315
v 10.55937532 54.57033344 11.63042603
v 11.79945316 54.59395041 12.26786302
v 10.55937532 -4.60481218 2.37110901
v 11.78042075 39.14925654 12.26786302
v 11.77328455 40.49535139 12.26786302
v 10.55937532 39.21419940 11.65851886
v 15.35196499 -4.60481218 3.20132781
v 16.63545885 53.28918145 6.21026696
v 15.34958499 53.28918145 3.20132781
v 15.03614523 53.28918145 2.55807765
v 14.39201829 53.28918145 2.46314016
v 10.55937532 55.29651714 2.48542123
v 11.83275797 55.30242138 2.48639002
v 13.11268563 53.28918145 2.37207780
v 11.83275797 53.28918145 2.37110901
v 10.55937532 54.57033344 2.39145252
v 10.55937532 53.29508569 11.65464373
v 11.79707316 54.57033344 12.26786302
v 10.86627389 -4.60481218 2.37110901
v 10.55937532 53.28918145 2.37110901
v 11.77268955 41.77060295 12.26786302
v 10.55937532 39.22010364 11.65851886
v 15.03793023 -4.60481218 2.55710887
v 15.35196499 -4.29190448 3.20132781
v 15.35077499 35.37073580 3.20132781
v 15.35017999 48.17047010 3.20132781
v 15.35136999 18.73934923 3.20132781
v 15.03733523 20.02050313 2.55710887
v 15.03674023 22.58281188 2.55710887
v 14.39201829 25.13921543 2.46217137
v 13.42612540 -4.60481218 2.39339009
v 13.11268563 -4.60481218 2.37207780
v 11.83275797 22.58281188 2.37110901
v 11.77268955 53.28918145 12.26786302
v 11.77328455 53.32460691 12.26786302
v 14.55022377 -4.60481218 2.48542123
v 15.03793023 0.82680877 2.55710887
v 14.39201829 -4.60481218 2.46217137
f 1 2 8
f 1 8 18
f 1 18 9
f 1 9 3
f 1 3 10
f 1 10 21
f 1 21 37
f 1 37 53
f 1 53 70
f 1 70 69
f 1 69 56
f 1 56 40
f 1 40 39
f 1 39 27
f 1 27 26
f 1 26 25
f 1 25 22
f 1 22 11
f 1 11 4
f 1 4 12
f 1 12 24
f 1 24 43
f 1 43 28
f 1 28 14
f 1 14 13
f 1 13 5
f 1 5 2
f 2 5 6
f 2 6 7
f 2 7 8
f 3 9 10
f 4 11 12
f 5 13 6
f 6 13 14
f 6 14 15
f 6 15 16
f 6 16 7
f 7 16 17
f 7 17 8
f 8 17 18
f 9 18 35
f 9 35 47
f 9 47 51
f 9 51 55
f 9 55 38
f 9 38 23
f 9 23 41
f 9 41 57
f 9 57 52
f 9 52 36
f 9 36 20
f 9 20 19
f 9 19 10
f 10 19 20
f 10 20 21
f 11 22 12
f 12 23 38
f 12 38 54
f 12 54 67
f 12 67 66
f 12 66 73
f 12 73 71
f 12 71 58
f 12 58 42
f 12 42 24
f 12 22 25
f 12 25 26
f 12 26 27
f 12 27 23
f 14 28 29
f 14 29 15
f 15 29 30
f 15 30 31
f 15 31 16
f 16 32 17
f 16 31 33
f 16 33 32
f 17 34 18
f 17 32 48
f 17 48 34
f 18 34 35
f 20 36 37
f 20 37 21
f 23 27 39
f 23 39 40
f 23 40 41
f 24 42 59
f 24 59 43
f 28 43 44
f 28 44 29
f 29 44 30
f 30 44 45
f 30 45 46
f 30 46 31
f 31 46 33
f 32 33 47
f 32 47 48
f 33 46 49
f 33 49 50
f 33 50 55
f 33 55 51
f 33 51 47
f 34 48 35
f 35 48 47
f 36 52 53
f 36 53 37
f 38 55 50
f 38 50 68
f 38 68 54
f 40 56 41
f 41 56 69
f 41 69 57
f 42 58 72
f 42 72 59
f 43 60 61
f 43 61 44
f 43 59 62
f 43 62 60
f 44 61 45
f 45 61 63
f 45 63 64
f 45 64 65
f 45 65 46
f 46 65 49
f 49 65 66
f 49 66 67
f 49 67 68
f 49 68 50
f 52 69 70
f 52 70 53
f 52 57 69
f 54 68 67
f 58 71 72
f 59 72 62
f 60 62 63
f 60 63 61
f 62 72 63
f 63 72 65
f 63 65 64
f 65 72 71
f 65 71 73
f 65 73 66

