# https://github.com/mikedh/trimesh
v 72.93325218 -3.42965796 46.71813738
v 69.42323297 -3.51403086 47.69372012
v 72.93325218 -3.51403086 47.69372012
v 72.93325218 -3.57211404 45.97193047
v 70.70178483 -3.57211404 45.97193047
v 56.62400457 -3.43026917 46.71813738
v 37.91532953 -3.51403086 47.69306791
v 45.11018389 -3.51403086 47.69339402
v 72.93325218 -3.68155518 47.85849256
v 72.93325218 -4.29601316 45.61856743
v 68.14125413 -4.29601316 45.61856743
v 54.06690180 -4.29601316 45.61921964
v 47.66728760 -4.29601316 45.61954575
v 41.27110038 -4.29601316 45.61987281
v 55.34888064 -3.57272620 45.97258364
v 37.91532953 -3.57333742 45.97356196
v 42.54965319 -3.43088134 46.71813738
v 37.91532953 -3.43149255 46.71813738
v 37.91532953 -3.91755613 48.08982695
v 61.74163946 -4.16517296 48.33356007
v 72.93325218 -4.16517296 48.33356007
v 72.93325218 -5.24612910 45.43487032
v 37.91532953 -5.57567398 45.37124524
v 37.91532953 -4.29601316 45.62019891
v 37.91532953 -3.48529535 46.43492441
v 37.91532953 -4.16517296 48.33290595
v 42.54965319 -4.16517296 48.33323205
v 48.94926644 -4.80469728 48.67060921
v 72.93325218 -4.80469728 48.67060921
v 72.93325218 -5.57567398 45.37124524
v 47.66728760 -9.67572561 45.37059302
v 37.91532953 -9.67572561 45.37124524
v 37.91532953 -4.80530945 48.67060921
v 38.71056778 -5.57567398 48.70388923
v 72.93325218 -5.57567398 48.70356312
v 42.54965319 -5.57567398 48.70388923
v 72.93325218 -8.13499655 45.37124524
v 48.94926644 -9.67572561 45.50893654
v 72.93325218 -9.20250127 45.72460924
v 72.93325218 -9.66655458 46.71813738
v 37.91532953 -9.67572561 48.70356312
v 37.91532953 -5.28281321 48.69116345
v 37.91532953 -5.57567398 48.70356312
v 43.82820410 -6.85533479 48.70388923
v 72.93325218 -8.13499655 48.70356312
v 52.78834899 -8.13499655 48.70388923
v 50.11127433 -9.67572561 45.78301376
v 72.93325218 -9.31071903 47.99748924
v 48.78473429 -9.67572561 48.67550271
v 49.33660272 -9.67572561 48.53422233
v 50.14555175 -9.67572561 48.08069025
v 50.21067959 -9.67572561 48.01837150
v 51.46180895 -9.67572561 46.71813738
v 47.66728760 -9.67572561 48.70356312
v 48.94926644 -8.13499655 48.70388923
v 72.93325218 -8.31841618 48.69508054
v 72.93325218 -8.96589006 48.49702713
v 48.59277964 -9.67572561 48.68365919
v 72.93325218 -8.84605452 48.67060921
f 1 2 3
f 1 3 9
f 1 9 21
f 1 21 29
f 1 29 35
f 1 35 45
f 1 45 56
f 1 56 59
f 1 59 57
f 1 57 48
f 1 48 40
f 1 40 39
f 1 39 37
f 1 37 30
f 1 30 22
f 1 22 10
f 1 10 4
f 1 4 5
f 1 5 6
f 1 6 7
f 1 7 8
f 1 8 2
f 2 9 3
f 2 8 9
f 4 10 11
f 4 11 5
f 5 11 12
f 5 12 13
f 5 13 14
f 5 14 15
f 5 15 16
f 5 16 17
f 5 17 6
f 6 17 7
f 7 17 18
f 7 18 25
f 7 25 16
f 7 16 24
f 7 24 23
f 7 23 32
f 7 32 41
f 7 41 43
f 7 43 42
f 7 42 33
f 7 33 26
f 7 26 19
f 7 19 8
f 8 19 9
f 9 20 21
f 9 19 20
f 10 22 11
f 11 22 23
f 11 23 12
f 12 23 13
f 13 23 14
f 14 23 24
f 14 24 16
f 14 16 15
f 16 25 17
f 17 25 18
f 19 26 27
f 19 27 20
f 20 27 28
f 20 28 29
f 20 29 21
f 22 30 23
f 23 31 32
f 23 30 31
f 26 33 27
f 27 33 28
f 28 33 34
f 28 34 36
f 28 36 29
f 29 36 35
f 30 37 31
f 31 38 47
f 31 47 53
f 31 53 52
f 31 52 51
f 31 51 50
f 31 50 49
f 31 49 58
f 31 58 54
f 31 54 41
f 31 41 32
f 31 37 39
f 31 39 40
f 31 40 38
f 33 42 34
f 34 42 43
f 34 43 41
f 34 41 44
f 34 44 55
f 34 55 46
f 34 46 36
f 35 36 46
f 35 46 45
f 38 40 47
f 40 48 49
f 40 49 50
f 40 50 51
f 40 51 52
f 40 52 53
f 40 53 47
f 41 54 46
f 41 46 55
f 41 55 44
f 45 46 54
f 45 54 56
f 48 57 49
f 49 57 59
f 49 59 58
f 54 58 59
f 54 59 56

