# https://github.com/mikedh/trimesh
v 72.93325313 -21.27324504 21.68708292
v 72.93325313 -21.27324504 44.82203619
v 72.93325313 -14.57153802 21.68708292
v 129.63300726 -21.27324504 21.68708292
v 72.93325313 -14.84685578 44.82203619
v 129.63300726 -21.27324504 44.82203619
v 72.93325313 -14.09816303 25.86070398
v 103.84474886 -14.09816303 22.18755526
v 103.97796430 -14.34468425 21.68708292
v 129.63300726 -17.09433572 21.68708292
v 129.63855297 -17.09433572 24.96166518
v 72.93325313 -14.72675516 44.41894001
v 79.66617483 -14.13538684 44.82203619
v 129.63855297 -17.09433572 26.24115341
v 129.63300726 -17.09433572 44.82203619
v 72.93325313 -14.09816303 38.13925908
v 103.97796430 -14.09816303 22.18981893
v 127.01310230 -14.56943072 21.68708292
v 129.52198612 -16.37935589 21.68708292
v 129.63300726 -14.09816303 28.80239400
v 72.93325313 -14.64879474 44.15624886
v 80.94282249 -14.12906495 44.82203619
v 129.63300726 -14.09816303 35.19756906
v 129.49423465 -15.81397502 44.82203619
v 100.26458816 -14.09816303 41.46366412
v 106.53680535 -14.09816303 22.33928058
v 128.28974996 -14.09816303 26.03507653
v 129.13345030 -14.09816303 26.47214071
v 128.28974996 -14.73096975 21.68708292
v 129.43317837 -15.81397502 21.68708292
v 129.47758988 -14.09816303 27.52290578
v 103.96686143 -14.09816303 41.82146774
v 120.61321920 -14.11221040 44.82203619
v 129.54419188 -14.09816303 36.04225773
v 129.15564843 -14.78294273 44.82203619
v 129.08349308 -15.03367664 21.68708292
v 128.73380016 -14.90023235 21.68708292
v 129.23891046 -15.37922743 21.68708292
v 104.10007687 -14.09816303 41.81920216
v 127.01310230 -14.13468504 44.82203619
v 129.12789696 -14.09816303 37.51649968
v 128.40075965 -14.09816303 37.90600715
v 128.28974996 -14.09816303 37.95129876
v 129.46092984 -14.09816303 36.47932143
v 128.50622363 -14.41210819 44.82203619
v 128.28974996 -14.30816224 44.82203619
v 129.25556287 -14.09816303 37.24248492
f 1 2 5
f 1 5 12
f 1 12 21
f 1 21 16
f 1 16 7
f 1 7 3
f 1 3 9
f 1 9 18
f 1 18 29
f 1 29 37
f 1 37 36
f 1 36 38
f 1 38 30
f 1 30 19
f 1 19 10
f 1 10 4
f 1 4 6
f 1 6 2
f 2 6 15
f 2 15 24
f 2 24 35
f 2 35 45
f 2 45 46
f 2 46 40
f 2 40 33
f 2 33 22
f 2 22 13
f 2 13 5
f 3 7 8
f 3 8 9
f 4 10 11
f 4 11 14
f 4 14 6
f 5 13 12
f 6 14 15
f 7 16 25
f 7 25 32
f 7 32 39
f 7 39 43
f 7 43 42
f 7 42 41
f 7 41 47
f 7 47 44
f 7 44 34
f 7 34 23
f 7 23 20
f 7 20 31
f 7 31 28
f 7 28 27
f 7 27 26
f 7 26 17
f 7 17 8
f 8 17 9
f 9 17 18
f 10 19 20
f 10 20 11
f 11 20 23
f 11 23 14
f 12 13 21
f 13 22 16
f 13 16 21
f 14 23 15
f 15 23 24
f 16 22 25
f 17 26 18
f 18 27 28
f 18 28 29
f 18 26 27
f 19 30 20
f 20 30 31
f 22 32 25
f 22 33 32
f 23 34 35
f 23 35 24
f 28 36 37
f 28 37 29
f 28 31 36
f 30 38 31
f 31 38 36
f 32 33 39
f 33 40 41
f 33 41 42
f 33 42 43
f 33 43 39
f 34 44 45
f 34 45 35
f 40 46 47
f 40 47 41
f 44 47 46
f 44 46 45

