# https://github.com/mikedh/trimesh
v 118.36488109 -21.27324694 22.58598679
v 118.36488109 -40.12990280 22.57859314
v 118.36488109 -21.27324694 15.97876292
v 114.27354566 -21.27324694 23.68102939
v 114.26909840 -21.27954023 23.68842304
v 114.26020390 -38.85656960 23.68842304
v 118.36488109 -41.40952928 22.48247946
v 114.25575665 -40.13619608 23.68842304
v 114.13568082 -41.41372481 23.68842304
v 118.36488109 -38.39087051 15.33964575
v 87.34187411 -21.27324694 15.29610768
v 113.94000931 -21.27324694 23.68842304
v 118.36488109 -42.11017759 22.17277844
v 113.79770485 -42.24023495 23.68842304
v 118.36488109 -40.12990280 15.29692962
v 87.34187411 -37.56855207 15.29610768
v 79.66616911 -21.27324694 15.29610768
v 78.45655635 -21.27324694 23.68842304
v 118.36488109 -42.33253643 22.07419989
v 112.93496447 -42.50035729 23.68842304
v 118.36488109 -40.36694596 15.30432327
v 72.93325122 -40.12990280 15.29692962
v 79.66616911 -37.56855207 15.29610768
v 79.15030493 -21.27324694 15.32075256
v 72.93325122 -21.27324694 22.58598679
v 72.93325122 -40.12990280 22.57859314
v 78.50102697 -40.12990280 23.68842304
v 118.36488109 -42.65978330 21.12127487
v 111.66309207 -42.56119236 23.68842304
v 118.36488109 -41.11374501 15.32978818
v 72.93325122 -41.11374501 15.32978818
v 72.93325122 -39.93481104 15.30514331
v 78.96352602 -21.27324694 15.32978818
v 72.93325122 -21.27324694 17.22167382
v 72.93325122 -40.45924744 22.55394921
v 78.91016089 -42.13954624 23.68842304
v 78.65222976 -41.40952928 23.68842304
v 118.36488109 -42.69334748 20.15027668
v 109.10155826 -42.57797444 23.68842304
v 112.93496447 -42.67236987 21.12127487
v 118.36488109 -41.75355825 15.41440232
v 72.93325122 -41.58993290 15.39222136
v 72.93325122 -39.37681047 15.32978818
v 72.93325122 -41.40952928 22.48247946
v 79.66616911 -42.41015358 23.68842304
v 72.93325122 -42.33253643 22.07419989
v 118.36488109 -42.70173852 19.84139761
v 83.50402066 -42.57797444 23.68842304
v 80.94248876 -42.67236987 21.12127487
v 118.36488109 -42.37658940 16.05434048
v 72.93325122 -41.75355825 15.41440232
v 80.94248876 -42.56748564 23.68842304
v 72.93325122 -42.65978330 21.12127487
v 118.36488109 -42.70173852 17.28246407
v 72.93325122 -42.70173852 19.84139761
v 72.93325122 -42.37658940 16.05434048
v 72.93325122 -42.70173852 17.28246407
f 1 2 7
f 1 7 13
f 1 13 19
f 1 19 28
f 1 28 38
f 1 38 47
f 1 47 54
f 1 54 50
f 1 50 41
f 1 41 30
f 1 30 21
f 1 21 15
f 1 15 10
f 1 10 3
f 1 3 11
f 1 11 17
f 1 17 24
f 1 24 33
f 1 33 34
f 1 34 25
f 1 25 18
f 1 18 12
f 1 12 4
f 1 4 5
f 1 5 6
f 1 6 2
f 2 6 8
f 2 8 9
f 2 9 7
f 3 10 11
f 4 12 5
f 5 12 18
f 5 18 27
f 5 27 37
f 5 37 36
f 5 36 45
f 5 45 52
f 5 52 48
f 5 48 39
f 5 39 29
f 5 29 20
f 5 20 14
f 5 14 9
f 5 9 8
f 5 8 6
f 7 9 14
f 7 14 13
f 10 15 11
f 11 16 23
f 11 23 17
f 11 15 16
f 13 14 19
f 14 20 19
f 15 21 22
f 15 22 23
f 15 23 16
f 17 23 22
f 17 22 24
f 18 25 26
f 18 26 27
f 19 20 28
f 20 29 28
f 21 30 31
f 21 31 22
f 22 31 42
f 22 42 51
f 22 51 56
f 22 56 57
f 22 57 55
f 22 55 53
f 22 53 46
f 22 46 44
f 22 44 35
f 22 35 26
f 22 26 25
f 22 25 34
f 22 34 43
f 22 43 32
f 22 32 33
f 22 33 24
f 26 35 36
f 26 36 37
f 26 37 27
f 28 29 39
f 28 39 40
f 28 40 38
f 30 41 42
f 30 42 31
f 32 43 33
f 33 43 34
f 35 44 36
f 36 44 46
f 36 46 45
f 38 40 47
f 39 48 49
f 39 49 40
f 40 49 55
f 40 55 47
f 41 50 56
f 41 56 51
f 41 51 42
f 45 46 52
f 46 53 52
f 47 55 57
f 47 57 54
f 48 52 53
f 48 53 49
f 49 53 55
f 50 54 57
f 50 57 56

