# https://github.com/mikedh/trimesh
v 25.91039465 -27.33555882 16.70388487
v 27.19086391 -28.61545597 16.70286841
v 27.19086391 -27.33555882 16.69575128
v 23.35845742 -26.05395295 16.70286841
v 23.35845742 -35.01153190 16.70286841
v 24.63105055 -36.29142905 16.70286841
v 27.19086391 -36.29142905 16.70286841
v 27.19086391 -26.63152938 16.66321501
v 24.37968543 -25.36017584 16.66016563
v 23.35845742 -25.20638329 16.66829922
v 23.35845742 -36.29826393 16.67744927
v 23.76815007 -36.98520807 16.66016563
v 27.19011253 -37.57133001 16.70185195
v 27.19086391 -37.57133001 16.70185195
v 27.19086391 -22.22109258 11.60097538
v 27.19011253 -22.22109258 11.62639357
v 25.23320701 -25.45245061 16.63169711
v 23.36145912 -24.53311083 16.08266930
v 23.35845742 -24.72108163 16.24636137
v 23.35845742 -36.31877240 16.67643281
v 23.35845742 -37.37139817 16.08978643
v 25.54760030 -37.94555906 16.56764485
v 26.40074810 -38.25314416 16.65813271
v 27.19011253 -38.33345788 16.66931568
v 27.19086391 -38.33345788 16.66931568
v 27.19086391 -23.49586356 6.31810711
v 27.19011253 -22.22109258 6.31810711
v 23.35845742 -22.22109258 11.68231319
v 23.35845742 -24.53481956 16.08368576
v 23.35845742 -37.47905143 15.96879713
v 25.94866162 -38.58977753 16.08470222
v 27.19086391 -39.18786053 15.96981359
v 27.19086391 -39.06482877 16.09181935
v 27.19086391 -37.57303873 6.31810711
v 23.35845742 -22.22109258 6.37199334
v 27.19011253 -37.57133001 6.31810711
v 23.35845742 -37.93530292 14.71925077
v 23.98275098 -38.21554848 15.36791649
v 24.63105055 -38.36250615 15.63226293
v 27.19086391 -39.67658154 14.71925077
v 27.19086391 -38.50433765 6.35979248
v 23.35845742 -36.98179062 6.39029392
v 23.35845742 -36.29826393 6.37199334
v 23.35845742 -37.93530292 8.30070782
v 27.19086391 -39.67829026 8.32104275
v 25.91039465 -39.09558576 14.71925077
v 26.66599658 -39.43905782 14.71925077
v 27.19086391 -39.21691260 6.86916833
v 25.25571407 -38.21725720 6.39741105
v 23.35845742 -37.52519072 7.05116098
v 23.98275098 -38.21554848 7.66525894
v 23.35845742 -37.57474745 7.15181630
v 27.19086391 -39.57575935 7.64695789
v 27.19086391 -39.29380888 7.00337542
v 24.74960453 -38.33516660 7.15893295
f 1 2 3
f 1 3 4
f 1 4 5
f 1 5 6
f 1 6 7
f 1 7 2
f 2 7 14
f 2 14 25
f 2 25 33
f 2 33 32
f 2 32 40
f 2 40 45
f 2 45 53
f 2 53 54
f 2 54 48
f 2 48 41
f 2 41 34
f 2 34 26
f 2 26 15
f 2 15 8
f 2 8 3
f 3 8 9
f 3 9 4
f 4 9 10
f 4 10 19
f 4 19 29
f 4 29 28
f 4 28 35
f 4 35 43
f 4 43 42
f 4 42 50
f 4 50 52
f 4 52 44
f 4 44 37
f 4 37 30
f 4 30 21
f 4 21 20
f 4 20 11
f 4 11 5
f 5 11 6
f 6 11 12
f 6 12 13
f 6 13 14
f 6 14 7
f 8 15 16
f 8 16 17
f 8 17 9
f 9 17 10
f 10 17 18
f 10 18 19
f 11 20 12
f 12 20 21
f 12 21 22
f 12 22 23
f 12 23 13
f 13 23 24
f 13 24 25
f 13 25 14
f 15 26 27
f 15 27 35
f 15 35 28
f 15 28 16
f 16 28 18
f 16 18 17
f 18 29 19
f 18 28 29
f 21 30 31
f 21 31 22
f 22 31 23
f 23 31 32
f 23 32 33
f 23 33 24
f 24 33 25
f 26 34 36
f 26 36 27
f 27 36 43
f 27 43 35
f 30 37 38
f 30 38 39
f 30 39 31
f 31 39 32
f 32 39 40
f 34 41 42
f 34 42 43
f 34 43 36
f 37 44 45
f 37 45 46
f 37 46 38
f 38 46 47
f 38 47 40
f 38 40 39
f 40 47 45
f 41 48 49
f 41 49 42
f 42 49 50
f 44 51 45
f 44 52 51
f 45 51 53
f 45 47 46
f 48 54 49
f 49 54 53
f 49 53 55
f 49 55 51
f 49 51 50
f 50 51 52
f 51 55 53

