# https://github.com/mikedh/trimesh
v 19.03674444 -35.97010790 44.43839197
v 19.76116229 -36.30036792 44.43839197
v 19.03674444 -35.97010790 46.71768540
v 19.03674444 -22.20042482 44.43839197
v 21.28933910 -36.99457801 46.71768540
v 24.11954267 -38.28190899 44.43839197
v 19.03674444 -35.81003730 47.65253440
v 23.98088450 -38.21450603 47.36819723
v 21.33679427 -36.97267357 47.46088870
v 19.03674444 -22.20042482 48.70095046
v 21.24188394 -22.20042482 44.43839197
v 25.91019896 -39.09575629 45.43837549
v 23.97643724 -38.21619187 46.71768540
v 26.61088922 -39.41421546 44.43839197
v 24.63041609 -38.36110137 47.62915295
v 22.07159412 -37.13948751 47.72601992
v 19.51202839 -35.91787746 47.80785548
v 20.23125523 -35.57077051 48.62871883
v 19.03674444 -35.25230753 48.27089614
v 26.61088922 -39.41253343 46.71768540
v 19.51202839 -22.21390388 48.69969943
v 19.51870309 -22.20042482 48.69928178
v 19.03674444 -23.49280569 48.70345633
v 19.51202839 -23.49280569 48.70345633
v 25.91019896 -27.33288277 48.70345633
v 26.61088922 -25.13735102 44.43839197
v 20.89561609 -22.20042482 46.71768540
v 26.61088922 -38.85480367 48.06463666
v 25.95023949 -38.59026077 48.08008572
v 21.08469300 -35.71567620 48.65961503
v 19.03674444 -34.59516297 48.66671309
v 19.51202839 -35.32813205 48.44792808
v 26.40401948 -38.25494705 48.65752871
v 26.61088922 -27.33288277 48.69928178
v 20.20678771 -22.20042482 48.66629545
v 26.61088922 -26.50387248 48.66587971
v 20.79181126 -24.77339332 48.70387397
v 19.03674444 -32.45017963 48.70345633
v 26.61088922 -28.61347041 48.70345633
v 20.57604321 -22.20042482 47.99741391
v 26.61088922 -25.59229622 46.71768540
v 26.61088922 -38.27516565 48.66086797
v 23.77327483 -36.98615645 48.65961503
v 19.03674444 -33.73076727 48.69969943
v 26.61088922 -38.07465404 48.66921896
v 26.61088922 -37.55399361 48.69009550
v 24.63041609 -36.29025671 48.70345633
v 25.23026890 -25.45412816 48.62997177
v 26.61088922 -25.95962178 48.05628567
v 19.51202839 -33.73076727 48.70345633
v 26.61088922 -36.29025671 48.70345633
v 26.61088922 -25.76921947 47.38448062
f 1 2 3
f 1 3 7
f 1 7 19
f 1 19 31
f 1 31 44
f 1 44 38
f 1 38 23
f 1 23 10
f 1 10 4
f 1 4 11
f 1 11 26
f 1 26 14
f 1 14 6
f 1 6 2
f 2 5 3
f 2 6 5
f 3 5 8
f 3 8 9
f 3 9 7
f 4 10 22
f 4 22 35
f 4 35 40
f 4 40 27
f 4 27 11
f 5 6 12
f 5 12 13
f 5 13 8
f 6 14 12
f 7 9 15
f 7 15 16
f 7 16 17
f 7 17 18
f 7 18 19
f 8 13 20
f 8 20 15
f 8 15 9
f 10 21 22
f 10 23 24
f 10 24 25
f 10 25 21
f 11 27 26
f 12 14 20
f 12 20 13
f 14 26 41
f 14 41 52
f 14 52 49
f 14 49 36
f 14 36 34
f 14 34 39
f 14 39 51
f 14 51 46
f 14 46 45
f 14 45 42
f 14 42 28
f 14 28 20
f 15 20 28
f 15 28 29
f 15 29 16
f 16 29 18
f 16 18 17
f 18 30 31
f 18 31 32
f 18 32 19
f 18 29 33
f 18 33 30
f 19 32 31
f 21 25 34
f 21 34 22
f 22 34 36
f 22 36 35
f 23 37 24
f 23 38 37
f 24 37 25
f 25 39 34
f 25 37 39
f 26 27 40
f 26 40 41
f 28 42 33
f 28 33 29
f 30 33 43
f 30 43 31
f 31 43 45
f 31 45 46
f 31 46 47
f 31 47 44
f 33 42 43
f 35 36 48
f 35 48 49
f 35 49 40
f 36 49 48
f 37 38 50
f 37 50 47
f 37 47 51
f 37 51 39
f 38 44 50
f 40 49 52
f 40 52 41
f 42 45 43
f 44 47 50
f 46 51 47

