# https://github.com/mikedh/trimesh
v 38.57853471 -3.37280578 32.34019996
v 38.57853471 -3.37280578 26.16154005
v 37.91539437 -3.37280578 32.34019996
v 38.57853471 -19.99391224 32.34019996
v 38.57853471 -3.39206704 24.96161608
v 37.91539437 -3.39206704 24.96161608
v 37.91539437 -3.37980944 25.75525288
v 37.91539437 -3.37280578 26.24159203
v 37.91539437 -20.77488762 32.34019996
v 38.28436189 -21.25993379 23.54649808
v 38.57853471 -20.49646708 23.54649808
v 38.57853471 -3.40082233 24.90996921
v 37.91539437 -3.53390333 24.13526994
v 37.91539437 -21.25993379 24.27815892
v 37.91539437 -21.25993379 23.54649808
v 38.57853471 -14.56911415 23.54649808
v 38.57853471 -3.53390333 24.13526994
v 38.57853471 -4.21856956 23.70574197
v 37.91539437 -4.29736717 23.65753828
v 37.91539437 -14.56911415 23.54649808
v 38.57853471 -4.29736717 23.65753828
f 1 2 8
f 1 8 3
f 1 3 9
f 1 9 4
f 1 4 11
f 1 11 16
f 1 16 21
f 1 21 18
f 1 18 17
f 1 17 12
f 1 12 5
f 1 5 2
f 2 5 6
f 2 6 7
f 2 7 8
f 3 8 7
f 3 7 6
f 3 6 13
f 3 13 19
f 3 19 20
f 3 20 15
f 3 15 14
f 3 14 9
f 4 9 10
f 4 10 11
f 5 12 6
f 6 12 13
f 9 14 10
f 10 14 15
f 10 15 20
f 10 20 16
f 10 16 11
f 12 17 13
f 13 17 18
f 13 18 19
f 16 20 19
f 16 19 21
f 18 21 19

