# https://github.com/mikedh/trimesh
v 37.91532953 -38.85047465 40.05813384
v 37.91532953 -40.12985322 40.06067309
v 37.91532953 -37.57109990 40.05982635
v 72.93325218 -40.12985322 41.42151629
v 37.91532953 -40.20866800 40.07929071
v 72.93325218 -41.40983823 41.51460919
v 37.91532953 -36.46279945 40.06151887
v 63.02361877 -36.46279945 41.44605914
v 72.93325218 -38.91157289 41.83027738
v 37.91532953 -41.48743249 40.39326735
v 72.93325218 -42.33301700 41.92336934
v 37.91532953 -36.46279945 48.70304440
v 63.20186217 -36.46279945 41.49768312
v 72.93325218 -38.75760869 42.10024585
v 64.16163305 -36.46279945 41.85058848
v 37.91532953 -41.66094783 40.57352794
v 72.93325218 -42.65988628 42.87883742
v 37.91532953 -42.41061127 41.59585356
v 37.91532953 -42.06907673 41.11261814
v 37.91532953 -40.12985322 48.70304440
v 46.38873479 -40.12985322 48.70389114
v 47.66728760 -36.46279945 48.70304440
v 72.93325218 -38.31404288 42.87883742
v 64.66894027 -36.46279945 42.87883742
v 72.93325218 -42.69226808 43.82838123
v 37.91532953 -42.69165783 42.87883742
v 37.91532953 -42.51752842 41.95045143
v 37.91532953 -40.74082415 48.68273426
v 37.91532953 -41.11535075 48.67003900
v 72.93325218 -40.12985322 48.70389114
v 48.35626473 -36.46279945 48.67511749
v 72.93325218 -39.37835519 48.67003900
v 72.93325218 -38.29632633 44.15843625
v 64.71350148 -36.46279945 44.15843625
v 72.93325218 -42.70326416 44.15843625
v 37.91532953 -42.70082313 43.36545786
v 37.91532953 -41.51186950 48.61841501
v 72.93325218 -41.27970077 48.64888213
v 57.90255643 -41.11535075 48.67003900
v 71.98033669 -41.11473667 48.67003900
v 72.93325218 -41.11412642 48.67003900
v 48.46252585 -36.46279945 48.67003900
v 72.93325218 -38.93478938 48.17072424
v 72.93325218 -38.29632633 46.71763487
v 64.70321768 -36.46279945 44.41571041
v 72.93325218 -42.70387442 46.71763487
v 38.71056778 -42.70326416 44.15843625
v 37.91532953 -42.70204365 44.15843625
v 37.91532953 -41.75564838 48.58625634
v 41.27110038 -41.75564838 48.58625634
v 63.02361877 -41.75503812 48.58625634
v 72.93325218 -41.75442787 48.58625634
v 72.93325218 -38.78082518 47.99723370
v 63.02361877 -36.46279945 46.69055373
v 64.63809079 -36.46279945 45.43803604
v 64.58324674 -36.46279945 45.61406487
v 64.13421054 -36.46279945 46.41550772
v 72.93325218 -42.37639488 47.94645644
v 37.91532953 -42.70387442 46.71763487
v 37.91532953 -42.70326416 45.43803604
v 37.91532953 -42.37639488 47.94645644
f 1 2 5
f 1 5 10
f 1 10 16
f 1 16 19
f 1 19 18
f 1 18 27
f 1 27 26
f 1 26 36
f 1 36 48
f 1 48 60
f 1 60 59
f 1 59 61
f 1 61 49
f 1 49 37
f 1 37 29
f 1 29 28
f 1 28 20
f 1 20 12
f 1 12 7
f 1 7 3
f 1 3 4
f 1 4 2
f 2 4 6
f 2 6 5
f 3 7 4
f 4 8 9
f 4 9 14
f 4 14 23
f 4 23 33
f 4 33 44
f 4 44 53
f 4 53 43
f 4 43 32
f 4 32 30
f 4 30 41
f 4 41 38
f 4 38 52
f 4 52 58
f 4 58 46
f 4 46 35
f 4 35 25
f 4 25 17
f 4 17 11
f 4 11 6
f 4 7 8
f 5 6 10
f 6 11 10
f 7 12 22
f 7 22 31
f 7 31 42
f 7 42 54
f 7 54 57
f 7 57 56
f 7 56 55
f 7 55 45
f 7 45 34
f 7 34 24
f 7 24 15
f 7 15 13
f 7 13 8
f 8 13 9
f 9 13 15
f 9 15 14
f 10 11 16
f 11 17 18
f 11 18 19
f 11 19 16
f 12 20 21
f 12 21 30
f 12 30 22
f 14 15 23
f 15 24 23
f 17 25 26
f 17 26 27
f 17 27 18
f 20 28 21
f 21 28 29
f 21 29 39
f 21 39 30
f 22 30 32
f 22 32 31
f 23 24 33
f 24 34 33
f 25 35 26
f 26 35 36
f 29 37 38
f 29 38 39
f 30 39 40
f 30 40 41
f 31 32 42
f 32 43 42
f 33 34 44
f 34 45 44
f 35 46 59
f 35 59 47
f 35 47 36
f 36 47 48
f 37 49 50
f 37 50 51
f 37 51 38
f 38 51 52
f 38 41 40
f 38 40 39
f 42 43 53
f 42 53 54
f 44 45 55
f 44 55 56
f 44 56 57
f 44 57 53
f 46 58 61
f 46 61 59
f 47 59 60
f 47 60 48
f 49 61 58
f 49 58 50
f 50 58 51
f 51 58 52
f 53 57 54

