v 128.934662 -3.929671 24.194076
v 128.934662 -3.929671 17.642281
v 34.000000 -3.929671 24.194076
v 128.934662 -7.041920 25.898668
v 128.934662 -13.222583 18.077600
v 34.000000 -3.929671 17.642281
v 34.000000 -7.041920 25.898668
v 128.934662 -7.069317 25.911711
v 128.934662 -13.320115 18.084936
v 34.000000 -13.222583 18.077600
v 34.000000 -7.069317 25.911711
v 128.934662 -7.095617 25.923939
v 128.934662 -13.417647 18.097164
v 34.000000 -13.320115 18.084936
v 34.000000 -7.095617 25.923939
v 128.934662 -7.123014 25.934536
v 128.934662 -13.514082 18.114284
v 34.000000 -13.417647 18.097164
v 34.000000 -7.123014 25.934536
v 128.934662 -7.179999 25.951656
v 128.934662 -13.609423 18.135480
v 34.000000 -13.514082 18.114284
v 34.000000 -7.179999 25.951656
v 128.934662 -7.208491 25.958177
v 128.934662 -13.704762 18.161565
v 34.000000 -13.609423 18.135480
v 34.000000 -7.208491 25.958177
v 128.934662 -7.236983 25.963069
v 128.934662 -13.797911 18.192543
v 34.000000 -13.704762 18.161565
v 34.000000 -7.236983 25.963069
v 128.934662 -7.266572 25.967145
v 128.934662 -13.888867 18.227598
v 34.000000 -13.797911 18.192543
v 34.000000 -7.266572 25.967145
v 128.934662 -7.296160 25.969590
v 128.934662 -13.979824 18.267542
v 34.000000 -13.888867 18.227598
v 34.000000 -7.296160 25.969590
v 128.934662 -7.325748 25.970405
v 128.934662 -14.066397 18.311562
v 34.000000 -13.979824 18.267542
v 34.000000 -7.325748 25.970405
v 128.934662 -7.354241 25.969590
v 128.934662 -14.152970 18.359660
v 34.000000 -14.066397 18.311562
v 34.000000 -7.354241 25.969590
v 128.934662 -7.383829 25.967145
v 128.934662 -14.235160 18.412648
v 34.000000 -14.152970 18.359660
v 34.000000 -7.383829 25.967145
v 128.934662 -7.413417 25.963069
v 128.934662 -14.316254 18.468898
v 34.000000 -14.235160 18.412648
v 34.000000 -7.413417 25.963069
v 128.934662 -7.441910 25.958177
v 128.934662 -14.392964 18.529222
v 34.000000 -14.316254 18.468898
v 34.000000 -7.441910 25.958177
v 128.934662 -7.470402 25.951656
v 128.934662 -14.467482 18.593624
v 34.000000 -14.392964 18.529222
v 34.000000 -7.470402 25.951656
v 128.934662 -7.527387 25.934536
v 128.934662 -14.538714 18.661286
v 34.000000 -14.467482 18.593624
v 34.000000 -7.527387 25.934536
v 128.934662 -7.554784 25.923939
v 128.934662 -14.605562 18.732209
v 34.000000 -14.538714 18.661286
v 34.000000 -7.554784 25.923939
v 128.934662 -7.582180 25.911711
v 128.934662 -14.670218 18.806392
v 34.000000 -14.605562 18.732209
v 34.000000 -7.582180 25.911711
v 128.934662 -7.608481 25.898668
v 128.934662 -14.730490 18.884651
v 34.000000 -14.670218 18.806392
v 34.000000 -7.608481 25.898668
v 128.934662 -7.633686 25.883994
v 128.934662 -14.787474 18.964542
v 34.000000 -14.730490 18.884651
v 34.000000 -7.633686 25.883994
v 128.934662 -7.658891 25.868505
v 128.934662 -14.838980 19.047692
v 34.000000 -14.787474 18.964542
v 34.000000 -7.658891 25.868505
v 128.934662 -15.125000 21.000106
v 128.934662 -14.888294 19.132473
v 34.000000 -14.838980 19.047692
v 34.000000 -15.125000 21.000106
v 128.934662 -15.125000 20.075665
v 128.934662 -14.932128 19.220516
v 34.000000 -14.888294 19.132473
v 34.000000 -15.125000 20.075665
v 128.934662 -15.121712 19.977025
v 128.934662 -14.971579 19.310188
v 34.000000 -14.932128 19.220516
v 34.000000 -15.121712 19.977025
v 128.934662 -15.115137 19.879200
v 128.934662 -15.006647 19.402307
v 34.000000 -14.971579 19.310188
v 34.000000 -15.115137 19.879200
v 128.934662 -15.103082 19.782192
v 128.934662 -15.038427 19.495240
v 34.000000 -15.006647 19.402307
v 34.000000 -15.103082 19.782192
v 128.934662 -15.085549 19.685182
v 128.934662 -15.063632 19.589802
v 34.000000 -15.038427 19.495240
v 34.000000 -15.085549 19.685182
v 34.000000 -15.063632 19.589802
f 1 2 6
f 1 6 3
f 1 3 7
f 1 7 4
f 1 4 8
f 1 8 12
f 1 12 16
f 1 16 20
f 1 20 24
f 1 24 28
f 1 28 32
f 1 32 36
f 1 36 40
f 1 40 44
f 1 44 48
f 1 48 52
f 1 52 56
f 1 56 60
f 1 60 64
f 1 64 68
f 1 68 72
f 1 72 76
f 1 76 80
f 1 80 84
f 1 84 88
f 1 88 92
f 1 92 96
f 1 96 100
f 1 100 104
f 1 104 108
f 1 108 109
f 1 109 105
f 1 105 101
f 1 101 97
f 1 97 93
f 1 93 89
f 1 89 85
f 1 85 81
f 1 81 77
f 1 77 73
f 1 73 69
f 1 69 65
f 1 65 61
f 1 61 57
f 1 57 53
f 1 53 49
f 1 49 45
f 1 45 41
f 1 41 37
f 1 37 33
f 1 33 29
f 1 29 25
f 1 25 21
f 1 21 17
f 1 17 13
f 1 13 9
f 1 9 5
f 1 5 2
f 2 5 10
f 2 10 6
f 3 6 10
f 3 10 14
f 3 14 18
f 3 18 22
f 3 22 26
f 3 26 30
f 3 30 34
f 3 34 38
f 3 38 42
f 3 42 46
f 3 46 50
f 3 50 54
f 3 54 58
f 3 58 62
f 3 62 66
f 3 66 70
f 3 70 74
f 3 74 78
f 3 78 82
f 3 82 86
f 3 86 90
f 3 90 94
f 3 94 98
f 3 98 102
f 3 102 106
f 3 106 110
f 3 110 112
f 3 112 111
f 3 111 107
f 3 107 103
f 3 103 99
f 3 99 95
f 3 95 91
f 3 91 87
f 3 87 83
f 3 83 79
f 3 79 75
f 3 75 71
f 3 71 67
f 3 67 63
f 3 63 59
f 3 59 55
f 3 55 51
f 3 51 47
f 3 47 43
f 3 43 39
f 3 39 35
f 3 35 31
f 3 31 27
f 3 27 23
f 3 23 19
f 3 19 15
f 3 15 11
f 3 11 7
f 4 7 11
f 4 11 8
f 5 9 14
f 5 14 10
f 8 11 15
f 8 15 12
f 9 13 18
f 9 18 14
f 12 15 19
f 12 19 16
f 13 17 22
f 13 22 18
f 16 19 23
f 16 23 20
f 17 21 26
f 17 26 22
f 20 23 27
f 20 27 24
f 21 25 30
f 21 30 26
f 24 27 31
f 24 31 28
f 25 29 34
f 25 34 30
f 28 31 35
f 28 35 32
f 29 33 38
f 29 38 34
f 32 35 39
f 32 39 36
f 33 37 42
f 33 42 38
f 36 39 43
f 36 43 40
f 37 41 46
f 37 46 42
f 40 43 47
f 40 47 44
f 41 45 50
f 41 50 46
f 44 47 51
f 44 51 48
f 45 49 54
f 45 54 50
f 48 51 55
f 48 55 52
f 49 53 58
f 49 58 54
f 52 55 59
f 52 59 56
f 53 57 62
f 53 62 58
f 56 59 63
f 56 63 60
f 57 61 66
f 57 66 62
f 60 63 67
f 60 67 64
f 61 65 70
f 61 70 66
f 64 67 71
f 64 71 68
f 65 69 74
f 65 74 70
f 68 71 75
f 68 75 72
f 69 73 78
f 69 78 74
f 72 75 79
f 72 79 76
f 73 77 82
f 73 82 78
f 76 79 83
f 76 83 80
f 77 81 86
f 77 86 82
f 80 83 87
f 80 87 84
f 81 85 90
f 81 90 86
f 84 87 91
f 84 91 88
f 85 89 94
f 85 94 90
f 88 91 95
f 88 95 92
f 89 93 98
f 89 98 94
f 92 95 99
f 92 99 96
f 93 97 102
f 93 102 98
f 96 99 103
f 96 103 100
f 97 101 106
f 97 106 102
f 100 103 107
f 100 107 104
f 101 105 110
f 101 110 106
f 104 107 111
f 104 111 108
f 105 109 112
f 105 112 110
f 108 111 112
f 108 112 109
