# https://github.com/mikedh/trimesh
v 95.00255152 -4.29590732 23.65769657
v 95.00255152 -5.55241744 23.84225566
v 95.00255152 -3.53325970 24.13461153
v 95.02289599 -4.29590732 23.65769657
v 103.98104229 -5.57558148 23.81939007
v 101.42108753 -5.57558148 23.82265685
v 95.00255152 -5.57339600 23.84552245
v 95.00255152 -3.39121936 24.96268117
v 107.81928097 -3.53325970 24.13461153
v 127.01386131 -3.53369641 24.13461153
v 127.01386131 -4.29590732 23.65932901
v 107.93795321 -7.83598935 24.73402285
v 127.01386131 -5.57339600 23.84552245
v 103.98104229 -7.83598935 24.74708904
v 95.00255152 -6.21279636 24.32407128
v 101.37700785 -7.83598935 24.79282070
v 100.01056839 -7.83598935 24.81732017
v 98.92216616 -7.83598935 24.85161856
v 98.55258266 -7.83598935 24.88428403
v 95.00255152 -3.39078264 24.98228045
v 127.01386131 -3.39121936 24.96268117
v 127.96324684 -3.57434243 24.19667617
v 128.34978407 -4.21243074 23.94841762
v 128.29214141 -5.44271885 23.94841762
v 127.01386131 -6.21279636 24.32407128
v 127.01386131 -7.83598935 25.78585110
v 96.16215939 -7.83598935 25.42653089
v 95.00255152 -7.83598935 25.77768462
v 95.00255152 -3.37155189 26.24153434
v 127.01386131 -3.37155189 26.24153434
v 128.15990620 -3.52364432 24.96268117
v 128.80074543 -3.73211598 24.96268117
v 129.08556033 -4.58392130 24.13951171
v 129.08556033 -5.18660895 24.13951171
v 128.29214141 -6.08211921 24.45636657
v 128.17685992 -7.83598935 25.93611228
v 128.00054503 -7.83598935 25.90834651
v 95.00255152 -7.83598935 38.22159524
v 95.00255152 -3.37111518 27.52202091
v 127.01386131 -3.37155189 37.75774552
v 128.24128406 -3.51359223 36.47889234
v 128.23789332 -3.51359223 35.19840602
v 128.23111183 -3.51359223 32.63906651
v 128.21076736 -3.51359223 27.52202091
v 128.20398587 -3.51359223 26.24153434
v 96.30117800 -3.37111518 27.52202091
v 128.84482130 -3.69540421 26.24153434
v 129.28221587 -4.33524129 26.24153434
v 129.22119010 -4.37195306 24.96268117
v 129.57381226 -5.57558148 26.24153434
v 128.88890097 -7.83598935 26.32319826
v 129.25508992 -5.59830786 24.93981557
v 129.40766960 -7.83598935 27.21006575
v 129.13981224 -7.83598935 26.54205670
v 95.89090556 -7.83598935 38.46168635
v 95.00255152 -6.21279636 39.67520858
v 95.00255152 -3.37111518 27.54162019
v 127.01386131 -3.39034497 39.03823208
v 128.24128406 -3.51359223 37.75774552
v 95.00255152 -3.37155189 37.77897819
v 128.88211948 -3.67835991 37.75774552
v 128.87872874 -3.68010772 35.19840602
v 128.87533800 -3.68185554 33.91955296
v 128.86516576 -3.68535212 31.36021346
v 128.86177502 -3.68797432 30.08136029
v 128.85160278 -3.69278201 27.52202091
v 129.28221587 -4.32999689 28.80087384
v 129.63484566 -5.57558148 27.52202091
v 129.48566053 -7.83598935 27.52202091
v 129.62467724 -7.83598935 28.50198488
v 96.36220949 -7.83598935 38.57928206
v 98.93233839 -7.83598935 39.14766130
v 95.00255152 -5.57339600 40.15539176
v 127.01386131 -3.53282298 39.86630172
v 127.92256172 -3.57390477 39.80260369
v 128.14973396 -3.52320761 39.03823208
v 114.21408367 -3.39034497 39.03823208
v 95.00255152 -3.39078264 39.03823208
v 128.79056939 -3.75003467 39.03823208
v 129.21440099 -4.39030942 39.03823208
v 129.28221587 -4.31819603 37.75774552
v 129.28221587 -4.31907042 36.47889234
v 129.28221587 -4.32038152 35.19840602
v 129.28221587 -4.32169262 33.91955296
v 129.28221587 -4.32344139 32.63906651
v 129.63484566 -5.57558148 33.91955296
v 129.63824022 -6.85525564 28.80087384
v 129.63484566 -7.83598935 28.80087384
v 100.13941287 -7.83598935 39.17542707
v 95.00255152 -4.31644822 40.33995085
v 101.42108753 -7.83598935 39.20482576
v 103.98104229 -7.83598935 39.25219081
v 107.94812544 -7.83598935 39.27179010
v 101.42108753 -5.57558148 40.17825735
v 127.01386131 -4.29590732 40.34158329
v 119.33399320 -3.53282298 39.86630172
v 111.65751965 -4.29590732 40.34321763
v 128.32604885 -4.23472041 40.06882670
v 129.07538428 -4.62019636 39.88753392
v 95.00255152 -3.53325970 39.86466833
v 109.10095563 -3.53282298 39.86466833
v 129.57381226 -5.57558148 37.75774552
v 129.63145873 -5.57558148 36.47889234
v 129.63484566 -6.85525564 35.19840602
v 129.63484566 -7.83598935 35.19840602
v 95.00255152 -4.29590732 40.34158329
v 103.98104229 -5.57558148 40.18152413
v 110.37923574 -4.29590732 40.34321763
v 127.33258365 -7.83598935 38.20852905
v 127.01386131 -6.21279636 39.67520858
v 127.01386131 -5.57339600 40.15539176
v 128.29214141 -5.44184446 40.07372783
v 95.00255152 -3.54549727 39.87283481
v 129.07538428 -5.18573552 39.88753392
v 129.25170299 -5.59743348 39.06273107
v 129.46870300 -7.83598935 36.47889234
v 128.00393577 -7.83598935 38.08603364
v 128.29214141 -6.08124483 39.54781299
v 128.26501546 -7.83598935 37.99783663
v 129.12963619 -7.83598935 37.44905667
f 1 2 7
f 1 7 15
f 1 15 28
f 1 28 38
f 1 38 56
f 1 56 73
f 1 73 90
f 1 90 106
f 1 106 113
f 1 113 100
f 1 100 78
f 1 78 60
f 1 60 57
f 1 57 39
f 1 39 29
f 1 29 20
f 1 20 8
f 1 8 3
f 1 3 9
f 1 9 4
f 1 4 5
f 1 5 6
f 1 6 2
f 2 6 7
f 3 8 21
f 3 21 9
f 4 9 10
f 4 10 11
f 4 11 5
f 5 12 6
f 5 11 13
f 5 13 12
f 6 12 14
f 6 14 7
f 7 14 16
f 7 16 17
f 7 17 18
f 7 18 19
f 7 19 15
f 8 20 21
f 9 21 10
f 10 21 22
f 10 22 11
f 11 22 23
f 11 23 24
f 11 24 13
f 12 13 25
f 12 25 26
f 12 26 37
f 12 37 36
f 12 36 51
f 12 51 54
f 12 54 53
f 12 53 69
f 12 69 70
f 12 70 88
f 12 88 105
f 12 105 116
f 12 116 120
f 12 120 119
f 12 119 117
f 12 117 109
f 12 109 93
f 12 93 92
f 12 92 91
f 12 91 89
f 12 89 72
f 12 72 71
f 12 71 55
f 12 55 38
f 12 38 28
f 12 28 27
f 12 27 19
f 12 19 18
f 12 18 17
f 12 17 16
f 12 16 14
f 13 24 25
f 15 19 27
f 15 27 28
f 20 29 30
f 20 30 21
f 21 30 31
f 21 31 22
f 22 31 32
f 22 32 33
f 22 33 23
f 23 34 24
f 23 33 34
f 24 34 35
f 24 35 25
f 25 35 36
f 25 36 37
f 25 37 26
f 29 39 46
f 29 46 30
f 30 40 59
f 30 59 41
f 30 41 42
f 30 42 43
f 30 43 44
f 30 44 45
f 30 45 31
f 30 46 40
f 31 45 47
f 31 47 32
f 32 47 48
f 32 48 49
f 32 49 33
f 33 49 50
f 33 50 34
f 34 51 35
f 34 50 52
f 34 52 53
f 34 53 54
f 34 54 51
f 35 51 36
f 38 55 56
f 39 57 46
f 40 58 59
f 40 46 57
f 40 57 60
f 40 60 58
f 41 59 61
f 41 61 42
f 42 61 43
f 43 61 62
f 43 62 44
f 44 62 45
f 45 62 63
f 45 63 64
f 45 64 65
f 45 65 66
f 45 66 47
f 47 66 48
f 48 66 65
f 48 65 63
f 48 63 62
f 48 62 61
f 48 61 67
f 48 67 68
f 48 68 50
f 48 50 49
f 50 69 52
f 50 68 70
f 50 70 69
f 52 69 53
f 55 71 56
f 56 71 72
f 56 72 73
f 58 74 75
f 58 75 76
f 58 76 59
f 58 60 77
f 58 77 96
f 58 96 74
f 59 76 61
f 60 78 77
f 61 76 79
f 61 79 80
f 61 80 81
f 61 81 82
f 61 82 83
f 61 83 84
f 61 84 85
f 61 85 67
f 63 65 64
f 67 85 68
f 68 86 87
f 68 87 88
f 68 88 70
f 68 85 84
f 68 84 83
f 68 83 82
f 68 82 81
f 68 81 86
f 72 89 73
f 73 89 91
f 73 91 92
f 73 92 93
f 73 93 94
f 73 94 90
f 74 95 75
f 74 96 108
f 74 108 97
f 74 97 95
f 75 95 98
f 75 98 99
f 75 99 79
f 75 79 76
f 77 78 96
f 78 100 101
f 78 101 96
f 79 99 80
f 80 102 81
f 80 99 102
f 81 102 103
f 81 103 86
f 86 104 87
f 86 103 104
f 87 104 105
f 87 105 88
f 90 94 107
f 90 107 108
f 90 108 106
f 93 107 94
f 93 109 110
f 93 110 111
f 93 111 107
f 95 97 107
f 95 107 111
f 95 111 112
f 95 112 98
f 96 101 100
f 96 100 113
f 96 113 108
f 97 108 107
f 98 112 114
f 98 114 99
f 99 114 102
f 102 114 115
f 102 115 116
f 102 116 105
f 102 105 103
f 103 105 104
f 106 108 113
f 109 117 110
f 110 117 118
f 110 118 112
f 110 112 111
f 112 118 114
f 114 118 119
f 114 119 120
f 114 120 115
f 115 120 116
f 117 119 118

