# https://github.com/mikedh/trimesh
v 95.00248617 -4.29784496 -8.34045812
v 95.00248617 -5.55413753 -8.15754960
v 95.00248617 -3.53612519 -7.86195559
v 95.02283063 -4.29784496 -8.34045812
v 103.98092830 -5.57770969 -8.18041329
v 101.42098525 -5.57770969 -8.17714650
v 95.00248617 -5.57509035 -8.15428282
v 95.00248617 -3.53350585 -7.84725744
v 100.13931835 -3.53612519 -7.86195559
v 125.73194445 -4.29784496 -8.33882473
v 107.93781591 -7.83056823 -7.26423541
v 127.01361135 -5.57509035 -8.15428282
v 95.00248617 -6.20411054 -7.68231290
v 103.98092830 -7.83056823 -7.23483911
v 101.42098525 -7.83056823 -7.20544328
v 100.00369622 -7.83056823 -7.18094621
v 98.92207559 -7.83056823 -7.14991699
v 98.54571445 -7.83056823 -7.11562194
v 95.00248617 -3.39294731 -7.03723197
v 109.10080676 -3.39294731 -7.03723197
v 124.45367212 -3.39338403 -7.03723197
v 120.61545673 -3.53656191 -7.86032219
v 127.01361135 -3.53699863 -7.86032219
v 127.01361135 -4.29784496 -8.33719229
v 127.01361135 -6.21458599 -7.67414737
v 127.01361135 -7.83056823 -6.21740852
v 128.29188750 -5.44369902 -8.04649702
v 95.00248617 -6.21458599 -7.67414737
v 96.15530670 -7.83056823 -6.57669389
v 95.00248617 -3.39251155 -7.01600167
v 127.01361135 -3.37155873 -5.75686997
v 127.01361135 -3.39382074 -7.03723197
v 127.98333743 -3.57715739 -7.79826376
v 128.36309312 -4.21054188 -8.04649702
v 128.29188750 -6.08319562 -7.55166342
v 128.17660602 -7.83056823 -6.08185981
v 127.99690040 -7.83056823 -6.10635641
v 129.06495043 -5.18746423 -7.85052374
v 95.00248617 -7.83056823 -6.22557406
v 95.00248617 -3.37155873 -5.75686997
v 127.01361135 -3.37155873 5.75985964
v 128.23424485 -3.51473566 5.75985964
v 128.23085411 -3.51473566 4.47949717
v 128.22746337 -3.51473566 3.20076785
v 128.19695048 -3.51473566 -5.75686997
v 128.16982453 -3.52564879 -7.03723197
v 96.30110488 -3.37112202 1.92040538
v 100.13931835 -3.37112202 4.47949717
v 128.81065607 -3.73124744 -7.03723197
v 129.06495043 -4.57896109 -7.85052374
v 128.88863937 -7.83056823 -5.69971076
v 129.57355440 -5.57770969 -5.75686997
v 129.24465605 -5.59953593 -7.06499535
v 129.14632828 -7.83056823 -5.47434071
v 95.00248617 -7.83056823 6.22529742
v 95.00248617 -3.37112202 1.92040538
v 127.01361135 -3.39207483 7.04022163
v 128.16304304 -3.52477536 7.04022163
v 95.00248617 -3.37112202 4.50072746
v 95.00248617 -3.37155873 5.78108993
v 101.42098525 -3.39163812 7.04022163
v 128.87507639 -3.68323066 5.75985964
v 128.87168946 -3.68497657 4.47949717
v 128.86829491 -3.68672343 3.20076785
v 128.84117277 -3.69938246 -4.47650750
v 128.83439128 -3.70156413 -5.75686997
v 129.28195804 -4.34149650 -5.75686997
v 129.20736168 -4.37117981 -7.03723197
v 129.48878961 -7.83056823 -4.47650750
v 129.41079869 -7.83056823 -4.79823104
v 129.63458016 -5.57770969 -4.47650750
v 129.62441174 -7.83056823 -3.50317065
v 95.87388258 -7.83056823 6.46046592
v 95.00248617 -6.21284009 7.67550364
v 118.05551368 -3.53525176 7.86657817
v 127.01361135 -3.53525176 7.86494525
v 127.94264850 -3.57628396 7.80288682
v 128.80387458 -3.74172385 7.04022163
v 95.00248617 -3.39163812 7.04022163
v 129.28534497 -4.32316302 5.75985964
v 129.28534497 -4.32447317 4.47949717
v 129.28534497 -4.32665484 3.20076785
v 129.63458016 -5.57770969 4.47949717
v 129.63797472 -7.83056823 -3.19777819
v 96.35874562 -7.83056823 6.58294939
v 98.94581080 -7.83056823 7.14800743
v 95.00248617 -5.58382084 8.14910743
v 127.01361135 -4.29784496 8.34181439
v 95.00248617 -3.53525176 7.86657817
v 95.02283063 -4.29784496 8.34344779
v 128.33935410 -4.22712945 8.05275347
v 129.07512647 -4.60646178 7.85841264
v 129.21414316 -4.38165622 7.04022163
v 129.57694133 -5.57770969 5.75985964
v 129.63458016 -7.83056823 3.20076785
v 100.13931835 -7.83056823 7.17740374
v 95.00248617 -5.57334444 8.15564005
v 103.98092830 -5.57770969 8.18013617
v 127.01361135 -5.57334444 8.15564005
v 128.29188750 -5.43889801 8.05275347
v 95.00248617 -4.29784496 8.34344779
v 129.07512647 -5.18222651 7.85841264
v 129.25144516 -5.59647988 7.05981948
v 129.47861357 -7.83056823 4.47949717
v 101.42098525 -7.83056823 7.20679956
v 103.98092830 -7.83056823 7.24109508
v 107.93442516 -7.83056823 7.26559168
v 101.42098525 -5.57770969 8.17850278
v 127.01361135 -6.21284009 7.67550364
v 128.29188750 -6.07839365 7.54322124
v 128.26815229 -7.83056823 6.00645998
v 129.13954680 -7.83056823 5.45936640
v 127.33572440 -7.83056823 6.21386557
v 127.99350966 -7.83056823 6.09791424
f 1 2 7
f 1 7 13
f 1 13 28
f 1 28 39
f 1 39 55
f 1 55 74
f 1 74 87
f 1 87 97
f 1 97 101
f 1 101 89
f 1 89 79
f 1 79 60
f 1 60 59
f 1 59 56
f 1 56 40
f 1 40 30
f 1 30 19
f 1 19 8
f 1 8 3
f 1 3 9
f 1 9 4
f 1 4 5
f 1 5 6
f 1 6 2
f 2 6 7
f 3 8 9
f 4 9 10
f 4 10 5
f 5 11 6
f 5 10 12
f 5 12 11
f 6 11 7
f 7 11 14
f 7 14 15
f 7 15 16
f 7 16 17
f 7 17 18
f 7 18 13
f 8 19 20
f 8 20 9
f 9 20 21
f 9 21 22
f 9 22 23
f 9 23 10
f 10 23 24
f 10 24 12
f 11 12 25
f 11 25 26
f 11 26 37
f 11 37 36
f 11 36 51
f 11 51 54
f 11 54 70
f 11 70 69
f 11 69 72
f 11 72 84
f 11 84 95
f 11 95 104
f 11 104 112
f 11 112 111
f 11 111 114
f 11 114 113
f 11 113 107
f 11 107 106
f 11 106 105
f 11 105 96
f 11 96 86
f 11 86 85
f 11 85 73
f 11 73 55
f 11 55 39
f 11 39 29
f 11 29 18
f 11 18 17
f 11 17 16
f 11 16 15
f 11 15 14
f 12 24 27
f 12 27 25
f 13 18 28
f 18 29 28
f 19 30 20
f 20 30 31
f 20 31 21
f 21 31 32
f 21 32 23
f 21 23 22
f 23 32 33
f 23 33 24
f 24 33 34
f 24 34 27
f 25 27 35
f 25 35 36
f 25 36 37
f 25 37 26
f 27 34 38
f 27 38 35
f 28 29 39
f 30 40 31
f 31 41 42
f 31 42 43
f 31 43 44
f 31 44 45
f 31 45 46
f 31 46 32
f 31 40 56
f 31 56 47
f 31 47 48
f 31 48 41
f 32 46 33
f 33 46 49
f 33 49 50
f 33 50 34
f 34 50 38
f 35 38 51
f 35 51 36
f 38 50 52
f 38 52 53
f 38 53 54
f 38 54 51
f 41 57 58
f 41 58 42
f 41 48 59
f 41 59 60
f 41 60 61
f 41 61 57
f 42 58 62
f 42 62 43
f 43 62 44
f 44 62 45
f 45 62 63
f 45 63 64
f 45 64 65
f 45 65 66
f 45 66 46
f 46 66 49
f 47 56 59
f 47 59 48
f 49 66 67
f 49 67 68
f 49 68 50
f 50 68 52
f 52 69 70
f 52 70 53
f 52 68 67
f 52 67 71
f 52 71 72
f 52 72 69
f 53 70 54
f 55 73 74
f 57 75 76
f 57 76 77
f 57 77 58
f 57 61 75
f 58 77 78
f 58 78 62
f 60 79 61
f 61 79 89
f 61 89 75
f 62 78 93
f 62 93 80
f 62 80 81
f 62 81 82
f 62 82 67
f 62 67 63
f 63 67 64
f 64 67 65
f 65 67 66
f 67 82 71
f 71 83 84
f 71 84 72
f 71 82 81
f 71 81 80
f 71 80 83
f 73 85 74
f 74 85 86
f 74 86 87
f 75 88 76
f 75 89 101
f 75 101 90
f 75 90 88
f 76 88 77
f 77 88 91
f 77 91 92
f 77 92 78
f 78 92 93
f 80 93 94
f 80 94 83
f 83 94 95
f 83 95 84
f 86 96 97
f 86 97 87
f 88 90 98
f 88 98 99
f 88 99 100
f 88 100 91
f 90 101 98
f 91 100 102
f 91 102 92
f 92 94 93
f 92 102 94
f 94 102 103
f 94 103 104
f 94 104 95
f 96 105 97
f 97 105 106
f 97 106 107
f 97 107 108
f 97 108 101
f 98 101 108
f 98 108 107
f 98 107 99
f 99 109 100
f 99 107 109
f 100 110 102
f 100 109 110
f 102 110 111
f 102 111 112
f 102 112 103
f 103 112 104
f 107 113 109
f 109 113 114
f 109 114 110
f 110 114 111

