# https://github.com/mikedh/trimesh
v 78.72849194 -40.13118816 39.03743207
v 78.72849194 -38.85212616 39.03743207
v 78.79787157 -41.41090999 39.03743207
v 72.93733041 -40.12986085 41.42187577
v 78.73257304 -35.93764219 39.03743207
v 78.94479302 -42.14151814 39.03743207
v 72.93733041 -41.40958650 41.51460443
v 72.93733041 -39.81523105 41.52690493
v 78.73257304 -35.93697853 39.03932435
v 82.77699778 -35.93697853 39.03743207
v 72.93733041 -38.91107705 41.83063782
v 72.93733041 -38.75740654 42.10030688
v 72.93733041 -38.31427172 42.87903575
v 79.66307682 -42.40580930 39.03743207
v 72.93733041 -42.33294835 41.92336552
v 78.70400440 -35.93697853 39.39320611
v 114.13660383 -35.93697853 39.03743207
v 72.93733041 -38.30963376 43.20926240
v 78.65095012 -35.93697853 40.66490926
v 80.94455982 -42.56743224 39.03743207
v 72.93733041 -42.66016471 42.87903575
v 114.62226216 -35.93697853 41.18248502
v 114.13660383 -40.12986085 39.03743207
v 72.93733041 -38.29638736 44.15736258
v 78.75705963 -35.93697853 41.31495385
v 72.93733041 -38.29638736 46.71780078
v 72.93733041 -42.69262280 43.82902868
v 83.50344473 -42.57869150 39.03743207
v 114.62226216 -35.93697853 46.63548083
v 114.62226216 -40.12986085 41.18248502
v 114.05089695 -41.40958650 39.03743207
v 114.62226216 -41.40958650 41.25439722
v 79.45493699 -35.93697853 42.16843357
v 72.93733041 -38.78125236 47.99707351
v 79.88754009 -35.93697853 42.59517343
v 72.93733041 -42.70321839 44.15736258
v 80.94455982 -42.67341112 42.87903575
v 103.97452398 -42.58266580 39.03743207
v 114.62226216 -39.37739403 48.66982731
v 105.25600412 -35.93697853 46.63548083
v 113.76929735 -42.24153937 39.03743207
v 114.62226216 -41.49238321 41.29129874
v 114.62226216 -42.34884556 41.70668399
v 80.94455982 -35.93697853 42.86105794
v 72.93733041 -38.93492287 48.17117621
v 103.97452398 -35.93697853 46.46800228
v 88.62121454 -42.70388205 46.71780078
v 72.93733041 -42.70321839 46.71780078
v 114.62226216 -42.70321839 44.15736258
v 100.13823812 -42.67341112 42.87903575
v 109.09637489 -42.57869150 39.03743207
v 114.62226216 -40.12986085 48.70389114
v 72.93733041 -39.37739403 48.66982731
v 112.93674184 -42.50583054 39.03743207
v 114.62226216 -42.45813890 42.02744879
v 114.62226216 -42.66347536 42.87903575
v 72.93733041 -42.37666569 47.94597873
v 106.53748807 -42.70388205 46.71780078
v 111.65525789 -42.56743224 39.03743207
v 114.62226216 -42.67738542 43.28874370
v 114.62226216 -42.70321839 46.71780078
v 72.93733041 -40.12986085 48.70389114
v 114.62226216 -40.79688014 48.68118192
v 72.93733041 -41.91498285 48.42097567
v 96.29786926 -42.37666569 47.94597873
v 114.62226216 -42.59922667 47.11047777
v 72.93733041 -41.11416456 48.66982731
v 98.85675416 -41.11283725 48.66982731
v 112.93674184 -41.11151375 48.66982731
v 114.62226216 -41.11085010 48.66982731
v 80.94455982 -41.11416456 48.66982731
v 91.18418054 -41.11350090 48.66982731
v 82.22196077 -41.75402357 48.58561557
v 72.93733041 -41.75402357 48.58561557
v 114.62226216 -42.37666569 47.94503187
v 98.85675416 -41.75270007 48.58561557
v 105.25600412 -41.75203642 48.58561557
v 114.62226216 -41.54603630 48.61210838
v 91.18418054 -41.75336373 48.58561557
v 114.62226216 -41.75071292 48.58466967
v 112.93674184 -41.75137658 48.58466967
f 1 2 5
f 1 5 10
f 1 10 17
f 1 17 23
f 1 23 31
f 1 31 41
f 1 41 54
f 1 54 59
f 1 59 51
f 1 51 38
f 1 38 28
f 1 28 20
f 1 20 14
f 1 14 6
f 1 6 3
f 1 3 4
f 1 4 2
f 2 4 5
f 3 6 7
f 3 7 4
f 4 7 15
f 4 15 21
f 4 21 27
f 4 27 36
f 4 36 48
f 4 48 57
f 4 57 64
f 4 64 74
f 4 74 67
f 4 67 62
f 4 62 53
f 4 53 45
f 4 45 34
f 4 34 26
f 4 26 24
f 4 24 18
f 4 18 13
f 4 13 12
f 4 12 11
f 4 11 8
f 4 8 5
f 5 9 10
f 5 8 11
f 5 11 12
f 5 12 13
f 5 13 9
f 6 14 15
f 6 15 7
f 9 13 16
f 9 16 19
f 9 19 25
f 9 25 33
f 9 33 35
f 9 35 44
f 9 44 46
f 9 46 40
f 9 40 29
f 9 29 22
f 9 22 17
f 9 17 10
f 13 18 19
f 13 19 16
f 14 20 21
f 14 21 15
f 17 22 30
f 17 30 23
f 18 24 19
f 19 24 26
f 19 26 25
f 20 27 21
f 20 28 27
f 22 29 39
f 22 39 52
f 22 52 63
f 22 63 70
f 22 70 78
f 22 78 80
f 22 80 75
f 22 75 66
f 22 66 61
f 22 61 49
f 22 49 60
f 22 60 56
f 22 56 55
f 22 55 43
f 22 43 42
f 22 42 32
f 22 32 30
f 23 30 32
f 23 32 31
f 25 26 33
f 26 34 35
f 26 35 33
f 27 28 36
f 28 37 36
f 28 38 37
f 29 40 53
f 29 53 39
f 31 32 42
f 31 42 43
f 31 43 41
f 34 44 35
f 34 45 40
f 34 40 46
f 34 46 44
f 36 47 48
f 36 37 50
f 36 50 49
f 36 49 58
f 36 58 47
f 37 38 50
f 38 51 49
f 38 49 50
f 39 53 62
f 39 62 52
f 40 45 53
f 41 43 55
f 41 55 56
f 41 56 54
f 47 57 48
f 47 58 65
f 47 65 57
f 49 51 59
f 49 59 60
f 49 61 58
f 52 62 63
f 54 56 59
f 56 60 59
f 57 65 64
f 58 61 66
f 58 66 65
f 62 67 63
f 63 68 69
f 63 69 70
f 63 67 71
f 63 71 72
f 63 72 68
f 64 73 74
f 64 65 75
f 64 75 73
f 65 66 75
f 67 74 73
f 67 73 71
f 68 76 69
f 68 72 79
f 68 79 76
f 69 77 70
f 69 76 77
f 70 77 78
f 71 73 72
f 72 73 79
f 73 75 79
f 75 80 81
f 75 81 77
f 75 77 76
f 75 76 79
f 77 81 80
f 77 80 78

