v 78.619775 -15.000000 8.133372
v 79.031738 -15.000000 7.250087
v 80.081394 -15.000000 8.133372
v 78.619775 -9.000000 8.133372
v 79.669931 -15.000000 7.250087
v 79.031738 -9.000000 7.250087
v 80.744584 -13.178152 8.133372
v 80.081394 -9.000000 8.133372
v 80.761333 -12.000000 7.250087
v 79.669931 -9.000000 7.250087
v 81.173046 -12.000000 8.133372
v 81.172796 -11.998825 8.133372
f 1 2 5
f 1 5 3
f 1 3 7
f 1 7 11
f 1 11 12
f 1 12 8
f 1 8 4
f 1 4 6
f 1 6 2
f 2 6 10
f 2 10 9
f 2 9 5
f 3 5 7
f 4 8 10
f 4 10 6
f 5 9 7
f 7 9 11
f 8 12 10
f 9 10 12
f 9 12 11
