# https://github.com/mikedh/trimesh
v 72.93323591 -20.81520965 14.62781892
v 72.93323591 -24.77591709 14.62866374
v 72.93323591 -20.81520965 9.37972532
v 48.45909000 -20.81520965 16.67090426
v 72.93323591 -32.45218004 14.62866374
v 48.46251698 -36.46651578 16.67090426
v 72.93323591 -32.45218004 9.42116181
v 37.91532560 -36.46651578 8.06981589
v 37.91532560 -31.17280542 8.06474217
v 37.91532560 -29.97309994 8.08672861
v 37.91532560 -29.89342699 8.09011173
v 41.27109418 -20.81520965 9.37972532
v 47.74268949 -20.81520965 16.70050176
v 72.93323591 -32.78313420 14.60075780
v 63.02360595 -36.46651578 14.69124185
v 72.93323591 -34.51297430 14.24558595
v 72.93323591 -33.93380548 14.45023204
v 72.93323591 -33.73155847 14.52042120
v 47.66727881 -36.46651578 16.70304005
v 72.93323591 -33.73155847 9.59536558
v 37.91532560 -36.46651578 16.70304005
v 63.02360595 -36.46651578 9.44653137
v 37.91532560 -20.81520965 10.45369866
v 38.07642980 -20.81520965 10.34545516
v 38.79625728 -20.81520965 9.89049666
v 39.81087353 -20.81520965 9.52940435
v 39.98911453 -20.81520965 9.48120258
v 41.10313412 -20.81520965 9.38818120
v 47.66727881 -20.81520965 16.70304005
v 64.14105299 -36.46651578 14.41809816
v 72.93323591 -34.55281268 14.03755580
v 72.93323591 -34.32145257 9.89895349
v 37.91532560 -28.12834451 16.70304005
v 72.93323591 -34.52523285 10.00465965
v 63.20527679 -36.46651578 9.49896108
v 37.91532560 -20.81520965 16.67513411
v 38.71056376 -20.81520965 16.70304005
v 64.59694405 -36.46651578 13.61980585
v 72.93323591 -34.66619473 13.43883681
v 72.93323591 -34.64014817 10.65411680
v 64.16847549 -36.46651578 9.85159655
v 64.65178809 -36.46651578 13.43883681
v 72.93323591 -34.67844947 12.16021643
v 64.71691498 -36.46651578 12.42321363
v 72.93323591 -34.67998274 10.87990545
v 64.68263757 -36.46651578 10.87990545
v 64.72719877 -36.46651578 12.16021643
f 1 2 5
f 1 5 14
f 1 14 18
f 1 18 17
f 1 17 16
f 1 16 31
f 1 31 39
f 1 39 43
f 1 43 45
f 1 45 40
f 1 40 34
f 1 34 32
f 1 32 20
f 1 20 7
f 1 7 3
f 1 3 12
f 1 12 28
f 1 28 27
f 1 27 26
f 1 26 25
f 1 25 24
f 1 24 23
f 1 23 36
f 1 36 37
f 1 37 29
f 1 29 13
f 1 13 4
f 1 4 2
f 2 4 6
f 2 6 5
f 3 7 8
f 3 8 9
f 3 9 10
f 3 10 11
f 3 11 12
f 4 13 6
f 5 6 14
f 6 15 16
f 6 16 17
f 6 17 18
f 6 18 14
f 6 13 19
f 6 19 21
f 6 21 8
f 6 8 22
f 6 22 35
f 6 35 41
f 6 41 46
f 6 46 47
f 6 47 44
f 6 44 42
f 6 42 38
f 6 38 30
f 6 30 15
f 7 20 8
f 8 21 33
f 8 33 36
f 8 36 23
f 8 23 11
f 8 11 10
f 8 10 9
f 8 20 22
f 11 23 24
f 11 24 25
f 11 25 26
f 11 26 27
f 11 27 28
f 11 28 12
f 13 29 19
f 15 30 16
f 16 30 31
f 19 29 37
f 19 37 33
f 19 33 21
f 20 32 22
f 22 32 34
f 22 34 35
f 30 38 39
f 30 39 31
f 33 37 36
f 34 40 41
f 34 41 35
f 38 42 39
f 39 42 44
f 39 44 43
f 40 45 41
f 41 45 46
f 43 44 47
f 43 47 45
f 45 47 46

