# https://github.com/mikedh/trimesh
v 51.75298037 -3.43200094 -14.71650997
v 51.75298037 -3.57433114 -13.97128432
v 51.75298037 -3.44738801 -14.90535038
v 37.91532560 -3.43200094 -14.71650997
v 51.75298037 -4.15807784 -13.68684229
v 50.22630075 -3.57433114 -13.97128432
v 51.75298037 -3.51470706 -15.69280299
v 41.26941598 -3.51470706 -15.69280299
v 37.91532560 -3.51470706 -15.69246544
v 37.91532560 -3.52047590 -14.25505126
v 51.50643628 -4.29848477 -13.61860309
v 51.75298037 -4.29848477 -13.61860309
v 41.26941598 -4.29848477 -13.61894064
v 37.91532560 -3.57529325 -13.97162283
v 51.75298037 -4.16480975 -16.33262951
v 37.91532560 -4.16480975 -16.33262951
v 37.91532560 -3.76186140 -15.93603261
v 37.91532560 -5.57753424 -13.37132002
v 51.75298037 -5.57753424 -13.37132002
v 37.91532560 -4.29848477 -13.61927914
v 37.91532560 -5.09091861 -13.46557145
v 51.75298037 -4.80433496 -16.66977206
v 37.91532560 -4.80433496 -16.66977206
v 37.91532560 -13.25567945 -13.25409811
v 46.38725008 -13.25567945 -13.25274696
v 47.66602969 -13.25567945 -13.25950271
v 51.75298037 -6.85754581 -13.37132002
v 51.75298037 -5.57753424 -16.70355364
v 37.91532560 -5.57753424 -16.70355364
v 37.91532560 -13.25567945 -16.70355364
v 48.94616522 -13.25567945 -13.62096784
v 51.75298037 -8.13755738 -13.37165852
v 51.75298037 -8.13755738 -16.70355364
v 47.66602969 -13.25567945 -16.70355364
v 49.61400352 -13.25567945 -14.02668714
v 51.75298037 -9.20311107 -13.72400221
v 51.75298037 -8.27507894 -16.69713449
v 48.46391294 -13.25567945 -16.66977206
v 49.63974209 -13.25567945 -14.71684847
v 51.75298037 -9.66664656 -14.71650997
v 51.75298037 -8.84920932 -16.66977206
v 49.10465867 -13.25567945 -16.12385847
v 49.61129455 -13.25567945 -15.48403195
v 51.75298037 -9.31274385 -15.99582547
f 1 2 5
f 1 5 12
f 1 12 19
f 1 19 27
f 1 27 32
f 1 32 36
f 1 36 40
f 1 40 44
f 1 44 41
f 1 41 37
f 1 37 33
f 1 33 28
f 1 28 22
f 1 22 15
f 1 15 7
f 1 7 3
f 1 3 4
f 1 4 6
f 1 6 2
f 2 6 5
f 3 7 8
f 3 8 9
f 3 9 4
f 4 9 17
f 4 17 16
f 4 16 23
f 4 23 29
f 4 29 30
f 4 30 24
f 4 24 18
f 4 18 21
f 4 21 20
f 4 20 14
f 4 14 10
f 4 10 6
f 5 11 12
f 5 6 13
f 5 13 11
f 6 10 14
f 6 14 13
f 7 15 16
f 7 16 8
f 8 16 17
f 8 17 9
f 11 13 18
f 11 18 19
f 11 19 12
f 13 14 20
f 13 20 21
f 13 21 18
f 15 22 23
f 15 23 16
f 18 24 25
f 18 25 19
f 19 25 26
f 19 26 27
f 22 28 29
f 22 29 23
f 24 30 34
f 24 34 38
f 24 38 42
f 24 42 43
f 24 43 39
f 24 39 35
f 24 35 31
f 24 31 26
f 24 26 25
f 26 31 32
f 26 32 27
f 28 33 34
f 28 34 30
f 28 30 29
f 31 35 36
f 31 36 32
f 33 37 38
f 33 38 34
f 35 39 40
f 35 40 36
f 37 41 38
f 38 41 42
f 39 43 40
f 40 43 44
f 41 44 43
f 41 43 42

