# https://github.com/mikedh/trimesh
v 124.11823048 -42.70387824 46.71587084
v 124.11823048 -42.70178047 44.15675232
v 124.45541312 -42.70387824 46.71587084
v 124.11823048 -42.37663136 47.94241539
v 125.73552781 -42.70178047 44.15675232
v 124.11823048 -42.66611854 42.87719354
v 127.01509708 -42.64514093 24.08864053
v 125.73552781 -42.70178047 46.71587084
v 125.73552781 -42.37663136 47.94241539
v 124.11823048 -41.91512397 48.41472053
v 127.01509708 -42.64723869 28.80204406
v 127.01509708 -42.64933645 34.35884852
v 124.11823048 -42.31579629 41.69884218
v 125.22326605 -41.40746585 24.08864053
v 125.55774830 -42.01162097 24.08864053
v 125.75497977 -42.34306719 24.08864053
v 126.13755414 -42.43956418 24.08864053
v 128.14661021 -42.32208958 24.08864053
v 127.01401769 -42.64933645 42.87719354
v 127.01401769 -42.64723869 46.71587084
v 127.01401769 -42.34936047 47.93759626
v 127.01401769 -41.74730311 48.57858044
v 125.73552781 -41.74730311 48.58339957
v 124.11823048 -41.74730311 48.58339957
v 128.14066782 -42.32418734 34.36125808
v 124.11823048 -41.40746585 41.26750346
v 125.10330465 -40.12783937 24.08864053
v 128.78693835 -41.90883069 24.08864053
v 128.13904683 -42.32418734 37.75895745
v 128.13688422 -42.32418734 41.59522424
v 128.13364223 -42.32418734 46.71587084
v 127.97369750 -42.23188586 47.73999959
v 128.30925914 -41.46830092 48.14483215
v 127.79213439 -40.99630854 48.65810274
v 127.01401769 -41.10958763 48.67014961
v 124.11823048 -41.10958763 48.67014961
v 124.11823048 -41.25643088 41.25545468
v 125.02387198 -21.27953832 24.08864053
v 128.78261697 -41.90463517 31.36116210
v 129.22517204 -41.26691969 24.08864053
v 129.22517204 -41.26691969 24.96336675
v 129.22624761 -41.26482193 28.80204406
v 129.22678922 -41.26272417 31.36116210
v 129.22571364 -41.26272417 34.36125808
v 129.22517204 -41.26062641 37.75895745
v 129.22463043 -41.25643088 42.87719354
v 129.22408883 -41.25433312 45.43631110
v 128.77883337 -41.90043965 37.75895745
v 128.77613298 -41.89624413 42.87719354
v 128.77451198 -41.89414637 45.43631110
v 128.77342877 -41.89204860 46.71587084
v 129.12682138 -41.09070778 47.69662457
v 128.58538549 -40.12993713 48.55207428
v 127.94559895 -40.12993713 48.67014961
v 127.01401769 -40.12993713 48.70147680
v 124.11823048 -40.12993713 48.70147680
v 124.11823048 -40.12993713 41.18557350
v 125.09682066 -21.27324504 24.76817964
v 129.24840760 -21.27324504 24.08864053
v 124.11823048 -21.28163608 41.17593429
v 124.11823048 -21.27324504 41.17593429
v 128.78099597 -41.90253741 34.35884852
v 129.57748143 -40.12783937 24.08864053
v 129.57856464 -40.12783937 30.08160284
v 129.57856464 -40.12783937 31.36116210
v 129.22571364 -41.26062641 36.47939819
v 129.57748143 -40.12993713 37.75895745
v 129.57586425 -40.12993713 46.71587084
v 129.22354722 -41.25223536 46.71587084
v 129.25489159 -40.12993713 47.91108915
v 128.67076054 -38.84820907 48.59544834
v 128.03097400 -38.84820907 48.67014961
v 128.04394198 -23.49686199 48.67014961
v 128.04502518 -22.21513584 48.67014961
v 128.04556679 -21.27324504 48.67014961
v 127.01401769 -21.27324504 48.70147680
v 124.11823048 -21.27324504 48.70147680
v 129.63854534 -21.27324504 24.08864053
v 129.61909338 -39.25307691 24.08864053
v 129.63800374 -38.84820907 24.08864053
v 129.63800374 -38.84820907 34.35884852
v 129.63746214 -38.84820907 46.71587084
v 129.28569434 -38.84820907 47.95446417
v 128.67400254 -35.00932580 48.59785886
v 129.28569434 -37.56858258 47.95687373
v 128.68589112 -21.27324504 48.60026938
v 129.63854534 -21.27324504 26.58269605
v 129.63854534 -22.61999987 24.08864053
v 129.63746214 -21.27324504 46.71587084
v 129.28569434 -23.49686199 47.95928425
v 129.28569434 -21.27324504 47.95928425
f 1 2 5
f 1 5 3
f 1 3 9
f 1 9 4
f 1 4 10
f 1 10 24
f 1 24 36
f 1 36 56
f 1 56 77
f 1 77 61
f 1 61 60
f 1 60 57
f 1 57 37
f 1 37 26
f 1 26 13
f 1 13 6
f 1 6 2
f 2 6 7
f 2 7 5
f 3 5 8
f 3 8 9
f 4 9 10
f 5 7 11
f 5 11 12
f 5 12 8
f 6 13 14
f 6 14 15
f 6 15 16
f 6 16 17
f 6 17 7
f 7 17 16
f 7 16 15
f 7 15 14
f 7 14 27
f 7 27 38
f 7 38 59
f 7 59 78
f 7 78 88
f 7 88 80
f 7 80 79
f 7 79 63
f 7 63 40
f 7 40 28
f 7 28 18
f 7 18 11
f 8 12 19
f 8 19 20
f 8 20 21
f 8 21 9
f 9 21 22
f 9 22 23
f 9 23 10
f 10 23 24
f 11 18 12
f 12 18 25
f 12 25 19
f 13 26 27
f 13 27 14
f 18 28 25
f 19 29 30
f 19 30 31
f 19 31 20
f 19 25 29
f 20 31 32
f 20 32 21
f 21 32 22
f 22 32 33
f 22 33 34
f 22 34 35
f 22 35 23
f 23 35 36
f 23 36 24
f 25 28 29
f 26 37 27
f 27 37 38
f 28 39 31
f 28 31 30
f 28 30 29
f 28 40 41
f 28 41 42
f 28 42 43
f 28 43 44
f 28 44 45
f 28 45 46
f 28 46 47
f 28 47 39
f 31 39 48
f 31 48 49
f 31 49 50
f 31 50 51
f 31 51 32
f 32 51 52
f 32 52 33
f 33 53 34
f 33 52 53
f 34 54 55
f 34 55 35
f 34 53 54
f 35 55 56
f 35 56 36
f 37 57 38
f 38 58 59
f 38 57 60
f 38 60 61
f 38 61 58
f 39 62 48
f 39 47 62
f 40 63 64
f 40 64 42
f 40 42 41
f 42 64 65
f 42 65 43
f 43 66 44
f 43 65 67
f 43 67 68
f 43 68 66
f 44 66 45
f 45 66 46
f 46 66 68
f 46 68 47
f 47 50 49
f 47 49 48
f 47 48 62
f 47 68 69
f 47 69 50
f 50 69 51
f 51 69 52
f 52 69 68
f 52 68 70
f 52 70 53
f 53 70 71
f 53 71 54
f 54 71 72
f 54 72 55
f 55 72 73
f 55 73 74
f 55 74 75
f 55 75 76
f 55 76 77
f 55 77 56
f 58 61 77
f 58 77 76
f 58 76 75
f 58 75 86
f 58 86 91
f 58 91 89
f 58 89 87
f 58 87 78
f 58 78 59
f 63 79 64
f 64 79 80
f 64 80 81
f 64 81 65
f 65 81 82
f 65 82 67
f 67 82 68
f 68 82 70
f 70 83 71
f 70 82 83
f 71 84 72
f 71 83 85
f 71 85 84
f 72 84 86
f 72 86 73
f 73 86 74
f 74 86 75
f 78 87 88
f 80 88 81
f 81 88 87
f 81 87 82
f 82 87 89
f 82 89 91
f 82 91 90
f 82 90 85
f 82 85 83
f 84 85 86
f 85 90 86
f 86 90 91

