# https://github.com/mikedh/trimesh
v 114.62634326 -42.70387824 46.71749374
v 114.62634326 -42.70178047 44.15860693
v 124.11730365 -42.70387824 46.71749374
v 114.62634326 -42.37663136 47.94499278
v 124.11730365 -42.70178047 44.15860693
v 114.62634326 -42.67660734 43.28845287
v 124.11730365 -42.66821630 42.87879546
v 124.11730365 -42.37663136 47.94499278
v 114.62634326 -41.74940087 48.58526657
v 114.62634326 -42.66192302 42.87879546
v 114.62634326 -42.45844403 42.02706165
v 124.11730365 -42.31579629 41.70213566
v 124.11730365 -41.91512397 48.41580373
v 116.77725373 -41.74940087 48.58526657
v 114.62634326 -41.54591807 48.61252793
v 114.62634326 -42.34726271 41.70655622
v 114.62634326 -41.49137628 41.29100410
v 124.11730365 -41.40956361 41.26816330
v 124.11730365 -41.74940087 48.58453045
v 124.11730365 -41.27740849 48.64789427
v 114.62634326 -41.10958763 48.66999895
v 114.62634326 -41.40956361 41.25416456
v 124.11730365 -41.25643088 41.25711191
v 124.11730365 -41.10958763 48.66999895
v 114.62634326 -40.79702126 48.68105033
v 114.62634326 -40.12993713 41.18269575
v 124.11730365 -40.12993713 41.18711631
v 124.11730365 -40.38796171 48.69505003
v 119.33697965 -40.12993713 48.70389114
v 114.62634326 -40.12993713 48.70389114
v 114.62634326 -38.86079563 41.18195868
v 124.11730365 -38.85030683 41.18637923
v 124.11730365 -40.12993713 48.70315501
v 124.11730365 -21.27324504 48.70315501
v 114.62634326 -39.37684480 48.66999895
v 120.61545046 -21.27324504 48.70315501
v 120.27539198 -21.27324504 48.69799643
v 119.33697965 -21.27324504 48.68252449
v 118.68102128 -21.27324504 48.64936842
v 114.62634326 -21.27953832 41.17974840
v 124.11730365 -21.27324504 41.17680104
v 114.62634326 -21.27324504 46.62834177
v 114.62634326 -21.27324504 42.49639941
v 114.85490384 -21.27324504 41.23942874
f 1 2 5
f 1 5 3
f 1 3 8
f 1 8 4
f 1 4 9
f 1 9 15
f 1 15 21
f 1 21 25
f 1 25 30
f 1 30 35
f 1 35 42
f 1 42 43
f 1 43 40
f 1 40 31
f 1 31 26
f 1 26 22
f 1 22 17
f 1 17 16
f 1 16 11
f 1 11 10
f 1 10 6
f 1 6 2
f 2 6 7
f 2 7 5
f 3 5 7
f 3 7 12
f 3 12 18
f 3 18 23
f 3 23 27
f 3 27 32
f 3 32 41
f 3 41 34
f 3 34 33
f 3 33 28
f 3 28 24
f 3 24 20
f 3 20 19
f 3 19 13
f 3 13 8
f 4 8 14
f 4 14 9
f 6 10 7
f 7 10 11
f 7 11 12
f 8 13 14
f 9 14 15
f 11 16 12
f 12 16 17
f 12 17 18
f 13 19 14
f 14 19 20
f 14 20 15
f 15 20 24
f 15 24 21
f 17 22 18
f 18 22 23
f 21 24 25
f 22 26 27
f 22 27 23
f 24 28 25
f 25 28 29
f 25 29 30
f 26 31 27
f 27 31 32
f 28 33 29
f 29 33 34
f 29 34 36
f 29 36 30
f 30 36 37
f 30 37 38
f 30 38 39
f 30 39 35
f 31 40 41
f 31 41 32
f 34 41 44
f 34 44 43
f 34 43 42
f 34 42 39
f 34 39 38
f 34 38 37
f 34 37 36
f 35 39 42
f 40 43 44
f 40 44 41

