# https://github.com/mikedh/trimesh
v 37.91532560 -5.57802244 16.70348630
v 37.91532560 -5.28872981 16.69138031
v 35.92420751 -4.94543701 16.67707358
v 35.92420751 -5.57802244 16.70348630
v 37.91532560 -40.13110142 16.70348630
v 37.91532560 -4.81043276 16.67120558
v 35.92420751 -4.81043276 16.67120558
v 35.92420751 -40.13110142 16.70348630
v 37.91532560 -40.72897083 16.68367772
v 37.91532560 -4.17013329 16.33591859
v 35.92420751 -4.17013329 16.34875688
v 35.92420751 -40.29696182 16.69798444
v 36.14892916 -41.09540765 16.67120558
v 37.91532560 -41.09540765 16.67120558
v 37.91532560 -3.51440384 15.69615977
v 35.92420751 -3.43725964 15.69909377
v 35.92420751 -41.09155540 16.67120558
v 36.14892916 -41.73571284 16.58206410
v 37.91532560 -41.73571284 16.58206410
v 37.91532560 -3.48354578 15.32455673
v 35.92420751 -3.30225540 14.71928032
v 35.92420751 -41.20726787 16.65506426
v 35.92420751 -41.84757307 16.46944677
v 35.92420751 -42.37601041 15.94193817
v 36.14892916 -42.37601041 15.94230528
v 37.91532560 -42.13300582 16.18551678
v 35.92420751 -41.73185296 16.58169794
v 37.91532560 -3.43340167 14.71928032
v 37.91532560 -3.48740375 14.43571744
v 37.91532560 -3.57611995 13.97277219
v 35.92420751 -3.46425973 13.87629522
v 35.92420751 -42.43387046 15.72734012
v 37.91532560 -42.37601041 15.94230528
v 37.91532560 -3.84998260 13.83814458
v 35.92420751 -4.05441700 13.58759664
v 35.92420751 -42.70001907 14.71928032
v 37.42865467 -42.70387514 14.71928032
v 37.91532560 -42.70387514 14.71928032
v 37.91532560 -4.30127956 13.61877794
v 35.92420751 -4.30127956 13.51056115
v 35.92420751 -42.70001907 12.95627558
v 37.91532560 -42.70001907 12.95627558
v 37.91532560 -4.78729065 13.52450172
v 35.92420751 -5.28487375 13.31834048
v 35.92420751 -14.04850328 12.95627558
v 37.91532560 -14.08707538 12.95627558
v 37.91532560 -5.57802244 13.37116495
v 35.92420751 -5.57802244 13.28605881
f 1 2 3
f 1 3 4
f 1 4 8
f 1 8 5
f 1 5 9
f 1 9 14
f 1 14 19
f 1 19 26
f 1 26 33
f 1 33 38
f 1 38 42
f 1 42 46
f 1 46 47
f 1 47 43
f 1 43 39
f 1 39 34
f 1 34 30
f 1 30 29
f 1 29 28
f 1 28 20
f 1 20 15
f 1 15 10
f 1 10 6
f 1 6 2
f 2 6 3
f 3 6 7
f 3 7 11
f 3 11 16
f 3 16 21
f 3 21 31
f 3 31 35
f 3 35 40
f 3 40 44
f 3 44 48
f 3 48 45
f 3 45 41
f 3 41 36
f 3 36 32
f 3 32 24
f 3 24 23
f 3 23 27
f 3 27 22
f 3 22 17
f 3 17 12
f 3 12 8
f 3 8 4
f 5 8 9
f 6 10 11
f 6 11 7
f 8 12 9
f 9 12 13
f 9 13 14
f 10 15 16
f 10 16 11
f 12 17 13
f 13 18 19
f 13 19 14
f 13 17 18
f 15 20 21
f 15 21 16
f 17 22 18
f 18 23 24
f 18 24 25
f 18 25 26
f 18 26 19
f 18 22 27
f 18 27 23
f 20 28 21
f 21 28 29
f 21 29 30
f 21 30 31
f 24 32 25
f 25 32 33
f 25 33 26
f 30 34 31
f 31 34 35
f 32 36 37
f 32 37 38
f 32 38 33
f 34 39 35
f 35 39 40
f 36 41 37
f 37 41 42
f 37 42 38
f 39 43 44
f 39 44 40
f 41 45 46
f 41 46 42
f 43 47 44
f 44 47 48
f 45 48 46
f 46 48 47

