# https://github.com/mikedh/trimesh
v 27.19180218 13.62213206 16.70390966
v 31.02946452 53.28807155 16.70283218
v 27.19180218 53.28807155 16.70283218
v 27.19180218 12.34669933 16.70283218
v 28.47064664 -15.81034377 16.69205350
v 29.75005558 -17.09327695 16.70283218
v 32.95168072 -17.09327695 16.70283218
v 32.95168072 -5.57687440 16.70283218
v 31.90965818 53.28807155 16.67049424
v 31.84819761 54.57100854 16.66187054
v 31.02946452 54.57100854 16.68666226
v 27.19180218 54.57100854 16.68666226
v 27.19180218 11.04875953 16.67696107
v 27.81092381 -16.66563128 16.65324684
v 27.80077446 -15.81034377 16.65971366
v 28.44301722 -17.09327695 16.67264922
v 29.67111494 -18.45873985 16.67480610
v 31.02946452 -18.36870777 16.69636345
v 32.95168072 -18.36870777 16.69636345
v 32.95168072 53.28807155 16.35681228
v 32.54964680 53.28807155 16.57886978
v 31.74726481 55.22372866 16.64893499
v 32.48762174 54.57100854 16.53898563
v 31.02946452 55.23123102 16.65432432
v 28.47064664 55.23123102 16.65432432
v 27.19180218 55.23123102 16.65324684
v 27.19180218 -16.11794794 13.18443565
v 27.29554980 -15.81034377 14.71834491
v 27.53350450 -15.81034377 15.99893718
v 27.64176421 -17.09327695 16.09810691
v 27.99812797 -17.52092261 16.59072594
v 29.19239453 -18.94640435 16.62522076
v 28.85125670 -18.09111683 16.65971366
v 30.04552326 -19.03643642 16.65540181
v 31.02946452 -19.04393877 16.66294803
v 32.95168072 -18.70632518 16.68019543
v 32.95168072 53.78324222 16.33633242
v 32.95168072 54.57100854 16.29213642
v 32.95168072 54.90111978 16.15631595
v 32.95168072 55.38128193 15.83616812
v 32.22767869 55.41129135 16.07115831
v 31.02946452 55.47881635 15.99893718
v 28.47064664 55.47881635 15.99893718
v 27.19180218 55.47881635 15.99785874
v 27.19180218 -17.09327695 13.02490096
v 27.19180218 -20.94208030 11.62896809
v 27.37843804 -17.09327695 14.71834491
v 27.71337413 -17.94106592 15.73699744
v 28.44076308 -18.44373514 16.18110958
v 31.02946452 -19.32903588 15.99893718
v 32.95168072 -19.18648733 16.33202057
v 32.95168072 -19.04393877 16.66294803
v 32.95168072 55.50132342 15.35217375
v 32.30943795 55.70389081 14.71834491
v 28.47064664 55.70389081 14.71834491
v 27.19180218 55.70389081 14.71726647
v 27.19180218 -20.94208030 6.31795836
v 28.01899115 -20.94208030 11.57399341
v 32.95168072 -19.32903588 15.99893718
v 32.95168072 55.63636962 14.71834491
v 32.95168072 55.68138375 14.07696986
v 32.30943795 55.70389081 5.69167527
v 27.19180218 55.70389081 9.59920734
v 28.46500938 -20.94208030 5.69167527
v 27.19180218 53.28807155 6.31795836
v 28.65897596 -20.94208030 11.34762597
v 29.95304634 -20.94208030 10.68792698
v 31.09600168 -20.94208030 9.89887530
v 32.95168072 -20.94208030 8.55144933
v 32.95168072 55.68138375 5.69167527
v 27.19180218 55.69638846 8.31969255
v 28.47064664 55.70389081 8.32077099
v 31.02946452 55.61386255 5.69167527
v 32.95168072 -20.94208030 5.69167527
v 28.46500938 53.28807155 5.69167527
v 27.19180218 54.52599441 6.35892000
v 28.47910633 54.55600383 5.69167527
v 28.47402975 54.42845998 5.69167527
v 27.19180218 55.45630929 7.04448962
v 29.74328935 55.38128193 5.69167527
v 27.19180218 55.16370982 6.40527145
v 28.98319821 54.99865420 5.69167527
v 29.66829631 55.36627722 5.69167527
f 1 2 3
f 1 3 12
f 1 12 26
f 1 26 44
f 1 44 56
f 1 56 63
f 1 63 71
f 1 71 79
f 1 79 81
f 1 81 76
f 1 76 65
f 1 65 57
f 1 57 46
f 1 46 45
f 1 45 27
f 1 27 13
f 1 13 4
f 1 4 5
f 1 5 6
f 1 6 7
f 1 7 8
f 1 8 2
f 2 9 10
f 2 10 11
f 2 11 12
f 2 12 3
f 2 8 9
f 4 13 14
f 4 14 15
f 4 15 5
f 5 15 14
f 5 14 16
f 5 16 6
f 6 16 17
f 6 17 18
f 6 18 19
f 6 19 7
f 7 19 36
f 7 36 52
f 7 52 51
f 7 51 59
f 7 59 69
f 7 69 74
f 7 74 70
f 7 70 61
f 7 61 60
f 7 60 53
f 7 53 40
f 7 40 39
f 7 39 38
f 7 38 37
f 7 37 20
f 7 20 8
f 8 20 21
f 8 21 9
f 9 21 10
f 10 22 11
f 10 21 23
f 10 23 22
f 11 22 24
f 11 24 25
f 11 25 12
f 12 25 26
f 13 27 28
f 13 28 29
f 13 29 14
f 14 29 30
f 14 30 31
f 14 31 32
f 14 32 33
f 14 33 16
f 16 33 17
f 17 33 32
f 17 32 34
f 17 34 18
f 18 34 35
f 18 35 36
f 18 36 19
f 20 37 21
f 21 37 38
f 21 38 23
f 22 23 39
f 22 39 40
f 22 40 41
f 22 41 42
f 22 42 24
f 23 38 39
f 24 42 43
f 24 43 25
f 25 43 44
f 25 44 26
f 27 45 28
f 28 45 46
f 28 46 47
f 28 47 29
f 29 47 30
f 30 47 46
f 30 46 48
f 30 48 31
f 31 48 49
f 31 49 32
f 32 49 46
f 32 46 34
f 34 46 50
f 34 50 35
f 35 51 52
f 35 52 36
f 35 50 51
f 40 53 41
f 41 53 54
f 41 54 42
f 42 54 55
f 42 55 43
f 43 55 56
f 43 56 44
f 46 57 64
f 46 64 74
f 46 74 69
f 46 69 68
f 46 68 67
f 46 67 66
f 46 66 58
f 46 58 59
f 46 59 50
f 46 49 48
f 50 59 51
f 53 60 54
f 54 60 61
f 54 61 70
f 54 70 62
f 54 62 72
f 54 72 63
f 54 63 56
f 54 56 55
f 57 65 75
f 57 75 64
f 58 66 59
f 59 66 67
f 59 67 68
f 59 68 69
f 62 71 72
f 62 70 74
f 62 74 64
f 62 64 75
f 62 75 78
f 62 78 77
f 62 77 82
f 62 82 83
f 62 83 80
f 62 80 73
f 62 73 71
f 63 72 71
f 65 76 77
f 65 77 78
f 65 78 75
f 71 73 79
f 73 80 79
f 76 81 77
f 77 81 82
f 79 80 83
f 79 83 81
f 81 83 82

