v 75.478435 -15.000000 8.133372
v 75.890107 -15.000000 7.250087
v 76.939908 -15.000000 8.133372
v 75.478435 -9.000000 8.133372
v 76.528237 -15.000000 7.250087
v 75.890357 -9.000000 7.250087
v 77.603033 -13.178152 8.133372
v 76.939908 -9.000000 8.133372
v 77.619779 -12.000000 7.250087
v 78.031701 -12.000000 8.133372
v 76.528486 -9.000000 7.250087
v 78.031451 -11.998825 8.133372
f 1 2 5
f 1 5 3
f 1 3 7
f 1 7 10
f 1 10 12
f 1 12 8
f 1 8 4
f 1 4 2
f 2 4 6
f 2 6 11
f 2 11 9
f 2 9 5
f 3 5 7
f 4 8 11
f 4 11 6
f 5 9 10
f 5 10 7
f 8 12 11
f 9 11 12
f 9 12 10
