# https://github.com/mikedh/trimesh
v 72.93325218 -20.79618180 46.62852771
v 72.93325218 -32.45021777 46.62852771
v 72.93325218 -20.79618180 41.37462084
v 48.46252585 -20.79618180 48.67002183
v 72.93325218 -33.73079778 46.52108040
v 48.46252585 -36.46218919 48.67002183
v 72.93325218 -32.45021777 41.42115299
v 37.91532953 -36.46218919 40.06072172
v 37.91532953 -31.17117103 40.06664312
v 37.91532953 -29.97341062 40.08018036
v 37.91532953 -29.89059483 40.08271769
v 41.27110038 -20.79618180 41.37462084
v 47.75640811 -20.79618180 48.69963268
v 48.35626473 -36.46218919 48.67509841
v 72.93325218 -34.51294600 46.24611735
v 63.02361877 -36.46218919 46.69028865
v 72.93325218 -33.40106792 41.54975145
v 37.91532953 -36.46218919 48.70301770
v 72.93325218 -33.73079778 41.59459109
v 63.02361877 -36.46218919 41.44653495
v 37.91532953 -20.79618180 42.44739953
v 38.05929695 -20.79618180 42.34925865
v 38.79283433 -20.79618180 41.88224464
v 39.78345612 -20.79618180 41.53029282
v 39.98912250 -20.79618180 41.47445424
v 41.07571875 -20.79618180 41.38392727
v 47.66728760 -20.79618180 48.70301770
v 47.66728760 -36.46218919 48.70301770
v 72.93325218 -34.55282253 46.03714604
v 64.13421054 -36.46218919 46.41532560
v 37.91532953 -28.12692339 48.70301770
v 72.93325218 -34.31970790 41.89747343
v 72.93325218 -34.52521600 42.00322823
v 63.20186217 -36.46218919 41.49814272
v 37.91532953 -20.79618180 48.67425168
v 38.71056778 -20.79618180 48.70301770
v 72.93325218 -34.66630758 45.43730373
v 64.58324674 -36.46218919 45.61412589
v 38.00445385 -20.79618180 48.67763480
v 72.93325218 -34.67857757 42.87887937
v 64.16163305 -36.46218919 41.85094128
v 72.93325218 -34.67857757 44.15893781
v 64.63809079 -36.46218919 45.43730373
v 64.70321768 -36.46218919 44.41613377
v 64.71350148 -36.46218919 44.15893781
v 64.66894027 -36.46218919 42.87887937
f 1 2 5
f 1 5 15
f 1 15 29
f 1 29 37
f 1 37 42
f 1 42 40
f 1 40 33
f 1 33 32
f 1 32 19
f 1 19 17
f 1 17 7
f 1 7 3
f 1 3 12
f 1 12 26
f 1 26 25
f 1 25 24
f 1 24 23
f 1 23 22
f 1 22 21
f 1 21 35
f 1 35 39
f 1 39 36
f 1 36 27
f 1 27 13
f 1 13 4
f 1 4 6
f 1 6 2
f 2 6 5
f 3 7 8
f 3 8 9
f 3 9 10
f 3 10 11
f 3 11 12
f 4 13 14
f 4 14 6
f 5 6 15
f 6 16 15
f 6 14 28
f 6 28 18
f 6 18 8
f 6 8 20
f 6 20 34
f 6 34 41
f 6 41 46
f 6 46 45
f 6 45 44
f 6 44 43
f 6 43 38
f 6 38 30
f 6 30 16
f 7 17 8
f 8 18 31
f 8 31 35
f 8 35 21
f 8 21 11
f 8 11 10
f 8 10 9
f 8 17 19
f 8 19 20
f 11 21 22
f 11 22 23
f 11 23 24
f 11 24 25
f 11 25 26
f 11 26 12
f 13 27 28
f 13 28 14
f 15 16 30
f 15 30 29
f 18 28 27
f 18 27 36
f 18 36 31
f 19 32 20
f 20 32 33
f 20 33 34
f 29 30 37
f 30 38 37
f 31 36 39
f 31 39 35
f 33 40 41
f 33 41 34
f 37 38 43
f 37 43 44
f 37 44 42
f 40 42 45
f 40 45 46
f 40 46 41
f 42 44 45

