# https://github.com/mikedh/trimesh
v 37.91532953 -19.60211345 40.34684485
v 37.91532953 -14.57031750 40.34684485
v 37.93247014 -19.60277138 40.34684485
v 41.27110038 -20.79465044 41.37511191
v 41.07571875 -20.79465044 41.38410940
v 39.98912250 -20.79465044 41.47491193
v 39.78345612 -20.79465044 41.53053787
v 38.79283433 -20.79465044 41.88229136
v 38.05929695 -20.79465044 42.34938833
v 37.91532953 -20.79465044 42.44755209
v 37.91532953 -14.07857757 44.96300095
v 55.31803116 -14.56966148 40.34684485
v 40.03025386 -19.67705881 40.34684485
v 41.27110038 -19.71124278 40.34684485
v 72.93325218 -20.79465044 41.37511191
v 37.91532953 -20.79465044 48.67441378
v 37.91532953 -14.07857757 48.70304440
v 41.27110038 -14.07857757 44.96218283
v 68.14125413 -14.56966148 40.34684485
v 46.38873479 -14.07857757 44.96136470
v 72.93325218 -19.71124278 40.34684485
v 72.93325218 -20.79465044 46.62851436
v 38.00445385 -20.79465044 48.67768438
v 37.91532953 -18.37341869 48.70059002
v 37.91532953 -17.09410496 48.70304440
v 47.66728760 -14.07857757 48.70386253
v 72.93325218 -14.57031750 40.34684485
v 46.40587540 -14.07857757 44.96136470
v 48.46252585 -20.79465044 48.67032315
v 72.93325218 -18.37341869 46.62851436
v 38.71056778 -20.79465044 48.70304440
v 47.66728760 -20.79465044 48.70386253
v 48.46252585 -14.07857757 48.67032315
v 72.93325218 -14.57031750 40.64951646
v 47.66728760 -14.07857757 44.97118127
v 47.67757044 -14.07857757 44.97281752
v 48.86357386 -14.07857757 45.18796006
v 48.94926644 -14.07857757 45.21168287
v 49.72051107 -14.07857757 45.57243480
v 49.96730882 -14.07857757 45.72131671
v 72.93325218 -17.09410496 46.56143655
v 48.69218489 -14.07857757 48.47563187
v 72.93325218 -16.35123445 46.35692775
v 72.93325218 -16.09353025 46.28575931
v 72.93325218 -15.61822532 45.93236956
v 72.93325218 -15.45321546 45.80966390
v 72.93325218 -14.95030018 45.16996318
v 72.93325218 -14.72678186 44.41982774
v 72.93325218 -14.64920666 44.15887487
v 72.93325218 -14.57163337 42.87865434
v 49.77878305 -14.07857757 46.71767968
v 49.10351575 -14.07857757 48.12469555
v 49.61424995 -14.07857757 47.48499483
f 1 2 12
f 1 12 19
f 1 19 27
f 1 27 21
f 1 21 14
f 1 14 13
f 1 13 3
f 1 3 4
f 1 4 5
f 1 5 6
f 1 6 7
f 1 7 8
f 1 8 9
f 1 9 10
f 1 10 16
f 1 16 24
f 1 24 25
f 1 25 17
f 1 17 11
f 1 11 2
f 2 11 12
f 3 13 4
f 4 13 14
f 4 14 21
f 4 21 15
f 4 15 22
f 4 22 29
f 4 29 32
f 4 32 31
f 4 31 23
f 4 23 16
f 4 16 10
f 4 10 9
f 4 9 8
f 4 8 7
f 4 7 6
f 4 6 5
f 11 17 26
f 11 26 33
f 11 33 42
f 11 42 52
f 11 52 53
f 11 53 51
f 11 51 40
f 11 40 39
f 11 39 38
f 11 38 37
f 11 37 36
f 11 36 35
f 11 35 28
f 11 28 20
f 11 20 18
f 11 18 12
f 12 18 20
f 12 20 28
f 12 28 19
f 15 21 27
f 15 27 34
f 15 34 50
f 15 50 49
f 15 49 48
f 15 48 47
f 15 47 46
f 15 46 45
f 15 45 44
f 15 44 43
f 15 43 41
f 15 41 30
f 15 30 22
f 16 23 24
f 17 25 32
f 17 32 26
f 19 28 27
f 22 30 33
f 22 33 29
f 23 31 24
f 24 31 25
f 25 31 32
f 26 32 29
f 26 29 33
f 27 28 35
f 27 35 36
f 27 36 37
f 27 37 38
f 27 38 39
f 27 39 40
f 27 40 34
f 30 41 33
f 33 41 43
f 33 43 44
f 33 44 45
f 33 45 46
f 33 46 47
f 33 47 48
f 33 48 49
f 33 49 50
f 33 50 42
f 34 40 50
f 40 51 50
f 42 50 52
f 50 51 53
f 50 53 52

