# https://github.com/mikedh/trimesh
v 35.89616988 -14.46253646 40.41805239
v 37.91532953 -14.57087436 40.41805239
v 35.89616988 -4.29803846 40.41121846
v 35.89616988 -42.68864849 40.41805239
v 37.91532953 -4.29803846 40.33263729
v 37.91532953 -41.51239966 40.41805239
v 35.89616988 -3.41585184 39.95909188
v 35.89616988 -42.68864849 40.06500592
v 36.14898439 -42.68864849 40.41805239
v 37.91532953 -3.53579799 39.86228880
v 37.27489077 -42.36750419 40.41805239
v 37.14225698 -42.34815521 28.78574136
v 37.14798959 -42.33655268 28.78574136
v 37.59985300 -41.40793117 28.78574136
v 37.70382565 -40.12721385 28.78574136
v 37.91532953 -41.48531948 40.39299750
v 35.89616988 -3.20691295 39.03889288
v 36.14898439 -42.68864849 40.31783282
v 35.89616988 -42.68091348 32.64078072
v 36.26659630 -42.66543581 40.41805239
v 37.91532953 -3.39263534 39.03889288
v 36.14898439 -42.67704597 31.36070274
v 37.12980391 -42.35202653 28.78574136
v 37.91532953 -20.77713795 28.78574136
v 35.89616988 -3.17595953 38.07541802
v 35.89616988 -42.65769698 31.36070274
v 36.14898439 -42.64995815 28.78574136
v 37.91532953 -3.38489842 38.55146146
v 35.89616988 -3.16822070 37.75881537
v 37.91532953 -3.37329017 28.78574136
v 35.89616988 -42.58418000 28.78574136
v 36.13317109 -42.64609065 28.78574136
v 37.91532953 -3.37329017 37.75881537
v 35.89616988 -3.16822070 35.19865918
v 36.14898439 -3.37329017 28.78574136
v 35.89616988 -3.21852119 32.94713390
v 35.89616988 -3.18756587 33.92085882
v 35.89616988 -3.17982704 34.23746182
v 35.89616988 -3.56675140 28.78574136
v 35.89616988 -3.37329017 28.78801933
f 1 2 3
f 1 3 7
f 1 7 17
f 1 17 25
f 1 25 29
f 1 29 34
f 1 34 38
f 1 38 37
f 1 37 36
f 1 36 40
f 1 40 39
f 1 39 31
f 1 31 26
f 1 26 19
f 1 19 8
f 1 8 4
f 1 4 9
f 1 9 20
f 1 20 11
f 1 11 6
f 1 6 2
f 2 5 3
f 2 6 16
f 2 16 24
f 2 24 30
f 2 30 33
f 2 33 28
f 2 28 21
f 2 21 10
f 2 10 5
f 3 5 7
f 4 8 18
f 4 18 9
f 5 10 7
f 6 11 12
f 6 12 13
f 6 13 14
f 6 14 15
f 6 15 16
f 7 10 17
f 8 19 18
f 9 18 20
f 10 21 17
f 11 20 22
f 11 22 12
f 12 22 23
f 12 23 27
f 12 27 32
f 12 32 31
f 12 31 39
f 12 39 35
f 12 35 30
f 12 30 24
f 12 24 15
f 12 15 14
f 12 14 13
f 15 24 16
f 17 21 25
f 18 19 22
f 18 22 20
f 19 26 27
f 19 27 22
f 21 28 29
f 21 29 25
f 22 27 23
f 26 31 32
f 26 32 27
f 28 33 29
f 29 33 30
f 29 30 34
f 30 35 36
f 30 36 37
f 30 37 38
f 30 38 34
f 35 40 36
f 35 39 40

