# https://github.com/mikedh/trimesh
v 23.35780139 13.61888626 16.70285697
v 23.35780139 14.47491371 16.66896288
v 23.35056221 14.47145431 16.67101678
v 22.07058497 13.61888626 16.70182907
v 22.07058497 12.33916837 16.70182907
v 23.35780139 12.33916837 16.70182907
v 23.35780139 15.11131325 16.35981018
v 22.07058497 14.46799587 16.66999078
v 23.35056221 15.11131325 16.35981018
v 21.13873682 13.61888626 16.66999078
v 21.13084161 12.33916837 16.66999078
v 21.24534882 14.39709251 16.65971938
v 21.23547791 11.57998404 16.65971938
v 22.07058497 11.51772775 16.66999078
v 23.35056221 11.51599852 16.66999078
v 23.35780139 11.51599852 16.66999078
v 23.35780139 19.93792479 11.58283738
v 23.21762903 19.93792479 11.58591823
v 21.98569431 19.93792479 11.60954092
v 20.71164038 19.93792479 11.62802886
v 22.07058497 15.10785481 16.35467448
v 16.63546266 19.93792479 11.62802886
v 20.49842018 13.61888626 16.59706690
v 20.49118100 12.33916837 16.59912080
v 20.80772163 14.85364055 16.34953878
v 16.63546266 2.27436086 11.62802886
v 23.35714155 2.27436086 11.62802886
v 23.35780139 2.27436086 10.94912488
v 23.35780139 19.93792479 6.37140644
v 16.63546266 19.93792479 6.21015397
v 16.63546266 14.89860414 11.77490167
v 18.77292054 13.61888626 15.47959840
v 18.80648471 14.55100425 15.43646082
v 19.46391144 14.94529648 15.74253267
v 19.85810354 15.59380201 15.52478989
v 19.51195016 13.61888626 16.07736196
v 19.51195016 12.33916837 16.07736196
v 19.50537082 11.04388605 15.72198987
v 16.63546266 2.27436086 6.21118092
v 18.81437991 11.45720068 15.43337997
v 18.77884385 12.33916837 15.47754355
v 16.63546266 10.74470916 11.77284777
v 23.35780139 2.27436086 6.37140644
v 16.63546266 13.61888626 11.78414612
v 16.63546266 12.33916837 11.78722696
v 16.63546266 12.02269734 11.78722696
f 1 2 3
f 1 3 4
f 1 4 5
f 1 5 6
f 1 6 16
f 1 16 28
f 1 28 43
f 1 43 29
f 1 29 17
f 1 17 7
f 1 7 2
f 2 7 3
f 3 8 4
f 3 7 9
f 3 9 8
f 4 10 11
f 4 11 5
f 4 8 12
f 4 12 10
f 5 11 13
f 5 13 14
f 5 14 15
f 5 15 16
f 5 16 6
f 7 17 18
f 7 18 19
f 7 19 20
f 7 20 22
f 7 22 9
f 8 9 21
f 8 21 12
f 9 22 21
f 10 12 23
f 10 23 24
f 10 24 11
f 11 24 13
f 12 21 25
f 12 25 23
f 13 26 14
f 13 24 26
f 14 26 15
f 15 26 27
f 15 27 16
f 16 27 28
f 17 29 30
f 17 30 22
f 17 22 20
f 17 20 19
f 17 19 18
f 21 22 25
f 22 30 39
f 22 39 26
f 22 26 42
f 22 42 46
f 22 46 45
f 22 45 44
f 22 44 31
f 22 31 32
f 22 32 33
f 22 33 34
f 22 34 35
f 22 35 25
f 23 25 34
f 23 34 36
f 23 36 24
f 24 37 38
f 24 38 26
f 24 36 37
f 25 35 34
f 26 39 43
f 26 43 28
f 26 28 27
f 26 38 40
f 26 40 41
f 26 41 42
f 29 43 30
f 30 43 39
f 31 44 32
f 32 36 33
f 32 44 45
f 32 45 46
f 32 46 41
f 32 41 37
f 32 37 36
f 33 36 34
f 37 41 40
f 37 40 38
f 41 46 42

