# https://github.com/mikedh/trimesh
v 37.91532953 -42.70072015 17.28279399
v 37.91532953 -42.70072015 19.84125362
v 37.91532953 -42.49865239 16.52123243
v 39.98951535 -42.70382865 17.28279399
v 38.70961425 -42.70382865 18.56283144
v 37.91532953 -42.69139465 21.12129108
v 39.98951535 -42.70382865 19.84125362
v 37.91532953 -42.37430094 16.05444250
v 51.50730175 -42.70382865 17.28279399
v 51.50730175 -42.70382865 19.84125362
v 51.50730175 -42.66030965 21.12129108
v 37.91532953 -42.40849825 22.41505838
v 37.91532953 -41.98881259 15.65710562
v 51.50730175 -42.37430094 16.05444250
v 51.50730175 -42.33077812 22.07344565
v 37.91532953 -42.04788172 23.11685759
v 37.91532953 -41.75254751 15.41402091
v 51.50730175 -41.75254751 15.41402091
v 51.50730175 -41.40747729 22.48208851
v 37.91532953 -41.54115424 23.54649808
v 37.91532953 -41.64685088 23.47219921
v 37.91532953 -41.35773748 15.36152731
v 51.50730175 -41.11525158 15.33003038
v 51.50730175 -40.12977693 22.57819266
v 51.50730175 -19.75805336 23.54649808
v 37.91532953 -14.57263839 23.54649808
v 37.91532953 -41.11525158 15.33003038
v 37.91532953 -40.50282747 15.30903370
v 51.50730175 -40.12977693 15.29692009
v 51.50730175 -19.73007495 23.54649808
v 51.50597158 -14.57263839 23.54649808
v 37.91532953 -10.94471358 18.62986158
v 37.91532953 -40.12977693 15.29692009
v 51.50730175 -39.37745506 15.33003038
v 47.66626542 -37.56815540 15.29611149
v 47.66626542 -13.25452371 15.29611149
v 47.66626542 -10.94471358 15.29692009
v 48.46454161 -10.94471358 15.33003038
v 51.50730175 -14.57263839 23.54569044
v 49.69920736 -10.94471358 18.00478415
v 49.56882294 -10.94471358 18.07423720
v 48.94616843 -10.94471358 18.35851049
v 48.69604096 -10.94471358 18.41907952
v 47.66626542 -10.94471358 18.62986158
v 37.91532953 -10.94471358 15.29692009
v 49.10449216 -10.94471358 15.73786560
v 51.50730175 -17.09695410 17.28360163
v 51.50730175 -14.57263839 21.12048344
v 49.87216774 -10.94471358 17.28279399
v 49.86684515 -10.94471358 17.41604757
v 49.76040858 -10.94471358 16.37748051
v 51.50730175 -15.99023270 17.63732797
v 51.50730175 -14.62548671 19.84125362
v 51.50730175 -14.92703792 18.74696336
v 51.50730175 -15.34982827 18.10734845
f 1 2 6
f 1 6 12
f 1 12 16
f 1 16 21
f 1 21 20
f 1 20 26
f 1 26 32
f 1 32 45
f 1 45 33
f 1 33 28
f 1 28 27
f 1 27 22
f 1 22 17
f 1 17 13
f 1 13 8
f 1 8 3
f 1 3 4
f 1 4 5
f 1 5 2
f 2 5 7
f 2 7 6
f 3 8 4
f 4 8 14
f 4 14 9
f 4 9 10
f 4 10 7
f 4 7 5
f 6 7 10
f 6 10 11
f 6 11 12
f 8 13 14
f 9 14 18
f 9 18 23
f 9 23 29
f 9 29 34
f 9 34 47
f 9 47 52
f 9 52 55
f 9 55 54
f 9 54 53
f 9 53 48
f 9 48 39
f 9 39 30
f 9 30 25
f 9 25 24
f 9 24 19
f 9 19 15
f 9 15 11
f 9 11 10
f 11 15 12
f 12 15 16
f 13 17 18
f 13 18 14
f 15 19 20
f 15 20 21
f 15 21 16
f 17 22 18
f 18 22 23
f 19 24 20
f 20 24 25
f 20 25 30
f 20 30 31
f 20 31 26
f 22 27 23
f 23 27 28
f 23 28 29
f 26 31 44
f 26 44 32
f 28 33 29
f 29 33 35
f 29 35 36
f 29 36 37
f 29 37 38
f 29 38 34
f 30 39 31
f 31 39 40
f 31 40 41
f 31 41 42
f 31 42 43
f 31 43 44
f 32 44 43
f 32 43 42
f 32 42 41
f 32 41 40
f 32 40 50
f 32 50 49
f 32 49 51
f 32 51 46
f 32 46 38
f 32 38 37
f 32 37 45
f 33 45 36
f 33 36 35
f 34 38 46
f 34 46 47
f 36 45 37
f 39 48 49
f 39 49 50
f 39 50 40
f 46 51 47
f 47 51 52
f 48 53 49
f 49 53 54
f 49 54 51
f 51 54 55
f 51 55 52

