# https://github.com/mikedh/trimesh
v 37.91532953 -3.37066988 34.71335198
v 37.91532953 -3.37237383 32.34098376
v 37.91532953 -3.37237383 37.75894934
v 72.93325218 -3.37237383 37.75894934
v 72.93325218 -3.37237383 32.34098376
v 37.91532953 -20.77604711 32.34098376
v 37.91532953 -3.38429961 38.55208983
v 72.93325218 -3.37748474 38.08890186
v 72.93325218 -19.57831912 32.34098376
v 72.93325218 -19.71121036 40.34684485
v 37.91532953 -20.77434411 33.92021149
v 37.91532953 -3.39281842 39.03878990
v 72.93325218 -3.39281842 39.03878990
v 72.93325218 -14.56933346 40.34684485
v 41.27110038 -19.71121036 40.34684485
v 37.91532953 -20.71982331 35.20005204
v 37.91532953 -3.48141258 39.54978537
v 50.22781830 -3.53422848 39.86327951
v 55.34888064 -3.53422848 39.86406331
v 72.93325218 -3.42859764 39.25118246
v 72.93325218 -4.29579957 40.34292585
v 37.91532953 -14.56933346 40.34684485
v 40.03025386 -19.67713700 40.34684485
v 37.91532953 -19.60217257 40.34684485
v 37.91532953 -3.53593243 39.86327951
v 72.93325218 -3.73015839 39.98789366
v 72.93325218 -3.53422848 39.86406331
v 38.71056778 -4.29579957 40.34214205
v 68.14125413 -4.29579957 40.34292585
v 37.91532953 -4.29579957 40.33352121
f 1 2 6
f 1 6 11
f 1 11 16
f 1 16 24
f 1 24 22
f 1 22 30
f 1 30 25
f 1 25 17
f 1 17 12
f 1 12 7
f 1 7 3
f 1 3 4
f 1 4 5
f 1 5 2
f 2 5 9
f 2 9 6
f 3 7 4
f 4 8 13
f 4 13 20
f 4 20 27
f 4 27 26
f 4 26 21
f 4 21 14
f 4 14 10
f 4 10 9
f 4 9 5
f 4 7 8
f 6 10 11
f 6 9 10
f 7 12 13
f 7 13 8
f 10 14 22
f 10 22 24
f 10 24 23
f 10 23 15
f 10 15 16
f 10 16 11
f 12 17 18
f 12 18 19
f 12 19 20
f 12 20 13
f 14 21 29
f 14 29 22
f 15 23 16
f 16 23 24
f 17 25 18
f 18 25 19
f 19 26 27
f 19 27 20
f 19 25 28
f 19 28 26
f 21 26 29
f 22 28 30
f 22 29 28
f 25 30 28
f 26 28 29

