# https://github.com/mikedh/trimesh
v 115.05428953 -21.28192897 14.62824514
v 115.05428953 -35.58045221 14.63245020
v 115.05428953 -21.28192897 9.29119410
v 88.51423273 -21.28192897 16.67105873
v 115.05428953 -35.58045221 9.29539916
v 88.51423273 -31.17261472 16.67105873
v 88.33694145 -31.93968186 16.66012558
v 87.34328755 -32.64375898 16.54827108
v 87.34328755 -33.68377911 15.90826244
v 86.06514298 -33.68517889 15.90910345
v 84.78287536 -33.68657867 15.90994446
v 82.22246318 -33.68797844 15.91162648
v 80.94431671 -33.68797844 15.91246749
v 105.25793054 -35.58045221 14.63245020
v 114.25441722 -21.28192897 8.11209816
v 87.34328755 -21.28192897 16.70385817
v 114.24205187 -35.58045221 8.11209816
v 87.34328755 -31.17261472 16.70301716
v 87.34328755 -32.00407167 16.67105873
v 80.94431671 -32.65215765 16.55247614
v 79.66617214 -32.65355743 16.54743007
v 79.66617214 -33.68377911 15.90742142
v 103.97566101 -35.58045221 14.49452435
v 79.66617214 -34.32347023 15.23545435
v 72.93323591 -34.51383629 14.24558595
v 78.49110391 -21.28192897 8.11209816
v 83.50472889 -21.28192897 16.70385817
v 78.67664130 -35.58045221 8.11209816
v 79.66617214 -31.17261472 16.70301716
v 79.66617214 -32.01387012 16.67105873
v 80.94431671 -32.01247034 16.67105873
v 78.98586933 -31.94668076 16.66012558
v 80.94431671 -35.58045221 10.99844514
v 72.93323591 -33.93433564 14.44995075
v 72.93323591 -34.66640832 13.43905707
v 79.78574069 -35.58045221 10.71670635
v 78.55707276 -33.93993475 8.11209816
v 72.93323591 -32.45199315 9.42155085
v 72.93323591 -21.28192897 9.41398175
v 79.66617214 -21.28192897 16.70301716
v 78.56944192 -35.58045221 9.01618436
v 72.93323591 -34.67900633 10.87986254
v 72.93323591 -34.63981253 10.65447151
v 72.93323591 -34.52643429 10.00437073
v 72.93323591 -33.73277136 9.59479918
v 79.47651265 -21.28192897 16.69460705
v 78.96525407 -31.17261472 16.67105873
v 72.93323591 -32.45199315 14.62824514
v 72.93323591 -32.78233705 14.60049177
v 72.93323591 -33.73277136 14.52059570
v 72.93323591 -34.67900633 12.15987983
v 78.63953382 -35.58045221 9.42407389
v 79.55485066 -35.58045221 10.49299830
v 72.93323591 -21.28192897 14.62824514
v 78.96525407 -21.28192897 16.67105873
f 1 2 5
f 1 5 3
f 1 3 15
f 1 15 26
f 1 26 39
f 1 39 54
f 1 54 55
f 1 55 46
f 1 46 40
f 1 40 27
f 1 27 16
f 1 16 4
f 1 4 2
f 2 4 6
f 2 6 7
f 2 7 8
f 2 8 9
f 2 9 10
f 2 10 11
f 2 11 12
f 2 12 13
f 2 13 14
f 2 14 23
f 2 23 33
f 2 33 36
f 2 36 53
f 2 53 52
f 2 52 41
f 2 41 28
f 2 28 17
f 2 17 5
f 3 5 15
f 4 16 6
f 5 17 15
f 6 16 18
f 6 18 7
f 7 18 19
f 7 19 8
f 8 19 20
f 8 20 9
f 9 20 10
f 10 20 11
f 11 20 12
f 12 20 13
f 13 20 21
f 13 21 22
f 13 22 14
f 14 22 24
f 14 24 25
f 14 25 23
f 15 17 28
f 15 28 37
f 15 37 26
f 16 27 29
f 16 29 18
f 18 29 30
f 18 30 31
f 18 31 19
f 19 31 20
f 20 31 30
f 20 30 21
f 21 30 32
f 21 32 25
f 21 25 22
f 22 25 24
f 23 25 33
f 25 32 34
f 25 34 50
f 25 50 49
f 25 49 48
f 25 48 54
f 25 54 39
f 25 39 38
f 25 38 45
f 25 45 44
f 25 44 43
f 25 43 42
f 25 42 51
f 25 51 35
f 25 35 36
f 25 36 33
f 26 37 38
f 26 38 39
f 27 40 29
f 28 41 42
f 28 42 43
f 28 43 44
f 28 44 45
f 28 45 38
f 28 38 37
f 29 40 46
f 29 46 47
f 29 47 32
f 29 32 30
f 32 47 48
f 32 48 49
f 32 49 50
f 32 50 34
f 35 51 41
f 35 41 52
f 35 52 53
f 35 53 36
f 41 51 42
f 46 55 47
f 47 55 54
f 47 54 48

