# https://github.com/mikedh/trimesh
v 116.76160731 22.72882121 -12.55583120
v 116.76160731 14.76729714 -12.55583120
v 116.76160731 22.72882121 -14.65377203
v 94.59458424 22.72882121 -12.55583120
v 105.26036012 14.95199543 -13.17484221
v 116.76160731 14.95199543 -13.17299332
v 94.59458424 14.76807713 -12.55583120
v 101.41937951 14.95199543 -13.17504722
v 103.98003198 14.95199543 -13.17504722
v 116.76160731 18.37554457 -14.65356702
v 94.59458424 18.37554457 -14.62871619
v 94.59458424 22.72882121 -14.62871619
v 116.76160731 14.95745151 -13.18038698
v 94.59458424 14.82964259 -12.76223654
v 101.41937951 15.45231896 -13.81480128
v 94.59458424 14.95277541 -13.17443124
v 102.69970765 15.45231896 -13.81480128
v 116.76160731 15.45076090 -13.81254237
v 116.76160731 17.09590296 -14.59072097
v 94.59458424 17.09590296 -14.55929843
v 98.86089345 15.45309895 -13.81480128
v 116.76160731 16.09058170 -14.30339642
v 94.59458424 15.12032928 -13.38802523
v 116.76160731 15.45777314 -13.81808713
v 95.01991284 16.09447782 -14.28470728
v 94.59458424 16.09525780 -14.28450227
v 95.01991284 15.45465701 -13.81418530
v 94.59458424 15.45543700 -13.81397934
v 94.59458424 15.66896996 -13.97129994
f 1 2 6
f 1 6 13
f 1 13 18
f 1 18 24
f 1 24 22
f 1 22 19
f 1 19 10
f 1 10 3
f 1 3 12
f 1 12 4
f 1 4 7
f 1 7 2
f 2 5 6
f 2 7 8
f 2 8 9
f 2 9 5
f 3 10 11
f 3 11 12
f 4 12 11
f 4 11 20
f 4 20 26
f 4 26 29
f 4 29 28
f 4 28 23
f 4 23 16
f 4 16 14
f 4 14 7
f 5 13 6
f 5 9 13
f 7 14 8
f 8 15 17
f 8 17 9
f 8 14 16
f 8 16 15
f 9 17 18
f 9 18 13
f 10 19 11
f 11 19 20
f 15 16 21
f 15 21 22
f 15 22 17
f 16 23 21
f 17 22 24
f 17 24 18
f 19 22 25
f 19 25 26
f 19 26 20
f 21 23 27
f 21 27 22
f 22 27 25
f 23 28 27
f 25 27 29
f 25 29 26
f 27 28 29

