# https://github.com/mikedh/trimesh
v 39.96043103 42.70411407 44.16178810
v 37.91402764 42.68746777 42.88202911
v 38.68185766 42.70203090 44.16178810
v 37.91402764 42.70203090 44.92672037
v 37.91402764 42.70203090 46.72216452
v 72.93252254 42.70203090 46.72216452
v 72.93252254 42.70203090 44.16178810
v 37.91402764 42.41277907 41.61946011
v 37.91402764 42.69995154 44.16178810
v 72.93252254 42.67081766 43.19487782
v 72.93252254 42.66041325 42.88202911
v 37.91402764 42.38572836 47.93402489
v 41.24243057 42.38572836 47.93488429
v 72.93252254 42.62503748 47.01868361
v 37.91402764 41.99242858 40.96711831
v 72.93252254 42.42110412 42.16522631
v 72.93252254 42.34202753 41.93316822
v 37.91402764 41.71566052 48.57433504
v 71.96245317 41.71774369 48.57519349
v 72.93252254 42.38572836 47.93488429
v 37.91402764 41.76144070 40.72990285
v 72.93252254 41.65115087 41.62375713
v 37.91402764 41.40559986 40.41877294
v 37.91402764 41.33276516 48.63363866
v 52.76329559 41.71566052 48.57519349
v 72.93252254 41.71774369 48.57519349
v 54.04529609 41.07680974 48.67317505
v 72.93252254 41.42640869 41.52319831
v 37.91402764 40.14662395 40.06466904
v 37.91402764 41.07473038 48.67317505
v 72.93252254 41.07680974 48.67317505
v 37.91402764 40.51911490 48.69122348
v 72.93252254 40.45876778 41.44584529
v 37.91402764 21.44720821 39.92457430
v 72.93252254 40.14662395 41.42092068
v 72.93252254 40.14662395 48.70325513
v 37.91402764 40.14662395 48.70325513
v 37.91402764 21.44720821 48.70325513
v 72.93252254 21.44720821 41.41490485
v 72.93252254 39.96350323 48.69637990
v 47.64214977 38.86683921 48.70411549
v 47.64214977 21.44720821 48.70411549
v 45.08157686 37.58705447 48.70411549
v 46.36357640 38.86683921 48.70411549
v 45.08157686 21.44720821 48.70411549
v 72.93252254 21.44720821 46.77888993
v 72.93252254 39.39748334 48.67317505
v 48.43740059 21.44720821 48.67317505
f 1 2 3
f 1 3 4
f 1 4 5
f 1 5 6
f 1 6 7
f 1 7 2
f 2 8 15
f 2 15 21
f 2 21 23
f 2 23 29
f 2 29 34
f 2 34 38
f 2 38 37
f 2 37 32
f 2 32 30
f 2 30 24
f 2 24 18
f 2 18 12
f 2 12 5
f 2 5 4
f 2 4 9
f 2 9 3
f 2 7 10
f 2 10 11
f 2 11 8
f 3 9 4
f 5 12 13
f 5 13 14
f 5 14 6
f 6 14 20
f 6 20 26
f 6 26 31
f 6 31 36
f 6 36 40
f 6 40 47
f 6 47 46
f 6 46 39
f 6 39 35
f 6 35 33
f 6 33 28
f 6 28 22
f 6 22 17
f 6 17 16
f 6 16 11
f 6 11 10
f 6 10 7
f 8 11 16
f 8 16 17
f 8 17 15
f 12 18 13
f 13 18 19
f 13 19 26
f 13 26 20
f 13 20 14
f 15 17 21
f 17 22 23
f 17 23 21
f 18 24 25
f 18 25 19
f 19 25 27
f 19 27 31
f 19 31 26
f 22 28 23
f 23 28 29
f 24 30 27
f 24 27 25
f 27 30 32
f 27 32 31
f 28 33 29
f 29 33 35
f 29 35 34
f 31 32 36
f 32 37 36
f 34 35 39
f 34 39 46
f 34 46 48
f 34 48 42
f 34 42 45
f 34 45 38
f 36 37 44
f 36 44 41
f 36 41 42
f 36 42 40
f 37 38 45
f 37 45 43
f 37 43 44
f 40 42 47
f 41 44 43
f 41 43 45
f 41 45 42
f 42 48 47
f 46 47 48

