# https://github.com/mikedh/trimesh
v 10.60210099 -39.21363872 -11.67989886
v 10.62286119 -37.99982866 -11.67989886
v 12.42378868 -40.49764367 -15.58657085
v 12.42212954 -52.01274370 -15.59296425
v 12.42212954 -53.29089780 -15.59394733
v 10.61040430 -53.29089780 -11.67989886
v 10.71917510 -36.82404337 -11.67989886
v 12.44786715 -39.21656414 -15.47641267
v 12.95850404 -39.21656414 -16.11621440
v 12.94106974 -40.49764367 -16.22637162
v 12.93940679 -52.01274370 -16.23325609
v 12.93940679 -53.29089780 -16.23374811
v 12.43126052 -54.57197732 -15.55558883
v 10.61289492 -53.35524184 -11.67989886
v 15.00520516 -35.97876408 -16.65323349
v 13.96483414 -37.50845684 -16.55881328
v 12.47194563 -38.57602248 -15.36379630
v 12.23531061 -34.49879588 -11.67989886
v 13.66094109 -38.36250859 -16.66011796
v 13.59784045 -39.21656414 -16.67093859
v 13.58123382 -40.49764367 -16.67093859
v 13.57957086 -53.29089780 -16.67093859
v 13.62357807 -54.57197732 -16.66257806
v 12.98424547 -54.57197732 -16.19538961
v 13.58040234 -44.33210978 -16.67093859
v 13.57957086 -49.45350626 -16.67093859
v 12.45118924 -55.24176559 -15.46411884
v 10.66105187 -54.57197732 -11.67989886
v 15.76576162 -35.48154142 -16.67339678
v 14.85076803 -36.65732671 -16.66552827
v 18.84453045 -30.86029302 -16.65323349
v 19.08365609 -30.70235263 -16.65962594
v 16.07463590 -29.38032482 -11.67989886
v 14.39244166 -39.21656414 -16.70339476
v 15.67193833 -36.65732671 -16.69798444
v 14.39161018 -37.93548081 -16.67782306
v 14.39244166 -53.29089780 -16.70339476
v 14.39244166 -54.57197732 -16.68667561
v 13.69664498 -55.22421687 -16.64880721
v 13.20676448 -55.33536004 -15.93376453
v 13.11294118 -55.49915319 -14.71907722
v 10.89187801 -55.27978845 -11.67989886
v 19.08365609 -31.53885565 -16.68126529
v 17.19471801 -27.94130299 -11.67989886
v 18.92257859 -25.82956747 -11.67989886
v 19.08365609 -25.82371663 -11.67989886
v 16.95143881 -35.37917261 -16.70388678
v 19.08365609 -53.29089780 -16.70339476
v 19.08365609 -54.57197732 -16.68667561
v 14.39244166 -55.23298932 -16.65421753
v 14.39244166 -55.47867904 -15.99867973
v 14.39244166 -55.70389081 -14.71907722
v 13.11294118 -55.63954296 -11.67989886
v 19.08365609 -32.81701166 -16.69503423
v 18.23093547 -34.09809118 -16.70339476
v 19.08365609 -55.70389081 -11.67989886
v 19.08365609 -34.09809118 -16.70339476
v 19.08365609 -55.23298932 -16.65421753
v 19.08365609 -55.39678247 -16.21801109
v 19.08365609 -55.47867904 -15.99867973
v 14.39244166 -55.70389081 -11.67989886
v 19.08365609 -55.70389081 -14.71907722
f 1 2 3
f 1 3 4
f 1 4 5
f 1 5 6
f 1 6 14
f 1 14 28
f 1 28 42
f 1 42 53
f 1 53 61
f 1 61 56
f 1 56 46
f 1 46 45
f 1 45 44
f 1 44 33
f 1 33 18
f 1 18 7
f 1 7 2
f 2 7 8
f 2 8 3
f 3 8 9
f 3 9 10
f 3 10 11
f 3 11 5
f 3 5 4
f 5 11 12
f 5 12 13
f 5 13 6
f 6 13 14
f 7 15 16
f 7 16 17
f 7 17 8
f 7 18 15
f 8 17 9
f 9 17 19
f 9 19 10
f 10 19 20
f 10 20 21
f 10 21 11
f 11 21 12
f 12 22 23
f 12 23 24
f 12 24 13
f 12 21 25
f 12 25 26
f 12 26 22
f 13 24 27
f 13 27 28
f 13 28 14
f 15 29 30
f 15 30 19
f 15 19 16
f 15 18 33
f 15 33 31
f 15 31 32
f 15 32 29
f 16 19 17
f 19 34 20
f 19 30 29
f 19 29 35
f 19 35 36
f 19 36 34
f 20 34 21
f 21 34 25
f 22 37 23
f 22 26 34
f 22 34 37
f 23 38 39
f 23 39 24
f 23 37 38
f 24 39 27
f 25 34 26
f 27 40 41
f 27 41 42
f 27 42 28
f 27 39 40
f 29 32 43
f 29 43 35
f 31 33 44
f 31 44 45
f 31 45 32
f 32 45 46
f 32 46 56
f 32 56 62
f 32 62 60
f 32 60 59
f 32 59 58
f 32 58 49
f 32 49 48
f 32 48 57
f 32 57 54
f 32 54 43
f 34 36 35
f 34 35 47
f 34 47 37
f 35 43 47
f 37 48 49
f 37 49 38
f 37 47 48
f 38 49 58
f 38 58 50
f 38 50 39
f 39 50 51
f 39 51 40
f 40 51 52
f 40 52 41
f 41 52 53
f 41 53 42
f 43 54 55
f 43 55 47
f 47 55 57
f 47 57 48
f 50 58 59
f 50 59 51
f 51 59 60
f 51 60 62
f 51 62 52
f 52 61 53
f 52 62 56
f 52 56 61
f 54 57 55

