# https://github.com/mikedh/trimesh
v 89.85944461 14.19075052 13.81214630
v 91.15667498 9.67304759 14.71613714
v 89.80997369 14.19075052 13.56968903
v 89.77836807 14.19075052 14.71613714
v 91.06872732 9.67304759 14.84189980
v 89.84295430 9.67304759 13.71713395
v 89.72614909 14.19075052 15.05636530
v 89.45268501 14.19075052 15.97809748
v 89.37847959 14.19075052 16.15077465
v 89.17235173 14.19075052 16.61794784
v 88.61992745 14.19075052 12.77569045
v 90.09855309 9.67304759 16.10385918
v 89.68629545 9.67304759 13.65642094
v 89.20120928 9.99855234 16.62898778
v 89.00057755 14.19075052 16.63214015
v 88.77658439 9.67304759 16.66880519
v 88.87552623 9.67304759 16.66052666
v 88.61992745 9.67304759 13.43249358
v 88.36432866 9.67304759 13.41159893
v 87.34056046 14.19075052 12.67949573
v 88.53335477 14.19075052 16.66959471
v 88.68863864 9.67304759 16.67550658
v 87.34056046 9.67304759 13.37099201
v 86.06119347 14.19075052 12.67673622
v 88.21042169 14.19075052 16.67905561
v 87.34056046 14.19075052 16.70389309
v 87.34056046 9.67304759 16.70389309
v 84.78045340 9.67304759 13.37099201
v 85.60358988 14.19075052 12.67752479
v 80.68675175 9.67304759 13.37138581
v 79.66298355 9.67304759 13.37178057
v 79.66298355 14.19075052 16.70389309
v 79.66298355 9.67304759 16.70389309
v 80.49848918 14.19075052 12.68777521
v 78.38773961 9.67304759 13.66588280
v 79.32630823 14.19075052 12.77569045
v 79.66298355 14.19075052 12.70709273
v 78.96214843 14.19075052 16.66959471
v 78.60348667 9.67304759 16.67471897
v 78.78625311 9.67304759 16.68339225
v 77.11936489 9.67304759 14.71613714
v 78.41247412 14.19075052 13.44313781
v 78.85496239 14.19075052 16.48784854
v 78.56638300 14.19075052 15.99583881
v 78.11977263 14.19075052 14.64320277
f 1 2 3
f 1 3 11
f 1 11 20
f 1 20 24
f 1 24 29
f 1 29 34
f 1 34 37
f 1 37 36
f 1 36 42
f 1 42 45
f 1 45 44
f 1 44 43
f 1 43 38
f 1 38 32
f 1 32 26
f 1 26 25
f 1 25 21
f 1 21 15
f 1 15 10
f 1 10 9
f 1 9 8
f 1 8 7
f 1 7 4
f 1 4 2
f 2 5 12
f 2 12 17
f 2 17 16
f 2 16 22
f 2 22 27
f 2 27 33
f 2 33 40
f 2 40 39
f 2 39 41
f 2 41 35
f 2 35 31
f 2 31 30
f 2 30 28
f 2 28 23
f 2 23 19
f 2 19 18
f 2 18 13
f 2 13 6
f 2 6 3
f 2 4 7
f 2 7 8
f 2 8 9
f 2 9 10
f 2 10 5
f 3 6 11
f 5 10 12
f 6 13 11
f 10 14 12
f 10 15 16
f 10 16 17
f 10 17 14
f 11 13 18
f 11 18 19
f 11 19 20
f 12 14 17
f 15 21 16
f 16 21 22
f 19 23 20
f 20 23 24
f 21 25 22
f 22 25 26
f 22 26 27
f 23 28 24
f 24 28 30
f 24 30 31
f 24 31 29
f 26 32 33
f 26 33 27
f 29 31 34
f 31 35 36
f 31 36 37
f 31 37 34
f 32 38 39
f 32 39 40
f 32 40 33
f 35 41 42
f 35 42 36
f 38 43 41
f 38 41 39
f 41 43 44
f 41 44 45
f 41 45 42

