# https://github.com/mikedh/trimesh
v 26.26746458 -19.07524394 19.97631283
v 26.26746458 -20.53810361 15.98860130
v 25.44267355 -19.75289285 19.97631283
v 26.26746458 -55.70411836 19.97631283
v 26.26746458 -21.30897445 15.42416477
v 25.47550830 -22.18382265 15.45486103
v 23.90602533 -24.42113767 15.33665820
v 23.37588483 -24.43547951 16.05778187
v 25.12877848 -21.80018139 16.30838820
v 24.14349928 -20.82135393 19.97631283
v 23.37588483 -55.70411836 19.97631283
v 26.26746458 -55.70411836 17.27736924
v 26.26746458 -21.56354110 15.33070247
v 23.41437772 -25.25654487 15.32566242
v 23.37588483 -25.28164403 15.32703784
v 23.37588483 -22.19816449 19.97631283
v 23.95555980 -23.22360006 16.63000741
v 23.37588483 -55.70411836 17.27736924
v 23.37588483 -55.48899082 16.05594956
v 26.26746458 -55.47823539 15.99730694
v 26.26746458 -22.59614759 15.31329311
v 25.87743073 -23.86539438 15.29588374
v 24.59750482 -25.14539659 15.29588374
v 24.67449061 -23.94068997 15.32062427
v 23.37588483 -25.71906813 15.31649989
v 23.37588483 -55.47823539 15.99730694
v 26.26746458 -55.24159700 15.34628047
v 26.26746458 -23.86539438 15.29588374
v 23.37588483 -26.42539880 15.30229732
v 23.37588483 -27.70540292 15.29588374
v 23.37588483 -55.24159700 15.34628047
v 26.26746458 -54.78624465 15.32474674
v 26.26746458 -30.65622144 15.29588374
v 23.37588483 -32.88636554 15.29588374
v 23.37588483 -54.61772903 15.31695773
v 26.26746458 -54.58545894 15.31558421
v 26.26746458 -53.30545673 15.29634158
v 23.37588483 -53.30545673 15.29634158
v 23.37588483 -54.58545894 15.31558421
v 26.26746458 -53.69627272 15.30183948
v 23.37588483 -53.36641049 15.29679942
f 1 2 3
f 1 3 10
f 1 10 16
f 1 16 11
f 1 11 4
f 1 4 12
f 1 12 20
f 1 20 27
f 1 27 32
f 1 32 36
f 1 36 40
f 1 40 37
f 1 37 33
f 1 33 28
f 1 28 21
f 1 21 13
f 1 13 5
f 1 5 2
f 2 5 6
f 2 6 7
f 2 7 8
f 2 8 9
f 2 9 10
f 2 10 3
f 4 11 18
f 4 18 12
f 5 13 6
f 6 13 7
f 7 14 15
f 7 15 8
f 7 13 14
f 8 15 25
f 8 25 29
f 8 29 30
f 8 30 34
f 8 34 38
f 8 38 41
f 8 41 39
f 8 39 35
f 8 35 31
f 8 31 26
f 8 26 19
f 8 19 18
f 8 18 11
f 8 11 16
f 8 16 10
f 8 10 17
f 8 17 9
f 9 17 10
f 12 19 20
f 12 18 19
f 13 21 22
f 13 22 23
f 13 23 24
f 13 24 14
f 14 23 25
f 14 25 15
f 14 24 23
f 19 26 20
f 20 26 31
f 20 31 27
f 21 28 22
f 22 28 33
f 22 33 34
f 22 34 30
f 22 30 23
f 23 29 25
f 23 30 29
f 27 31 32
f 31 35 32
f 32 35 36
f 33 37 34
f 34 37 38
f 35 39 36
f 36 39 40
f 37 40 41
f 37 41 38
f 39 41 40

