# https://github.com/mikedh/trimesh
v 74.94253205 42.70384081 -12.55536206
v 72.95046425 42.70384081 -12.55536206
v 125.73195208 42.69825314 -10.87993882
v 124.45014406 42.70104888 -12.15954038
v 125.73195208 42.70104888 -12.55536206
v 72.95046425 42.70104888 -12.15954038
v 72.95046425 14.77512942 -12.55536206
v 127.01375247 42.64794502 -9.85080417
v 80.94648122 42.67309908 -10.87993882
v 82.22273780 42.62279097 -9.85080417
v 127.01375247 42.64794502 -12.55536206
v 72.95046425 42.69266547 -11.84685486
v 72.95046425 14.65495062 -12.15954038
v 79.66467701 14.24131800 -12.55536206
v 128.14018890 42.32374566 -9.85080417
v 72.95046425 42.65912418 -10.87993882
v 80.94648122 42.61999904 -9.85080417
v 128.14018890 42.32374566 -12.55536206
v 72.95046425 14.59346716 -11.19262435
v 103.97457017 14.15467667 -9.85080417
v 72.95046425 14.57390078 -9.85080417
v 72.95046425 14.57390078 -10.87993882
v 87.34440508 14.24131800 -12.55536206
v 128.65623801 41.98836713 -9.85080417
v 128.58410555 42.03587950 -12.55536206
v 72.95046425 42.58087008 -10.64668215
v 79.66467701 42.55012835 -9.85080417
v 72.95046425 42.33492481 -9.92573141
v 104.03560738 14.15467667 -9.85080417
v 72.95046425 42.16444172 -9.85080417
v 127.01375247 14.24411374 -12.55536206
v 128.77831623 41.90452155 -9.85080417
v 128.77831623 41.90731729 -10.87993882
v 128.77831623 41.90731729 -12.55536206
v 127.01375247 14.57110694 -9.85080417
v 128.29001096 14.43695515 -12.55536206
v 128.29001096 14.75277110 -9.85080417
v 128.04030879 14.71643789 -9.85080417
v 128.86709728 41.78155082 -9.85080417
v 128.91703923 41.70888439 -12.55536206
v 128.72837809 14.65215678 -12.55536206
v 129.06131177 15.05461216 -9.85080417
v 128.91149352 14.99592063 -9.85080417
v 129.22222908 41.26450623 -9.85080417
v 129.22222908 41.26730197 -10.87993882
v 129.22222908 41.26730197 -12.55536206
v 129.11679944 14.87574374 -12.55536206
v 129.41089785 15.81760011 -9.85080417
v 129.57736088 40.12980462 -9.85080417
v 129.57736088 40.12980462 -12.55536206
v 129.45528647 15.81760011 -12.55536206
v 129.45528647 16.06913496 -9.85080417
v 129.63840190 38.84977398 -9.85080417
v 129.61620378 39.24663978 -12.55536206
v 129.63285618 17.09763266 -12.55536206
v 129.63285618 17.09763266 -9.85080417
v 129.63840190 37.82127628 -9.85080417
v 129.63285618 38.84977398 -12.55536206
f 1 2 3
f 1 3 4
f 1 4 5
f 1 5 11
f 1 11 18
f 1 18 25
f 1 25 34
f 1 34 40
f 1 40 46
f 1 46 50
f 1 50 54
f 1 54 58
f 1 58 55
f 1 55 51
f 1 51 47
f 1 47 41
f 1 41 36
f 1 36 31
f 1 31 23
f 1 23 14
f 1 14 7
f 1 7 2
f 2 6 3
f 2 7 13
f 2 13 19
f 2 19 22
f 2 22 21
f 2 21 30
f 2 30 28
f 2 28 26
f 2 26 16
f 2 16 12
f 2 12 6
f 3 8 5
f 3 5 4
f 3 6 9
f 3 9 10
f 3 10 8
f 5 8 11
f 6 12 9
f 7 14 13
f 8 15 18
f 8 18 11
f 8 10 17
f 8 17 27
f 8 27 30
f 8 30 21
f 8 21 20
f 8 20 29
f 8 29 35
f 8 35 38
f 8 38 37
f 8 37 43
f 8 43 42
f 8 42 48
f 8 48 52
f 8 52 56
f 8 56 57
f 8 57 53
f 8 53 49
f 8 49 44
f 8 44 39
f 8 39 32
f 8 32 24
f 8 24 15
f 9 12 16
f 9 16 10
f 10 16 17
f 13 14 19
f 14 20 21
f 14 21 22
f 14 22 19
f 14 23 29
f 14 29 20
f 15 24 25
f 15 25 18
f 16 26 17
f 17 26 28
f 17 28 27
f 23 31 29
f 24 32 33
f 24 33 34
f 24 34 25
f 27 28 30
f 29 31 35
f 31 36 37
f 31 37 38
f 31 38 35
f 32 39 33
f 33 39 34
f 34 39 40
f 36 41 42
f 36 42 43
f 36 43 37
f 39 44 45
f 39 45 46
f 39 46 40
f 41 47 42
f 42 47 48
f 44 49 45
f 45 49 50
f 45 50 46
f 47 51 48
f 48 51 52
f 49 53 50
f 50 53 54
f 51 55 56
f 51 56 52
f 53 57 55
f 53 55 58
f 53 58 54
f 55 57 56

