# https://github.com/mikedh/trimesh
v 32.92057720 24.82007312 26.89941605
v 29.38527830 24.82007312 26.89941605
v 32.92057720 19.98446681 26.89941605
v 32.92057720 24.82007312 23.48460299
v 29.09153582 24.82007312 26.89660558
v 29.08893377 24.78456954 26.89941605
v 30.58954616 19.98446681 26.89941605
v 32.92057720 19.98446681 22.63511530
v 30.91194179 24.82007312 21.99641904
v 26.26746839 24.82007312 25.64380479
v 29.08893377 20.94448659 26.89941605
v 29.09153582 19.98446681 26.89660558
v 30.88003034 19.98446681 21.19190078
v 29.82425906 24.82007312 21.28956663
v 26.26746839 19.98446681 25.64380479
v 26.26746839 24.82007312 19.76063016
v 29.95126386 19.98446681 20.60871189
v 28.68447033 24.82007312 20.62768363
v 26.26746839 19.98446681 20.31992839
v 26.27072287 24.82007312 19.72198465
v 26.26746839 24.80776485 19.73111856
v 29.20616750 19.98446681 20.24474630
v 28.06703119 24.82007312 20.32765730
v 28.12369270 19.98446681 20.01638909
v 27.12002742 24.82007312 19.97914953
v 28.31778250 19.98446681 20.02903692
v 28.01427277 24.82007312 20.30517354
f 1 2 6
f 1 6 11
f 1 11 7
f 1 7 3
f 1 3 8
f 1 8 4
f 1 4 9
f 1 9 14
f 1 14 18
f 1 18 23
f 1 23 27
f 1 27 25
f 1 25 20
f 1 20 16
f 1 16 10
f 1 10 5
f 1 5 2
f 2 5 6
f 3 7 12
f 3 12 15
f 3 15 19
f 3 19 24
f 3 24 26
f 3 26 22
f 3 22 17
f 3 17 13
f 3 13 8
f 4 8 9
f 5 10 6
f 6 10 15
f 6 15 11
f 7 11 12
f 8 13 9
f 9 13 14
f 10 16 21
f 10 21 19
f 10 19 15
f 11 15 12
f 13 17 14
f 14 17 18
f 16 20 21
f 17 22 18
f 18 22 23
f 19 21 20
f 19 20 24
f 20 25 22
f 20 22 26
f 20 26 24
f 22 25 27
f 22 27 23

