# https://github.com/mikedh/trimesh
v 37.91402764 14.08518194 15.29671930
v 37.91402764 14.08518194 19.04961808
v 37.91402764 17.10393054 15.29671930
v 47.64214977 14.08518194 15.29671930
v 37.91402764 14.57007832 23.64693777
v 46.36357640 14.08518194 19.05125295
v 37.91402764 18.38337381 15.29917256
v 38.68185766 20.81510675 15.29671930
v 47.64214977 20.81510675 15.29671930
v 47.72441598 20.81510675 15.29917256
v 47.92665723 14.08518194 15.30734691
v 37.91402764 19.60747567 23.64693777
v 72.93252254 14.57007832 23.64693777
v 46.39442718 14.08518194 19.05125295
v 37.91402764 20.81510675 15.32369561
v 37.98258345 20.81510675 15.32124426
v 48.43740059 20.81510675 15.32696535
v 48.43740059 14.08518194 15.32696535
v 39.77190018 20.81510675 22.46654531
v 38.78811850 20.81510675 22.10932047
v 38.05799541 20.81510675 21.63520145
v 37.91402764 20.81510675 21.53874316
v 40.00842029 19.69048778 23.64693777
v 41.24243057 20.81510675 22.62267732
v 41.06075587 20.81510675 22.61368553
v 39.96043103 20.81510675 22.51886211
v 47.64214977 14.08518194 19.04226116
v 47.66614440 14.08518194 19.03980885
v 48.84873735 14.08518194 18.82645449
v 48.92414931 14.08518194 18.80601861
v 49.70226165 14.08518194 18.43816806
v 49.95249217 14.08518194 18.28857458
v 72.93252254 14.57205466 21.11775837
v 72.93252254 19.71881853 23.64693777
v 72.93252254 20.81510675 17.37140003
v 48.66706455 14.08518194 15.50189836
v 72.93252254 18.38337381 17.37140003
v 72.93252254 17.10393054 17.44170040
v 72.93252254 16.34891432 17.64769690
v 72.93252254 16.10448883 17.71472753
v 72.93252254 15.46476625 18.18394194
v 72.93252254 14.95549370 18.82400218
v 72.93252254 14.64979779 19.83763597
v 41.24243057 19.71881853 23.64693777
v 72.93252254 20.81510675 22.62267732
v 49.77767361 14.08518194 17.27739309
v 49.60285506 14.08518194 16.45504196
v 49.07497323 14.08518194 15.81498077
f 1 2 5
f 1 5 12
f 1 12 22
f 1 22 15
f 1 15 7
f 1 7 3
f 1 3 8
f 1 8 9
f 1 9 4
f 1 4 11
f 1 11 18
f 1 18 36
f 1 36 48
f 1 48 47
f 1 47 46
f 1 46 32
f 1 32 31
f 1 31 30
f 1 30 29
f 1 29 28
f 1 28 27
f 1 27 14
f 1 14 6
f 1 6 2
f 2 6 5
f 3 7 8
f 4 9 10
f 4 10 11
f 5 6 14
f 5 14 13
f 5 13 34
f 5 34 44
f 5 44 23
f 5 23 12
f 7 15 16
f 7 16 8
f 8 16 15
f 8 15 22
f 8 22 21
f 8 21 20
f 8 20 19
f 8 19 26
f 8 26 25
f 8 25 24
f 8 24 45
f 8 45 35
f 8 35 17
f 8 17 10
f 8 10 9
f 10 17 18
f 10 18 11
f 12 19 20
f 12 20 21
f 12 21 22
f 12 23 24
f 12 24 25
f 12 25 26
f 12 26 19
f 13 14 27
f 13 27 28
f 13 28 29
f 13 29 30
f 13 30 31
f 13 31 32
f 13 32 33
f 13 33 43
f 13 43 42
f 13 42 41
f 13 41 40
f 13 40 39
f 13 39 38
f 13 38 37
f 13 37 35
f 13 35 45
f 13 45 34
f 17 35 37
f 17 37 18
f 18 37 38
f 18 38 39
f 18 39 40
f 18 40 41
f 18 41 42
f 18 42 43
f 18 43 33
f 18 33 36
f 23 44 24
f 24 44 34
f 24 34 45
f 32 46 33
f 33 46 47
f 33 47 48
f 33 48 36

