# https://github.com/mikedh/trimesh
v 125.73205125 42.70109465 14.71616670
v 125.73205125 42.37733772 15.94396882
v 127.01385545 42.34942606 15.90850046
v 127.01385545 42.65085900 14.71616670
v 125.73205125 42.70109465 10.87730387
v 72.95046615 42.70109465 14.71616670
v 72.95046615 42.62294735 15.01575933
v 123.17398474 42.37733772 15.94396882
v 125.73205125 41.75772789 16.58390500
v 127.01385545 41.69632834 16.54843759
v 127.97382504 42.23220320 15.70021953
v 127.54100744 42.49735251 8.99447218
v 127.01385545 42.65085900 8.99447218
v 128.13474235 42.32430633 14.71616670
v 80.94649838 42.67318681 10.87730387
v 72.95046615 42.70109465 12.15717623
v 72.95046615 42.37733772 15.94245939
v 82.22275496 42.37733772 15.94321458
v 125.73205125 41.11579025 16.66917897
v 127.01385545 41.05439071 16.66917897
v 83.50456298 41.75493596 16.58314981
v 86.06262758 41.11579025 16.66917897
v 127.80735438 40.92042009 16.65786060
v 128.31785778 41.43397096 16.13112054
v 129.12800530 41.09625438 15.70927518
v 128.77287350 41.89727855 14.71616670
v 128.13474235 42.32430633 8.99447218
v 82.82759084 42.59503569 8.99447218
v 128.77287350 41.90007048 10.87730387
v 72.95046615 42.65923098 10.87730387
v 72.95046615 42.67039488 11.18972526
v 72.95046615 41.75214784 16.58239652
v 77.10662577 41.75493596 16.58239652
v 127.01385545 40.13055982 16.70313790
v 72.95046615 41.11300214 16.66917897
v 72.95046615 40.87297256 16.67748038
v 72.95046615 40.13055982 16.70313790
v 127.96827169 40.13055982 16.66917897
v 128.61195237 40.13055982 16.56353002
v 129.25563305 40.13055982 15.92359289
v 129.57746767 40.13055982 14.71616670
v 129.22233587 41.25813285 14.71616670
v 128.77287350 41.90007048 8.99447218
v 80.94649838 42.58387179 8.99447218
v 129.22233587 41.26092478 8.99447218
v 72.95046615 42.41362135 10.15813050
v 80.26952624 42.53921618 8.99447218
v 127.01385545 14.19354054 16.70313790
v 127.77406101 14.19354054 16.67898886
v 128.05705655 37.57118889 16.66917897
v 128.05151083 38.85226841 16.66917897
v 87.34443369 37.57118889 16.70389309
v 72.95046615 39.37419125 16.66917897
v 78.96552391 14.19354054 16.66917897
v 79.66469036 14.19354054 16.70389309
v 79.66469036 37.57118889 16.70389309
v 128.69518770 38.85226841 16.60126111
v 129.28337689 38.85226841 15.96132588
v 129.63296298 38.85226841 14.71616670
v 129.63850869 38.85226841 13.43629434
v 129.57746767 40.13055982 8.99447218
v 129.41099702 40.66364656 8.99447218
v 72.95046615 42.33268212 9.92570053
v 79.66469036 42.46944085 8.99447218
v 87.34443369 14.19354054 16.70389309
v 128.05151083 14.19354054 16.66917897
v 128.05705655 23.49603520 16.66917897
v 72.95046615 17.09621000 14.71163840
v 78.56599968 14.19354054 15.99528481
v 72.95046615 16.82548064 14.62636443
v 72.95046615 15.99096286 14.36072977
v 72.95046615 15.35181716 13.88907881
v 72.95046615 14.92479129 13.24914263
v 72.95046615 14.62335834 12.15717623
v 128.69518770 14.19354054 16.60126111
v 129.28337689 14.19354054 15.96132588
v 129.63296298 17.09621000 14.71616670
v 129.63850869 37.57118889 13.43629434
v 129.63296298 38.85226841 8.99447218
v 72.95046615 41.41164316 9.51819337
v 79.02656303 42.36058996 8.99447218
v 78.12208302 14.19354054 14.64221206
v 72.95046615 14.57312079 10.87730387
v 129.48868282 14.19354054 15.05198194
v 129.62740963 15.81791859 14.71616670
v 129.63296298 17.09621000 8.99447218
v 72.95046615 40.44315666 9.44499297
v 78.67142932 42.23499513 8.99447218
v 78.41617762 14.19354054 13.44308536
v 72.95046615 14.57312079 8.99447218
v 129.54417812 14.19354054 14.71616670
v 129.52198000 16.42078066 8.99447218
v 72.95046615 40.13055982 9.42159912
v 78.26635746 41.41164316 8.99447218
v 79.32620525 14.19354054 12.77598223
v 79.66469036 14.19354054 12.70731013
v 72.95046615 19.98213170 8.99447218
v 99.70193908 14.19354054 8.99447218
v 129.30557501 14.19354054 13.81814303
v 129.07251762 15.04759419 8.99447218
v 129.23898065 15.41042859 8.99447218
v 129.42209608 15.81791859 8.99447218
v 107.90328295 14.19354054 8.99447218
v 129.20569110 14.19354054 13.57062063
v 128.29011394 14.74337314 8.99447218
v 127.01385545 14.57033077 8.99447218
v 127.01385545 14.19354054 12.65071160
v 128.29011394 14.19354054 13.03406972
v 128.21797767 14.19354054 13.00841220
f 1 2 3
f 1 3 4
f 1 4 13
f 1 13 5
f 1 5 16
f 1 16 6
f 1 6 7
f 1 7 2
f 2 7 8
f 2 8 9
f 2 9 3
f 3 9 10
f 3 10 11
f 3 11 4
f 4 12 13
f 4 11 14
f 4 14 12
f 5 13 15
f 5 15 16
f 6 16 31
f 6 31 30
f 6 30 46
f 6 46 63
f 6 63 80
f 6 80 87
f 6 87 93
f 6 93 97
f 6 97 90
f 6 90 83
f 6 83 74
f 6 74 73
f 6 73 72
f 6 72 71
f 6 71 70
f 6 70 68
f 6 68 53
f 6 53 37
f 6 37 36
f 6 36 35
f 6 35 32
f 6 32 17
f 6 17 7
f 7 17 18
f 7 18 8
f 8 18 9
f 9 19 20
f 9 20 10
f 9 18 17
f 9 17 21
f 9 21 22
f 9 22 19
f 10 23 24
f 10 24 11
f 10 20 23
f 11 24 25
f 11 25 26
f 11 26 14
f 12 14 27
f 12 27 43
f 12 43 45
f 12 45 62
f 12 62 61
f 12 61 79
f 12 79 86
f 12 86 92
f 12 92 102
f 12 102 101
f 12 101 100
f 12 100 105
f 12 105 106
f 12 106 103
f 12 103 98
f 12 98 90
f 12 90 97
f 12 97 94
f 12 94 88
f 12 88 81
f 12 81 64
f 12 64 47
f 12 47 44
f 12 44 28
f 12 28 13
f 13 28 15
f 14 26 29
f 14 29 43
f 14 43 27
f 15 28 30
f 15 30 31
f 15 31 16
f 17 32 33
f 17 33 21
f 19 34 20
f 19 22 37
f 19 37 34
f 20 34 23
f 21 33 32
f 21 32 35
f 21 35 22
f 22 35 36
f 22 36 37
f 23 34 38
f 23 38 39
f 23 39 24
f 24 39 25
f 25 40 41
f 25 41 42
f 25 42 26
f 25 39 40
f 26 42 29
f 28 44 30
f 29 42 45
f 29 45 43
f 30 44 47
f 30 47 46
f 34 48 49
f 34 49 50
f 34 50 51
f 34 51 38
f 34 37 56
f 34 56 52
f 34 52 65
f 34 65 48
f 37 53 54
f 37 54 55
f 37 55 56
f 38 51 57
f 38 57 39
f 39 57 40
f 40 57 58
f 40 58 59
f 40 59 41
f 41 59 60
f 41 60 61
f 41 61 62
f 41 62 42
f 42 62 45
f 46 47 63
f 47 64 63
f 48 65 55
f 48 55 54
f 48 54 69
f 48 69 82
f 48 82 89
f 48 89 95
f 48 95 96
f 48 96 98
f 48 98 103
f 48 103 107
f 48 107 109
f 48 109 108
f 48 108 104
f 48 104 99
f 48 99 91
f 48 91 84
f 48 84 76
f 48 76 75
f 48 75 66
f 48 66 49
f 49 66 67
f 49 67 50
f 50 67 75
f 50 75 57
f 50 57 51
f 52 56 55
f 52 55 65
f 53 68 54
f 54 68 70
f 54 70 71
f 54 71 72
f 54 72 73
f 54 73 74
f 54 74 69
f 57 75 76
f 57 76 58
f 58 76 77
f 58 77 59
f 59 77 78
f 59 78 60
f 60 78 86
f 60 86 79
f 60 79 61
f 63 64 81
f 63 81 80
f 66 75 67
f 69 74 83
f 69 83 82
f 76 84 85
f 76 85 77
f 77 85 86
f 77 86 78
f 80 81 88
f 80 88 87
f 82 83 90
f 82 90 89
f 84 91 85
f 85 91 86
f 86 91 92
f 87 88 93
f 88 94 93
f 89 90 95
f 90 96 95
f 90 98 96
f 91 99 100
f 91 100 101
f 91 101 102
f 91 102 92
f 93 94 97
f 99 104 100
f 100 104 105
f 103 106 107
f 104 108 106
f 104 106 105
f 106 108 109
f 106 109 107

