# https://github.com/mikedh/trimesh
v 114.60103964 21.27702337 41.13862420
v 114.60103964 21.27702337 46.77848551
v 114.60103964 21.32316601 41.13862420
v 124.11609069 21.27702337 41.17343339
v 118.68144659 21.27702337 48.65152685
v 114.60103964 39.39856308 48.67300527
v 114.60103964 38.92035688 41.14528958
v 124.11609069 21.27702337 48.70336959
v 124.11609069 40.14733360 41.18750529
v 119.33341831 21.27702337 48.68189309
v 114.60103964 40.14733360 48.70411168
v 114.60103964 39.62508320 48.68263326
v 114.60103964 40.14733360 41.15047462
v 120.61314200 21.27702337 48.70336959
v 124.11609069 40.14733360 48.70336959
v 119.33341831 40.14733360 48.70411168
v 124.11609069 41.42675207 41.27341800
v 119.66498981 21.27702337 48.68781830
v 114.60103964 41.07648543 48.67300527
v 114.60103964 41.33656141 41.24749567
v 124.11609069 40.83108704 48.68115100
v 124.11609069 41.07648543 48.67300527
v 114.60103964 41.42675207 41.25490219
v 124.11609069 41.53371874 41.32155892
v 114.60103964 41.27154433 48.64337921
v 124.11609069 41.54840014 48.60116446
v 114.60103964 42.35799470 41.70964599
v 124.11609069 42.33282495 41.70964599
v 114.60103964 41.71828928 48.57524309
v 124.11609069 41.71619085 48.57524309
v 115.49330865 41.71828928 48.57524309
v 114.60103964 42.66421713 42.88205582
v 124.11609069 42.67260705 42.88205582
v 124.11609069 42.43140552 42.00515592
v 114.60103964 42.38526289 47.93534213
v 124.11609069 42.20907844 48.10420400
v 124.11609069 42.38526289 47.93534213
v 114.60103964 42.70406447 44.16185677
v 124.11609069 42.68519002 43.21978145
v 114.60103964 42.48174121 47.56651104
v 124.11609069 42.70196985 46.72219790
v 114.60103964 42.70196985 46.72219790
v 119.33341831 42.70406447 44.16185677
v 124.11609069 42.70196985 44.16185677
f 1 2 6
f 1 6 12
f 1 12 11
f 1 11 19
f 1 19 25
f 1 25 29
f 1 29 35
f 1 35 40
f 1 40 42
f 1 42 38
f 1 38 32
f 1 32 27
f 1 27 23
f 1 23 20
f 1 20 13
f 1 13 7
f 1 7 3
f 1 3 4
f 1 4 8
f 1 8 14
f 1 14 18
f 1 18 10
f 1 10 5
f 1 5 2
f 2 5 6
f 3 7 4
f 4 7 9
f 4 9 17
f 4 17 24
f 4 24 28
f 4 28 34
f 4 34 33
f 4 33 39
f 4 39 44
f 4 44 41
f 4 41 37
f 4 37 36
f 4 36 30
f 4 30 26
f 4 26 22
f 4 22 21
f 4 21 15
f 4 15 8
f 5 10 11
f 5 11 12
f 5 12 6
f 7 13 9
f 8 15 16
f 8 16 11
f 8 11 14
f 9 13 17
f 10 18 11
f 11 16 22
f 11 22 19
f 11 18 14
f 13 20 17
f 15 21 16
f 16 21 22
f 17 20 23
f 17 23 24
f 19 22 25
f 22 26 25
f 23 27 28
f 23 28 24
f 25 26 29
f 26 30 31
f 26 31 29
f 27 32 33
f 27 33 34
f 27 34 28
f 29 31 37
f 29 37 35
f 30 36 31
f 31 36 37
f 32 38 39
f 32 39 33
f 35 37 40
f 37 41 40
f 38 42 41
f 38 41 43
f 38 43 39
f 39 43 44
f 40 41 42
f 41 44 43

