# https://github.com/mikedh/trimesh
v 10.60432843 17.09566077 -11.67989886
v 12.42370095 15.81824851 -15.58608073
v 12.42452861 11.97957543 -15.58312956
v 10.61013732 13.25698769 -11.67989886
v 10.61013732 29.89230565 -11.67989886
v 12.42203800 31.17293892 -15.59493233
v 12.42203800 29.89230565 -15.59493233
v 12.42203800 27.33104673 -15.59394924
v 12.42203800 26.05363638 -15.59296520
v 12.42286948 20.93433385 -15.58952297
v 12.94162279 15.81824851 -16.22588151
v 12.94245427 11.97957543 -16.22293130
v 12.44113144 11.23629499 -15.50837968
v 10.64250767 10.70216318 -11.67989886
v 10.62009977 11.97957543 -11.67989886
v 10.74709057 31.13754397 -11.67989886
v 12.43864082 31.98378823 -15.51674021
v 12.93913218 31.17293892 -16.23522608
v 12.93996365 27.33104673 -16.23375002
v 12.93996365 26.05363638 -16.23276598
v 12.94079131 20.93433385 -16.22932374
v 13.58238568 11.97957543 -16.67093859
v 13.63052738 10.69894598 -16.67093859
v 13.70273611 9.97818880 -16.66011986
v 10.82759881 9.41831556 -11.67989886
v 11.26252180 31.94195889 -11.67989886
v 12.63700888 32.71419797 -14.71907818
v 13.43547378 33.25154888 -15.66574796
v 13.11011492 32.38277849 -16.01785994
v 13.63716774 31.92909008 -16.66011986
v 13.57906740 31.17293892 -16.67093859
v 13.58072654 20.93433385 -16.67093859
v 13.58155802 15.81824851 -16.67093859
v 14.39247217 10.69894598 -16.70339667
v 14.47298041 9.49875706 -16.67782496
v 16.29816183 6.20387025 -16.64684295
v 13.61724664 5.57964344 -11.67989886
v 12.31994953 32.76568083 -11.67989886
v 13.27694410 33.32877317 -14.71907818
v 14.39247217 33.85968587 -14.71907818
v 16.04750232 34.49034900 -15.60771818
v 17.06508785 34.63836317 -16.01982802
v 17.56724216 34.38094887 -16.64340071
v 14.46800300 33.41565098 -16.05523440
v 14.94442350 33.11962263 -16.65323539
v 14.09200801 32.78176874 -16.51898062
v 14.39247217 31.17293892 -16.70339667
v 14.46800300 32.39565111 -16.67339869
v 16.95137778 10.69894598 -16.70388869
v 15.67150733 9.41831556 -16.70339667
v 16.95137778 6.86027385 -16.69356198
v 16.95137778 6.15238739 -16.66110390
v 18.23124442 5.55068481 -15.99868069
v 16.95137778 5.69869708 -15.99868069
v 16.95137778 3.15996048 -11.67989886
v 15.67150733 3.49137996 -11.67989886
v 14.85561576 4.29901303 -11.67989886
v 13.24291461 33.32877317 -11.67989886
v 13.95589005 33.66019265 -11.67989886
v 14.39247217 33.85968587 -11.67989886
v 15.27559506 34.26189524 -14.71907818
v 18.69272887 35.73236440 -15.53837861
v 19.08365991 35.82246131 -15.66525689
v 19.08365991 35.24328105 -16.28587746
v 19.08365991 34.58688031 -16.66700624
v 18.23124442 34.43243173 -16.65864571
v 15.67150733 32.45034927 -16.69847837
v 15.67150733 33.18397811 -16.66602220
v 16.95137778 32.45034927 -16.70339667
v 18.23124442 19.65370248 -16.70388869
v 16.95137778 15.81824851 -16.70388869
v 18.23124442 9.41831556 -16.70388869
v 16.95137778 8.13768611 -16.70339667
v 18.23124442 6.86027385 -16.70339667
v 18.23124442 6.12021061 -16.67093859
v 18.98405823 6.15560555 -16.66011986
v 19.08365991 3.12778465 -11.67989886
v 18.23124442 3.12456554 -11.67989886
v 15.27559506 34.26189524 -11.67989886
v 19.08365991 35.99299781 -11.67989886
v 18.60308584 35.77419756 -14.71907818
v 19.08365991 35.98977870 -14.71907818
v 19.08365991 33.73097872 -16.69946241
v 18.23124442 33.73097872 -16.69110188
v 19.08365991 32.45034927 -16.70339667
v 19.08365991 23.49237556 -16.70339667
v 19.08365991 8.13768611 -16.69798826
v 19.08365991 6.91175576 -16.68323337
v 19.08365991 6.32292389 -16.66307199
v 19.08365991 6.11055805 -16.51111211
f 1 2 3
f 1 3 4
f 1 4 15
f 1 15 14
f 1 14 25
f 1 25 37
f 1 37 57
f 1 57 56
f 1 56 55
f 1 55 78
f 1 78 77
f 1 77 80
f 1 80 79
f 1 79 60
f 1 60 59
f 1 59 58
f 1 58 38
f 1 38 26
f 1 26 16
f 1 16 5
f 1 5 6
f 1 6 7
f 1 7 8
f 1 8 9
f 1 9 10
f 1 10 2
f 2 11 12
f 2 12 3
f 2 10 21
f 2 21 11
f 3 12 13
f 3 13 14
f 3 14 15
f 3 15 4
f 5 16 17
f 5 17 6
f 6 17 18
f 6 18 7
f 7 18 8
f 8 18 19
f 8 19 20
f 8 20 9
f 9 20 21
f 9 21 10
f 11 22 12
f 11 21 22
f 12 22 23
f 12 23 24
f 12 24 13
f 13 24 25
f 13 25 14
f 16 26 27
f 16 27 17
f 17 27 28
f 17 28 29
f 17 29 30
f 17 30 18
f 18 30 31
f 18 31 32
f 18 32 33
f 18 33 22
f 18 22 19
f 19 22 20
f 20 22 21
f 22 33 34
f 22 34 23
f 23 34 24
f 24 34 35
f 24 35 36
f 24 36 25
f 25 36 37
f 26 38 39
f 26 39 27
f 27 39 28
f 28 39 40
f 28 40 41
f 28 41 42
f 28 42 43
f 28 43 44
f 28 44 45
f 28 45 46
f 28 46 29
f 29 46 30
f 30 47 31
f 30 46 45
f 30 45 48
f 30 48 47
f 31 47 34
f 31 34 32
f 32 34 33
f 34 49 50
f 34 50 51
f 34 51 35
f 34 47 71
f 34 71 49
f 35 51 36
f 36 52 53
f 36 53 54
f 36 54 55
f 36 55 56
f 36 56 57
f 36 57 37
f 36 51 52
f 38 58 39
f 39 58 40
f 40 58 59
f 40 59 60
f 40 60 79
f 40 79 61
f 40 61 62
f 40 62 41
f 41 62 63
f 41 63 42
f 42 63 43
f 43 63 64
f 43 64 65
f 43 65 66
f 43 66 45
f 43 45 44
f 45 67 48
f 45 66 68
f 45 68 67
f 47 48 67
f 47 67 69
f 47 69 70
f 47 70 71
f 49 72 73
f 49 73 50
f 49 71 70
f 49 70 72
f 50 73 51
f 51 73 74
f 51 74 75
f 51 75 52
f 52 75 53
f 53 75 76
f 53 76 77
f 53 77 78
f 53 78 55
f 53 55 54
f 61 79 80
f 61 80 81
f 61 81 62
f 62 81 82
f 62 82 63
f 63 82 80
f 63 80 77
f 63 77 90
f 63 90 89
f 63 89 88
f 63 88 87
f 63 87 86
f 63 86 85
f 63 85 83
f 63 83 65
f 63 65 64
f 65 83 84
f 65 84 66
f 66 84 68
f 67 68 84
f 67 84 83
f 67 83 69
f 69 85 70
f 69 83 85
f 70 85 86
f 70 86 72
f 72 74 73
f 72 86 74
f 74 86 87
f 74 87 88
f 74 88 76
f 74 76 75
f 76 88 89
f 76 89 90
f 76 90 77
f 80 82 81

