# https://github.com/mikedh/trimesh
v 36.14854775 42.69969106 -9.44488177
v 37.94319149 42.69969106 -11.39482177
v 37.94319149 42.70387514 -14.71909915
v 35.99296066 42.69969106 -9.44488177
v 37.50480529 42.44436689 -9.44488177
v 37.94319149 42.40669874 -9.58060974
v 37.94319149 42.51970701 -9.95652749
v 37.94319149 42.69131527 -10.88033263
v 37.42847922 42.70387514 -14.71909915
v 37.94319149 42.37739874 -15.94207548
v 34.86959650 42.69550316 -9.44488177
v 36.14854775 42.69969106 -14.71909915
v 34.86959650 42.69550316 -14.71909915
v 37.54003241 42.43599492 -9.44488177
v 37.94319149 42.32716691 -9.44488177
v 36.14854775 42.37739874 -15.94207548
v 37.94319149 41.73281412 -16.58234444
v 34.71351929 42.67457514 -9.44488177
v 34.86959650 42.37321085 -15.93923301
v 33.58966502 42.26857074 -15.78218607
v 33.58966502 42.49041083 -14.71909915
v 33.58966502 42.49459491 -12.16015826
v 37.94319149 14.57234843 -9.44488177
v 36.14854775 41.73281412 -16.58234444
v 37.94319149 41.47748995 -16.61787478
v 33.58966502 42.49459491 -9.44488177
v 34.86959650 41.72862623 -16.57950102
v 33.58966502 41.61980203 -16.42245503
v 32.94480769 41.56957020 -16.19505587
v 32.94480769 42.15974273 -15.59031916
v 32.94480769 42.26438666 -14.71909915
v 34.70422240 -0.05638140 -9.44488177
v 37.94319149 4.30084476 -13.61834981
v 36.14854775 41.09240976 -16.67117125
v 34.86959650 41.08822949 -16.67117125
v 37.94319149 41.09240976 -16.67117125
v 32.94480769 42.26438666 -9.44488177
v 33.58966502 40.98358557 -16.67117125
v 32.94480769 40.90406137 -16.66406556
v 32.94480769 -0.05638140 -9.44488177
v 34.70422240 -0.05638140 -12.16015826
v 37.94319149 3.43023787 -14.71909915
v 37.94319149 3.48883595 -14.41850722
v 37.94319149 3.57673403 -13.97223821
v 37.94319149 3.86554226 -13.83011398
v 33.58966502 40.12972071 -16.70314875
v 37.94319149 40.12972071 -16.70314875
v 32.94480769 40.12972071 -16.69675249
v 32.94480769 -0.05638140 -16.36844723
v 34.70373419 -0.05638140 -12.92549571
v 37.94319149 3.48046398 -15.30322918
v 34.70324408 -0.05638140 -13.43927352
v 32.94480769 38.84891962 -16.70314875
v 32.94480769 29.89170302 -16.70386008
v 37.94319149 5.57745891 -16.70314875
v 32.94480769 4.53524090 -16.67401276
v 37.94319149 4.81149118 -16.67117125
v 37.94319149 4.55198294 -16.53615365
v 37.94319149 4.17109063 -16.33575840
v 32.97416490 -0.05638140 -16.35281319
v 37.94319149 3.51813594 -15.69620077
v 34.59120269 -0.05638140 -14.20461097
v 32.94480769 28.61090574 -16.70386008
v 32.94480769 5.57745891 -16.70314875
v 37.94319149 3.90739831 -16.07851383
v 34.27953649 -0.05638140 -15.42758729
v 33.86708242 -0.05638140 -15.77650114
v 33.58966502 -0.05638140 -16.01100598
v 34.51585494 -0.05638140 -14.71909915
f 1 2 3
f 1 3 9
f 1 9 4
f 1 4 11
f 1 11 18
f 1 18 26
f 1 26 37
f 1 37 40
f 1 40 32
f 1 32 23
f 1 23 15
f 1 15 14
f 1 14 5
f 1 5 6
f 1 6 7
f 1 7 8
f 1 8 2
f 2 8 7
f 2 7 6
f 2 6 15
f 2 15 23
f 2 23 33
f 2 33 45
f 2 45 44
f 2 44 43
f 2 43 42
f 2 42 51
f 2 51 61
f 2 61 65
f 2 65 59
f 2 59 58
f 2 58 57
f 2 57 55
f 2 55 47
f 2 47 36
f 2 36 25
f 2 25 17
f 2 17 10
f 2 10 3
f 3 10 16
f 3 16 9
f 4 9 12
f 4 12 13
f 4 13 11
f 5 14 6
f 6 14 15
f 9 16 12
f 10 17 24
f 10 24 16
f 11 13 18
f 12 16 13
f 13 16 19
f 13 19 20
f 13 20 21
f 13 21 22
f 13 22 18
f 16 24 27
f 16 27 19
f 17 25 24
f 18 22 26
f 19 27 20
f 20 27 28
f 20 28 29
f 20 29 30
f 20 30 21
f 21 30 31
f 21 31 22
f 22 31 37
f 22 37 26
f 23 32 33
f 24 25 34
f 24 34 35
f 24 35 27
f 25 36 34
f 27 35 38
f 27 38 39
f 27 39 28
f 28 39 29
f 29 39 48
f 29 48 53
f 29 53 54
f 29 54 63
f 29 63 64
f 29 64 56
f 29 56 49
f 29 49 40
f 29 40 37
f 29 37 31
f 29 31 30
f 32 40 49
f 32 49 60
f 32 60 68
f 32 68 67
f 32 67 66
f 32 66 69
f 32 69 62
f 32 62 52
f 32 52 50
f 32 50 41
f 32 41 42
f 32 42 43
f 32 43 44
f 32 44 45
f 32 45 33
f 34 36 47
f 34 47 46
f 34 46 35
f 35 46 38
f 38 46 48
f 38 48 39
f 41 50 42
f 42 50 52
f 42 52 51
f 46 53 48
f 46 47 54
f 46 54 53
f 47 55 63
f 47 63 54
f 49 56 57
f 49 57 58
f 49 58 59
f 49 59 60
f 51 52 61
f 52 62 61
f 55 57 56
f 55 56 64
f 55 64 63
f 59 65 66
f 59 66 67
f 59 67 68
f 59 68 60
f 61 62 69
f 61 69 66
f 61 66 65

