# https://github.com/mikedh/trimesh
v 36.14854775 42.65406286 3.18313892
v 36.14854775 42.68102099 0.63789855
v 34.86959650 42.70078952 -0.64152064
v 33.58966502 42.49770341 -0.64152064
v 34.87302157 42.34853356 3.18313892
v 37.14470180 42.35572316 3.18313892
v 37.94319149 42.32876121 -9.44417139
v 37.50480529 42.44738004 -9.44417139
v 36.14854775 42.70078952 -9.44417139
v 35.99296066 42.70258978 -9.44417139
v 34.86959650 42.70078952 -4.47977798
v 33.58966502 42.49770341 -3.20035879
v 32.94480769 42.26765917 -1.92217597
v 32.94480769 42.26585891 -0.64152064
v 32.94480769 42.20834975 -0.04322215
v 32.94480769 42.15802638 0.20524472
v 34.23452426 42.04659715 3.18313892
v 37.59727839 41.42115936 3.18313892
v 37.60216999 41.41037687 3.18313892
v 37.70247155 40.14511828 3.18313892
v 37.70344987 40.13074290 3.18313892
v 37.94319149 42.11489261 -9.08568698
v 37.94319149 28.43251980 -9.44417139
v 34.86959650 42.69899308 -9.44417139
v 33.58966502 42.49590696 -8.31927110
v 33.47909015 42.45636608 -9.44417139
v 32.94480769 42.26585891 -9.44417139
v 32.94480769 42.26765917 -3.20035879
v 32.94480769 41.82373869 0.49450469
v 33.36460201 40.13074290 3.18313892
v 33.82696180 41.39420123 3.18313892
v 33.83332183 41.40857661 3.18313892
v 37.94319149 40.13074290 -8.10912507
v 37.94319149 41.52180229 -8.40456604
v 37.94319149 41.71590617 -8.57762748
v 37.70344987 36.29184097 3.18313892
v 37.94319149 31.33505767 -8.10418007
v 37.94319149 28.25279512 -9.12277158
v 37.94270328 27.86818787 -9.44417139
v 33.58966502 42.49411052 -9.44417139
v 32.94480769 25.91099438 -9.44417139
v 32.94480769 41.42295581 0.82455777
v 33.29414586 38.85110892 3.18313892
v 32.94480769 40.40392091 1.22012700
v 37.70295976 24.34380319 3.18313892
v 37.94319149 31.17510533 -8.10418007
v 37.94319149 28.80095141 -8.50593079
v 37.43483925 27.35597575 -9.44417139
v 37.70295976 24.34380319 0.63789855
v 37.70247155 24.34380319 -1.92217597
v 37.69170622 24.34380319 -3.20035879
v 37.54786087 24.34380319 -4.04836016
v 37.47251313 24.34380319 -4.47977798
v 37.17748407 24.34380319 -5.09909127
v 37.02678858 24.34380319 -5.40689330
v 34.85638633 26.26325225 -9.44417139
v 32.94480769 24.34380319 -8.46513793
v 32.94480769 39.60235132 1.32643627
v 32.94480769 38.85110892 1.37093740
v 33.29414586 24.34380319 3.18313892
v 37.94319149 29.89367491 -8.13137658
v 37.94319149 30.05542370 -8.12395909
v 36.59133734 24.34380319 -5.83089411
v 36.58253056 26.82039840 -9.44417139
v 35.94256673 26.50767760 -9.44417139
v 36.50473796 26.77546437 -9.44417139
v 33.59945012 24.34380319 -8.02383012
v 32.94480769 24.34380319 1.35610384
v 32.94480769 37.57147495 1.37093740
v 32.94480769 24.77513901 1.35734009
v 36.35355236 24.34380319 -6.04722090
v 35.92984476 24.34380319 -6.38963551
v 35.71358662 24.34380319 -6.55404368
v 35.10444652 24.34380319 -6.98793400
v 34.79620539 24.34380319 -7.20178830
f 1 2 3
f 1 3 4
f 1 4 5
f 1 5 17
f 1 17 32
f 1 32 31
f 1 31 30
f 1 30 43
f 1 43 60
f 1 60 45
f 1 45 36
f 1 36 21
f 1 21 20
f 1 20 19
f 1 19 18
f 1 18 6
f 1 6 7
f 1 7 8
f 1 8 2
f 2 9 3
f 2 8 9
f 3 9 10
f 3 10 11
f 3 11 12
f 3 12 4
f 4 12 28
f 4 28 13
f 4 13 14
f 4 14 15
f 4 15 5
f 5 15 16
f 5 16 17
f 6 18 7
f 7 18 19
f 7 19 20
f 7 20 21
f 7 21 22
f 7 22 35
f 7 35 34
f 7 34 33
f 7 33 37
f 7 37 46
f 7 46 62
f 7 62 61
f 7 61 47
f 7 47 38
f 7 38 23
f 7 23 39
f 7 39 48
f 7 48 64
f 7 64 66
f 7 66 65
f 7 65 56
f 7 56 41
f 7 41 27
f 7 27 26
f 7 26 40
f 7 40 24
f 7 24 10
f 7 10 9
f 7 9 8
f 10 24 11
f 11 24 25
f 11 25 12
f 12 25 26
f 12 26 27
f 12 27 28
f 13 28 27
f 13 27 41
f 13 41 57
f 13 57 68
f 13 68 70
f 13 70 69
f 13 69 59
f 13 59 58
f 13 58 44
f 13 44 42
f 13 42 29
f 13 29 16
f 13 16 15
f 13 15 14
f 16 29 30
f 16 30 31
f 16 31 32
f 16 32 17
f 21 33 34
f 21 34 35
f 21 35 22
f 21 36 46
f 21 46 37
f 21 37 33
f 23 38 39
f 24 40 25
f 25 40 26
f 29 42 30
f 30 42 44
f 30 44 43
f 36 45 46
f 38 47 39
f 39 47 45
f 39 45 49
f 39 49 50
f 39 50 51
f 39 51 52
f 39 52 53
f 39 53 54
f 39 54 55
f 39 55 48
f 41 56 57
f 43 44 58
f 43 58 59
f 43 59 69
f 43 69 60
f 45 60 68
f 45 68 57
f 45 57 67
f 45 67 75
f 45 75 74
f 45 74 73
f 45 73 72
f 45 72 71
f 45 71 63
f 45 63 55
f 45 55 54
f 45 54 53
f 45 53 52
f 45 52 51
f 45 51 50
f 45 50 49
f 45 47 61
f 45 61 62
f 45 62 46
f 48 55 63
f 48 63 64
f 56 65 57
f 57 65 66
f 57 66 67
f 60 70 68
f 60 69 70
f 63 71 64
f 64 71 66
f 66 71 72
f 66 72 73
f 66 73 74
f 66 74 75
f 66 75 67

