# https://github.com/mikedh/trimesh
v 37.91402764 20.79319529 30.07907501
v 37.91402764 20.78978438 28.89234946
v 37.91402764 20.78125711 33.91959708
v 72.93252254 19.71876321 23.64693872
v 41.24243057 19.71876321 23.64693872
v 40.00842029 19.68977050 23.64693872
v 39.96043103 19.68806504 23.64693872
v 37.91402764 19.60620326 23.64693872
v 37.91402764 20.77955166 34.41389015
v 72.93252254 19.57891600 34.41389015
v 72.93252254 14.57001155 23.64693872
v 37.91402764 14.56830609 23.64693872
v 37.91402764 3.37202957 34.41389015
v 72.93252254 3.37202957 34.41389015
v 72.93252254 4.30320448 23.65326168
v 55.32386850 14.56830609 23.64693872
v 38.68185766 4.30320448 23.65431662
v 37.91402764 4.30320448 23.66380154
v 65.56273398 4.30320448 23.65326168
v 37.91402764 3.37202957 26.23960717
v 72.93252254 3.37202957 26.23960717
v 72.93252254 3.72505755 24.01265221
v 37.91402764 3.53745859 24.12963842
v 37.91402764 3.38396774 25.47339962
v 72.93252254 3.39249501 24.95908178
v 72.93252254 3.53745859 24.12963842
v 37.91402764 3.39249501 24.95908178
f 1 2 8
f 1 8 12
f 1 12 18
f 1 18 23
f 1 23 27
f 1 27 24
f 1 24 20
f 1 20 13
f 1 13 9
f 1 9 3
f 1 3 4
f 1 4 2
f 2 5 6
f 2 6 7
f 2 7 8
f 2 4 5
f 3 9 4
f 4 10 14
f 4 14 21
f 4 21 25
f 4 25 26
f 4 26 22
f 4 22 15
f 4 15 11
f 4 11 16
f 4 16 12
f 4 12 8
f 4 8 7
f 4 7 6
f 4 6 5
f 4 9 10
f 9 13 14
f 9 14 10
f 11 15 16
f 12 17 18
f 12 16 15
f 12 15 19
f 12 19 17
f 13 20 21
f 13 21 14
f 15 22 19
f 17 23 18
f 17 19 23
f 19 22 23
f 20 24 21
f 21 24 25
f 22 26 23
f 23 26 25
f 23 25 27
f 24 27 25

