v 36.779110 12.001055 -7.251153
v 36.779110 11.999880 -7.250000
v 37.406140 11.999880 -8.594216
v 37.406140 11.999880 -8.932535
v 35.356226 12.001055 -8.932535
v 36.140396 12.001055 -7.250000
v 35.687421 9.000000 -7.250000
v 37.406140 11.566247 -8.932535
v 34.264843 9.000000 -8.932535
v 35.049321 9.000000 -7.250000
v 36.471902 9.000000 -8.932535
f 1 2 3
f 1 3 4
f 1 4 5
f 1 5 6
f 1 6 2
f 2 6 10
f 2 10 7
f 2 7 3
f 3 7 8
f 3 8 4
f 4 8 11
f 4 11 9
f 4 9 5
f 5 9 6
f 6 9 10
f 7 11 8
f 7 10 9
f 7 9 11
