# https://github.com/mikedh/trimesh
v 32.92122580 -28.98051579 32.30143858
v 32.92122580 -53.30587642 32.29980561
v 33.24844974 -36.66249587 32.20346369
v 33.24862333 -35.38307359 32.20346369
v 33.24879884 -32.82422712 32.20346369
v 33.24879884 -18.74513657 32.20346369
v 33.24862333 -16.18629201 32.20346369
v 32.92122580 -0.07101172 32.29980561
v 32.92122580 -54.58529870 32.27204621
v 33.22576186 -54.58529870 32.18713406
v 33.24775153 -53.30587642 32.20183073
v 33.88788808 -49.46216509 31.67113318
v 33.88841269 -39.22134235 31.67113318
v 33.88858629 -35.38307359 31.67113318
v 33.88876179 -31.53936035 31.67113318
v 33.88876179 -18.74513657 31.67113318
v 33.88858629 -16.18629201 31.67113318
v 33.88823718 -12.34257972 31.67113318
v 33.88753898 -4.66059964 31.67113318
v 33.88718988 -0.82233279 31.67113318
v 33.62122302 -0.07101172 31.89157692
v 33.24722883 -0.82233279 32.20183073
v 33.24705332 -0.07101172 32.20183073
v 33.11162618 -0.07101172 32.24265383
v 32.92122580 -0.07101172 15.62120955
v 32.92122580 -55.35839960 32.13488117
v 33.10865975 -55.34206235 32.11365361
v 33.86554931 -54.58529870 31.64827219
v 33.88771448 -53.30587642 31.66950022
v 34.37968449 -49.46216509 31.03103049
v 34.37985809 -44.34447214 31.03103049
v 34.37985809 -22.58340437 31.03103049
v 34.37968449 -4.66059964 31.03103049
v 34.37950898 -0.82233279 31.03103049
v 34.17497280 -0.07101172 31.29556278
v 33.88701628 -0.07101172 31.66950022
v 33.55891863 -0.07101172 15.96248917
v 32.92122580 -14.11199376 15.61957658
v 32.92122580 -55.41284059 31.94382981
v 32.92122580 -55.55439325 31.34781615
v 33.54478283 -55.45095195 31.33801838
v 34.30027787 -55.33117339 30.89713139
v 34.36519958 -54.58529870 31.00816950
v 34.37950898 -53.30587642 31.02939753
v 34.63221374 -53.30587642 30.07904103
v 34.63256285 -40.50076081 30.07904103
v 34.63256285 -35.38307359 30.07904103
v 34.63221374 -2.10175507 30.07904103
v 34.63203824 -0.07101172 30.07904103
v 34.52715283 -0.07101172 30.47420651
v 34.37950898 -0.07101172 31.02939753
v 33.85176260 -0.07101172 16.20579294
v 33.55891863 -36.66249587 15.96248917
v 33.55891863 -53.30587642 15.96412213
v 32.92122580 -30.25993807 15.62120955
v 33.55891863 -55.64694560 30.07904103
v 32.92122580 -55.67417181 30.07904103
v 34.38247731 -55.40739611 30.07904103
v 34.59905468 -54.58529870 30.07904103
v 34.70394009 -53.30587642 28.79883518
v 34.70394009 -0.07101172 28.79883518
v 34.67409847 -0.07101172 29.33116568
v 34.26415239 -0.07101172 16.55033849
v 34.26415239 -14.90686877 16.54870552
v 34.26415239 -37.94191625 16.54870552
v 34.26397689 -53.30587642 16.55033849
v 34.25246031 -54.58529870 16.56503515
v 33.55891863 -54.58529870 16.02127391
v 32.92122580 -53.30587642 15.62447547
v 32.92122580 -42.27562315 15.62284251
v 34.41389086 -55.43461851 28.79883518
v 33.55891863 -55.67417181 28.79883518
v 32.92122580 -55.68506077 28.79883518
v 34.66659371 -54.58529870 28.79883518
v 34.70394009 -53.30587642 19.83902953
v 34.70411560 -41.78563139 19.83902953
v 34.70411560 -31.53936035 21.11923491
v 34.70411560 -20.02455886 22.39944029
v 34.70411560 -8.50431288 23.67964662
v 34.70411560 -0.07101172 23.67964662
v 34.36886421 -0.07101172 16.85242701
v 34.51615895 -3.38117736 17.27861877
v 34.51598344 -35.38307359 17.27861877
v 34.51580984 -48.18274281 17.27861877
v 34.51563434 -53.30587642 17.27861877
v 34.51615895 -12.34257972 17.27861877
v 34.48561721 -54.58529870 17.27861877
v 34.22697961 -55.26039896 16.59932545
v 32.92122580 -54.58529870 15.69632391
v 32.92122580 -53.79586817 15.64733695
v 34.41389086 -55.43461851 19.83902953
v 32.92122580 -55.69050144 22.39944029
v 33.55891863 -55.67417181 18.55882415
v 34.66659371 -54.58529870 19.83902953
v 34.70306829 -53.30587642 18.55882415
v 34.70324379 -45.62389824 18.55882415
v 34.70411560 -0.07101172 19.83902953
v 34.51598344 -0.07101172 17.27861877
v 34.59382005 -0.07101172 17.80931631
v 34.32715308 -55.35295131 17.27861877
v 34.66572190 -54.58529870 18.55882415
v 32.92122580 -54.91740435 15.84001889
v 33.55891863 -55.59250461 17.27861877
v 33.55891863 -55.36928856 16.35765464
v 34.41354175 -55.43461851 18.55882415
v 32.92122580 -55.69050144 19.20056027
v 32.92122580 -55.64694560 17.27861877
v 32.92122580 -55.68506077 17.92035394
v 34.70324379 -0.07101172 18.55882415
v 32.92122580 -55.39106267 16.15680598
v 32.92122580 -55.51083741 16.64994634
f 1 2 3
f 1 3 4
f 1 4 5
f 1 5 6
f 1 6 7
f 1 7 8
f 1 8 25
f 1 25 38
f 1 38 55
f 1 55 70
f 1 70 69
f 1 69 90
f 1 90 89
f 1 89 102
f 1 102 110
f 1 110 111
f 1 111 107
f 1 107 108
f 1 108 106
f 1 106 92
f 1 92 73
f 1 73 57
f 1 57 40
f 1 40 39
f 1 39 26
f 1 26 9
f 1 9 2
f 2 9 10
f 2 10 11
f 2 11 3
f 3 11 12
f 3 12 4
f 4 12 5
f 5 12 13
f 5 13 14
f 5 14 15
f 5 15 16
f 5 16 6
f 6 16 17
f 6 17 7
f 7 17 18
f 7 18 19
f 7 19 20
f 7 20 21
f 7 21 22
f 7 22 23
f 7 23 24
f 7 24 8
f 8 24 23
f 8 23 21
f 8 21 36
f 8 36 35
f 8 35 51
f 8 51 50
f 8 50 49
f 8 49 62
f 8 62 61
f 8 61 80
f 8 80 97
f 8 97 109
f 8 109 99
f 8 99 98
f 8 98 81
f 8 81 63
f 8 63 52
f 8 52 37
f 8 37 25
f 9 26 27
f 9 27 10
f 10 27 28
f 10 28 29
f 10 29 11
f 11 29 12
f 12 29 44
f 12 44 30
f 12 30 13
f 13 30 14
f 14 30 15
f 15 30 31
f 15 31 32
f 15 32 16
f 16 32 33
f 16 33 34
f 16 34 17
f 17 34 18
f 18 34 19
f 19 34 20
f 20 34 35
f 20 35 36
f 20 36 21
f 21 23 22
f 25 37 38
f 26 39 27
f 27 39 40
f 27 40 41
f 27 41 42
f 27 42 28
f 28 42 43
f 28 43 29
f 29 43 44
f 30 44 45
f 30 45 31
f 31 45 46
f 31 46 47
f 31 47 32
f 32 47 33
f 33 48 34
f 33 47 48
f 34 49 50
f 34 50 51
f 34 51 35
f 34 48 49
f 37 52 53
f 37 53 38
f 38 53 54
f 38 54 55
f 40 56 41
f 40 57 56
f 41 56 42
f 42 56 58
f 42 58 59
f 42 59 43
f 43 59 45
f 43 45 44
f 45 59 60
f 45 60 46
f 46 60 61
f 46 61 47
f 47 61 48
f 48 61 62
f 48 62 49
f 52 63 64
f 52 64 65
f 52 65 53
f 53 65 54
f 54 66 67
f 54 67 68
f 54 68 69
f 54 69 70
f 54 70 55
f 54 65 66
f 56 71 58
f 56 57 72
f 56 72 71
f 57 73 72
f 58 71 74
f 58 74 59
f 59 74 60
f 60 74 94
f 60 94 75
f 60 75 76
f 60 76 77
f 60 77 78
f 60 78 79
f 60 79 80
f 60 80 61
f 63 81 64
f 64 81 82
f 64 82 86
f 64 86 65
f 65 83 84
f 65 84 85
f 65 85 66
f 65 86 83
f 66 85 67
f 67 85 87
f 67 87 88
f 67 88 68
f 68 88 89
f 68 89 90
f 68 90 69
f 71 72 93
f 71 93 91
f 71 91 94
f 71 94 74
f 72 73 92
f 72 92 106
f 72 106 93
f 75 94 101
f 75 101 95
f 75 95 96
f 75 96 76
f 76 96 109
f 76 109 97
f 76 97 80
f 76 80 79
f 76 79 78
f 76 78 77
f 81 98 82
f 82 98 99
f 82 99 86
f 83 96 84
f 83 86 96
f 84 96 95
f 84 95 85
f 85 95 87
f 86 99 96
f 87 100 88
f 87 95 101
f 87 101 100
f 88 102 89
f 88 100 103
f 88 103 104
f 88 104 102
f 91 93 105
f 91 105 94
f 93 107 103
f 93 103 105
f 93 106 108
f 93 108 107
f 94 105 101
f 96 99 109
f 100 101 105
f 100 105 103
f 102 104 110
f 103 111 104
f 103 107 111
f 104 111 110

