# https://github.com/mikedh/trimesh
v 37.94319149 12.73601647 -2.35867883
v 37.94319149 12.73601647 5.71619296
v 37.94319149 20.68480522 -2.35867883
v 72.94703727 12.73601647 -2.35867883
v 37.94319149 14.57016486 9.17394990
v 72.94703727 12.73601647 5.71619296
v 37.94319149 21.05277532 7.80123304
v 72.94703727 20.05388465 9.17394990
v 72.94703727 19.57845581 -2.35867883
v 38.45719814 14.57016486 9.17394990
v 37.94319149 21.05277532 9.17394990
v 72.94703727 14.57097917 9.17394990
v 38.97805875 21.05277532 9.17394990
f 1 2 5
f 1 5 11
f 1 11 7
f 1 7 3
f 1 3 9
f 1 9 4
f 1 4 6
f 1 6 2
f 2 6 10
f 2 10 5
f 3 7 8
f 3 8 9
f 4 9 8
f 4 8 12
f 4 12 6
f 5 10 12
f 5 12 8
f 5 8 13
f 5 13 11
f 6 12 10
f 7 11 13
f 7 13 8

