# https://github.com/mikedh/trimesh
v 72.93252254 42.70409118 17.59079026
v 72.93252254 42.70334337 19.83721247
v 72.93252254 42.70409118 17.27781659
v 70.68417644 42.70409118 17.27781659
v 51.44598705 42.70334337 19.83721247
v 72.93252254 42.69366006 20.15018518
v 51.44598705 42.70259938 19.87285817
v 72.93252254 42.38599162 16.06370804
v 63.00320242 42.38599162 16.06299457
v 59.16481848 42.38599162 16.06299457
v 51.44598705 42.70334337 17.27781659
v 72.93252254 42.66162652 21.11762293
v 51.44598705 42.66162652 21.11762293
v 72.93252254 41.71776658 15.42350281
v 59.16481848 41.72000237 15.42278934
v 55.32433207 41.72074636 15.42278934
v 51.44598705 41.73936900 15.44061267
v 51.44598705 42.38524763 16.06228206
v 72.93252254 42.58415237 21.34932332
v 51.44598705 42.34353078 22.06794986
v 72.93252254 41.07710352 15.32654566
v 71.96503997 41.07784751 15.32654566
v 61.72444233 41.71925838 15.42278934
v 54.04346854 41.08082728 15.32654566
v 51.44598705 41.72074636 15.42278934
v 72.93252254 42.34353078 22.06723734
v 51.48384469 42.34353078 22.06794986
v 51.44598705 42.31820078 22.07935675
v 72.93252254 40.14739846 15.29588947
v 51.44598705 41.08082728 15.32654566
v 72.93252254 42.12004384 22.16775896
v 51.44598705 41.42723280 22.47788067
v 72.93252254 41.42723280 22.47788067
v 72.93252254 39.39945968 15.32654566
v 51.44598705 39.39871569 15.32654566
v 51.44598705 40.14739846 15.29588947
v 51.44598705 41.39147550 22.48073263
v 72.93252254 40.14739846 22.57840324
v 72.93252254 38.94131069 15.83343362
v 64.33244007 35.09435633 17.59649322
v 64.31561421 35.09435633 17.59221624
v 63.00320242 35.09435633 17.37049675
v 51.44809026 35.09435633 17.34554447
v 51.44598705 35.09435633 17.45533449
v 51.44598705 40.14739846 22.57840324
v 63.00320242 35.09435633 22.57768978
v 72.93252254 39.84643356 22.47859318
v 61.72444233 35.09435633 22.57911576
v 72.93252254 38.79380992 15.99740614
v 65.17583276 35.09435633 18.13047291
v 51.44598705 35.09435633 22.57840324
v 64.36188514 35.09435633 22.22978388
v 72.93252254 38.91598451 22.16847148
v 72.93252254 38.41760665 16.96484293
v 65.45345832 35.09435633 18.55822705
v 72.93252254 38.29617987 17.27781659
v 65.49972924 35.09435633 21.11762293
v 72.93252254 38.31107874 21.11762293
v 65.46818097 35.09435633 18.72219956
v 72.93252254 38.29617987 19.83721247
v 65.53969056 35.09435633 19.83721247
v 65.53969056 35.09435633 19.87856210
v 72.93252254 38.30735498 20.80464926
f 1 2 6
f 1 6 12
f 1 12 19
f 1 19 26
f 1 26 31
f 1 31 33
f 1 33 38
f 1 38 47
f 1 47 53
f 1 53 58
f 1 58 63
f 1 63 60
f 1 60 56
f 1 56 54
f 1 54 49
f 1 49 39
f 1 39 34
f 1 34 29
f 1 29 21
f 1 21 14
f 1 14 8
f 1 8 3
f 1 3 4
f 1 4 5
f 1 5 2
f 2 5 7
f 2 7 6
f 3 8 9
f 3 9 10
f 3 10 4
f 4 10 11
f 4 11 5
f 5 11 18
f 5 18 17
f 5 17 25
f 5 25 30
f 5 30 36
f 5 36 35
f 5 35 44
f 5 44 51
f 5 51 45
f 5 45 37
f 5 37 32
f 5 32 28
f 5 28 20
f 5 20 13
f 5 13 7
f 6 7 13
f 6 13 12
f 8 14 15
f 8 15 16
f 8 16 9
f 9 16 17
f 9 17 10
f 10 17 18
f 10 18 11
f 12 13 19
f 13 20 19
f 14 21 22
f 14 22 23
f 14 23 15
f 15 23 22
f 15 22 16
f 16 22 24
f 16 24 30
f 16 30 25
f 16 25 17
f 19 20 27
f 19 27 26
f 20 28 27
f 21 29 22
f 22 29 24
f 24 29 36
f 24 36 30
f 26 27 28
f 26 28 31
f 28 32 33
f 28 33 31
f 29 34 35
f 29 35 36
f 32 37 33
f 33 37 38
f 34 39 40
f 34 40 41
f 34 41 42
f 34 42 43
f 34 43 35
f 35 43 44
f 37 45 38
f 38 46 47
f 38 45 48
f 38 48 46
f 39 49 40
f 40 50 55
f 40 55 59
f 40 59 61
f 40 61 62
f 40 62 57
f 40 57 52
f 40 52 46
f 40 46 48
f 40 48 51
f 40 51 44
f 40 44 43
f 40 43 42
f 40 42 41
f 40 49 50
f 45 51 48
f 46 52 53
f 46 53 47
f 49 54 50
f 50 54 56
f 50 56 55
f 52 57 58
f 52 58 53
f 55 56 59
f 56 60 62
f 56 62 61
f 56 61 59
f 57 62 58
f 58 62 63
f 60 63 62

