v 34.000000 4.939825 18.075001
v 34.000000 4.939825 23.833483
v 34.000000 7.932238 18.075001
v 128.934662 4.939825 18.075001
v 34.000000 6.900594 25.794196
v 128.934662 4.939825 23.833483
v 34.000000 7.932238 22.499550
v 128.934662 7.932238 18.075001
v 34.000000 6.921976 25.814290
v 128.934662 6.900594 25.794196
v 34.000000 7.924915 25.369903
v 128.934662 7.932238 22.499550
v 34.000000 6.944238 25.833611
v 128.934662 6.921976 25.814290
v 34.000000 7.924036 25.399271
v 128.934662 7.924915 25.369903
v 34.000000 6.967378 25.852160
v 128.934662 6.944238 25.833611
v 34.000000 7.921986 25.428639
v 128.934662 7.924036 25.399271
v 34.000000 6.991397 25.869163
v 128.934662 6.967378 25.852160
v 34.000000 7.918471 25.458008
v 128.934662 7.921986 25.428639
v 34.000000 7.016295 25.884619
v 128.934662 6.991397 25.869163
v 34.000000 7.913198 25.487376
v 128.934662 7.918471 25.458008
v 34.000000 7.042071 25.899303
v 128.934662 7.016295 25.884619
v 34.000000 7.906754 25.515972
v 128.934662 7.913198 25.487376
v 34.000000 7.068434 25.912442
v 128.934662 7.042071 25.899303
v 34.000000 7.899139 25.544566
v 128.934662 7.906754 25.515972
v 34.000000 7.095382 25.924035
v 128.934662 7.068434 25.912442
v 34.000000 7.889765 25.572389
v 128.934662 7.899139 25.544566
v 34.000000 7.122623 25.934854
v 128.934662 7.095382 25.924035
v 34.000000 7.879220 25.599439
v 128.934662 7.889765 25.572389
v 34.000000 7.150742 25.944128
v 128.934662 7.122623 25.934854
v 34.000000 7.867211 25.626489
v 128.934662 7.879220 25.599439
v 34.000000 7.179155 25.951857
v 128.934662 7.150742 25.944128
v 34.000000 7.854030 25.652766
v 128.934662 7.867211 25.626489
v 34.000000 7.207861 25.958812
v 128.934662 7.179155 25.951857
v 34.000000 7.839384 25.678269
v 128.934662 7.854030 25.652766
v 34.000000 7.236859 25.963450
v 128.934662 7.207861 25.958812
v 34.000000 7.823860 25.703000
v 128.934662 7.839384 25.678269
v 34.000000 7.266151 25.967314
v 128.934662 7.236859 25.963450
v 34.000000 7.806871 25.727731
v 128.934662 7.823860 25.703000
v 34.000000 7.295442 25.969633
v 128.934662 7.266151 25.967314
v 34.000000 7.788710 25.750917
v 128.934662 7.806871 25.727731
v 34.000000 7.324734 25.970405
v 128.934662 7.295442 25.969633
v 34.000000 7.769378 25.773329
v 128.934662 7.788710 25.750917
v 34.000000 7.354318 25.969633
v 128.934662 7.324734 25.970405
v 34.000000 7.749166 25.794196
v 128.934662 7.769378 25.773329
v 34.000000 7.383609 25.967314
v 128.934662 7.354318 25.969633
v 34.000000 7.727784 25.814290
v 128.934662 7.749166 25.794196
v 34.000000 7.412901 25.963450
v 128.934662 7.383609 25.967314
v 34.000000 7.705522 25.833611
v 128.934662 7.727784 25.814290
v 34.000000 7.441899 25.958812
v 128.934662 7.412901 25.963450
v 34.000000 7.682382 25.852160
v 128.934662 7.705522 25.833611
v 34.000000 7.470605 25.951857
v 128.934662 7.441899 25.958812
v 34.000000 7.658070 25.869163
v 128.934662 7.682382 25.852160
v 34.000000 7.499018 25.944128
v 128.934662 7.470605 25.951857
v 34.000000 7.633172 25.884619
v 128.934662 7.658070 25.869163
v 34.000000 7.526844 25.934854
v 128.934662 7.499018 25.944128
v 34.000000 7.607689 25.899303
v 128.934662 7.633172 25.884619
v 34.000000 7.554378 25.924035
v 128.934662 7.526844 25.934854
v 34.000000 7.581327 25.912442
v 128.934662 7.607689 25.899303
v 128.934662 7.554378 25.924035
v 128.934662 7.581327 25.912442
f 1 2 5
f 1 5 9
f 1 9 13
f 1 13 17
f 1 17 21
f 1 21 25
f 1 25 29
f 1 29 33
f 1 33 37
f 1 37 41
f 1 41 45
f 1 45 49
f 1 49 53
f 1 53 57
f 1 57 61
f 1 61 65
f 1 65 69
f 1 69 73
f 1 73 77
f 1 77 81
f 1 81 85
f 1 85 89
f 1 89 93
f 1 93 97
f 1 97 101
f 1 101 103
f 1 103 99
f 1 99 95
f 1 95 91
f 1 91 87
f 1 87 83
f 1 83 79
f 1 79 75
f 1 75 71
f 1 71 67
f 1 67 63
f 1 63 59
f 1 59 55
f 1 55 51
f 1 51 47
f 1 47 43
f 1 43 39
f 1 39 35
f 1 35 31
f 1 31 27
f 1 27 23
f 1 23 19
f 1 19 15
f 1 15 11
f 1 11 7
f 1 7 3
f 1 3 8
f 1 8 4
f 1 4 6
f 1 6 2
f 2 6 10
f 2 10 5
f 3 7 12
f 3 12 8
f 4 8 12
f 4 12 16
f 4 16 20
f 4 20 24
f 4 24 28
f 4 28 32
f 4 32 36
f 4 36 40
f 4 40 44
f 4 44 48
f 4 48 52
f 4 52 56
f 4 56 60
f 4 60 64
f 4 64 68
f 4 68 72
f 4 72 76
f 4 76 80
f 4 80 84
f 4 84 88
f 4 88 92
f 4 92 96
f 4 96 100
f 4 100 104
f 4 104 106
f 4 106 105
f 4 105 102
f 4 102 98
f 4 98 94
f 4 94 90
f 4 90 86
f 4 86 82
f 4 82 78
f 4 78 74
f 4 74 70
f 4 70 66
f 4 66 62
f 4 62 58
f 4 58 54
f 4 54 50
f 4 50 46
f 4 46 42
f 4 42 38
f 4 38 34
f 4 34 30
f 4 30 26
f 4 26 22
f 4 22 18
f 4 18 14
f 4 14 10
f 4 10 6
f 5 10 14
f 5 14 9
f 7 11 16
f 7 16 12
f 9 14 18
f 9 18 13
f 11 15 20
f 11 20 16
f 13 18 22
f 13 22 17
f 15 19 24
f 15 24 20
f 17 22 26
f 17 26 21
f 19 23 28
f 19 28 24
f 21 26 30
f 21 30 25
f 23 27 32
f 23 32 28
f 25 30 34
f 25 34 29
f 27 31 36
f 27 36 32
f 29 34 38
f 29 38 33
f 31 35 40
f 31 40 36
f 33 38 42
f 33 42 37
f 35 39 44
f 35 44 40
f 37 42 46
f 37 46 41
f 39 43 48
f 39 48 44
f 41 46 50
f 41 50 45
f 43 47 52
f 43 52 48
f 45 50 54
f 45 54 49
f 47 51 56
f 47 56 52
f 49 54 58
f 49 58 53
f 51 55 60
f 51 60 56
f 53 58 62
f 53 62 57
f 55 59 64
f 55 64 60
f 57 62 66
f 57 66 61
f 59 63 68
f 59 68 64
f 61 66 70
f 61 70 65
f 63 67 72
f 63 72 68
f 65 70 74
f 65 74 69
f 67 71 76
f 67 76 72
f 69 74 78
f 69 78 73
f 71 75 80
f 71 80 76
f 73 78 82
f 73 82 77
f 75 79 84
f 75 84 80
f 77 82 86
f 77 86 81
f 79 83 88
f 79 88 84
f 81 86 90
f 81 90 85
f 83 87 92
f 83 92 88
f 85 90 94
f 85 94 89
f 87 91 96
f 87 96 92
f 89 94 98
f 89 98 93
f 91 95 100
f 91 100 96
f 93 98 102
f 93 102 97
f 95 99 104
f 95 104 100
f 97 102 105
f 97 105 101
f 99 103 106
f 99 106 104
f 101 105 106
f 101 106 103
