# https://github.com/mikedh/trimesh
v 103.96738260 45.06064298 33.91930056
v 106.52586852 45.02339388 32.63956721
v 106.52586852 45.02339388 31.07462777
v 105.24836917 45.03736182 30.08010062
v 103.96738260 45.05132975 30.08010062
v 102.68639221 45.05366092 33.91930056
v 103.96738260 45.04900240 35.20051164
v 106.52586852 45.00477125 33.91930056
v 107.89062836 44.79291344 32.62478971
v 107.88713733 44.79291344 31.38495568
v 106.52935955 45.01640801 30.08010062
v 103.96738260 45.03270711 28.80036727
v 102.68639221 45.03736182 30.08010062
v 101.69162047 45.02805241 31.07462777
v 101.40540564 45.03037976 32.63956721
v 101.40540564 45.02339388 33.91930056
v 102.68639221 45.00477125 35.20051164
v 103.96738260 44.82318048 36.12262895
v 105.24488195 44.77894551 36.05465212
v 105.24488195 44.97916273 35.20051164
v 106.48747483 44.81153990 35.19312277
v 107.31819489 44.73936906 34.76161911
v 107.54856469 44.80921254 33.91930056
v 108.46654904 44.65090294 32.18737507
v 108.46654904 44.65090294 31.82680356
v 107.80685891 44.80222667 31.07462777
v 107.55554674 44.81852196 30.08010062
v 107.33565003 44.75333699 29.22891548
v 106.49794410 44.83016254 28.80036727
v 105.24836917 44.98847214 28.80036727
v 103.96738260 44.82318048 27.89154997
v 102.68639221 44.99079950 28.80036727
v 101.40540564 45.00942595 30.08010062
v 101.40540564 45.02106653 31.07462777
v 101.40540564 45.02339388 31.36131164
v 80.92703371 42.57658657 26.23942308
v 80.92703371 42.57658657 31.07462777
v 80.93052474 42.57658657 37.75997810
v 80.93052474 42.56029128 39.60421273
v 102.68639221 44.79058609 36.03987485
v 83.49250361 42.57658657 39.60421273
v 103.40193119 42.57891392 39.60421273
v 103.96738260 42.57891392 39.60421273
v 111.08437484 42.57658657 39.60421273
v 111.64633140 42.57425922 39.60421273
v 112.36536140 42.53701012 39.60421273
v 112.92732178 42.50441573 39.60421273
v 106.03371729 44.69979261 35.91574348
v 113.76851875 42.25298530 39.60421273
v 113.77200596 42.25065794 24.50749755
v 113.23099176 42.41594961 24.50749755
v 112.92732178 42.50441573 24.50749755
v 106.05116862 44.71143319 28.06444679
v 105.24836917 44.78825873 27.95804884
v 111.64633140 42.56261864 24.50749755
v 109.08784548 42.57658657 24.50749755
v 104.41764911 42.57891392 24.50749755
v 103.96738260 42.57891392 24.50749755
v 83.49250361 42.57658657 24.50749755
v 80.92703371 42.55330541 24.50749755
v 102.68639221 44.79291344 27.94622655
v 79.64953627 42.39732697 24.50749755
v 79.65302730 42.39965432 31.07462777
v 79.65302730 42.39965432 39.60421273
v 80.36856627 42.49044780 39.60421273
v 113.92209353 41.88747641 39.60421273
v 114.07567594 41.42651552 24.50749755
v 78.93050817 42.14589272 24.50749755
v 79.32841687 42.29023439 39.60421273
v 114.07916315 41.42418816 39.60421273
v 114.13501199 40.86312439 39.60421273
v 114.18038775 40.14607454 24.50749755
v 78.93050817 42.14589272 39.60421273
v 78.83975666 41.89213111 24.50749755
v 114.19086084 40.14374719 39.60421273
v 114.20133011 21.27935264 24.50749755
v 78.73853397 41.42418816 39.60421273
v 78.74900515 41.42651552 24.50749755
v 114.20482114 21.27702528 39.60421273
v 114.15246333 21.27702528 31.07462777
v 78.57797332 21.27935264 24.50749755
v 78.69315822 40.97487167 24.50749755
v 78.62684010 40.14374719 39.60421273
v 78.54655978 21.27702528 39.60421273
v 78.64778246 21.27702528 31.07462777
v 78.64429144 40.14607454 24.50749755
f 1 2 3
f 1 3 4
f 1 4 5
f 1 5 6
f 1 6 7
f 1 7 2
f 2 8 9
f 2 9 3
f 2 7 8
f 3 9 10
f 3 10 11
f 3 11 4
f 4 11 12
f 4 12 5
f 5 12 13
f 5 13 6
f 6 13 14
f 6 14 15
f 6 15 16
f 6 16 7
f 7 16 17
f 7 17 18
f 7 18 19
f 7 19 20
f 7 20 8
f 8 20 21
f 8 21 22
f 8 22 23
f 8 23 9
f 9 23 24
f 9 24 25
f 9 25 10
f 10 25 26
f 10 26 11
f 11 26 27
f 11 27 28
f 11 28 29
f 11 29 30
f 11 30 12
f 12 31 32
f 12 32 33
f 12 33 13
f 12 30 31
f 13 33 14
f 14 33 34
f 14 34 35
f 14 35 15
f 15 35 36
f 15 36 37
f 15 37 38
f 15 38 16
f 16 38 39
f 16 39 17
f 17 39 40
f 17 40 18
f 18 40 39
f 18 39 41
f 18 41 42
f 18 42 43
f 18 43 44
f 18 44 45
f 18 45 46
f 18 46 47
f 18 47 19
f 19 47 48
f 19 48 21
f 19 21 20
f 21 48 47
f 21 47 22
f 22 47 23
f 23 47 49
f 23 49 24
f 24 49 25
f 25 27 26
f 25 49 50
f 25 50 27
f 27 50 51
f 27 51 52
f 27 52 28
f 28 52 29
f 29 53 54
f 29 54 30
f 29 52 53
f 30 54 31
f 31 54 52
f 31 52 55
f 31 55 56
f 31 56 57
f 31 57 58
f 31 58 59
f 31 59 60
f 31 60 61
f 31 61 32
f 32 61 60
f 32 60 33
f 33 60 36
f 33 36 34
f 34 36 35
f 36 60 62
f 36 62 63
f 36 63 64
f 36 64 37
f 37 64 38
f 38 64 65
f 38 65 39
f 39 65 64
f 39 64 69
f 39 69 73
f 39 73 77
f 39 77 83
f 39 83 84
f 39 84 79
f 39 79 75
f 39 75 71
f 39 71 70
f 39 70 66
f 39 66 49
f 39 49 47
f 39 47 46
f 39 46 45
f 39 45 44
f 39 44 43
f 39 43 42
f 39 42 41
f 49 66 50
f 50 66 67
f 50 67 72
f 50 72 76
f 50 76 81
f 50 81 86
f 50 86 82
f 50 82 78
f 50 78 74
f 50 74 68
f 50 68 62
f 50 62 60
f 50 60 59
f 50 59 58
f 50 58 57
f 50 57 56
f 50 56 55
f 50 55 52
f 50 52 51
f 52 54 53
f 62 68 69
f 62 69 63
f 63 69 64
f 66 70 67
f 67 70 71
f 67 71 72
f 68 73 69
f 68 74 73
f 71 75 72
f 72 75 76
f 73 74 77
f 74 78 77
f 75 79 76
f 76 79 80
f 76 80 85
f 76 85 81
f 77 78 82
f 77 82 83
f 79 84 85
f 79 85 80
f 81 85 84
f 81 84 86
f 82 86 83
f 83 86 84

