# https://github.com/mikedh/trimesh
v 125.14302950 21.27702528 31.07454007
v 124.11575494 21.27911990 15.34496418
v 124.12169923 21.27911990 15.29918401
v 129.63763281 21.27702528 31.07454007
v 124.11629290 21.27702528 41.16959135
v 124.11575494 21.28541329 15.29918401
v 124.11575494 21.27911990 22.82387127
v 124.11575494 40.14552132 15.29591426
v 127.01375589 21.27911990 15.29918401
v 127.99236970 21.27911990 15.32861548
v 128.46599749 21.27911990 15.38420870
v 128.63198736 21.27911990 15.40710070
v 129.28566072 21.27911990 16.04478494
v 129.63709103 21.27911990 17.27764299
v 129.63763281 21.27911990 18.22599549
v 129.63817458 21.27911990 24.62574139
v 129.63763281 21.27702528 45.44044827
v 124.11629290 21.27702528 48.70082095
v 124.11575494 21.28750982 22.82387127
v 124.11629290 40.14552132 48.70409069
v 127.01375589 40.14552132 15.29918401
v 124.11575494 41.06619166 15.32861548
v 125.73452438 41.06619166 15.32861548
v 127.01375589 41.05360870 15.32861548
v 127.99561655 27.34841410 15.32861548
v 127.99507477 26.06702692 15.32861548
v 127.99453299 24.78773436 15.32861548
v 128.63468862 24.78773436 15.40382714
v 128.63523040 26.06702692 15.40382714
v 128.63577218 27.34841410 15.40382714
v 129.28566072 33.74486927 16.04478494
v 129.63763281 24.78773436 17.27764299
v 129.63817458 23.50844370 23.67738890
v 129.63817458 21.27911990 24.95930021
v 129.63817458 22.22705462 45.44044827
v 129.63709103 21.27702528 46.38553102
v 127.01375589 21.27702528 48.70082095
v 124.11575494 40.13922983 22.81406109
v 127.01375589 40.14552132 48.70082095
v 125.73506615 41.07458158 48.67138947
v 124.11629290 41.07458158 48.67138947
v 127.80800137 40.95713800 15.33842470
v 127.93451781 40.14552132 15.32861548
v 127.98480008 38.86413032 15.32861548
v 127.98642160 37.58484158 15.32861548
v 127.99399122 31.18838640 15.32861548
v 127.99507477 29.90909384 15.32861548
v 127.99561655 28.62770666 15.32861548
v 124.11575494 41.23606173 15.35477722
v 125.73452438 41.70583604 15.42998888
v 127.01375589 41.69535150 15.44307165
v 128.63577218 28.62770666 15.40382714
v 129.28566072 38.86413032 16.04805468
v 129.63763281 38.86413032 17.27764299
v 128.63523040 29.90909384 15.40382714
v 129.63763281 38.86413032 46.71908936
v 129.63763281 31.18838640 46.71908936
v 129.63709103 22.22705462 46.71908936
v 129.63655688 21.27702528 46.71908936
v 127.27381661 21.27702528 48.69428147
v 124.11575494 41.42481006 22.72903640
v 128.01291527 38.86413032 48.67138947
v 127.96587603 40.14552132 48.67138947
v 127.83071023 40.90680232 48.66157644
v 127.01375589 41.02215128 48.67138947
v 125.73506615 41.71422595 48.57328200
v 124.11629290 41.54644669 48.59944374
v 128.31407094 41.45836592 15.85511234
v 128.57467343 40.14552132 15.43653217
v 128.62495571 38.86413032 15.40710070
v 128.63414684 31.18838640 15.40382714
v 124.11575494 41.70583604 15.42998888
v 124.11575494 41.88619445 15.60003826
v 125.73452438 42.38323313 16.07094573
v 127.01375589 42.35596876 16.08402659
v 127.96641780 42.24062362 16.27696702
v 129.25375690 40.14552132 16.07748616
v 129.57383281 40.14552132 17.27764299
v 129.57437459 40.14552132 18.55955478
v 129.57545814 40.14552132 31.07454007
v 129.62411890 39.15144778 31.07454007
v 129.57545814 40.14552132 46.71908936
v 129.25484046 40.14552132 47.93559776
v 129.28619486 38.86413032 47.95848880
v 129.28619486 32.46348209 47.95848880
v 129.37648853 21.27702528 47.63801133
v 128.01507856 23.50844370 48.67138947
v 128.01345704 36.30345440 48.67138947
v 128.01507856 21.27702528 48.67138947
v 124.11575494 42.32870439 22.29410181
v 124.11629290 41.71422595 48.57328200
v 128.65307089 38.86413032 48.59944374
v 128.60603166 40.14552132 48.57655174
v 128.32650511 41.43319998 48.13507958
v 127.01375589 41.66179565 48.53404131
v 127.01375589 42.35596876 47.89308541
v 125.73506615 42.38323313 47.93232706
v 124.11629290 42.20706776 48.10237836
v 129.12615691 41.10394057 16.28350746
v 124.11575494 42.38323313 16.07094573
v 124.11575494 42.46711704 16.38815345
v 125.73452438 42.69990957 17.27764299
v 127.01375589 42.64747927 17.27764299
v 128.12267095 42.33080283 17.27764299
v 128.76282658 41.90506891 17.27764299
v 129.22186072 41.26332610 17.27764299
v 129.22240250 41.26542453 18.55955478
v 129.22347842 41.26752297 32.63768696
v 129.22347842 41.26752297 46.71908936
v 129.12669869 41.10603519 47.72957646
v 128.65361267 36.30345440 48.59944374
v 128.65469241 28.62770666 48.59944374
v 128.65523419 23.50844370 48.59944374
v 129.28566072 23.50844370 47.95848880
v 128.65523419 21.27702528 48.59944374
v 129.28511894 21.27702528 47.95848880
v 124.11575494 42.67264521 21.12010671
v 124.11629290 42.38323313 47.93232706
v 127.96858110 42.24062362 47.68706316
v 127.01375589 42.64747927 46.71908936
v 125.73506615 42.69990957 46.71908936
v 124.11575494 42.69990957 17.27764299
v 125.73506615 42.69990957 45.44044827
v 128.12645576 42.33080283 30.08040478
v 128.12591780 42.33080283 27.51985261
v 128.12483424 42.33080283 23.67738890
v 128.12375450 42.33080283 19.83819588
v 128.76498987 41.90716734 24.95930021
v 129.22240250 41.26752297 26.24121152
v 128.76607342 41.90716734 27.51985261
v 128.86880126 41.76455783 31.07454007
v 128.76661139 41.90716734 42.87989634
v 128.76607342 41.90716734 46.71908936
v 124.11575494 42.69990957 19.83819588
v 124.11629290 42.69990957 46.71908936
v 128.12591780 42.33080283 46.71908936
v 128.12645576 42.33080283 41.59798551
v 128.76661139 41.90716734 30.08040478
f 1 2 3
f 1 3 9
f 1 9 4
f 1 4 17
f 1 17 36
f 1 36 59
f 1 59 86
f 1 86 116
f 1 116 115
f 1 115 89
f 1 89 60
f 1 60 37
f 1 37 18
f 1 18 5
f 1 5 2
f 2 6 3
f 2 5 18
f 2 18 7
f 2 7 19
f 2 19 38
f 2 38 61
f 2 61 90
f 2 90 117
f 2 117 134
f 2 134 122
f 2 122 101
f 2 101 100
f 2 100 73
f 2 73 72
f 2 72 49
f 2 49 22
f 2 22 8
f 2 8 6
f 3 6 8
f 3 8 9
f 4 9 10
f 4 10 11
f 4 11 12
f 4 12 13
f 4 13 14
f 4 14 15
f 4 15 16
f 4 16 34
f 4 34 17
f 7 18 20
f 7 20 19
f 8 21 9
f 8 22 23
f 8 23 24
f 8 24 21
f 9 21 48
f 9 48 25
f 9 25 26
f 9 26 27
f 9 27 10
f 10 27 11
f 11 28 12
f 11 27 28
f 12 28 13
f 13 28 29
f 13 29 30
f 13 30 52
f 13 52 31
f 13 31 54
f 13 54 32
f 13 32 14
f 14 32 15
f 15 32 33
f 15 33 16
f 16 33 35
f 16 35 34
f 17 35 36
f 17 34 35
f 18 37 20
f 19 20 38
f 20 39 40
f 20 40 41
f 20 41 38
f 20 37 39
f 21 24 42
f 21 42 43
f 21 43 44
f 21 44 45
f 21 45 46
f 21 46 47
f 21 47 48
f 22 49 23
f 23 49 50
f 23 50 24
f 24 50 51
f 24 51 42
f 25 48 52
f 25 52 30
f 25 30 29
f 25 29 26
f 26 29 28
f 26 28 27
f 31 53 54
f 31 52 55
f 31 55 53
f 32 54 33
f 33 54 56
f 33 56 35
f 35 56 57
f 35 57 58
f 35 58 36
f 36 58 59
f 37 60 39
f 38 41 61
f 39 60 62
f 39 62 63
f 39 63 64
f 39 64 65
f 39 65 40
f 40 65 66
f 40 66 67
f 40 67 41
f 41 67 61
f 42 51 68
f 42 68 69
f 42 69 43
f 43 69 70
f 43 70 44
f 44 70 71
f 44 71 45
f 45 71 46
f 46 71 55
f 46 55 47
f 47 55 52
f 47 52 48
f 49 72 50
f 50 72 73
f 50 73 74
f 50 74 51
f 51 74 75
f 51 75 76
f 51 76 68
f 53 55 71
f 53 71 70
f 53 70 77
f 53 77 54
f 54 77 78
f 54 78 79
f 54 79 80
f 54 80 81
f 54 81 56
f 56 81 82
f 56 82 83
f 56 83 84
f 56 84 85
f 56 85 57
f 57 85 86
f 57 86 58
f 58 86 59
f 60 87 88
f 60 88 62
f 60 89 87
f 61 67 91
f 61 91 90
f 62 88 111
f 62 111 92
f 62 92 63
f 63 92 93
f 63 93 64
f 64 93 94
f 64 94 95
f 64 95 65
f 65 95 66
f 66 91 67
f 66 95 96
f 66 96 97
f 66 97 98
f 66 98 91
f 68 76 99
f 68 99 69
f 69 99 77
f 69 77 70
f 73 100 74
f 74 100 101
f 74 101 102
f 74 102 75
f 75 102 103
f 75 103 76
f 76 103 104
f 76 104 105
f 76 105 99
f 77 99 78
f 78 106 107
f 78 107 79
f 78 99 106
f 79 107 108
f 79 108 80
f 80 108 109
f 80 109 82
f 80 82 81
f 82 109 110
f 82 110 83
f 83 110 93
f 83 93 92
f 83 92 84
f 84 92 111
f 84 111 112
f 84 112 113
f 84 113 115
f 84 115 85
f 85 114 86
f 85 115 114
f 86 114 116
f 87 89 115
f 87 115 113
f 87 113 112
f 87 112 88
f 88 112 111
f 90 91 98
f 90 98 118
f 90 118 117
f 93 110 94
f 94 110 119
f 94 119 95
f 95 119 96
f 96 119 120
f 96 120 121
f 96 121 97
f 97 121 135
f 97 135 118
f 97 118 98
f 99 105 106
f 101 122 102
f 102 122 134
f 102 134 135
f 102 135 121
f 102 121 123
f 102 123 103
f 103 124 125
f 103 125 126
f 103 126 127
f 103 127 104
f 103 123 121
f 103 121 120
f 103 120 137
f 103 137 124
f 104 127 130
f 104 130 128
f 104 128 105
f 105 107 106
f 105 128 107
f 107 129 108
f 107 128 130
f 107 130 131
f 107 131 129
f 108 131 109
f 108 129 131
f 109 131 132
f 109 132 133
f 109 133 110
f 110 133 119
f 114 115 116
f 117 118 135
f 117 135 134
f 119 133 136
f 119 136 120
f 120 136 137
f 124 138 130
f 124 130 125
f 124 137 132
f 124 132 138
f 125 130 126
f 126 130 127
f 130 138 131
f 131 138 132
f 132 137 136
f 132 136 133

