v 112.799067 12.001028 -8.932370
v 113.017617 9.000000 -8.932370
v 112.799067 12.001028 -8.582391
v 112.799067 12.449714 -8.932370
v 113.017617 9.000000 -8.475668
v 116.121183 9.000000 -8.932370
v 113.589351 9.000000 -7.250000
v 113.589351 14.999706 -7.250000
v 112.804598 14.999706 -8.932370
v 116.121183 9.481574 -8.932370
v 116.121183 9.000000 -8.556699
v 114.227756 9.000000 -7.250000
v 114.227431 14.999706 -7.250000
v 115.011536 14.999706 -8.932370
v 116.103296 11.999853 -8.932370
v 115.318543 11.999853 -7.250000
v 115.938086 12.001028 -8.578438
v 115.938086 12.454999 -8.932370
v 116.102971 12.001028 -8.932370
f 1 2 5
f 1 5 3
f 1 3 4
f 1 4 9
f 1 9 14
f 1 14 18
f 1 18 19
f 1 19 15
f 1 15 10
f 1 10 6
f 1 6 2
f 2 6 11
f 2 11 12
f 2 12 7
f 2 7 5
f 3 5 7
f 3 7 8
f 3 8 9
f 3 9 4
f 6 10 11
f 7 12 16
f 7 16 13
f 7 13 8
f 8 13 14
f 8 14 9
f 10 15 11
f 11 15 16
f 11 16 12
f 13 17 18
f 13 18 14
f 13 16 17
f 15 19 17
f 15 17 16
f 17 19 18
