# https://github.com/mikedh/trimesh
v 72.95046425 14.57257537 -9.03652024
v 72.95046425 10.92633560 -5.62835198
v 72.95046425 19.99722985 -9.03652024
v 100.65073332 10.92633560 -9.03652024
v 72.95046425 10.92633560 0.82086940
v 72.95601378 10.89194567 0.82086940
v 72.95046425 19.57768154 0.82086940
v 72.95601378 19.97855978 8.99447218
v 77.94450377 20.12987316 8.99447218
v 77.93340662 20.12889103 -9.03652024
v 105.86118165 10.92633560 -9.03652024
v 72.95601378 10.89194567 5.62689845
v 72.95601378 14.57159324 8.99447218
v 121.48697329 10.89194567 0.82086940
v 124.22814759 20.92868515 8.99447218
v 125.01609699 20.92868515 0.82086940
v 124.16156086 20.71154213 -9.03652024
v 121.48697329 10.92633560 -5.62835198
v 128.28996519 14.74943376 -9.03652024
v 101.96583089 10.89194567 8.99447218
v 121.48697329 10.89194567 5.62513347
v 129.63281041 12.60354670 -3.19974543
v 129.63281041 20.92868515 8.99447218
v 129.63281041 20.92868515 0.82086940
v 129.63281041 20.71154213 -9.03652024
v 128.67284083 12.60354670 -5.37772537
v 129.03906788 12.60354670 -5.21887769
v 129.21663759 12.60354670 -4.84646797
v 129.38865396 12.60354670 -4.47935271
v 129.51628172 12.60354670 -3.82631173
v 129.06126600 15.05205861 -9.03652024
v 107.27060979 10.89194567 8.99447218
v 129.63281041 12.60354670 0.82086940
v 129.63281041 12.70769670 3.19652692
v 129.38865396 12.70769670 4.47613420
v 129.03906788 12.70769670 5.22977901
v 128.28996519 14.74353905 8.99447218
v 129.63835613 20.71154213 0.82086940
v 129.41084446 15.81746471 -9.03652024
v 129.53847221 16.53276103 -9.03652024
v 129.63281041 17.09477971 -9.03652024
v 129.63281041 17.09477971 8.99447218
v 129.26102621 15.47946780 -9.03652024
v 129.52182743 16.41878589 8.99447218
v 129.42195114 15.81648258 8.99447218
v 129.07236506 15.04714604 8.99447218
f 1 2 5
f 1 5 7
f 1 7 3
f 1 3 10
f 1 10 17
f 1 17 25
f 1 25 41
f 1 41 40
f 1 40 39
f 1 39 43
f 1 43 31
f 1 31 19
f 1 19 11
f 1 11 4
f 1 4 2
f 2 4 6
f 2 6 12
f 2 12 5
f 3 7 8
f 3 8 9
f 3 9 10
f 4 11 14
f 4 14 6
f 5 12 13
f 5 13 8
f 5 8 7
f 6 14 21
f 6 21 32
f 6 32 20
f 6 20 12
f 8 13 20
f 8 20 32
f 8 32 37
f 8 37 46
f 8 46 45
f 8 45 44
f 8 44 42
f 8 42 23
f 8 23 15
f 8 15 9
f 9 15 10
f 10 15 16
f 10 16 17
f 11 18 14
f 11 19 18
f 12 20 13
f 14 18 22
f 14 22 33
f 14 33 21
f 15 23 24
f 15 24 16
f 16 24 25
f 16 25 17
f 18 19 26
f 18 26 27
f 18 27 28
f 18 28 29
f 18 29 30
f 18 30 22
f 19 31 27
f 19 27 26
f 21 33 34
f 21 34 35
f 21 35 36
f 21 36 37
f 21 37 32
f 22 38 33
f 22 30 39
f 22 39 40
f 22 40 41
f 22 41 38
f 23 42 38
f 23 38 24
f 24 38 25
f 25 38 41
f 27 31 28
f 28 31 29
f 29 43 39
f 29 39 30
f 29 31 43
f 33 38 34
f 34 38 42
f 34 42 44
f 34 44 45
f 34 45 35
f 35 45 46
f 35 46 36
f 36 46 37

