v 67.887667 14.999706 23.067302
v 67.103548 14.999706 24.750000
v 68.821346 11.999853 23.407268
v 68.815191 12.450301 23.067302
v 62.539168 14.999706 23.067302
v 68.194791 11.999853 24.750000
v 63.324516 14.999706 24.750000
v 68.821346 11.999853 23.067302
v 67.103548 9.000000 24.750000
v 67.887667 9.000000 23.067302
v 68.821346 11.565262 23.067302
v 62.534244 12.446190 23.067302
v 62.533628 11.999853 23.416985
v 63.323901 9.000000 24.750000
v 62.539783 9.000000 23.067302
v 62.533628 11.999853 23.067302
v 62.533628 11.552342 23.067302
f 1 2 3
f 1 3 4
f 1 4 8
f 1 8 11
f 1 11 10
f 1 10 15
f 1 15 17
f 1 17 16
f 1 16 12
f 1 12 5
f 1 5 7
f 1 7 2
f 2 6 3
f 2 7 14
f 2 14 9
f 2 9 6
f 3 8 4
f 3 6 9
f 3 9 10
f 3 10 11
f 3 11 8
f 5 12 13
f 5 13 7
f 7 13 14
f 9 14 15
f 9 15 10
f 12 16 13
f 13 16 17
f 13 17 15
f 13 15 14
