# https://github.com/mikedh/trimesh
v 16.64088372 -20.65092873 25.78078478
v 23.37588483 -20.65092873 25.62887396
v 16.64088372 -20.65092873 20.37154030
v 16.64088372 -53.30570854 25.78078478
v 23.37588483 -20.65092873 20.31611401
v 23.37588483 -53.30570854 25.62887396
v 23.37588483 -24.43554628 16.05748905
v 23.37588483 -25.27962382 15.32667729
v 22.65597348 -25.75656141 15.34617746
v 18.81578371 -30.87591975 15.34617746
v 16.64088372 -34.40319882 15.32872994
v 16.64088372 -54.54437544 25.70072383
v 23.37588483 -55.10365746 25.58884349
v 23.37588483 -54.46545528 25.61347766
v 23.37588483 -54.41055645 25.61450398
v 23.37588483 -25.71881823 15.31743847
v 23.31655259 -26.42564680 15.30306801
v 19.57393232 -30.37496273 15.32565097
v 16.99358835 -34.18360161 15.32051744
v 16.64088372 -35.41197283 15.30306801
v 16.64088372 -55.15856010 25.58987029
v 23.37588483 -55.46393553 24.94835640
v 23.37588483 -26.42564680 15.30306801
v 23.31655259 -27.70548495 15.29588374
v 20.75598349 -30.26516508 15.29588374
v 19.47701905 -31.54500514 15.30306801
v 16.91645377 -35.38795531 15.29588374
v 16.64088372 -36.66779346 15.29793639
v 16.64088372 -55.45707174 24.98017532
v 16.91645377 -55.46393553 24.94835640
v 16.64088372 -55.51540437 24.67532832
v 23.37588483 -55.69039461 23.73615170
v 23.37588483 -27.70548495 15.29588374
v 16.64088372 -37.94763543 15.29588374
v 16.64088372 -55.70068838 23.67764548
v 23.37588483 -55.70068838 23.67764548
v 23.37588483 -32.88660590 15.29588374
v 16.64088372 -39.22404360 15.29588374
v 16.64088372 -55.70068838 17.27790530
v 23.37588483 -55.70068838 17.27790530
v 23.37588483 -53.36403735 15.29691007
v 16.91645377 -39.22404360 15.29588374
v 16.64088372 -53.30570854 15.29691007
v 16.64088372 -55.65608332 17.00282361
v 23.37588483 -55.48795305 16.05646272
v 23.37588483 -54.58555051 15.31538582
v 16.64088372 -54.58555051 15.31538582
v 16.64088372 -54.31105257 15.31128052
v 16.64088372 -55.47765928 15.99795650
v 23.37588483 -55.47765928 15.99795650
v 23.37588483 -55.24091024 15.34617746
v 16.64088372 -55.24091024 15.34617746
v 16.64088372 -55.42962424 15.85733668
f 1 2 5
f 1 5 3
f 1 3 11
f 1 11 20
f 1 20 28
f 1 28 34
f 1 34 38
f 1 38 43
f 1 43 48
f 1 48 47
f 1 47 52
f 1 52 53
f 1 53 49
f 1 49 44
f 1 44 39
f 1 39 35
f 1 35 31
f 1 31 29
f 1 29 21
f 1 21 12
f 1 12 4
f 1 4 6
f 1 6 2
f 2 6 15
f 2 15 14
f 2 14 13
f 2 13 22
f 2 22 32
f 2 32 36
f 2 36 40
f 2 40 45
f 2 45 50
f 2 50 51
f 2 51 46
f 2 46 41
f 2 41 37
f 2 37 33
f 2 33 23
f 2 23 16
f 2 16 8
f 2 8 7
f 2 7 5
f 3 5 7
f 3 7 8
f 3 8 9
f 3 9 10
f 3 10 11
f 4 12 13
f 4 13 14
f 4 14 15
f 4 15 6
f 8 16 17
f 8 17 18
f 8 18 10
f 8 10 9
f 10 18 11
f 11 18 19
f 11 19 20
f 12 21 13
f 13 21 22
f 16 23 17
f 17 23 33
f 17 33 24
f 17 24 25
f 17 25 26
f 17 26 18
f 18 26 20
f 18 20 19
f 20 27 28
f 20 26 27
f 21 29 22
f 22 29 30
f 22 30 31
f 22 31 32
f 24 33 37
f 24 37 42
f 24 42 38
f 24 38 34
f 24 34 27
f 24 27 25
f 25 27 26
f 27 34 28
f 29 31 30
f 31 35 32
f 32 35 36
f 35 39 40
f 35 40 36
f 37 41 42
f 38 42 41
f 38 41 43
f 39 44 40
f 40 44 45
f 41 46 47
f 41 47 48
f 41 48 43
f 44 49 50
f 44 50 45
f 46 51 52
f 46 52 47
f 49 53 50
f 50 53 51
f 51 53 52

