# https://github.com/mikedh/trimesh
v 13.08654632 3.03210153 29.62814213
v 14.35501096 3.03210153 29.54826671
v 10.50517984 3.03210153 29.62814213
v 13.07573748 -53.30660515 29.62814213
v 14.35501096 -53.30660515 29.54826671
v 15.01386554 3.02060402 29.45377999
v 15.01686820 3.03210153 29.44793585
v 10.50517984 3.03210153 20.37818566
v 10.50517984 -53.31235104 29.62814213
v 13.07573748 -54.58297898 29.60671236
v 14.46612109 -54.64047223 29.51125130
v 15.00786020 -54.25525714 29.44890972
v 15.01386554 -53.30660515 29.45377999
v 15.34539507 3.03210153 28.79919191
v 15.34539507 -50.74235807 28.79919191
v 10.50577885 3.03210153 20.37136671
v 10.50517984 3.02635373 20.37136671
v 10.50517984 -54.58872487 29.60573802
v 10.51538967 -54.58297898 29.60671236
v 14.11297006 -55.28440885 29.48689946
v 13.07573748 -55.31315739 29.51125130
v 14.96641806 -55.10617558 29.42942815
v 15.24449478 -54.64047223 28.92095301
v 15.34479606 -53.30660515 28.79919191
v 16.64088372 3.03210153 25.78146152
v 16.64088372 -53.30660515 25.78146152
v 16.63247473 3.03210153 20.36454775
v 16.64088372 -32.01069895 19.67781454
v 16.33998368 -32.33266726 19.67781454
v 15.84869471 -32.94210755 19.67781454
v 12.42168641 -37.56465232 19.67781454
v 12.07394171 -38.28333131 19.67781454
v 11.88174813 -39.18024358 19.67781454
v 11.78084783 -40.50261507 19.67781454
v 10.50517984 -39.21474182 20.35091080
v 10.50517984 -55.31315739 29.50638103
v 10.51538967 -55.31315739 29.51125130
v 13.07573748 -55.54888391 28.79919191
v 14.46612109 -55.45114271 28.92095301
v 10.50517984 -55.55462980 28.78945089
v 16.64088372 -55.15791912 25.58956601
v 15.17722664 -55.38214623 28.57612537
v 16.64088372 -54.54273103 25.70061223
v 16.64088372 3.03210153 20.36454775
v 16.64088372 -55.70411455 19.67781454
v 11.77904700 -53.30660515 19.67781454
v 10.50517984 -53.29510573 20.34798826
v 13.07573748 -55.70411455 27.51826352
v 16.64088372 -55.70411455 23.67840187
v 10.50517984 -55.70411455 27.51826352
v 16.64088372 -55.45689242 24.97978568
v 14.35501096 -55.70411455 19.67781454
v 11.78084783 -53.39284693 19.67781454
v 10.50517984 -53.30660515 20.34798826
v 10.50517984 -55.70411455 22.39844734
v 13.07573748 -55.57762863 19.67781454
v 11.80667382 -54.58297898 19.67781454
v 10.50517984 -54.58297898 20.37234057
v 10.50517984 -55.50863597 21.11362350
v 10.50517984 -55.27290944 20.43857857
v 12.01388074 -55.32465680 19.67781454
v 11.81027931 -54.64047223 19.67781454
f 1 2 7
f 1 7 14
f 1 14 25
f 1 25 44
f 1 44 27
f 1 27 16
f 1 16 8
f 1 8 3
f 1 3 9
f 1 9 4
f 1 4 5
f 1 5 2
f 2 6 7
f 2 5 13
f 2 13 6
f 3 8 17
f 3 17 35
f 3 35 47
f 3 47 54
f 3 54 58
f 3 58 60
f 3 60 59
f 3 59 55
f 3 55 50
f 3 50 40
f 3 40 36
f 3 36 18
f 3 18 9
f 4 9 10
f 4 10 5
f 5 10 11
f 5 11 12
f 5 12 13
f 6 13 7
f 7 13 15
f 7 15 14
f 8 16 17
f 9 18 19
f 9 19 10
f 10 20 11
f 10 19 37
f 10 37 21
f 10 21 20
f 11 20 22
f 11 22 12
f 12 22 23
f 12 23 24
f 12 24 13
f 13 24 15
f 14 15 26
f 14 26 25
f 15 24 26
f 16 27 28
f 16 28 29
f 16 29 30
f 16 30 31
f 16 31 32
f 16 32 33
f 16 33 17
f 17 33 34
f 17 34 35
f 18 36 37
f 18 37 19
f 20 21 38
f 20 38 39
f 20 39 22
f 21 37 40
f 21 40 38
f 22 41 23
f 22 39 42
f 22 42 41
f 23 41 43
f 23 43 24
f 24 43 26
f 25 26 43
f 25 43 41
f 25 41 51
f 25 51 49
f 25 49 45
f 25 45 28
f 25 28 44
f 27 44 28
f 28 45 52
f 28 52 56
f 28 56 61
f 28 61 62
f 28 62 57
f 28 57 53
f 28 53 46
f 28 46 34
f 28 34 33
f 28 33 32
f 28 32 31
f 28 31 30
f 28 30 29
f 34 46 47
f 34 47 35
f 36 40 37
f 38 40 48
f 38 48 39
f 39 48 49
f 39 49 42
f 40 50 48
f 41 42 51
f 42 49 51
f 45 49 48
f 45 48 50
f 45 50 55
f 45 55 52
f 46 53 54
f 46 54 47
f 52 55 56
f 53 57 54
f 54 57 58
f 55 59 56
f 56 59 60
f 56 60 61
f 57 62 58
f 58 62 60
f 60 62 61

