v 68.815883 12.001028 23.067302
v 68.822322 9.000000 23.067302
v 68.815883 12.001028 23.417973
v 68.815883 12.450301 23.067302
v 71.029404 9.000000 23.067302
v 69.607083 9.000000 24.750000
v 69.606776 14.999706 24.750000
v 68.822322 14.999706 23.067302
v 71.948791 11.525914 23.067302
v 71.948791 11.999853 23.437904
v 70.245257 9.000000 24.750000
v 70.245257 14.999706 24.750000
v 71.029097 14.999706 23.067302
v 71.948791 11.999853 23.067302
v 71.336377 11.999853 24.750000
v 71.948484 12.474967 23.067302
f 1 2 3
f 1 3 4
f 1 4 8
f 1 8 13
f 1 13 16
f 1 16 14
f 1 14 9
f 1 9 5
f 1 5 2
f 2 5 11
f 2 11 6
f 2 6 3
f 3 6 7
f 3 7 8
f 3 8 4
f 5 9 10
f 5 10 11
f 6 11 15
f 6 15 12
f 6 12 7
f 7 12 13
f 7 13 8
f 9 14 10
f 10 15 11
f 10 14 16
f 10 16 12
f 10 12 15
f 12 16 13
