# https://github.com/mikedh/trimesh
v 32.92057720 19.98446299 26.89941558
v 32.92057720 19.98446299 22.63440947
v 30.58954616 19.98446299 26.89941558
v 32.92057720 -55.68929961 26.89941558
v 30.88003034 19.98446299 21.19078194
v 32.92057720 19.58438719 17.27788050
v 29.09153582 19.98446299 26.89600848
v 29.08893377 19.65847332 26.89941558
v 32.27838800 -55.70411836 26.89941558
v 32.92057720 -55.68929961 17.92075455
v 29.95126386 19.98446299 20.60924222
v 28.12369270 19.98446299 20.01634331
v 28.31778250 19.98446299 20.02883757
v 29.20616750 19.98446299 20.24464329
v 32.92057720 19.33248746 15.99781152
v 30.99791650 19.57697781 17.27788050
v 26.26746839 19.98446299 25.64319815
v 29.08893377 -52.02192915 26.89941558
v 26.26746839 -55.70411836 23.67822922
v 32.27838800 -55.70411836 17.27788050
v 30.99791650 -55.65966592 26.89941558
v 32.92057720 -55.64484716 17.27788050
v 26.26746839 19.98446299 20.32074392
v 32.92057720 19.19171694 15.66501529
v 30.99791650 19.05095024 15.33562806
v 30.99791650 19.32507809 15.99781152
v 26.26746839 -53.30365589 25.64319815
v 29.08958237 -53.30365589 26.89941558
v 26.26746839 -55.70411836 17.27788050
v 26.26746839 -55.63002841 24.06440768
v 26.26746839 -55.54853290 16.38739707
v 30.99791650 -55.47444295 15.99781152
v 32.18655293 -55.42258113 15.92511798
v 32.92057720 -55.51148983 16.64863672
v 29.64645310 -55.44480926 26.89941558
v 26.26746839 -55.45962801 24.94807597
v 26.26746839 19.28062564 20.18103787
v 29.73242400 19.21394507 15.90808061
v 28.87660668 19.13244575 16.27495157
v 28.44283385 18.37674658 15.85015432
v 27.68341092 17.93962770 16.27835867
v 27.62088524 17.05797677 15.91035264
v 27.78501323 16.59862976 15.34698631
v 32.92057720 19.05095024 15.33562806
v 30.16879888 19.04354086 15.34244225
v 30.99791650 18.37674658 15.30496042
v 26.26746839 -54.11122070 25.63297592
v 29.15601876 -54.58538645 26.89941558
v 26.26746839 -55.47444295 15.99781152
v 26.26746839 -55.31144812 15.54461865
v 30.99791650 -55.23736198 15.34698631
v 31.69872447 -55.23736198 15.35039340
v 32.92057720 -55.39294744 16.15682601
v 26.26746839 -55.11141021 25.58867895
v 26.26746839 -55.36330994 25.14343723
v 26.26746839 -11.34005856 15.32540488
v 29.31623985 18.82127483 15.42081491
v 28.00841242 17.45805257 15.42535706
v 28.86227629 17.96185202 15.33676313
v 28.43632108 17.05797677 15.32654185
v 28.43827453 15.82070247 15.31177460
v 27.77784804 15.82070247 15.34244225
v 26.26746839 -12.34765936 15.29700927
v 32.92057720 18.37674658 15.30496042
v 29.73242400 18.38415595 15.32426982
v 32.92057720 17.73958599 15.30041636
v 29.71809742 17.10242921 15.29700927
v 26.26746839 -54.47425344 25.62048213
v 26.26746839 -54.91878169 25.60344476
v 26.26746839 -55.23736198 15.34698631
v 26.26746839 -54.78542436 15.32540488
v 30.99791650 -54.58538645 15.31631867
v 31.80553853 -54.58538645 15.33676313
v 32.44577428 -54.58538645 15.45488774
v 32.92057720 -54.58538645 15.69681800
v 32.92057720 -54.91878169 15.83993113
v 28.43827453 -14.90370491 15.29587420
v 26.26746839 -53.30365589 15.29700927
v 32.92057720 17.10242921 15.29700927
v 26.26746839 -54.58538645 15.31631867
v 26.26746839 -53.69632614 15.30268839
v 30.99791650 -53.30365589 15.29700927
v 31.88173836 -53.30365589 15.32654185
v 32.52197411 -53.30365589 15.41286376
v 32.92057720 -53.80004978 15.64684286
v 32.92057720 5.58170250 15.29700927
v 32.92057720 -53.30365589 15.62526143
f 1 2 5
f 1 5 11
f 1 11 14
f 1 14 13
f 1 13 12
f 1 12 23
f 1 23 17
f 1 17 7
f 1 7 3
f 1 3 8
f 1 8 18
f 1 18 28
f 1 28 48
f 1 48 35
f 1 35 21
f 1 21 9
f 1 9 4
f 1 4 10
f 1 10 22
f 1 22 34
f 1 34 53
f 1 53 76
f 1 76 75
f 1 75 85
f 1 85 87
f 1 87 86
f 1 86 79
f 1 79 66
f 1 66 64
f 1 64 44
f 1 44 24
f 1 24 15
f 1 15 6
f 1 6 2
f 2 6 5
f 3 7 8
f 4 9 20
f 4 20 10
f 5 6 11
f 6 12 13
f 6 13 14
f 6 14 11
f 6 15 26
f 6 26 16
f 6 16 12
f 7 17 8
f 8 17 27
f 8 27 18
f 9 19 29
f 9 29 20
f 9 21 19
f 10 20 22
f 12 16 23
f 15 24 25
f 15 25 26
f 16 26 23
f 17 23 37
f 17 37 56
f 17 56 63
f 17 63 78
f 17 78 81
f 17 81 80
f 17 80 71
f 17 71 70
f 17 70 50
f 17 50 49
f 17 49 31
f 17 31 29
f 17 29 19
f 17 19 30
f 17 30 36
f 17 36 55
f 17 55 54
f 17 54 69
f 17 69 68
f 17 68 47
f 17 47 27
f 18 27 28
f 19 21 30
f 20 29 31
f 20 31 32
f 20 32 33
f 20 33 34
f 20 34 22
f 21 35 36
f 21 36 30
f 23 26 38
f 23 38 39
f 23 39 40
f 23 40 41
f 23 41 42
f 23 42 43
f 23 43 37
f 24 44 25
f 25 45 26
f 25 44 64
f 25 64 46
f 25 46 45
f 26 45 38
f 27 47 28
f 28 47 48
f 31 49 32
f 32 49 50
f 32 50 51
f 32 51 52
f 32 52 33
f 33 52 53
f 33 53 34
f 35 54 55
f 35 55 36
f 35 48 54
f 37 43 56
f 38 45 57
f 38 57 39
f 39 57 40
f 40 58 41
f 40 57 58
f 41 58 43
f 41 43 42
f 43 58 59
f 43 59 60
f 43 60 61
f 43 61 62
f 43 62 63
f 43 63 56
f 45 46 65
f 45 65 59
f 45 59 57
f 46 64 66
f 46 66 67
f 46 67 65
f 47 68 48
f 48 68 69
f 48 69 54
f 50 70 51
f 51 71 72
f 51 72 52
f 51 70 71
f 52 72 73
f 52 73 74
f 52 74 75
f 52 75 76
f 52 76 53
f 57 59 58
f 59 65 60
f 60 67 61
f 60 65 67
f 61 67 63
f 61 63 62
f 63 67 77
f 63 77 78
f 66 79 67
f 67 79 77
f 71 80 72
f 72 80 81
f 72 81 82
f 72 82 73
f 73 82 83
f 73 83 84
f 73 84 74
f 74 84 85
f 74 85 75
f 77 79 86
f 77 86 82
f 77 82 78
f 78 82 81
f 82 86 83
f 83 86 84
f 84 87 85
f 84 86 87

