v 55.320988 14.999706 23.067302
v 54.537220 14.999706 24.750000
v 56.251409 11.999853 23.415339
v 55.596418 14.243283 23.067302
v 49.972626 14.999706 23.067302
v 55.628460 11.999853 24.750000
v 50.758245 14.999706 24.750000
v 56.251409 11.999853 23.067302
v 56.250176 12.447365 23.067302
v 54.536604 9.000000 24.750000
v 55.320988 9.000000 23.067302
v 56.251409 11.555278 23.067302
v 49.957221 12.476729 23.067302
v 49.957221 12.000441 23.439221
v 50.757628 9.000000 24.750000
v 49.973243 9.000000 23.067302
v 49.957221 12.000441 23.067302
f 1 2 3
f 1 3 4
f 1 4 9
f 1 9 8
f 1 8 12
f 1 12 11
f 1 11 16
f 1 16 17
f 1 17 13
f 1 13 5
f 1 5 7
f 1 7 2
f 2 6 3
f 2 7 15
f 2 15 10
f 2 10 6
f 3 8 9
f 3 9 4
f 3 6 10
f 3 10 11
f 3 11 12
f 3 12 8
f 5 13 14
f 5 14 7
f 7 14 15
f 10 15 16
f 10 16 11
f 13 17 14
f 14 17 16
f 14 16 15
