# https://github.com/mikedh/trimesh
v 32.94480387 20.65333309 -5.69514802
v 32.94480387 20.65333309 -8.71134255
v 28.45957428 20.65333309 -5.69514802
v 32.94480387 -4.30220883 -5.69514802
v 32.11915581 20.65333309 -9.33311499
v 32.94480387 19.58817225 -14.71894564
v 24.67614858 20.65333309 -6.37187892
v 28.45957428 -4.30220883 -5.69514802
v 32.94480387 -4.30220883 -16.36874664
v 31.48129927 20.65333309 -9.80941344
v 32.94480387 19.33409721 -15.99805326
v 30.24120237 20.65333309 -10.72429357
v 24.67614858 20.65333309 -11.62839693
v 24.67614858 -4.30220883 -6.37187892
v 32.55950246 -4.30220883 -16.58211177
v 32.94480387 4.53422730 -16.67370763
v 31.02961709 19.33165427 -15.99805326
v 27.46879431 20.65333309 -11.73938944
v 28.11069762 20.65333309 -11.69736367
v 29.01082000 20.65333309 -11.30404023
v 32.94480387 19.19240301 -16.32887583
v 31.02961709 19.04826398 -16.66293086
v 24.67614858 18.33001363 -11.63486280
v 29.67053138 19.22171827 -16.11874315
v 30.04450107 19.03849223 -16.65538846
v 29.19133039 18.94809781 -16.62521503
v 27.99818136 17.52136886 -16.59073166
v 27.81119461 16.66875313 -16.65323349
v 27.80067148 15.81369256 -16.65969840
v 24.67614858 -4.30220883 -11.63701777
v 32.38142166 -4.30220883 -16.60689586
v 32.94480387 5.57740074 -16.70280166
v 32.94480387 19.04826398 -16.66293086
v 31.02961709 18.37398650 -16.69633675
v 24.67614858 17.04986475 -11.63701777
v 29.67053138 18.46193607 -16.67478321
v 28.85054346 18.09548208 -16.65969840
v 28.47090600 15.81369256 -16.69202680
v 28.44338719 17.09628247 -16.67262824
v 24.67614858 15.76971777 -11.63809526
v 28.28392306 -4.30220883 -16.68340501
v 27.80067148 -4.30220883 -16.65969840
v 31.91921634 -4.30220883 -16.67047327
v 31.67152039 -4.30220883 -16.68017255
v 31.02961709 -4.30220883 -16.70280166
v 29.74985725 17.09383953 -16.70387915
v 32.94480387 17.09383953 -16.70280166
v 32.94480387 18.37398650 -16.69633675
v 29.39288323 -4.30220883 -16.70064669
v 28.47090600 -4.30220883 -16.69202680
v 29.74985725 -4.30220883 -16.70280166
v 32.94480387 17.73879984 -16.69956921
f 1 2 5
f 1 5 10
f 1 10 12
f 1 12 20
f 1 20 19
f 1 19 18
f 1 18 13
f 1 13 7
f 1 7 3
f 1 3 8
f 1 8 4
f 1 4 9
f 1 9 16
f 1 16 32
f 1 32 47
f 1 47 52
f 1 52 48
f 1 48 33
f 1 33 21
f 1 21 11
f 1 11 6
f 1 6 2
f 2 6 5
f 3 7 14
f 3 14 8
f 4 8 14
f 4 14 30
f 4 30 42
f 4 42 41
f 4 41 50
f 4 50 49
f 4 49 51
f 4 51 45
f 4 45 44
f 4 44 43
f 4 43 31
f 4 31 15
f 4 15 9
f 5 6 10
f 6 11 12
f 6 12 10
f 7 13 23
f 7 23 35
f 7 35 40
f 7 40 30
f 7 30 14
f 9 15 16
f 11 17 18
f 11 18 19
f 11 19 20
f 11 20 12
f 11 21 22
f 11 22 17
f 13 18 17
f 13 17 24
f 13 24 25
f 13 25 26
f 13 26 27
f 13 27 28
f 13 28 29
f 13 29 23
f 15 31 32
f 15 32 16
f 17 22 25
f 17 25 24
f 21 33 22
f 22 33 48
f 22 48 34
f 22 34 25
f 23 29 35
f 25 34 36
f 25 36 26
f 26 36 37
f 26 37 28
f 26 28 27
f 28 38 29
f 28 37 39
f 28 39 38
f 29 40 35
f 29 38 41
f 29 41 42
f 29 42 40
f 30 40 42
f 31 43 32
f 32 43 44
f 32 44 45
f 32 45 46
f 32 46 47
f 34 48 46
f 34 46 36
f 36 46 39
f 36 39 37
f 38 39 46
f 38 46 49
f 38 49 50
f 38 50 41
f 45 51 46
f 46 48 52
f 46 52 47
f 46 51 49

