# https://github.com/mikedh/trimesh
v 37.91402764 14.57029197 41.18174795
v 37.91402764 14.06762568 44.97570162
v 37.91402764 21.44512503 41.18174795
v 40.82080958 14.57029197 41.18174795
v 46.36357640 14.06762568 44.97496526
v 37.91402764 14.06762568 48.70337913
v 37.91402764 21.44512503 48.70337913
v 38.96293705 21.44512503 41.18174795
v 72.93252254 14.57101498 41.18174795
v 47.64214977 14.06762568 44.98306616
v 45.08157686 14.06762568 48.70411549
v 45.08157686 21.44512503 48.70411549
v 72.93252254 21.44512503 41.41518909
v 72.93252254 20.06640299 41.18174795
v 72.93252254 14.57101498 41.28852767
v 49.97648679 14.06762568 46.00151204
v 49.96277640 14.06762568 45.73198835
v 48.92414931 14.06762568 45.20546001
v 47.64214977 14.06762568 48.70411549
v 47.64214977 21.44512503 48.70411549
v 72.93252254 21.44512503 46.77841874
v 72.93252254 14.57173799 42.88210542
v 49.78452977 14.06762568 47.02805979
v 48.43740059 14.06762568 48.67318650
v 48.43740059 21.44512503 48.67318650
v 72.93252254 18.38362562 46.77841874
v 72.93252254 14.62590427 44.16197505
v 49.07840131 14.06762568 48.18494979
v 49.60285506 14.06762568 47.54501545
v 72.93252254 14.93212670 45.25553530
v 72.93252254 15.35679232 45.89547059
v 72.93252254 15.84068146 46.24968037
v 72.93252254 15.99740388 46.36382273
v 72.93252254 16.83373630 46.62745556
v 72.93252254 17.10384851 46.71214259
f 1 2 6
f 1 6 7
f 1 7 3
f 1 3 8
f 1 8 14
f 1 14 9
f 1 9 4
f 1 4 5
f 1 5 2
f 2 5 10
f 2 10 18
f 2 18 17
f 2 17 16
f 2 16 23
f 2 23 29
f 2 29 28
f 2 28 24
f 2 24 19
f 2 19 11
f 2 11 6
f 3 7 12
f 3 12 20
f 3 20 25
f 3 25 21
f 3 21 13
f 3 13 8
f 4 9 5
f 5 9 10
f 6 11 12
f 6 12 7
f 8 13 14
f 9 14 13
f 9 13 21
f 9 21 26
f 9 26 35
f 9 35 34
f 9 34 33
f 9 33 32
f 9 32 31
f 9 31 30
f 9 30 27
f 9 27 22
f 9 22 15
f 9 15 16
f 9 16 17
f 9 17 18
f 9 18 10
f 11 19 20
f 11 20 12
f 15 22 16
f 16 22 23
f 19 24 25
f 19 25 20
f 21 25 24
f 21 24 26
f 22 27 24
f 22 24 28
f 22 28 29
f 22 29 23
f 24 27 30
f 24 30 31
f 24 31 32
f 24 32 33
f 24 33 34
f 24 34 35
f 24 35 26

