v 115.938131 12.001028 -8.932370
v 116.121412 9.000000 -8.932370
v 115.938131 12.001028 -8.578438
v 115.938131 12.454999 -8.932370
v 118.153187 9.000000 -8.932370
v 116.121412 9.000000 -8.556699
v 116.730914 9.000000 -7.250000
v 116.730605 14.999706 -7.250000
v 115.946127 14.999706 -8.932370
v 117.369014 9.000000 -7.250000
v 118.428724 9.757011 -8.932370
v 117.369014 14.999706 -7.250000
v 118.152878 14.999706 -8.932370
v 119.075742 11.999853 -8.569380
v 118.460398 11.999853 -7.250000
v 119.075742 11.535311 -8.932370
v 119.079740 12.454999 -8.932370
v 118.428724 14.243283 -8.932370
v 119.079740 12.001028 -8.578438
v 119.079740 12.001028 -8.932370
f 1 2 6
f 1 6 3
f 1 3 4
f 1 4 9
f 1 9 13
f 1 13 18
f 1 18 17
f 1 17 20
f 1 20 16
f 1 16 11
f 1 11 5
f 1 5 2
f 2 5 10
f 2 10 7
f 2 7 6
f 3 6 7
f 3 7 8
f 3 8 9
f 3 9 4
f 5 11 10
f 7 10 15
f 7 15 12
f 7 12 8
f 8 12 13
f 8 13 9
f 10 11 14
f 10 14 15
f 11 16 14
f 12 17 18
f 12 18 13
f 12 15 17
f 14 16 19
f 14 19 15
f 15 19 17
f 16 20 19
f 17 19 20
