# https://github.com/mikedh/trimesh
v 37.94319149 40.12824847 16.70314744
v 37.94319149 40.52420650 16.69011271
v 36.14867933 41.15465604 16.66983690
v 36.14867933 40.12824847 16.70314744
v 37.94319149 5.58025751 16.70314744
v 37.94319149 41.10852437 16.66983690
v 36.14867933 41.79663944 16.59162476
v 35.14475404 41.05854809 16.65824964
v 34.77857276 40.20897792 16.67200904
v 34.86954882 38.85197091 16.69300953
v 36.14867933 5.58025751 16.70314744
v 37.94319149 4.80757027 16.66983690
v 37.94319149 41.75051159 16.58148686
v 34.69351047 41.54676564 16.19477613
v 34.29139455 40.68566160 16.62928338
v 37.94319149 42.37711650 15.94203793
v 37.42871760 42.37711650 15.94203793
v 36.14867933 42.36173801 15.95145211
v 35.09608027 42.25025920 15.75954515
v 34.20314749 39.83224300 16.65173132
v 34.18995448 38.85197091 16.65969709
v 34.86954882 35.01159674 16.69300953
v 34.86954882 11.97703714 16.68938994
v 34.86954882 8.14050760 16.68866526
v 34.86954882 6.86038160 16.68794058
v 34.88683437 5.63407651 16.66983690
v 35.32488683 4.86523390 16.65824964
v 36.14867933 4.81525761 16.66983690
v 37.42871760 4.80757027 16.66983690
v 34.86954882 24.77059641 16.69156208
v 37.94319149 4.42314801 16.46779014
v 33.95933049 41.18540921 15.77620137
v 33.86516965 40.20897792 16.12018548
v 37.94319149 42.50781843 15.44887348
v 37.42871760 42.70003433 14.71600555
v 36.14867933 42.67696659 14.71600555
v 34.88865370 42.35020795 14.71600555
v 34.24863456 42.03498319 14.71600555
v 33.72370048 38.85197091 15.99562713
v 34.19131993 33.73147074 16.65897432
v 33.72370048 37.57184491 15.99562713
v 33.72461015 33.73147074 15.99562713
v 33.72597560 28.61097058 15.99562713
v 33.72870460 18.37766140 15.99562713
v 33.73097971 10.69691115 15.99562713
v 33.73234326 6.86038160 15.99562713
v 34.19586826 15.81741131 16.65607750
v 34.19359505 24.77059641 16.65752496
v 34.19814337 8.14050760 16.65462814
v 34.19677792 11.97703714 16.65535282
v 34.19814337 6.86038160 16.65390346
v 34.20860548 6.09538361 16.64811173
v 34.47198314 5.24196691 16.57859004
v 34.90957982 4.34241856 16.05211315
v 35.34763037 3.58895253 15.52635999
v 36.14867933 4.17711883 16.29181472
v 37.42871760 4.16558497 16.33237015
v 37.94319149 4.16558497 16.33237015
v 33.82422899 41.39684059 14.71600555
v 33.35752111 40.12824847 14.71600555
v 37.94319149 42.70003433 14.71600555
v 37.42871760 42.70003433 12.15676239
v 36.14867933 42.67696659 10.87714177
v 34.88183216 42.35020795 9.30567687
v 34.73626855 42.28101237 9.30567687
v 34.24545169 42.03882781 12.15676239
v 33.29656591 38.85197091 14.71600555
v 33.29656591 15.81741131 14.71600555
v 33.33432179 6.86038160 14.71600555
v 33.45168005 5.58025751 14.71600555
v 33.89974074 5.63407651 16.08904518
v 34.01073135 4.67302182 15.72550899
v 34.63755938 3.88495799 14.71600555
v 35.27712464 3.56588670 14.71600555
v 36.14867933 3.45056135 14.71600555
v 36.14867933 3.53513353 15.65164302
v 37.42871760 3.51591232 15.69219655
v 37.94319149 3.51591232 15.69219655
v 34.24226691 42.03882781 9.59751924
v 33.91793595 41.54676564 9.30567687
v 33.82331932 41.40068522 10.87714177
v 33.35706533 40.12824847 13.43638397
v 33.71642316 41.11236900 9.30567687
v 37.94319149 42.70003433 12.15676239
v 37.42871760 42.69618970 10.87714177
v 36.14867933 42.67312197 9.59751924
v 36.14867933 42.66927734 9.30567687
v 34.24226691 42.03882781 9.30567687
v 33.35615566 40.12824847 9.59751924
v 33.34250877 39.83993225 9.30567687
v 33.29656591 38.85197091 9.30567687
v 33.29656591 17.09753731 9.30567687
v 33.31021280 16.80537647 9.30567687
v 33.35752111 15.81741131 9.30567687
v 33.84833798 5.58025751 13.73329720
v 34.00754657 4.64995598 13.85423500
v 33.89928495 4.52309677 14.71600555
v 35.36173305 3.60432911 14.00631216
v 37.42871760 3.43518286 14.71600555
v 36.14867933 3.57742057 13.97155131
v 37.94319149 3.46593794 15.10850991
v 33.82286544 41.40068522 9.30567687
v 33.82286544 41.40068522 9.59751924
v 33.35615566 40.12824847 9.30567687
v 37.94319149 42.68465583 10.87714177
v 37.94319149 42.40402886 9.58448451
v 37.50150036 42.42324816 9.30567687
v 33.46396339 15.60213531 9.30567687
v 34.90867015 4.25400176 13.76009132
v 33.82422899 14.87557782 9.30567687
v 36.14867933 4.30013342 13.61887675
v 37.94319149 3.43518286 14.71600555
v 37.94319149 3.51975694 14.27063667
v 37.94319149 4.00797258 13.76009132
v 37.94319149 3.57742057 13.97155131
v 37.72029870 42.28101237 9.30567687
v 37.94319149 42.10417877 9.30567687
v 34.86954882 14.57188502 9.30567687
v 37.94319149 4.30013342 13.61887675
v 37.94319149 14.57188502 9.30567687
f 1 2 3
f 1 3 4
f 1 4 11
f 1 11 5
f 1 5 12
f 1 12 31
f 1 31 58
f 1 58 78
f 1 78 101
f 1 101 112
f 1 112 113
f 1 113 115
f 1 115 114
f 1 114 119
f 1 119 120
f 1 120 117
f 1 117 106
f 1 106 105
f 1 105 84
f 1 84 61
f 1 61 34
f 1 34 16
f 1 16 13
f 1 13 6
f 1 6 2
f 2 6 3
f 3 6 7
f 3 7 8
f 3 8 4
f 4 8 9
f 4 9 10
f 4 10 22
f 4 22 11
f 5 11 29
f 5 29 12
f 6 13 7
f 7 14 15
f 7 15 8
f 7 13 16
f 7 16 17
f 7 17 18
f 7 18 19
f 7 19 14
f 8 15 9
f 9 15 20
f 9 20 10
f 10 20 21
f 10 21 22
f 11 23 24
f 11 24 25
f 11 25 26
f 11 26 27
f 11 27 28
f 11 28 29
f 11 22 30
f 11 30 23
f 12 29 31
f 14 32 15
f 14 19 32
f 15 33 20
f 15 32 33
f 16 34 17
f 17 34 35
f 17 35 18
f 18 35 36
f 18 36 19
f 19 36 37
f 19 37 38
f 19 38 32
f 20 39 21
f 20 33 39
f 21 40 30
f 21 30 22
f 21 39 41
f 21 41 42
f 21 42 43
f 21 43 44
f 21 44 45
f 21 45 46
f 21 46 40
f 23 47 24
f 23 30 40
f 23 40 48
f 23 48 47
f 24 49 51
f 24 51 25
f 24 47 50
f 24 50 49
f 25 51 52
f 25 52 26
f 26 52 27
f 27 53 54
f 27 54 55
f 27 55 56
f 27 56 28
f 27 52 53
f 28 56 57
f 28 57 29
f 29 57 31
f 31 57 58
f 32 59 60
f 32 60 33
f 32 38 59
f 33 60 39
f 34 61 35
f 35 61 84
f 35 84 62
f 35 62 63
f 35 63 36
f 36 63 64
f 36 64 37
f 37 64 65
f 37 65 66
f 37 66 38
f 38 66 59
f 39 60 67
f 39 67 68
f 39 68 41
f 40 46 48
f 41 68 42
f 42 68 43
f 43 68 44
f 44 68 45
f 45 68 46
f 46 68 69
f 46 69 70
f 46 70 71
f 46 71 52
f 46 52 51
f 46 51 50
f 46 50 47
f 46 47 48
f 49 50 51
f 52 71 53
f 53 72 54
f 53 71 72
f 54 72 55
f 55 73 74
f 55 74 75
f 55 75 76
f 55 76 56
f 55 72 73
f 56 76 77
f 56 77 57
f 57 77 78
f 57 78 58
f 59 66 79
f 59 79 80
f 59 80 81
f 59 81 60
f 60 82 67
f 60 81 83
f 60 83 82
f 62 84 85
f 62 85 86
f 62 86 63
f 63 86 64
f 64 86 87
f 64 87 107
f 64 107 116
f 64 116 117
f 64 117 120
f 64 120 118
f 64 118 110
f 64 110 108
f 64 108 94
f 64 94 93
f 64 93 92
f 64 92 91
f 64 91 90
f 64 90 104
f 64 104 83
f 64 83 102
f 64 102 80
f 64 80 88
f 64 88 65
f 65 88 79
f 65 79 66
f 67 82 89
f 67 89 90
f 67 90 91
f 67 91 92
f 67 92 68
f 68 92 69
f 69 92 93
f 69 93 94
f 69 94 70
f 70 94 95
f 70 95 96
f 70 96 97
f 70 97 72
f 70 72 71
f 72 97 73
f 73 98 74
f 73 97 96
f 73 96 98
f 74 98 75
f 75 99 77
f 75 77 76
f 75 98 100
f 75 100 99
f 77 101 78
f 77 99 101
f 79 88 80
f 80 102 103
f 80 103 81
f 81 103 83
f 82 83 89
f 83 103 102
f 83 104 89
f 84 105 85
f 85 105 87
f 85 87 86
f 87 105 106
f 87 106 107
f 89 104 90
f 94 108 96
f 94 96 95
f 96 109 98
f 96 108 110
f 96 110 109
f 98 109 111
f 98 111 100
f 99 112 101
f 99 100 113
f 99 113 112
f 100 111 114
f 100 114 115
f 100 115 113
f 106 116 107
f 106 117 116
f 109 110 118
f 109 118 111
f 111 119 114
f 111 118 120
f 111 120 119

