# https://github.com/mikedh/trimesh
v 90.29735201 9.85876315 17.27702873
v 113.30586385 9.66872714 17.27702873
v 89.87495460 9.85876315 15.89296808
v 89.77840760 9.85876315 18.26042410
v 113.30586385 9.30816197 15.99770278
v 89.28963485 9.85876315 15.35885581
v 89.81461321 9.85876315 15.80389532
v 88.60776809 9.85876315 18.56059732
v 113.30586385 9.20685153 18.27314823
v 113.30586385 8.84754446 15.32687951
v 88.63793974 9.85876315 15.32263876
v 87.32851178 9.85876315 18.62878877
v 113.30586385 8.45236945 18.52503270
v 113.30586385 8.14151616 15.29588374
v 87.32851178 9.85876315 15.29620995
v 88.29398749 9.85876315 15.31382916
v 80.93222829 9.85876315 18.62878877
v 72.93687679 8.14214473 18.62911498
v 113.30586385 8.14151616 18.62878877
v 113.30586385 7.76773658 15.29588374
v 72.93687679 8.14214473 15.29588374
v 79.64693802 9.85876315 15.29620995
v 80.08743728 9.85876315 18.62781013
v 52.76445164 8.14214473 18.62911498
v 72.93687679 7.82877428 18.62911498
v 113.30586385 5.58294916 18.62878877
v 113.30586385 5.58294916 15.29620995
v 72.93687679 5.58232058 15.29620995
v 51.66018747 5.58232058 15.29620995
v 65.56908269 8.14214473 15.29588374
v 78.65732461 9.85876315 15.32329119
v 51.66018747 8.14214473 15.29620995
v 51.66018747 8.84754446 15.32655330
v 79.64693802 9.85876315 18.62650529
v 51.66018747 8.14214473 18.62748392
v 51.66018747 7.03968331 18.62878877
v 51.66018747 5.58232058 18.62878877
v 72.93687679 5.58232058 18.62878877
v 77.08842539 4.30177850 18.38212463
v 113.30586385 4.67555808 18.45357914
v 72.93687679 5.26957870 18.56875450
v 113.30586385 4.81965843 15.32687951
v 72.93687679 5.00654870 15.31904854
v 51.66018747 4.82028796 15.32655330
v 78.19268956 9.85876315 15.99770278
v 51.66018747 9.24397758 15.90373495
v 51.66018747 9.30816197 15.99770278
v 51.66018747 9.66746904 17.27670251
v 78.74783862 9.85876315 18.43269687
v 51.66018747 9.20622200 18.27151718
v 51.66018747 4.30240803 18.38212463
v 92.44553704 4.30177850 18.38179842
v 72.93687679 4.30177850 18.38212463
v 65.56908269 3.57561382 18.02648410
v 106.52339237 4.30177850 18.38147221
v 113.30586385 4.30177850 18.38114600
v 113.30586385 4.17970215 15.65902903
v 51.66018747 4.73093286 15.37288479
v 72.93687679 4.82028796 15.32655330
v 78.13838116 9.85876315 16.21402357
v 78.42199011 9.85876315 18.31947973
v 77.90304666 9.85876315 17.27702873
v 51.66018747 3.57624335 18.02615789
v 57.88751085 3.57561382 18.02648410
v 72.93687679 3.43025536 17.27702873
v 74.52991276 3.57561382 18.02615789
v 97.56859625 3.57624335 18.02583168
v 106.52339237 3.57624335 18.02550547
v 113.30586385 3.78830337 18.12926059
v 113.30586385 3.98589087 15.84598416
v 112.92570790 4.17970215 15.65902903
v 51.66018747 4.18033168 15.65968146
v 79.64693802 4.17970215 15.65935524
v 51.66018747 3.45102127 17.38143722
v 103.96487592 3.43088394 17.27702873
v 51.66018747 3.43088394 17.27670251
v 51.66018747 3.51646376 16.29950706
v 107.80265059 3.51646376 16.29918085
v 113.30586385 3.51646376 16.29918085
v 113.30586385 3.47367385 17.49563395
v 113.30586385 3.57750146 18.02517926
v 112.92570790 3.57750146 18.02550547
v 113.30586385 3.43151347 17.27702873
f 1 2 3
f 1 3 7
f 1 7 6
f 1 6 11
f 1 11 16
f 1 16 15
f 1 15 22
f 1 22 31
f 1 31 45
f 1 45 60
f 1 60 62
f 1 62 61
f 1 61 49
f 1 49 34
f 1 34 23
f 1 23 17
f 1 17 12
f 1 12 8
f 1 8 4
f 1 4 2
f 2 5 6
f 2 6 7
f 2 7 3
f 2 4 8
f 2 8 9
f 2 9 13
f 2 13 19
f 2 19 26
f 2 26 40
f 2 40 56
f 2 56 69
f 2 69 81
f 2 81 80
f 2 80 83
f 2 83 79
f 2 79 70
f 2 70 57
f 2 57 42
f 2 42 27
f 2 27 20
f 2 20 14
f 2 14 10
f 2 10 5
f 5 10 6
f 6 10 11
f 8 12 9
f 9 12 13
f 10 14 15
f 10 15 16
f 10 16 11
f 12 17 24
f 12 24 18
f 12 18 19
f 12 19 13
f 14 20 30
f 14 30 21
f 14 21 15
f 15 21 30
f 15 30 22
f 17 23 24
f 18 24 25
f 18 25 26
f 18 26 19
f 20 27 28
f 20 28 29
f 20 29 30
f 22 30 32
f 22 32 33
f 22 33 31
f 23 34 35
f 23 35 24
f 24 35 36
f 24 36 37
f 24 37 25
f 25 37 38
f 25 38 26
f 26 39 40
f 26 38 41
f 26 41 39
f 27 42 43
f 27 43 28
f 28 43 29
f 29 43 44
f 29 44 58
f 29 58 72
f 29 72 77
f 29 77 76
f 29 76 74
f 29 74 63
f 29 63 51
f 29 51 37
f 29 37 36
f 29 36 35
f 29 35 50
f 29 50 48
f 29 48 47
f 29 47 46
f 29 46 33
f 29 33 32
f 29 32 30
f 31 33 46
f 31 46 47
f 31 47 48
f 31 48 45
f 34 49 48
f 34 48 50
f 34 50 35
f 37 51 41
f 37 41 38
f 39 52 40
f 39 41 53
f 39 53 64
f 39 64 54
f 39 54 52
f 40 52 55
f 40 55 56
f 41 51 53
f 42 57 58
f 42 58 44
f 42 44 59
f 42 59 43
f 43 59 44
f 45 48 60
f 48 49 61
f 48 61 62
f 48 62 60
f 51 63 64
f 51 64 53
f 52 54 55
f 54 64 65
f 54 65 66
f 54 66 67
f 54 67 55
f 55 67 68
f 55 68 69
f 55 69 56
f 57 70 71
f 57 71 58
f 58 71 73
f 58 73 72
f 63 74 64
f 64 74 65
f 65 75 66
f 65 74 76
f 65 76 77
f 65 77 78
f 65 78 79
f 65 79 75
f 66 75 68
f 66 68 67
f 68 75 80
f 68 80 81
f 68 81 82
f 68 82 69
f 69 82 81
f 70 73 71
f 70 79 78
f 70 78 77
f 70 77 73
f 72 73 77
f 75 79 83
f 75 83 80

