# https://github.com/mikedh/trimesh
v 6.37031138 -18.73739641 -6.27908734
v 6.37847739 -46.88900536 -6.27908734
v 7.32477721 -53.28789610 -3.63691708
v 6.37031138 15.81310328 -6.27908734
v 6.38562122 -53.28789610 -6.27908734
v 7.33396158 -54.56592433 -3.69621004
v 7.60448116 -53.28789610 -2.99693585
v 7.32477721 28.61087904 -3.63691708
v 6.37745521 22.21199211 -6.27908734
v 6.85928031 -54.57467771 -6.27908734
v 7.34621251 -55.22244331 -3.78419298
v 7.64020793 -54.56592433 -3.05622857
v 8.28026140 -54.56592433 -2.47592291
v 8.24453463 -53.28789610 -2.46635950
v 7.60448116 28.61087904 -2.99693585
v 7.33498377 29.52125756 -3.70500824
v 6.48055824 24.76804477 -6.27908734
v 7.32375502 -55.23119669 -6.27908734
v 7.71268747 -55.38000801 -6.27908734
v 7.99341361 -55.46754566 -4.48078968
v 7.99443198 -55.35374787 -3.29493061
v 8.42113556 -55.26621022 -2.51111594
v 9.27352054 -54.56592433 -2.39061771
v 9.27352054 -53.28789610 -2.37149090
v 8.24453463 28.61087904 -2.46635950
v 8.28230195 29.88890727 -2.46712447
v 7.59631134 29.92392080 -3.24749619
v 6.50811900 25.24949608 -6.27908734
v 7.38398364 30.30032771 -4.48078968
v 7.99341361 -55.47629904 -6.27908734
v 9.27352054 -55.70389081 -4.48078968
v 9.27352054 -55.54632610 -3.20120958
v 9.27352054 -55.30122757 -2.48586892
v 13.11179695 -54.56592433 -2.39061771
v 13.11179695 -53.28789610 -2.37149090
v 9.27352054 28.61087904 -2.37149090
v 9.27352054 29.88890727 -2.37187327
v 8.42419829 30.62421051 -2.49887503
v 8.17205509 30.78177522 -3.20120958
v 6.65409644 26.09859330 -6.27908734
v 8.02403710 30.88681963 -4.48078968
v 7.76475008 30.65922404 -6.27908734
v 7.38398364 30.30908110 -6.27908734
v 8.75494267 -55.61635698 -6.27908734
v 9.27352054 -55.70389081 -6.27908734
v 13.11179695 -55.70389081 -4.48078968
v 13.11179695 -55.54632610 -3.20120958
v 13.11179695 -55.30122757 -2.48586892
v 14.48173761 -54.48714007 -2.49198937
v 14.39190387 -53.28789610 -2.46329940
v 14.11424046 -55.26621022 -2.51111594
v 14.39190387 -50.73183963 -2.46291655
v 14.39190387 -37.93406196 -2.46253419
v 14.39190387 -9.78245301 -2.46176898
v 14.39190387 5.57137826 -2.46138662
v 14.39190387 22.21199211 -2.46100402
v 13.11179695 31.16693551 -2.37149090
v 10.55362746 29.88890727 -2.37149090
v 11.83169002 31.16693551 -2.37722875
v 9.27352054 30.77302183 -2.46712447
v 10.97624613 31.88473198 -2.50576045
v 10.55158310 31.98101919 -3.31367481
v 9.90540417 31.81470110 -3.81556094
v 8.02403710 30.88681963 -6.27908734
v 9.26126961 31.52583184 -4.48078968
v 11.83169002 -55.70389081 -6.27908734
v 13.11179695 -55.60760360 -6.27908734
v 14.42354954 -55.42377493 -6.27908734
v 14.44396647 -55.50255919 -4.53090136
v 15.20958045 -55.37125463 -3.43685103
v 14.48173761 -55.44128169 -3.08644896
v 15.03399788 -54.00569257 -2.55931557
v 14.96764762 -54.86354698 -2.58341526
v 15.03604224 -53.28789610 -2.55816800
v 15.03604224 -46.88900536 -2.55778539
v 15.03706061 -18.73739641 -2.55702019
v 15.03808279 11.97026900 -2.55625522
v 15.03808279 28.61087904 -2.55587262
v 14.39190387 31.16693551 -2.46100402
v 14.39190387 32.44496374 -2.47630551
v 13.15467136 32.43621036 -2.45985645
v 13.60995788 33.14524963 -2.51876681
v 11.83169002 32.00728315 -2.47209759
v 13.38333489 33.25029404 -3.20120958
v 13.22816926 33.32032492 -4.48078968
v 12.58913798 33.04020904 -4.48078968
v 9.26126961 31.52583184 -6.27908734
v 9.64203605 31.70090712 -6.27908734
v 15.45253545 -55.25745684 -6.27908734
v 15.20958045 -55.37125463 -4.13803800
v 15.54440974 -55.23995007 -6.27908734
v 16.10381765 -54.99484772 -6.27908734
v 16.58360221 -54.57467771 -6.27908734
v 15.26572415 -54.48714007 -3.08644896
v 16.79695209 -53.28789610 -6.27908734
v 15.34943242 -53.28789610 -3.20120958
v 15.35045461 -43.05492447 -3.20120958
v 15.03706061 -27.69233885 -2.55740303
v 15.03808279 4.29335194 -2.55663782
v 15.35147297 -14.89456118 -3.20120958
v 15.03808279 32.44496374 -2.55587262
v 15.03604224 33.09272934 -2.55778539
v 14.39190387 33.13649625 -2.52680004
v 14.39190387 33.46037905 -3.20120958
v 14.99724893 33.67922125 -6.27908734
v 13.75899805 33.41661213 -6.27908734
v 12.68713773 33.03145565 -6.27908734
v 12.17774805 32.83012022 -6.27908734
v 11.83169002 32.69006228 -6.27908734
v 11.07220151 32.34867272 -6.27908734
v 16.79695209 31.16693551 -6.27908734
v 15.35147297 32.44496374 -3.20120958
v 16.76632860 33.50414978 -6.27908734
v 15.19120406 33.30281434 -3.20120958
v 16.79593372 32.29615242 -6.27908734
v 16.05481778 33.72298816 -6.27908734
v 16.45701952 33.60043699 -6.27908734
f 1 2 3
f 1 3 8
f 1 8 4
f 1 4 9
f 1 9 17
f 1 17 28
f 1 28 40
f 1 40 43
f 1 43 42
f 1 42 64
f 1 64 87
f 1 87 88
f 1 88 110
f 1 110 109
f 1 109 108
f 1 108 107
f 1 107 106
f 1 106 105
f 1 105 116
f 1 116 117
f 1 117 113
f 1 113 115
f 1 115 111
f 1 111 95
f 1 95 93
f 1 93 92
f 1 92 91
f 1 91 89
f 1 89 68
f 1 68 67
f 1 67 66
f 1 66 45
f 1 45 44
f 1 44 30
f 1 30 19
f 1 19 18
f 1 18 10
f 1 10 5
f 1 5 2
f 2 5 3
f 3 5 6
f 3 6 7
f 3 7 15
f 3 15 8
f 4 8 9
f 5 10 11
f 5 11 6
f 6 11 12
f 6 12 7
f 7 12 13
f 7 13 14
f 7 14 25
f 7 25 15
f 8 15 16
f 8 16 9
f 9 16 17
f 10 18 11
f 11 18 19
f 11 19 20
f 11 20 21
f 11 21 22
f 11 22 12
f 12 22 13
f 13 23 24
f 13 24 14
f 13 22 23
f 14 24 36
f 14 36 25
f 15 25 26
f 15 26 27
f 15 27 16
f 16 28 17
f 16 27 29
f 16 29 28
f 19 30 20
f 20 30 31
f 20 31 21
f 21 31 32
f 21 32 22
f 22 32 33
f 22 33 23
f 23 34 35
f 23 35 24
f 23 33 48
f 23 48 34
f 24 35 57
f 24 57 58
f 24 58 36
f 25 36 37
f 25 37 26
f 26 37 38
f 26 38 27
f 27 38 39
f 27 39 29
f 28 29 40
f 29 39 41
f 29 41 42
f 29 42 43
f 29 43 40
f 30 44 31
f 31 45 66
f 31 66 46
f 31 46 47
f 31 47 32
f 31 44 45
f 32 47 48
f 32 48 33
f 34 49 50
f 34 50 35
f 34 48 51
f 34 51 49
f 35 50 52
f 35 52 53
f 35 53 54
f 35 54 55
f 35 55 56
f 35 56 79
f 35 79 57
f 36 58 37
f 37 58 57
f 37 57 59
f 37 59 60
f 37 60 38
f 38 60 61
f 38 61 39
f 39 61 62
f 39 62 63
f 39 63 41
f 41 64 42
f 41 63 65
f 41 65 87
f 41 87 64
f 46 66 67
f 46 67 68
f 46 68 69
f 46 69 70
f 46 70 71
f 46 71 47
f 47 71 51
f 47 51 48
f 49 72 50
f 49 51 73
f 49 73 72
f 50 72 74
f 50 74 52
f 51 71 70
f 51 70 73
f 52 74 75
f 52 75 76
f 52 76 53
f 53 76 77
f 53 77 54
f 54 77 55
f 55 77 78
f 55 78 56
f 56 78 101
f 56 101 79
f 57 79 80
f 57 80 81
f 57 81 59
f 59 81 82
f 59 82 83
f 59 83 60
f 60 83 61
f 61 83 82
f 61 82 62
f 62 82 84
f 62 84 63
f 63 84 85
f 63 85 86
f 63 86 65
f 65 88 87
f 65 86 88
f 68 89 69
f 69 89 90
f 69 90 70
f 70 90 91
f 70 91 92
f 70 92 93
f 70 93 94
f 70 94 73
f 72 73 94
f 72 94 95
f 72 95 96
f 72 96 74
f 74 96 97
f 74 97 98
f 74 98 75
f 75 98 76
f 76 98 77
f 77 98 99
f 77 99 100
f 77 100 78
f 78 100 112
f 78 112 101
f 79 101 102
f 79 102 80
f 80 102 103
f 80 103 81
f 81 103 82
f 82 103 104
f 82 104 84
f 84 104 85
f 85 104 105
f 85 105 106
f 85 106 107
f 85 107 108
f 85 108 109
f 85 109 86
f 86 109 110
f 86 110 88
f 89 91 90
f 93 95 94
f 95 100 97
f 95 97 96
f 95 111 112
f 95 112 100
f 97 100 99
f 97 99 98
f 101 112 102
f 102 113 114
f 102 114 104
f 102 104 103
f 102 112 115
f 102 115 113
f 104 116 105
f 104 114 116
f 111 115 112
f 113 117 114
f 114 117 116

