v 77.312368 14.999706 23.067302
v 76.528042 14.999706 24.750000
v 78.404097 11.999853 23.067302
v 71.964408 14.999706 23.067302
v 77.619772 11.999853 24.750000
v 72.748734 14.999706 24.750000
v 78.410423 9.000000 23.418138
v 78.410423 9.449861 23.067302
v 71.948596 12.474967 23.067302
v 71.948596 12.000441 23.437080
v 76.528042 9.000000 24.750000
v 72.748734 9.000000 24.750000
v 78.410423 9.000000 23.070926
v 78.410423 9.009984 23.067302
v 71.948596 12.000441 23.067302
v 71.949228 11.525914 23.067302
v 71.964408 9.000000 23.067302
v 78.407260 9.000000 23.067302
f 1 2 5
f 1 5 3
f 1 3 8
f 1 8 14
f 1 14 18
f 1 18 17
f 1 17 16
f 1 16 15
f 1 15 9
f 1 9 4
f 1 4 6
f 1 6 2
f 2 6 12
f 2 12 11
f 2 11 5
f 3 7 8
f 3 5 7
f 4 9 10
f 4 10 6
f 5 11 7
f 6 10 12
f 7 13 14
f 7 14 8
f 7 11 12
f 7 12 17
f 7 17 18
f 7 18 13
f 9 15 10
f 10 15 16
f 10 16 17
f 10 17 12
f 13 18 14
