# https://github.com/mikedh/trimesh
v 38.96293705 21.44512503 41.18101255
v 37.91402764 21.44512503 39.92310683
v 37.91402764 21.44512503 41.18101255
v 72.93252254 20.06664336 41.18101255
v 37.91402764 20.78026513 34.41389039
v 72.93252254 19.57902664 34.41389039
v 37.91402764 14.56974066 41.18101255
v 72.93252254 14.57128778 41.18101255
v 37.91402764 13.53878048 34.41389039
v 72.93252254 13.53878048 34.41389039
v 37.91402764 13.53878048 37.89879899
v 39.08291019 13.53878048 37.89879899
v 72.93252254 13.53878048 37.89681215
f 1 2 3
f 1 3 7
f 1 7 8
f 1 8 4
f 1 4 2
f 2 5 9
f 2 9 11
f 2 11 7
f 2 7 3
f 2 4 6
f 2 6 5
f 4 8 13
f 4 13 10
f 4 10 6
f 5 6 10
f 5 10 9
f 7 11 12
f 7 12 13
f 7 13 8
f 9 10 13
f 9 13 12
f 9 12 11

