# https://github.com/mikedh/trimesh
v 112.92952323 37.31368587 17.04841112
v 113.11884386 37.31368587 17.04841112
v 105.24950614 34.88796590 17.37113200
v 105.24950614 37.31368587 17.04914175
v 114.62269929 37.31368587 17.04914175
v 114.62269929 34.88796590 17.37113200
v 103.96711934 34.88796590 17.46458954
v 104.18144948 37.31368587 17.14990088
v 114.62269929 37.31368587 22.81576846
v 114.62269929 34.88796590 22.81576846
v 80.92706996 34.88796590 20.11717969
v 79.65182928 34.88796590 20.30628571
v 80.92706996 37.31368587 20.94807621
v 114.17975822 37.31368587 24.50676691
v 114.17975822 34.88796590 24.50676691
v 79.73041560 37.31368587 21.19413275
v 79.98046298 37.31368587 21.12769064
v 78.67307431 34.88796590 21.12549968
v 78.72308378 37.31368587 24.50676691
v 78.68378967 34.88796590 24.50676691
v 79.14459222 37.31368587 21.93011142
v 78.13368734 34.88796590 22.30613250
v 78.69093388 37.31368587 22.51349108
v 78.79809704 37.31368587 22.37184494
v 78.69093388 37.31368587 23.67806135
v 78.69807809 35.85587770 24.50676691
f 1 2 6
f 1 6 3
f 1 3 4
f 1 4 8
f 1 8 13
f 1 13 17
f 1 17 16
f 1 16 21
f 1 21 24
f 1 24 23
f 1 23 25
f 1 25 19
f 1 19 14
f 1 14 9
f 1 9 5
f 1 5 2
f 2 5 6
f 3 7 4
f 3 6 10
f 3 10 15
f 3 15 20
f 3 20 22
f 3 22 18
f 3 18 12
f 3 12 11
f 3 11 7
f 4 7 8
f 5 9 10
f 5 10 6
f 7 11 8
f 8 11 12
f 8 12 13
f 9 14 15
f 9 15 10
f 12 16 17
f 12 17 13
f 12 18 16
f 14 19 26
f 14 26 20
f 14 20 15
f 16 18 21
f 18 22 23
f 18 23 24
f 18 24 21
f 19 25 22
f 19 22 26
f 20 26 22
f 22 25 23

