# https://github.com/mikedh/trimesh
v 89.78321302 13.89425886 46.10787303
v 89.68685297 13.89425886 45.64131505
v 89.73324932 13.89425886 46.72223987
v 91.16260274 9.66817487 46.72874501
v 91.16260274 9.66919929 46.72223987
v 91.16260274 9.21022142 45.73455416
v 91.16260274 9.20714722 45.72804901
v 91.16260274 8.14268651 45.37280051
v 88.60725111 13.89425886 45.12163237
v 89.63153446 13.89425886 47.36226673
v 91.16260274 9.31164728 48.00265319
v 91.16260274 6.86205477 45.37099395
v 87.32600701 13.89425886 45.03525992
v 91.16260274 5.58244744 45.37135545
v 89.44594903 13.89425886 47.98494623
v 91.16260274 8.84857079 48.67303770
v 80.92691925 13.89425886 45.01249192
v 91.16260274 4.30181665 45.61529448
v 79.64745882 4.30181665 45.61493393
v 72.93430621 4.61531492 45.55530409
v 72.93430621 5.58244744 45.37135545
v 89.29783972 13.89425886 48.30947653
v 91.16260274 8.13654001 48.70375494
v 89.15151407 13.89425886 48.62533268
v 79.90799073 13.89425886 45.02694821
v 91.16260274 3.57339330 45.97090544
v 84.76708614 3.57339330 45.97054394
v 72.93430621 4.30181665 45.61493393
v 72.93430621 6.86205477 45.37099395
v 79.64745882 13.89425886 45.03164584
v 91.16260274 5.57937419 48.70375494
v 88.51267474 13.89425886 48.67303770
v 87.32600701 13.89425886 48.70411740
v 91.16260274 3.42893812 46.71898825
v 72.93430621 3.42791370 46.72223987
v 72.93430621 3.57339330 45.97054394
v 72.93430621 8.14268651 45.37099395
v 78.90155265 13.89425886 45.33485416
v 72.93430621 9.20714722 45.72660396
v 89.88671346 4.82021642 48.67303770
v 91.16260274 4.81714222 48.67159169
v 87.32600701 10.70190116 48.70411740
v 79.64745882 10.70190116 48.70411740
v 72.93430621 5.58244744 48.70375494
v 72.93430621 4.81919201 48.67303770
v 74.52604783 4.81919201 48.67303770
v 79.64745882 13.89425886 48.70411740
v 91.16260274 3.51602118 47.69510874
v 89.88671346 3.42893812 46.72223987
v 72.93430621 3.51704560 47.70016883
v 78.47685078 13.89425886 45.51555023
v 72.93430621 9.66817487 46.72223987
v 88.60725111 4.17990055 48.33983323
v 89.88671346 4.17990055 48.33947268
v 91.16260274 4.17682730 48.33658066
v 77.08675332 4.17990055 48.34019378
v 72.93430621 8.14268651 48.70375494
v 72.93430621 4.17990055 48.34019378
v 78.95330288 13.89425886 48.67303770
v 72.93430621 8.84754637 48.67303770
v 72.93430621 8.67542907 48.68062639
v 89.88671346 3.51704560 47.69944582
v 86.04654657 3.51704560 47.69980732
v 74.52604783 3.51704560 47.70016883
v 78.15921574 13.89425886 46.67164570
v 72.93430621 9.30857403 48.00229264
v 78.56428963 13.89425886 48.00229264
v 72.93430621 9.19587768 48.16636531
f 1 2 9
f 1 9 13
f 1 13 17
f 1 17 25
f 1 25 30
f 1 30 38
f 1 38 51
f 1 51 65
f 1 65 67
f 1 67 59
f 1 59 47
f 1 47 33
f 1 33 32
f 1 32 24
f 1 24 22
f 1 22 15
f 1 15 10
f 1 10 3
f 1 3 4
f 1 4 5
f 1 5 6
f 1 6 7
f 1 7 2
f 2 7 8
f 2 8 9
f 3 10 11
f 3 11 4
f 4 11 16
f 4 16 23
f 4 23 31
f 4 31 41
f 4 41 55
f 4 55 48
f 4 48 34
f 4 34 26
f 4 26 18
f 4 18 14
f 4 14 12
f 4 12 8
f 4 8 7
f 4 7 6
f 4 6 5
f 8 12 9
f 9 12 14
f 9 14 13
f 10 15 16
f 10 16 11
f 13 14 17
f 14 18 19
f 14 19 20
f 14 20 21
f 14 21 17
f 15 22 16
f 16 22 24
f 16 24 23
f 17 21 25
f 18 26 27
f 18 27 19
f 19 28 20
f 19 27 36
f 19 36 28
f 20 28 36
f 20 36 35
f 20 35 50
f 20 50 58
f 20 58 45
f 20 45 44
f 20 44 57
f 20 57 61
f 20 61 60
f 20 60 68
f 20 68 66
f 20 66 52
f 20 52 39
f 20 39 37
f 20 37 29
f 20 29 21
f 21 29 30
f 21 30 25
f 23 24 32
f 23 32 33
f 23 33 42
f 23 42 31
f 26 34 35
f 26 35 27
f 27 35 36
f 29 37 30
f 30 37 39
f 30 39 38
f 31 40 41
f 31 42 43
f 31 43 44
f 31 44 45
f 31 45 46
f 31 46 40
f 33 47 43
f 33 43 42
f 34 48 49
f 34 49 35
f 35 49 48
f 35 48 50
f 38 39 51
f 39 52 51
f 40 46 41
f 41 53 54
f 41 54 55
f 41 46 56
f 41 56 53
f 43 47 57
f 43 57 44
f 45 58 56
f 45 56 46
f 47 59 60
f 47 60 61
f 47 61 57
f 48 55 62
f 48 62 63
f 48 63 64
f 48 64 50
f 50 64 56
f 50 56 58
f 51 52 65
f 52 66 67
f 52 67 65
f 53 63 62
f 53 62 55
f 53 55 54
f 53 56 64
f 53 64 63
f 59 67 66
f 59 66 68
f 59 68 60

