# https://github.com/mikedh/trimesh
v 37.94319149 20.68506839 -2.35867883
v 37.94319149 20.67320460 -3.20135070
v 37.94319149 3.37238544 -2.35867883
v 72.94703727 19.57834520 -2.35867883
v 72.94703727 19.71223572 -8.34944929
v 41.27052779 19.71223572 -8.34944929
v 40.03348408 19.67833973 -8.34944929
v 37.94319149 19.60546161 -8.34944929
v 37.94319149 3.37069007 -2.68706871
v 72.94703727 3.37238544 -2.35867883
v 72.94703727 14.57012290 -8.34944929
v 37.94319149 14.56842753 -8.34944929
v 37.94319149 3.37238544 -5.76044654
v 72.94703727 3.37238544 -5.76044654
v 72.94703727 4.29776200 -8.34299868
v 38.71077545 4.29776200 -8.34299868
v 37.94319149 4.29776200 -8.33420238
v 37.94319149 3.38424923 -6.52571247
v 72.94703727 3.39272323 -7.03999469
v 72.94703727 3.72152051 -7.98294286
v 43.83028013 3.53508871 -7.86566088
v 37.94319149 3.53678408 -7.86566088
v 61.74169447 3.53508871 -7.86624730
v 37.94319149 3.39272323 -7.03999469
v 72.94703727 3.53508871 -7.86624730
f 1 2 8
f 1 8 12
f 1 12 17
f 1 17 22
f 1 22 24
f 1 24 18
f 1 18 13
f 1 13 9
f 1 9 3
f 1 3 10
f 1 10 4
f 1 4 5
f 1 5 2
f 2 6 7
f 2 7 8
f 2 5 6
f 3 9 10
f 4 10 14
f 4 14 19
f 4 19 25
f 4 25 20
f 4 20 15
f 4 15 11
f 4 11 5
f 5 11 12
f 5 12 8
f 5 8 7
f 5 7 6
f 9 13 14
f 9 14 10
f 11 15 12
f 12 16 17
f 12 15 16
f 13 18 14
f 14 18 19
f 15 20 16
f 16 21 22
f 16 22 17
f 16 20 23
f 16 23 21
f 18 24 19
f 19 24 23
f 19 23 25
f 20 25 23
f 21 24 22
f 21 23 24

