v 128.934662 15.125000 11.925085
v 128.934662 15.122183 12.023292
v 128.934662 15.125000 11.000286
v 34.000000 15.125000 11.925085
v 128.934662 15.115142 12.121211
v 34.000000 15.122183 12.023292
v 128.934662 7.931947 11.004008
v 34.092927 7.931947 11.000286
v 34.000000 15.125000 11.000286
v 128.934662 15.103173 12.218558
v 34.000000 15.115142 12.121211
v 128.934662 7.931947 13.925000
v 34.000000 7.931947 11.000286
v 128.934662 15.086275 12.315333
v 34.000000 15.103173 12.218558
v 128.934662 13.124661 13.925000
v 34.000000 7.931947 13.925000
v 128.934662 15.064447 12.410963
v 34.000000 15.086275 12.315333
v 128.934662 13.222530 13.922423
v 34.000000 13.124661 13.925000
v 128.934662 15.038396 12.505446
v 34.000000 15.064447 12.410963
v 128.934662 13.320400 13.915265
v 34.000000 13.222530 13.922423
v 128.934662 15.007416 12.598500
v 34.000000 15.038396 12.505446
v 128.934662 13.418269 13.903239
v 34.000000 13.320400 13.915265
v 128.934662 14.972211 12.690120
v 34.000000 15.007416 12.598500
v 128.934662 13.514731 13.886347
v 34.000000 13.418269 13.903239
v 128.934662 14.932781 12.780023
v 34.000000 14.972211 12.690120
v 128.934662 13.610488 13.864874
v 34.000000 13.514731 13.886347
v 128.934662 14.888424 12.867636
v 34.000000 14.932781 12.780023
v 128.934662 13.705541 13.838819
v 34.000000 13.610488 13.864874
v 128.934662 14.839841 12.952958
v 34.000000 14.888424 12.867636
v 128.934662 13.798482 13.807897
v 34.000000 13.705541 13.838819
v 128.934662 14.787737 13.035990
v 34.000000 14.839841 12.952958
v 128.934662 13.890014 13.772679
v 34.000000 13.798482 13.807897
v 128.934662 14.731410 13.116158
v 34.000000 14.787737 13.035990
v 128.934662 13.979434 13.732881
v 34.000000 13.890014 13.772679
v 128.934662 14.670857 13.193749
v 34.000000 14.731410 13.116158
v 128.934662 14.067447 13.688789
v 34.000000 13.979434 13.732881
v 128.934662 14.606785 13.267906
v 34.000000 14.670857 13.193749
v 128.934662 14.152642 13.640402
v 34.000000 14.067447 13.688789
v 128.934662 14.539191 13.339198
v 34.000000 14.606785 13.267906
v 128.934662 14.235726 13.587720
v 34.000000 14.152642 13.640402
v 128.934662 14.468077 13.406768
v 34.000000 14.539191 13.339198
v 128.934662 14.315993 13.531315
v 34.000000 14.235726 13.587720
v 128.934662 14.393443 13.470903
v 34.000000 14.468077 13.406768
v 34.000000 14.315993 13.531315
v 34.000000 14.393443 13.470903
f 1 2 5
f 1 5 10
f 1 10 14
f 1 14 18
f 1 18 22
f 1 22 26
f 1 26 30
f 1 30 34
f 1 34 38
f 1 38 42
f 1 42 46
f 1 46 50
f 1 50 54
f 1 54 58
f 1 58 62
f 1 62 66
f 1 66 70
f 1 70 68
f 1 68 64
f 1 64 60
f 1 60 56
f 1 56 52
f 1 52 48
f 1 48 44
f 1 44 40
f 1 40 36
f 1 36 32
f 1 32 28
f 1 28 24
f 1 24 20
f 1 20 16
f 1 16 12
f 1 12 7
f 1 7 3
f 1 3 9
f 1 9 4
f 1 4 6
f 1 6 2
f 2 6 11
f 2 11 5
f 3 7 8
f 3 8 13
f 3 13 9
f 4 9 13
f 4 13 17
f 4 17 21
f 4 21 25
f 4 25 29
f 4 29 33
f 4 33 37
f 4 37 41
f 4 41 45
f 4 45 49
f 4 49 53
f 4 53 57
f 4 57 61
f 4 61 65
f 4 65 69
f 4 69 72
f 4 72 73
f 4 73 71
f 4 71 67
f 4 67 63
f 4 63 59
f 4 59 55
f 4 55 51
f 4 51 47
f 4 47 43
f 4 43 39
f 4 39 35
f 4 35 31
f 4 31 27
f 4 27 23
f 4 23 19
f 4 19 15
f 4 15 11
f 4 11 6
f 5 11 15
f 5 15 10
f 7 12 17
f 7 17 13
f 7 13 8
f 10 15 19
f 10 19 14
f 12 16 21
f 12 21 17
f 14 19 23
f 14 23 18
f 16 20 25
f 16 25 21
f 18 23 27
f 18 27 22
f 20 24 29
f 20 29 25
f 22 27 31
f 22 31 26
f 24 28 33
f 24 33 29
f 26 31 35
f 26 35 30
f 28 32 37
f 28 37 33
f 30 35 39
f 30 39 34
f 32 36 41
f 32 41 37
f 34 39 43
f 34 43 38
f 36 40 45
f 36 45 41
f 38 43 47
f 38 47 42
f 40 44 49
f 40 49 45
f 42 47 51
f 42 51 46
f 44 48 53
f 44 53 49
f 46 51 55
f 46 55 50
f 48 52 57
f 48 57 53
f 50 55 59
f 50 59 54
f 52 56 61
f 52 61 57
f 54 59 63
f 54 63 58
f 56 60 65
f 56 65 61
f 58 63 67
f 58 67 62
f 60 64 69
f 60 69 65
f 62 67 71
f 62 71 66
f 64 68 72
f 64 72 69
f 66 71 73
f 66 73 70
f 68 70 73
f 68 73 72
