# https://github.com/mikedh/trimesh
v 49.96306422 14.07205732 -13.72621189
v 49.77716925 14.07205732 -14.71937854
v 49.71116321 14.07205732 -13.57426060
v 51.70482151 8.13727514 -13.37226628
v 51.70482151 8.30291145 -13.42705693
v 51.70482151 9.20297281 -13.72621189
v 51.70482151 9.66654644 -14.71937854
v 51.70482151 9.31027231 -15.99891525
v 49.61282687 14.07205732 -15.48571242
v 48.94602982 14.07205732 -13.21629682
v 51.70482151 7.05595105 -13.37117068
v 48.85173358 14.07205732 -13.18963143
v 47.66631575 14.07205732 -12.97960173
v 51.70482151 9.23839254 -16.10301758
v 49.09824715 14.07205732 -16.12566386
v 51.70482151 8.84565648 -16.67137530
v 51.70482151 5.57772399 -13.37117068
v 46.38660359 14.07205732 -12.97229675
v 48.45839202 14.07205732 -16.67137530
v 51.70482151 8.13727514 -16.70351872
v 51.70482151 4.49639991 -13.58010477
v 37.94319149 5.57772399 -13.37117068
v 37.94319149 14.07205732 -12.97558451
v 47.66631575 14.07205732 -16.70388487
v 51.70482151 5.57772399 -16.70351872
v 51.70482151 4.29847047 -13.61845756
v 45.10688952 4.29847047 -13.61845756
v 37.94319149 4.81308834 -13.51910475
v 37.94319149 14.07205732 -16.70351872
v 47.66631575 9.41652961 -16.70388487
v 51.70482151 5.45896595 -16.69877015
v 37.94319149 5.57772399 -16.70351872
v 51.70482151 3.57341956 -13.97276837
v 37.94319149 4.29847047 -13.61882276
v 37.94319149 3.57341956 -13.97276837
v 51.70482151 4.80892142 -16.67137530
v 37.94319149 4.80892142 -16.67137530
v 37.94319149 5.26936939 -16.69073573
v 46.38660359 3.42966003 -14.71937854
v 51.70482151 3.45257902 -14.60358787
v 37.94319149 3.48799684 -14.41949222
v 51.70482151 4.16929419 -16.33569356
v 50.22574199 4.16929419 -16.33605971
v 37.94319149 4.16929419 -16.33605971
v 51.70482151 3.50154075 -15.54452123
v 51.70482151 3.43070128 -14.71937854
v 37.94319149 3.43070128 -14.71937854
v 37.94319149 3.48070522 -15.30344372
v 51.70482151 3.51508275 -15.69610732
v 37.94319149 3.51508275 -15.69610732
f 1 2 9
f 1 9 15
f 1 15 19
f 1 19 24
f 1 24 29
f 1 29 23
f 1 23 18
f 1 18 13
f 1 13 12
f 1 12 10
f 1 10 3
f 1 3 4
f 1 4 5
f 1 5 6
f 1 6 7
f 1 7 8
f 1 8 2
f 2 8 9
f 3 10 4
f 4 11 17
f 4 17 21
f 4 21 26
f 4 26 33
f 4 33 40
f 4 40 46
f 4 46 45
f 4 45 49
f 4 49 42
f 4 42 36
f 4 36 31
f 4 31 25
f 4 25 20
f 4 20 16
f 4 16 14
f 4 14 8
f 4 8 7
f 4 7 6
f 4 6 5
f 4 10 12
f 4 12 13
f 4 13 11
f 8 14 9
f 9 14 16
f 9 16 15
f 11 13 17
f 13 18 17
f 15 16 19
f 16 20 19
f 17 18 22
f 17 22 21
f 18 23 22
f 19 20 24
f 20 25 30
f 20 30 24
f 21 22 27
f 21 27 26
f 22 23 29
f 22 29 32
f 22 32 38
f 22 38 37
f 22 37 44
f 22 44 50
f 22 50 48
f 22 48 47
f 22 47 41
f 22 41 35
f 22 35 34
f 22 34 28
f 22 28 27
f 24 30 32
f 24 32 29
f 25 31 32
f 25 32 30
f 26 27 35
f 26 35 33
f 27 28 34
f 27 34 35
f 31 36 37
f 31 37 38
f 31 38 32
f 33 39 40
f 33 35 39
f 35 41 39
f 36 42 43
f 36 43 44
f 36 44 37
f 39 45 46
f 39 46 40
f 39 41 47
f 39 47 48
f 39 48 45
f 42 49 43
f 43 49 50
f 43 50 44
f 45 48 50
f 45 50 49

