v 40.543948 12.001028 -8.932370
v 40.548254 9.000000 -8.932370
v 40.543948 12.001028 -8.587002
v 40.543948 12.443841 -8.932370
v 42.755005 9.000000 -8.932370
v 41.332424 9.000000 -7.250000
v 41.332424 14.999706 -7.250000
v 40.547946 14.999706 -8.932370
v 43.684634 11.554691 -8.932370
v 41.970833 9.000000 -7.250000
v 41.970833 14.999706 -7.250000
v 42.754697 14.999706 -8.932370
v 43.684634 11.999853 -8.585026
v 43.685556 12.001028 -8.932370
v 43.685556 12.001028 -8.587002
v 43.061908 11.999853 -7.250000
v 43.062216 12.001028 -7.251153
v 43.685556 12.443841 -8.932370
f 1 2 3
f 1 3 4
f 1 4 8
f 1 8 12
f 1 12 18
f 1 18 14
f 1 14 9
f 1 9 5
f 1 5 2
f 2 5 10
f 2 10 6
f 2 6 3
f 3 6 7
f 3 7 8
f 3 8 4
f 5 9 10
f 6 10 16
f 6 16 11
f 6 11 7
f 7 11 12
f 7 12 8
f 9 13 10
f 9 14 15
f 9 15 13
f 10 13 16
f 11 17 15
f 11 15 18
f 11 18 12
f 11 16 17
f 13 15 16
f 14 18 15
f 15 17 16
