v 109.655617 11.547056 -8.932370
v 109.663185 9.000000 -8.932370
v 109.655617 11.999853 -8.578768
v 109.655617 11.999853 -8.932370
v 110.447683 9.000000 -7.250000
v 113.017376 9.000000 -8.932370
v 110.447683 14.999706 -7.250000
v 109.663185 14.999706 -8.932370
v 111.085746 9.000000 -7.250000
v 113.017376 9.585523 -8.932370
v 113.017376 9.000000 -8.475668
v 111.086075 14.999706 -7.250000
v 111.869916 14.999706 -8.932370
v 112.177266 11.999853 -7.250000
v 112.961764 11.999853 -8.932370
v 112.961436 12.001028 -8.932370
f 1 2 3
f 1 3 4
f 1 4 8
f 1 8 13
f 1 13 16
f 1 16 15
f 1 15 10
f 1 10 6
f 1 6 2
f 2 5 3
f 2 6 11
f 2 11 9
f 2 9 5
f 3 5 7
f 3 7 8
f 3 8 4
f 5 9 14
f 5 14 12
f 5 12 7
f 6 10 11
f 7 12 13
f 7 13 8
f 9 11 14
f 10 15 11
f 11 15 14
f 12 16 13
f 12 14 16
f 14 15 16
