# https://github.com/mikedh/trimesh
v 129.52062418 13.99509048 17.27719660
v 129.44761397 6.86208911 17.27719660
v 129.28096023 6.86208911 16.04641409
v 129.28413458 8.14226587 16.04568727
v 129.28572176 9.42244168 16.04532386
v 129.28572176 10.70261845 16.04496045
v 129.28572176 13.26297007 16.04459704
v 129.28572176 13.99509048 16.04459704
v 129.18096798 13.99509048 18.35467522
v 129.10160906 6.86208911 18.08112825
v 129.07462702 5.58191330 18.05678834
v 129.35238326 5.58191330 17.27719660
v 129.21112437 5.58191330 16.10272173
v 128.62386071 6.86208911 15.40632046
v 128.62544788 9.42244168 15.40522927
v 128.62703506 11.98279426 15.40486682
v 128.90955665 13.99509048 15.67841474
v 128.29372377 13.99509048 18.84291955
v 128.29372377 5.58191330 18.41207309
v 129.00954508 4.83738447 17.99394122
v 129.09684752 4.72156908 17.27719660
v 129.07462702 4.75362456 16.31850837
v 128.52863000 5.58191330 15.46262714
v 127.88740226 5.58191330 15.33293826
v 127.98263297 6.86208911 15.32676314
v 128.62386071 8.14226587 15.40559364
v 128.62544788 10.70261845 15.40486682
v 128.62703506 13.26297007 15.40450436
v 128.62703506 13.99509048 15.40450436
v 128.03818422 13.99509048 18.88396968
v 127.01285929 5.58191330 18.62858655
v 127.01285929 4.30173748 18.35685473
v 128.20166742 4.36688334 18.12944372
v 128.41434933 4.08148022 17.27719660
v 127.71281263 3.63062615 17.95725012
v 127.75566645 3.61097910 16.50741218
v 128.17785974 4.40100672 15.98610989
v 127.74614338 4.90149637 15.34528849
v 127.01285929 5.58191330 15.30242322
v 127.01285929 6.86208911 15.29624620
v 127.98422015 8.14226587 15.32676314
v 128.26198020 13.99509048 15.35982109
v 127.01285929 13.99509048 19.00203515
v 126.88905937 13.99509048 19.00276197
v 125.73358199 13.99509048 19.00712099
v 125.73358199 5.58191330 18.62894996
v 125.73358199 4.30173748 18.38083124
v 125.73358199 3.57685476 18.02518307
v 127.01285929 3.59650182 18.00120752
v 127.77471259 3.60063859 17.27719660
v 127.01285929 3.48585716 17.27719660
v 127.01285929 3.55100397 16.37082040
v 127.01285929 4.21073893 15.73072677
v 125.73358199 4.17971742 15.65879821
v 127.01285929 4.85082684 15.33293826
v 125.73358199 4.81980532 15.32676314
v 125.73358199 5.58191330 15.29624620
v 118.05315665 8.14226587 15.29588374
v 127.01285929 13.99509048 15.29624620
v 127.98739451 13.26297007 15.32676314
v 127.98739451 13.99509048 15.32676314
v 121.89257573 13.99509048 19.00457807
v 113.30586385 5.58191330 18.62894996
v 119.33402113 4.30173748 18.38119465
v 125.73358199 3.43208577 17.27719660
v 113.30586385 3.57685476 18.02518307
v 113.30586385 3.43105181 17.27719660
v 125.73358199 3.51687963 16.29889183
v 113.30586385 4.17971742 15.65879821
v 113.30586385 4.63263844 15.42375653
v 113.30586385 4.81980532 15.32676314
v 113.30586385 5.35958813 15.30496614
v 113.30586385 5.58191330 15.29624620
v 113.30586385 7.76896703 15.29588374
v 113.30586385 8.14226587 15.29588374
v 120.61329843 13.99509048 15.29624620
v 120.61329843 13.99509048 19.00312443
v 119.33402113 13.99509048 18.94136754
v 113.30586385 8.14226587 18.62894996
v 113.30586385 4.30173748 18.38119465
v 113.30586385 3.51687963 16.29889183
v 113.30586385 8.64172061 15.31768074
v 119.33402113 13.99509048 15.31768074
v 118.21029114 13.99509048 18.41933844
v 113.30586385 9.20735611 18.27293839
v 113.30586385 8.45351977 18.52505273
v 113.30586385 8.84749963 15.32676314
v 118.68168696 13.99509048 15.34855823
v 118.11346943 13.99509048 18.01174261
v 113.30586385 9.66854973 17.27719660
v 113.30586385 9.30766025 15.99737180
v 118.54836015 13.99509048 15.71946391
v 118.15473607 13.99509048 17.27719660
v 118.25155778 13.99509048 16.72937489
v 118.44995509 13.99509048 15.99737180
f 1 2 3
f 1 3 4
f 1 4 5
f 1 5 6
f 1 6 7
f 1 7 8
f 1 8 17
f 1 17 29
f 1 29 42
f 1 42 61
f 1 61 59
f 1 59 76
f 1 76 83
f 1 83 88
f 1 88 92
f 1 92 95
f 1 95 94
f 1 94 93
f 1 93 89
f 1 89 84
f 1 84 78
f 1 78 77
f 1 77 62
f 1 62 45
f 1 45 44
f 1 44 43
f 1 43 30
f 1 30 18
f 1 18 9
f 1 9 2
f 2 9 10
f 2 10 11
f 2 11 12
f 2 12 13
f 2 13 3
f 3 13 14
f 3 14 4
f 4 14 5
f 5 14 15
f 5 15 16
f 5 16 17
f 5 17 6
f 6 17 7
f 7 17 8
f 9 18 11
f 9 11 10
f 11 18 19
f 11 19 20
f 11 20 12
f 12 20 21
f 12 21 22
f 12 22 13
f 13 22 23
f 13 23 14
f 14 23 24
f 14 24 25
f 14 25 26
f 14 26 15
f 15 26 25
f 15 25 27
f 15 27 28
f 15 28 16
f 16 28 17
f 17 28 29
f 18 30 31
f 18 31 19
f 19 31 32
f 19 32 33
f 19 33 20
f 20 34 21
f 20 33 35
f 20 35 34
f 21 34 22
f 22 34 36
f 22 36 37
f 22 37 38
f 22 38 23
f 23 38 24
f 24 38 39
f 24 39 25
f 25 39 40
f 25 40 41
f 25 41 28
f 25 28 27
f 28 41 42
f 28 42 29
f 30 43 31
f 31 43 44
f 31 44 45
f 31 45 46
f 31 46 47
f 31 47 32
f 32 47 48
f 32 48 49
f 32 49 35
f 32 35 33
f 34 35 50
f 34 50 36
f 35 49 51
f 35 51 50
f 36 38 37
f 36 50 51
f 36 51 52
f 36 52 53
f 36 53 38
f 38 53 54
f 38 54 55
f 38 55 39
f 39 55 56
f 39 56 57
f 39 57 40
f 40 57 58
f 40 58 59
f 40 59 61
f 40 61 60
f 40 60 41
f 41 60 42
f 42 60 61
f 45 62 63
f 45 63 46
f 46 63 80
f 46 80 64
f 46 64 47
f 47 64 48
f 48 65 49
f 48 64 80
f 48 80 66
f 48 66 67
f 48 67 65
f 49 65 51
f 51 65 52
f 52 65 68
f 52 68 53
f 53 68 54
f 54 56 55
f 54 68 81
f 54 81 69
f 54 69 70
f 54 70 56
f 56 70 71
f 56 71 72
f 56 72 57
f 57 72 73
f 57 73 74
f 57 74 58
f 58 74 75
f 58 75 76
f 58 76 59
f 62 77 63
f 63 77 78
f 63 78 79
f 63 79 86
f 63 86 85
f 63 85 90
f 63 90 91
f 63 91 87
f 63 87 82
f 63 82 75
f 63 75 74
f 63 74 73
f 63 73 72
f 63 72 71
f 63 71 70
f 63 70 69
f 63 69 81
f 63 81 67
f 63 67 66
f 63 66 80
f 65 67 68
f 67 81 68
f 75 82 83
f 75 83 76
f 78 84 85
f 78 85 86
f 78 86 79
f 82 87 83
f 83 87 88
f 84 89 90
f 84 90 85
f 87 91 88
f 88 91 92
f 89 93 90
f 90 93 94
f 90 94 95
f 90 95 91
f 91 95 92

