# https://github.com/mikedh/trimesh
v 19.08420533 -8.48488032 -11.64559666
v 24.67533999 -4.65979120 -11.63679369
v 19.51168317 -8.48488032 -11.64300783
v 19.08420533 -8.48488032 -6.37160239
v 19.08420533 3.08244537 -11.66113153
v 19.44490573 3.08704900 -11.66113153
v 20.66165265 3.15149030 -11.66113153
v 21.39892779 3.69004075 -11.66113153
v 21.98896682 4.38049005 -11.66113153
v 24.67533999 -6.02688082 -11.57983377
v 22.91890792 6.00995040 -11.66113153
v 23.08694235 7.12387559 -11.66113153
v 24.67533999 22.33677263 -11.66113153
v 20.36171103 -8.48488032 -11.57465516
v 24.67533999 -8.48488032 -6.37160239
v 19.08420533 24.34367733 -6.37108463
v 19.08420533 35.98925235 -11.66113153
v 24.67533999 -6.17877966 -11.54772850
v 24.67533999 38.53010578 -11.66113153
v 24.67533999 -8.48488032 -9.94352328
v 24.07818383 -6.57924026 -11.52131960
v 24.67533999 -6.88763967 -11.16505977
v 24.67533999 36.33447891 -6.37160239
v 19.08420533 33.30110562 -6.37108463
v 19.08420533 35.98925235 -8.32067660
v 19.15809608 36.02607759 -11.66113153
v 24.65782179 38.52550596 -11.66113153
v 24.67533999 38.53470941 -8.36520824
v 24.67533999 37.40697619 -6.38610173
v 23.35076054 36.28844641 -6.37212016
v 20.79137436 35.00881625 -6.37160239
v 19.08420533 33.72918609 -6.37160239
v 21.33817282 36.97429208 -7.51909127
v 23.98240008 38.21250101 -7.66459863
v 19.51168317 36.18718179 -8.32067660
v 19.08420533 35.94782730 -7.84376407
v 19.51168317 36.18718179 -11.66113153
v 23.97856690 38.21710464 -11.66113153
v 24.67533999 38.53470941 -8.32067660
v 23.97802148 38.21710464 -10.87974144
v 24.67533999 37.44380142 -6.38713726
v 22.65782444 36.94667792 -6.39179763
v 23.35076054 36.97429208 -6.38661950
v 20.07052278 35.67164758 -6.39076162
v 19.08420533 34.48407478 -6.37885206
v 19.08420533 35.79593036 -7.23221917
v 24.67533999 38.32297289 -7.20788134
v 24.67533999 37.95013218 -6.67918750
v 24.67533999 38.29075129 -7.15920662
v 22.16740234 37.10778213 -7.07169472
v 19.08420533 35.28039234 -6.61653120
v 19.21721098 35.30340668 -6.55439267
v 19.08420533 35.18833498 -6.53160908
v 19.08420533 34.75104724 -6.38403019
f 1 2 3
f 1 3 14
f 1 14 20
f 1 20 15
f 1 15 4
f 1 4 16
f 1 16 24
f 1 24 32
f 1 32 45
f 1 45 54
f 1 54 53
f 1 53 51
f 1 51 46
f 1 46 36
f 1 36 25
f 1 25 17
f 1 17 5
f 1 5 6
f 1 6 7
f 1 7 8
f 1 8 9
f 1 9 2
f 2 10 3
f 2 9 11
f 2 11 12
f 2 12 13
f 2 13 19
f 2 19 28
f 2 28 39
f 2 39 47
f 2 47 49
f 2 49 48
f 2 48 41
f 2 41 29
f 2 29 23
f 2 23 15
f 2 15 20
f 2 20 22
f 2 22 18
f 2 18 10
f 3 10 14
f 4 15 16
f 5 17 26
f 5 26 37
f 5 37 38
f 5 38 27
f 5 27 19
f 5 19 13
f 5 13 12
f 5 12 11
f 5 11 9
f 5 9 8
f 5 8 7
f 5 7 6
f 10 18 14
f 14 18 21
f 14 21 22
f 14 22 20
f 15 23 24
f 15 24 16
f 17 25 26
f 18 22 21
f 19 27 28
f 23 29 30
f 23 30 31
f 23 31 24
f 24 31 32
f 25 33 34
f 25 34 35
f 25 35 26
f 25 36 33
f 26 35 37
f 27 38 28
f 28 38 40
f 28 40 37
f 28 37 35
f 28 35 39
f 29 41 42
f 29 42 43
f 29 43 30
f 30 43 42
f 30 42 44
f 30 44 31
f 31 44 45
f 31 45 32
f 33 36 46
f 33 46 47
f 33 47 34
f 34 47 39
f 34 39 35
f 37 40 38
f 41 48 42
f 42 46 44
f 42 48 49
f 42 49 47
f 42 47 50
f 42 50 46
f 44 46 51
f 44 51 52
f 44 52 53
f 44 53 54
f 44 54 45
f 46 50 47
f 51 53 52

