# https://github.com/mikedh/trimesh
v 72.94703727 21.05201440 14.77864659
v 72.94703727 18.37508497 14.77864659
v 72.94703727 21.05201440 9.41202380
v 48.46661905 21.05201440 16.66923618
v 72.94703727 18.06257203 14.76243090
v 48.46661905 14.53652631 16.66923618
v 48.47347301 13.26589745 16.66555175
v 72.94703727 20.05426224 9.17468698
v 38.97805875 21.05201440 9.17468698
v 47.66819611 21.05201440 16.70387974
v 72.94703727 17.09607269 14.71157260
v 47.66819611 13.26589745 16.70387974
v 49.10741436 13.26589745 16.12380317
v 72.94703727 14.62265655 12.15688063
v 72.94703727 14.85056108 12.98240188
v 72.94703727 14.92449760 13.24922177
v 72.94703727 15.24615487 13.73274129
v 72.94703727 15.35057948 13.88900062
v 72.94703727 15.99008562 14.36072691
v 72.94703727 16.82548255 14.62607265
v 72.94703727 14.57082470 9.17468698
v 37.94319149 21.05201440 9.17468698
v 37.94319149 21.05201440 16.70314171
v 37.94319149 13.26589745 16.70314171
v 49.61799404 13.26589745 15.47812770
v 72.94703727 14.60969811 11.84436198
v 72.94703727 14.57158752 10.87732294
v 49.64540795 13.26589745 14.71599506
v 49.64540795 13.26589745 14.70715014
v 49.62142102 13.26589745 14.02241056
v 48.94978481 13.26589745 13.61554703
v 47.66819611 13.26589745 13.25511839
v 46.39003247 13.26589745 13.24922177
v 37.94319149 14.57006378 9.17468698
v 37.94319149 13.26589745 13.24995885
v 43.81314524 13.26589745 13.24922177
f 1 2 5
f 1 5 11
f 1 11 20
f 1 20 19
f 1 19 18
f 1 18 17
f 1 17 16
f 1 16 15
f 1 15 14
f 1 14 26
f 1 26 27
f 1 27 21
f 1 21 8
f 1 8 3
f 1 3 9
f 1 9 22
f 1 22 23
f 1 23 10
f 1 10 4
f 1 4 6
f 1 6 2
f 2 6 7
f 2 7 5
f 3 8 9
f 4 10 12
f 4 12 6
f 5 7 11
f 6 12 7
f 7 12 24
f 7 24 35
f 7 35 36
f 7 36 33
f 7 33 32
f 7 32 31
f 7 31 30
f 7 30 29
f 7 29 28
f 7 28 25
f 7 25 13
f 7 13 14
f 7 14 15
f 7 15 16
f 7 16 17
f 7 17 18
f 7 18 19
f 7 19 20
f 7 20 11
f 8 21 34
f 8 34 22
f 8 22 9
f 10 23 24
f 10 24 12
f 13 25 14
f 14 25 26
f 21 27 28
f 21 28 29
f 21 29 30
f 21 30 31
f 21 31 32
f 21 32 33
f 21 33 34
f 22 34 35
f 22 35 24
f 22 24 23
f 25 28 27
f 25 27 26
f 33 36 34
f 34 36 35

