# https://github.com/mikedh/trimesh
v 47.52427447 36.43616690 -16.70388487
v 47.66819611 37.57301966 -16.70388487
v 47.66819611 36.43616690 -16.70388487
v 37.94319149 36.43616690 -16.70304386
v 37.94319149 40.13200537 -16.70304386
v 72.94703727 40.13200537 -16.70304386
v 48.45976510 36.43616690 -16.67107590
v 72.94703727 39.38167454 -16.67107590
v 37.94319149 36.43616690 -8.10965332
v 37.94319149 41.09584246 -16.67107590
v 72.94703727 40.36759914 -16.69547285
v 72.94703727 38.78349238 -15.99891525
v 63.02328413 36.43616690 -14.68151491
v 37.94319149 40.13200537 -8.11049433
v 63.02328413 36.43616690 -9.44640264
v 72.94703727 40.13200537 -9.42116563
v 37.94319149 41.47867996 -16.61807693
v 72.94703727 41.09584246 -16.67107590
v 72.94703727 38.41538116 -15.03147573
v 64.13353824 36.43616690 -14.40726609
v 37.94319149 41.52285498 -8.40577416
v 72.94703727 41.41180716 -9.51622660
v 63.17405972 36.43616690 -9.49014763
v 72.94703727 38.91171895 -9.83085542
v 72.94703727 39.83322323 -9.52127458
v 37.94319149 41.73574336 -16.58190391
v 72.94703727 41.73574336 -16.58190391
v 72.94703727 38.29635803 -14.71852990
v 64.59957102 36.43616690 -13.58704550
v 37.94319149 41.71611213 -8.57907207
v 72.94703727 42.33576392 -9.92591639
v 64.16095216 36.43616690 -9.85272743
v 72.94703727 38.31353679 -10.87989687
v 37.94319149 42.11980900 -16.19913315
v 71.98070575 42.37748647 -15.94255224
v 72.94703727 41.89280460 -16.42543003
v 72.94703727 38.29574396 -12.16028222
v 64.72293269 36.43616690 -12.16028222
v 64.71607969 36.43616690 -12.37564310
v 64.64411792 36.43616690 -13.43898556
v 37.94319149 42.11612457 -9.08634682
v 72.94703727 42.66154233 -10.87989687
v 37.94319149 42.41061583 -9.58016253
v 64.67838579 36.43616690 -10.87989687
v 37.94319149 42.37748647 -15.94171027
v 72.94703727 42.37748647 -15.94255224
v 37.94319149 42.57258202 -15.21066263
v 72.94703727 42.69344736 -11.84733639
v 37.94319149 42.69160514 -10.87989687
v 37.94319149 42.52166365 -9.95704239
v 72.94703727 42.45724333 -15.64306640
v 37.94319149 42.70326488 -14.71852990
v 72.94703727 42.70326488 -14.71852990
v 72.94703727 42.70326488 -12.16028222
v 37.94319149 42.70142266 -11.39474263
v 37.94319149 42.70326488 -12.16028222
f 1 2 3
f 1 3 7
f 1 7 13
f 1 13 20
f 1 20 29
f 1 29 40
f 1 40 39
f 1 39 38
f 1 38 44
f 1 44 32
f 1 32 23
f 1 23 15
f 1 15 9
f 1 9 4
f 1 4 5
f 1 5 2
f 2 5 6
f 2 6 3
f 3 6 8
f 3 8 7
f 4 9 14
f 4 14 21
f 4 21 30
f 4 30 41
f 4 41 43
f 4 43 50
f 4 50 49
f 4 49 55
f 4 55 56
f 4 56 52
f 4 52 47
f 4 47 45
f 4 45 34
f 4 34 26
f 4 26 17
f 4 17 10
f 4 10 5
f 5 10 11
f 5 11 6
f 6 11 18
f 6 18 27
f 6 27 36
f 6 36 46
f 6 46 51
f 6 51 53
f 6 53 54
f 6 54 48
f 6 48 42
f 6 42 31
f 6 31 22
f 6 22 16
f 6 16 25
f 6 25 24
f 6 24 33
f 6 33 37
f 6 37 28
f 6 28 19
f 6 19 12
f 6 12 8
f 7 8 12
f 7 12 13
f 9 15 16
f 9 16 14
f 10 17 18
f 10 18 11
f 12 19 20
f 12 20 13
f 14 16 22
f 14 22 21
f 15 23 24
f 15 24 25
f 15 25 16
f 17 26 27
f 17 27 18
f 19 28 20
f 20 28 29
f 21 22 31
f 21 31 30
f 23 32 24
f 24 32 33
f 26 34 35
f 26 35 36
f 26 36 27
f 28 37 38
f 28 38 39
f 28 39 40
f 28 40 29
f 30 31 41
f 31 42 43
f 31 43 41
f 32 44 33
f 33 44 37
f 34 45 35
f 35 46 36
f 35 45 47
f 35 47 46
f 37 44 38
f 42 48 49
f 42 49 50
f 42 50 43
f 46 47 51
f 47 52 53
f 47 53 51
f 48 54 49
f 49 54 55
f 52 56 54
f 52 54 53
f 54 56 55

