# https://github.com/mikedh/trimesh
v 37.91402764 20.81725096 15.32383869
v 37.98290585 20.81725096 15.32129767
v 37.91402764 20.81725096 21.53856956
v 37.91402764 28.11286182 15.29673647
v 38.67963714 20.81725096 15.29673647
v 38.05708355 20.81725096 21.63511846
v 37.91402764 29.90623234 23.93621249
v 37.91402764 40.14579984 15.29673647
v 47.64045385 20.81725096 15.29673647
v 38.78560420 20.81725096 22.10939582
v 37.91402764 30.01979191 23.93875351
v 39.76977122 20.81725096 22.46679808
v 39.96051116 20.81725096 22.51930755
v 41.05859258 20.81725096 22.61331640
v 41.24005935 20.81725096 22.62263249
v 51.44598705 20.81725096 22.62263249
v 37.91402764 40.70716502 15.31452164
v 51.44598705 40.17365177 15.29758347
v 51.44598705 40.14579984 15.29673647
v 47.71992915 20.81725096 15.29927557
v 37.91402764 31.18751650 23.94806864
v 51.44598705 20.81725096 17.50466770
v 51.44598705 40.14579984 22.57859210
v 37.91402764 38.86665607 23.93790650
v 37.91402764 41.08212068 15.32722479
v 46.35958174 41.08212068 15.32722479
v 51.44598705 41.07998028 15.32722479
v 51.44598705 39.39802511 15.32722479
v 48.43388094 20.81725096 15.32722479
v 49.07365504 20.81725096 15.63296459
v 51.44598705 20.81939136 17.34544623
v 51.44598705 41.39065902 22.48119619
v 37.91402764 40.14579984 23.93282448
v 37.91402764 41.46564939 15.38396833
v 42.52093336 41.72276467 15.42207969
v 50.20087701 41.72062045 15.42207969
v 51.44598705 41.09711875 15.32976581
v 48.49878548 20.81725096 15.35771503
v 51.44598705 41.42708400 22.47780818
v 37.91402764 40.26364021 23.90318220
v 37.91402764 41.72276467 15.42207969
v 37.91402764 42.11914723 15.80489112
v 37.91402764 42.38483175 16.06150850
v 51.44598705 42.38483175 16.06235550
v 51.44598705 41.73990696 15.44071378
v 51.44598705 41.72062045 15.42292670
v 37.91402764 41.48707630 23.58050329
v 51.44598705 42.34412215 22.06789740
v 37.91402764 42.57552591 16.78901713
v 43.80048346 42.70408355 17.27769164
v 51.44598705 42.70408355 17.27769164
v 37.91402764 41.76347427 23.25782532
v 51.44598705 42.65266049 21.14390199
v 37.91402764 42.41697212 22.37787125
v 37.91402764 42.70193933 17.27769164
v 51.44598705 42.70408355 18.59381266
v 37.91402764 42.70193933 19.83709801
v 51.44598705 42.66122973 21.11764773
v 37.91402764 42.53053169 21.99675479
v 51.44598705 42.70193933 19.87266836
v 37.91402764 42.69979893 20.60271800
v 37.91402764 42.69122588 21.11764773
f 1 2 5
f 1 5 9
f 1 9 20
f 1 20 29
f 1 29 38
f 1 38 30
f 1 30 22
f 1 22 16
f 1 16 15
f 1 15 14
f 1 14 13
f 1 13 12
f 1 12 10
f 1 10 6
f 1 6 3
f 1 3 7
f 1 7 11
f 1 11 21
f 1 21 24
f 1 24 33
f 1 33 40
f 1 40 47
f 1 47 52
f 1 52 54
f 1 54 59
f 1 59 62
f 1 62 61
f 1 61 57
f 1 57 55
f 1 55 49
f 1 49 43
f 1 43 42
f 1 42 41
f 1 41 34
f 1 34 25
f 1 25 17
f 1 17 8
f 1 8 4
f 1 4 2
f 2 4 5
f 3 6 7
f 4 8 19
f 4 19 9
f 4 9 5
f 6 10 7
f 7 10 12
f 7 12 13
f 7 13 14
f 7 14 15
f 7 15 16
f 7 16 11
f 8 17 18
f 8 18 19
f 9 19 20
f 11 16 21
f 16 22 31
f 16 31 28
f 16 28 19
f 16 19 18
f 16 18 27
f 16 27 37
f 16 37 46
f 16 46 45
f 16 45 44
f 16 44 51
f 16 51 56
f 16 56 60
f 16 60 58
f 16 58 53
f 16 53 48
f 16 48 39
f 16 39 32
f 16 32 23
f 16 23 24
f 16 24 21
f 17 25 26
f 17 26 27
f 17 27 18
f 19 28 29
f 19 29 20
f 22 30 31
f 23 32 33
f 23 33 24
f 25 34 26
f 26 34 35
f 26 35 36
f 26 36 27
f 27 36 37
f 28 31 30
f 28 30 38
f 28 38 29
f 32 39 33
f 33 39 40
f 34 41 35
f 35 41 42
f 35 42 43
f 35 43 44
f 35 44 45
f 35 45 36
f 36 45 46
f 36 46 37
f 39 47 40
f 39 48 47
f 43 49 50
f 43 50 51
f 43 51 44
f 47 48 52
f 48 53 54
f 48 54 52
f 49 55 50
f 50 56 51
f 50 55 57
f 50 57 56
f 53 58 54
f 54 58 59
f 56 57 60
f 57 61 60
f 58 60 62
f 58 62 59
f 60 61 62

