# https://github.com/mikedh/trimesh
v 37.94319149 3.37075872 -2.35867835
v 37.94319149 3.37167506 5.75679417
v 37.94319149 12.73509918 -2.35867835
v 72.94703727 3.37167506 -2.35867835
v 72.94703727 3.37167506 5.75679417
v 52.78770079 3.39275947 7.03658595
v 37.94319149 3.39367581 7.03658595
v 72.94703727 3.38725952 6.72449257
v 37.94319149 12.73509918 5.71594981
v 72.94703727 12.73509918 -2.35867835
v 37.94319149 3.53668587 7.86080515
v 72.94703727 3.39275947 7.03658595
v 61.74169447 3.53576857 7.86185260
v 37.94319149 5.57548129 8.15404730
v 66.86120011 5.57548129 8.15509522
v 72.94703727 12.73509918 5.71594981
v 43.83028013 4.29848382 8.33837085
v 37.94319149 3.84287119 8.05245942
v 72.94703727 4.29848382 8.34046479
v 57.90377945 4.29848382 8.33941782
v 72.94703727 3.53576857 7.86185260
v 72.94703727 4.11147228 8.22316851
v 37.94319149 4.81184971 8.26401286
v 72.94703727 5.57548129 8.15509522
v 37.94319149 4.29848382 8.33732387
f 1 2 7
f 1 7 11
f 1 11 18
f 1 18 25
f 1 25 23
f 1 23 14
f 1 14 9
f 1 9 3
f 1 3 10
f 1 10 4
f 1 4 5
f 1 5 2
f 2 6 7
f 2 5 8
f 2 8 6
f 3 9 16
f 3 16 10
f 4 10 16
f 4 16 24
f 4 24 19
f 4 19 22
f 4 22 21
f 4 21 12
f 4 12 8
f 4 8 5
f 6 11 7
f 6 8 12
f 6 12 21
f 6 21 13
f 6 13 11
f 9 14 15
f 9 15 24
f 9 24 16
f 11 17 18
f 11 13 19
f 11 19 20
f 11 20 17
f 13 21 22
f 13 22 19
f 14 23 20
f 14 20 19
f 14 19 15
f 15 19 24
f 17 23 25
f 17 25 18
f 17 20 23

