v 97.088808 12.001028 -8.932370
v 97.089781 11.548231 -8.932370
v 97.088808 12.001028 -8.578933
v 97.088808 12.454412 -8.932370
v 97.096597 9.000000 -8.932370
v 97.881338 9.000000 -7.250000
v 97.881338 14.999706 -7.250000
v 97.096597 14.999706 -8.932370
v 99.303481 9.000000 -8.932370
v 98.519713 9.000000 -7.250000
v 98.519387 14.999706 -7.250000
v 100.404326 14.999706 -8.932370
v 100.229397 11.542945 -8.932370
v 100.229397 11.999853 -8.575804
v 99.610820 11.999853 -7.250000
v 100.404326 14.999706 -8.575804
v 100.404326 14.542211 -8.932370
v 100.394914 12.001028 -8.932370
f 1 2 3
f 1 3 4
f 1 4 8
f 1 8 12
f 1 12 17
f 1 17 18
f 1 18 13
f 1 13 9
f 1 9 5
f 1 5 2
f 2 5 3
f 3 5 6
f 3 6 7
f 3 7 8
f 3 8 4
f 5 9 10
f 5 10 6
f 6 10 15
f 6 15 11
f 6 11 7
f 7 11 16
f 7 16 12
f 7 12 8
f 9 13 10
f 10 13 14
f 10 14 15
f 11 15 16
f 12 16 17
f 13 18 14
f 14 18 16
f 14 16 15
f 16 18 17
