# https://github.com/mikedh/trimesh
v 24.67614858 24.59480788 -13.09865727
v 24.67614858 20.65333309 -11.62824627
v 24.67614858 24.59480788 -6.37129011
v 28.15602450 24.59480788 -11.60215680
v 28.11069762 20.65333309 -11.69709191
v 27.46879431 20.65333309 -11.73912436
v 24.67614858 20.65333309 -6.37129011
v 28.45957428 24.59480788 -5.69514706
v 28.70646163 24.59480788 -11.33039477
v 30.24120237 20.65333309 -10.72309880
v 29.01082000 20.65333309 -11.30503094
v 28.45957428 20.65333309 -5.69514706
v 32.94480387 24.59480788 -5.69514706
v 28.85944940 24.59480788 -11.24053243
v 29.85185037 24.59480788 -10.63758454
v 31.03447626 24.59480788 -9.82302409
v 32.05115785 24.59480788 -9.11137120
v 32.94480387 24.59480788 -8.48233384
v 31.48129927 20.65333309 -9.80853047
v 32.94480387 20.65333309 -5.69514706
v 32.94480387 20.65333309 -8.71133874
v 32.11915581 20.65333309 -9.33240366
f 1 2 7
f 1 7 3
f 1 3 8
f 1 8 13
f 1 13 18
f 1 18 17
f 1 17 16
f 1 16 15
f 1 15 14
f 1 14 9
f 1 9 4
f 1 4 5
f 1 5 6
f 1 6 2
f 2 6 5
f 2 5 11
f 2 11 10
f 2 10 19
f 2 19 22
f 2 22 21
f 2 21 20
f 2 20 12
f 2 12 7
f 3 7 12
f 3 12 8
f 4 9 10
f 4 10 11
f 4 11 5
f 8 12 20
f 8 20 13
f 9 14 10
f 10 14 15
f 10 15 16
f 10 16 17
f 10 17 18
f 10 18 19
f 13 20 21
f 13 21 18
f 18 21 22
f 18 22 19

