# https://github.com/mikedh/trimesh
v 127.01459920 42.64897483 8.99447218
v 127.01459920 42.65112218 0.82263390
v 126.33826593 42.61246617 8.99447218
v 128.13682485 42.32255947 8.99447218
v 127.97658645 42.37195220 0.82263390
v 127.64538438 42.46858649 -9.03652024
v 127.01406523 42.64897483 -9.03652024
v 128.14164970 42.32471063 -8.31817645
v 125.70694678 42.45140774 -9.03652024
v 125.08902278 42.33330000 8.99447218
v 128.13736264 42.32255947 8.31672196
v 128.13896838 42.32471063 0.82263390
v 128.47552928 42.09922806 8.99447218
v 128.13950617 42.32471063 -0.64053100
v 128.14164970 42.32471063 -9.03652024
v 128.78154297 41.90595565 -8.31817645
v 124.93628674 42.13358556 -9.03652024
v 124.90198644 42.15720635 8.99447218
v 128.77939944 41.90380831 -0.64053100
v 128.78100518 41.90595565 -7.03856822
v 128.77671812 41.89951362 8.99447218
v 128.78154297 41.90595565 -9.03652024
v 129.22528799 41.26601280 -7.03856822
v 129.22636357 41.25957458 8.99447218
v 129.22636357 41.26171811 3.19829142
v 129.22582197 41.26386927 -0.64053100
v 124.68547466 41.77281269 -9.03652024
v 124.47110260 41.40989629 -9.03652024
v 124.47003084 41.40989629 8.99447218
v 128.77725591 41.89951362 8.31672196
v 129.22528799 41.26601280 -9.03652024
v 129.41285831 40.66258242 8.99447218
v 129.57845934 40.13001440 8.99447218
v 124.25619656 40.13001440 -9.03652024
v 124.39500347 41.01476210 8.99447218
v 129.57845934 40.13001440 3.19829142
v 129.57739139 40.13001440 -7.03856822
v 129.38017138 40.76565875 -9.03652024
v 129.63848581 38.85013251 8.99447218
v 124.16348317 20.71490427 -9.03652024
v 124.29049685 40.13001440 8.99447218
v 129.63848581 38.85013251 8.31672196
v 129.58703346 39.94533137 0.82263390
v 129.60364773 39.56737975 -9.03652024
v 129.57685742 40.13001440 -9.03652024
v 129.63848581 36.29036872 8.99447218
v 129.63687625 20.71490427 -9.03652024
v 124.93950203 20.71490427 0.81557399
v 124.23315171 20.93179746 8.99447218
v 129.63848581 37.57025062 8.31672196
v 129.63741023 38.85013251 -9.03652024
v 129.63795183 20.93179746 8.99447218
v 129.63795183 20.93179746 0.82263390
v 129.63741023 22.21812139 -9.03652024
v 129.63741023 20.71490427 -8.31817645
v 126.63570168 20.71490427 0.82263390
v 129.63741023 20.71490427 0.82263390
f 1 2 3
f 1 3 10
f 1 10 18
f 1 18 29
f 1 29 35
f 1 35 41
f 1 41 49
f 1 49 52
f 1 52 46
f 1 46 39
f 1 39 33
f 1 33 32
f 1 32 24
f 1 24 21
f 1 21 13
f 1 13 4
f 1 4 5
f 1 5 2
f 2 6 7
f 2 7 3
f 2 5 8
f 2 8 6
f 3 7 9
f 3 9 10
f 4 11 12
f 4 12 5
f 4 13 11
f 5 12 14
f 5 14 8
f 6 8 15
f 6 15 22
f 6 22 31
f 6 31 38
f 6 38 45
f 6 45 44
f 6 44 51
f 6 51 54
f 6 54 47
f 6 47 40
f 6 40 34
f 6 34 28
f 6 28 27
f 6 27 17
f 6 17 9
f 6 9 7
f 8 14 16
f 8 16 22
f 8 22 15
f 9 17 10
f 10 17 18
f 11 13 19
f 11 19 20
f 11 20 12
f 12 20 16
f 12 16 14
f 13 21 19
f 16 23 31
f 16 31 22
f 16 20 24
f 16 24 25
f 16 25 26
f 16 26 23
f 17 27 18
f 18 27 28
f 18 28 29
f 19 21 30
f 19 30 24
f 19 24 20
f 21 24 30
f 23 26 32
f 23 32 33
f 23 33 36
f 23 36 31
f 24 32 25
f 25 32 26
f 28 34 35
f 28 35 29
f 31 36 37
f 31 37 38
f 33 39 42
f 33 42 36
f 34 40 41
f 34 41 35
f 36 42 43
f 36 43 37
f 37 43 44
f 37 44 45
f 37 45 38
f 39 46 50
f 39 50 42
f 40 47 55
f 40 55 57
f 40 57 56
f 40 56 48
f 40 48 49
f 40 49 41
f 42 50 54
f 42 54 51
f 42 51 43
f 43 51 44
f 46 52 53
f 46 53 50
f 47 54 55
f 48 56 49
f 49 56 57
f 49 57 52
f 50 53 54
f 52 57 55
f 52 55 53
f 53 55 54

