# https://github.com/mikedh/trimesh
v 23.38401531 -40.50506451 30.07995588
v 23.38401531 -39.22009855 30.07995588
v 23.67715115 -41.78043872 29.05797306
v 23.38495006 -53.30678828 30.07995588
v 23.49791062 -53.30678828 31.35914674
v 23.67715115 -36.65975265 29.05797306
v 23.49791062 14.53756023 31.35914674
v 23.38495006 -0.82451039 30.07995588
v 24.59763836 -53.30678828 28.51366313
v 23.67808590 -53.30678828 29.05797306
v 23.69955860 -54.58217013 29.08226171
v 23.42882639 -54.58217013 30.07995588
v 23.53525129 -54.58217013 31.35914674
v 23.80598349 -54.58217013 32.15070050
v 23.79104646 -53.30678828 32.16502445
v 24.59763836 -32.82402872 28.51366313
v 23.38588100 35.02031980 30.07995588
v 23.67808590 0.46045700 29.05984162
v 23.67808590 -7.21098895 29.05921877
v 24.59763836 36.30528576 28.51740001
v 24.59763836 26.06390788 28.51677715
v 24.59763836 3.02080147 28.51553145
v 23.79104646 18.38287209 32.16502445
v 23.49884156 36.30528576 31.35914674
v 29.08804479 -52.02182232 26.90003938
v 29.08897574 -53.30678828 26.90003938
v 29.15525951 -54.58217013 26.90003938
v 24.59763836 -54.58217013 28.59773852
v 23.79944783 -55.36848734 29.21802771
v 23.71542657 -55.44520606 30.07995588
v 23.76490762 -55.40684670 31.35914674
v 23.86573160 -55.31095212 32.09091375
v 24.59763836 -54.58217013 32.41787347
v 24.59763836 -53.30678828 32.45461751
v 29.08804479 37.58066760 26.90003938
v 23.38681576 36.30528576 30.07995588
v 23.67902066 36.30528576 29.06170994
v 23.67902066 28.62424997 29.06108709
v 23.77237422 37.36011084 29.18751148
v 24.47814213 37.70532979 28.89418201
v 29.40638854 40.17936714 26.90003938
v 29.11698409 38.98070400 26.90003938
v 29.09551140 38.86563356 26.90003938
v 24.59763836 36.30528576 32.45461751
v 23.79198122 36.30528576 32.16502445
v 23.84705937 37.30257562 32.10959720
v 23.72849790 37.52313238 31.35914674
v 29.64631193 -55.44520606 26.90003938
v 24.59763836 -55.45479780 29.06046447
v 24.59763836 -55.68493868 30.07995588
v 24.59763836 -55.63698758 31.35914674
v 24.59763836 -55.40684670 32.18993571
v 25.87754519 -54.58217013 32.53308770
v 25.87754519 -53.30678828 32.57855073
v 25.87754519 33.74494558 32.57917359
v 23.67155024 37.56148411 30.07995588
v 23.97869216 38.20397090 30.07995588
v 24.82449424 38.41493592 29.14578533
v 29.73966550 40.52458609 26.90003938
v 25.87754519 36.30528576 32.57917359
v 32.92122580 38.86563356 33.26049523
v 25.87754519 37.58066760 32.56235846
v 24.49774913 37.66697043 32.28397556
v 24.85716875 38.40534417 32.17000680
v 24.00203056 38.15602743 31.35914674
v 30.99809963 -55.65617107 26.90003938
v 32.27800646 -55.70411455 26.90003938
v 30.99809963 -55.70411455 27.51908287
v 25.87754519 -55.70411455 30.07995588
v 25.87754519 -55.68493868 31.35914674
v 25.87754519 -55.45479780 32.24349488
v 30.99809963 -54.58217013 32.53308770
v 30.99809963 -53.30678828 32.57855073
v 32.92122580 5.58114737 33.25239909
v 32.92122580 6.82775683 33.25426741
v 32.92122580 37.56148411 33.26111808
v 24.64244944 38.50123875 31.35914674
v 24.61817629 38.50123875 30.07995588
v 31.50408908 41.63693876 26.90003938
v 30.50144631 41.12870589 26.90003938
v 30.11775735 40.90815676 26.90003938
v 32.92122580 37.58066760 33.26111808
v 32.92122580 40.14100778 33.17392866
v 32.92122580 40.99445959 32.93540383
v 32.92122580 41.43556549 32.76725328
v 32.92122580 41.82872791 32.46956408
v 32.92122580 42.15476337 32.18557622
v 32.76345416 42.13558750 32.10087821
v 32.92122580 -55.68493868 26.90003938
v 32.27800646 -55.70411455 30.07995588
v 30.99809963 -55.68493868 31.35914674
v 30.99809963 -55.45479780 32.24349488
v 32.27800646 -54.58217013 32.45399466
v 32.27800646 -55.42602256 32.20799630
v 32.27800646 -53.30678828 32.49198417
v 32.92122580 -53.30678828 32.30016783
v 25.87754519 39.07659858 30.07995588
v 32.68503762 42.17394686 31.35914674
v 32.68316811 42.17394686 26.90003938
v 27.30681848 39.72866949 30.07995588
v 32.92122580 42.20271447 31.95452478
v 32.92122580 -55.68493868 28.79951931
v 32.92122580 42.25065794 26.90003938
v 32.92122580 -55.67534694 30.07995588
v 32.27800646 -55.66575519 31.35914674
v 32.92122580 -54.58217013 32.27338825
v 32.92122580 -55.35890323 32.13575393
v 32.92122580 -55.41643845 31.94393747
v 32.92122580 42.25065794 31.35914674
v 32.92122580 42.26024969 29.73182166
v 32.68316811 42.17394686 30.07995588
v 32.92122580 42.26024969 28.79951931
v 32.79799818 42.21229859 26.90003938
v 32.92122580 -55.55068475 31.34855943
f 1 2 6
f 1 6 3
f 1 3 4
f 1 4 5
f 1 5 7
f 1 7 2
f 2 7 8
f 2 8 6
f 3 6 16
f 3 16 9
f 3 9 10
f 3 10 4
f 4 10 11
f 4 11 12
f 4 12 13
f 4 13 5
f 5 13 14
f 5 14 15
f 5 15 23
f 5 23 7
f 6 8 17
f 6 17 18
f 6 18 19
f 6 19 20
f 6 20 21
f 6 21 22
f 6 22 16
f 7 23 24
f 7 24 17
f 7 17 8
f 9 25 26
f 9 26 27
f 9 27 28
f 9 28 11
f 9 11 10
f 9 16 35
f 9 35 25
f 11 28 29
f 11 29 12
f 12 29 30
f 12 30 31
f 12 31 13
f 13 31 32
f 13 32 14
f 14 33 34
f 14 34 15
f 14 32 33
f 15 34 44
f 15 44 23
f 16 22 35
f 17 24 36
f 17 36 37
f 17 37 18
f 18 37 19
f 19 37 38
f 19 38 20
f 20 37 39
f 20 39 40
f 20 40 41
f 20 41 42
f 20 42 43
f 20 43 35
f 20 35 21
f 20 38 37
f 21 35 22
f 23 44 45
f 23 45 24
f 24 45 46
f 24 46 47
f 24 47 36
f 25 35 43
f 25 43 42
f 25 42 41
f 25 41 59
f 25 59 81
f 25 81 80
f 25 80 79
f 25 79 99
f 25 99 113
f 25 113 103
f 25 103 89
f 25 89 67
f 25 67 66
f 25 66 48
f 25 48 27
f 25 27 26
f 27 48 28
f 28 48 29
f 29 48 49
f 29 49 50
f 29 50 30
f 30 50 51
f 30 51 31
f 31 51 32
f 32 51 52
f 32 52 33
f 33 53 54
f 33 54 34
f 33 52 53
f 34 54 55
f 34 55 60
f 34 60 44
f 36 39 37
f 36 47 56
f 36 56 39
f 39 56 57
f 39 57 58
f 39 58 40
f 40 58 41
f 41 58 59
f 44 60 61
f 44 61 62
f 44 62 63
f 44 63 46
f 44 46 45
f 46 63 64
f 46 64 65
f 46 65 47
f 47 65 56
f 48 66 49
f 49 66 50
f 50 67 68
f 50 68 69
f 50 69 70
f 50 70 51
f 50 66 67
f 51 71 52
f 51 70 71
f 52 71 53
f 53 72 73
f 53 73 54
f 53 71 92
f 53 92 72
f 54 73 74
f 54 74 75
f 54 75 76
f 54 76 55
f 55 76 82
f 55 82 60
f 56 65 57
f 57 65 77
f 57 77 78
f 57 78 79
f 57 79 80
f 57 80 81
f 57 81 58
f 58 81 59
f 60 82 61
f 61 83 62
f 61 82 76
f 61 76 75
f 61 75 74
f 61 74 96
f 61 96 106
f 61 106 107
f 61 107 108
f 61 108 114
f 61 114 104
f 61 104 102
f 61 102 89
f 61 89 103
f 61 103 112
f 61 112 110
f 61 110 109
f 61 109 101
f 61 101 87
f 61 87 86
f 61 86 85
f 61 85 84
f 61 84 83
f 62 83 64
f 62 64 63
f 64 77 65
f 64 83 84
f 64 84 85
f 64 85 86
f 64 86 87
f 64 87 88
f 64 88 77
f 67 89 102
f 67 102 90
f 67 90 69
f 67 69 68
f 69 90 91
f 69 91 70
f 70 91 92
f 70 92 71
f 72 93 73
f 72 92 94
f 72 94 93
f 73 93 95
f 73 95 74
f 74 95 96
f 77 97 78
f 77 88 98
f 77 98 97
f 78 97 79
f 79 97 100
f 79 100 99
f 87 101 88
f 88 101 98
f 90 102 104
f 90 104 105
f 90 105 91
f 91 105 92
f 92 105 94
f 93 106 95
f 93 94 107
f 93 107 106
f 94 108 107
f 94 105 108
f 95 106 96
f 97 98 100
f 98 101 109
f 98 109 110
f 98 110 111
f 98 111 100
f 99 111 110
f 99 110 112
f 99 112 113
f 99 100 111
f 103 113 112
f 104 114 105
f 105 114 108

