# https://github.com/mikedh/trimesh
v 32.92057720 42.25843741 26.89941701
v 32.92057720 42.26014286 26.23837005
v 32.79813172 42.21575909 26.89941701
v 32.92057720 24.82225167 26.89941701
v 32.92057720 42.25843741 17.27789290
v 32.68284762 42.17479005 17.27789290
v 32.68284762 42.17479005 23.67823399
v 32.68284762 42.17308459 26.89941701
v 29.38527830 24.82225167 26.89941701
v 32.92057720 24.82225167 23.48400875
v 32.92057720 42.16625515 16.42375719
v 32.76165714 42.13894118 16.47146125
v 27.30695584 39.73024141 17.27789290
v 29.99425121 40.95251382 19.83802895
v 29.99425121 40.95251382 23.67823399
v 31.50398225 41.63876249 26.89941701
v 32.37347754 42.03310003 26.89941701
v 29.09153582 24.82225167 26.89600944
v 29.08893377 26.06671788 26.89941701
v 30.91194179 24.82225167 21.99495014
v 32.92057720 26.49690429 16.00236702
v 32.92057720 41.51414608 15.74453637
v 31.65638954 40.76814931 15.35949297
v 30.99791650 41.09761856 16.14093801
v 30.11604427 40.89618043 16.40104070
v 26.26746839 39.25737668 17.27789290
v 27.30695584 39.73024141 23.67823399
v 26.26746839 39.25737668 23.67823399
v 30.50161800 41.13517288 26.89941701
v 26.26746839 24.82225167 25.64320101
v 29.08893377 36.30582372 26.89941701
v 29.82425906 24.82225167 21.28846972
v 28.68447033 24.82225167 20.62855925
v 28.06703119 24.82225167 20.32756669
v 28.01427277 24.82225167 20.30598621
v 26.26746839 25.43850996 17.27789290
v 26.26746839 25.71505864 16.24089019
v 26.26746839 25.81407035 15.90355181
v 32.92057720 26.61469315 15.68433804
v 32.92057720 40.90300988 15.33336939
v 32.51025341 40.85692066 15.33677839
v 28.52945717 39.81388877 15.95011986
v 27.47043140 39.65512895 16.34538453
v 29.01728945 39.52709783 15.34699966
v 26.26746839 38.72306220 15.93194743
v 26.26746839 39.05594237 24.32451514
v 30.11799772 40.91495950 26.89941701
v 26.26746839 24.82225167 19.76079326
v 26.26746839 36.69674654 25.64320101
v 29.08958237 37.58613879 26.89941701
v 27.12002742 24.82225167 19.98000608
v 26.27072287 24.82225167 19.72217542
v 26.26746839 26.43544881 15.32882723
v 32.92057720 26.73931146 15.36290197
v 32.92057720 40.57866461 15.32087608
v 29.71809742 38.86645768 15.30383871
v 29.71809742 39.58684594 15.33450636
v 26.40359184 38.26385255 15.34018548
v 26.26746839 38.35774408 15.51055726
v 26.26746839 38.84255843 24.99351230
v 29.40677007 40.18603252 26.89941701
v 26.26746839 38.55235277 25.43307441
v 29.09609515 38.86645768 26.89941701
v 26.26746839 37.58613879 25.63865743
v 26.26746839 27.34703295 15.29815959
v 32.92057720 27.37946709 15.32655520
v 32.92057720 27.05682728 15.34472763
v 32.92057720 40.19969141 15.30724580
v 30.99791650 38.86645768 15.29702453
v 27.15780303 37.58613879 15.29929465
v 26.26746839 37.55028992 15.31633393
v 26.26746839 38.05217407 15.33564142
v 26.26746839 38.32701539 25.61594141
v 29.11823934 38.98765936 26.89941701
v 26.26746839 28.62734802 15.29702453
v 28.43827453 28.62734802 15.29588756
v 32.92057720 28.62734802 15.29702453
v 32.92057720 28.00084747 15.31178986
v 32.92057720 38.86645768 15.29702453
v 28.43827453 29.90595763 15.29588756
v 28.43827453 37.58613879 15.29702453
v 26.26746839 36.30582372 15.29702453
f 1 2 3
f 1 3 8
f 1 8 17
f 1 17 16
f 1 16 29
f 1 29 47
f 1 47 61
f 1 61 74
f 1 74 63
f 1 63 50
f 1 50 31
f 1 31 19
f 1 19 9
f 1 9 4
f 1 4 10
f 1 10 21
f 1 21 39
f 1 39 54
f 1 54 67
f 1 67 66
f 1 66 78
f 1 78 77
f 1 77 79
f 1 79 68
f 1 68 55
f 1 55 40
f 1 40 22
f 1 22 11
f 1 11 5
f 1 5 2
f 2 5 6
f 2 6 7
f 2 7 3
f 3 7 8
f 4 9 18
f 4 18 30
f 4 30 48
f 4 48 52
f 4 52 51
f 4 51 35
f 4 35 34
f 4 34 33
f 4 33 32
f 4 32 20
f 4 20 10
f 5 11 12
f 5 12 6
f 6 12 13
f 6 13 14
f 6 14 15
f 6 15 7
f 7 15 16
f 7 16 17
f 7 17 8
f 9 19 18
f 10 20 21
f 11 22 23
f 11 23 12
f 12 23 24
f 12 24 25
f 12 25 26
f 12 26 13
f 13 27 15
f 13 15 14
f 13 26 28
f 13 28 27
f 15 27 16
f 16 27 28
f 16 28 29
f 18 19 30
f 19 31 49
f 19 49 30
f 20 32 21
f 21 32 33
f 21 33 34
f 21 34 35
f 21 35 36
f 21 36 37
f 21 37 38
f 21 38 39
f 22 40 41
f 22 41 23
f 23 42 43
f 23 43 24
f 23 41 44
f 23 44 42
f 24 43 25
f 25 43 26
f 26 45 59
f 26 59 72
f 26 72 71
f 26 71 82
f 26 82 75
f 26 75 65
f 26 65 53
f 26 53 38
f 26 38 37
f 26 37 36
f 26 36 48
f 26 48 30
f 26 30 49
f 26 49 64
f 26 64 73
f 26 73 62
f 26 62 60
f 26 60 46
f 26 46 28
f 26 43 45
f 28 46 47
f 28 47 29
f 31 50 49
f 35 51 36
f 36 51 52
f 36 52 48
f 38 53 54
f 38 54 39
f 40 55 41
f 41 55 56
f 41 56 57
f 41 57 58
f 41 58 44
f 42 44 43
f 43 44 59
f 43 59 45
f 44 58 59
f 46 60 47
f 47 60 62
f 47 62 61
f 49 50 63
f 49 63 64
f 53 65 66
f 53 66 67
f 53 67 54
f 55 68 56
f 56 69 70
f 56 70 58
f 56 58 57
f 56 68 69
f 58 70 71
f 58 71 72
f 58 72 59
f 61 62 73
f 61 73 74
f 63 74 73
f 63 73 64
f 65 75 76
f 65 76 77
f 65 77 78
f 65 78 66
f 68 79 69
f 69 79 80
f 69 80 81
f 69 81 70
f 70 81 82
f 70 82 71
f 75 82 80
f 75 80 76
f 76 80 79
f 76 79 77
f 80 82 81

