# https://github.com/mikedh/trimesh
v 37.91523520 14.13184918 38.15864414
v 94.97970403 5.57658709 40.15615595
v 94.97970403 13.25757328 37.78294927
v 37.91523520 14.13184918 35.19895880
v 36.11574107 14.13184918 38.15864414
v 72.92685296 5.57658709 40.15615595
v 94.97970403 4.30309384 40.34603553
v 94.97970403 13.25757328 34.41447103
v 72.92685296 13.53776370 34.41389039
v 33.30176901 14.13184918 35.19895880
v 34.84160303 14.13184918 38.14180469
v 34.84160303 5.57658709 40.15557506
v 75.80724996 4.30309384 40.34429383
v 78.36156478 3.53836568 39.86930396
v 84.75640893 3.53836568 39.86988437
v 94.97970403 3.53836568 39.86988437
v 94.97970403 3.37193705 34.41447103
v 72.92685296 3.37088401 34.41389039
v 37.91523520 13.53776370 34.41389039
v 33.30176901 5.58080017 35.19895880
v 33.30176901 5.58290719 37.76088377
v 33.31988421 14.13184918 36.06938598
v 33.73654527 14.13184918 37.67610564
v 33.89958780 5.36591776 39.99705180
v 34.84160303 4.30309384 40.34022859
v 63.00548565 3.53836568 39.86756179
v 94.97970403 3.53520563 39.85536750
v 94.97970403 3.37193705 37.75972247
v 89.09209980 3.37088401 34.41447103
v 67.32910052 3.37088401 34.41389039
v 37.91523520 3.37299008 34.41389039
v 33.50104194 4.30204080 35.19895880
v 33.50104194 4.30309384 37.76088377
v 33.51915714 4.30309384 39.04010431
v 33.34403909 14.13184918 36.48108233
v 33.59765952 14.13184918 37.38344671
v 33.86939516 4.30309384 40.01040642
v 34.06262842 3.58155334 39.80368787
v 34.84160303 3.54047270 39.86523872
v 42.52870138 3.53941871 39.86581961
v 64.27962358 3.39300436 39.04068472
v 72.92685296 3.50255211 39.66606881
v 94.97970403 3.39300436 39.04068472
v 87.32280022 3.37088401 35.20186226
v 94.97970403 3.39195037 39.01745793
v 72.92685296 3.37193705 37.75972247
v 69.39429061 3.37088401 35.20070073
v 37.91523520 3.37193705 35.20128162
v 37.91523520 3.37193705 35.19895880
v 34.84160303 3.37299008 35.19895880
v 33.95393340 3.51729932 35.19895880
v 33.95393340 3.51729932 37.76088377
v 33.97205051 3.52888553 39.04010431
v 34.84160303 3.39616441 39.04010431
v 37.40195656 3.39511138 39.04010431
v 37.91523520 3.39511138 39.04068472
v 37.91523520 3.38141815 38.27477858
v 34.84160303 3.37299008 37.76088377
v 72.92685296 3.37088401 35.20186226
f 1 2 3
f 1 3 8
f 1 8 4
f 1 4 10
f 1 10 22
f 1 22 35
f 1 35 36
f 1 36 23
f 1 23 11
f 1 11 5
f 1 5 6
f 1 6 2
f 2 6 7
f 2 7 16
f 2 16 27
f 2 27 43
f 2 43 45
f 2 45 28
f 2 28 17
f 2 17 8
f 2 8 3
f 4 8 9
f 4 9 19
f 4 19 10
f 5 11 12
f 5 12 6
f 6 12 7
f 7 13 14
f 7 14 15
f 7 15 16
f 7 12 13
f 8 17 18
f 8 18 9
f 9 18 30
f 9 30 31
f 9 31 19
f 10 20 21
f 10 21 22
f 10 19 31
f 10 31 20
f 11 23 24
f 11 24 12
f 12 24 25
f 12 25 13
f 13 25 14
f 14 26 27
f 14 27 15
f 14 25 26
f 15 27 16
f 17 28 29
f 17 29 18
f 18 29 44
f 18 44 59
f 18 59 47
f 18 47 30
f 20 32 33
f 20 33 21
f 20 31 32
f 21 33 34
f 21 34 35
f 21 35 22
f 23 36 24
f 24 36 34
f 24 34 37
f 24 37 25
f 25 37 38
f 25 38 39
f 25 39 40
f 25 40 26
f 26 40 41
f 26 41 42
f 26 42 27
f 27 42 41
f 27 41 43
f 28 44 29
f 28 45 46
f 28 46 59
f 28 59 44
f 30 47 48
f 30 48 49
f 30 49 31
f 31 49 50
f 31 50 51
f 31 51 32
f 32 52 33
f 32 51 52
f 33 52 34
f 34 52 53
f 34 53 38
f 34 38 37
f 34 36 35
f 38 53 54
f 38 54 39
f 39 54 55
f 39 55 56
f 39 56 40
f 40 56 41
f 41 46 45
f 41 45 43
f 41 56 55
f 41 55 57
f 41 57 58
f 41 58 46
f 46 47 59
f 46 58 47
f 47 58 48
f 48 58 50
f 48 50 49
f 50 58 52
f 50 52 51
f 52 58 53
f 53 58 54
f 54 58 55
f 55 58 57

