# https://github.com/mikedh/trimesh
v 107.90479715 14.19075052 8.99447218
v 107.72162451 14.19075052 9.49591229
v 107.26771107 8.72464143 8.99506718
v 107.26771107 8.72408362 8.99447218
v 99.69739647 14.19075052 8.99447218
v 106.53743102 14.19075052 9.71065719
v 103.97784268 9.41718182 9.41622218
v 103.97784268 8.56224806 9.19909633
v 103.97784268 8.49025959 8.99447218
v 100.64298305 8.70678377 8.99447218
v 100.65101556 8.70845721 9.00748402
v 100.21156523 14.19075052 9.46163775
v 103.97864364 14.19075052 9.86314722
v 103.96900539 14.19075052 9.86331695
f 1 2 3
f 1 3 4
f 1 4 9
f 1 9 10
f 1 10 5
f 1 5 12
f 1 12 14
f 1 14 13
f 1 13 6
f 1 6 2
f 2 6 3
f 3 6 7
f 3 7 8
f 3 8 4
f 4 8 9
f 5 10 11
f 5 11 12
f 6 13 7
f 7 13 14
f 7 14 11
f 7 11 8
f 8 11 9
f 9 11 10
f 11 14 12

