# https://github.com/mikedh/trimesh
v 91.16504646 9.66968956 46.72233049
v 92.45026614 9.20780059 45.72655531
v 91.16504646 9.21024431 45.73471154
v 91.16504646 9.66846675 46.72885661
v 116.12421973 9.66846675 46.72233049
v 115.49138191 9.20780059 45.72655531
v 92.45026614 8.14166877 45.37124671
v 91.16504646 8.14166877 45.37255251
v 91.16504646 9.20718919 45.72818637
v 91.16504646 9.31166445 48.00293934
v 116.12421973 9.30922073 48.00228787
v 116.12421973 9.20718919 45.72753394
v 116.12421973 8.68176062 45.55200097
v 116.12421973 8.14166877 45.37190009
v 115.49138191 8.14166877 45.37124671
v 91.16504646 6.86169994 45.37124671
v 91.16504646 8.84916502 48.67309874
v 116.12421973 8.84794316 48.67309874
v 116.12421973 9.07583300 48.34193548
v 116.12421973 7.50993263 45.37124671
v 91.16504646 5.58234157 45.37124671
v 91.16504646 8.13616992 48.70409451
v 91.16993391 8.14166877 48.70409451
v 116.12421973 8.14166877 48.70409451
v 116.12421973 5.58234157 45.37124671
v 91.16504646 4.30176228 45.61529734
v 91.16504646 5.57867599 48.70376830
v 116.12421973 5.58234157 48.70376830
v 116.12421973 4.30176228 45.61594976
v 112.93071743 4.30176228 45.61562355
v 98.85193307 4.30176228 45.61529734
v 91.16504646 3.57349345 45.97093120
v 91.16504646 4.81680456 48.67146769
v 91.16993391 4.81985969 48.67309874
v 116.12421973 5.19621271 48.68843257
v 116.12421973 3.94251531 45.79115653
v 103.96838221 3.57349345 45.97093120
v 91.16504646 3.42930630 46.71906838
v 91.16504646 4.17651444 48.33671420
v 91.16993391 4.17956957 48.33965009
v 109.08971499 4.81985969 48.67309874
v 116.12421973 4.82047014 48.67309874
v 116.12421973 3.57410390 45.97125741
v 106.52904669 3.57349345 45.97125741
v 116.12421973 3.50201033 46.34189983
v 116.12421973 3.42869489 46.72233049
v 91.16993391 3.42869489 46.72233049
v 91.16504646 3.51606315 47.69526708
v 91.16993391 3.51667361 47.69950877
v 96.29126859 3.51667361 47.69950877
v 95.01093444 4.17956957 48.33965009
v 116.12421973 4.18018002 48.33899767
v 116.12421973 3.47207332 47.20423183
v 116.12421973 3.51667361 47.69885635
v 107.80938084 3.51667361 47.69918256
f 1 2 3
f 1 3 9
f 1 9 8
f 1 8 16
f 1 16 21
f 1 21 26
f 1 26 32
f 1 32 38
f 1 38 48
f 1 48 39
f 1 39 33
f 1 33 27
f 1 27 22
f 1 22 17
f 1 17 10
f 1 10 4
f 1 4 5
f 1 5 6
f 1 6 2
f 2 7 8
f 2 8 9
f 2 9 3
f 2 6 15
f 2 15 7
f 4 10 5
f 5 11 19
f 5 19 18
f 5 18 24
f 5 24 28
f 5 28 35
f 5 35 42
f 5 42 52
f 5 52 54
f 5 54 53
f 5 53 46
f 5 46 45
f 5 45 43
f 5 43 36
f 5 36 29
f 5 29 25
f 5 25 20
f 5 20 14
f 5 14 13
f 5 13 12
f 5 12 6
f 5 10 11
f 6 12 13
f 6 13 14
f 6 14 15
f 7 16 8
f 7 15 20
f 7 20 25
f 7 25 21
f 7 21 16
f 10 17 18
f 10 18 19
f 10 19 11
f 14 20 15
f 17 22 23
f 17 23 24
f 17 24 18
f 21 25 31
f 21 31 26
f 22 27 28
f 22 28 24
f 22 24 23
f 25 29 30
f 25 30 31
f 26 31 37
f 26 37 32
f 27 33 34
f 27 34 35
f 27 35 28
f 29 36 30
f 30 36 37
f 30 37 31
f 32 37 38
f 33 39 40
f 33 40 34
f 34 40 51
f 34 51 41
f 34 41 35
f 35 41 42
f 36 43 37
f 37 43 44
f 37 44 45
f 37 45 46
f 37 46 38
f 38 47 48
f 38 46 47
f 39 48 49
f 39 49 50
f 39 50 51
f 39 51 40
f 41 51 42
f 42 51 52
f 43 45 44
f 46 53 48
f 46 48 47
f 48 50 49
f 48 53 54
f 48 54 55
f 48 55 50
f 50 55 51
f 51 55 54
f 51 54 52

