# https://github.com/mikedh/trimesh
v 72.93252254 40.14724966 15.29588947
v 72.93252254 39.39960848 15.32654757
v 72.93252254 41.07744690 15.32654757
v 77.08720449 40.14724966 15.29588947
v 72.93252254 38.79390149 15.99739946
v 114.62627044 39.39960848 15.32654757
v 105.24762518 38.75960546 15.80984914
v 105.24762518 37.31392242 17.04876404
v 72.93252254 41.71744991 15.42392822
v 74.52827980 41.07744690 15.32654757
v 114.62627044 40.77195319 15.31662771
v 114.62627044 40.14724966 15.29679179
v 114.62627044 39.90612444 15.30580742
v 72.93252254 38.41770585 16.96490683
v 114.62627044 38.75960546 15.80984914
v 114.62627044 37.31392242 17.04876404
v 104.18242620 37.31392242 17.15065441
v 72.93252254 38.29635156 17.27779179
v 72.93252254 41.88101323 15.57992001
v 74.52827980 41.71744991 15.42392822
v 78.36870803 41.71692339 15.42392822
v 114.20998329 41.07111344 15.32654757
v 114.62627044 41.07058693 15.32654757
v 114.62627044 37.31392242 22.81593728
v 80.92763272 37.31392242 20.94764699
v 79.98079014 37.31392242 21.12798442
v 79.73183586 37.31392242 21.19470887
v 79.14414010 37.31392242 21.93048341
v 78.79723668 37.31392242 22.37230945
v 78.69112465 37.31392242 22.51387356
v 72.93252254 38.29582504 18.24529917
v 72.93252254 42.38594583 16.06412486
v 80.92763272 42.38594583 16.06412486
v 96.28526516 42.38594583 16.06502624
v 110.36955696 42.38594583 16.06592761
v 79.65021158 41.71639688 15.42392822
v 95.00784402 41.71428318 15.42483055
v 109.08805532 41.71164679 15.42573097
v 114.62627044 41.50376456 15.39417244
v 114.18141789 37.31392242 24.50659570
v 114.62627044 38.88253930 22.81593728
v 78.69112465 37.31392242 23.67794784
v 72.93252254 38.29582504 19.83857550
v 72.93252254 42.70357611 17.27779179
v 96.28526516 42.70410262 17.27779179
v 114.62627044 42.70410262 17.27779179
v 114.62627044 42.38594583 16.06682993
v 114.62627044 42.16751039 15.85944275
v 107.81063227 41.71217331 15.42573097
v 114.62627044 41.71112027 15.42663329
v 78.72377436 37.31392242 24.50659570
v 114.18141789 40.14724966 24.50659570
v 114.62627044 40.14724966 22.81503591
v 72.93252254 38.31112834 21.11716413
v 72.93252254 42.70357611 19.83857550
v 114.62627044 42.70357611 19.83857550
v 78.67071834 38.86776633 24.50659570
v 72.93252254 40.14724966 22.57879431
v 72.93252254 39.84703256 22.47870764
v 72.93252254 38.91683533 22.16852871
v 72.93252254 38.76857531 21.91154792
v 114.07530585 41.42778602 24.50659570
v 114.62627044 41.42778602 22.73839255
v 72.93252254 42.69354941 20.15055813
v 83.49063981 42.57905509 24.50659570
v 80.92763272 42.67455669 21.11716413
v 100.12977580 42.67455669 21.11716413
v 111.65106241 42.67403017 21.11716413
v 112.92848165 42.67297332 21.11716413
v 114.62627044 42.67877645 20.70329113
v 78.64623153 40.14724966 24.50659570
v 72.93252254 41.42778602 22.47780627
v 78.69112465 40.97666869 24.50659570
v 78.74826212 41.42778602 24.50659570
v 78.83804835 41.89209296 24.50659570
v 113.76921314 42.25298530 24.50659570
v 114.62627044 41.51590114 22.69781649
v 114.62627044 42.35850977 22.28484581
v 72.93252254 42.66189360 21.11716413
v 80.92763272 42.55742597 24.50659570
v 103.97020213 42.58116497 24.50659570
v 104.41913709 42.58116497 24.50659570
v 105.70064254 42.58063845 24.50659570
v 109.08805532 42.57905509 24.50659570
v 114.62627044 42.66506032 21.11716413
v 72.93252254 42.34373680 22.06753971
v 78.93191698 42.14640779 24.50659570
v 113.23049577 42.41865850 24.50659570
v 114.62627044 42.46667446 21.96204289
v 72.93252254 42.58433170 21.34979833
v 79.65021158 42.40124913 24.50659570
v 111.65106241 42.56639200 24.50659570
v 112.09999737 42.54528939 24.50659570
v 112.92848165 42.50624328 24.50659570
f 1 2 5
f 1 5 14
f 1 14 18
f 1 18 31
f 1 31 43
f 1 43 54
f 1 54 61
f 1 61 60
f 1 60 59
f 1 59 58
f 1 58 72
f 1 72 86
f 1 86 90
f 1 90 79
f 1 79 64
f 1 64 55
f 1 55 44
f 1 44 32
f 1 32 19
f 1 19 9
f 1 9 3
f 1 3 10
f 1 10 4
f 1 4 6
f 1 6 2
f 2 6 15
f 2 15 7
f 2 7 8
f 2 8 5
f 3 9 20
f 3 20 10
f 4 10 11
f 4 11 12
f 4 12 13
f 4 13 6
f 5 8 14
f 6 13 12
f 6 12 11
f 6 11 23
f 6 23 39
f 6 39 50
f 6 50 48
f 6 48 47
f 6 47 46
f 6 46 56
f 6 56 70
f 6 70 85
f 6 85 89
f 6 89 78
f 6 78 77
f 6 77 63
f 6 63 53
f 6 53 41
f 6 41 24
f 6 24 16
f 6 16 15
f 7 15 16
f 7 16 8
f 8 16 24
f 8 24 40
f 8 40 51
f 8 51 42
f 8 42 30
f 8 30 29
f 8 29 28
f 8 28 27
f 8 27 26
f 8 26 25
f 8 25 17
f 8 17 18
f 8 18 14
f 9 19 20
f 10 20 21
f 10 21 22
f 10 22 11
f 11 22 23
f 17 25 18
f 18 25 26
f 18 26 27
f 18 27 28
f 18 28 29
f 18 29 30
f 18 30 31
f 19 32 33
f 19 33 34
f 19 34 35
f 19 35 20
f 20 35 21
f 21 36 22
f 21 35 37
f 21 37 36
f 22 37 38
f 22 38 39
f 22 39 23
f 22 36 37
f 24 41 52
f 24 52 40
f 30 42 43
f 30 43 31
f 32 44 45
f 32 45 46
f 32 46 33
f 33 46 34
f 34 46 35
f 35 46 47
f 35 47 37
f 37 47 48
f 37 48 49
f 37 49 38
f 38 49 50
f 38 50 39
f 40 52 62
f 40 62 76
f 40 76 88
f 40 88 94
f 40 94 93
f 40 93 92
f 40 92 84
f 40 84 83
f 40 83 82
f 40 82 81
f 40 81 65
f 40 65 80
f 40 80 91
f 40 91 87
f 40 87 75
f 40 75 74
f 40 74 73
f 40 73 71
f 40 71 57
f 40 57 51
f 41 53 52
f 42 51 43
f 43 51 54
f 44 55 45
f 45 55 56
f 45 56 46
f 48 50 49
f 51 57 58
f 51 58 59
f 51 59 60
f 51 60 61
f 51 61 54
f 52 53 63
f 52 63 62
f 55 64 65
f 55 65 66
f 55 66 67
f 55 67 56
f 56 67 68
f 56 68 69
f 56 69 70
f 57 71 58
f 58 71 73
f 58 73 74
f 58 74 75
f 58 75 72
f 62 63 77
f 62 77 78
f 62 78 76
f 64 79 65
f 65 79 80
f 65 81 66
f 66 81 82
f 66 82 67
f 67 82 68
f 68 83 84
f 68 84 69
f 68 82 83
f 69 84 70
f 70 84 85
f 72 75 87
f 72 87 86
f 76 78 89
f 76 89 85
f 76 85 88
f 79 90 91
f 79 91 80
f 84 92 85
f 85 92 93
f 85 93 94
f 85 94 88
f 86 87 91
f 86 91 90

