# https://github.com/mikedh/trimesh
v 94.59029909 22.72882121 -12.55562619
v 94.59029909 14.76913936 -12.55562619
v 94.59029909 22.72882121 -14.62894408
v 72.95046425 22.72882121 -12.55562619
v 89.51876066 10.83876363 -13.83104557
v 89.81534015 10.83876363 -14.71908867
v 89.79415658 10.83876363 -14.85877187
v 89.55477349 10.83876363 -15.98110813
v 94.59029909 14.82966166 -12.76230805
v 88.62054152 14.27333364 -12.55562619
v 87.34100671 10.83876363 -13.37098569
v 88.62054152 10.83876363 -13.47696551
v 94.59029909 18.37479700 -14.62894408
v 89.15015170 10.83876363 -16.62105193
v 89.15015170 22.72882121 -16.61942712
v 72.95046425 22.72882121 -14.62894408
v 72.95046425 14.77263118 -12.55562619
v 89.52087749 10.83876363 -16.05216786
v 94.59029909 14.95303096 -13.17445413
v 87.99348464 14.25121943 -12.55562619
v 87.34100671 14.24190918 -12.55562619
v 80.94332695 10.83876363 -13.37017329
v 94.59029909 17.09454514 -14.55950916
v 89.07812413 10.83876363 -16.62714307
v 94.59029909 16.09478294 -14.28501527
v 94.59029909 15.66880786 -13.97154118
v 94.59029909 15.45582032 -13.81439793
v 88.51038429 22.72882121 -16.67140200
v 72.95046425 19.65505077 -14.62894408
v 78.96470674 22.72882121 -16.67099580
v 78.96470674 20.93413933 -16.67140200
v 78.96047022 10.83876363 -16.67140200
v 72.95046425 14.95652278 -13.17283027
v 78.56432148 10.83876363 -15.99897437
v 78.22749073 10.83876363 -14.71908867
v 78.26985882 10.83876363 -14.60904777
v 78.62363852 10.83876363 -13.72709581
v 78.73803322 10.83876363 -13.68770845
v 79.66379023 10.83876363 -13.37260955
v 79.66379023 14.24074397 -12.55562619
v 94.59029909 15.12062678 -13.38803953
v 80.94332695 14.23958067 -12.55562619
v 79.80572662 10.83876363 -13.37220335
v 88.51038429 10.83876363 -16.67140200
v 87.34100671 10.83876363 -16.70388678
v 88.04009116 22.72882121 -16.68439668
v 72.95046425 18.37479700 -14.62853788
v 79.38203810 22.72882121 -16.69048590
v 79.66379023 22.72882121 -16.70348058
v 79.66379023 10.83876363 -16.70388678
v 72.95046425 15.45465701 -13.81277312
v 72.95046425 15.61061598 -13.92768654
v 72.95046425 16.09478294 -14.28257901
v 72.95046425 16.33919494 -14.34998483
v 72.95046425 17.09454514 -14.55747910
v 87.34100671 22.72882121 -16.70348058
f 1 2 9
f 1 9 19
f 1 19 41
f 1 41 27
f 1 27 26
f 1 26 25
f 1 25 23
f 1 23 13
f 1 13 3
f 1 3 15
f 1 15 28
f 1 28 46
f 1 46 56
f 1 56 49
f 1 49 48
f 1 48 30
f 1 30 16
f 1 16 4
f 1 4 17
f 1 17 40
f 1 40 42
f 1 42 21
f 1 21 20
f 1 20 10
f 1 10 2
f 2 5 6
f 2 6 7
f 2 7 8
f 2 8 9
f 2 10 11
f 2 11 12
f 2 12 5
f 3 13 14
f 3 14 15
f 4 16 29
f 4 29 47
f 4 47 55
f 4 55 54
f 4 54 53
f 4 53 52
f 4 52 51
f 4 51 33
f 4 33 17
f 5 12 11
f 5 11 22
f 5 22 43
f 5 43 39
f 5 39 38
f 5 38 37
f 5 37 36
f 5 36 35
f 5 35 34
f 5 34 32
f 5 32 50
f 5 50 45
f 5 45 44
f 5 44 24
f 5 24 14
f 5 14 18
f 5 18 8
f 5 8 7
f 5 7 6
f 8 18 19
f 8 19 9
f 10 20 11
f 11 20 21
f 11 21 22
f 13 23 14
f 14 24 15
f 14 23 25
f 14 25 26
f 14 26 27
f 14 27 18
f 15 24 28
f 16 30 31
f 16 31 32
f 16 32 29
f 17 33 34
f 17 34 35
f 17 35 36
f 17 36 37
f 17 37 38
f 17 38 39
f 17 39 40
f 18 27 41
f 18 41 19
f 21 42 22
f 22 42 40
f 22 40 43
f 24 44 28
f 28 44 45
f 28 45 46
f 29 32 47
f 30 48 31
f 31 48 49
f 31 49 50
f 31 50 32
f 32 34 33
f 32 33 51
f 32 51 52
f 32 52 53
f 32 53 54
f 32 54 55
f 32 55 47
f 39 43 40
f 45 56 46
f 45 50 49
f 45 49 56

