# https://github.com/mikedh/trimesh
v 37.94319149 4.29836940 8.33802948
v 37.94319149 5.57525912 8.15440296
v 36.14855919 5.57525912 8.15440296
v 34.86914834 4.29836940 8.33752507
v 37.94319149 3.84247548 8.05250043
v 37.94319149 13.23853121 5.77280532
v 34.86914834 5.57525912 8.15389855
v 36.13080832 13.23853121 5.77280532
v 33.88785979 4.29836940 8.00709821
v 34.08220587 3.57685989 7.79925686
v 34.86914834 3.53725798 7.86029740
v 33.92154029 5.36276646 7.99499080
v 37.42842201 3.53725798 7.86080229
v 37.94319149 3.53725798 7.86080229
v 37.94319149 13.23853121 3.18437517
v 34.86914834 13.23853121 5.76019349
v 33.52601897 4.29836940 7.03700407
v 33.99026674 3.52566786 7.03700407
v 34.86914834 3.39334207 7.03700407
v 33.67348582 5.70468714 7.16413027
v 34.85549383 13.23853121 5.75666210
v 33.83824775 13.23853121 5.43228872
v 33.83187628 13.23853121 5.42018130
v 33.37172486 13.23853121 4.47783338
v 37.94319149 3.39334207 7.03700407
v 33.29389603 13.23853121 3.18437517
v 37.94319149 3.37209366 3.18437517
v 33.50553910 4.29836940 5.75767094
v 33.97251587 3.51504270 5.75767094
v 33.29844817 5.57815689 5.75767094
v 34.86914834 3.37209366 5.75767094
v 33.37036131 13.23853121 4.46017691
v 37.94319149 3.37209366 5.75767094
v 33.29389603 5.57815689 3.18437517
v 33.29617115 5.57815689 4.47783338
v 36.13490468 3.37112679 3.18437517
v 33.29526148 5.56656676 3.18437517
v 33.50280820 4.29933532 3.18437517
v 33.97206008 3.51504270 4.47783338
v 34.85913630 3.37305863 3.18437517
v 34.86914834 3.37209366 3.18437517
v 33.97160620 3.51504270 3.18437517
f 1 2 3
f 1 3 4
f 1 4 5
f 1 5 14
f 1 14 25
f 1 25 33
f 1 33 27
f 1 27 15
f 1 15 6
f 1 6 2
f 2 6 8
f 2 8 3
f 3 7 4
f 3 8 7
f 4 9 10
f 4 10 11
f 4 11 5
f 4 7 12
f 4 12 9
f 5 11 13
f 5 13 14
f 6 15 26
f 6 26 32
f 6 32 24
f 6 24 23
f 6 23 22
f 6 22 21
f 6 21 16
f 6 16 8
f 7 8 16
f 7 16 12
f 9 17 10
f 9 12 17
f 10 18 19
f 10 19 11
f 10 17 18
f 11 19 13
f 12 20 17
f 12 16 21
f 12 21 22
f 12 22 23
f 12 23 24
f 12 24 20
f 13 19 25
f 13 25 14
f 15 27 36
f 15 36 41
f 15 41 40
f 15 40 42
f 15 42 38
f 15 38 37
f 15 37 34
f 15 34 26
f 17 28 29
f 17 29 18
f 17 20 24
f 17 24 30
f 17 30 28
f 18 29 31
f 18 31 19
f 19 31 33
f 19 33 25
f 24 32 30
f 26 34 35
f 26 35 30
f 26 30 32
f 27 33 36
f 28 30 37
f 28 37 38
f 28 38 29
f 29 39 40
f 29 40 31
f 29 38 39
f 30 35 37
f 31 40 41
f 31 41 36
f 31 36 33
f 34 37 35
f 38 42 39
f 39 42 40

