# https://github.com/mikedh/trimesh
v 114.62627044 34.88796208 22.81508837
v 114.62627044 21.28634996 22.81779344
v 114.62627044 34.88796208 17.37179015
v 114.18141789 34.88796208 24.50749755
v 114.19774370 21.39559820 24.50749755
v 114.62627044 21.27835493 22.81779344
v 107.94939593 34.88796208 17.37088878
v 114.62627044 21.27835493 17.37179015
v 89.14721038 29.90509918 15.37372035
v 89.14721038 31.18545622 15.37462077
v 88.50645956 31.18545622 15.32683372
v 88.32688710 31.92622218 15.33765401
v 87.33106805 32.61769403 15.46839402
v 87.33106805 33.71019553 16.10856968
v 87.33106805 34.34970637 16.74063108
v 78.68296174 34.88796208 24.50749755
v 114.19774370 21.27835493 24.50749755
v 105.24762518 34.88796208 17.37088878
v 89.14721038 21.27835493 15.37372035
v 88.50645956 21.27835493 15.32683372
v 88.20036875 21.27835493 15.31871851
v 87.33106805 21.27835493 15.29617752
v 87.33106805 31.18545622 15.29707985
v 87.33106805 31.97818320 15.32683372
v 86.04956450 32.61902559 15.46659127
v 84.76806286 32.62036095 15.46568895
v 86.04956450 33.70486551 16.10676693
v 84.76806286 33.69953549 16.10586461
v 83.49063981 33.69420547 16.10766830
v 82.20913627 33.68887545 16.11217612
v 80.92763272 33.68221388 16.11668489
v 80.92763272 34.32306008 16.80464855
v 78.13607860 34.88796208 22.30565273
v 72.93252254 34.67878646 21.11727001
v 72.93252254 34.53223189 21.98556537
v 72.93252254 33.74616649 22.39581858
v 72.93252254 33.43307264 22.44090151
v 72.93252254 32.46580945 22.57885441
v 78.65439348 34.57486824 24.50749755
v 78.57685066 21.27835493 24.50749755
v 103.97020213 34.88796208 17.46466107
v 79.65021158 34.31240004 16.81637020
v 79.65021158 34.52823724 17.45654586
v 72.93252254 34.52024030 17.75769867
v 86.04956450 21.27835493 15.29617752
v 86.04956450 31.97951475 15.32683372
v 80.92763272 31.18545622 15.29707985
v 83.49063981 31.97818320 15.32773605
v 79.65021158 31.96352850 15.32773605
v 83.49063981 32.61769403 15.46749169
v 80.92763272 32.60836936 15.47650923
v 79.65021158 32.60303934 15.49003459
v 79.65021158 33.67155765 16.13020929
v 78.67071834 34.88796208 21.12538522
v 72.93252254 34.66679487 18.55837012
v 72.93252254 34.67878646 19.83782006
v 72.93252254 21.27835493 22.58606825
v 72.93252254 34.55621507 17.95335848
v 80.92763272 34.88796208 20.11643189
v 72.93252254 33.93535358 17.55121953
v 78.97272864 31.91556596 15.33765401
v 79.65021158 21.27835493 15.29707985
v 79.65021158 29.90509918 15.29707985
v 79.65021158 31.18545622 15.29798027
v 79.65021158 34.88796208 20.30577923
v 72.93252254 21.27835493 17.52957992
v 72.93252254 33.74616649 17.48449699
v 78.95640379 31.18545622 15.32773605
v 72.93252254 32.46580945 17.37179015
v 72.93252254 32.77890330 17.39883990
v 78.95640379 21.27835493 15.32683372
v 78.95640379 22.22563150 15.32683372
v 72.93252254 22.22563150 17.37179015
v 72.94068545 21.27835493 17.37179015
f 1 2 6
f 1 6 8
f 1 8 3
f 1 3 7
f 1 7 18
f 1 18 41
f 1 41 59
f 1 59 65
f 1 65 54
f 1 54 33
f 1 33 16
f 1 16 4
f 1 4 5
f 1 5 2
f 2 5 17
f 2 17 6
f 3 8 19
f 3 19 9
f 3 9 10
f 3 10 11
f 3 11 12
f 3 12 13
f 3 13 14
f 3 14 15
f 3 15 7
f 4 16 39
f 4 39 40
f 4 40 17
f 4 17 5
f 6 17 40
f 6 40 57
f 6 57 66
f 6 66 74
f 6 74 71
f 6 71 62
f 6 62 45
f 6 45 22
f 6 22 21
f 6 21 20
f 6 20 19
f 6 19 8
f 7 15 18
f 9 19 20
f 9 20 11
f 9 11 10
f 11 20 21
f 11 21 22
f 11 22 23
f 11 23 12
f 12 23 24
f 12 24 13
f 13 24 25
f 13 25 14
f 14 25 26
f 14 26 27
f 14 27 15
f 15 27 28
f 15 28 29
f 15 29 30
f 15 30 31
f 15 31 32
f 15 32 18
f 16 33 34
f 16 34 35
f 16 35 36
f 16 36 37
f 16 37 38
f 16 38 39
f 18 32 42
f 18 42 43
f 18 43 44
f 18 44 41
f 22 45 47
f 22 47 23
f 23 46 24
f 23 47 46
f 24 46 26
f 24 26 25
f 26 48 49
f 26 49 50
f 26 50 28
f 26 28 27
f 26 46 48
f 28 50 29
f 29 50 51
f 29 51 30
f 30 51 31
f 31 51 52
f 31 52 53
f 31 53 42
f 31 42 32
f 33 54 55
f 33 55 56
f 33 56 34
f 34 56 55
f 34 55 58
f 34 58 44
f 34 44 60
f 34 60 67
f 34 67 70
f 34 70 69
f 34 69 73
f 34 73 66
f 34 66 57
f 34 57 38
f 34 38 37
f 34 37 36
f 34 36 35
f 38 57 40
f 38 40 39
f 41 44 58
f 41 58 55
f 41 55 59
f 42 53 44
f 42 44 43
f 44 53 52
f 44 52 61
f 44 61 60
f 45 62 63
f 45 63 47
f 46 47 49
f 46 49 48
f 47 63 64
f 47 64 49
f 49 64 61
f 49 61 52
f 49 52 51
f 49 51 50
f 54 65 55
f 55 65 59
f 60 61 67
f 61 64 68
f 61 68 69
f 61 69 70
f 61 70 67
f 62 71 72
f 62 72 63
f 63 72 68
f 63 68 64
f 66 73 74
f 68 72 69
f 69 72 71
f 69 71 73
f 71 74 73

