# https://github.com/mikedh/trimesh
v 11.77871506 -53.30641819 19.67781454
v 12.40314389 -53.30641819 16.48272793
v 12.41266314 -54.58642804 16.52862352
v 11.80679591 -54.58642804 19.67781454
v 11.78109583 -40.50631594 19.67781454
v 12.40314389 -40.50631594 16.48229966
v 12.92762625 -53.30641819 15.84233861
v 12.97379178 -54.58642804 15.88823325
v 12.42694012 -55.23802585 16.59553587
v 11.81060362 -54.63975876 19.67781454
v 11.88151921 -39.18456635 19.67781454
v 12.41409008 -39.68775916 16.53419963
v 12.92762625 -40.50631594 15.84233861
v 13.56775899 -53.30641819 15.32676695
v 13.61392833 -54.58642804 15.33620227
v 13.67912856 -55.23570613 15.34992793
v 13.18177702 -55.33541985 16.10012444
v 13.07564209 -55.48150513 17.27753235
v 12.01382732 -55.32846069 19.67781454
v 12.07379672 -38.28716954 19.67781454
v 12.48643261 -38.95500159 17.27753235
v 13.37453146 -37.96253049 15.92812446
v 12.86813377 -39.24717597 16.06323589
v 13.64724382 -38.39847424 15.33663150
v 13.59012829 -39.22630609 15.32676695
v 13.56775899 -40.50631594 15.32676695
v 14.35543446 -53.30641819 15.29588374
v 14.35543446 -54.58642804 15.31561474
v 14.35543446 -55.24266529 15.34606872
v 14.35543446 -55.47918541 15.99718103
v 14.35543446 -55.70411836 17.27753235
v 13.07564209 -55.57889914 19.67781454
v 12.42170548 -37.57064239 19.67781454
v 13.60726295 -37.16252386 16.30858373
v 14.97462865 -35.99613654 15.34563950
v 13.95422169 -37.54513307 15.45544478
v 15.73279634 -35.49526345 15.32590850
v 15.63570375 -36.66628641 15.30274753
v 14.37066527 -37.96253049 15.32033240
v 14.35543446 -39.22630609 15.29588374
v 15.63570375 -53.30641819 15.29588374
v 16.64088372 -54.31280000 15.31132439
v 16.64088372 -54.58642804 15.31561474
v 16.64088372 -55.24266529 15.34606872
v 16.64088372 -55.47918541 15.99718103
v 16.64088372 -55.70411836 17.27753235
v 14.35543446 -55.70411836 19.67781454
v 15.76135411 -33.06510053 19.67781454
v 16.27393645 -33.46394398 16.63070847
v 16.64088372 -33.21350553 16.34675805
v 16.64088372 -33.76075780 15.79215363
v 16.22444014 -34.66047434 15.33663150
v 16.64088372 -34.40308054 15.32805272
v 16.64088372 -35.41178588 15.30317484
v 15.63570375 -37.94629625 15.29588374
v 16.64088372 -53.30641819 15.29631297
v 16.64088372 -39.22630609 15.29588374
v 16.64088372 -55.70411836 19.67781454
v 15.85891980 -32.93524377 19.67781454
v 16.34009051 -32.33465886 19.67781454
v 16.42242921 -32.24654375 19.67781454
v 16.64088372 -32.01697517 19.67781454
v 16.64088372 -36.66628641 15.29759873
v 16.64088372 -37.94629625 15.29588374
f 1 2 3
f 1 3 4
f 1 4 10
f 1 10 19
f 1 19 32
f 1 32 47
f 1 47 58
f 1 58 62
f 1 62 61
f 1 61 60
f 1 60 59
f 1 59 48
f 1 48 33
f 1 33 20
f 1 20 11
f 1 11 5
f 1 5 6
f 1 6 2
f 2 7 3
f 2 6 7
f 3 7 8
f 3 8 9
f 3 9 4
f 4 9 10
f 5 11 12
f 5 12 6
f 6 12 13
f 6 13 7
f 7 14 15
f 7 15 8
f 7 13 26
f 7 26 14
f 8 15 16
f 8 16 9
f 9 16 17
f 9 17 18
f 9 18 19
f 9 19 10
f 11 20 12
f 12 20 21
f 12 21 22
f 12 22 23
f 12 23 13
f 13 23 24
f 13 24 25
f 13 25 26
f 14 27 15
f 14 26 40
f 14 40 27
f 15 28 16
f 15 27 28
f 16 29 30
f 16 30 17
f 16 28 29
f 17 30 31
f 17 31 18
f 18 31 32
f 18 32 19
f 20 33 34
f 20 34 21
f 21 34 22
f 22 24 23
f 22 34 35
f 22 35 36
f 22 36 24
f 24 36 35
f 24 35 37
f 24 37 38
f 24 38 39
f 24 39 40
f 24 40 25
f 25 40 26
f 27 41 42
f 27 42 28
f 27 40 55
f 27 55 64
f 27 64 57
f 27 57 41
f 28 42 43
f 28 43 44
f 28 44 29
f 29 44 45
f 29 45 30
f 30 45 46
f 30 46 31
f 31 46 58
f 31 58 47
f 31 47 32
f 33 48 34
f 34 48 49
f 34 49 35
f 35 49 50
f 35 50 51
f 35 51 52
f 35 52 37
f 37 52 53
f 37 53 54
f 37 54 38
f 38 54 40
f 38 40 39
f 40 54 55
f 41 56 42
f 41 57 56
f 42 56 57
f 42 57 64
f 42 64 63
f 42 63 54
f 42 54 53
f 42 53 51
f 42 51 50
f 42 50 62
f 42 62 58
f 42 58 46
f 42 46 45
f 42 45 44
f 42 44 43
f 48 59 49
f 49 59 60
f 49 60 61
f 49 61 62
f 49 62 50
f 51 53 52
f 54 63 55
f 55 63 64

