# https://github.com/mikedh/trimesh
v 19.37539357 -17.73053329 -11.65649643
v 19.51168317 -17.73053329 -11.65649643
v 19.08420533 -17.73053329 -11.65548474
v 24.67533999 -15.62741576 -15.72725430
v 19.76346021 -17.73053329 -11.64840575
v 19.08420533 -15.42207932 -15.24078647
v 19.85815313 -15.59394694 -15.52498059
v 20.79137436 -15.62108434 -15.66050451
v 22.07106936 -15.62108434 -15.71511780
v 19.08420533 -17.73053329 -6.37209632
v 20.56203954 -17.73053329 -11.53513240
v 20.41097026 -17.73053329 -11.58671156
v 24.67533999 -15.13442676 -16.34418949
v 24.67533999 -17.73053329 -10.01099965
v 19.08420533 -15.32529056 -15.30349045
v 19.46351477 -14.94627670 -15.74242492
v 20.80834333 -14.85401147 -16.35025774
v 22.07106936 -15.10909916 -16.35531334
v 24.67533999 -17.73053329 -6.37209632
v 19.08420533 -8.48948014 -6.37209632
v 24.67533999 -15.11633548 -16.36643910
v 19.08420533 -14.71832641 -15.56543591
v 19.51168317 -13.61927816 -16.07718842
v 20.49909146 -13.61927816 -16.59703067
v 21.24621844 -14.39810992 -16.65973655
v 22.07106936 -14.46866620 -16.67086040
v 24.67533999 -8.48948014 -6.37209632
v 19.08420533 -8.48948014 -11.64537162
v 24.67533999 -14.49851638 -16.66378141
v 19.08420533 -13.61927816 -15.73130012
v 19.51168317 -12.34022059 -16.07819916
v 20.49142892 -12.34022059 -16.59905405
v 21.13893896 -13.61927816 -16.66984966
v 22.07106936 -13.61927816 -16.70221429
v 24.67533999 -13.61927816 -16.70322503
v 24.67533999 -14.47680741 -16.67086040
v 24.67533999 -8.48948014 -9.94424987
v 19.51168317 -8.48948014 -11.64233750
v 24.67533999 -10.36374248 -15.62106089
v 22.07106936 -10.36645622 -15.61701507
v 20.79137436 -10.36283758 -15.58566213
v 19.92766529 -10.38002444 -15.49059353
v 19.08420533 -10.60073889 -15.12852386
v 19.08420533 -12.34022059 -15.72725430
v 19.08420533 -11.80019407 -15.68275412
v 19.08420533 -11.29725501 -15.54621947
v 19.50511527 -11.04397664 -15.72219774
v 21.23582118 -11.58038452 -16.65973655
v 21.13127642 -12.34022059 -16.66984966
v 22.07106936 -12.34022059 -16.70120164
v 23.35076054 -12.34022059 -16.70221429
v 24.67533999 -12.34022059 -16.70221429
v 20.36171103 -8.48948014 -11.57457506
v 24.67533999 -10.87301344 -16.26024664
v 22.07106936 -10.87934534 -16.25619987
v 20.80232085 -11.11634175 -16.29159863
v 19.08420533 -10.61611643 -15.15077443
v 22.07106936 -11.51977831 -16.66984966
v 24.67533999 -11.51344641 -16.67086040
f 1 2 5
f 1 5 12
f 1 12 11
f 1 11 14
f 1 14 19
f 1 19 10
f 1 10 3
f 1 3 4
f 1 4 2
f 2 4 5
f 3 6 7
f 3 7 8
f 3 8 9
f 3 9 4
f 3 10 20
f 3 20 28
f 3 28 43
f 3 43 57
f 3 57 46
f 3 46 45
f 3 45 44
f 3 44 30
f 3 30 22
f 3 22 15
f 3 15 6
f 4 11 12
f 4 12 5
f 4 9 13
f 4 13 21
f 4 21 29
f 4 29 36
f 4 36 35
f 4 35 52
f 4 52 59
f 4 59 54
f 4 54 39
f 4 39 37
f 4 37 27
f 4 27 19
f 4 19 14
f 4 14 11
f 6 15 7
f 7 15 16
f 7 16 17
f 7 17 18
f 7 18 8
f 8 18 9
f 9 18 13
f 10 19 27
f 10 27 20
f 13 18 21
f 15 22 16
f 16 23 24
f 16 24 17
f 16 22 23
f 17 24 25
f 17 25 18
f 18 25 26
f 18 26 21
f 20 27 37
f 20 37 53
f 20 53 38
f 20 38 28
f 21 26 29
f 22 30 23
f 23 30 31
f 23 31 32
f 23 32 24
f 24 32 33
f 24 33 25
f 25 33 34
f 25 34 26
f 26 34 35
f 26 35 36
f 26 36 29
f 28 38 39
f 28 39 40
f 28 40 41
f 28 41 42
f 28 42 43
f 30 44 31
f 31 44 45
f 31 45 46
f 31 46 47
f 31 47 32
f 32 48 49
f 32 49 33
f 32 47 48
f 33 49 34
f 34 50 51
f 34 51 35
f 34 49 50
f 35 51 52
f 37 39 53
f 38 53 39
f 39 54 40
f 40 54 55
f 40 55 41
f 41 55 42
f 42 55 56
f 42 56 47
f 42 47 57
f 42 57 43
f 46 57 47
f 47 56 48
f 48 56 55
f 48 55 58
f 48 58 50
f 48 50 49
f 50 58 51
f 51 58 59
f 51 59 52
f 54 59 58
f 54 58 55

