v 34.006915 7.295435 6.031139
v 34.006915 7.265989 6.033457
v 34.006915 7.354327 6.031139
v 128.934662 7.295435 6.031139
v 34.006915 7.236840 6.037321
v 128.934662 7.265989 6.033457
v 34.006915 7.383773 6.033457
v 128.934662 7.354327 6.031139
v 34.006915 7.207692 6.041957
v 128.934662 7.236840 6.037321
v 34.006915 7.412922 6.037321
v 104.673078 7.391209 6.034230
v 128.934662 7.383773 6.033457
v 34.006915 7.179138 6.048913
v 128.934662 7.207692 6.041957
v 34.006915 7.441773 6.041957
v 128.934662 7.412922 6.037321
v 104.682371 7.391209 6.034230
v 104.673078 7.158020 6.054322
v 34.006915 7.150584 6.056640
v 128.934662 7.179138 6.048913
v 34.006915 7.470625 6.048913
v 104.673078 7.477763 6.050458
v 128.934662 7.441773 6.041957
v 104.682371 7.158020 6.054322
v 34.006915 7.122625 6.065913
v 128.934662 7.150584 6.056640
v 34.006915 7.498881 6.056640
v 104.682371 7.477763 6.050458
v 128.934662 7.470625 6.048913
v 104.673078 7.102399 6.073641
v 34.006915 7.095261 6.076732
v 128.934662 7.122625 6.065913
v 34.006915 7.526840 6.065913
v 104.673078 7.506019 6.058958
v 128.934662 7.498881 6.056640
v 104.673078 7.075333 6.085232
v 104.682371 7.102399 6.073641
v 34.006915 7.068194 6.088323
v 128.934662 7.095261 6.076732
v 34.006915 7.554501 6.076732
v 104.673078 7.533978 6.068232
v 104.682371 7.506019 6.058958
v 128.934662 7.526840 6.065913
v 104.682371 7.075333 6.085232
v 34.006915 7.042020 6.101461
v 128.934662 7.068194 6.088323
v 34.006915 7.581271 6.088323
v 128.934662 7.554501 6.076732
v 104.682371 7.533978 6.068232
v 104.673078 7.022984 6.112280
v 34.006915 7.016441 6.116144
v 128.934662 7.042020 6.101461
v 34.006915 7.607742 6.101461
v 104.673078 7.588112 6.091415
v 128.934662 7.581271 6.088323
v 104.682371 7.022984 6.112280
v 34.006915 6.991456 6.131599
v 128.934662 7.016441 6.116144
v 34.006915 7.633322 6.116144
v 128.934662 7.607742 6.101461
v 104.682371 7.588112 6.091415
v 34.006915 6.967364 6.148600
v 128.934662 6.991456 6.131599
v 34.006915 7.658306 6.131599
v 128.934662 7.633322 6.116144
v 34.006915 6.944164 6.167147
v 128.934662 6.967364 6.148600
v 34.006915 7.682399 6.148600
v 128.934662 7.658306 6.131599
v 104.673078 6.938512 6.171783
v 34.006915 6.921856 6.186466
v 128.934662 6.944164 6.167147
v 34.006915 7.705599 6.167147
v 104.673078 7.688347 6.153237
v 128.934662 7.682399 6.148600
v 104.673078 6.916502 6.191102
v 104.682371 6.938512 6.171783
v 34.006915 6.900441 6.206558
v 128.934662 6.921856 6.186466
v 34.006915 7.727906 6.186466
v 104.673078 7.711250 6.171783
v 128.934662 7.705599 6.167147
v 104.682371 7.688347 6.153237
v 104.682371 6.916502 6.191102
v 34.006915 4.893346 8.207264
v 128.934662 6.900441 6.206558
v 34.006915 7.749024 6.206558
v 104.673078 7.733260 6.191102
v 104.682371 7.711250 6.171783
v 128.934662 7.727906 6.186466
v 34.006915 4.893346 13.925000
v 128.934662 4.893346 8.207264
v 34.006915 7.769547 6.227423
v 104.673078 7.754378 6.211967
v 128.934662 7.749024 6.206558
v 104.682371 7.733260 6.191102
v 34.006915 7.931947 13.925000
v 128.934662 4.893346 13.925000
v 34.006915 7.788583 6.249833
v 128.934662 7.769547 6.227423
v 104.682371 7.754378 6.211967
v 34.006915 7.931947 10.999287
v 128.934662 7.931947 13.925000
v 34.006915 7.806727 6.273016
v 128.934662 7.788583 6.249833
v 34.099839 7.931947 10.999287
v 34.006915 7.924809 6.630810
v 128.934662 7.931947 11.003151
v 34.006915 7.823681 6.297745
v 104.673078 7.811188 6.279199
v 128.934662 7.806727 6.273016
v 128.934662 7.924809 6.630810
v 34.006915 7.924214 6.601445
v 34.006915 7.839445 6.322474
v 104.673078 7.827845 6.303927
v 104.682371 7.811188 6.279199
v 128.934662 7.823681 6.297745
v 128.934662 7.924214 6.601445
v 104.673078 7.922429 6.579034
v 34.006915 7.921834 6.572079
v 34.006915 7.854019 6.347975
v 104.673078 7.843311 6.328656
v 104.682371 7.827845 6.303927
v 128.934662 7.839445 6.322474
v 128.934662 7.921834 6.572079
v 104.682371 7.922429 6.579034
v 34.006915 7.918265 6.542713
v 34.006915 7.867106 6.374250
v 128.934662 7.854019 6.347975
v 104.682371 7.843311 6.328656
v 128.934662 7.918265 6.542713
v 104.673078 7.914696 6.521076
v 34.006915 7.913209 6.513348
v 34.006915 7.879301 6.401296
v 104.673078 7.870378 6.381204
v 128.934662 7.867106 6.374250
v 128.934662 7.913209 6.513348
v 104.682371 7.914696 6.521076
v 34.006915 7.906962 6.484755
v 34.006915 7.889711 6.428343
v 128.934662 7.879301 6.401296
v 104.682371 7.870378 6.381204
v 128.934662 7.906962 6.484755
v 34.006915 7.898932 6.456163
v 128.934662 7.889711 6.428343
v 128.934662 7.898932 6.456163
f 1 2 5
f 1 5 9
f 1 9 14
f 1 14 20
f 1 20 26
f 1 26 32
f 1 32 39
f 1 39 46
f 1 46 52
f 1 52 58
f 1 58 63
f 1 63 67
f 1 67 72
f 1 72 79
f 1 79 86
f 1 86 92
f 1 92 98
f 1 98 103
f 1 103 108
f 1 108 114
f 1 114 121
f 1 121 128
f 1 128 134
f 1 134 140
f 1 140 145
f 1 145 141
f 1 141 135
f 1 135 129
f 1 129 122
f 1 122 115
f 1 115 110
f 1 110 105
f 1 105 100
f 1 100 94
f 1 94 88
f 1 88 81
f 1 81 74
f 1 74 69
f 1 69 65
f 1 65 60
f 1 60 54
f 1 54 48
f 1 48 41
f 1 41 34
f 1 34 28
f 1 28 22
f 1 22 16
f 1 16 11
f 1 11 7
f 1 7 3
f 1 3 8
f 1 8 4
f 1 4 6
f 1 6 2
f 2 6 10
f 2 10 5
f 3 7 13
f 3 13 8
f 4 8 13
f 4 13 17
f 4 17 24
f 4 24 30
f 4 30 36
f 4 36 44
f 4 44 49
f 4 49 56
f 4 56 61
f 4 61 66
f 4 66 70
f 4 70 76
f 4 76 83
f 4 83 91
f 4 91 96
f 4 96 101
f 4 101 106
f 4 106 112
f 4 112 118
f 4 118 125
f 4 125 130
f 4 130 137
f 4 137 142
f 4 142 146
f 4 146 147
f 4 147 144
f 4 144 138
f 4 138 132
f 4 132 126
f 4 126 119
f 4 119 113
f 4 113 109
f 4 109 104
f 4 104 99
f 4 99 93
f 4 93 87
f 4 87 80
f 4 80 73
f 4 73 68
f 4 68 64
f 4 64 59
f 4 59 53
f 4 53 47
f 4 47 40
f 4 40 33
f 4 33 27
f 4 27 21
f 4 21 15
f 4 15 10
f 4 10 6
f 5 10 15
f 5 15 9
f 7 11 12
f 7 12 18
f 7 18 13
f 9 15 21
f 9 21 14
f 11 16 24
f 11 24 17
f 11 17 18
f 11 18 12
f 13 18 17
f 14 19 20
f 14 21 25
f 14 25 19
f 16 22 23
f 16 23 29
f 16 29 24
f 19 25 27
f 19 27 20
f 20 27 33
f 20 33 26
f 21 27 25
f 22 28 23
f 23 28 36
f 23 36 29
f 24 29 30
f 26 31 32
f 26 33 38
f 26 38 31
f 28 34 42
f 28 42 35
f 28 35 43
f 28 43 36
f 29 36 30
f 31 37 39
f 31 39 32
f 31 38 45
f 31 45 37
f 33 40 38
f 34 41 42
f 35 42 50
f 35 50 43
f 36 43 50
f 36 50 44
f 37 45 47
f 37 47 39
f 38 40 47
f 38 47 45
f 39 47 53
f 39 53 46
f 41 48 56
f 41 56 49
f 41 49 50
f 41 50 42
f 44 50 49
f 46 51 52
f 46 53 57
f 46 57 51
f 48 54 55
f 48 55 62
f 48 62 56
f 51 57 59
f 51 59 52
f 52 59 64
f 52 64 58
f 53 59 57
f 54 60 66
f 54 66 61
f 54 61 62
f 54 62 55
f 56 62 61
f 58 64 68
f 58 68 63
f 60 65 70
f 60 70 66
f 63 68 73
f 63 73 67
f 65 69 76
f 65 76 70
f 67 71 72
f 67 73 78
f 67 78 71
f 69 74 75
f 69 75 84
f 69 84 76
f 71 77 72
f 71 78 85
f 71 85 77
f 72 77 79
f 73 80 78
f 74 81 82
f 74 82 90
f 74 90 83
f 74 83 84
f 74 84 75
f 76 84 83
f 77 85 87
f 77 87 79
f 78 80 85
f 79 87 93
f 79 93 86
f 80 87 85
f 81 88 89
f 81 89 82
f 82 89 97
f 82 97 90
f 83 90 91
f 86 93 99
f 86 99 92
f 88 94 95
f 88 95 102
f 88 102 96
f 88 96 97
f 88 97 89
f 90 97 91
f 91 97 96
f 92 99 104
f 92 104 98
f 94 100 106
f 94 106 101
f 94 101 102
f 94 102 95
f 96 102 101
f 98 104 109
f 98 109 107
f 98 107 103
f 100 105 112
f 100 112 106
f 103 107 113
f 103 113 108
f 105 110 111
f 105 111 117
f 105 117 112
f 107 109 113
f 108 113 119
f 108 119 114
f 110 115 116
f 110 116 124
f 110 124 118
f 110 118 117
f 110 117 111
f 112 117 118
f 114 120 121
f 114 119 127
f 114 127 120
f 115 122 123
f 115 123 131
f 115 131 125
f 115 125 124
f 115 124 116
f 118 124 125
f 119 126 127
f 120 127 126
f 120 126 121
f 121 126 132
f 121 132 128
f 122 129 137
f 122 137 130
f 122 130 131
f 122 131 123
f 125 131 130
f 128 133 134
f 128 132 139
f 128 139 133
f 129 135 136
f 129 136 143
f 129 143 137
f 132 138 139
f 133 139 138
f 133 138 134
f 134 138 144
f 134 144 140
f 135 141 146
f 135 146 142
f 135 142 143
f 135 143 136
f 137 143 142
f 140 144 147
f 140 147 145
f 141 145 147
f 141 147 146
