# https://github.com/mikedh/trimesh
v 125.73193683 42.70192231 -13.43960535
v 125.73193683 42.70192231 -14.71908104
v 124.84965685 42.70192231 -12.55603239
v 125.73193683 42.69996567 -12.55603239
v 126.12591153 42.68432401 -12.55603239
v 127.01374103 42.64912740 -13.43960535
v 127.01374103 42.64912740 -14.71908104
v 127.01374103 42.34997148 -15.92221826
v 125.73193683 42.37734535 -15.94252077
v 72.95046425 42.70192231 -14.71908104
v 72.95046425 42.70192231 -12.55603239
v 127.01374103 42.64717457 -12.55603239
v 127.36332330 42.54745466 -12.55603239
v 128.14017364 42.32455425 -12.55603239
v 127.97925633 42.23265708 -15.72081513
v 128.14017364 42.32455425 -14.71908104
v 127.01374103 41.70473464 -16.56215826
v 125.73193683 41.73601797 -16.58246077
v 72.95046425 42.37734535 -15.94252077
v 72.95046425 22.72882312 -12.55603239
v 128.58409030 42.03517389 -12.55603239
v 128.77830479 41.90808011 -14.71908104
v 129.12788325 41.10250952 -15.76182635
v 128.38433009 41.45054708 -16.16788034
v 127.01374103 41.06340345 -16.67098054
v 127.93486390 40.94608524 -16.66042309
v 125.73193683 41.09468678 -16.67098054
v 80.94647931 41.09468678 -16.67138675
v 75.82481203 41.73601797 -16.58246077
v 72.95046425 41.73601797 -16.58205456
v 129.63284093 22.72882312 -12.55603239
v 72.95046425 22.72882312 -14.62893645
v 128.77830479 41.90612729 -12.55603239
v 128.77830479 41.90808011 -13.43960535
v 128.91702398 41.70864410 -12.55603239
v 129.22221382 41.26675274 -14.71908104
v 129.57179991 40.13073908 -14.71908104
v 129.25551100 40.13073908 -15.96647815
v 128.71726377 40.13073908 -16.60641910
v 127.01374103 40.13073908 -16.70346532
v 128.07358690 40.13073908 -16.67098054
v 72.95046425 40.36732834 -16.69575128
v 72.95046425 41.09468678 -16.67138675
v 129.63284093 22.72882312 -14.71908104
v 129.63838664 37.96820725 -12.55603239
v 72.95046425 39.37991623 -16.67138675
v 78.96551056 22.72882312 -16.67138675
v 129.22221382 41.26675274 -12.55603239
v 129.57735325 40.13073908 -12.55603239
v 129.63284093 38.85198998 -14.71908104
v 129.28325484 38.85198998 -15.96932062
v 129.28325484 35.01183703 -15.96728960
v 129.28325484 27.33544058 -15.96322948
v 129.28325484 22.72882312 -15.96038702
v 128.71171424 38.85198998 -16.60926061
v 127.01374103 22.72882312 -16.70346532
v 72.95046425 40.13073908 -16.70346532
v 128.07358690 38.85198998 -16.67098054
v 129.49411411 22.72882312 -15.21771492
v 129.63838664 38.85198998 -12.55603239
v 79.66467511 22.72882312 -16.70346532
v 129.03910602 22.72882312 -16.21741991
v 128.70616471 36.29254277 -16.60763580
v 128.67287516 22.72882312 -16.60032797
v 128.68951993 29.89489161 -16.60438809
v 128.02919829 22.72882312 -16.67098054
v 128.03474401 23.49528763 -16.67098054
f 1 2 10
f 1 10 11
f 1 11 3
f 1 3 4
f 1 4 5
f 1 5 6
f 1 6 7
f 1 7 2
f 2 7 8
f 2 8 9
f 2 9 19
f 2 19 10
f 3 11 20
f 3 20 31
f 3 31 45
f 3 45 60
f 3 60 49
f 3 49 48
f 3 48 35
f 3 35 33
f 3 33 21
f 3 21 14
f 3 14 13
f 3 13 12
f 3 12 5
f 3 5 4
f 5 12 6
f 6 13 14
f 6 14 16
f 6 16 7
f 6 12 13
f 7 15 8
f 7 16 15
f 8 15 17
f 8 17 18
f 8 18 9
f 9 18 29
f 9 29 19
f 10 19 30
f 10 30 43
f 10 43 42
f 10 42 57
f 10 57 46
f 10 46 32
f 10 32 20
f 10 20 11
f 14 21 16
f 15 16 22
f 15 22 23
f 15 23 24
f 15 24 17
f 16 21 22
f 17 25 18
f 17 24 26
f 17 26 25
f 18 25 27
f 18 27 28
f 18 28 43
f 18 43 29
f 19 29 30
f 20 32 47
f 20 47 61
f 20 61 56
f 20 56 66
f 20 66 64
f 20 64 62
f 20 62 54
f 20 54 59
f 20 59 44
f 20 44 31
f 21 33 34
f 21 34 22
f 22 34 35
f 22 35 36
f 22 36 23
f 23 36 37
f 23 37 38
f 23 38 39
f 23 39 24
f 24 39 26
f 25 40 27
f 25 26 40
f 26 39 41
f 26 41 40
f 27 40 28
f 28 42 43
f 28 40 42
f 29 43 30
f 31 44 45
f 32 46 47
f 33 35 34
f 35 48 36
f 36 48 49
f 36 49 37
f 37 49 60
f 37 60 50
f 37 50 38
f 38 50 51
f 38 51 39
f 39 51 52
f 39 52 53
f 39 53 54
f 39 54 55
f 39 55 41
f 40 41 58
f 40 58 56
f 40 56 61
f 40 61 57
f 40 57 42
f 41 55 58
f 44 59 50
f 44 50 60
f 44 60 45
f 46 57 47
f 47 57 61
f 50 59 51
f 51 59 52
f 52 59 53
f 53 59 54
f 54 62 63
f 54 63 55
f 55 63 64
f 55 64 65
f 55 65 66
f 55 66 67
f 55 67 58
f 56 58 67
f 56 67 66
f 62 64 63
f 64 66 65

