# https://github.com/mikedh/trimesh
v 36.14864119 42.67153148 9.30567592
v 37.50172158 42.42375925 9.30567592
v 36.14864119 42.65424593 3.18437517
v 34.87293194 42.34885013 3.18437517
v 34.88203431 42.34885013 9.30567592
v 37.72063434 42.28258759 9.30567592
v 37.14445006 42.35461325 3.18437517
v 34.23439458 42.04633779 3.18437517
v 34.23439458 42.04633779 3.19815650
v 34.23621391 42.04633779 4.47802123
v 34.73639442 42.27970413 9.30567592
v 37.94319149 42.10684102 9.30567592
v 37.94319149 42.09531860 9.08277836
v 37.94319149 42.05498438 8.89163709
v 37.59729746 41.42114792 3.18437517
v 33.83297474 41.40674202 3.18437517
v 33.82159725 41.40674202 4.47802123
v 33.82296270 41.40097890 9.30567592
v 34.23940060 42.04345814 7.03715139
v 34.24213151 42.04057467 9.30567592
v 37.94319149 14.57246667 9.30567592
v 37.94319149 41.72077679 8.60163027
v 37.70379505 40.13043014 3.18437517
v 37.60230348 41.40962168 3.18437517
v 33.82660327 41.39233613 3.18437517
v 33.36465350 40.13043014 3.18437517
v 33.35509725 40.13043014 4.47802123
v 33.35600691 40.13043014 8.31701660
v 33.35646079 40.13043014 9.30567592
v 33.71646321 41.11287246 9.30567592
v 35.85736141 14.56958511 9.30567592
v 37.94319149 13.23853121 5.77346469
v 37.94319149 41.44131693 8.41528333
v 37.94319149 20.66880884 3.19815650
v 37.94227992 20.67169040 3.18437517
v 33.29410962 38.85123479 3.18437517
v 33.29638474 38.85123479 9.30567592
v 34.86928946 14.56958511 9.30567592
v 36.13089032 13.23853121 5.77346469
v 37.94319149 13.23853121 3.18437517
v 37.94319149 19.35216083 3.18437517
v 33.29410962 13.23853121 3.18437517
v 33.29638474 17.09628247 9.30567592
v 34.63126038 14.63873112 9.30567592
v 33.83843655 13.23853121 5.43252710
v 34.85518107 13.23853121 5.75668785
v 34.86928946 13.23853121 5.76028265
v 33.37011530 13.23853121 4.46064509
v 33.35782624 15.81708712 9.30567592
v 33.82432815 14.87497901 9.30567592
v 33.83160929 13.23853121 5.41994435
v 33.37148076 13.23853121 4.47802123
f 1 2 3
f 1 3 4
f 1 4 5
f 1 5 11
f 1 11 20
f 1 20 18
f 1 18 30
f 1 30 29
f 1 29 37
f 1 37 43
f 1 43 49
f 1 49 50
f 1 50 44
f 1 44 38
f 1 38 31
f 1 31 21
f 1 21 12
f 1 12 6
f 1 6 2
f 2 6 7
f 2 7 3
f 3 7 15
f 3 15 24
f 3 24 23
f 3 23 35
f 3 35 41
f 3 41 40
f 3 40 42
f 3 42 36
f 3 36 26
f 3 26 25
f 3 25 16
f 3 16 8
f 3 8 4
f 4 8 9
f 4 9 10
f 4 10 5
f 5 10 11
f 6 12 13
f 6 13 7
f 7 13 14
f 7 14 15
f 8 16 17
f 8 17 9
f 9 17 18
f 9 18 10
f 10 18 19
f 10 19 11
f 11 19 20
f 12 21 32
f 12 32 40
f 12 40 41
f 12 41 34
f 12 34 33
f 12 33 22
f 12 22 14
f 12 14 13
f 14 22 23
f 14 23 24
f 14 24 15
f 16 25 17
f 17 25 26
f 17 26 27
f 17 27 28
f 17 28 29
f 17 29 30
f 17 30 18
f 18 20 19
f 21 31 32
f 22 33 23
f 23 33 34
f 23 34 35
f 26 36 27
f 27 36 28
f 28 36 37
f 28 37 29
f 31 38 39
f 31 39 32
f 32 39 47
f 32 47 46
f 32 46 45
f 32 45 51
f 32 51 52
f 32 52 48
f 32 48 42
f 32 42 40
f 34 41 35
f 36 42 43
f 36 43 37
f 38 44 45
f 38 45 46
f 38 46 47
f 38 47 39
f 42 48 49
f 42 49 43
f 44 50 45
f 45 50 51
f 48 52 49
f 49 52 50
f 50 52 51

