# https://github.com/mikedh/trimesh
v 97.23631516 14.49908128 -9.03652120
v 97.23631516 14.56916365 -9.85080321
v 100.62433586 9.23615843 -9.03652120
v 97.23631516 42.59581377 -9.03652120
v 99.88197652 14.34222791 -9.85080321
v 103.98015403 9.41970867 -9.42604674
v 97.23631516 42.62251254 -9.85080321
v 103.98015403 8.58872085 -9.18397851
v 103.18413398 8.65546778 -9.10809774
v 103.14477999 8.64211839 -9.03652120
v 110.37696227 42.59581377 -9.03652120
v 109.34839591 42.62584988 -9.85080321
v 101.25757733 14.26880629 -9.85080321
v 103.97657640 14.15200298 -9.85080321
v 115.49655849 14.57250100 -9.85080321
v 104.77438909 8.64545574 -9.11064843
v 103.98015403 8.53198787 -9.03652120
v 103.25568668 8.62209431 -9.03652120
v 111.90640139 42.61917519 -9.85080321
v 111.09248934 42.59247642 -9.03652120
v 115.50907640 14.58585038 -9.85080321
v 115.50907640 14.57250100 -9.84833262
v 104.81374307 8.63544370 -9.03652120
v 113.18719486 42.58580173 -9.85080321
v 111.65596692 42.58913907 -9.03652120
v 115.50907640 42.17531193 -9.85080321
v 115.50907640 14.57250100 -9.03652120
v 112.37328281 42.56577765 -9.03652120
v 112.93676038 42.53574534 -9.03652120
v 115.20677003 42.33884190 -9.85080321
v 115.39638470 42.23872533 -9.85080321
v 114.01541745 42.30546844 -9.03652120
v 115.50907640 41.41107104 -9.50782603
v 115.50907640 19.88548405 -9.03652120
v 113.63618810 42.41893822 -9.03652120
v 114.45367397 41.41107104 -9.03652120
v 115.50907640 40.14289847 -9.41209853
v 115.50907640 20.00562662 -9.03795625
v 114.55742539 40.12954908 -9.03652120
v 114.48051004 41.13741626 -9.03652120
v 115.50907640 40.12954908 -9.41114215
f 1 2 3
f 1 3 10
f 1 10 18
f 1 18 17
f 1 17 23
f 1 23 27
f 1 27 34
f 1 34 39
f 1 39 40
f 1 40 36
f 1 36 32
f 1 32 35
f 1 35 29
f 1 29 28
f 1 28 25
f 1 25 20
f 1 20 11
f 1 11 4
f 1 4 7
f 1 7 2
f 2 5 6
f 2 6 3
f 2 7 12
f 2 12 19
f 2 19 24
f 2 24 30
f 2 30 31
f 2 31 26
f 2 26 21
f 2 21 15
f 2 15 14
f 2 14 13
f 2 13 5
f 3 6 8
f 3 8 9
f 3 9 10
f 4 11 12
f 4 12 7
f 5 13 6
f 6 14 15
f 6 15 8
f 6 13 14
f 8 16 17
f 8 17 9
f 8 15 16
f 9 17 18
f 9 18 10
f 11 19 12
f 11 20 19
f 15 21 22
f 15 22 16
f 16 23 17
f 16 22 23
f 19 20 25
f 19 25 24
f 21 26 33
f 21 33 37
f 21 37 41
f 21 41 38
f 21 38 34
f 21 34 27
f 21 27 22
f 22 27 23
f 24 25 28
f 24 28 29
f 24 29 30
f 26 31 32
f 26 32 33
f 29 35 30
f 30 35 32
f 30 32 31
f 32 36 33
f 33 36 37
f 34 38 39
f 36 40 41
f 36 41 37
f 38 41 39
f 39 41 40

