v 106.515225 12.001028 -8.932370
v 106.515839 11.551167 -8.932370
v 106.515225 12.001028 -8.582391
v 106.515225 12.449714 -8.932370
v 106.521684 9.000000 -8.932370
v 107.305854 9.000000 -7.250000
v 107.305854 14.999706 -7.250000
v 106.521684 14.999706 -8.932370
v 108.728435 9.000000 -8.932370
v 107.944263 9.000000 -7.250000
v 107.944263 14.999706 -7.250000
v 108.728435 14.999706 -8.932370
v 109.655297 11.547056 -8.932370
v 109.655297 11.999853 -8.578768
v 109.035646 11.999853 -7.250000
v 109.656833 12.001028 -8.582391
v 109.656833 12.449714 -8.932370
v 109.656833 12.001028 -8.932370
f 1 2 3
f 1 3 4
f 1 4 8
f 1 8 12
f 1 12 17
f 1 17 18
f 1 18 13
f 1 13 9
f 1 9 5
f 1 5 2
f 2 5 3
f 3 5 6
f 3 6 7
f 3 7 8
f 3 8 4
f 5 9 10
f 5 10 6
f 6 10 15
f 6 15 11
f 6 11 7
f 7 11 12
f 7 12 8
f 9 13 14
f 9 14 10
f 10 14 15
f 11 16 17
f 11 17 12
f 11 15 16
f 13 18 16
f 13 16 14
f 14 16 15
f 16 18 17
