# https://github.com/mikedh/trimesh
v 72.93252254 9.66883970 46.72233430
v 72.93252254 9.30901374 48.00229264
v 72.93252254 9.20760315 45.72655722
v 52.76272711 9.66883970 46.72233430
v 72.93252254 8.84777720 48.67310447
v 51.49752648 9.30901374 48.00229264
v 72.93252254 8.14217621 45.37092241
v 52.76272711 9.20760315 45.72655722
v 51.49752648 9.66761783 46.72233430
v 72.93252254 8.67549966 48.68060923
v 51.49752648 8.84777720 48.67310447
v 72.93252254 5.58185320 45.37124862
v 52.76272711 8.14217621 45.37092241
v 51.49752648 8.14217621 45.37255346
v 51.49752648 9.20638034 45.72818827
v 72.93252254 8.14217621 48.70377402
v 51.49752648 8.15072923 48.70344781
v 72.93252254 4.61478269 45.55526499
v 61.72405007 4.30199693 45.61464587
v 51.49752648 5.58185320 45.37124862
v 51.49752648 6.86170948 45.37124862
v 72.93252254 5.58185320 48.70377402
v 51.49752648 8.14217621 48.70377402
v 72.93252254 4.30199693 45.61497209
v 51.49752648 4.29283345 45.61888757
v 51.49752648 4.30199693 45.61464587
v 69.40338541 3.57318155 45.97028068
v 72.93252254 4.81943810 48.67310447
v 51.49752648 5.58185320 48.70377402
v 55.32250643 4.81882669 48.67310447
v 72.93252254 3.75156744 45.88349331
v 51.49752648 3.57318155 45.97028068
v 72.93252254 3.57318155 45.97060689
v 51.49752648 3.42778493 46.72233430
v 51.49752648 3.57134923 45.97941650
v 72.93252254 4.66304474 48.59186268
v 51.49752648 4.18653542 48.34487710
v 51.49752648 4.81882669 48.67310447
v 72.93252254 3.42839634 46.72233430
v 72.93252254 3.51636647 47.70016692
v 63.00184118 3.51636647 47.70049313
v 51.49752648 3.51636647 47.70081934
v 72.93252254 4.17920425 48.34031015
v 51.49752648 4.17920425 48.34096257
f 1 2 5
f 1 5 10
f 1 10 16
f 1 16 22
f 1 22 28
f 1 28 36
f 1 36 43
f 1 43 40
f 1 40 39
f 1 39 33
f 1 33 31
f 1 31 24
f 1 24 18
f 1 18 12
f 1 12 7
f 1 7 3
f 1 3 8
f 1 8 4
f 1 4 6
f 1 6 2
f 2 6 11
f 2 11 5
f 3 7 13
f 3 13 8
f 4 8 9
f 4 9 6
f 5 11 10
f 6 9 15
f 6 15 14
f 6 14 21
f 6 21 20
f 6 20 26
f 6 26 25
f 6 25 32
f 6 32 35
f 6 35 34
f 6 34 42
f 6 42 44
f 6 44 37
f 6 37 38
f 6 38 29
f 6 29 23
f 6 23 17
f 6 17 11
f 7 12 20
f 7 20 13
f 8 13 14
f 8 14 15
f 8 15 9
f 10 11 17
f 10 17 16
f 12 18 19
f 12 19 26
f 12 26 20
f 13 20 21
f 13 21 14
f 16 17 23
f 16 23 29
f 16 29 22
f 18 24 19
f 19 25 26
f 19 24 27
f 19 27 25
f 22 29 38
f 22 38 30
f 22 30 28
f 24 31 27
f 25 27 32
f 27 31 33
f 27 33 34
f 27 34 35
f 27 35 32
f 28 30 37
f 28 37 36
f 30 38 37
f 33 39 34
f 34 39 40
f 34 40 41
f 34 41 42
f 36 37 43
f 37 44 43
f 40 43 41
f 41 43 44
f 41 44 42

