# https://github.com/mikedh/trimesh
v 129.54433068 14.19075052 14.71596455
v 129.48943038 14.19075052 15.05204487
v 129.28606203 9.67304759 15.96108846
v 129.31974825 9.67304759 15.71230263
v 129.45450076 9.67304759 14.71596455
v 129.30726848 14.19075052 13.81882480
v 129.28606203 14.19075052 15.96108846
v 128.69590857 9.67304759 16.60110855
v 129.38462626 9.67304759 14.55407464
v 129.20620981 14.19075052 13.57162565
v 128.69590857 14.19075052 16.60110855
v 128.52372819 14.19075052 16.61975954
v 128.05585129 9.67304759 16.66975490
v 129.10264909 9.67304759 13.90651597
v 128.29415690 14.19075052 13.03516723
v 128.05585129 14.19075052 16.66975490
v 127.77512134 14.19075052 16.67888016
v 127.01403853 9.67304759 16.70348117
v 128.29415690 9.67304759 13.55337322
v 128.21804633 14.19075052 13.00897860
v 127.01403853 14.19075052 16.70348117
v 120.61593731 14.19075052 16.70387784
v 120.61593731 9.67304759 16.70348117
v 127.01403853 9.67304759 13.37005660
v 127.01403853 14.19075052 12.65028156
v 119.33706616 14.19075052 16.68245207
v 119.59284039 9.67304759 16.69514925
v 125.73392016 9.67304759 13.36965993
v 125.47814593 9.67304759 13.36965993
v 122.92039981 9.67304759 13.37005660
v 120.61593731 9.67304759 13.37045326
v 120.61593731 14.19075052 12.68876974
v 119.15989692 14.19075052 16.67332491
v 118.30274049 9.67304759 16.66300774
v 118.47242644 9.67304759 16.67173824
v 119.33706616 9.67304759 16.69078400
v 119.33706616 9.67304759 13.41410003
v 120.18548827 14.19075052 12.69710262
v 118.68078747 14.19075052 16.64832723
v 116.79803969 9.67304759 14.71596455
v 118.10061554 9.67304759 13.70216929
v 119.03013708 14.19075052 12.81534576
v 119.33706616 14.19075052 12.74868560
v 118.44372908 14.19075052 15.99600664
v 118.10311378 14.19075052 14.71596455
v 118.12057859 14.19075052 13.55337322
f 1 2 3
f 1 3 4
f 1 4 5
f 1 5 6
f 1 6 10
f 1 10 15
f 1 15 20
f 1 20 25
f 1 25 32
f 1 32 38
f 1 38 43
f 1 43 42
f 1 42 46
f 1 46 45
f 1 45 44
f 1 44 39
f 1 39 33
f 1 33 26
f 1 26 22
f 1 22 21
f 1 21 17
f 1 17 16
f 1 16 12
f 1 12 11
f 1 11 7
f 1 7 2
f 2 7 3
f 3 7 11
f 3 11 8
f 3 8 13
f 3 13 18
f 3 18 23
f 3 23 27
f 3 27 36
f 3 36 35
f 3 35 34
f 3 34 40
f 3 40 41
f 3 41 37
f 3 37 31
f 3 31 30
f 3 30 29
f 3 29 28
f 3 28 24
f 3 24 19
f 3 19 14
f 3 14 9
f 3 9 5
f 3 5 4
f 5 9 10
f 5 10 6
f 8 11 12
f 8 12 13
f 9 14 10
f 10 14 15
f 12 16 13
f 13 16 17
f 13 17 18
f 14 19 15
f 15 19 20
f 17 21 18
f 18 21 22
f 18 22 23
f 19 24 25
f 19 25 20
f 22 26 27
f 22 27 23
f 24 28 25
f 25 28 29
f 25 29 30
f 25 30 31
f 25 31 32
f 26 33 34
f 26 34 35
f 26 35 36
f 26 36 27
f 31 37 38
f 31 38 32
f 33 39 34
f 34 39 40
f 37 41 42
f 37 42 43
f 37 43 38
f 39 44 40
f 40 44 45
f 40 45 46
f 40 46 42
f 40 42 41

