# https://github.com/mikedh/trimesh
v 16.64088372 -6.57285211 20.37122363
v 18.19673832 -6.57285211 20.37122363
v 16.64088372 -6.57285211 25.78173479
v 16.64088372 3.74592361 20.19850733
v 16.74372983 3.67184415 20.19850733
v 16.91645377 3.54983171 20.19850733
v 18.19673832 3.41474699 20.19850733
v 19.47701905 -6.57285211 20.37231673
v 19.07750791 3.42346216 20.19850733
v 23.37588483 -6.57285211 25.62869511
v 23.37588483 35.08136512 25.62869511
v 16.64088372 32.18792349 25.78118825
v 16.64088372 34.87219713 20.19850733
v 20.74280152 -6.57285211 20.39417954
v 20.05914728 3.71977808 20.19850733
v 23.37588483 -4.65987091 20.37177018
v 22.03626804 -5.93664345 20.38598134
v 23.37588483 -6.57285211 20.46031452
v 23.37588483 36.30584280 25.62760202
v 23.37588483 36.35377864 25.62705548
v 16.64088372 33.42111920 25.76588447
v 16.64088372 34.88091516 21.11838695
v 16.64418017 34.88091516 20.19850733
v 23.37588483 -5.94100246 20.41003034
v 21.59851964 4.73945441 20.19850733
v 21.79497876 5.86807089 20.19850733
v 21.93869853 6.99232931 20.19850733
v 23.37588483 22.47049384 20.19850733
v 23.37588483 37.00741765 25.61229777
v 16.64088372 33.66078697 25.68772499
v 22.63092201 36.95948563 25.60683230
v 20.04002865 35.68270737 25.60847194
v 17.43990599 34.40593674 25.60847194
v 16.64088372 34.88091516 23.67798123
v 16.91645377 35.00728280 20.19850733
v 23.37588483 37.93994224 20.19850733
v 23.37588483 37.04227835 25.57239797
v 16.64088372 34.17934031 25.51446166
v 23.37588483 37.49982451 24.95805212
v 22.13713400 37.10764263 24.90667389
v 18.67997693 35.73500032 24.56616020
v 16.64088372 34.59331155 24.89792915
v 16.64088372 34.50615791 25.03183875
v 16.64088372 34.23162944 25.44067456
v 16.91645377 35.00728280 23.67798123
v 16.64088372 34.84605065 23.98242190
v 21.32492593 36.97691407 24.44591426
v 23.37588483 37.94429935 23.67798123
v 20.31889514 36.55422860 20.19850733
v 23.35874254 37.93558513 20.19850733
f 1 2 8
f 1 8 14
f 1 14 18
f 1 18 10
f 1 10 3
f 1 3 12
f 1 12 21
f 1 21 30
f 1 30 38
f 1 38 44
f 1 44 43
f 1 43 42
f 1 42 46
f 1 46 34
f 1 34 22
f 1 22 13
f 1 13 4
f 1 4 5
f 1 5 6
f 1 6 7
f 1 7 2
f 2 7 9
f 2 9 8
f 3 10 11
f 3 11 12
f 4 13 23
f 4 23 35
f 4 35 49
f 4 49 50
f 4 50 36
f 4 36 28
f 4 28 27
f 4 27 26
f 4 26 25
f 4 25 15
f 4 15 9
f 4 9 7
f 4 7 6
f 4 6 5
f 8 9 15
f 8 15 16
f 8 16 17
f 8 17 14
f 10 18 24
f 10 24 16
f 10 16 28
f 10 28 36
f 10 36 48
f 10 48 39
f 10 39 37
f 10 37 29
f 10 29 20
f 10 20 19
f 10 19 11
f 11 19 12
f 12 19 20
f 12 20 21
f 13 22 23
f 14 17 24
f 14 24 18
f 15 25 16
f 16 24 17
f 16 25 26
f 16 26 27
f 16 27 28
f 20 29 21
f 21 29 31
f 21 31 32
f 21 32 33
f 21 33 30
f 22 34 45
f 22 45 35
f 22 35 23
f 29 37 31
f 30 33 38
f 31 37 39
f 31 39 40
f 31 40 41
f 31 41 42
f 31 42 43
f 31 43 44
f 31 44 38
f 31 38 33
f 31 33 32
f 34 46 41
f 34 41 47
f 34 47 45
f 35 45 48
f 35 48 49
f 36 50 48
f 39 48 40
f 40 48 47
f 40 47 41
f 41 46 42
f 45 47 48
f 48 50 49

