# https://github.com/mikedh/trimesh
v 37.94319149 14.07205923 -16.70306865
v 37.94319149 14.07205923 -12.97481120
v 37.94319149 17.09623670 -16.70306865
v 47.66819611 14.07205923 -16.70306865
v 37.94319149 14.57057106 -8.34945024
v 46.39003247 14.07205923 -12.97153965
v 37.94319149 18.37497245 -16.70143240
v 38.71077545 20.70266098 -16.70306865
v 47.66819611 20.70266098 -16.70306865
v 47.95603938 14.07205923 -16.69161869
v 37.94319149 19.60632360 -8.34945024
v 72.94703727 14.57057106 -8.34945024
v 47.66819611 14.07205923 -12.97889993
v 37.94319149 20.70266098 -16.67608001
v 47.81211774 20.70266098 -16.69734367
v 48.45976510 20.70266098 -16.67117506
v 48.45976510 14.07205923 -16.67117506
v 39.64283909 20.70266098 -9.53931913
v 38.77245533 20.70266098 -9.85007567
v 37.94319149 20.70266098 -10.39062758
v 39.98893908 19.67707535 -8.34945024
v 41.27052779 20.70266098 -9.35041198
v 40.94498967 20.70266098 -9.36594971
v 39.98893908 20.70266098 -9.44609179
v 48.85383706 14.07205923 -13.18906884
v 48.94978481 14.07205923 -13.21605558
v 49.71394179 14.07205923 -13.57342531
v 49.96409117 14.07205923 -13.72553203
v 72.94703727 14.57316656 -10.88047757
v 72.94703727 19.71342573 -8.34945024
v 72.94703727 20.70266098 -14.62836052
v 48.69278244 14.07205923 -16.47327233
v 72.94703727 18.37497245 -14.62836052
v 72.94703727 17.40780564 -14.57438705
v 72.94703727 17.09623670 -14.55639589
v 72.94703727 16.33873153 -14.34949853
v 72.94703727 16.09401822 -14.28243979
v 72.94703727 15.61043672 -13.92752349
v 72.94703727 15.45400099 -13.81221722
v 72.94703727 14.95613946 -13.17271299
v 72.94703727 14.65495443 -12.16030225
v 40.03348408 19.67837405 -8.34945024
v 41.27052779 19.71342573 -8.34945024
v 72.94703727 20.70266098 -9.35041198
v 49.77904866 14.07205923 -14.71913444
v 49.61456706 14.07205923 -15.48539394
v 49.10056040 14.07205923 -16.12571535
f 1 2 5
f 1 5 11
f 1 11 20
f 1 20 14
f 1 14 7
f 1 7 3
f 1 3 8
f 1 8 9
f 1 9 4
f 1 4 10
f 1 10 17
f 1 17 32
f 1 32 47
f 1 47 46
f 1 46 45
f 1 45 28
f 1 28 27
f 1 27 26
f 1 26 25
f 1 25 13
f 1 13 6
f 1 6 2
f 2 6 5
f 3 7 8
f 4 9 15
f 4 15 10
f 5 6 12
f 5 12 30
f 5 30 43
f 5 43 42
f 5 42 21
f 5 21 11
f 6 13 12
f 7 14 8
f 8 14 20
f 8 20 19
f 8 19 18
f 8 18 24
f 8 24 23
f 8 23 22
f 8 22 44
f 8 44 31
f 8 31 16
f 8 16 15
f 8 15 9
f 10 15 16
f 10 16 17
f 11 18 19
f 11 19 20
f 11 21 22
f 11 22 23
f 11 23 24
f 11 24 18
f 12 13 25
f 12 25 26
f 12 26 27
f 12 27 28
f 12 28 29
f 12 29 41
f 12 41 40
f 12 40 39
f 12 39 38
f 12 38 37
f 12 37 36
f 12 36 35
f 12 35 34
f 12 34 33
f 12 33 31
f 12 31 44
f 12 44 30
f 16 31 33
f 16 33 17
f 17 33 34
f 17 34 35
f 17 35 36
f 17 36 37
f 17 37 38
f 17 38 39
f 17 39 40
f 17 40 41
f 17 41 29
f 17 29 32
f 21 42 22
f 22 42 43
f 22 43 30
f 22 30 44
f 28 45 29
f 29 45 46
f 29 46 47
f 29 47 32

