# https://github.com/mikedh/trimesh
v 19.08420533 20.91003415 -16.69796156
v 19.51168317 20.91003415 -16.69499990
v 19.08420533 20.91003415 -11.66113153
v 19.08420533 22.21600837 -16.70092321
v 19.51168317 23.49610194 -16.70388487
v 23.35076054 26.05456702 -16.70339094
v 24.67533999 27.33466251 -16.70339094
v 19.52481897 20.91003415 -16.69450597
v 24.67533999 25.95450575 -16.67870984
v 23.09569955 20.91003415 -11.66113153
v 19.08420533 35.99169338 -11.66113153
v 19.08420533 23.49610194 -16.70339094
v 19.08420533 32.45159267 -16.70339094
v 19.51168317 33.73168815 -16.70339094
v 24.63045554 36.29187911 -16.70339094
v 24.67533999 36.29187911 -16.70339094
v 20.18491558 20.91003415 -16.66242168
v 24.67533999 25.84926873 -16.67476223
v 24.67533999 22.34194647 -11.66113153
v 19.15809608 36.02619964 -11.66113153
v 19.08420533 35.99169338 -14.71906578
v 19.08420533 33.73168815 -16.69944143
v 23.76784112 36.98540640 -16.66044597
v 24.63045554 37.09236931 -16.67130665
v 24.67533999 37.10789655 -16.67130665
v 19.08420533 34.58911156 -16.66686321
v 24.37922392 25.35931385 -16.66044597
v 24.67533999 25.13848831 -16.21421987
v 24.67533999 25.06775564 -16.12092673
v 24.67533999 38.53463313 -11.66113153
v 21.29110289 36.99575789 -14.71906578
v 19.51168317 36.18664018 -14.71906578
v 19.08420533 35.82262532 -15.66532269
v 23.98240008 38.21547220 -15.36816727
v 21.33817282 36.97333093 -15.45899172
v 22.91452932 36.72835444 -16.60269462
v 24.67533999 37.74276664 -16.28727533
v 21.11321279 35.71393843 -16.66044597
v 20.26045022 35.54314258 -16.62638787
v 19.08420533 35.24468464 -16.28579355
v 19.51168317 35.30679361 -16.44424504
v 24.67533999 38.53290915 -14.71906578
v 24.63045554 38.51393014 -14.71906578
v 24.63045554 38.36211329 -15.63274351
v 22.07106936 37.14067501 -15.72702450
v 19.51168317 35.91923673 -15.80402757
v 24.67533999 38.37074081 -15.64804572
v 24.67533999 38.34141030 -15.67865014
f 1 2 8
f 1 8 17
f 1 17 10
f 1 10 3
f 1 3 11
f 1 11 21
f 1 21 33
f 1 33 40
f 1 40 26
f 1 26 22
f 1 22 13
f 1 13 12
f 1 12 4
f 1 4 5
f 1 5 6
f 1 6 7
f 1 7 2
f 2 7 9
f 2 9 8
f 3 10 19
f 3 19 30
f 3 30 20
f 3 20 11
f 4 12 5
f 5 7 6
f 5 12 13
f 5 13 14
f 5 14 15
f 5 15 16
f 5 16 7
f 7 16 25
f 7 25 37
f 7 37 48
f 7 48 47
f 7 47 42
f 7 42 30
f 7 30 19
f 7 19 29
f 7 29 28
f 7 28 18
f 7 18 9
f 8 9 18
f 8 18 17
f 10 17 19
f 11 20 21
f 13 22 14
f 14 22 15
f 15 23 24
f 15 24 25
f 15 25 16
f 15 22 26
f 15 26 23
f 17 18 27
f 17 27 28
f 17 28 29
f 17 29 19
f 18 28 27
f 20 31 32
f 20 32 21
f 20 30 31
f 21 32 34
f 21 34 35
f 21 35 33
f 23 36 37
f 23 37 25
f 23 25 24
f 23 26 38
f 23 38 39
f 23 39 36
f 26 40 41
f 26 41 39
f 26 39 38
f 30 42 43
f 30 43 31
f 31 43 34
f 31 34 32
f 33 35 44
f 33 44 45
f 33 45 46
f 33 46 40
f 34 43 42
f 34 42 44
f 34 44 35
f 36 47 48
f 36 48 37
f 36 39 47
f 39 41 40
f 39 40 46
f 39 46 45
f 39 45 47
f 42 47 44
f 44 47 45

