# https://github.com/mikedh/trimesh
v 16.64088372 -20.65092778 25.78175959
v 16.64088372 -20.65092778 20.37075339
v 23.37588483 -20.65092778 25.62888874
v 23.37588483 -6.57422945 25.62888874
v 16.64088372 -6.57422945 25.78073327
v 23.37588483 -20.65092778 20.31637727
v 16.64088372 -14.90035886 20.23224727
v 18.75579141 -12.34133497 16.54693521
v 18.77292989 -13.62015729 16.56540333
v 18.79996152 -14.43182453 16.59720794
v 19.46383708 -14.87555443 16.24427248
v 20.69071841 -14.83145681 15.62560863
v 22.03626804 -15.05607690 15.66562002
v 23.37588483 -15.07261351 15.65843956
v 23.37588483 -6.57422945 20.46103943
v 16.64088372 -6.57422945 20.37075339
v 16.64088372 -13.62015729 20.21993519
v 16.64088372 -12.06710458 20.21993519
v 16.64088372 -10.78690349 20.23327264
v 18.77688639 -11.43596125 16.57155937
v 19.47701905 -12.34133497 15.92724503
v 19.47701905 -13.62015729 15.93853078
v 20.30373301 -13.62015729 15.37013966
v 21.07440736 -14.35878857 15.34243843
v 22.03626804 -14.41528793 15.33422975
v 23.31655259 -14.43182453 15.33115268
v 23.37588483 -14.43182453 15.33115268
v 20.74280152 -6.57422945 20.39435123
v 23.37588483 -10.89576877 15.73949059
v 16.74306978 -6.57422945 20.37075339
v 22.03626804 -10.90128097 15.74154324
v 20.73488852 -11.12727983 15.69127050
v 19.87191745 -10.38038121 16.49460983
v 19.45790042 -11.03081677 16.26581767
v 20.35910875 -12.34133497 15.37732202
v 20.94387338 -13.62015729 15.33422975
v 20.99925293 -12.34133497 15.33115268
v 22.03626804 -13.62015729 15.30755485
v 23.37588483 -13.65874271 15.30447587
v 19.47701905 -6.57422945 20.37280604
v 18.19673832 -6.57422945 20.37177972
v 23.37588483 -11.53655822 15.32910003
v 23.31655259 -11.53655822 15.32910003
v 22.03626804 -11.54207042 15.33012635
v 21.14758544 -11.59719245 15.33935946
v 22.03626804 -12.34133497 15.30447587
v 23.31655259 -13.62015729 15.30344955
v 23.37588483 -13.62015729 15.30344955
v 23.37588483 -12.34133497 15.30037248
f 1 2 6
f 1 6 3
f 1 3 4
f 1 4 5
f 1 5 16
f 1 16 19
f 1 19 18
f 1 18 17
f 1 17 7
f 1 7 2
f 2 7 8
f 2 8 9
f 2 9 10
f 2 10 11
f 2 11 12
f 2 12 13
f 2 13 14
f 2 14 6
f 3 6 14
f 3 14 27
f 3 27 39
f 3 39 48
f 3 48 49
f 3 49 42
f 3 42 29
f 3 29 15
f 3 15 4
f 4 15 28
f 4 28 40
f 4 40 41
f 4 41 30
f 4 30 16
f 4 16 5
f 7 17 8
f 8 18 19
f 8 19 16
f 8 16 20
f 8 20 21
f 8 21 22
f 8 22 9
f 8 17 18
f 9 22 10
f 10 22 11
f 11 22 23
f 11 23 12
f 12 23 24
f 12 24 13
f 13 24 25
f 13 25 14
f 14 25 26
f 14 26 27
f 15 29 28
f 16 30 29
f 16 29 31
f 16 31 32
f 16 32 33
f 16 33 34
f 16 34 20
f 20 34 35
f 20 35 21
f 21 35 23
f 21 23 22
f 23 36 24
f 23 35 37
f 23 37 36
f 24 36 38
f 24 38 25
f 25 38 39
f 25 39 26
f 26 39 27
f 28 29 40
f 29 30 41
f 29 41 40
f 29 42 43
f 29 43 44
f 29 44 31
f 31 44 45
f 31 45 32
f 32 45 35
f 32 35 34
f 32 34 33
f 35 45 37
f 36 37 46
f 36 46 38
f 37 45 46
f 38 46 47
f 38 47 39
f 39 47 48
f 42 49 43
f 43 49 44
f 44 49 46
f 44 46 45
f 46 49 47
f 47 49 48

