# https://github.com/mikedh/trimesh
v 26.26746458 -47.79471201 25.64383340
v 26.26746458 -52.91672391 25.64383340
v 26.26746458 16.57004529 25.64327875
v 23.37588483 16.57004529 25.62885440
v 26.26746458 -53.30582682 25.64327875
v 23.37588483 -53.30582682 25.62885440
v 26.26746458 16.57004529 19.99628419
v 23.37588483 16.57004529 20.36908895
v 23.37588483 -54.45898829 25.61387588
v 26.26746458 -54.11233096 25.63273841
v 26.26746458 15.82013780 19.97908658
v 23.37588483 -22.19171658 19.97631283
v 23.37588483 -55.07447779 25.59002099
v 26.26746458 -54.91883510 25.60388973
v 26.26746458 -54.47313554 25.62108782
v 26.26746458 15.32491522 19.97853145
v 24.14349928 -20.81924214 19.97631283
v 23.37588483 -55.70411836 19.97631283
v 26.26746458 14.53963196 19.97797727
v 26.26746458 -3.88263896 19.97686796
v 23.37588483 -55.10277611 25.58891121
v 26.26746458 -55.11692718 25.58891121
v 25.44267355 -19.74390297 19.97631283
v 26.26746458 -55.70411836 19.97631283
v 23.37588483 -55.70411836 23.67828645
v 26.26746458 -19.07888949 19.97631283
v 23.37588483 -55.44943345 24.97811027
v 26.26746458 -55.36453847 25.14398664
v 26.26746458 -55.70411836 23.67828645
v 23.37588483 -55.46358070 24.94870789
v 26.26746458 -55.46358070 24.94870789
f 1 2 5
f 1 5 10
f 1 10 15
f 1 15 14
f 1 14 22
f 1 22 28
f 1 28 31
f 1 31 29
f 1 29 24
f 1 24 26
f 1 26 20
f 1 20 19
f 1 19 16
f 1 16 11
f 1 11 7
f 1 7 3
f 1 3 4
f 1 4 6
f 1 6 2
f 2 6 5
f 3 7 8
f 3 8 4
f 4 8 12
f 4 12 18
f 4 18 25
f 4 25 30
f 4 30 27
f 4 27 21
f 4 21 13
f 4 13 9
f 4 9 6
f 5 6 9
f 5 9 10
f 7 11 8
f 8 11 12
f 9 13 14
f 9 14 15
f 9 15 10
f 11 16 12
f 12 17 23
f 12 23 26
f 12 26 24
f 12 24 18
f 12 16 19
f 12 19 20
f 12 20 17
f 13 21 14
f 14 21 22
f 17 20 23
f 18 24 29
f 18 29 25
f 20 26 23
f 21 27 22
f 22 27 28
f 25 29 31
f 25 31 30
f 27 31 28
f 27 30 31

