# https://github.com/mikedh/trimesh
v 94.98913363 7.83458503 34.41389110
v 94.98913363 7.83458503 38.22332643
v 94.98913363 13.25864920 34.41389110
v 129.63535887 7.83458503 34.41389110
v 94.98913363 13.25864920 37.78343286
v 96.14242482 7.83458503 38.57880958
v 100.65043520 8.71541185 41.00954672
v 100.65043520 8.99309178 41.00954672
v 100.12806272 13.25864920 40.61563267
v 129.63535887 13.25864920 34.41389110
v 129.63874688 10.20894013 34.41389110
v 129.63535887 7.83458503 35.20034638
v 98.53719863 7.83458503 39.11272059
v 103.97123608 8.57099673 41.20444441
v 103.97123608 9.42262100 41.42473410
v 102.69243952 11.98280570 41.39522536
v 100.19590315 13.25864920 40.63827858
v 101.42381844 13.25864920 41.02189886
v 129.63535887 13.25864920 35.20034638
v 129.63874688 11.98280570 35.20034638
v 129.63874688 10.70218159 34.41389110
v 129.62178391 7.83458503 35.50847744
v 98.96120420 7.83458503 39.14771959
v 101.41025112 7.83458503 39.21222829
v 103.97123608 7.83458503 39.24379635
v 107.92973933 7.83458503 39.26987415
v 127.01331331 7.83458503 38.21714989
v 107.26150667 8.73027830 40.99856619
v 100.00594917 7.83458503 39.18340535
v 107.29882063 9.42262100 41.02876169
v 106.53222105 11.98280570 41.19689482
v 106.53222105 13.25864920 41.21405237
v 103.98819524 13.25864920 41.32042195
v 102.71957416 13.25864920 41.31356007
v 102.64834190 13.25864920 41.29983441
v 129.41826643 13.25864920 36.48090969
v 129.47931938 7.83458503 36.48090969
v 127.99360968 7.83458503 38.10254444
v 128.17338817 7.83458503 38.07577988
v 128.29210988 13.25864920 37.59951474
v 129.06549312 13.25864920 37.26873730
v 129.13333737 7.83458503 37.46912526
v 129.40130346 7.83458503 36.80413849
v 128.87553914 7.83458503 37.70039548
f 1 2 5
f 1 5 3
f 1 3 10
f 1 10 21
f 1 21 11
f 1 11 4
f 1 4 12
f 1 12 22
f 1 22 37
f 1 37 43
f 1 43 42
f 1 42 44
f 1 44 39
f 1 39 38
f 1 38 27
f 1 27 26
f 1 26 25
f 1 25 24
f 1 24 29
f 1 29 23
f 1 23 13
f 1 13 6
f 1 6 2
f 2 6 7
f 2 7 8
f 2 8 9
f 2 9 5
f 3 5 9
f 3 9 17
f 3 17 18
f 3 18 35
f 3 35 34
f 3 34 33
f 3 33 32
f 3 32 40
f 3 40 41
f 3 41 36
f 3 36 19
f 3 19 10
f 4 11 12
f 6 13 7
f 7 13 14
f 7 14 15
f 7 15 16
f 7 16 8
f 8 17 9
f 8 16 18
f 8 18 17
f 10 19 20
f 10 20 21
f 11 21 20
f 11 20 12
f 12 20 22
f 13 23 14
f 14 24 25
f 14 25 26
f 14 26 27
f 14 27 28
f 14 28 15
f 14 23 29
f 14 29 24
f 15 28 30
f 15 30 31
f 15 31 32
f 15 32 33
f 15 33 16
f 16 33 34
f 16 34 35
f 16 35 18
f 19 36 37
f 19 37 22
f 19 22 20
f 27 38 28
f 28 38 30
f 30 38 31
f 31 38 32
f 32 38 39
f 32 39 40
f 36 41 42
f 36 42 43
f 36 43 37
f 39 44 41
f 39 41 40
f 41 44 42

