v 36.471902 14.999706 -8.932535
v 37.406140 12.433711 -8.932535
v 34.264843 14.999706 -8.932535
v 35.687421 14.999706 -7.250000
v 37.406140 12.001349 -8.595204
v 37.406140 12.001349 -8.932535
v 35.081303 12.756589 -8.932535
v 36.140396 12.001349 -7.250000
v 35.049321 14.999706 -7.250000
v 36.779110 12.001349 -7.251153
v 35.356226 12.001349 -8.932535
f 1 2 6
f 1 6 11
f 1 11 7
f 1 7 3
f 1 3 9
f 1 9 4
f 1 4 2
f 2 5 6
f 2 4 5
f 3 7 8
f 3 8 9
f 4 9 8
f 4 8 10
f 4 10 5
f 5 10 8
f 5 8 11
f 5 11 6
f 7 11 8
