# https://github.com/mikedh/trimesh
v 94.98913363 3.37088592 34.41389110
v 94.98913363 3.37088592 36.48094164
v 94.98913363 7.83414817 34.41389110
v 105.74511788 3.37088592 34.41389110
v 94.98913363 3.37132278 37.76043403
v 102.69233269 3.37088592 36.48094164
v 94.98913363 7.83414817 38.22390875
v 129.63825852 7.83414817 34.41389110
v 127.01286310 3.37132278 34.41389110
v 127.01286310 3.37132278 37.76043403
v 102.69233269 3.39098414 39.04050683
v 94.98913363 3.39098414 39.01727527
v 94.98913363 6.21487797 39.67415445
v 96.14240765 7.83414817 38.57877477
v 129.63825852 7.83414817 35.20086885
v 129.63487051 6.36780415 34.41389110
v 128.23736748 3.51638364 34.41389110
v 128.23736748 3.51638364 35.20086885
v 128.22719199 3.51638364 37.76043403
v 128.15596354 3.52643323 39.04050683
v 127.01286310 3.39098414 39.04050683
v 97.57043524 3.53648281 39.87046382
v 94.98913363 3.39142100 39.04050683
v 116.77246005 3.53604596 39.87162511
v 94.98913363 6.20351687 39.68286677
v 98.53714903 7.83414817 39.11252553
v 129.63147486 5.58219945 36.48094164
v 129.62130318 7.83414817 35.50810950
v 129.57042190 5.58219945 37.76043403
v 129.63147486 5.58219945 34.41389110
v 128.63083895 3.61993654 34.41389110
v 128.87845405 3.68547633 34.41389110
v 128.86827856 3.69028270 37.76043403
v 127.93887492 3.57799173 39.80773784
v 128.79365447 3.75101707 39.04050683
v 127.01286310 3.53648281 39.87162511
v 125.73408561 3.53604596 39.87162511
v 94.98913363 3.53691967 39.87046382
v 101.41015955 3.53648281 39.87104423
v 127.01286310 4.30198834 40.34729650
v 105.25327950 4.30198834 40.34671561
v 94.98913363 5.57520880 40.15621509
v 98.96114697 7.83414817 39.14795423
v 129.28210483 4.33038873 37.76043403
v 129.28210483 4.32558236 34.41389110
v 129.47883865 7.83414817 36.48094164
v 129.07857971 4.61483133 39.86988294
v 129.21765622 4.39112215 39.04050683
v 129.25157453 5.60448290 39.06431928
v 129.07857971 5.19376708 39.86988294
v 129.03448972 3.93234363 34.41389110
v 128.33573440 4.23338961 40.06096435
v 96.29165584 4.30198834 40.34613473
v 94.98913363 4.30198834 40.34555384
v 128.29164060 5.44762407 40.06038346
v 127.01286310 5.57520880 40.15621509
v 106.53205699 5.58219945 40.17654318
v 103.97111018 5.58219945 40.17886576
v 100.00588050 7.83414817 39.18338246
v 94.98913363 5.55205164 40.15969944
v 101.41015955 5.58219945 40.17654318
v 107.92955620 7.83414817 39.26992089
v 103.97111018 7.83414817 39.24378538
v 101.41015955 7.83414817 39.21242239
v 129.40082272 7.83414817 36.80386426
v 129.13624465 7.83414817 37.46887488
v 128.87506222 7.83414817 37.69945023
v 128.29164060 6.08729324 39.54696079
v 127.01286310 6.21487797 39.67415445
v 127.01286310 7.83414817 38.21751997
v 128.17292270 7.83414817 38.07580563
v 127.99314803 7.83414817 38.10252250
f 1 2 5
f 1 5 12
f 1 12 23
f 1 23 38
f 1 38 54
f 1 54 60
f 1 60 42
f 1 42 25
f 1 25 13
f 1 13 7
f 1 7 3
f 1 3 8
f 1 8 16
f 1 16 30
f 1 30 45
f 1 45 51
f 1 51 32
f 1 32 31
f 1 31 17
f 1 17 9
f 1 9 4
f 1 4 6
f 1 6 2
f 2 6 10
f 2 10 5
f 3 7 14
f 3 14 26
f 3 26 43
f 3 43 59
f 3 59 64
f 3 64 63
f 3 63 62
f 3 62 70
f 3 70 72
f 3 72 71
f 3 71 67
f 3 67 66
f 3 66 65
f 3 65 46
f 3 46 28
f 3 28 15
f 3 15 8
f 4 9 10
f 4 10 6
f 5 11 12
f 5 10 21
f 5 21 11
f 7 13 14
f 8 15 16
f 9 17 18
f 9 18 10
f 10 18 19
f 10 19 20
f 10 20 21
f 11 22 23
f 11 23 12
f 11 21 37
f 11 37 24
f 11 24 22
f 13 25 26
f 13 26 14
f 15 27 16
f 15 28 29
f 15 29 27
f 16 27 30
f 17 31 18
f 18 31 32
f 18 32 19
f 19 32 33
f 19 33 20
f 20 34 21
f 20 33 35
f 20 35 34
f 21 34 36
f 21 36 37
f 22 38 23
f 22 24 39
f 22 39 38
f 24 37 40
f 24 40 41
f 24 41 39
f 25 42 26
f 26 42 43
f 27 29 44
f 27 44 45
f 27 45 30
f 28 46 29
f 29 47 48
f 29 48 44
f 29 46 49
f 29 49 50
f 29 50 47
f 32 51 44
f 32 44 33
f 33 44 48
f 33 48 35
f 34 40 36
f 34 35 47
f 34 47 52
f 34 52 40
f 35 48 47
f 36 40 37
f 38 53 54
f 38 39 53
f 39 41 53
f 40 52 55
f 40 55 56
f 40 56 57
f 40 57 58
f 40 58 41
f 41 58 53
f 42 59 43
f 42 60 61
f 42 61 62
f 42 62 63
f 42 63 64
f 42 64 59
f 44 51 45
f 46 65 49
f 47 50 52
f 49 65 50
f 50 65 66
f 50 66 67
f 50 67 68
f 50 68 55
f 50 55 52
f 53 58 54
f 54 58 61
f 54 61 60
f 55 68 69
f 55 69 56
f 56 69 62
f 56 62 57
f 57 62 58
f 58 62 61
f 62 69 70
f 67 71 68
f 68 71 69
f 69 71 72
f 69 72 70

