# https://github.com/mikedh/trimesh
v 49.64540795 13.26493630 14.71622200
v 49.64540795 13.26493630 14.70776803
v 49.61799404 13.26493630 15.47808289
v 72.94703727 9.66637099 14.71622200
v 49.62142102 13.26493630 14.02300652
v 49.10741436 13.26493630 16.12362009
v 72.94703727 9.31306043 15.99579686
v 72.94703727 9.20331322 13.72373999
v 48.94978481 13.26493630 13.61620687
v 48.47347301 13.26493630 16.66567952
v 72.94703727 8.84904055 16.66973774
v 72.94703727 8.13760696 13.37138391
v 47.66819611 13.26493630 13.25607287
v 47.66819611 13.26493630 16.70355364
v 48.46661905 13.25530948 16.66973774
v 72.94703727 8.67479197 16.67819171
v 72.94703727 5.57779360 13.37138391
v 46.39003247 13.26493630 13.24931045
v 47.65448820 13.26493630 13.25573532
v 37.94319149 13.26493630 16.70355364
v 72.94703727 8.13760696 16.70355364
v 72.94703727 4.61124467 13.55804455
v 37.94319149 5.57779360 13.37138391
v 37.94319149 13.26493630 13.25066255
v 37.94319149 5.57779360 16.70355364
v 72.94703727 5.57779360 16.70355364
v 72.94703727 4.29836749 13.61857448
v 52.78770079 4.29836749 13.61857448
v 37.94319149 5.06371257 13.47080060
v 37.94319149 4.80474688 16.66973774
v 72.94703727 5.38910480 16.69543721
v 72.94703727 3.57441886 13.97126907
v 47.66819611 3.57441886 13.97126907
v 41.27052779 4.29836749 13.61891203
v 37.94319149 4.29836749 13.61925053
v 37.94319149 4.42159376 16.46819825
v 64.30144777 4.80378477 16.66973774
v 72.94703727 4.80378477 16.66973774
v 72.94703727 3.46659683 14.53429562
v 61.74169447 3.43097780 14.71622200
v 37.94319149 3.43193991 14.71622200
v 46.39003247 3.57441886 13.97160662
v 37.94319149 3.57538192 13.97160662
v 60.46353179 3.43097780 14.71622200
v 37.94319149 4.00763313 13.76093710
v 37.94319149 4.16455325 16.33259900
v 52.78770079 4.16455325 16.33293655
v 69.42095245 4.16455325 16.33327410
v 72.94703727 4.16455325 16.33327410
v 72.94703727 3.43193991 14.71622200
v 72.94703727 3.51473185 15.69314912
v 37.94319149 3.51473185 15.69247307
v 37.94319149 3.51762008 14.27121165
v 59.18536911 3.51473185 15.69314912
v 42.54869142 3.51473185 15.69281062
f 1 2 5
f 1 5 9
f 1 9 13
f 1 13 19
f 1 19 18
f 1 18 24
f 1 24 20
f 1 20 14
f 1 14 10
f 1 10 6
f 1 6 3
f 1 3 4
f 1 4 2
f 2 4 5
f 3 6 4
f 4 7 11
f 4 11 16
f 4 16 21
f 4 21 26
f 4 26 31
f 4 31 38
f 4 38 49
f 4 49 51
f 4 51 50
f 4 50 39
f 4 39 32
f 4 32 27
f 4 27 22
f 4 22 17
f 4 17 12
f 4 12 8
f 4 8 9
f 4 9 5
f 4 6 10
f 4 10 7
f 7 10 11
f 8 12 13
f 8 13 9
f 10 14 15
f 10 15 11
f 11 15 14
f 11 14 16
f 12 17 18
f 12 18 19
f 12 19 13
f 14 20 25
f 14 25 26
f 14 26 21
f 14 21 16
f 17 22 23
f 17 23 18
f 18 23 24
f 20 24 23
f 20 23 29
f 20 29 35
f 20 35 45
f 20 45 43
f 20 43 53
f 20 53 41
f 20 41 52
f 20 52 46
f 20 46 36
f 20 36 30
f 20 30 25
f 22 27 28
f 22 28 23
f 23 28 29
f 25 30 31
f 25 31 26
f 27 32 33
f 27 33 28
f 28 33 34
f 28 34 29
f 29 34 35
f 30 36 37
f 30 37 31
f 31 37 38
f 32 39 40
f 32 40 44
f 32 44 33
f 33 41 42
f 33 42 43
f 33 43 34
f 33 44 41
f 34 43 45
f 34 45 35
f 36 46 47
f 36 47 48
f 36 48 37
f 37 48 49
f 37 49 38
f 39 50 40
f 40 50 51
f 40 51 54
f 40 54 44
f 41 44 52
f 41 53 42
f 42 53 43
f 44 54 55
f 44 55 52
f 46 52 55
f 46 55 47
f 47 55 48
f 48 55 54
f 48 54 51
f 48 51 49

