v 128.934662 15.000000 22.499951
v 128.934662 7.932238 22.499951
v 128.934662 15.000000 20.075147
v 127.577921 15.000000 23.066813
v 128.665174 11.999522 23.066813
v 128.934662 7.932238 18.075489
v 127.577921 9.000427 23.066813
v 34.000000 7.932238 22.499951
v 128.934662 14.997232 19.976923
v 34.000000 15.000000 20.075147
v 34.269488 15.000000 23.066813
v 128.934662 12.999911 18.075489
v 34.000000 7.932238 18.075489
v 34.269488 9.000427 23.066813
v 34.000000 15.000000 22.499951
v 128.934662 14.990315 19.879188
v 34.000000 14.997232 19.976923
v 128.934662 13.097460 18.077444
v 34.000000 12.999911 18.075489
v 128.934662 14.977861 19.781941
v 34.000000 14.990315 19.879188
v 128.934662 13.195700 18.084775
v 34.000000 13.097460 18.077444
v 128.934662 14.961257 19.685184
v 34.000000 14.977861 19.781941
v 128.934662 13.293249 18.096992
v 34.000000 13.195700 18.084775
v 128.934662 14.939811 19.589404
v 34.000000 14.961257 19.685184
v 128.934662 13.390105 18.113606
v 34.000000 13.293249 18.096992
v 128.934662 14.913521 19.494602
v 34.000000 14.939811 19.589404
v 128.934662 13.485578 18.135108
v 34.000000 13.390105 18.113606
v 128.934662 14.883080 19.401264
v 34.000000 14.913521 19.494602
v 128.934662 13.580359 18.161496
v 34.000000 13.485578 18.135108
v 128.934662 14.847105 19.309883
v 34.000000 14.883080 19.401264
v 128.934662 13.673757 18.192283
v 34.000000 13.580359 18.161496
v 128.934662 14.807671 19.219966
v 34.000000 14.847105 19.309883
v 128.934662 13.765079 18.227468
v 34.000000 13.673757 18.192283
v 128.934662 14.763393 19.132493
v 34.000000 14.807671 19.219966
v 128.934662 13.855017 18.267051
v 34.000000 13.765079 18.227468
v 128.934662 14.714965 19.046975
v 34.000000 14.763393 19.132493
v 128.934662 13.942188 18.311520
v 34.000000 13.855017 18.267051
v 128.934662 14.662385 18.963901
v 34.000000 14.714965 19.046975
v 128.934662 14.027975 18.359899
v 34.000000 13.942188 18.311520
v 128.934662 14.606347 18.883757
v 34.000000 14.662385 18.963901
v 128.934662 14.110995 18.412187
v 34.000000 14.027975 18.359899
v 128.934662 14.545466 18.806546
v 34.000000 14.606347 18.883757
v 128.934662 14.191247 18.468873
v 34.000000 14.110995 18.412187
v 128.934662 14.481817 18.732268
v 34.000000 14.545466 18.806546
v 128.934662 14.268732 18.528981
v 34.000000 14.191247 18.468873
v 128.934662 14.414018 18.660922
v 34.000000 14.481817 18.732268
v 128.934662 14.342759 18.593485
v 34.000000 14.268732 18.528981
v 34.000000 14.414018 18.660922
v 34.000000 14.342759 18.593485
f 1 2 6
f 1 6 12
f 1 12 18
f 1 18 22
f 1 22 26
f 1 26 30
f 1 30 34
f 1 34 38
f 1 38 42
f 1 42 46
f 1 46 50
f 1 50 54
f 1 54 58
f 1 58 62
f 1 62 66
f 1 66 70
f 1 70 74
f 1 74 72
f 1 72 68
f 1 68 64
f 1 64 60
f 1 60 56
f 1 56 52
f 1 52 48
f 1 48 44
f 1 44 40
f 1 40 36
f 1 36 32
f 1 32 28
f 1 28 24
f 1 24 20
f 1 20 16
f 1 16 9
f 1 9 3
f 1 3 10
f 1 10 15
f 1 15 11
f 1 11 4
f 1 4 5
f 1 5 2
f 2 5 7
f 2 7 14
f 2 14 8
f 2 8 13
f 2 13 6
f 3 9 17
f 3 17 10
f 4 11 14
f 4 14 7
f 4 7 5
f 6 13 19
f 6 19 12
f 8 14 11
f 8 11 15
f 8 15 10
f 8 10 17
f 8 17 21
f 8 21 25
f 8 25 29
f 8 29 33
f 8 33 37
f 8 37 41
f 8 41 45
f 8 45 49
f 8 49 53
f 8 53 57
f 8 57 61
f 8 61 65
f 8 65 69
f 8 69 73
f 8 73 76
f 8 76 77
f 8 77 75
f 8 75 71
f 8 71 67
f 8 67 63
f 8 63 59
f 8 59 55
f 8 55 51
f 8 51 47
f 8 47 43
f 8 43 39
f 8 39 35
f 8 35 31
f 8 31 27
f 8 27 23
f 8 23 19
f 8 19 13
f 9 16 21
f 9 21 17
f 12 19 23
f 12 23 18
f 16 20 25
f 16 25 21
f 18 23 27
f 18 27 22
f 20 24 29
f 20 29 25
f 22 27 31
f 22 31 26
f 24 28 33
f 24 33 29
f 26 31 35
f 26 35 30
f 28 32 37
f 28 37 33
f 30 35 39
f 30 39 34
f 32 36 41
f 32 41 37
f 34 39 43
f 34 43 38
f 36 40 45
f 36 45 41
f 38 43 47
f 38 47 42
f 40 44 49
f 40 49 45
f 42 47 51
f 42 51 46
f 44 48 53
f 44 53 49
f 46 51 55
f 46 55 50
f 48 52 57
f 48 57 53
f 50 55 59
f 50 59 54
f 52 56 61
f 52 61 57
f 54 59 63
f 54 63 58
f 56 60 65
f 56 65 61
f 58 63 67
f 58 67 62
f 60 64 69
f 60 69 65
f 62 67 71
f 62 71 66
f 64 68 73
f 64 73 69
f 66 71 75
f 66 75 70
f 68 72 76
f 68 76 73
f 70 75 77
f 70 77 74
f 72 74 77
f 72 77 76
