v 100.229454 11.542945 -8.932370
v 100.238049 9.000000 -8.932370
v 100.229454 11.999853 -8.575804
v 100.229454 11.999853 -8.932370
v 101.022864 9.000000 -7.250000
v 103.606738 9.000000 -8.932370
v 101.023195 14.999706 -7.250000
v 100.404334 14.999706 -8.575804
v 100.404334 14.999706 -8.932370
v 101.661229 9.000000 -7.250000
v 103.606738 9.624872 -8.932370
v 103.606738 9.000000 -8.445364
v 101.661229 14.999706 -7.250000
v 102.445052 14.999706 -8.932370
v 102.752499 11.999853 -7.250000
v 103.537314 11.999853 -8.932370
v 103.375326 12.001028 -8.586014
v 103.375326 12.445015 -8.932370
f 1 2 3
f 1 3 4
f 1 4 9
f 1 9 14
f 1 14 18
f 1 18 16
f 1 16 11
f 1 11 6
f 1 6 2
f 2 5 3
f 2 6 12
f 2 12 10
f 2 10 5
f 3 5 7
f 3 7 8
f 3 8 9
f 3 9 4
f 5 10 15
f 5 15 13
f 5 13 7
f 6 11 12
f 7 13 14
f 7 14 9
f 7 9 8
f 10 12 15
f 11 16 12
f 12 16 15
f 13 17 16
f 13 16 18
f 13 18 14
f 13 15 17
f 15 16 17
