# https://github.com/mikedh/trimesh
v 129.51075010 13.89425886 46.72231809
v 129.34564538 13.89425886 46.12365134
v 129.41509207 13.89425886 47.35045160
v 129.28144096 6.86238479 47.96133599
v 129.46096000 6.86238479 46.72231809
v 129.16219654 13.89425886 45.67518948
v 129.28405828 13.89425886 47.96205518
v 129.28405828 9.42147831 47.96169559
v 129.28405828 8.14295645 47.96133599
v 129.20543953 5.58283756 47.86179777
v 128.65378055 6.86238479 48.60132852
v 129.33123105 5.58283756 46.72231809
v 129.05999141 5.58283756 45.94936980
v 129.11240645 6.86238479 45.90049824
v 128.56860706 13.89425886 45.34495239
v 128.65640168 13.89425886 48.60204580
v 128.65640168 11.98262257 48.60204580
v 128.65509302 8.14295645 48.60168716
v 128.54502067 5.58283756 48.50179030
v 129.06523368 4.75097862 47.62894324
v 128.01433076 6.86238479 48.67319603
v 127.90557088 5.58283756 48.67247875
v 127.74963822 4.88313317 48.66241581
v 129.06916347 4.73253817 46.72231809
v 128.98267750 4.85342413 46.02590919
v 128.29343380 5.58283756 45.59649347
v 128.29343380 13.89425886 45.21019865
v 128.01564323 13.89425886 48.67319603
v 128.01564323 10.70204996 48.67319603
v 128.18860753 4.39036957 47.98900574
v 127.77453708 3.60461131 47.49562692
v 128.42447141 4.09225282 46.72231809
v 127.01322556 6.86238479 48.70374159
v 127.01322556 5.58283756 48.70338104
v 127.01322556 4.83703250 48.67247875
v 125.73301350 4.18035648 48.33864666
v 127.01322556 4.19674715 48.27073183
v 127.70639905 3.63944243 46.05286070
v 128.19777959 4.37705216 45.88971802
v 127.01322556 4.30226591 45.65075419
v 127.01322556 5.58283756 45.37369997
v 127.01322556 13.89425886 45.04490031
v 127.01322556 13.89425886 48.70374159
v 127.78370914 3.60256247 46.72231809
v 127.01322556 3.54621668 47.63038067
v 127.01322556 3.48577323 46.72231809
v 120.61347775 13.89425886 48.70410023
v 125.73301350 5.58283756 48.70374159
v 125.73301350 4.82064183 48.67319603
v 125.73301350 3.51650764 47.69865605
v 116.12421973 4.49588833 48.50394596
v 116.77284158 4.18035648 48.33900721
v 127.01322556 3.60153806 46.00470834
v 125.73301350 3.57387689 45.97164848
v 125.73301350 4.30226591 45.61625785
v 125.73301350 5.58283756 45.37118471
v 125.73301350 13.89425886 45.03735453
v 125.73301350 3.42942839 46.72231809
v 119.33326569 13.89425886 48.68218114
v 116.12421973 8.14295645 48.70374159
v 116.12421973 5.58283756 48.70374159
v 116.12421973 5.19661714 48.68828949
v 116.12421973 4.82064183 48.67319603
v 116.12421973 3.51650764 47.69865605
v 116.12421973 3.42840397 46.72231809
v 116.12421973 4.18035648 48.33900721
v 124.45280145 4.30226591 45.61589826
v 119.33326569 3.57387689 45.97128984
v 116.12421973 4.95074755 45.49192474
v 116.12421973 5.58283756 45.37118471
v 120.61347775 13.89425886 45.03304225
v 118.68202271 13.89425886 48.65127695
v 116.12421973 8.49127154 48.68864813
v 116.12421973 3.57387689 45.97128984
v 116.12421973 3.94268223 45.79125763
v 116.12421973 4.30226591 45.61589826
v 116.12421973 7.51086643 45.37118471
v 119.33326569 13.89425886 45.09628712
v 119.62940420 13.89425886 45.07544491
v 118.44877996 13.89425886 48.00230122
v 116.12421973 8.84778292 48.67319603
v 116.12421973 8.14295645 45.37190390
v 118.22995155 13.89425886 45.62021054
v 118.14477806 13.89425886 46.72231809
v 116.12421973 9.30878864 48.00230122
v 116.12421973 9.20736660 45.72729453
v 116.12421973 9.66837327 46.72231809
f 1 2 6
f 1 6 15
f 1 15 27
f 1 27 42
f 1 42 57
f 1 57 71
f 1 71 79
f 1 79 78
f 1 78 83
f 1 83 84
f 1 84 80
f 1 80 72
f 1 72 59
f 1 59 47
f 1 47 43
f 1 43 28
f 1 28 16
f 1 16 7
f 1 7 3
f 1 3 4
f 1 4 5
f 1 5 2
f 2 5 6
f 3 7 8
f 3 8 9
f 3 9 4
f 4 10 5
f 4 9 11
f 4 11 10
f 5 10 12
f 5 12 13
f 5 13 14
f 5 14 6
f 6 14 15
f 7 16 17
f 7 17 8
f 8 17 9
f 9 17 18
f 9 18 11
f 10 11 19
f 10 19 20
f 10 20 12
f 11 18 21
f 11 21 22
f 11 22 23
f 11 23 19
f 12 20 24
f 12 24 25
f 12 25 13
f 13 25 26
f 13 26 14
f 14 26 27
f 14 27 15
f 16 28 29
f 16 29 17
f 17 29 21
f 17 21 18
f 19 23 20
f 20 23 30
f 20 30 31
f 20 31 32
f 20 32 24
f 21 29 33
f 21 33 34
f 21 34 22
f 22 34 23
f 23 31 30
f 23 34 35
f 23 35 36
f 23 36 37
f 23 37 31
f 24 32 25
f 25 32 38
f 25 38 39
f 25 39 26
f 26 39 40
f 26 40 41
f 26 41 27
f 27 41 42
f 28 43 33
f 28 33 29
f 31 44 32
f 31 37 45
f 31 45 46
f 31 46 44
f 32 44 38
f 33 43 47
f 33 47 48
f 33 48 34
f 34 48 49
f 34 49 35
f 35 49 36
f 36 50 37
f 36 49 51
f 36 51 52
f 36 52 50
f 37 50 45
f 38 44 46
f 38 46 53
f 38 53 40
f 38 40 39
f 40 53 54
f 40 54 55
f 40 55 41
f 41 55 56
f 41 56 57
f 41 57 42
f 45 50 58
f 45 58 46
f 46 58 53
f 47 59 60
f 47 60 61
f 47 61 48
f 48 61 62
f 48 62 49
f 49 62 63
f 49 63 51
f 50 52 66
f 50 66 64
f 50 64 65
f 50 65 58
f 51 63 62
f 51 62 61
f 51 61 60
f 51 60 73
f 51 73 81
f 51 81 85
f 51 85 87
f 51 87 86
f 51 86 82
f 51 82 77
f 51 77 70
f 51 70 69
f 51 69 76
f 51 76 75
f 51 75 74
f 51 74 65
f 51 65 64
f 51 64 66
f 51 66 52
f 53 58 54
f 54 67 55
f 54 58 65
f 54 65 68
f 54 68 67
f 55 67 56
f 56 67 69
f 56 69 70
f 56 70 71
f 56 71 57
f 59 72 60
f 60 72 73
f 65 74 68
f 67 68 75
f 67 75 76
f 67 76 69
f 68 74 75
f 70 77 78
f 70 78 79
f 70 79 71
f 72 80 81
f 72 81 73
f 77 82 78
f 78 82 83
f 80 84 85
f 80 85 81
f 82 86 83
f 83 86 87
f 83 87 84
f 84 87 85

