v 127.576908 14.999706 23.067302
v 126.791272 14.999706 24.750000
v 128.670125 11.999853 23.067302
v 90.815148 14.999706 23.067302
v 127.884492 11.999853 24.750000
v 91.600782 14.999706 24.750000
v 127.576908 9.000000 23.067302
v 90.811442 12.438555 23.067302
v 90.811442 12.000441 23.409244
v 126.791272 9.000000 24.750000
v 91.600782 9.000000 24.750000
v 90.981910 9.000000 23.067302
v 90.811442 12.000441 23.067302
v 90.981910 9.000000 23.419291
f 1 2 5
f 1 5 3
f 1 3 7
f 1 7 12
f 1 12 13
f 1 13 8
f 1 8 4
f 1 4 6
f 1 6 2
f 2 6 11
f 2 11 10
f 2 10 5
f 3 5 10
f 3 10 7
f 4 8 9
f 4 9 6
f 6 9 11
f 7 10 11
f 7 11 14
f 7 14 12
f 8 13 9
f 9 13 12
f 9 12 14
f 9 14 11
