# https://github.com/mikedh/trimesh
v 100.60029934 9.41420109 -9.03652024
v 100.60029934 9.43339084 -9.03652024
v 100.61694412 9.23326447 -9.03652024
v 72.95046425 4.29772958 -8.34288521
v 100.63914224 10.71639172 -9.03652024
v 103.13611433 8.63836817 -9.03652024
v 100.65578702 8.71056069 -9.00651559
v 72.95046425 3.53560457 -7.86457624
v 72.95046425 5.57342072 -8.15579738
v 100.65023749 10.92565669 -9.03652024
v 103.24154396 8.61826495 -9.03652024
v 103.96844090 8.52962407 -9.03652024
v 121.49165320 4.29955749 -8.34288521
v 121.48610748 3.53560457 -7.86457624
v 72.95046425 3.39213491 -7.03856774
v 72.95046425 10.92565669 -5.62835198
v 105.86059046 10.92565669 -9.03652024
v 121.49165320 12.60160150 -5.70071614
v 104.80076366 8.63105843 -9.03652024
v 127.01274555 4.29955749 -8.34112023
v 124.45472862 3.53651805 -7.86457624
v 121.48610748 3.39213491 -7.03856774
v 127.01274555 3.53651805 -7.86281126
v 127.01274555 3.39304838 -7.03856774
v 72.95046425 3.37660003 -6.07136088
v 72.95046425 10.92565669 0.82086940
v 121.49165320 12.70668978 0.82263438
v 107.27554525 9.02948324 -9.00651559
v 107.27554525 8.70964626 -9.00651559
v 105.81065232 10.75020380 -9.03652024
v 126.38572490 12.60160150 -5.70071614
v 127.01274555 12.60160150 -5.69895116
v 128.28897734 5.44091662 -8.05166359
v 127.01274555 5.57433420 -8.15403240
v 128.33891167 4.22827940 -8.04989861
v 127.93939888 3.57763988 -7.80103745
v 123.17295112 3.37203073 -5.75896046
v 128.16134958 3.52738039 -7.03856774
v 127.01274555 3.37294516 -5.75896046
v 72.95046425 3.37203073 -5.75896046
v 72.95046425 3.37203073 0.82086940
v 72.95601378 4.29864306 8.33790171
v 72.95601378 5.57616211 8.15434384
v 72.95601378 10.89093112 5.62689845
v 121.49165320 12.70668978 5.70985248
v 129.63178823 12.70668978 0.82263438
v 127.66195669 12.60160150 -5.61423214
v 128.28897734 12.60160150 -5.50656887
v 128.67184535 12.60160150 -5.37596039
v 129.07691148 5.18413356 -7.85751632
v 129.07691148 4.60751447 -7.85751632
v 128.79946547 3.74304163 -7.03856774
v 127.01274555 3.37294516 0.82086940
v 121.48610748 3.37203073 5.75397649
v 73.44985905 3.37111725 0.82086940
v 128.87160174 3.68547049 -5.75896046
v 128.23348585 3.51641387 -5.75896046
v 127.18475810 3.39304838 0.82086940
v 72.95601378 3.37111725 0.82086940
v 72.95601378 3.37203073 5.75397649
v 72.95601378 3.38756560 6.72118335
v 72.95601378 3.39304838 7.03534923
v 72.95601378 3.53651805 7.85959274
v 72.95601378 4.11222461 8.22141306
v 103.96844090 8.48850224 8.99447218
v 100.63914224 8.70416348 8.99447218
v 100.63359271 9.00480976 8.99447218
v 101.96531217 10.89093112 8.99447218
v 121.48610748 4.29864306 8.33790171
v 125.73096041 12.70668978 5.70985248
v 129.63178823 12.70668978 3.19829190
v 129.63734158 6.85916299 0.82086940
v 129.63178823 12.60160150 -3.19974543
v 129.51526716 12.60160150 -3.82454675
v 129.38763941 12.60160150 -4.47935271
v 129.21563067 12.60160150 -4.84646797
v 129.03806858 12.60160150 -5.21887769
v 129.24892022 5.59809420 -7.05798251
v 129.57630056 5.57890350 -5.75896046
v 129.21563067 4.38271463 -7.03856774
v 127.01274555 3.37385864 5.75574147
v 121.48610748 3.38665212 6.63293485
v 129.28221740 4.32514445 -5.75896046
v 129.28221740 4.32605793 -4.47935271
v 129.28221740 4.33245419 -0.64053052
v 129.28221740 4.34342071 5.75574147
v 128.83830837 3.70100536 4.47613420
v 128.86605221 3.68638493 -4.47935271
v 128.19464676 3.51550039 5.75574147
v 128.21129154 3.51550039 0.82263438
v 92.46571003 3.39304838 7.03534923
v 102.68665958 3.53651805 7.85959274
v 107.25889666 8.72335417 8.99447218
v 127.01274555 4.29955749 8.33613673
v 107.26999572 10.89093112 8.99447218
v 121.48610748 3.53743248 7.85782776
v 127.01274555 3.53926039 7.85782776
v 127.01274555 12.70668978 5.70808750
v 129.63178823 5.57981698 4.47613420
v 129.38763941 12.70668978 4.47613420
v 129.57075484 5.57981698 5.75574147
v 129.63178823 5.57890350 -0.64053052
v 129.63178823 5.57890350 -4.47935271
v 128.16690292 3.52829483 7.03534923
v 127.01274555 3.39579073 7.03534923
v 118.04582966 3.39396282 7.03534923
v 129.20453161 4.37174906 7.03534923
v 128.81056453 3.73207511 7.03534923
v 128.83276266 3.70374771 5.75574147
v 107.31993387 9.41602805 8.99447218
v 127.98378749 3.57946779 7.79781846
v 128.36110979 4.21183105 8.04491511
v 128.28897734 5.44548593 8.04668009
v 127.01274555 5.57707559 8.15434384
v 107.31993387 9.47451266 8.99447218
v 128.28897734 12.70668978 5.52452963
v 129.03806858 12.70668978 5.23154399
v 129.06581242 5.18961634 7.85076785
v 129.24337450 5.60174907 7.06535388
v 129.06581242 4.58101308 7.85076785
f 1 2 5
f 1 5 10
f 1 10 17
f 1 17 30
f 1 30 19
f 1 19 12
f 1 12 11
f 1 11 6
f 1 6 3
f 1 3 4
f 1 4 2
f 2 4 5
f 3 6 7
f 3 7 4
f 4 8 15
f 4 15 25
f 4 25 40
f 4 40 41
f 4 41 26
f 4 26 16
f 4 16 9
f 4 9 10
f 4 10 5
f 4 7 6
f 4 6 11
f 4 11 12
f 4 12 13
f 4 13 14
f 4 14 8
f 8 14 22
f 8 22 15
f 9 16 10
f 10 16 18
f 10 18 31
f 10 31 17
f 12 19 20
f 12 20 13
f 13 20 21
f 13 21 14
f 14 21 23
f 14 23 24
f 14 24 22
f 15 22 25
f 16 26 45
f 16 45 27
f 16 27 18
f 17 28 29
f 17 29 30
f 17 31 32
f 17 32 33
f 17 33 34
f 17 34 20
f 17 20 28
f 18 27 46
f 18 46 31
f 19 30 29
f 19 29 20
f 20 34 33
f 20 33 35
f 20 35 36
f 20 36 23
f 20 23 21
f 20 29 28
f 22 24 37
f 22 37 25
f 23 36 24
f 24 36 38
f 24 38 39
f 24 39 37
f 25 37 40
f 26 41 42
f 26 42 43
f 26 43 44
f 26 44 45
f 27 45 70
f 27 70 98
f 27 98 116
f 27 116 117
f 27 117 100
f 27 100 71
f 27 71 46
f 31 46 32
f 32 46 47
f 32 47 33
f 33 47 48
f 33 48 49
f 33 49 50
f 33 50 35
f 35 50 51
f 35 51 36
f 36 51 52
f 36 52 38
f 37 39 53
f 37 53 54
f 37 54 55
f 37 55 59
f 37 59 40
f 38 52 56
f 38 56 57
f 38 57 39
f 39 57 58
f 39 58 53
f 40 59 41
f 41 59 60
f 41 60 61
f 41 61 62
f 41 62 63
f 41 63 64
f 41 64 42
f 42 65 66
f 42 66 67
f 42 67 68
f 42 68 43
f 42 64 69
f 42 69 65
f 43 68 44
f 44 68 45
f 45 68 95
f 45 95 70
f 46 71 72
f 46 72 73
f 46 73 74
f 46 74 75
f 46 75 76
f 46 76 77
f 46 77 49
f 46 49 48
f 46 48 47
f 49 77 50
f 50 77 76
f 50 76 75
f 50 75 78
f 50 78 79
f 50 79 51
f 51 79 80
f 51 80 52
f 52 80 56
f 53 58 81
f 53 81 54
f 54 82 61
f 54 61 60
f 54 60 59
f 54 59 55
f 54 81 82
f 56 80 83
f 56 83 84
f 56 84 85
f 56 85 86
f 56 86 87
f 56 87 88
f 56 88 89
f 56 89 90
f 56 90 57
f 57 90 58
f 58 90 81
f 61 82 91
f 61 91 62
f 62 91 92
f 62 92 63
f 63 92 64
f 64 92 69
f 65 93 110
f 65 110 115
f 65 115 95
f 65 95 68
f 65 68 67
f 65 67 66
f 65 69 94
f 65 94 93
f 69 92 96
f 69 96 97
f 69 97 94
f 70 95 98
f 71 99 72
f 71 100 101
f 71 101 99
f 72 99 102
f 72 102 103
f 72 103 73
f 73 103 79
f 73 79 74
f 74 79 75
f 75 79 78
f 79 103 83
f 79 83 80
f 81 90 89
f 81 89 104
f 81 104 105
f 81 105 82
f 82 106 91
f 82 105 106
f 83 103 102
f 83 102 99
f 83 99 84
f 84 99 85
f 85 99 86
f 86 99 101
f 86 101 107
f 86 107 108
f 86 108 109
f 86 109 87
f 87 109 89
f 87 89 88
f 89 109 104
f 91 106 92
f 92 106 96
f 93 94 110
f 94 97 111
f 94 111 112
f 94 112 113
f 94 113 114
f 94 114 95
f 94 95 115
f 94 115 110
f 95 114 113
f 95 113 98
f 96 106 105
f 96 105 97
f 97 105 111
f 98 113 116
f 100 117 118
f 100 118 119
f 100 119 101
f 101 119 118
f 101 118 120
f 101 120 107
f 104 109 108
f 104 108 111
f 104 111 105
f 107 120 108
f 108 120 111
f 111 120 112
f 112 120 118
f 112 118 113
f 113 118 116
f 116 118 117

