v 34.009291 7.324881 38.029595
v 34.009291 7.295435 38.030367
v 34.009291 7.354327 38.030367
v 128.923096 7.324881 38.029595
v 34.009291 7.265989 38.032686
v 128.923096 7.295435 38.030367
v 34.009291 7.383773 38.032686
v 128.923096 7.354327 38.030367
v 34.009291 7.236840 38.036550
v 128.923096 7.265989 38.032686
v 34.009291 7.412922 38.036550
v 105.663916 7.420061 38.037323
v 128.923096 7.383773 38.032686
v 34.009291 7.207692 38.041188
v 128.923096 7.236840 38.036550
v 34.009291 7.441773 38.041188
v 128.923096 7.441773 38.041188
v 128.923096 7.412922 38.036550
v 105.663916 7.157722 38.053553
v 34.009291 7.150584 38.055872
v 128.923096 7.207692 38.041188
v 34.009291 7.498881 38.055872
v 105.663916 7.477466 38.049689
v 105.663916 7.448912 38.042733
v 128.923096 7.498881 38.055872
v 128.923096 7.150584 38.055872
v 105.663916 7.129466 38.062827
v 34.009291 7.122625 38.065146
v 34.009291 7.526840 38.065146
v 105.663916 7.506019 38.058190
v 128.923096 7.526840 38.065146
v 128.923096 7.122625 38.065146
v 105.663916 7.102102 38.072874
v 34.009291 7.095261 38.075965
v 34.009291 7.554501 38.075965
v 105.663916 7.561045 38.078284
v 128.923096 7.554501 38.075965
v 128.923096 7.095261 38.075965
v 105.663916 7.075035 38.084467
v 34.009291 7.068194 38.087558
v 34.009291 7.581271 38.087558
v 128.923096 7.581271 38.087558
v 128.923096 7.068194 38.087558
v 105.663916 7.022687 38.111516
v 34.009291 7.042020 38.101470
v 34.009291 7.607742 38.101470
v 105.663916 7.587814 38.090650
v 128.923096 7.607742 38.101470
v 128.923096 7.042020 38.101470
v 34.009291 6.991456 38.130837
v 34.009291 7.016441 38.116153
v 128.923096 7.016441 38.116153
v 128.923096 6.991456 38.130837
v 34.009291 7.633322 38.116153
v 128.923096 7.633322 38.116153
v 34.009291 6.967364 38.147840
v 128.923096 6.967364 38.147840
v 34.009291 7.658306 38.130837
v 128.923096 7.658306 38.130837
v 105.663916 6.949815 38.161751
v 34.009291 6.944164 38.166389
v 128.923096 6.944164 38.166389
v 34.009291 7.682399 38.147840
v 128.923096 7.682399 38.147840
v 34.009291 6.921856 38.185710
v 128.923096 6.921856 38.185710
v 34.009291 7.705599 38.166389
v 128.923096 7.705599 38.166389
v 34.009291 6.900441 38.205804
v 105.663916 6.916800 38.190347
v 128.923096 6.900441 38.205804
v 34.009291 7.727906 38.185710
v 128.923096 7.727906 38.185710
v 34.009291 4.893346 40.206704
v 128.923096 4.893346 40.206704
v 34.009291 7.749024 38.205804
v 105.663916 7.732963 38.190347
v 128.923096 7.749024 38.205804
v 34.009291 4.893346 45.924999
v 128.923096 4.893346 45.924999
v 34.009291 7.769547 38.226671
v 128.923096 7.769547 38.226671
v 34.009291 7.931947 45.924999
v 128.923096 7.931947 45.924999
v 34.009291 7.788583 38.249083
v 128.923096 7.788583 38.249083
v 34.009291 7.931947 42.999774
v 128.923096 7.931947 43.003638
v 34.009291 7.806727 38.272269
v 128.923096 7.806727 38.272269
v 34.009291 7.924809 38.630097
v 34.102216 7.931947 42.999774
v 128.923096 7.924809 38.630097
v 105.663916 7.931947 43.002092
v 34.009291 7.823681 38.297000
v 128.923096 7.823681 38.297000
v 34.009291 7.924214 38.600729
v 128.923096 7.924214 38.600729
v 34.009291 7.839445 38.322504
v 105.663916 7.843014 38.327913
v 128.923096 7.839445 38.322504
v 34.009291 7.921834 38.572133
v 105.663916 7.922429 38.578316
v 128.923096 7.921834 38.572133
v 34.009291 7.854019 38.347234
v 128.923096 7.854019 38.347234
v 34.009291 7.918265 38.541992
v 105.663916 7.919157 38.548947
v 128.923096 7.918265 38.541992
v 34.009291 7.867106 38.373511
v 105.663916 7.857291 38.353418
v 128.923096 7.867106 38.373511
v 34.009291 7.913209 38.512624
v 105.663916 7.914696 38.520353
v 128.923096 7.913209 38.512624
v 34.009291 7.879301 38.400561
v 128.923096 7.879301 38.400561
v 34.009291 7.906962 38.484028
v 128.923096 7.906962 38.484028
v 34.009291 7.889711 38.428384
v 128.923096 7.889711 38.428384
v 34.009291 7.898932 38.455434
v 105.663916 7.901014 38.462389
v 128.923096 7.898932 38.455434
v 105.663916 7.892091 38.435339
f 1 2 5
f 1 5 9
f 1 9 14
f 1 14 20
f 1 20 28
f 1 28 34
f 1 34 40
f 1 40 45
f 1 45 51
f 1 51 50
f 1 50 56
f 1 56 61
f 1 61 65
f 1 65 69
f 1 69 74
f 1 74 79
f 1 79 83
f 1 83 87
f 1 87 91
f 1 91 97
f 1 97 102
f 1 102 107
f 1 107 113
f 1 113 118
f 1 118 122
f 1 122 120
f 1 120 116
f 1 116 110
f 1 110 105
f 1 105 99
f 1 99 95
f 1 95 89
f 1 89 85
f 1 85 81
f 1 81 76
f 1 76 72
f 1 72 67
f 1 67 63
f 1 63 58
f 1 58 54
f 1 54 46
f 1 46 41
f 1 41 35
f 1 35 29
f 1 29 22
f 1 22 16
f 1 16 11
f 1 11 7
f 1 7 3
f 1 3 8
f 1 8 4
f 1 4 6
f 1 6 2
f 2 6 10
f 2 10 5
f 3 7 13
f 3 13 8
f 4 8 13
f 4 13 18
f 4 18 17
f 4 17 25
f 4 25 31
f 4 31 37
f 4 37 42
f 4 42 48
f 4 48 55
f 4 55 59
f 4 59 64
f 4 64 68
f 4 68 73
f 4 73 78
f 4 78 82
f 4 82 86
f 4 86 90
f 4 90 96
f 4 96 101
f 4 101 106
f 4 106 112
f 4 112 117
f 4 117 121
f 4 121 124
f 4 124 119
f 4 119 115
f 4 115 109
f 4 109 104
f 4 104 98
f 4 98 93
f 4 93 88
f 4 88 84
f 4 84 80
f 4 80 75
f 4 75 71
f 4 71 66
f 4 66 62
f 4 62 57
f 4 57 53
f 4 53 52
f 4 52 49
f 4 49 43
f 4 43 38
f 4 38 32
f 4 32 26
f 4 26 21
f 4 21 15
f 4 15 10
f 4 10 6
f 5 10 15
f 5 15 9
f 7 11 12
f 7 12 13
f 9 15 21
f 9 21 14
f 11 16 12
f 12 16 17
f 12 17 18
f 12 18 13
f 14 19 20
f 14 21 19
f 16 22 23
f 16 23 24
f 16 24 17
f 17 24 23
f 17 23 25
f 19 21 26
f 19 26 20
f 20 27 28
f 20 26 27
f 22 29 30
f 22 30 25
f 22 25 23
f 25 30 31
f 26 32 27
f 27 32 28
f 28 33 34
f 28 32 33
f 29 35 36
f 29 36 31
f 29 31 30
f 31 36 37
f 32 38 33
f 33 39 40
f 33 40 34
f 33 38 43
f 33 43 39
f 35 41 36
f 36 41 42
f 36 42 37
f 39 43 40
f 40 44 45
f 40 43 44
f 41 46 47
f 41 47 42
f 42 47 48
f 43 49 44
f 44 50 51
f 44 51 45
f 44 49 52
f 44 52 53
f 44 53 50
f 46 54 55
f 46 55 48
f 46 48 47
f 50 53 57
f 50 57 56
f 54 58 59
f 54 59 55
f 56 60 61
f 56 57 60
f 57 62 60
f 58 63 64
f 58 64 59
f 60 62 61
f 61 62 66
f 61 66 65
f 63 67 68
f 63 68 64
f 65 66 70
f 65 70 69
f 66 71 70
f 67 72 73
f 67 73 68
f 69 70 71
f 69 71 75
f 69 75 74
f 72 76 77
f 72 77 73
f 73 77 78
f 74 75 80
f 74 80 79
f 76 81 82
f 76 82 78
f 76 78 77
f 79 80 84
f 79 84 83
f 81 85 86
f 81 86 82
f 83 84 88
f 83 88 94
f 83 94 92
f 83 92 87
f 85 89 90
f 85 90 86
f 87 92 93
f 87 93 91
f 88 93 94
f 89 95 96
f 89 96 90
f 91 93 98
f 91 98 97
f 92 94 93
f 95 99 100
f 95 100 96
f 96 100 101
f 97 98 103
f 97 103 102
f 98 104 103
f 99 105 100
f 100 106 101
f 100 105 106
f 102 103 104
f 102 104 108
f 102 108 107
f 104 109 108
f 105 110 111
f 105 111 106
f 106 111 112
f 107 108 109
f 107 109 114
f 107 114 113
f 109 115 114
f 110 116 117
f 110 117 112
f 110 112 111
f 113 114 115
f 113 115 119
f 113 119 118
f 116 120 121
f 116 121 117
f 118 119 123
f 118 123 122
f 119 124 123
f 120 122 125
f 120 125 121
f 121 125 124
f 122 123 124
f 122 124 125
