# https://github.com/mikedh/trimesh
v 32.94480769 -47.32721611 0.29825513
v 32.94480769 -53.28984511 0.29662365
v 33.27162163 -53.28984511 0.19873451
v 33.27179517 -52.01019588 0.19873451
v 33.27196681 -49.45089360 0.19873451
v 33.27196681 -39.21368831 0.19873451
v 33.27179517 -34.09508566 0.19873451
v 33.27162163 -30.25613415 0.19873451
v 33.27144999 -26.42262729 0.19873451
v 33.27127836 -23.86332692 0.19873451
v 33.27110672 -22.58367578 0.19873451
v 32.94480769 -12.34102584 0.29662365
v 32.94480769 -54.56949434 0.27378285
v 33.25250912 -54.56949434 0.18568262
v 33.91130512 -53.28984511 -0.34618169
v 33.91147676 -52.01019588 -0.34618169
v 33.91164839 -49.45089360 -0.34618169
v 33.91164839 -37.93403907 -0.34618169
v 33.91147676 -32.81543452 -0.34618169
v 33.91130512 -28.97648301 -0.34618169
v 33.91095995 -22.58367578 -0.34618169
v 33.91078831 -20.01892886 -0.34618169
v 33.91044313 -16.17997735 -0.34618169
v 33.91027150 -14.90032716 -0.34618169
v 33.26938465 -0.82417132 0.19710302
v 33.26921111 -0.05638140 0.19710302
v 32.94480769 -0.05638140 0.29499216
v 32.94480769 -55.34817545 0.13673806
v 33.13886389 -55.32639688 0.11389726
v 33.89219071 -54.56949434 -0.36575905
v 34.38447982 -54.56949434 -1.00530142
v 34.39653241 -53.28984511 -0.98735507
v 34.39670595 -44.33229286 -0.98572359
v 34.39687759 -26.42262729 -0.98572359
v 34.39687759 -25.14297805 -0.98572359
v 34.39687759 -0.05638140 -0.98735507
v 34.20075413 -0.05638140 -0.72958034
v 33.90906624 -0.82417132 -0.34781318
v 33.90889460 -0.05638140 -0.34781318
v 32.94480769 -0.05638140 -16.36735830
v 32.94480769 -55.40807224 -0.06230319
v 33.57501884 -55.44074390 -0.66758389
v 34.32472988 -55.31550378 -1.11134751
v 34.60643243 -54.56949434 -1.92219539
v 34.63381011 -53.28984511 -1.92219539
v 34.63398175 -52.01019588 -1.92219539
v 34.63415338 -27.70227842 -1.92219539
v 34.63415338 -12.34102584 -1.92219539
v 34.63398175 -0.05638140 -1.92219539
v 32.97390744 -0.05638140 -16.35267588
v 32.94480769 -1.30335896 -16.36899074
v 32.94480769 -55.54965201 -0.65453200
v 33.58948385 -55.63677773 -1.92219539
v 34.40410914 -55.39174022 -1.92219539
v 34.67289711 -54.56949434 -3.20127918
v 34.70371894 -53.28984511 -3.20127918
v 34.70371894 -5.94277396 -3.20127918
v 34.67565090 -0.05638140 -2.68736168
v 33.58948385 -0.05638140 -16.01006390
v 33.58948385 -22.58367578 -16.01006390
v 33.58948385 -39.21368831 -16.00843146
v 32.94480769 -15.38496040 -16.36735830
v 32.94480769 -55.66944940 -1.92219539
v 34.43561941 -55.41896534 -3.20127918
v 33.58948385 -55.66400666 -3.20127918
v 34.67306875 -54.56949434 -7.04179400
v 34.70389057 -53.28984511 -12.15812916
v 34.70389057 -46.89159132 -10.87904537
v 34.70389057 -23.86332692 -8.31924630
v 34.70389057 -12.34102584 -7.04179400
v 34.70389057 -8.50207433 -7.04179400
v 34.70371894 -0.05638140 -3.96644547
v 34.70354540 -0.05638140 -3.20127918
v 34.27909977 -0.05638140 -15.42762448
v 34.27909977 -36.65438603 -15.42762448
v 34.27892814 -39.21368831 -15.42762448
v 33.58948385 -49.45089360 -16.00680093
v 32.94480769 -37.93403907 -16.36409724
v 32.94480769 -26.90181684 -16.36572777
v 32.94480769 -55.68033868 -3.20127918
v 34.43561941 -55.41896534 -12.15812916
v 33.58948385 -55.66400666 -13.43884443
v 34.67306875 -54.56949434 -12.15812916
v 34.67220867 -54.56949434 -13.43884443
v 34.70285695 -53.28984511 -13.43884443
v 34.70303049 -52.01019588 -13.43884443
v 34.70320213 -3.38347169 -13.43884443
v 34.70389057 -0.05638140 -12.15812916
v 34.70389057 -0.05638140 -8.31924630
v 34.37432094 -0.05638140 -15.14211354
v 34.51568712 -36.65438603 -14.71792822
v 34.51465540 -52.01019588 -14.71792822
v 34.27806805 -53.28984511 -15.42599204
v 33.58948385 -53.28984511 -16.00517039
v 32.94480769 -53.28984511 -16.36083236
v 32.94480769 -47.37622742 -16.36246480
v 32.94480769 -55.68033868 -14.08328031
v 34.43527614 -55.41896534 -13.43884443
v 32.94480769 -55.64222428 -14.71792822
v 33.58948385 -55.57687713 -14.71792822
v 34.34676971 -55.33183962 -14.71792822
v 34.48934306 -54.56949434 -14.71792822
v 34.51448186 -53.28984511 -14.71792822
v 34.59110733 -0.05638140 -14.20401025
v 34.70320213 -0.05638140 -13.43884443
v 34.51568712 -0.05638140 -14.71792822
v 34.26825244 -54.56949434 -15.41294015
v 33.58948385 -54.56949434 -15.95296190
v 32.94480769 -53.77447739 -16.34125453
v 32.94480769 -55.50064451 -15.35910208
v 32.94480769 -55.38084712 -15.83875791
v 33.58948385 -55.34817545 -15.62992870
v 34.24879476 -55.23382461 -15.38520585
v 32.94480769 -54.56949434 -16.29557293
v 32.94480769 -54.89621483 -16.16179302
f 1 2 3
f 1 3 4
f 1 4 5
f 1 5 6
f 1 6 7
f 1 7 8
f 1 8 9
f 1 9 10
f 1 10 11
f 1 11 12
f 1 12 27
f 1 27 40
f 1 40 51
f 1 51 62
f 1 62 79
f 1 79 78
f 1 78 96
f 1 96 95
f 1 95 109
f 1 109 114
f 1 114 115
f 1 115 111
f 1 111 110
f 1 110 99
f 1 99 97
f 1 97 80
f 1 80 63
f 1 63 52
f 1 52 41
f 1 41 28
f 1 28 13
f 1 13 2
f 2 13 14
f 2 14 3
f 3 14 15
f 3 15 16
f 3 16 4
f 4 16 17
f 4 17 5
f 5 17 18
f 5 18 6
f 6 18 19
f 6 19 7
f 7 19 20
f 7 20 8
f 8 20 9
f 9 21 22
f 9 22 10
f 9 20 21
f 10 22 23
f 10 23 24
f 10 24 11
f 11 24 25
f 11 25 26
f 11 26 12
f 12 26 27
f 13 28 29
f 13 29 14
f 14 29 30
f 14 30 15
f 15 30 31
f 15 31 32
f 15 32 33
f 15 33 16
f 16 33 17
f 17 33 34
f 17 34 35
f 17 35 18
f 18 35 19
f 19 35 20
f 20 35 36
f 20 36 21
f 21 36 22
f 22 36 37
f 22 37 23
f 23 37 24
f 24 37 38
f 24 38 25
f 25 38 39
f 25 39 26
f 26 39 37
f 26 37 36
f 26 36 49
f 26 49 58
f 26 58 73
f 26 73 72
f 26 72 89
f 26 89 88
f 26 88 105
f 26 105 104
f 26 104 106
f 26 106 90
f 26 90 74
f 26 74 59
f 26 59 50
f 26 50 40
f 26 40 27
f 28 41 29
f 29 41 42
f 29 42 43
f 29 43 30
f 30 43 31
f 31 43 44
f 31 44 45
f 31 45 32
f 32 45 46
f 32 46 33
f 33 46 34
f 34 47 48
f 34 48 35
f 34 46 47
f 35 48 49
f 35 49 36
f 37 39 38
f 40 50 51
f 41 52 42
f 42 52 53
f 42 53 43
f 43 53 54
f 43 54 44
f 44 54 55
f 44 55 56
f 44 56 45
f 45 56 46
f 46 56 47
f 47 56 57
f 47 57 48
f 48 57 58
f 48 58 49
f 50 59 51
f 51 59 60
f 51 60 61
f 51 61 62
f 52 63 53
f 53 64 54
f 53 63 65
f 53 65 64
f 54 64 55
f 55 64 66
f 55 66 56
f 56 66 67
f 56 67 68
f 56 68 69
f 56 69 70
f 56 70 71
f 56 71 57
f 57 71 72
f 57 72 73
f 57 73 58
f 59 74 75
f 59 75 60
f 60 75 76
f 60 76 61
f 61 76 77
f 61 77 78
f 61 78 79
f 61 79 62
f 63 80 65
f 64 65 82
f 64 82 81
f 64 81 83
f 64 83 66
f 65 80 97
f 65 97 82
f 66 83 67
f 67 83 84
f 67 84 85
f 67 85 86
f 67 86 87
f 67 87 105
f 67 105 88
f 67 88 89
f 67 89 71
f 67 71 70
f 67 70 69
f 67 69 68
f 71 89 72
f 74 90 75
f 75 91 92
f 75 92 76
f 75 90 91
f 76 92 93
f 76 93 77
f 77 93 94
f 77 94 95
f 77 95 96
f 77 96 78
f 81 82 98
f 81 98 83
f 82 99 100
f 82 100 98
f 82 97 99
f 83 98 84
f 84 98 101
f 84 101 102
f 84 102 85
f 85 103 92
f 85 92 86
f 85 102 103
f 86 92 91
f 86 91 87
f 87 104 105
f 87 91 104
f 90 106 91
f 91 106 104
f 92 103 93
f 93 103 107
f 93 107 94
f 94 107 108
f 94 108 109
f 94 109 95
f 98 100 101
f 99 110 100
f 100 110 111
f 100 111 112
f 100 112 113
f 100 113 101
f 101 113 102
f 102 113 107
f 102 107 103
f 107 113 108
f 108 113 114
f 108 114 109
f 111 115 112
f 112 115 113
f 113 115 114

