# https://github.com/mikedh/trimesh
v 19.08420533 -17.73053329 -6.37108463
v 24.67533999 -17.73053329 -6.37209632
v 19.08420533 -17.73053329 -11.65582419
v 19.08420533 -53.29152713 -6.37108463
v 24.67533999 -17.73053329 -10.01123327
v 24.67533999 -53.29152713 -6.37209632
v 19.37539357 -17.73053329 -11.65683589
v 24.67533999 -22.80801983 -16.02420471
v 24.67533999 -23.94915393 -16.67657966
v 23.93423168 -24.40635132 -16.66039639
v 22.68354680 -25.74077118 -16.65331740
v 19.08420533 -30.70302963 -16.65938565
v 19.08420533 -53.69668480 -6.37614214
v 24.67533999 -54.50328520 -6.38625620
v 20.56203954 -17.73053329 -11.53546422
v 24.67533999 -22.71880970 -15.93621033
v 19.51168317 -17.73053329 -11.65683589
v 19.76346021 -17.73053329 -11.64773256
v 20.41097026 -17.73053329 -11.58603551
v 24.67533999 -24.38033146 -16.68669468
v 24.63045554 -25.13860899 -16.70388869
v 23.44490423 -25.24268652 -16.67354553
v 19.60637227 -30.36477717 -16.67354553
v 19.08420533 -31.53936483 -16.68163717
v 19.08420533 -54.50328520 -6.38625620
v 19.08420533 -54.71887396 -6.39232493
v 24.67533999 -55.12031288 -6.40446238
v 24.67533999 -25.13860899 -16.70388869
v 19.08420533 -34.09669331 -16.70287795
v 19.51168317 -32.81802812 -16.70287795
v 20.79137436 -30.26070155 -16.70287795
v 19.51168317 -31.53936483 -16.69782044
v 23.35076054 -26.42099103 -16.69782044
v 24.67533999 -25.18321310 -16.70388869
v 19.08420533 -53.29152713 -16.70287795
v 19.08420533 -32.81802812 -16.69478440
v 19.08420533 -55.14261779 -6.40547360
v 24.67533999 -55.14261779 -6.40547360
v 24.67533999 -53.33613315 -16.70287795
v 19.08420533 -54.57019232 -16.68669468
v 19.08420533 -55.45856343 -7.04571109
v 24.67533999 -55.45856343 -7.04571109
v 24.67533999 -54.57019232 -16.68669468
v 19.08420533 -55.23182602 -16.65432814
v 19.08420533 -55.70389081 -8.32112857
v 24.67533999 -55.70389081 -8.32112857
v 24.67533999 -55.23182602 -16.65432814
v 19.08420533 -55.47715340 -15.99891907
v 19.08420533 -55.70389081 -14.71844503
v 24.67533999 -55.70389081 -14.71844503
v 24.67533999 -55.47715340 -15.99891907
f 1 2 5
f 1 5 15
f 1 15 19
f 1 19 18
f 1 18 17
f 1 17 7
f 1 7 3
f 1 3 12
f 1 12 24
f 1 24 36
f 1 36 29
f 1 29 35
f 1 35 40
f 1 40 44
f 1 44 48
f 1 48 49
f 1 49 45
f 1 45 41
f 1 41 37
f 1 37 26
f 1 26 25
f 1 25 13
f 1 13 4
f 1 4 6
f 1 6 2
f 2 6 14
f 2 14 27
f 2 27 38
f 2 38 42
f 2 42 46
f 2 46 50
f 2 50 51
f 2 51 47
f 2 47 43
f 2 43 39
f 2 39 34
f 2 34 28
f 2 28 20
f 2 20 9
f 2 9 8
f 2 8 16
f 2 16 5
f 3 7 8
f 3 8 9
f 3 9 10
f 3 10 11
f 3 11 12
f 4 13 14
f 4 14 6
f 5 16 15
f 7 17 8
f 8 17 18
f 8 18 19
f 8 19 16
f 9 20 21
f 9 21 22
f 9 22 10
f 10 22 11
f 11 23 12
f 11 22 23
f 12 23 24
f 13 25 14
f 14 25 26
f 14 26 27
f 15 16 19
f 20 28 21
f 21 29 30
f 21 30 31
f 21 31 32
f 21 32 33
f 21 33 22
f 21 28 34
f 21 34 35
f 21 35 29
f 22 33 32
f 22 32 23
f 23 32 24
f 24 32 36
f 26 37 27
f 27 37 38
f 29 36 32
f 29 32 30
f 30 32 31
f 34 39 35
f 35 39 40
f 37 41 42
f 37 42 38
f 39 43 40
f 40 43 47
f 40 47 44
f 41 45 46
f 41 46 42
f 44 47 51
f 44 51 48
f 45 49 50
f 45 50 46
f 48 51 50
f 48 50 49

