v 37.406131 9.000000 23.067302
v 39.613244 9.000000 23.067302
v 38.190827 9.000000 24.750000
v 37.406745 11.999853 23.405785
v 37.406131 14.999706 23.067302
v 40.547377 11.565849 23.067302
v 40.547377 11.999853 23.406774
v 38.829162 9.000000 24.750000
v 38.191136 14.999706 24.750000
v 39.613550 14.999706 23.067302
v 40.547377 11.999853 23.067302
v 39.920727 11.999853 24.750000
v 40.543688 12.443841 23.067302
v 38.829162 14.999706 24.750000
f 1 2 8
f 1 8 3
f 1 3 4
f 1 4 5
f 1 5 10
f 1 10 13
f 1 13 11
f 1 11 6
f 1 6 2
f 2 6 7
f 2 7 8
f 3 8 12
f 3 12 14
f 3 14 9
f 3 9 4
f 4 9 5
f 5 9 14
f 5 14 10
f 6 11 7
f 7 12 8
f 7 11 13
f 7 13 10
f 7 10 14
f 7 14 12
