# https://github.com/mikedh/trimesh
v 72.94703727 42.70176593 14.71536574
v 72.94703727 42.62335164 15.01599772
v 72.94703727 42.70176593 12.15694547
v 37.94319149 42.70176593 14.71536574
v 72.94703727 42.37750935 15.94229252
v 43.83028013 42.37750935 15.94229252
v 72.94703727 42.66997914 11.18969475
v 37.94319149 42.68693286 10.87686334
v 37.94319149 42.70176593 12.15694547
v 37.94319149 42.37750935 15.94142100
v 72.94703727 41.75442487 16.58276840
v 43.83028013 41.75230422 16.58189687
v 70.70254211 41.75442487 16.58276840
v 72.94703727 42.65938354 10.87686334
v 37.94319149 42.40506249 9.58458177
v 37.94319149 41.75018739 16.58189687
v 72.94703727 41.11438666 16.66903785
v 37.94319149 41.36870772 16.63418069
v 68.14278977 41.11438666 16.66903785
v 42.54869142 41.11226602 16.66903785
v 72.94703727 42.41353744 10.15796078
v 37.94319149 42.05537342 8.89182208
v 72.94703727 42.33300250 9.92616967
v 72.94703727 40.87278185 16.67775118
v 37.94319149 41.11014919 16.66903785
v 37.94319149 40.52521343 16.68995061
v 37.94319149 41.72051743 8.60251800
v 72.94703727 41.63574501 9.61769588
v 37.94319149 41.44076389 8.41603948
v 72.94703727 40.13101751 16.70302157
v 47.66819611 40.13101751 16.70389309
v 50.22794845 40.13101751 16.70389309
v 37.94319149 40.13101751 16.70302157
v 72.94703727 41.41109392 9.51835643
v 37.94319149 40.13101751 8.10756474
v 72.94703727 39.94663580 16.69517976
v 47.66819611 21.05277722 16.70302157
v 37.94319149 21.05277722 16.70302157
v 72.94703727 40.44467849 9.44515888
v 37.94319149 21.05277722 7.80257609
v 72.94703727 40.13101751 9.42163154
v 72.94703727 39.37653312 16.66903785
v 47.74358200 21.05277722 16.70040700
v 72.94703727 21.05277722 9.41204573
v 72.94703727 21.05277722 14.77810689
v 48.46661905 21.05277722 16.66903785
f 1 2 5
f 1 5 11
f 1 11 17
f 1 17 24
f 1 24 30
f 1 30 36
f 1 36 42
f 1 42 45
f 1 45 44
f 1 44 41
f 1 41 39
f 1 39 34
f 1 34 28
f 1 28 23
f 1 23 21
f 1 21 14
f 1 14 7
f 1 7 3
f 1 3 9
f 1 9 4
f 1 4 2
f 2 4 6
f 2 6 5
f 3 7 8
f 3 8 9
f 4 9 8
f 4 8 15
f 4 15 22
f 4 22 27
f 4 27 29
f 4 29 35
f 4 35 40
f 4 40 38
f 4 38 33
f 4 33 26
f 4 26 25
f 4 25 18
f 4 18 16
f 4 16 10
f 4 10 6
f 5 6 13
f 5 13 11
f 6 10 12
f 6 12 13
f 7 14 8
f 8 14 15
f 10 16 12
f 11 13 19
f 11 19 17
f 12 16 18
f 12 18 13
f 13 18 20
f 13 20 19
f 14 21 15
f 15 21 23
f 15 23 22
f 17 19 24
f 18 25 20
f 19 20 24
f 20 25 26
f 20 26 24
f 22 23 27
f 23 28 29
f 23 29 27
f 24 26 31
f 24 31 32
f 24 32 30
f 26 33 31
f 28 34 29
f 29 34 35
f 30 32 37
f 30 37 36
f 31 33 38
f 31 38 37
f 31 37 32
f 34 39 35
f 35 39 41
f 35 41 40
f 36 37 42
f 37 38 40
f 37 40 44
f 37 44 45
f 37 45 46
f 37 46 43
f 37 43 42
f 40 41 44
f 42 43 46
f 42 46 45

