v 49.037755 14.999706 23.067302
v 48.253761 14.999706 24.750000
v 49.966863 11.999853 23.417315
v 49.955795 12.476729 23.067302
v 43.689998 14.999706 23.067302
v 49.345204 11.999853 24.750000
v 44.474607 14.999706 24.750000
v 49.966863 11.999853 23.067302
v 48.253761 9.000000 24.750000
v 49.037755 9.000000 23.067302
v 49.966863 11.552342 23.067302
v 43.685078 11.999853 23.067302
v 43.685078 11.999853 23.414844
v 44.474607 9.000000 24.750000
v 43.689998 9.000000 23.067302
v 43.685078 11.555278 23.067302
f 1 2 3
f 1 3 4
f 1 4 8
f 1 8 11
f 1 11 10
f 1 10 15
f 1 15 16
f 1 16 12
f 1 12 5
f 1 5 7
f 1 7 2
f 2 6 3
f 2 7 14
f 2 14 9
f 2 9 6
f 3 8 4
f 3 6 9
f 3 9 10
f 3 10 11
f 3 11 8
f 5 12 13
f 5 13 7
f 7 13 14
f 9 14 15
f 9 15 10
f 12 16 13
f 13 15 14
f 13 16 15
