# https://github.com/mikedh/trimesh
v 129.45539326 9.67260611 14.71646897
v 129.28393375 9.67260611 15.96134209
v 129.28393375 6.85670861 15.96134209
v 129.44986280 8.13666202 14.71646897
v 129.09587523 6.85670861 13.91125118
v 129.10140569 9.41661543 13.90668188
v 129.10140569 9.67260611 13.90635577
v 128.81379127 9.67260611 16.47312989
v 129.20649969 5.57797667 15.86440267
v 129.35582973 5.57797667 14.71646897
v 129.44433234 6.85670861 14.71646897
v 128.69211353 6.85670861 16.60107803
v 129.07928385 5.57797667 13.92234834
v 128.29387847 5.57797667 13.57571628
v 128.29387847 6.85670861 13.56266058
v 128.29387847 9.41661543 13.55417419
v 128.94100710 9.67260611 13.83552775
v 128.69211353 9.67260611 16.60107803
v 129.06822294 4.73791127 15.63037745
v 128.57042816 5.57797667 16.50446471
v 129.10140569 4.68292515 14.71646897
v 129.02397163 4.79778517 13.98044677
v 128.05604200 6.85670861 16.66962141
v 127.92882998 5.57797667 16.66962141
v 127.75736665 4.86560196 16.65819815
v 128.18325783 4.34201235 13.86849310
v 127.01067830 4.29802327 13.65992611
v 127.01067830 5.57797667 13.37726813
v 128.29387847 9.67260611 13.55352197
v 128.05604200 9.67260611 16.66962141
v 128.18878829 4.37500345 15.99071837
v 127.76843139 3.60092216 15.49786096
v 128.41002956 4.04325405 14.71646897
v 127.69099732 3.64246640 14.05617116
v 127.01067830 5.57797667 16.70356699
v 127.01067830 4.81611388 16.66962141
v 127.01067830 4.17644278 16.27141877
v 127.01067830 3.60519873 14.00884377
v 125.73301240 3.57526178 13.97196038
v 125.73301240 4.29802327 13.61912753
v 127.01067830 6.85670861 13.37498347
v 125.73301240 5.57797667 13.37106638
v 127.01067830 9.41661543 13.37041322
v 127.01067830 9.67260611 13.37008711
v 127.01067830 9.67260611 16.70356699
v 127.76843139 3.60336605 14.71646897
v 127.01067830 3.54349215 15.63168283
v 127.01067830 3.49033871 14.71646897
v 125.73301240 4.80328417 16.66962141
v 87.34218527 9.41661543 16.70389309
v 72.95046425 5.57797667 16.70356699
v 72.95046425 5.38858036 16.69540670
v 125.73301240 4.16361307 16.33408650
v 125.73301240 3.51477667 15.69435057
v 125.73301240 3.43229749 14.71646897
v 110.37336556 3.43168723 14.71646897
v 91.18071532 3.57465057 13.97130816
v 121.89448426 3.57526178 13.97163427
v 103.97397136 4.29802327 13.61880047
v 75.82659703 4.29802327 13.61847436
v 124.44981605 5.57797667 13.37106638
v 125.73301240 8.13666202 13.37008711
v 125.73301240 9.41661543 13.36976100
v 125.73301240 9.67260611 13.36976100
v 87.34218527 9.67260611 16.70389309
v 102.69630547 4.80328417 16.66962141
v 79.66512708 9.41661543 16.70389309
v 72.95046425 8.13666202 16.70356699
v 72.95046425 4.80389538 16.66962141
v 110.37336556 4.16361307 16.33408650
v 119.33362201 3.51477667 15.69435057
v 72.95046425 3.43107602 14.71646897
v 72.95046425 3.57465057 13.97130816
v 72.95046425 3.75121717 13.88513978
v 72.95046425 4.29802327 13.61847436
v 72.95046425 5.57797667 13.37139249
v 124.19539202 9.67260611 13.36976100
v 79.66512708 9.67260611 16.70389309
v 72.95046425 8.67552523 16.67810780
v 72.95046425 4.64749016 16.58737012
v 84.78685348 4.16361307 16.33343429
v 93.74157947 4.16361307 16.33376040
v 102.69630547 3.51477667 15.69402446
v 86.06451938 3.51477667 15.69369835
v 72.95046425 3.51477667 15.69337129
v 72.95046425 8.13666202 13.37139249
v 80.94279297 9.41661543 13.37106638
v 80.94279297 9.67260611 13.37106638
v 78.78569434 9.67260611 16.68365543
v 72.95046425 8.84964794 16.66962141
v 72.95046425 4.16422333 16.33310628
v 78.38745928 4.16422333 16.33343429
v 72.95046425 4.00537517 16.17676399
v 72.95046425 8.39754048 13.45756087
v 79.66512708 9.67260611 13.37171955
v 78.60870055 9.67260611 16.67484292
v 72.95046425 9.19972605 16.16044342
v 72.95046425 9.20339141 13.72390018
v 78.38745928 9.67260611 13.66580175
v 72.95046425 9.66649686 14.71646897
v 77.12085621 9.67260611 14.71646897
v 72.95046425 9.58035136 15.02915640
v 72.95046425 9.31275339 15.99594084
f 1 2 3
f 1 3 4
f 1 4 5
f 1 5 6
f 1 6 7
f 1 7 17
f 1 17 29
f 1 29 44
f 1 44 64
f 1 64 77
f 1 77 88
f 1 88 95
f 1 95 99
f 1 99 101
f 1 101 96
f 1 96 89
f 1 89 78
f 1 78 65
f 1 65 45
f 1 45 30
f 1 30 18
f 1 18 8
f 1 8 2
f 2 8 3
f 3 9 10
f 3 10 11
f 3 11 4
f 3 8 12
f 3 12 9
f 4 11 5
f 5 13 14
f 5 14 15
f 5 15 16
f 5 16 17
f 5 17 6
f 5 11 13
f 6 17 7
f 8 18 12
f 9 19 10
f 9 12 20
f 9 20 19
f 10 19 21
f 10 21 22
f 10 22 13
f 10 13 11
f 12 23 24
f 12 24 25
f 12 25 20
f 12 18 30
f 12 30 23
f 13 22 14
f 14 22 26
f 14 26 27
f 14 27 28
f 14 28 15
f 15 28 16
f 16 29 17
f 16 28 29
f 19 20 25
f 19 25 31
f 19 31 32
f 19 32 33
f 19 33 21
f 21 33 22
f 22 33 34
f 22 34 26
f 23 30 45
f 23 45 35
f 23 35 24
f 24 35 25
f 25 32 31
f 25 35 36
f 25 36 37
f 25 37 32
f 26 34 27
f 27 34 38
f 27 38 39
f 27 39 40
f 27 40 28
f 28 41 29
f 28 40 42
f 28 42 41
f 29 41 43
f 29 43 44
f 32 46 33
f 32 37 47
f 32 47 48
f 32 48 46
f 33 46 34
f 34 46 48
f 34 48 38
f 35 49 36
f 35 45 65
f 35 65 50
f 35 50 67
f 35 67 51
f 35 51 52
f 35 52 49
f 36 49 53
f 36 53 37
f 37 53 54
f 37 54 47
f 38 48 55
f 38 55 39
f 39 55 56
f 39 56 57
f 39 57 58
f 39 58 40
f 40 58 57
f 40 57 59
f 40 59 42
f 41 42 43
f 42 59 60
f 42 60 75
f 42 75 61
f 42 61 62
f 42 62 44
f 42 44 43
f 44 62 63
f 44 63 64
f 47 54 55
f 47 55 48
f 49 52 66
f 49 66 70
f 49 70 53
f 50 65 78
f 50 78 67
f 51 67 78
f 51 78 68
f 51 68 79
f 51 79 90
f 51 90 97
f 51 97 103
f 51 103 102
f 51 102 100
f 51 100 98
f 51 98 94
f 51 94 86
f 51 86 76
f 51 76 75
f 51 75 74
f 51 74 73
f 51 73 72
f 51 72 85
f 51 85 93
f 51 93 91
f 51 91 80
f 51 80 69
f 51 69 52
f 52 69 66
f 53 70 71
f 53 71 54
f 54 71 72
f 54 72 56
f 54 56 55
f 56 72 57
f 57 72 73
f 57 73 74
f 57 74 60
f 57 60 59
f 60 74 75
f 61 75 76
f 61 76 62
f 62 76 63
f 63 77 64
f 63 76 77
f 66 69 70
f 68 78 79
f 69 80 81
f 69 81 82
f 69 82 70
f 70 83 71
f 70 82 84
f 70 84 83
f 71 83 72
f 72 83 84
f 72 84 85
f 76 86 88
f 76 88 87
f 76 87 77
f 77 87 88
f 78 89 90
f 78 90 79
f 80 91 92
f 80 92 81
f 81 92 91
f 81 91 93
f 81 93 85
f 81 85 82
f 82 85 84
f 86 94 95
f 86 95 88
f 89 96 90
f 90 96 97
f 94 98 95
f 95 98 100
f 95 100 99
f 96 101 100
f 96 100 102
f 96 102 103
f 96 103 97
f 99 100 101

