# https://github.com/mikedh/trimesh
v 65.53969056 35.09221593 19.87953691
v 65.53969056 35.09221593 19.83820732
v 65.49972924 35.09221593 21.11787188
v 72.93252254 34.67850794 21.11787188
v 65.46818097 35.09221593 18.72231116
v 72.93252254 34.67850794 19.83820732
v 64.36188514 35.09221593 22.23015206
v 72.93252254 34.64356712 21.32968581
v 65.45345832 35.09221593 18.55802579
v 72.93252254 34.66592879 18.55802579
v 63.00320242 35.09221593 22.57731969
v 72.93252254 34.53175497 21.98579143
v 65.17583276 35.09221593 18.13026593
v 72.93252254 34.52057223 17.75778451
v 64.33244007 35.09221593 17.59659910
v 61.72444233 35.09221593 22.57886967
v 63.00320242 35.02652734 22.57886967
v 72.93252254 32.46601166 22.57886967
v 72.93252254 33.43319092 22.44093203
v 72.93252254 33.74626950 22.39598646
v 72.93252254 34.34027486 22.08601546
v 72.93252254 33.74626950 17.48449222
v 63.00320242 35.09221593 17.37083632
v 64.31561421 35.09221593 17.59246614
v 72.93252254 20.81510865 22.62278224
v 51.44598705 35.09221593 22.57886967
v 72.93252254 32.77908643 17.39873403
v 72.93252254 32.46601166 17.37135329
v 51.44598705 35.06705762 17.34500556
v 51.44809026 35.09221593 17.34552254
v 72.93252254 20.81510865 17.37135329
v 51.44598705 20.81510865 22.62278224
v 51.44598705 35.09221593 17.45504548
v 51.44598705 20.81930170 17.34552254
v 51.48384469 20.81510865 17.35740444
v 51.44598705 20.81510865 17.50464099
f 1 2 5
f 1 5 9
f 1 9 13
f 1 13 15
f 1 15 24
f 1 24 23
f 1 23 30
f 1 30 33
f 1 33 26
f 1 26 16
f 1 16 11
f 1 11 7
f 1 7 3
f 1 3 4
f 1 4 6
f 1 6 2
f 2 6 5
f 3 7 4
f 4 8 12
f 4 12 21
f 4 21 20
f 4 20 19
f 4 19 18
f 4 18 25
f 4 25 31
f 4 31 28
f 4 28 27
f 4 27 22
f 4 22 14
f 4 14 10
f 4 10 6
f 4 7 8
f 5 6 9
f 6 10 9
f 7 11 12
f 7 12 8
f 9 10 13
f 10 14 15
f 10 15 13
f 11 16 17
f 11 17 18
f 11 18 19
f 11 19 20
f 11 20 21
f 11 21 12
f 14 22 23
f 14 23 24
f 14 24 15
f 16 25 17
f 16 26 32
f 16 32 25
f 17 25 18
f 22 27 23
f 23 27 28
f 23 28 29
f 23 29 30
f 25 32 36
f 25 36 35
f 25 35 31
f 26 33 29
f 26 29 34
f 26 34 36
f 26 36 32
f 28 31 29
f 29 33 30
f 29 31 34
f 31 35 34
f 34 35 36

