# https://github.com/mikedh/trimesh
v 80.92687347 42.70408736 44.16129115
v 86.04978579 42.67472456 42.88217314
v 72.93252254 42.70408736 44.16129115
v 73.24658739 42.70408736 46.72219790
v 114.60103964 42.70198893 46.72219790
v 114.60103964 42.70198893 44.16129115
v 80.92687347 42.67472456 42.88217314
v 112.92874872 42.67262613 42.88217314
v 105.24846455 42.58034086 39.60421273
v 72.93252254 42.66004316 42.88217314
v 72.93252254 42.70408736 46.72219790
v 83.48832963 42.57824242 39.60421273
v 114.60103964 42.38528196 47.93540031
v 114.60103964 42.48176410 47.56662931
v 114.60103964 42.66423621 42.88217314
v 102.12414187 42.58034086 39.60421273
v 111.64802541 42.57614399 39.60421273
v 109.09064593 42.57824242 39.60421273
v 72.93252254 42.42093625 42.16511948
v 80.92687347 42.55936797 39.60421273
v 80.36400695 42.49015402 39.60421273
v 72.93252254 42.38528196 47.93540031
v 110.37137687 41.71830836 48.57584972
v 114.60103964 41.71830836 48.57495884
v 114.60103964 42.35801759 41.70905557
v 113.77305136 42.25314554 39.60421273
v 112.92874872 42.50693385 39.60421273
v 72.93252254 42.34333238 41.93352496
v 79.65022493 42.39996336 39.60421273
v 72.93252254 41.71620993 48.57495884
v 83.48832963 41.71830836 48.57495884
v 89.89196717 41.71830836 48.57584972
v 107.80991880 41.07860294 48.67294231
v 114.60103964 41.27155959 48.64354708
v 114.60103964 41.42677114 41.25477342
v 114.08303953 41.42677114 39.60421273
v 113.92396686 41.88819750 39.60421273
v 72.93252254 41.42677114 41.52288831
v 79.32392527 42.28880364 39.60421273
v 78.92828669 42.14617887 39.60421273
v 72.93252254 41.56100219 48.59900879
v 72.93252254 41.07650451 48.67294231
v 92.44934474 41.07860294 48.67294231
v 114.60103964 40.42840536 48.69431962
v 114.60103964 41.07650451 48.67294231
v 114.60103964 40.14735649 41.15055474
v 114.18908289 40.14735649 39.60421273
v 114.14013980 40.86256735 39.60421273
v 72.93252254 40.14735649 41.42134322
v 78.73658529 41.42677114 39.60421273
v 72.93252254 40.14735649 48.70322652
v 114.60103964 40.14735649 48.70322652
v 114.60103964 38.86583959 41.14521042
v 114.19316530 39.58315270 39.60421273
v 72.94067973 21.27702528 41.41421714
v 72.93252254 22.22505157 41.42134322
v 78.62237998 40.14735649 39.60421273
v 78.54896248 21.27702528 39.60421273
v 72.93252254 39.96278213 48.69610138
v 78.95275919 21.27702528 48.67294231
v 79.65022493 21.27702528 48.70411740
v 79.65022493 37.58642494 48.70411740
v 114.60103964 39.39858215 48.67294231
v 87.33051292 37.58642494 48.70411740
v 87.33051292 21.27702528 48.70411740
v 87.63641868 21.27702528 48.69610138
v 88.51335005 21.27702528 48.67294231
v 114.60103964 21.27702528 41.13808433
v 114.20540107 21.27702528 39.60421273
v 72.93252254 21.27702528 41.57633349
v 72.93252254 39.39858215 48.67294231
v 72.93252254 21.27702528 46.77831573
v 114.60103964 21.27702528 46.77831573
v 89.15371361 21.27702528 48.62929491
f 1 2 7
f 1 7 3
f 1 3 11
f 1 11 4
f 1 4 5
f 1 5 6
f 1 6 2
f 2 6 8
f 2 8 9
f 2 9 16
f 2 16 7
f 3 10 19
f 3 19 28
f 3 28 38
f 3 38 49
f 3 49 56
f 3 56 70
f 3 70 72
f 3 72 71
f 3 71 59
f 3 59 51
f 3 51 42
f 3 42 41
f 3 41 30
f 3 30 22
f 3 22 11
f 3 7 12
f 3 12 10
f 4 11 22
f 4 22 13
f 4 13 14
f 4 14 5
f 5 14 13
f 5 13 24
f 5 24 34
f 5 34 45
f 5 45 44
f 5 44 52
f 5 52 63
f 5 63 73
f 5 73 68
f 5 68 53
f 5 53 46
f 5 46 35
f 5 35 25
f 5 25 15
f 5 15 6
f 6 15 8
f 7 16 12
f 8 15 17
f 8 17 18
f 8 18 9
f 9 18 17
f 9 17 27
f 9 27 26
f 9 26 37
f 9 37 36
f 9 36 48
f 9 48 47
f 9 47 54
f 9 54 69
f 9 69 58
f 9 58 57
f 9 57 50
f 9 50 40
f 9 40 39
f 9 39 29
f 9 29 21
f 9 21 20
f 9 20 12
f 9 12 16
f 10 12 20
f 10 20 21
f 10 21 19
f 13 23 24
f 13 22 32
f 13 32 23
f 15 25 26
f 15 26 27
f 15 27 17
f 19 21 28
f 21 29 28
f 22 30 31
f 22 31 32
f 23 33 34
f 23 34 24
f 23 32 43
f 23 43 33
f 25 35 36
f 25 36 37
f 25 37 26
f 28 29 39
f 28 39 40
f 28 40 38
f 30 41 32
f 30 32 31
f 32 41 42
f 32 42 43
f 33 44 45
f 33 45 34
f 33 43 44
f 35 46 47
f 35 47 48
f 35 48 36
f 38 40 50
f 38 50 49
f 42 51 44
f 42 44 43
f 44 51 52
f 46 53 54
f 46 54 47
f 49 55 56
f 49 50 57
f 49 57 58
f 49 58 55
f 51 59 60
f 51 60 61
f 51 61 62
f 51 62 64
f 51 64 52
f 52 64 65
f 52 65 66
f 52 66 67
f 52 67 63
f 53 68 69
f 53 69 54
f 55 70 56
f 55 58 69
f 55 69 68
f 55 68 73
f 55 73 74
f 55 74 67
f 55 67 66
f 55 66 65
f 55 65 61
f 55 61 60
f 55 60 72
f 55 72 70
f 59 71 60
f 60 71 72
f 61 65 64
f 61 64 62
f 63 67 74
f 63 74 73

