# https://github.com/mikedh/trimesh
v 32.94480387 -4.30465177 -5.69514754
v 32.94480387 -4.30465177 -16.36877715
v 28.45957428 -4.30465177 -5.69514754
v 32.94480387 -55.68376375 -5.69514754
v 32.94480387 -5.13983893 -16.36877715
v 32.55950246 -4.30465177 -16.58214229
v 24.67614858 -4.30465177 -6.37188035
v 28.45957428 -52.01598569 -5.69514754
v 32.30937693 -55.70389081 -5.69514754
v 32.94480387 -55.68376375 -14.08318686
v 32.55950246 -4.66186989 -16.58214229
v 32.94480387 -13.62252492 -16.36769776
v 32.55869387 -9.78368211 -16.58214229
v 32.38142166 -4.30465177 -16.60692638
v 24.67614858 -4.30465177 -11.63703493
v 24.67614858 -53.28889158 -6.37188035
v 28.46038287 -53.29392239 -5.69514754
v 31.02961709 -55.61835939 -5.69514754
v 24.67614858 -55.45735817 -7.04538069
v 24.67614858 -55.70389081 -8.32125920
v 32.30937693 -55.70389081 -14.71897043
v 32.94480387 -55.63848263 -14.71897043
v 32.94480387 -35.85561409 -16.36446720
v 32.55545569 -25.13905333 -16.58106289
v 32.55788146 -11.06161881 -16.58214229
v 31.91031421 -52.01095488 -16.67050378
v 32.94480387 -42.25536491 -16.36338781
v 32.94480387 -48.17211017 -16.36231032
v 31.91597816 -23.86111664 -16.67050378
v 31.91921634 -7.22277600 -16.67050378
v 31.91921634 -4.30465177 -16.67050378
v 31.91193139 -44.33326927 -16.67050378
v 27.80067148 -4.30465177 -16.65972892
v 24.67614858 -10.87546162 -16.26101709
v 24.67614858 -54.50142010 -6.38588910
v 28.47900335 -54.55676665 -5.69514754
v 28.47414418 -54.43601574 -5.69514754
v 29.66810179 -55.37183056 -5.69514754
v 24.67614858 -55.14542498 -6.40528623
v 24.67614858 -55.44729655 -7.02275110
v 24.67614858 -55.70389081 -14.71897043
v 31.02961709 -55.47748523 -15.99808187
v 32.22762148 -55.41711168 -16.07135856
v 32.94480387 -55.50263929 -15.35906585
v 32.54978792 -53.28889158 -16.57890792
v 31.90950180 -53.28889158 -16.67050378
v 31.02961709 -53.28889158 -16.70283218
v 31.67152039 -4.30465177 -16.68020306
v 32.94480387 -53.28889158 -16.36123284
v 28.28392306 -4.30465177 -16.68343552
v 24.67614858 -12.34458631 -16.70283218
v 24.67614858 -11.51443188 -16.67050378
v 28.98086779 -54.99951619 -5.69514754
v 24.67614858 -55.47748523 -15.99808187
v 24.67614858 -55.24101421 -16.63063298
v 29.74985725 -55.23095259 -16.65433958
v 31.02961709 -55.23095259 -16.65326400
v 31.74679949 -55.22592178 -16.64895215
v 32.94480387 -55.38189218 -15.83859676
v 32.94480387 -53.77692224 -16.34075869
v 32.94480387 -54.57185909 -16.29657795
v 32.48745773 -54.57185909 -16.53903712
v 31.84798402 -54.57185909 -16.66188389
v 31.02961709 -4.30465177 -16.70283218
v 31.02961709 -54.57185909 -16.68666798
v 24.67614858 -53.33417270 -16.70283218
v 28.47090600 -4.30465177 -16.69205732
v 29.39288323 -4.30465177 -16.70067720
v 29.74985725 -4.30465177 -16.70283218
v 24.67614858 -55.23095259 -16.65433958
v 32.94480387 -54.89386153 -16.16187693
v 24.67614858 -54.57185909 -16.68666798
f 1 2 6
f 1 6 14
f 1 14 31
f 1 31 48
f 1 48 64
f 1 64 69
f 1 69 68
f 1 68 67
f 1 67 50
f 1 50 33
f 1 33 15
f 1 15 7
f 1 7 3
f 1 3 8
f 1 8 17
f 1 17 37
f 1 37 36
f 1 36 53
f 1 53 38
f 1 38 18
f 1 18 9
f 1 9 4
f 1 4 10
f 1 10 22
f 1 22 44
f 1 44 59
f 1 59 71
f 1 71 61
f 1 61 60
f 1 60 49
f 1 49 28
f 1 28 27
f 1 27 23
f 1 23 12
f 1 12 5
f 1 5 2
f 2 5 11
f 2 11 6
f 3 7 16
f 3 16 8
f 4 9 21
f 4 21 10
f 5 12 13
f 5 13 11
f 6 11 14
f 7 15 34
f 7 34 52
f 7 52 51
f 7 51 66
f 7 66 72
f 7 72 70
f 7 70 55
f 7 55 54
f 7 54 41
f 7 41 20
f 7 20 19
f 7 19 40
f 7 40 39
f 7 39 35
f 7 35 16
f 8 16 17
f 9 18 19
f 9 19 20
f 9 20 41
f 9 41 21
f 10 21 22
f 11 13 14
f 12 23 13
f 13 24 25
f 13 25 46
f 13 46 26
f 13 26 14
f 13 23 27
f 13 27 28
f 13 28 24
f 14 29 30
f 14 30 31
f 14 26 32
f 14 32 29
f 15 33 34
f 16 35 36
f 16 36 37
f 16 37 17
f 18 38 39
f 18 39 40
f 18 40 19
f 21 41 54
f 21 54 42
f 21 42 43
f 21 43 44
f 21 44 22
f 24 28 45
f 24 45 46
f 24 46 25
f 26 46 47
f 26 47 48
f 26 48 32
f 28 49 45
f 29 48 30
f 29 32 48
f 30 48 31
f 33 50 51
f 33 51 52
f 33 52 34
f 35 39 36
f 36 39 53
f 38 53 39
f 42 54 55
f 42 55 56
f 42 56 57
f 42 57 58
f 42 58 43
f 43 58 59
f 43 59 44
f 45 49 60
f 45 60 61
f 45 61 62
f 45 62 63
f 45 63 46
f 46 63 47
f 47 64 48
f 47 63 65
f 47 65 66
f 47 66 51
f 47 51 69
f 47 69 64
f 50 67 51
f 51 67 68
f 51 68 69
f 55 70 56
f 56 65 57
f 56 70 72
f 56 72 65
f 57 65 58
f 58 65 63
f 58 63 62
f 58 62 71
f 58 71 59
f 61 71 62
f 65 72 66

