# https://github.com/mikedh/trimesh
v 35.13438156 24.34200675 3.18313892
v 35.13438156 24.34200675 -6.96568343
v 33.29416111 24.34200675 3.18313892
v 35.13438156 3.37315017 3.18313892
v 35.10394878 24.34200675 -6.98793400
v 35.13438156 19.62998444 -9.44417139
v 33.29394752 22.21407462 3.18313892
v 32.94502128 24.34200675 1.35610384
v 32.94502128 4.40248698 1.46735763
v 34.85897039 3.37315017 3.18313892
v 32.94502128 -0.05637949 0.29548394
v 33.26929884 -0.05637949 0.19782771
v 33.90906815 -0.05637949 -0.34731615
v 34.39666590 -0.05637949 -0.98764376
v 34.53855080 -0.05637949 -1.54638516
v 34.63392644 -0.05637949 -1.92217597
v 34.70358354 -0.05637949 -3.20035879
v 35.13438156 2.96953626 -0.34484366
v 34.79574388 24.34200675 -7.20178830
v 32.94502128 19.91896431 -9.44417139
v 32.94502128 24.34200675 -8.46513793
v 33.59957980 24.34200675 -8.02383012
v 35.13438156 14.10356950 -9.44417139
v 33.29351844 6.85761065 3.18313892
v 33.29351844 5.57750754 3.18313892
v 33.97143838 3.51644534 3.18313892
v 32.94502128 -0.05637949 -9.44417139
v 33.50270331 4.29979206 3.18313892
v 34.70379713 -0.05637949 -5.24495715
v 35.13438156 2.79519328 -3.19417803
v 35.13438156 2.82862873 -1.92217597
v 35.13438156 2.83101731 -1.87272972
v 35.13438156 4.29979206 -8.96701571
v 34.93612984 4.29979206 -9.44417139
v 34.70379713 -0.05637949 -9.44417139
v 35.13438156 2.79519328 -5.76043319
v 35.13438156 3.10805426 -8.24386614
v 35.13438156 3.09611323 -8.19565578
v 35.13438156 2.82624109 -7.03243513
f 1 2 5
f 1 5 19
f 1 19 22
f 1 22 21
f 1 21 8
f 1 8 3
f 1 3 7
f 1 7 24
f 1 24 25
f 1 25 28
f 1 28 26
f 1 26 10
f 1 10 4
f 1 4 18
f 1 18 32
f 1 32 31
f 1 31 30
f 1 30 36
f 1 36 39
f 1 39 38
f 1 38 37
f 1 37 33
f 1 33 23
f 1 23 6
f 1 6 2
f 2 6 5
f 3 8 9
f 3 9 7
f 4 10 11
f 4 11 12
f 4 12 13
f 4 13 14
f 4 14 15
f 4 15 16
f 4 16 17
f 4 17 18
f 5 6 19
f 6 20 21
f 6 21 22
f 6 22 19
f 6 23 34
f 6 34 35
f 6 35 27
f 6 27 20
f 7 9 24
f 8 21 20
f 8 20 27
f 8 27 11
f 8 11 9
f 9 11 25
f 9 25 24
f 10 26 11
f 11 27 35
f 11 35 29
f 11 29 17
f 11 17 16
f 11 16 15
f 11 15 14
f 11 14 13
f 11 13 12
f 11 26 28
f 11 28 25
f 17 29 30
f 17 30 31
f 17 31 32
f 17 32 18
f 23 33 34
f 29 35 36
f 29 36 30
f 33 37 35
f 33 35 34
f 35 37 38
f 35 38 39
f 35 39 36

