# https://github.com/mikedh/trimesh
v 13.07573748 31.18529598 29.62771291
v 14.35501096 31.18529598 29.54774067
v 14.35501096 32.46356985 29.52950147
v 13.12978930 32.44174614 29.53791952
v 11.79526216 31.18529598 29.62069746
v 10.50517984 29.90390499 29.62771291
v 13.08654632 3.03210344 29.62771291
v 15.01386554 32.46356985 29.45373850
v 15.00786020 33.12141336 29.44812662
v 14.35501096 3.03210344 29.54774067
v 14.35501096 33.15570939 29.47478387
v 13.59165061 33.15259226 29.47759005
v 11.79526216 32.01149869 29.52529268
v 10.95863215 31.89925922 29.49161998
v 10.50517984 31.18217885 29.54633758
v 10.50517984 31.16658940 29.54774067
v 10.50517984 3.03210344 29.62771291
v 15.34539507 32.46356985 28.79852947
v 15.01386554 4.30414210 29.45373850
v 15.01686820 3.03210344 29.44812662
v 16.64088372 33.42383572 25.76520486
v 16.64088372 33.66078315 25.68803880
v 16.64088372 34.18144637 25.51406439
v 16.64088372 34.23444516 25.43970451
v 16.64088372 34.50569243 25.03142669
v 16.64088372 34.59298725 24.89813994
v 14.35501096 33.47683451 28.79852947
v 13.37723653 33.25235940 28.79852947
v 10.69797243 32.02085007 28.79852947
v 10.50517984 31.78078551 29.14226855
v 10.50517984 3.03210344 20.37901931
v 16.64088372 32.18920926 25.78063788
v 15.34539507 3.03210344 28.79852947
v 16.64088372 34.84552413 23.98196978
v 16.64088372 34.88293729 23.67751480
v 13.22468426 33.32406858 27.51897699
v 12.58444851 33.03723567 27.51897699
v 11.79526216 32.67869358 27.51897699
v 10.50517984 32.09255925 27.51897699
v 10.50517984 31.97096840 28.49126832
v 10.50517984 31.91173155 28.79852947
v 10.50577885 3.03210344 20.37200482
v 10.50517984 4.30414210 20.37200482
v 16.64088372 3.03210344 25.78063788
v 16.64088372 34.88293729 22.39936493
v 10.50517984 32.09255925 22.39936493
v 13.66972758 9.99089957 15.33797640
v 16.26731303 6.21531674 15.35340942
v 16.64088372 6.18413879 15.34499089
v 16.64088372 5.92224862 15.72380766
v 16.63247473 3.03210344 20.36498938
v 10.50517984 11.98313573 20.35376562
v 10.50517984 13.26452673 20.35095945
v 12.40607025 11.98313573 16.49546637
v 12.41568107 11.27852578 16.54316948
v 16.64088372 3.03210344 20.36498938
v 16.64088372 34.87982016 17.27834978
v 15.27212160 34.25938981 17.27834978
v 10.50517984 31.84937374 21.11840984
v 14.35501096 33.84161085 17.27834978
v 13.27573723 33.32718571 17.27834978
v 13.60846859 10.70486186 15.32675360
v 14.35501096 10.70486186 15.29728969
v 14.44029510 9.50765047 15.32114125
v 12.93039237 11.98313573 15.85569037
v 16.64088372 6.86380601 15.31973720
v 12.40547124 13.26452673 16.49406328
v 10.50517984 29.90390499 20.34955636
v 12.40306758 28.62563112 16.48283952
v 12.40426941 20.94352131 16.48845188
v 16.64088372 34.63351753 16.22468456
v 16.03307830 34.49633724 16.40427037
v 12.41388024 31.93667238 16.53475094
v 10.50517984 31.11670774 20.40427395
v 13.42228035 33.25235940 16.34955278
v 13.57002911 11.98313573 15.32675360
v 16.64088372 8.41955854 15.29588565
v 16.64088372 7.15687412 15.31132058
v 13.56822828 26.06284913 15.32675360
v 13.56762545 31.18529598 15.32675360
v 14.35501096 31.18529598 15.29728969
v 12.92979336 13.26452673 15.85428823
v 12.92979336 14.54591772 15.85288419
v 12.92859153 22.22179327 15.84727183
v 12.40306758 31.18529598 16.48283952
v 12.92798871 28.62563112 15.84306352
v 16.64088372 34.23132803 15.78413571
v 14.93278590 33.12764761 15.34639493
v 14.44570142 33.41448052 15.95249872
v 13.09315447 32.35756845 16.01563484
v 13.61627476 31.92732100 15.33797640
v 12.92798871 31.18529598 15.84306352
v 14.07933408 32.77846072 15.49651684
v 16.64088372 14.82028022 15.29588565
v 14.44570142 32.39809874 15.32675360
v 15.63548246 32.46356985 15.30290205
v 16.64088372 32.46356985 15.29869183
v 16.64088372 31.18529598 15.29728969
v 16.64088372 34.06296884 15.60595394
v 16.64088372 33.41136340 15.32815574
v 15.63548246 33.18376734 15.33376809
f 1 2 3
f 1 3 4
f 1 4 5
f 1 5 6
f 1 6 17
f 1 17 7
f 1 7 2
f 2 8 9
f 2 9 3
f 2 7 10
f 2 10 19
f 2 19 8
f 3 9 11
f 3 11 4
f 4 11 12
f 4 12 5
f 5 12 13
f 5 13 14
f 5 14 15
f 5 15 16
f 5 16 6
f 6 16 15
f 6 15 30
f 6 30 41
f 6 41 40
f 6 40 39
f 6 39 46
f 6 46 59
f 6 59 74
f 6 74 68
f 6 68 53
f 6 53 52
f 6 52 43
f 6 43 31
f 6 31 17
f 7 17 31
f 7 31 42
f 7 42 51
f 7 51 56
f 7 56 44
f 7 44 33
f 7 33 20
f 7 20 10
f 8 18 9
f 8 19 20
f 8 20 18
f 9 18 21
f 9 21 22
f 9 22 23
f 9 23 24
f 9 24 25
f 9 25 26
f 9 26 27
f 9 27 11
f 10 20 19
f 11 27 12
f 12 27 28
f 12 28 29
f 12 29 14
f 12 14 13
f 14 29 30
f 14 30 15
f 18 32 21
f 18 20 33
f 18 33 44
f 18 44 32
f 21 32 44
f 21 44 56
f 21 56 50
f 21 50 49
f 21 49 66
f 21 66 78
f 21 78 77
f 21 77 94
f 21 94 98
f 21 98 97
f 21 97 100
f 21 100 99
f 21 99 87
f 21 87 71
f 21 71 57
f 21 57 45
f 21 45 35
f 21 35 34
f 21 34 26
f 21 26 25
f 21 25 24
f 21 24 23
f 21 23 22
f 26 34 27
f 27 34 28
f 28 34 35
f 28 35 36
f 28 36 37
f 28 37 38
f 28 38 39
f 28 39 40
f 28 40 29
f 29 40 41
f 29 41 30
f 31 43 42
f 35 45 46
f 35 46 39
f 35 39 38
f 35 38 37
f 35 37 36
f 42 47 48
f 42 48 49
f 42 49 50
f 42 50 51
f 42 43 52
f 42 52 53
f 42 53 54
f 42 54 55
f 42 55 47
f 45 57 58
f 45 58 46
f 46 58 60
f 46 60 61
f 46 61 59
f 47 62 63
f 47 63 64
f 47 64 48
f 47 55 65
f 47 65 62
f 48 66 49
f 48 64 66
f 50 56 51
f 53 67 54
f 53 68 69
f 53 69 70
f 53 70 67
f 54 67 82
f 54 82 65
f 54 65 55
f 57 71 72
f 57 72 58
f 58 72 60
f 59 73 74
f 59 61 75
f 59 75 73
f 60 72 75
f 60 75 61
f 62 65 76
f 62 76 63
f 63 77 78
f 63 78 64
f 63 76 79
f 63 79 80
f 63 80 81
f 63 81 94
f 63 94 77
f 64 78 66
f 65 82 76
f 67 83 82
f 67 70 84
f 67 84 83
f 68 74 85
f 68 85 69
f 69 85 92
f 69 92 86
f 69 86 84
f 69 84 70
f 71 87 88
f 71 88 89
f 71 89 72
f 72 89 75
f 73 75 90
f 73 90 91
f 73 91 92
f 73 92 85
f 73 85 74
f 75 89 88
f 75 88 93
f 75 93 90
f 76 82 83
f 76 83 84
f 76 84 86
f 76 86 79
f 79 86 80
f 80 86 92
f 80 92 91
f 80 91 81
f 81 91 95
f 81 95 96
f 81 96 97
f 81 97 98
f 81 98 94
f 87 99 88
f 88 99 100
f 88 100 101
f 88 101 96
f 88 96 95
f 88 95 91
f 88 91 93
f 90 93 91
f 96 101 100
f 96 100 97

