# https://github.com/mikedh/trimesh
v 23.38593045 -45.60560304 -1.92143305
v 23.69567053 -41.76959221 -2.95496228
v 23.69660499 -53.28720574 -2.95496228
v 23.38686491 -53.28720574 -1.92143305
v 23.50009440 -53.28720574 -0.64179216
v 23.38593045 36.28357579 -1.92143305
v 24.63143958 -53.28720574 -3.49907251
v 23.69567053 4.29127039 -2.95496228
v 23.71719355 -54.57227101 -2.93252482
v 23.42991096 -54.57227101 -1.92143305
v 23.53658781 -54.57227101 -0.64179216
v 23.82293213 -54.57227101 0.16245350
v 23.80983448 -53.28720574 0.17507463
v 23.80983448 -52.01173296 0.17577571
v 23.50009440 36.28357579 -0.64179216
v 23.79205309 37.67412791 -0.69998952
v 23.68069633 37.56863725 -1.92143305
v 23.83977906 37.56863725 -2.76354210
v 23.69567053 36.28357579 -2.95355988
v 23.69567053 28.61156176 -2.95426120
v 28.45873136 -52.01173296 -5.69514706
v 28.45966581 -53.29679823 -5.69514706
v 28.47370174 -54.43801052 -5.69514706
v 28.47838165 -54.55308985 -5.69514706
v 24.63143958 -2.10527277 -3.49907251
v 23.82199767 -55.36824148 -2.79299132
v 23.73216394 -55.44496231 -1.92143305
v 23.78175881 -55.40659999 -0.64179216
v 23.88750120 -55.31070182 0.09934786
v 24.63143958 -54.57227101 0.43240526
v 24.63143958 -53.28720574 0.46536036
v 24.63143958 -44.33013026 0.46606144
v 23.80983448 36.28357579 0.17577571
v 23.87065809 37.31929742 0.11687727
v 24.01383216 38.17281138 -0.31224076
v 23.98575650 38.21116988 -1.16556842
v 23.98388758 38.21116988 -1.92143305
v 23.98575650 38.21116988 -2.56931712
v 28.47744720 38.94001202 -5.69514706
v 24.63143958 36.28357579 -3.49767035
v 24.63143958 20.92995525 -3.49837167
v 28.45873136 36.28357579 -5.69514706
v 28.98089067 -54.99422984 -5.69514706
v 29.66774327 -55.36824148 -5.69514706
v 31.02928907 -55.61758131 -5.69514706
v 24.63143958 -55.44496231 -2.95075531
v 24.63143958 -55.69430214 -1.92143305
v 24.63143958 -55.64635114 -0.64179216
v 24.63143958 -55.39701132 0.19891449
v 25.91063494 -54.57227101 0.53758101
v 25.91063494 -53.28720574 0.57824920
v 32.94480387 4.39676105 1.46803797
v 24.63143958 36.28357579 0.46606144
v 24.51633737 37.67412791 0.29076827
v 24.86631631 38.39338137 0.17437331
v 27.49208327 39.64008432 0.15123477
v 32.77262350 42.12389772 0.11617595
v 32.68278976 42.17184872 -0.64179216
v 27.31428471 39.71680133 -0.64179216
v 24.51633737 38.44132855 -0.69998952
v 26.66673270 39.43869167 -1.92143305
v 25.91063494 39.09344986 -1.92143305
v 24.63143958 38.50846070 -1.92143305
v 32.68092085 42.17184872 -5.69514706
v 31.98938452 41.85537674 -5.69514706
v 31.02928907 41.34710460 -5.69514706
v 30.19738968 40.87719478 -5.69514706
v 29.34022562 40.06204314 -5.69514706
v 28.45966581 37.55904858 -5.69514706
v 32.30941888 -55.70389081 -5.69514706
v 25.91063494 -55.70389081 -1.92143305
v 25.91063494 -55.68471346 -0.64179216
v 25.91063494 -55.44496231 0.24799660
v 31.02928907 -54.57227101 0.53758101
v 31.02928907 -53.28720574 0.57824920
v 32.94480387 38.84411003 1.37127590
v 32.30941888 -53.28720574 0.48920022
v 32.94480387 -54.57227101 0.27393994
v 25.91063494 37.56863725 0.56562807
v 32.94480387 40.39769247 1.22052367
v 32.94480387 41.42382542 0.82506218
v 32.94480387 41.81701823 0.49410826
v 32.94480387 42.15266756 0.20522493
v 32.94480387 42.20061855 -0.04369153
v 32.94480387 42.25815822 -0.64179216
v 32.94480387 42.26774689 -1.92143305
v 32.68092085 42.17184872 -1.92143305
v 32.93076795 42.25815822 -5.69514706
v 32.30941888 -55.70389081 -1.92143305
v 32.94480387 -55.68471346 -5.69514706
v 31.02928907 -55.68471346 -0.64179216
v 28.46996010 -55.44496231 0.24799660
v 32.30941888 -54.57227101 0.45554379
v 31.02928907 -55.44496231 0.24729552
v 32.30941888 -55.41619248 0.21013322
v 32.94480387 39.60172200 1.32640098
v 32.94480387 -55.34906032 0.13651016
v 32.94480387 42.25815822 -5.69514706
v 32.94480387 -55.68471346 -3.20037286
v 32.94480387 -55.66553230 -1.92143305
v 32.30941888 -55.65593982 -0.64179216
v 32.94480387 -55.40659999 -0.06262310
v 32.94480387 -55.55045297 -0.65441329
f 1 2 3
f 1 3 4
f 1 4 5
f 1 5 15
f 1 15 6
f 1 6 8
f 1 8 2
f 2 7 3
f 2 8 25
f 2 25 7
f 3 7 9
f 3 9 4
f 4 9 10
f 4 10 11
f 4 11 5
f 5 11 12
f 5 12 13
f 5 13 14
f 5 14 33
f 5 33 15
f 6 15 16
f 6 16 17
f 6 17 18
f 6 18 19
f 6 19 20
f 6 20 8
f 7 21 22
f 7 22 23
f 7 23 24
f 7 24 9
f 7 25 42
f 7 42 21
f 8 20 25
f 9 24 26
f 9 26 10
f 10 26 27
f 10 27 28
f 10 28 11
f 11 28 29
f 11 29 12
f 12 30 31
f 12 31 13
f 12 29 30
f 13 31 14
f 14 31 32
f 14 32 53
f 14 53 33
f 15 33 34
f 15 34 16
f 16 35 17
f 16 34 35
f 17 35 36
f 17 36 37
f 17 37 38
f 17 38 18
f 18 38 39
f 18 39 19
f 19 39 40
f 19 40 20
f 20 40 41
f 20 41 25
f 21 42 69
f 21 69 39
f 21 39 68
f 21 68 67
f 21 67 66
f 21 66 65
f 21 65 64
f 21 64 88
f 21 88 98
f 21 98 90
f 21 90 70
f 21 70 45
f 21 45 44
f 21 44 43
f 21 43 24
f 21 24 23
f 21 23 22
f 24 43 26
f 25 41 42
f 26 43 44
f 26 44 45
f 26 45 46
f 26 46 47
f 26 47 27
f 27 47 48
f 27 48 28
f 28 48 29
f 29 48 49
f 29 49 30
f 30 50 51
f 30 51 31
f 30 49 50
f 31 51 52
f 31 52 32
f 32 52 53
f 33 53 34
f 34 53 54
f 34 54 55
f 34 55 35
f 35 55 56
f 35 56 57
f 35 57 58
f 35 58 59
f 35 59 60
f 35 60 36
f 36 60 58
f 36 58 61
f 36 61 62
f 36 62 63
f 36 63 37
f 37 63 38
f 38 63 62
f 38 62 64
f 38 64 65
f 38 65 66
f 38 66 67
f 38 67 68
f 38 68 39
f 39 69 40
f 40 69 42
f 40 42 41
f 45 70 47
f 45 47 46
f 47 70 71
f 47 71 72
f 47 72 48
f 48 72 73
f 48 73 49
f 49 73 50
f 50 74 75
f 50 75 51
f 50 73 92
f 50 92 74
f 51 75 52
f 52 76 53
f 52 75 77
f 52 77 78
f 52 78 97
f 52 97 102
f 52 102 103
f 52 103 100
f 52 100 99
f 52 99 90
f 52 90 98
f 52 98 86
f 52 86 85
f 52 85 84
f 52 84 83
f 52 83 82
f 52 82 81
f 52 81 80
f 52 80 96
f 52 96 76
f 53 76 79
f 53 79 54
f 54 79 80
f 54 80 55
f 55 80 81
f 55 81 82
f 55 82 83
f 55 83 56
f 56 83 57
f 57 83 84
f 57 84 58
f 58 84 85
f 58 85 86
f 58 86 87
f 58 87 61
f 58 60 59
f 61 87 64
f 61 64 62
f 64 87 86
f 64 86 88
f 70 89 71
f 70 90 99
f 70 99 89
f 71 89 91
f 71 91 72
f 72 91 92
f 72 92 73
f 74 93 75
f 74 92 94
f 74 94 95
f 74 95 93
f 75 93 77
f 76 96 79
f 77 93 78
f 78 93 97
f 79 96 80
f 86 98 88
f 89 99 100
f 89 100 101
f 89 101 91
f 91 101 94
f 91 94 92
f 93 95 97
f 94 101 95
f 95 102 97
f 95 101 102
f 100 103 101
f 101 103 102

