# https://github.com/mikedh/trimesh
v 64.72293269 36.43462982 -12.16034230
v 64.71607969 36.43462982 -12.37581950
v 64.67838579 36.43462982 -10.88010378
v 72.94703727 34.67900633 -10.88010378
v 72.94703727 34.67900633 -12.16034230
v 64.64411792 36.43462982 -13.43889783
v 72.94703727 34.66976474 -13.12662328
v 72.94703727 34.66668294 -13.43889783
v 64.16095216 36.43462982 -9.85237749
v 72.94703727 34.64204379 -10.66630956
v 64.59957102 36.43462982 -13.58703787
v 72.94703727 34.55118405 -14.04913639
v 64.13353824 36.43462982 -14.40686179
v 63.17405972 36.43462982 -9.48960125
v 72.94703727 34.52654109 -10.00472640
v 72.94703727 34.51268061 -14.24609609
v 63.02328413 36.43462982 -14.68210133
v 63.02328413 36.43462982 -9.44667440
v 72.94703727 34.33249823 -9.90456310
v 72.94703727 33.73189030 -14.52049271
v 48.45976510 36.43462982 -16.67105873
v 72.94703727 33.73189030 -9.59481444
v 37.94319149 36.43462982 -8.11004045
v 72.94703727 32.76475781 -14.60213851
v 48.45976510 20.70331128 -16.67105873
v 47.81211774 20.70331128 -16.69799207
v 47.66819611 36.43462982 -16.70388487
v 72.94703727 32.45213427 -14.62823179
v 72.94703727 32.45213427 -9.42142308
v 37.94319149 36.43462982 -16.70304195
v 37.94319149 31.17237443 -8.10499057
v 72.94703727 20.70331128 -9.35071901
v 72.94703727 20.70331128 -14.62823179
v 47.66819611 20.70331128 -16.70388487
v 47.52427447 36.43462982 -16.70388487
v 37.94319149 28.10003237 -16.70304195
v 37.94319149 30.05278052 -8.12519200
v 37.94319149 29.89261840 -8.13276683
v 41.27052779 20.70331128 -9.35071901
v 38.71077545 20.70331128 -16.70304195
v 37.94319149 20.70331128 -16.67610861
v 37.94319149 20.70331128 -10.39107097
v 37.97403238 20.70331128 -10.37086953
v 38.77245533 20.70331128 -9.84985254
v 39.64283909 20.70331128 -9.53926192
v 39.98893908 20.70331128 -9.44583243
v 40.94498967 20.70331128 -9.36586961
f 1 2 6
f 1 6 11
f 1 11 13
f 1 13 17
f 1 17 21
f 1 21 27
f 1 27 35
f 1 35 30
f 1 30 23
f 1 23 18
f 1 18 14
f 1 14 9
f 1 9 3
f 1 3 4
f 1 4 5
f 1 5 2
f 2 5 7
f 2 7 8
f 2 8 6
f 3 9 4
f 4 10 15
f 4 15 19
f 4 19 22
f 4 22 29
f 4 29 32
f 4 32 33
f 4 33 28
f 4 28 24
f 4 24 20
f 4 20 16
f 4 16 12
f 4 12 8
f 4 8 7
f 4 7 5
f 4 9 10
f 6 8 11
f 8 12 13
f 8 13 11
f 9 14 15
f 9 15 10
f 12 16 13
f 13 16 17
f 14 18 15
f 15 18 19
f 16 20 21
f 16 21 17
f 18 22 19
f 18 23 22
f 20 24 21
f 21 25 26
f 21 26 27
f 21 24 28
f 21 28 33
f 21 33 25
f 22 23 29
f 23 30 36
f 23 36 41
f 23 41 42
f 23 42 38
f 23 38 37
f 23 37 31
f 23 31 32
f 23 32 29
f 25 33 32
f 25 32 39
f 25 39 47
f 25 47 46
f 25 46 45
f 25 45 44
f 25 44 43
f 25 43 42
f 25 42 41
f 25 41 40
f 25 40 34
f 25 34 26
f 26 34 27
f 27 34 35
f 30 35 36
f 31 37 32
f 32 37 38
f 32 38 39
f 34 40 36
f 34 36 35
f 36 40 41
f 38 42 43
f 38 43 44
f 38 44 45
f 38 45 46
f 38 46 47
f 38 47 39

