# https://github.com/mikedh/trimesh
v 89.72435960 13.99509048 17.27708977
v 89.70736611 13.99509048 18.39914483
v 90.29727571 9.85916758 17.27708977
v 89.44518215 13.99509048 16.01541260
v 89.77533817 9.85916758 18.26024764
v 89.35050658 13.99509048 18.57430677
v 89.87487067 9.85916758 15.89283454
v 89.14779985 13.99509048 15.37532660
v 88.60765554 13.99509048 18.91774109
v 88.60765554 9.85916758 18.56052578
v 89.81782190 9.85916758 15.80362252
v 89.28738762 9.85916758 15.35864406
v 88.78123029 13.99509048 15.34740218
v 88.45714257 13.99509048 18.93224794
v 87.32708866 13.99509048 18.99933866
v 87.32708866 9.85916758 18.62906824
v 88.64042925 9.85916758 15.32237932
v 88.50690977 13.99509048 15.32673071
v 87.19842609 13.99509048 18.99970112
v 86.04652177 13.99509048 19.00042699
v 80.92668270 13.99509048 19.00078945
v 80.92668270 9.85916758 18.62906824
v 88.29570820 9.85916758 15.31331218
v 87.32708866 13.99509048 15.29626718
v 79.64733100 13.99509048 18.97757982
v 79.64733100 9.85916758 18.62652914
v 80.08308780 9.85916758 18.62797992
v 87.32708866 9.85916758 15.29590473
v 79.64733100 13.99509048 15.29626718
v 79.54658523 13.99509048 18.93587442
v 78.41531614 9.85916758 18.31972296
v 78.74547216 9.85916758 18.43287142
v 80.92668270 9.85916758 15.29590473
v 79.64733100 9.85916758 15.29626718
v 78.65564968 9.85916758 15.32274178
v 79.25041620 13.99509048 15.31367464
v 78.44201965 13.99509048 18.45716937
v 77.89823361 9.85916758 17.27708977
v 78.95303294 13.99509048 15.32673071
v 78.19197609 9.85916758 15.99727928
v 78.27937011 13.99509048 18.02488452
v 78.21989288 13.99509048 17.27708977
v 78.13492733 9.85916758 16.21378511
v 78.73090617 13.99509048 15.71005720
v 78.35219813 13.99509048 16.72911735
v 78.56582816 13.99509048 15.99727928
f 1 2 3
f 1 3 4
f 1 4 8
f 1 8 13
f 1 13 18
f 1 18 24
f 1 24 29
f 1 29 36
f 1 36 39
f 1 39 44
f 1 44 46
f 1 46 45
f 1 45 42
f 1 42 41
f 1 41 37
f 1 37 30
f 1 30 25
f 1 25 21
f 1 21 20
f 1 20 19
f 1 19 15
f 1 15 14
f 1 14 9
f 1 9 6
f 1 6 2
f 2 5 3
f 2 6 5
f 3 5 10
f 3 10 16
f 3 16 22
f 3 22 27
f 3 27 26
f 3 26 32
f 3 32 31
f 3 31 38
f 3 38 43
f 3 43 40
f 3 40 35
f 3 35 34
f 3 34 33
f 3 33 28
f 3 28 23
f 3 23 17
f 3 17 12
f 3 12 11
f 3 11 7
f 3 7 4
f 4 7 8
f 5 6 9
f 5 9 10
f 7 11 8
f 8 11 12
f 8 12 13
f 9 14 10
f 10 14 15
f 10 15 16
f 12 17 18
f 12 18 13
f 15 19 16
f 16 19 20
f 16 20 21
f 16 21 22
f 17 23 18
f 18 23 24
f 21 25 26
f 21 26 27
f 21 27 22
f 23 28 24
f 24 28 33
f 24 33 29
f 25 30 31
f 25 31 32
f 25 32 26
f 29 33 34
f 29 34 35
f 29 35 36
f 30 37 31
f 31 37 38
f 35 39 36
f 35 40 39
f 37 41 38
f 38 41 42
f 38 42 43
f 39 40 44
f 40 43 45
f 40 45 46
f 40 46 44
f 42 45 43

