# https://github.com/mikedh/trimesh
v 103.96663479 9.42268968 22.56126858
v 104.79924344 12.41364263 22.63204110
v 105.24885371 11.98261685 22.60999706
v 107.26931666 8.72084393 22.99402367
v 103.96663479 8.56874473 22.79910976
v 100.65285031 8.71893627 22.99286381
v 72.93252254 7.54315273 25.60563810
v 101.40775207 11.98261685 22.80607083
v 101.40775207 12.41364263 22.81071219
v 105.25995633 12.41364263 22.65176446
v 127.62383143 7.54315273 25.61840039
v 107.91875117 7.54315273 24.72852550
v 101.40775207 7.54315273 24.78885641
v 98.95432897 7.54315273 24.82714280
v 72.93252254 7.54315273 34.41389110
v 72.93252254 12.41364263 26.32032244
v 101.14686724 12.41364263 22.83739662
v 128.28991988 12.41364263 26.48391152
v 127.69599464 7.54315273 25.63116268
v 72.93252254 12.41364263 34.41389110
v 129.63319176 7.54315273 34.41389110
v 128.78948431 12.41364263 26.65330085
v 128.40648593 7.54315273 25.86204278
v 129.63319176 12.41364263 34.41389110
v 129.63319176 7.54315273 28.79851397
v 129.63874688 10.20845272 34.41389110
v 129.05036914 12.41364263 26.76235976
v 129.17803781 7.54315273 26.43518304
v 129.63874688 10.70241528 34.41389110
v 129.63319176 12.41364263 28.79851397
v 129.63874688 10.70241528 33.91964525
v 129.51107821 7.54315273 27.51997136
v 129.28350124 12.41364263 27.25776595
v 129.40561478 12.41364263 27.51997136
v 129.56103618 12.41364263 28.36923919
f 1 2 3
f 1 3 4
f 1 4 5
f 1 5 6
f 1 6 7
f 1 7 8
f 1 8 9
f 1 9 2
f 2 10 3
f 2 9 17
f 2 17 16
f 2 16 20
f 2 20 24
f 2 24 30
f 2 30 35
f 2 35 34
f 2 34 33
f 2 33 27
f 2 27 22
f 2 22 18
f 2 18 10
f 3 10 11
f 3 11 4
f 4 11 5
f 5 11 12
f 5 12 13
f 5 13 14
f 5 14 7
f 5 7 6
f 7 14 13
f 7 13 12
f 7 12 11
f 7 11 19
f 7 19 23
f 7 23 28
f 7 28 32
f 7 32 25
f 7 25 21
f 7 21 15
f 7 15 20
f 7 20 16
f 7 16 17
f 7 17 9
f 7 9 8
f 10 18 11
f 11 18 19
f 15 21 26
f 15 26 29
f 15 29 24
f 15 24 20
f 18 22 23
f 18 23 19
f 21 25 26
f 22 27 23
f 23 27 28
f 24 29 31
f 24 31 30
f 25 30 31
f 25 31 26
f 25 32 30
f 26 31 29
f 27 33 28
f 28 33 34
f 28 34 32
f 30 32 35
f 32 34 35

