# https://github.com/mikedh/trimesh
v 16.64088372 3.74837114 20.19796078
v 16.64088372 5.92173641 15.72386108
v 16.91645377 3.54894941 20.19796078
v 16.64088372 34.87177363 20.19796078
v 16.64088372 6.18537973 15.34430032
v 18.19673832 5.56345185 15.99737371
v 16.91645377 5.70541371 15.99737371
v 18.19673832 3.41712776 20.19796078
v 16.64418017 34.88191096 20.19796078
v 16.64088372 34.88191096 20.18836331
v 16.64088372 6.86476747 15.31886922
v 16.91645377 6.86476747 15.30783146
v 16.91645377 6.16171894 15.33854298
v 18.19673832 6.12791891 15.32654566
v 18.94433753 6.17185914 15.33662387
v 20.05914728 3.72132997 20.19796078
v 19.07750791 3.42388662 20.19796078
v 16.91645377 35.00697376 20.19796078
v 16.64088372 34.88191096 17.27760770
v 18.14135876 35.56468005 20.19796078
v 16.64088372 7.15545101 15.31071203
v 16.64088372 8.41958525 15.29631487
v 18.19673832 6.86476747 15.29583605
v 19.79807931 6.55718392 15.63268988
v 19.41307407 5.95891683 16.03480117
v 19.41307407 6.93574792 15.32270744
v 20.14023455 7.41233355 15.34046209
v 21.59851964 4.73872282 20.19796078
v 16.64088372 34.63178919 16.22434118
v 23.31655259 37.91718759 17.27760770
v 21.32492593 36.97753596 16.55639628
v 18.67997693 35.73706060 16.47290249
v 23.37588483 37.94422686 20.19796078
v 16.64088372 31.18414756 15.29631487
v 19.47701905 8.14242230 15.30159339
v 16.91645377 32.46518373 15.29631487
v 19.47701905 33.74621990 15.29631487
v 22.03626804 35.02387187 15.29631487
v 23.37588483 35.02387187 15.29631487
v 23.37588483 27.34442326 15.29631487
v 23.31655259 26.06338900 15.29631487
v 20.15408039 6.17185914 16.48633819
v 20.15276410 8.14242230 15.33182418
v 23.37588483 26.06001052 15.29727634
v 23.37588483 26.02620858 15.29823589
v 23.37588483 25.21837861 15.32702640
v 21.79497876 5.86765597 20.19796078
v 16.91645377 34.69600887 16.14324724
v 17.57835298 34.36476548 15.35869557
v 16.64088372 34.23294192 15.78384193
v 19.47701905 35.91620574 16.21330533
v 23.37588483 37.94084647 17.27760770
v 22.03626804 37.13977537 16.29823846
v 23.37588483 22.47040799 20.19796078
v 16.64088372 32.46518373 15.29775516
v 16.64088372 33.41159232 15.32798595
v 23.37588483 36.28124916 15.31982877
v 23.37588483 24.54575259 15.90428245
v 21.93869853 6.99320874 20.19796078
v 18.43143470 34.45602443 15.33710269
v 16.91645377 34.11126332 15.50313072
v 16.64088372 34.06394175 15.60533776
v 23.34292035 37.36285788 15.90236333
v 23.37588483 37.33582243 15.86061596
v 22.93351988 36.69022995 15.41243835
v 21.15483839 35.72353906 15.33710269
v 23.37588483 37.37637942 15.90332289
v 23.37588483 36.33194730 15.32174788
f 1 2 3
f 1 3 8
f 1 8 17
f 1 17 16
f 1 16 28
f 1 28 47
f 1 47 59
f 1 59 54
f 1 54 33
f 1 33 20
f 1 20 18
f 1 18 9
f 1 9 4
f 1 4 10
f 1 10 19
f 1 19 29
f 1 29 50
f 1 50 62
f 1 62 56
f 1 56 55
f 1 55 34
f 1 34 22
f 1 22 21
f 1 21 11
f 1 11 5
f 1 5 2
f 2 5 6
f 2 6 7
f 2 7 3
f 3 7 6
f 3 6 8
f 4 9 10
f 5 11 12
f 5 12 13
f 5 13 6
f 6 13 14
f 6 14 15
f 6 15 16
f 6 16 17
f 6 17 8
f 9 18 10
f 10 18 20
f 10 20 19
f 11 21 12
f 12 21 22
f 12 22 23
f 12 23 14
f 12 14 13
f 14 23 15
f 15 24 25
f 15 25 16
f 15 23 26
f 15 26 27
f 15 27 24
f 16 25 28
f 19 20 30
f 19 30 31
f 19 31 32
f 19 32 29
f 20 33 30
f 22 34 23
f 23 35 26
f 23 34 36
f 23 36 37
f 23 37 38
f 23 38 39
f 23 39 40
f 23 40 41
f 23 41 35
f 24 42 25
f 24 27 42
f 25 42 28
f 26 35 27
f 27 28 42
f 27 35 43
f 27 43 44
f 27 44 45
f 27 45 46
f 27 46 28
f 28 46 47
f 29 48 49
f 29 49 50
f 29 32 51
f 29 51 48
f 30 33 52
f 30 52 31
f 31 52 53
f 31 53 32
f 32 53 51
f 33 54 58
f 33 58 46
f 33 46 45
f 33 45 44
f 33 44 40
f 33 40 39
f 33 39 57
f 33 57 68
f 33 68 64
f 33 64 67
f 33 67 52
f 34 55 36
f 35 41 44
f 35 44 43
f 36 55 37
f 37 55 38
f 38 55 56
f 38 56 57
f 38 57 39
f 40 44 41
f 46 58 59
f 46 59 47
f 48 51 49
f 49 60 56
f 49 56 61
f 49 61 62
f 49 62 50
f 49 51 53
f 49 53 63
f 49 63 64
f 49 64 65
f 49 65 66
f 49 66 60
f 52 67 53
f 53 67 63
f 54 59 58
f 56 62 61
f 56 60 66
f 56 66 57
f 57 66 68
f 63 67 64
f 64 68 65
f 65 68 66

