# https://github.com/mikedh/trimesh
v 0.32279274 -37.94413296 23.67814910
v 0.48211341 -46.90074517 22.39861427
v 0.48268571 -53.30430450 22.39861427
v 0.32734824 -44.33932144 23.67814910
v 0.61526089 -44.33932144 24.76275572
v 0.61810713 -37.94413296 24.78024902
v 0.32279274 -3.38165237 23.67814910
v 0.47927480 23.49655703 22.39861427
v 0.78141101 -53.30430450 21.58541040
v 0.79563457 -54.58501637 21.60240389
v 0.56518846 -54.58501637 22.39861427
v 0.36206014 -53.30430450 23.67814910
v 0.64826352 -50.74288077 24.74076318
v 1.55355426 -53.30430450 25.20909339
v 1.55355426 -31.54057363 25.24158142
v 1.55355426 3.01353707 25.24208123
v 0.61810713 -3.38165237 24.78024902
v 0.33474236 24.77726890 23.67814910
v 0.48382268 24.77726890 22.39861427
v 0.78141101 26.05798076 21.58641002
v 0.78084634 24.77726890 21.58641002
v 1.55355426 -39.22484482 20.95363992
v 1.55355426 -50.74288077 20.95413973
v 1.55355426 -53.30430450 20.95463954
v 1.55355426 -7.22378796 20.95363992
v 1.55355426 -54.58501637 20.99812384
v 0.84400536 -55.29652253 21.66538073
v 0.78084634 -55.34674758 22.39861427
v 0.60615751 -54.63524141 23.67165159
v 0.70914860 -54.23344870 24.66129219
v 0.66135011 -53.30430450 24.72876778
v 1.55355426 -54.30878627 24.79374433
v 6.13517768 -53.30430450 25.45300476
v 6.13517768 -46.90074517 25.47349691
v 2.83381210 -40.50555669 25.30056027
v 2.83381210 -34.10199736 25.30805740
v 6.13517768 15.81228584 25.47649624
v 6.13517768 22.22421601 25.47199749
v 2.83381210 22.22421601 25.28656515
v 1.55355426 24.77726890 25.20659435
v 0.63176602 24.77726890 24.77375151
v 0.70972090 25.67292974 24.65129601
v 0.62949208 26.08309328 23.62216958
v 0.57941966 26.05798076 22.39861427
v 0.82636326 26.91178740 21.64338915
v 1.55355426 26.05798076 20.95413973
v 2.27277503 26.05798076 20.48630933
v 2.27846370 -40.50555669 20.48680914
v 2.27903218 -45.62003331 20.48680914
v 2.27960448 -53.30430450 20.48730895
v 2.27391200 11.97852109 20.48630933
v 2.27448049 5.57495985 20.48630933
v 2.37917704 -54.58501637 20.51429957
v 3.23666929 -55.25467215 20.45582005
v 1.55355426 -55.39697262 21.39997759
v 1.55355426 -55.50578973 22.39861427
v 0.80588255 -55.31326421 23.24080894
v 6.13517768 -54.46782842 24.87571437
v 1.55355426 -54.95332571 23.88957291
v 6.13517768 -54.74405852 24.50534904
v 6.13517768 -18.74182391 25.47599595
v 6.13517768 24.76889806 25.36053826
v 4.11350527 26.05798076 25.18010354
v 1.55355426 25.92405113 24.84122710
v 2.16068055 27.99160291 23.05137766
v 0.84173142 26.83645365 23.15833861
v 0.79393293 26.95364160 22.39861427
v 1.35155528 27.59818486 22.39861427
v 1.95754460 28.09205300 21.42696726
v 1.53989537 27.33869263 21.23803579
v 2.37633461 27.33869263 20.55378445
v 3.01646353 27.33869263 20.42483192
v 2.91290395 26.05798076 20.42483192
v 2.91347244 18.38208041 20.42483192
v 2.91973340 -53.30430450 20.42483192
v 3.01930977 -54.58501637 20.43482809
v 2.91859643 -41.77789771 20.42483192
v 2.91916492 -48.18145704 20.42483192
v 4.11350527 -55.26303917 20.44482427
v 4.11350527 -55.50578973 21.11807981
v 2.81958854 -55.43045598 21.01511733
v 4.11350527 -54.58501637 20.39134379
v 2.83381210 -55.53927309 22.39861427
v 1.55355426 -55.33837674 23.24930568
v 6.13517768 -55.32163505 23.39375323
v 6.13517768 26.16679787 25.02066173
v 6.13517768 29.54017786 23.27979401
v 3.06995069 26.85319534 24.55533085
v 2.71944369 26.18353955 24.89270834
v 4.83158908 29.21372271 22.96990695
v 6.13517768 29.94197056 22.43010316
v 4.59659128 29.33091066 22.11721630
v 1.99168801 28.07531132 22.39861427
v 4.59659128 29.33091066 21.45645692
v 5.37612865 29.50669449 21.06509915
v 4.93742260 29.07979308 20.60326741
v 2.82015703 28.27620767 21.04710508
v 3.23723777 28.05856964 20.44232522
v 4.11350527 27.33869263 20.37085164
v 4.11350527 24.77726890 20.37085164
v 4.11350527 -53.30430450 20.37135145
v 6.13517768 -54.97843823 20.42233288
v 6.13517768 -55.26303917 20.44482427
v 6.13517768 -55.40534346 20.83468261
v 6.13517768 -55.50578973 21.11807981
v 6.13517768 -55.54764393 21.85931029
v 6.13517768 -55.57275645 22.39861427
v 6.13517768 -54.04092319 20.38284704
v 6.13517768 -54.58501637 20.39134379
v 6.13517768 -55.43045598 23.04287996
v 6.13517768 29.81640796 21.11308173
v 5.79093164 29.33091066 20.44232522
v 4.11350527 28.21761179 20.42483192
v 6.13517768 29.05468056 20.41483575
v 6.13517768 28.62777533 20.38884475
v 6.13517768 27.33869263 20.37085164
v 5.39376693 -50.74288077 20.37085164
v 6.13517768 -52.02359264 20.37085164
v 6.13517768 -53.30430450 20.37135145
v 6.13517768 29.37276486 20.43532790
f 1 2 3
f 1 3 4
f 1 4 5
f 1 5 6
f 1 6 17
f 1 17 7
f 1 7 8
f 1 8 2
f 2 9 3
f 2 8 9
f 3 9 10
f 3 10 11
f 3 11 12
f 3 12 4
f 4 12 5
f 5 12 13
f 5 13 14
f 5 14 6
f 6 14 15
f 6 15 16
f 6 16 17
f 7 17 18
f 7 18 8
f 8 18 19
f 8 19 20
f 8 20 21
f 8 21 9
f 9 22 23
f 9 23 24
f 9 24 10
f 9 21 25
f 9 25 22
f 10 24 26
f 10 26 27
f 10 27 11
f 11 27 28
f 11 28 29
f 11 29 12
f 12 29 30
f 12 30 31
f 12 31 13
f 13 31 14
f 14 31 30
f 14 30 32
f 14 32 33
f 14 33 34
f 14 34 35
f 14 35 15
f 15 35 34
f 15 34 36
f 15 36 16
f 16 37 38
f 16 38 39
f 16 39 40
f 16 40 41
f 16 41 17
f 16 36 37
f 17 41 18
f 18 41 42
f 18 42 43
f 18 43 44
f 18 44 19
f 19 44 45
f 19 45 20
f 20 45 46
f 20 46 21
f 21 46 25
f 22 25 47
f 22 47 23
f 23 48 49
f 23 49 50
f 23 50 24
f 23 47 51
f 23 51 52
f 23 52 48
f 24 50 26
f 25 46 47
f 26 50 53
f 26 53 27
f 27 53 54
f 27 54 55
f 27 55 56
f 27 56 28
f 28 56 57
f 28 57 29
f 29 57 30
f 30 57 32
f 32 58 33
f 32 57 59
f 32 59 60
f 32 60 58
f 33 58 60
f 33 60 85
f 33 85 110
f 33 110 107
f 33 107 106
f 33 106 105
f 33 105 104
f 33 104 103
f 33 103 102
f 33 102 109
f 33 109 108
f 33 108 119
f 33 119 118
f 33 118 116
f 33 116 115
f 33 115 114
f 33 114 120
f 33 120 111
f 33 111 91
f 33 91 87
f 33 87 86
f 33 86 62
f 33 62 38
f 33 38 37
f 33 37 61
f 33 61 34
f 34 61 36
f 36 61 37
f 38 62 40
f 38 40 39
f 40 62 63
f 40 63 64
f 40 64 42
f 40 42 41
f 42 64 65
f 42 65 66
f 42 66 43
f 43 66 67
f 43 67 44
f 44 67 45
f 45 67 68
f 45 68 69
f 45 69 70
f 45 70 71
f 45 71 46
f 46 71 47
f 47 71 72
f 47 72 73
f 47 73 74
f 47 74 51
f 48 52 49
f 49 52 75
f 49 75 50
f 50 75 76
f 50 76 53
f 51 74 77
f 51 77 78
f 51 78 52
f 52 78 75
f 53 76 54
f 54 79 80
f 54 80 81
f 54 81 55
f 54 76 82
f 54 82 79
f 55 81 56
f 56 80 83
f 56 83 84
f 56 84 57
f 56 81 80
f 57 84 59
f 59 84 60
f 60 84 85
f 62 86 63
f 63 86 87
f 63 87 88
f 63 88 89
f 63 89 64
f 64 89 88
f 64 88 87
f 64 87 65
f 65 87 90
f 65 90 91
f 65 91 92
f 65 92 93
f 65 93 68
f 65 68 66
f 66 68 67
f 68 93 69
f 69 93 92
f 69 92 94
f 69 94 95
f 69 95 96
f 69 96 97
f 69 97 98
f 69 98 71
f 69 71 70
f 71 98 72
f 72 98 99
f 72 99 73
f 73 99 100
f 73 100 74
f 74 100 77
f 75 78 100
f 75 100 101
f 75 101 76
f 76 101 82
f 77 100 78
f 79 82 102
f 79 102 103
f 79 103 104
f 79 104 80
f 80 104 105
f 80 105 106
f 80 106 107
f 80 107 83
f 82 108 109
f 82 109 102
f 82 101 108
f 83 107 110
f 83 110 84
f 84 110 85
f 87 91 90
f 91 111 94
f 91 94 92
f 94 111 95
f 95 111 112
f 95 112 96
f 96 112 98
f 96 98 97
f 98 113 99
f 98 112 113
f 99 113 114
f 99 114 115
f 99 115 116
f 99 116 118
f 99 118 117
f 99 117 100
f 100 117 101
f 101 117 118
f 101 118 119
f 101 119 108
f 111 120 112
f 112 114 113
f 112 120 114

