# https://github.com/mikedh/trimesh
v 49.94999121 14.08452379 18.28753299
v 49.77506965 14.08452379 17.27708500
v 49.69837287 14.08452379 18.43750133
v 51.66018747 8.14310524 18.62753448
v 51.66018747 9.20582330 18.27172798
v 51.66018747 9.27048270 18.13278595
v 51.66018747 9.66782959 17.27708500
v 51.66018747 9.30802748 15.99720774
v 49.60149299 14.08452379 16.45483212
v 48.92064302 14.08452379 18.80580590
v 51.66018747 7.04075638 18.62900529
v 48.84663891 14.08452379 18.82565517
v 47.66389717 14.08452379 19.03921271
v 47.64102425 14.08452379 19.04178520
v 51.66018747 9.24441062 15.90384559
v 49.07403657 14.08452379 15.81452483
v 51.66018747 8.84706468 15.32676123
v 51.66018747 5.58277842 18.62900529
v 46.36005866 14.08452379 19.05097443
v 48.66364410 14.08452379 15.50135659
v 51.66018747 8.75007415 15.32235071
v 48.43355282 14.08452379 15.32676123
v 51.66018747 4.48042955 18.41655038
v 38.67964668 5.58277842 18.62900529
v 37.91537255 14.08452379 19.04913734
v 51.66018747 8.14310524 15.29625192
v 47.92493461 14.08452379 15.30691196
v 51.66018747 4.30209326 18.38199873
v 43.80081730 4.30209326 18.38199873
v 37.91537255 5.58277842 18.62790265
v 37.91537255 4.81624466 18.48013958
v 38.67964668 4.30209326 18.38163055
v 37.91537255 14.08452379 15.29625192
v 51.66018747 5.58277842 15.29625192
v 47.64102425 14.08452379 15.29625192
v 51.66018747 3.67739450 18.07581349
v 37.91537255 3.57623286 18.02582405
v 45.08043798 3.57623286 18.02619128
v 37.91537255 4.30209326 18.38052792
v 37.91537255 3.86824509 18.16880842
v 37.91537255 5.58277842 15.29625192
v 51.66018747 5.47640217 15.30029617
v 51.66018747 3.57623286 18.02619128
v 37.91537255 3.43126929 17.27708500
v 51.66018747 3.45108422 17.38147442
v 37.91537255 5.27616492 15.30838277
v 51.66018747 4.82041577 15.32676123
v 37.91537255 4.82041577 15.32676123
v 51.66018747 3.43126929 17.27708500
v 37.91537255 3.48237186 16.69264945
v 51.66018747 3.50427187 16.43608548
v 51.66018747 4.18007415 15.65941057
v 37.91537255 4.56281881 15.46055542
v 37.91537255 3.51678711 16.29971690
v 51.66018747 3.51678711 16.29971690
v 42.52119853 4.18007415 15.65941057
v 37.91537255 4.18007415 15.65977875
f 1 2 9
f 1 9 16
f 1 16 20
f 1 20 22
f 1 22 27
f 1 27 35
f 1 35 33
f 1 33 25
f 1 25 19
f 1 19 14
f 1 14 13
f 1 13 12
f 1 12 10
f 1 10 3
f 1 3 4
f 1 4 5
f 1 5 6
f 1 6 7
f 1 7 8
f 1 8 2
f 2 8 9
f 3 10 4
f 4 11 18
f 4 18 23
f 4 23 28
f 4 28 36
f 4 36 43
f 4 43 45
f 4 45 49
f 4 49 51
f 4 51 55
f 4 55 52
f 4 52 47
f 4 47 42
f 4 42 34
f 4 34 26
f 4 26 21
f 4 21 17
f 4 17 15
f 4 15 8
f 4 8 7
f 4 7 6
f 4 6 5
f 4 10 12
f 4 12 13
f 4 13 14
f 4 14 11
f 8 15 9
f 9 15 17
f 9 17 16
f 11 14 18
f 14 19 18
f 16 17 20
f 17 21 22
f 17 22 20
f 18 19 24
f 18 24 23
f 19 25 24
f 21 26 22
f 22 26 27
f 23 24 29
f 23 29 28
f 24 25 30
f 24 30 31
f 24 31 32
f 24 32 29
f 25 33 41
f 25 41 46
f 25 46 48
f 25 48 53
f 25 53 57
f 25 57 54
f 25 54 50
f 25 50 44
f 25 44 37
f 25 37 40
f 25 40 39
f 25 39 31
f 25 31 30
f 26 34 41
f 26 41 33
f 26 33 35
f 26 35 27
f 28 29 36
f 29 32 37
f 29 37 38
f 29 38 36
f 31 39 32
f 32 39 40
f 32 40 37
f 34 42 41
f 36 38 43
f 37 44 45
f 37 45 38
f 38 45 43
f 41 42 46
f 42 47 48
f 42 48 46
f 44 49 45
f 44 50 51
f 44 51 49
f 47 52 53
f 47 53 48
f 50 54 51
f 51 54 55
f 52 55 54
f 52 54 56
f 52 56 53
f 53 56 57
f 54 57 56

