# https://github.com/mikedh/trimesh
v 115.51046092 14.57253914 -9.84833262
v 115.51046092 14.57253914 -9.03652120
v 115.51046092 14.58628138 -9.85080321
v 116.52700902 14.57253914 -9.85080321
v 127.01473651 14.57253914 -9.03652120
v 115.51046092 19.88576057 -9.03652120
v 115.51046092 42.17490382 -9.85080321
v 127.01473651 14.57253914 -9.85080321
v 127.57764197 14.64950216 -9.03652120
v 115.51046092 20.00670410 -9.03795625
v 124.46991260 41.41076591 -9.03652120
v 115.51046092 41.41076591 -9.50782603
v 125.70636703 42.45252146 -9.03652120
v 127.01473651 42.65042801 -9.03652120
v 127.01473651 42.64767804 -9.85080321
v 128.04373386 14.71547101 -9.85080321
v 128.29406536 14.74845544 -9.03652120
v 115.51046092 40.12987709 -9.41114215
v 124.68428466 41.77359459 -9.03652120
v 124.93600068 42.13367329 -9.03652120
v 115.51046092 40.14361933 -9.41209853
v 128.14193194 42.32333373 -9.03652120
v 128.14193194 42.32333373 -9.85080321
v 127.23464285 42.58445916 -9.85080321
v 128.29406536 14.75120350 -9.85080321
v 128.63568377 14.88314120 -9.03652120
v 128.78228672 41.90553229 -9.03652120
v 128.65642871 41.98799335 -9.85080321
v 128.91229448 14.99583672 -9.85080321
v 129.06305100 15.05355946 -9.59996635
v 129.06443171 15.05355946 -9.03652120
v 129.02985299 41.54820356 -9.03652120
v 128.78228672 41.90553229 -9.85080321
v 129.06166267 15.05630944 -9.85080321
v 129.41296510 15.81769737 -9.85080321
v 129.26220858 15.47960702 -9.03652120
v 129.22486844 41.26508597 -9.85080321
v 129.22486844 41.26508597 -9.03652120
v 129.41434581 15.81769737 -9.59996635
v 129.45721641 16.06782672 -9.85080321
v 129.41710722 15.81769737 -9.03652120
v 129.50839414 40.35251815 -9.85080321
v 129.57754396 40.12987709 -9.03652120
v 129.63701356 17.09583812 -9.85080321
v 129.54158453 16.53235674 -9.03652120
v 129.57754396 40.12987709 -9.85080321
v 129.63840190 38.85173444 -9.03652120
v 129.63701356 17.09583812 -9.03652120
v 129.63840190 37.82097497 -9.85080321
v 129.63840190 37.00736042 -9.03652120
v 129.63840190 38.85173444 -9.85080321
f 1 2 6
f 1 6 10
f 1 10 18
f 1 18 21
f 1 21 12
f 1 12 7
f 1 7 3
f 1 3 4
f 1 4 8
f 1 8 5
f 1 5 2
f 2 5 9
f 2 9 17
f 2 17 26
f 2 26 31
f 2 31 36
f 2 36 41
f 2 41 45
f 2 45 48
f 2 48 50
f 2 50 47
f 2 47 43
f 2 43 38
f 2 38 32
f 2 32 27
f 2 27 22
f 2 22 14
f 2 14 13
f 2 13 20
f 2 20 19
f 2 19 11
f 2 11 6
f 3 7 15
f 3 15 24
f 3 24 23
f 3 23 28
f 3 28 33
f 3 33 37
f 3 37 42
f 3 42 46
f 3 46 51
f 3 51 49
f 3 49 44
f 3 44 40
f 3 40 35
f 3 35 34
f 3 34 29
f 3 29 25
f 3 25 16
f 3 16 8
f 3 8 4
f 5 8 9
f 6 11 10
f 7 12 13
f 7 13 14
f 7 14 15
f 8 16 17
f 8 17 9
f 10 11 18
f 11 19 18
f 12 20 13
f 12 21 20
f 14 22 23
f 14 23 24
f 14 24 15
f 16 25 17
f 17 25 26
f 18 19 20
f 18 20 21
f 22 27 28
f 22 28 23
f 25 29 30
f 25 30 26
f 26 30 31
f 27 32 33
f 27 33 28
f 29 34 30
f 30 34 35
f 30 35 36
f 30 36 31
f 32 37 33
f 32 38 37
f 35 39 36
f 35 40 39
f 36 39 41
f 37 38 42
f 38 43 42
f 39 40 41
f 40 44 41
f 41 44 45
f 42 43 46
f 43 47 51
f 43 51 46
f 44 48 45
f 44 49 50
f 44 50 48
f 47 50 49
f 47 49 51

