# https://github.com/mikedh/trimesh
v 72.95046329 9.66752285 -14.71942049
v 72.95046329 9.20347150 -13.72539472
v 72.95046329 9.30971450 -15.99889904
v 51.70482055 9.31032571 -15.99889904
v 52.78831486 9.66752285 -14.71942049
v 72.95046329 8.13676214 -13.37110774
v 52.78831486 9.20347150 -13.72539472
v 72.95046329 8.95984331 -16.50684031
v 51.70482055 8.84627341 -16.67126088
v 51.70482055 9.66691259 -14.71942049
v 72.95046329 7.82413764 -13.37110774
v 52.78831486 8.13676214 -13.37110774
v 51.70482055 9.27491074 -13.88035439
v 51.70482055 9.20286029 -13.72637304
v 51.70482055 8.30223350 -13.42689292
v 72.95046329 8.84627341 -16.67126088
v 51.70482055 8.13676214 -16.70355876
v 69.42338729 8.13676214 -16.70388487
v 72.95046329 5.57775927 -13.37143385
v 51.70482055 5.57775927 -13.37143385
v 51.70482055 8.13676214 -13.37208606
v 51.70482055 7.05539896 -13.37143385
v 72.95046329 8.13676214 -16.70388487
v 51.70482055 5.57775927 -16.70355876
v 72.95046329 5.26513477 -13.43178642
v 52.78831486 4.29795175 -13.61839081
v 51.70482055 4.29795175 -13.61839081
v 72.95046329 5.57775927 -16.70355876
v 51.70482055 5.45869324 -16.69866526
v 72.95046329 4.29795175 -13.61871692
v 61.74534172 3.57317641 -13.97267779
v 72.95046329 4.12087978 -13.70516849
v 51.70482055 3.57317641 -13.97267779
v 72.95046329 4.80901964 -16.67126088
v 51.70482055 4.80901964 -16.67126088
v 51.70482055 3.45227866 -14.60360885
v 72.95046329 3.43029699 -14.71942049
v 72.95046329 3.53837170 -14.15536699
v 72.95046329 3.57378667 -13.97300389
v 68.14232683 3.57378667 -13.97267779
v 72.95046329 4.16911683 -16.33589570
v 51.70482055 4.16911683 -16.33589570
v 51.70482055 3.43029699 -14.71942049
v 72.95046329 3.51455926 -15.69583080
v 51.70482055 3.51455926 -15.69583080
f 1 2 6
f 1 6 11
f 1 11 19
f 1 19 25
f 1 25 30
f 1 30 32
f 1 32 39
f 1 39 38
f 1 38 37
f 1 37 44
f 1 44 41
f 1 41 34
f 1 34 28
f 1 28 23
f 1 23 16
f 1 16 8
f 1 8 3
f 1 3 4
f 1 4 5
f 1 5 7
f 1 7 2
f 2 7 12
f 2 12 6
f 3 8 4
f 4 9 17
f 4 17 24
f 4 24 29
f 4 29 35
f 4 35 42
f 4 42 45
f 4 45 43
f 4 43 36
f 4 36 33
f 4 33 27
f 4 27 20
f 4 20 22
f 4 22 21
f 4 21 15
f 4 15 14
f 4 14 13
f 4 13 10
f 4 10 5
f 4 8 9
f 5 10 7
f 6 12 11
f 7 10 13
f 7 13 14
f 7 14 15
f 7 15 12
f 8 16 9
f 9 16 23
f 9 23 18
f 9 18 17
f 11 12 20
f 11 20 19
f 12 15 21
f 12 21 22
f 12 22 20
f 17 18 24
f 18 23 28
f 18 28 24
f 19 20 27
f 19 27 26
f 19 26 25
f 24 28 29
f 25 26 30
f 26 27 33
f 26 33 31
f 26 31 32
f 26 32 30
f 28 34 29
f 29 34 35
f 31 33 36
f 31 36 37
f 31 37 38
f 31 38 39
f 31 39 40
f 31 40 32
f 32 40 39
f 34 41 42
f 34 42 35
f 36 43 37
f 37 43 45
f 37 45 44
f 41 44 45
f 41 45 42

