# https://github.com/mikedh/trimesh
v 127.01255406 4.30194160 23.65245379
v 103.96623418 5.58173779 23.82099612
v 127.01255406 5.57479579 23.84311742
v 128.28920260 5.44085376 23.94529680
v 128.32805795 4.23578755 23.94424282
v 127.92841327 3.57832939 24.19284323
v 127.01255406 3.53667740 24.12858635
v 103.96623418 3.53667740 24.12858635
v 72.93252254 3.72370501 24.01271326
v 72.93252254 4.30194160 23.65350777
v 107.91830096 7.54267582 24.72901911
v 72.93252254 4.61311062 23.69985644
v 72.93252254 5.57479579 23.84311742
v 127.01255406 6.21469388 24.32557055
v 128.28920260 6.08075185 24.45619086
v 129.07739696 5.18481345 24.13806697
v 129.07739696 4.61841965 24.13806697
v 128.16708905 3.52646852 24.95865780
v 127.01255406 3.39130177 24.95865780
v 128.80541714 3.74534844 24.95865780
v 72.93252254 3.39130177 24.95865780
v 72.93252254 3.53667740 24.12963986
v 101.40738199 7.54267582 24.78906196
v 127.62312560 7.54267582 25.61808038
v 72.93252254 6.21469388 24.32557055
v 98.95399322 7.54267582 24.82698398
v 127.69528499 7.54267582 25.63072106
v 128.40576865 7.54267582 25.86246724
v 129.08849957 6.47400108 25.35157270
v 129.17730526 7.54267582 26.43551116
v 129.25501596 5.59929691 24.93864352
v 129.57140626 5.58173779 26.23958094
v 129.21616061 4.38565478 24.95865780
v 128.26144987 3.51625964 26.23958094
v 128.89977795 3.67470279 26.23958094
v 127.01255406 3.37129225 26.23958094
v 72.93252254 3.37129225 26.23958094
v 72.93252254 7.54267582 25.60543971
v 129.51590080 7.54267582 27.51945009
v 129.57695375 6.86194222 27.51945009
v 129.63245921 7.54267582 28.79931972
v 129.63245921 5.58173779 27.51945009
v 129.28277633 4.31500912 26.23958094
v 128.25590237 3.51625964 28.79931972
v 127.01255406 3.37129225 34.41389110
v 129.28277633 4.31623384 27.51945009
v 128.89977795 3.67633575 27.51945009
v 128.23924844 3.51625964 34.41389110
v 128.24479975 3.51625964 32.63892814
v 72.93252254 3.37129225 34.41389110
v 72.93252254 7.54267582 34.41389110
v 129.63801434 7.54267582 30.07918923
v 129.63245921 5.58173779 34.41389110
v 129.28277633 4.32276760 32.63892814
v 129.28277633 4.32480976 33.91985080
v 129.28277633 4.32562624 34.41389110
v 128.88867533 3.68082735 31.35905875
v 128.63334562 3.61998233 34.41389110
v 129.63245921 7.54267582 34.41389110
v 128.87757271 3.68531990 34.41389110
f 1 2 3
f 1 3 4
f 1 4 5
f 1 5 6
f 1 6 7
f 1 7 8
f 1 8 9
f 1 9 10
f 1 10 2
f 2 11 3
f 2 10 12
f 2 12 13
f 2 13 11
f 3 14 4
f 3 11 14
f 4 15 16
f 4 16 5
f 4 14 15
f 5 16 17
f 5 17 6
f 6 18 19
f 6 19 7
f 6 17 20
f 6 20 18
f 7 19 21
f 7 21 8
f 8 21 22
f 8 22 9
f 9 22 21
f 9 21 37
f 9 37 50
f 9 50 51
f 9 51 38
f 9 38 25
f 9 25 13
f 9 13 12
f 9 12 10
f 11 23 26
f 11 26 38
f 11 38 51
f 11 51 59
f 11 59 52
f 11 52 41
f 11 41 39
f 11 39 30
f 11 30 28
f 11 28 27
f 11 27 24
f 11 24 14
f 11 13 23
f 13 25 26
f 13 26 23
f 14 24 27
f 14 27 15
f 15 28 16
f 15 27 28
f 16 29 30
f 16 30 31
f 16 31 32
f 16 32 17
f 16 28 29
f 17 33 20
f 17 32 33
f 18 34 19
f 18 20 35
f 18 35 34
f 19 34 36
f 19 36 37
f 19 37 21
f 20 33 35
f 25 38 26
f 28 30 29
f 30 39 31
f 31 39 32
f 32 39 40
f 32 40 41
f 32 41 42
f 32 42 43
f 32 43 33
f 33 43 35
f 34 44 45
f 34 45 36
f 34 35 44
f 35 43 46
f 35 46 54
f 35 54 47
f 35 47 48
f 35 48 49
f 35 49 44
f 36 45 50
f 36 50 37
f 39 41 40
f 41 52 42
f 42 52 53
f 42 53 43
f 43 53 46
f 44 49 45
f 45 49 48
f 45 48 58
f 45 58 60
f 45 60 56
f 45 56 53
f 45 53 59
f 45 59 51
f 45 51 50
f 46 53 54
f 47 54 55
f 47 55 56
f 47 56 57
f 47 57 48
f 48 57 58
f 52 59 53
f 53 56 55
f 53 55 54
f 56 60 57
f 57 60 58

