# https://github.com/mikedh/trimesh
v 37.91402764 13.78119338 48.70411168
v 37.39914084 13.26602043 48.70411168
v 37.91402764 8.14504057 48.70411168
v 37.91402764 40.14731834 48.70363857
v 36.11893451 40.14731834 48.70363857
v 37.39914084 8.14504057 48.70411168
v 37.91402764 5.58455160 48.70363857
v 37.91402764 40.52024424 48.69132268
v 36.11893451 41.08539805 48.67284693
v 35.11583580 40.99312804 48.66290036
v 34.74922237 40.16654380 48.67000642
v 34.83918029 38.86707576 48.68090110
v 36.11893451 6.86479609 48.70363857
v 37.39914084 5.58455160 48.70363857
v 37.91402764 5.12704549 48.68563783
v 37.91402764 41.07386430 48.67284693
v 36.11893451 41.72744227 48.57574099
v 34.26236491 40.60866839 48.63589925
v 34.19048786 39.75517079 48.64774204
v 34.18642071 38.86707576 48.65011136
v 34.18596859 27.34486965 48.65011136
v 34.83918029 14.54626682 48.68090110
v 34.83918029 8.14504057 48.68042800
v 34.83918029 6.86479609 48.67995299
v 36.11893451 5.58455160 48.70079615
v 37.39914084 4.81948006 48.67284693
v 37.91402764 4.81948006 48.67284693
v 37.91402764 41.33145268 48.63353183
v 34.67779934 41.51599270 48.19062892
v 37.91402764 41.71590852 48.57479288
v 37.91402764 41.98502684 48.31757839
v 37.91402764 42.38486609 47.93483660
v 37.39914084 42.38486609 47.93483660
v 36.11893451 42.36948649 47.93578376
v 35.09323377 42.25799483 47.74535954
v 33.85958785 40.16654380 48.12668203
v 33.94276592 41.18151010 47.78278128
v 33.73482265 38.86707576 48.00209996
v 34.18596859 19.66724477 48.65011136
v 34.18642071 15.82650940 48.65011136
v 34.18687283 14.54626682 48.65011136
v 34.18732494 8.14504057 48.64963635
v 34.18777706 6.86479609 48.64916325
v 34.19139209 6.18815061 48.64679584
v 34.90291924 5.68835536 48.66716399
v 35.37214796 4.87330297 48.65863672
v 36.11893451 4.82716796 48.67000642
v 37.39914084 4.18127979 48.34126398
v 37.91402764 4.18127979 48.34126398
v 37.91402764 42.70396527 46.72218550
v 37.39914084 42.70011942 46.72218550
v 36.11893451 42.67320606 46.72218550
v 34.89930421 42.35795273 46.72218550
v 34.25920009 42.01963191 46.72218550
v 33.36278382 40.14731834 46.72218550
v 33.81438188 41.37758769 46.72218550
v 33.29633407 38.86707576 46.72218550
v 33.73482265 17.10675580 48.00209996
v 33.73572688 9.42528601 48.00209996
v 33.73662921 6.86479609 48.00209996
v 33.88671105 5.68835536 48.07836465
v 33.98616152 4.68491900 47.70225391
v 34.51867707 5.33465302 48.55584593
v 34.92687762 4.35428606 48.05373286
v 35.33508009 3.59690433 47.55161980
v 36.11893451 4.18896960 48.31378977
v 37.39914084 3.52001202 47.70083270
v 37.91402764 3.78528830 47.95852123
v 37.91402764 42.70396527 46.20775654
v 37.39914084 42.70011942 45.44227009
v 36.11893451 42.67320606 43.86487698
v 34.89478304 42.35795273 43.86487698
v 34.89704363 42.35795273 45.44227009
v 34.74650967 42.28106233 43.86487698
v 34.25467892 42.02347395 43.86487698
v 33.81438188 41.38142973 45.44227009
v 33.36278382 40.14731834 43.86487698
v 33.29633407 38.86707576 43.86487698
v 33.29633407 15.82650940 46.72218550
v 33.33520850 6.86479609 46.72218550
v 33.44912671 5.58455160 46.72218550
v 33.88083353 4.55035984 46.72218550
v 34.61767542 3.90831371 46.72218550
v 35.25777954 3.56999098 46.72218550
v 36.11893451 3.45465346 46.72218550
v 36.11893451 3.54307952 47.67335848
v 37.91402764 3.52001202 47.70083270
v 37.39914084 3.42774201 46.72218550
v 37.91402764 42.70011942 44.16188157
v 37.39914084 42.69627356 43.86487698
v 33.91609484 41.53136850 43.86487698
v 33.81438188 41.38142973 43.86487698
v 33.29633407 17.10675580 43.86487698
v 33.34877010 15.82650940 43.86487698
v 33.83427312 5.58455160 45.75348584
v 33.98751787 4.67338525 45.88138247
v 35.32829833 3.60459223 46.00785790
v 36.11893451 3.57383683 45.97043711
v 37.91402764 3.46618721 47.11534983
v 37.91402764 3.43158596 46.72218550
v 37.39914084 3.57383683 45.96996306
v 37.91402764 3.57383683 45.96996306
v 37.91402764 3.51616807 46.27265249
v 37.91402764 42.69243152 43.86487698
v 37.51848255 42.69627356 43.86487698
v 33.80037007 14.83076475 43.86487698
v 34.87670027 4.26970395 45.77480210
v 34.83918029 5.58455160 45.39821730
v 36.11893451 4.30430520 45.61469452
v 37.91402764 4.30430520 45.61469452
v 37.91402764 14.44630701 43.86487698
v 34.59914244 14.53473307 43.86487698
v 36.11893451 5.58455160 45.37121714
v 34.83918029 14.46168471 43.86487698
v 37.91402764 5.58455160 45.37121714
v 35.82193755 14.44630701 43.86487698
f 1 2 6
f 1 6 3
f 1 3 7
f 1 7 15
f 1 15 27
f 1 27 49
f 1 49 68
f 1 68 87
f 1 87 99
f 1 99 100
f 1 100 103
f 1 103 102
f 1 102 110
f 1 110 115
f 1 115 111
f 1 111 104
f 1 104 89
f 1 89 69
f 1 69 50
f 1 50 32
f 1 32 31
f 1 31 30
f 1 30 28
f 1 28 16
f 1 16 8
f 1 8 4
f 1 4 5
f 1 5 2
f 2 5 13
f 2 13 6
f 3 6 14
f 3 14 7
f 4 8 9
f 4 9 5
f 5 9 10
f 5 10 11
f 5 11 12
f 5 12 22
f 5 22 13
f 6 13 14
f 7 14 15
f 8 16 9
f 9 16 17
f 9 17 10
f 10 18 11
f 10 17 18
f 11 18 19
f 11 19 12
f 12 19 20
f 12 20 21
f 12 21 39
f 12 39 22
f 13 22 23
f 13 23 24
f 13 24 25
f 13 25 14
f 14 25 26
f 14 26 15
f 15 26 27
f 16 28 17
f 17 29 18
f 17 28 30
f 17 30 31
f 17 31 32
f 17 32 33
f 17 33 34
f 17 34 35
f 17 35 29
f 18 36 19
f 18 29 37
f 18 37 36
f 19 36 38
f 19 38 20
f 20 38 21
f 21 38 58
f 21 58 39
f 22 39 40
f 22 40 41
f 22 41 23
f 23 42 24
f 23 41 42
f 24 43 44
f 24 44 45
f 24 45 25
f 24 42 43
f 25 45 46
f 25 46 47
f 25 47 26
f 26 47 48
f 26 48 49
f 26 49 27
f 29 35 37
f 32 50 33
f 33 50 51
f 33 51 34
f 34 51 52
f 34 52 35
f 35 52 53
f 35 53 54
f 35 54 37
f 36 37 55
f 36 55 38
f 37 54 56
f 37 56 55
f 38 55 57
f 38 57 79
f 38 79 58
f 39 58 59
f 39 59 40
f 40 59 42
f 40 42 41
f 42 59 60
f 42 60 43
f 43 60 44
f 44 61 62
f 44 62 63
f 44 63 46
f 44 46 45
f 44 60 61
f 46 64 65
f 46 65 66
f 46 66 47
f 46 63 64
f 47 66 48
f 48 66 67
f 48 67 68
f 48 68 49
f 50 69 70
f 50 70 51
f 51 70 71
f 51 71 52
f 52 71 72
f 52 72 73
f 52 73 53
f 53 73 74
f 53 74 75
f 53 75 54
f 54 75 56
f 55 56 76
f 55 76 92
f 55 92 77
f 55 77 78
f 55 78 57
f 56 75 76
f 57 78 93
f 57 93 79
f 58 79 59
f 59 79 60
f 60 80 81
f 60 81 61
f 60 79 80
f 61 81 62
f 62 82 83
f 62 83 65
f 62 65 64
f 62 64 63
f 62 81 82
f 65 83 84
f 65 84 85
f 65 85 86
f 65 86 66
f 66 86 67
f 67 87 68
f 67 86 88
f 67 88 87
f 69 89 70
f 70 89 90
f 70 90 71
f 71 90 105
f 71 105 104
f 71 104 111
f 71 111 116
f 71 116 114
f 71 114 112
f 71 112 106
f 71 106 94
f 71 94 93
f 71 93 78
f 71 78 77
f 71 77 92
f 71 92 91
f 71 91 75
f 71 75 74
f 71 74 72
f 72 74 73
f 75 91 76
f 76 91 92
f 79 93 80
f 80 93 94
f 80 94 81
f 81 94 95
f 81 95 96
f 81 96 82
f 82 96 83
f 83 97 84
f 83 96 97
f 84 97 85
f 85 88 86
f 85 97 98
f 85 98 88
f 87 88 99
f 88 100 99
f 88 98 101
f 88 101 102
f 88 102 103
f 88 103 100
f 89 104 105
f 89 105 90
f 94 106 95
f 95 106 96
f 96 107 97
f 96 106 108
f 96 108 107
f 97 107 109
f 97 109 98
f 98 109 101
f 101 109 110
f 101 110 102
f 106 112 108
f 107 108 109
f 108 113 109
f 108 112 114
f 108 114 113
f 109 113 115
f 109 115 110
f 111 115 113
f 111 113 116
f 113 114 116

