# https://github.com/mikedh/trimesh
v 79.64889720 13.99527362 15.29643697
v 78.95505793 13.99527362 15.32913818
v 79.64889720 18.38358365 15.29643697
v 127.00766662 13.99527362 15.29643697
v 104.79367306 12.41364263 22.63134480
v 78.95505793 21.27702337 15.32913818
v 101.40218169 12.41364263 22.81447220
v 101.15239947 12.41364263 22.84063298
v 72.93252254 12.41364263 26.32659533
v 72.93807385 14.95657154 18.82491023
v 72.93807385 15.08063853 18.66794362
v 72.93807385 15.46498372 18.18396387
v 72.93807385 15.62115293 18.06950866
v 72.93807385 16.10527288 17.71633474
v 72.93807385 17.10387713 17.44164317
v 72.93807385 18.38358365 17.37297099
v 79.47127438 21.27702337 15.30624619
v 79.64889720 21.27702337 15.29970671
v 80.93111421 20.94386660 15.29643697
v 127.00766662 21.27702337 15.29643697
v 127.98459405 17.10387713 15.32913818
v 127.97904274 13.99527362 15.32913818
v 105.24883082 12.41364263 22.65423585
v 72.93807385 21.25620120 17.37297099
v 72.94362325 21.27702337 17.37297099
v 72.93252254 12.41364263 34.41363452
v 72.93252254 14.59218054 20.79353043
v 81.87473760 21.27702337 15.29643697
v 127.98459405 21.27702337 15.32913818
v 128.62292595 15.82417060 15.40434984
v 128.25657769 13.99527362 15.36183940
v 128.62292595 13.99527362 15.40761958
v 128.28988173 12.41364263 26.48683168
v 72.93252254 21.27702337 20.79353043
v 72.93807385 21.27702337 17.52993665
v 79.64889720 13.89636683 48.70411740
v 78.95505793 13.89636683 48.66814644
v 72.93252254 14.62688481 44.15863091
v 129.63316124 12.41364263 34.41363452
v 128.62292595 21.27702337 15.40434984
v 129.27790796 13.99527362 16.04529715
v 129.05033098 12.41364263 26.76806320
v 128.78944615 12.41364263 26.66014890
v 72.93252254 21.27702337 46.77473790
v 87.33109666 13.89636683 48.70411740
v 79.64889720 21.27702337 48.70411740
v 72.93252254 18.38184958 46.77473790
v 72.93252254 17.10214115 46.70933546
v 72.93252254 15.99942410 46.35943128
v 72.93252254 15.35913685 45.89180215
v 72.93252254 14.93227931 45.25412553
v 78.95505793 21.27702337 48.66814644
v 129.63316124 12.41364263 28.80535606
v 129.63870873 17.10127507 26.24811202
v 129.63316124 17.10214115 44.15863091
v 129.62205862 15.82590467 46.71914564
v 129.54434792 14.54533016 46.71914564
v 129.49994507 13.89636683 46.71914564
v 129.40557663 13.89636683 47.34701112
v 129.27236047 13.89636683 47.95852600
v 128.65068250 13.89636683 48.59620071
v 128.32318958 13.89636683 48.63544522
v 128.00679547 13.89636683 48.66814644
v 127.00766662 13.89636683 48.70084766
v 129.27790796 21.27702337 16.04529715
v 129.53879279 21.27702337 16.95766343
v 129.62760611 15.82417060 17.27813708
v 129.54989541 14.54446408 17.27813708
v 129.51104006 13.99527362 17.27813708
v 129.40557663 12.41364263 27.52673404
v 87.33109666 21.27702337 48.70411740
v 129.56099803 12.41364263 28.37369859
v 129.63316124 21.27702337 45.43725293
v 129.62760611 21.27702337 17.27813708
v 129.63316124 21.27702337 25.06759414
v 129.62760611 17.10214115 46.71914564
v 129.27236047 21.27702337 47.95852600
v 128.65068250 18.38184958 48.59620071
v 128.17331568 21.27702337 48.65179392
v 128.00679547 21.27702337 48.66814644
v 127.00766662 21.27702337 48.70084766
v 129.62760611 21.27702337 46.71914564
v 128.81165139 21.27702337 48.42942488
v 128.64512737 21.27702337 48.59620071
f 1 2 6
f 1 6 3
f 1 3 19
f 1 19 28
f 1 28 20
f 1 20 4
f 1 4 5
f 1 5 2
f 2 5 7
f 2 7 8
f 2 8 9
f 2 9 10
f 2 10 11
f 2 11 12
f 2 12 13
f 2 13 14
f 2 14 15
f 2 15 16
f 2 16 24
f 2 24 6
f 3 6 17
f 3 17 18
f 3 18 19
f 4 20 29
f 4 29 21
f 4 21 22
f 4 22 5
f 5 22 23
f 5 23 33
f 5 33 43
f 5 43 42
f 5 42 70
f 5 70 72
f 5 72 53
f 5 53 39
f 5 39 26
f 5 26 9
f 5 9 8
f 5 8 7
f 6 24 25
f 6 25 35
f 6 35 34
f 6 34 44
f 6 44 52
f 6 52 46
f 6 46 71
f 6 71 81
f 6 81 80
f 6 80 79
f 6 79 84
f 6 84 83
f 6 83 77
f 6 77 82
f 6 82 73
f 6 73 75
f 6 75 74
f 6 74 66
f 6 66 65
f 6 65 40
f 6 40 29
f 6 29 20
f 6 20 28
f 6 28 18
f 6 18 17
f 9 26 38
f 9 38 51
f 9 51 50
f 9 50 49
f 9 49 48
f 9 48 47
f 9 47 44
f 9 44 34
f 9 34 27
f 9 27 10
f 10 27 11
f 11 27 12
f 12 27 13
f 13 27 14
f 14 27 15
f 15 27 16
f 16 27 34
f 16 34 24
f 18 28 19
f 21 29 40
f 21 40 30
f 21 30 22
f 22 30 31
f 22 31 23
f 23 31 32
f 23 32 33
f 24 34 35
f 24 35 25
f 26 36 37
f 26 37 38
f 26 39 45
f 26 45 36
f 30 32 31
f 30 40 65
f 30 65 41
f 30 41 32
f 32 42 43
f 32 43 33
f 32 41 42
f 36 45 71
f 36 71 46
f 36 46 52
f 36 52 37
f 37 47 48
f 37 48 49
f 37 49 50
f 37 50 51
f 37 51 38
f 37 52 44
f 37 44 47
f 39 53 54
f 39 54 55
f 39 55 56
f 39 56 57
f 39 57 58
f 39 58 59
f 39 59 60
f 39 60 61
f 39 61 62
f 39 62 63
f 39 63 64
f 39 64 45
f 41 65 66
f 41 66 67
f 41 67 68
f 41 68 69
f 41 69 70
f 41 70 42
f 45 64 81
f 45 81 71
f 53 72 69
f 53 69 68
f 53 68 67
f 53 67 54
f 54 73 55
f 54 67 74
f 54 74 75
f 54 75 73
f 55 73 76
f 55 76 56
f 56 76 60
f 56 60 59
f 56 59 57
f 57 59 58
f 60 76 82
f 60 82 77
f 60 77 78
f 60 78 61
f 61 78 62
f 62 78 79
f 62 79 63
f 63 79 80
f 63 80 81
f 63 81 64
f 66 74 67
f 69 72 70
f 73 82 76
f 77 83 78
f 78 84 79
f 78 83 84

