# https://github.com/mikedh/trimesh
v 26.26746458 -13.62121319 18.79080688
v 23.37588483 -13.62121319 18.70632015
v 26.26746458 -14.96790170 18.49322045
v 26.26746458 -12.34145515 18.78704400
v 23.37588483 -12.34145515 18.72102825
v 23.37588483 -14.88654640 18.29961806
v 26.26746458 -15.67701947 18.05299780
v 26.26746458 -11.72984823 18.62935725
v 23.37588483 -12.28548708 18.70358360
v 23.37588483 -15.52642542 17.85665887
v 26.26746458 -15.85473099 17.83750399
v 26.26746458 -11.02534654 18.40736497
v 23.37588483 -11.11131791 18.31466859
v 23.37588483 -15.61758898 17.24609401
v 26.26746458 -15.97820661 17.34186840
v 26.26746458 -10.43508879 17.86863138
v 23.37588483 -11.08189168 18.28696260
v 23.37588483 -15.62162846 17.21667684
v 26.26746458 -15.93897164 16.61910986
v 23.37588483 -15.62162846 16.29860568
v 26.26746458 -10.18929169 17.63261393
v 23.37588483 -10.47143842 17.69486777
v 26.26746458 -15.84203738 16.10671352
v 23.37588483 -15.07233594 15.65862461
v 26.26746458 -15.47622708 15.67983023
v 26.26746458 -10.08370331 17.25909189
v 23.37588483 -10.46566868 17.66545155
v 26.26746458 -15.21716025 15.50401587
v 23.37588483 -14.46188363 15.34598669
v 26.26746458 -10.12063048 16.11800118
v 23.37588483 -10.36585003 16.37933050
v 23.37588483 -10.36585003 17.05454331
v 26.26746458 -14.86289038 15.37335026
v 23.37588483 -14.43245693 15.33093711
v 23.37588483 -10.39008360 16.34991333
v 26.26746458 -10.73339107 15.50914559
v 23.37588483 -10.89610118 15.73900604
v 26.26746458 -14.61997863 15.32512255
v 23.37588483 -13.62121319 15.30288869
v 26.26746458 -11.33576584 15.32512255
v 23.37588483 -11.53598068 15.32854299
v 26.26746458 -14.00375563 15.30391502
v 24.59750482 -13.62121319 15.29946825
v 23.37588483 -12.40030762 15.30049457
v 26.26746458 -12.34145515 15.29673075
v 25.87743073 -12.34145515 15.29673075
v 24.59750482 -12.34145515 15.29844192
v 23.37588483 -12.34145515 15.30049457
v 23.37588483 -11.57290785 15.32717329
v 25.87743073 -13.62121319 15.29707413
v 26.26746458 -13.62121319 15.29673075
v 26.26746458 -12.73149854 15.29638927
f 1 2 3
f 1 3 7
f 1 7 11
f 1 11 15
f 1 15 19
f 1 19 23
f 1 23 25
f 1 25 28
f 1 28 33
f 1 33 38
f 1 38 42
f 1 42 51
f 1 51 52
f 1 52 45
f 1 45 40
f 1 40 36
f 1 36 30
f 1 30 26
f 1 26 21
f 1 21 16
f 1 16 12
f 1 12 8
f 1 8 4
f 1 4 5
f 1 5 2
f 2 6 3
f 2 5 9
f 2 9 13
f 2 13 17
f 2 17 22
f 2 22 27
f 2 27 32
f 2 32 31
f 2 31 35
f 2 35 37
f 2 37 41
f 2 41 49
f 2 49 48
f 2 48 44
f 2 44 39
f 2 39 34
f 2 34 29
f 2 29 24
f 2 24 20
f 2 20 18
f 2 18 14
f 2 14 10
f 2 10 6
f 3 6 7
f 4 8 5
f 5 8 9
f 6 10 7
f 7 10 11
f 8 12 9
f 9 12 13
f 10 14 15
f 10 15 11
f 12 16 13
f 13 16 17
f 14 18 15
f 15 18 20
f 15 20 19
f 16 21 17
f 17 21 22
f 19 20 23
f 20 24 25
f 20 25 23
f 21 26 22
f 22 26 27
f 24 28 25
f 24 29 28
f 26 30 31
f 26 31 32
f 26 32 27
f 28 29 34
f 28 34 33
f 30 35 31
f 30 36 37
f 30 37 35
f 33 34 38
f 34 39 38
f 36 40 41
f 36 41 37
f 38 39 42
f 39 43 42
f 39 44 43
f 40 45 46
f 40 46 47
f 40 47 48
f 40 48 49
f 40 49 41
f 42 43 50
f 42 50 51
f 43 44 50
f 44 48 47
f 44 47 50
f 45 52 46
f 46 52 50
f 46 50 47
f 50 52 51

