# https://github.com/mikedh/trimesh
v 36.11894595 42.66639951 35.19626708
v 33.55901020 42.48635395 31.35840895
v 34.89322639 42.35655632 35.19626708
v 37.13353644 42.37330182 35.19626708
v 37.91402764 42.69151966 21.11892491
v 37.91402764 42.69989431 20.60461327
v 36.11894595 42.68733042 32.63834439
v 34.83897808 42.69570889 31.35840895
v 33.55901020 42.48635395 18.55905402
v 32.92122580 42.25606427 31.35840895
v 32.92122580 42.20582015 31.95454326
v 32.92122580 42.15976145 32.18442470
v 34.25495363 42.02158917 35.19626708
v 37.60613219 41.42702677 35.19626708
v 37.91402764 42.52822341 21.99754170
v 37.91402764 42.69989431 17.27911857
v 36.11894595 42.69989431 22.39886035
v 34.83897808 42.69570889 17.27911857
v 33.55901020 42.48216471 17.27911857
v 32.92122580 42.25606427 17.27911857
v 32.92122580 41.83316896 32.46885491
v 33.36547553 40.14159534 35.19626708
v 33.81656806 41.37677884 35.19626708
v 37.70387529 40.14578458 35.19626708
v 37.91402764 42.41517510 22.37937926
v 36.11894595 42.69989431 17.27911857
v 37.91402764 42.57428211 16.79013311
v 36.11894595 42.38586571 16.06152376
v 34.83897808 42.38167647 16.06931658
v 33.55901020 42.27281358 16.23296097
v 32.92122580 42.16395069 16.42388023
v 32.92122580 41.43539761 32.76692206
v 33.29558817 38.86453856 35.19626708
v 32.92122580 40.99575680 32.93446335
v 32.92122580 40.14578458 33.17408580
v 37.91402764 41.48564555 23.58138844
v 37.91402764 41.76199011 23.25994379
v 37.91353928 20.78058752 35.19626708
v 37.91402764 42.38586571 16.06152376
v 36.11894595 41.72012064 15.42252990
v 34.83897808 41.70756057 15.42837499
v 33.55901020 41.61125394 15.59201843
v 32.92122580 41.51076570 15.74592324
v 32.92122580 38.86453856 33.25980441
v 33.29558817 6.86277110 35.19626708
v 37.91402764 19.16856741 35.19626708
v 37.91402764 41.72012064 15.42252990
v 37.91402764 41.46470700 15.38356772
v 36.11894595 41.07949573 15.32707027
v 34.83897808 41.06693565 15.32707027
v 33.55901020 40.97482207 15.32707027
v 32.92122580 40.90363941 15.33291536
v 32.92122580 35.00406266 33.25980441
v 32.92122580 6.83764904 33.25396028
v 32.92122580 5.58571527 33.25201159
v 33.29607654 5.58152795 35.19626708
v 37.91402764 3.37494353 35.19626708
v 37.91402764 41.07949573 15.32707027
v 37.91402764 40.70684835 15.31538200
v 33.55901020 40.14578458 15.29784864
v 32.92122580 40.20021411 15.30758918
v 32.92122580 5.55221856 33.25006387
v 32.92122580 4.30447308 33.12538213
v 32.92122580 4.05324867 33.08447079
v 32.92122580 -0.06682820 32.29936590
v 33.49791909 4.30447308 35.19626708
v 34.83897808 3.37494353 35.19626708
v 33.11182839 -0.06682820 32.24286940
v 33.24720403 -0.06682820 32.20195806
v 33.62156640 -0.06682820 31.89220216
v 33.88743215 -0.06682820 31.67011306
v 34.17529138 -0.06682820 31.29606784
v 34.38006602 -0.06682820 31.02917100
v 34.52766027 -0.06682820 30.47394802
v 34.63224808 -0.06682820 30.07847350
v 34.67427779 -0.06682820 29.33038306
v 34.70409080 -0.06682820 28.79853782
v 37.91402764 3.37075620 30.59278514
v 37.91402764 40.14578458 15.29784864
v 32.92122580 38.86453856 15.29784864
v 32.92122580 -0.06682820 15.62124198
v 33.94901162 3.51730314 35.19626708
v 34.70457916 -0.06682820 25.48862852
v 37.91402764 3.37075620 26.23866669
v 37.91402764 5.58571527 15.29784864
v 32.92122580 5.58571527 15.29784864
v 32.92122580 4.54313550 15.32512255
v 37.91402764 4.82366930 15.32707027
v 37.91402764 4.56407023 15.46149208
v 37.91402764 4.18304629 15.66020606
v 33.55901020 -0.06682820 15.96216868
v 34.70457916 -0.06682820 19.83898946
v 37.91402764 3.43356230 17.27911857
v 34.70409080 -0.06682820 19.09089998
v 34.70360053 -0.06682820 18.55905402
v 37.91402764 5.27587209 15.30953882
v 37.91402764 3.91507448 15.91735950
v 34.26472660 -0.06682820 16.55051018
v 37.91402764 3.51730314 16.30114670
v 34.51642030 -0.06682820 17.27911857
v 34.36931441 -0.06682820 16.85247374
f 1 2 3
f 1 3 13
f 1 13 23
f 1 23 22
f 1 22 33
f 1 33 45
f 1 45 56
f 1 56 66
f 1 66 82
f 1 82 67
f 1 67 57
f 1 57 46
f 1 46 38
f 1 38 24
f 1 24 14
f 1 14 4
f 1 4 5
f 1 5 6
f 1 6 7
f 1 7 8
f 1 8 2
f 2 9 20
f 2 20 10
f 2 10 11
f 2 11 3
f 2 8 18
f 2 18 9
f 3 11 12
f 3 12 13
f 4 14 5
f 5 14 15
f 5 15 25
f 5 25 37
f 5 37 36
f 5 36 46
f 5 46 57
f 5 57 78
f 5 78 84
f 5 84 93
f 5 93 99
f 5 99 97
f 5 97 90
f 5 90 89
f 5 89 88
f 5 88 96
f 5 96 85
f 5 85 79
f 5 79 59
f 5 59 58
f 5 58 48
f 5 48 47
f 5 47 39
f 5 39 27
f 5 27 16
f 5 16 6
f 6 16 26
f 6 26 17
f 6 17 8
f 6 8 7
f 8 17 26
f 8 26 18
f 9 18 19
f 9 19 20
f 10 20 31
f 10 31 43
f 10 43 52
f 10 52 61
f 10 61 80
f 10 80 86
f 10 86 87
f 10 87 81
f 10 81 65
f 10 65 64
f 10 64 63
f 10 63 62
f 10 62 55
f 10 55 54
f 10 54 53
f 10 53 44
f 10 44 35
f 10 35 34
f 10 34 32
f 10 32 21
f 10 21 12
f 10 12 11
f 12 21 22
f 12 22 23
f 12 23 13
f 14 24 25
f 14 25 15
f 16 27 26
f 18 26 28
f 18 28 29
f 18 29 30
f 18 30 19
f 19 30 31
f 19 31 20
f 21 32 22
f 22 32 34
f 22 34 35
f 22 35 33
f 24 36 37
f 24 37 25
f 24 38 36
f 26 27 28
f 27 39 28
f 28 39 47
f 28 47 40
f 28 40 29
f 29 40 41
f 29 41 42
f 29 42 30
f 30 42 43
f 30 43 31
f 33 35 44
f 33 44 53
f 33 53 45
f 36 38 46
f 40 47 48
f 40 48 49
f 40 49 50
f 40 50 41
f 41 50 51
f 41 51 52
f 41 52 42
f 42 52 43
f 45 54 55
f 45 55 56
f 45 53 54
f 48 58 49
f 49 58 59
f 49 59 60
f 49 60 50
f 50 60 51
f 51 60 61
f 51 61 52
f 55 62 56
f 56 62 63
f 56 63 64
f 56 64 65
f 56 65 66
f 57 67 65
f 57 65 68
f 57 68 69
f 57 69 70
f 57 70 71
f 57 71 72
f 57 72 73
f 57 73 74
f 57 74 75
f 57 75 76
f 57 76 77
f 57 77 78
f 59 79 60
f 60 79 85
f 60 85 86
f 60 86 80
f 60 80 61
f 65 81 91
f 65 91 98
f 65 98 101
f 65 101 100
f 65 100 95
f 65 95 94
f 65 94 92
f 65 92 83
f 65 83 77
f 65 77 76
f 65 76 75
f 65 75 74
f 65 74 73
f 65 73 72
f 65 72 71
f 65 71 70
f 65 70 69
f 65 69 68
f 65 67 82
f 65 82 66
f 77 83 78
f 78 83 92
f 78 92 84
f 81 87 88
f 81 88 89
f 81 89 90
f 81 90 91
f 84 92 94
f 84 94 95
f 84 95 93
f 85 96 87
f 85 87 86
f 87 96 88
f 90 97 98
f 90 98 91
f 93 95 99
f 95 100 99
f 97 99 98
f 98 99 101
f 99 100 101

