v 127.577021 14.999706 -8.932206
v 126.793819 14.999706 -7.250000
v 128.670125 11.999853 -8.932206
v 119.088561 14.999706 -8.932206
v 127.884105 11.999853 -7.250000
v 119.872703 14.999706 -7.250000
v 126.793819 9.000000 -7.250000
v 127.577021 9.000000 -8.932206
v 119.076353 11.999853 -8.932206
v 119.076353 11.999853 -8.569252
v 119.873642 9.000000 -7.250000
v 119.088561 9.000000 -8.932206
v 119.076353 11.535311 -8.932206
f 1 2 3
f 1 3 8
f 1 8 12
f 1 12 13
f 1 13 9
f 1 9 4
f 1 4 6
f 1 6 2
f 2 5 3
f 2 6 11
f 2 11 7
f 2 7 5
f 3 5 7
f 3 7 8
f 4 9 10
f 4 10 6
f 6 10 11
f 7 11 12
f 7 12 8
f 9 13 10
f 10 12 11
f 10 13 12
