# https://github.com/mikedh/trimesh
v 23.09572625 20.91003415 -11.66113153
v 19.08405276 20.91003415 -11.66113153
v 23.09690862 19.90834773 -11.66113153
v 20.18478590 20.91003415 -16.66267722
v 19.08405276 20.91003415 -16.69817706
v 19.08405276 3.08387375 -11.66113153
v 23.09533721 13.51082435 -11.66113153
v 20.18439304 8.13767276 -16.66218330
v 20.18478590 13.25603988 -16.66267722
v 19.51185480 20.91003415 -16.69521921
v 19.51185480 17.09525266 -16.69521921
v 19.08405276 8.13767276 -16.69768313
v 19.08405276 6.10987151 -16.51081652
v 19.44467688 3.08561871 -11.66113153
v 23.09494054 12.23166905 -11.66113153
v 23.09376580 9.67510340 -11.66113153
v 23.09298009 8.39594714 -11.66113153
v 23.09258342 8.13767276 -11.66113153
v 23.08708729 7.12202670 -11.66113153
v 20.17339315 7.40996818 -16.65429572
v 19.51185480 8.13767276 -16.69472529
v 19.08405276 6.91086993 -16.68289201
v 19.08405276 6.32102828 -16.66316924
v 19.83751879 6.55661537 -16.35846189
v 21.39866080 3.69116687 -11.66113153
v 20.66169461 3.14844282 -11.66113153
v 22.91894987 6.01040047 -11.66113153
v 21.98910031 4.38048052 -11.66113153
v 19.45135539 6.93355626 -16.67401657
f 1 2 6
f 1 6 14
f 1 14 26
f 1 26 25
f 1 25 28
f 1 28 27
f 1 27 19
f 1 19 18
f 1 18 17
f 1 17 16
f 1 16 15
f 1 15 7
f 1 7 3
f 1 3 4
f 1 4 10
f 1 10 5
f 1 5 2
f 2 5 12
f 2 12 22
f 2 22 23
f 2 23 13
f 2 13 6
f 3 7 8
f 3 8 9
f 3 9 4
f 4 9 11
f 4 11 10
f 5 10 11
f 5 11 12
f 6 13 14
f 7 15 8
f 8 15 16
f 8 16 17
f 8 17 18
f 8 18 19
f 8 19 20
f 8 20 21
f 8 21 9
f 9 21 11
f 11 21 12
f 12 21 22
f 13 23 24
f 13 24 25
f 13 25 26
f 13 26 14
f 19 27 20
f 20 27 28
f 20 28 24
f 20 24 23
f 20 23 29
f 20 29 21
f 21 29 22
f 22 29 23
f 24 28 25

