# https://github.com/mikedh/trimesh
v 0.32716652 -37.93177731 -8.32025228
v 0.48322465 -53.28939886 -9.59961450
v 0.33818167 -44.33153385 -8.32025228
v 0.65213633 -44.33153385 -7.22380715
v 0.64479799 -37.93177731 -7.21270523
v 0.64479799 -3.38386263 -7.21270523
v 0.32900492 -3.38386263 -8.32025228
v 0.47955547 23.48973047 -9.59961450
v 0.80269452 -53.28939886 -10.43754400
v 0.81554044 -54.57293848 -10.42221223
v 0.56584590 -54.57293848 -9.59961450
v 0.36755794 -53.28939886 -8.32025228
v 0.35838119 -50.73129040 -8.32025228
v 0.67049746 -50.73129040 -7.24759671
v 1.59583874 -53.28939886 -6.78343142
v 1.59583874 -31.53202076 -6.75382630
v 1.59583874 3.01589391 -6.75382630
v 1.59583874 9.41565046 -6.75594074
v 0.65764391 24.77327010 -7.22063477
v 0.34185847 24.77327010 -8.32025228
v 0.33084332 3.01589391 -8.32025228
v 0.48506305 24.77327010 -9.59961450
v 0.80269452 26.04783512 -10.43648653
v 0.80085612 24.77327010 -10.43648653
v 1.59583874 -48.17318194 -11.07669542
v 1.59583874 -53.28939886 -11.07616717
v 1.59583874 -54.57293848 -11.04127569
v 0.87062382 -55.29998035 -10.35137180
v 0.80269452 -55.35383559 -9.59961450
v 0.62459846 -54.62679372 -8.31813735
v 0.73659599 -54.23185786 -7.33218271
v 0.68702019 -53.28939886 -7.26292801
v 7.32413262 -55.22817210 -6.27908781
v 6.85962740 -54.57293848 -6.27908781
v 6.38594161 -53.28939886 -6.27908781
v 6.37859944 -46.88964231 -6.27908781
v 6.36941888 -18.73250672 -6.27908781
v 6.36941888 15.81540700 -6.27908781
v 6.37859944 22.20618704 -6.27908781
v 1.59583874 15.81540700 -6.76757140
v 1.59583874 24.77327010 -6.79347588
v 0.73843439 25.67085228 -7.34116971
v 0.64846716 26.08374115 -8.36677393
v 0.58236863 26.04783512 -9.59961450
v 1.59583874 26.04783512 -11.07563891
v 0.85410110 26.92746810 -10.37093247
v 1.59583874 14.53186547 -11.07616717
v 1.59583874 -8.50905320 -11.07669542
v 2.24210920 -26.41580575 -11.51865735
v 2.24394379 -44.33153385 -11.51865735
v 2.24577837 -53.28939886 -11.51865735
v 2.34125318 -54.57293848 -11.49856843
v 3.22252623 -55.23715052 -11.54403358
v 1.59583874 -55.39871241 -10.62310427
v 1.59583874 -55.51539748 -9.59961450
v 0.83573997 -55.30895495 -8.74318179
v 7.99427179 -55.47949526 -6.27908781
v 7.71336257 -55.38076321 -6.27908781
v 6.48141260 24.77327010 -6.27908781
v 6.50895429 25.24898881 -6.27908781
v 6.65399727 26.09271575 -6.27908781
v 7.38471976 30.31135049 -6.27908781
v 0.87246222 26.83770683 -8.82406667
v 7.76477296 30.66140571 -6.27908781
v 8.02548265 30.88580126 -6.27908781
v 0.81737884 26.98132334 -9.59961450
v 2.35777591 27.33137856 -11.46632013
v 2.24210920 26.04783512 -11.51865735
v 1.36450533 27.61860394 -9.59961450
v 1.97588812 28.08534805 -10.59614233
v 1.56830086 27.34035316 -10.78804642
v 2.88103368 -12.33275065 -11.57416695
v 2.88286827 -35.37366885 -11.57416695
v 2.88470667 -53.28939886 -11.57416695
v 2.98201225 -54.57293848 -11.56517996
v 4.15521348 -54.57293848 -11.61064415
v 10.88963150 -55.28202734 -11.67937060
v 13.11117906 -55.63208637 -11.67937060
v 14.39086643 -55.70389081 -11.67937060
v 2.82778871 -55.42564003 -10.99105244
v 4.15521348 -55.49744828 -10.87950497
v 9.27395534 -55.70389081 -9.59961450
v 9.27395534 -55.70389081 -6.27908781
v 8.75620895 -55.61413335 -6.27908781
v 2.18519123 27.98661218 -8.94037224
v 8.52487173 31.14609902 -6.27908781
v 2.00342981 28.07636963 -9.59961450
v 2.99670039 27.33137856 -11.57416695
v 3.24639493 28.04944202 -11.55566375
v 2.88103368 26.04783512 -11.57416695
v 4.61604572 29.33298545 -10.57393848
v 13.24153390 33.32722464 -11.67937060
v 4.94836151 29.09961531 -11.42667054
v 9.26110561 31.52308568 -6.27908781
v 7.24885734 30.58062286 -9.59961450
v 4.15521348 -53.28939886 -11.62861910
v 10.66013267 -54.57293848 -11.67937060
v 19.08182532 -55.70389081 -11.67937060
v 11.83149550 -55.70389081 -6.27908781
v 4.15521348 27.33137856 -11.62861910
v 12.31803103 32.76174848 -11.67937060
v 11.26050032 31.93597073 -11.67937060
v 7.99427179 30.93068189 -9.59961450
v 9.26110561 31.52308568 -9.59961450
v 7.25987249 30.57164826 -10.43912971
v 9.90370308 31.81031106 -10.25938405
v 13.95573748 33.65932685 -11.67937060
v 10.16441277 31.93597073 -6.27908781
v 10.59954172 -39.20634233 -11.67937060
v 10.60872228 -53.28939886 -11.67937060
v 19.08182532 -55.70389081 -8.32025228
v 19.08182532 35.98406516 -11.67937060
v 19.08182532 -55.45256765 -7.04511895
v 13.11117906 -55.61413335 -6.27908781
v 10.74642310 31.13712442 -11.67937060
v 10.60872228 29.88948702 -11.67937060
v 10.60321471 17.08997202 -11.67937060
v 11.06955833 32.34885961 -6.27908781
v 12.58792128 33.03999545 -9.59961450
v 16.95024118 35.02365314 -11.67937060
v 17.96187288 35.48141883 -11.67937060
v 19.08182532 35.99303976 -9.59961450
v 19.08182532 -55.24612512 -6.61901752
v 19.08182532 -55.13841465 -6.40543832
v 14.42391570 -55.41666543 -6.27908781
v 11.83149550 32.68994023 -6.27908781
v 19.08182532 35.99303976 -8.32025228
v 12.58792128 33.03999545 -8.32025228
v 17.58365809 35.31087852 -11.67937060
v 19.08182532 -54.50113404 -6.38587765
v 16.58304153 -54.57293848 -6.27908781
v 16.10384817 -54.99480195 -6.27908781
v 15.54386813 -55.24612512 -6.27908781
v 12.68706526 33.03102085 -6.27908781
v 18.69259537 35.73274200 -7.40778124
v 19.08182532 35.94816294 -7.84339887
v 19.08182532 -53.28939886 -6.37160335
v 16.79601382 -53.28939886 -6.27908781
v 13.75744952 33.41698210 -6.27908781
v 19.08182532 35.79557184 -7.23226542
v 16.79785222 -52.16742113 -6.27908781
v 19.08182532 33.73113510 -6.37160335
v 14.99674547 33.67727987 -6.27908781
v 19.08182532 35.18521885 -6.53178835
v 19.08182532 35.27497630 -6.61690308
v 16.79785222 -39.21532074 -6.27908781
v 19.08182532 34.48510459 -6.37847637
v 16.76664135 33.49776495 -6.27908781
v 16.79601382 32.29500437 -6.27908781
v 16.05427618 33.72216050 -6.27908781
v 19.08182532 34.74540236 -6.38429146
v 16.45635586 33.59649701 -6.27908781
f 1 2 3
f 1 3 4
f 1 4 5
f 1 5 6
f 1 6 7
f 1 7 8
f 1 8 2
f 2 9 10
f 2 10 11
f 2 11 12
f 2 12 13
f 2 13 3
f 2 8 9
f 3 13 4
f 4 13 12
f 4 12 14
f 4 14 15
f 4 15 5
f 5 15 16
f 5 16 17
f 5 17 6
f 6 17 18
f 6 18 19
f 6 19 20
f 6 20 21
f 6 21 7
f 7 21 8
f 8 21 20
f 8 20 22
f 8 22 23
f 8 23 24
f 8 24 9
f 9 25 26
f 9 26 10
f 9 24 25
f 10 26 27
f 10 27 28
f 10 28 11
f 11 28 29
f 11 29 30
f 11 30 12
f 12 31 32
f 12 32 14
f 12 30 31
f 14 32 15
f 15 32 31
f 15 31 33
f 15 33 34
f 15 34 35
f 15 35 16
f 16 35 36
f 16 36 37
f 16 37 38
f 16 38 17
f 17 38 39
f 17 39 18
f 18 39 40
f 18 40 19
f 19 40 41
f 19 41 42
f 19 42 20
f 20 42 43
f 20 43 44
f 20 44 22
f 22 44 23
f 23 45 24
f 23 44 46
f 23 46 45
f 24 45 47
f 24 47 48
f 24 48 25
f 25 49 50
f 25 50 26
f 25 48 68
f 25 68 49
f 26 50 51
f 26 51 27
f 27 52 28
f 27 51 52
f 28 52 53
f 28 53 54
f 28 54 55
f 28 55 29
f 29 56 30
f 29 55 56
f 30 56 31
f 31 56 57
f 31 57 58
f 31 58 33
f 33 58 57
f 33 57 84
f 33 84 83
f 33 83 99
f 33 99 114
f 33 114 125
f 33 125 133
f 33 133 132
f 33 132 131
f 33 131 138
f 33 138 141
f 33 141 146
f 33 146 149
f 33 149 148
f 33 148 152
f 33 152 150
f 33 150 143
f 33 143 139
f 33 139 134
f 33 134 126
f 33 126 118
f 33 118 108
f 33 108 94
f 33 94 86
f 33 86 65
f 33 65 64
f 33 64 62
f 33 62 61
f 33 61 60
f 33 60 59
f 33 59 39
f 33 39 38
f 33 38 37
f 33 37 36
f 33 36 35
f 33 35 34
f 39 59 41
f 39 41 40
f 41 59 60
f 41 60 61
f 41 61 62
f 41 62 42
f 42 63 43
f 42 62 64
f 42 64 65
f 42 65 63
f 43 63 66
f 43 66 44
f 44 66 46
f 45 46 67
f 45 67 68
f 45 68 47
f 46 66 69
f 46 69 70
f 46 70 71
f 46 71 67
f 47 68 48
f 49 72 73
f 49 73 74
f 49 74 50
f 49 68 90
f 49 90 72
f 50 74 51
f 51 74 75
f 51 75 52
f 52 75 53
f 53 75 76
f 53 76 77
f 53 77 78
f 53 78 79
f 53 79 80
f 53 80 54
f 54 80 55
f 55 80 81
f 55 81 79
f 55 79 82
f 55 82 83
f 55 83 56
f 56 83 84
f 56 84 57
f 63 65 85
f 63 85 69
f 63 69 66
f 65 86 87
f 65 87 85
f 67 88 68
f 67 71 70
f 67 70 89
f 67 89 88
f 68 88 90
f 69 85 87
f 69 87 70
f 70 91 92
f 70 92 93
f 70 93 89
f 70 87 94
f 70 94 95
f 70 95 91
f 72 96 73
f 72 90 100
f 72 100 96
f 73 96 74
f 74 96 75
f 75 96 76
f 76 96 77
f 77 96 97
f 77 97 110
f 77 110 109
f 77 109 117
f 77 117 116
f 77 116 115
f 77 115 102
f 77 102 101
f 77 101 92
f 77 92 107
f 77 107 120
f 77 120 129
f 77 129 121
f 77 121 112
f 77 112 98
f 77 98 79
f 77 79 78
f 79 81 80
f 79 98 111
f 79 111 99
f 79 99 83
f 79 83 82
f 86 94 87
f 88 89 100
f 88 100 90
f 89 93 92
f 89 92 101
f 89 101 102
f 89 102 100
f 91 95 103
f 91 103 104
f 91 104 105
f 91 105 92
f 92 105 106
f 92 106 107
f 94 108 104
f 94 104 103
f 94 103 95
f 96 109 110
f 96 110 97
f 96 100 109
f 98 112 122
f 98 122 127
f 98 127 136
f 98 136 140
f 98 140 145
f 98 145 144
f 98 144 151
f 98 151 147
f 98 147 142
f 98 142 137
f 98 137 130
f 98 130 124
f 98 124 123
f 98 123 113
f 98 113 111
f 99 111 113
f 99 113 114
f 100 102 115
f 100 115 116
f 100 116 117
f 100 117 109
f 104 106 105
f 104 108 118
f 104 118 119
f 104 119 107
f 104 107 106
f 107 119 120
f 112 121 122
f 113 123 114
f 114 123 124
f 114 124 125
f 118 126 127
f 118 127 128
f 118 128 119
f 119 128 127
f 119 127 122
f 119 122 120
f 120 122 129
f 121 129 122
f 124 130 131
f 124 131 132
f 124 132 133
f 124 133 125
f 126 134 135
f 126 135 136
f 126 136 127
f 130 137 131
f 131 137 138
f 134 139 140
f 134 140 135
f 135 140 136
f 137 141 138
f 137 142 146
f 137 146 141
f 139 143 144
f 139 144 145
f 139 145 140
f 142 147 148
f 142 148 149
f 142 149 146
f 143 150 151
f 143 151 144
f 147 151 148
f 148 151 152
f 150 152 151

