# https://github.com/mikedh/trimesh
v 129.44610209 10.83803895 -14.71943384
v 129.45163255 9.41663354 -14.71943384
v 129.42951071 10.83803895 -14.85714801
v 129.13638871 10.83803895 -14.00606079
v 129.09767549 10.83803895 -13.91697080
v 129.10319833 6.85737894 -13.91827618
v 129.44610209 6.85737894 -14.71943384
v 129.28018067 8.13664390 -15.95722989
v 129.28018067 9.41663354 -15.95755600
v 129.28018067 10.83803895 -15.95755600
v 128.38421567 10.83803895 -13.60205593
v 129.09213741 5.57811494 -13.92023473
v 128.29019785 6.85737894 -13.56517921
v 128.29019785 5.57811494 -13.56746386
v 129.36867565 5.57811494 -14.71943384
v 129.27465021 6.85737894 -15.95657672
v 128.65521964 6.85737894 -16.59652339
v 128.66075010 9.41663354 -16.59717751
v 129.21381515 10.83803895 -16.02869773
v 128.29019785 10.83803895 -13.56289551
v 128.29019785 10.69589850 -13.56289551
v 128.29019785 8.13664390 -13.56420089
v 129.03130235 4.79416654 -13.97440653
v 127.01261587 5.57811494 -13.37231491
v 128.20170287 4.33946167 -13.85105058
v 127.01261587 4.29812529 -13.64252173
v 129.10873641 4.68828588 -14.71943384
v 129.07001557 4.74847826 -15.64818875
v 129.20828469 5.57811494 -15.87466680
v 128.53907617 5.57811494 -16.51461347
v 127.73712899 4.86523676 -16.65396008
v 127.89751995 5.57811494 -16.66635975
v 128.01919388 6.85737894 -16.67125516
v 128.66075010 10.69589850 -16.59750362
v 128.66075010 10.83803895 -16.59750362
v 127.15641164 10.83803895 -13.39254781
v 127.71500715 3.62585786 -14.03869431
v 128.41739843 4.04865388 -14.71943384
v 127.01261587 8.13664390 -13.37166174
v 125.73503388 5.57811494 -13.37133564
v 125.73503388 4.29812529 -13.61967807
v 127.01261587 3.59177306 -13.99594481
v 125.73503388 3.57436832 -13.97375337
v 127.75925082 3.60337654 -15.53886586
v 128.17405057 4.38079804 -16.02021324
v 127.01261587 4.17919085 -16.30216753
v 127.01261587 4.81954849 -16.66635975
v 127.01261587 5.57811494 -16.69866717
v 127.01261587 6.85737894 -16.70356258
v 127.90858087 10.83803895 -16.67484424
v 128.01919388 10.83803895 -16.67125516
v 127.01261587 10.83803895 -13.37133564
v 127.01261587 9.41663354 -13.37133564
v 127.78137648 3.59249870 -14.71943384
v 127.01261587 3.47936647 -14.71943384
v 119.33606305 4.29812529 -13.61935197
v 120.61364503 10.83803895 -13.37003026
v 72.95046234 5.57811494 -13.37133564
v 72.95046234 5.26482488 -13.43170823
v 78.38709694 4.29812529 -13.61869880
v 125.73503388 3.43077756 -14.71943384
v 116.77537243 3.57436832 -13.97342726
v 96.30088747 3.57364364 -13.97310115
v 105.25501656 3.57364364 -13.97342726
v 127.01261587 3.54536011 -15.66222086
v 125.73503388 3.51490158 -15.69583366
v 125.73503388 4.16903769 -16.33578128
v 125.73503388 4.80867065 -16.67125516
v 125.73503388 5.57811494 -16.70356258
v 127.01261587 10.83803895 -16.70356258
v 87.34122793 9.41663354 -16.70388869
v 125.73503388 10.83803895 -13.37100953
v 80.94225900 10.83803895 -13.37035636
v 72.95046234 8.13664390 -13.37133564
v 72.95046234 4.29812529 -13.61869880
v 72.95046234 4.12117442 -13.70517803
v 74.54329197 3.57364364 -13.97277409
v 72.95046234 3.43005288 -14.71943384
v 72.95046234 3.51490158 -15.69583366
v 72.95046234 3.67444676 -15.85214925
v 72.95046234 4.16903769 -16.33578128
v 114.21467801 4.80867065 -16.67125516
v 72.95046234 5.57811494 -16.70356258
v 79.66467892 10.83803895 -16.70356258
v 79.66467892 9.41663354 -16.70388869
v 79.80847469 10.83803895 -13.37231491
v 72.95046234 8.94307362 -13.63893170
v 79.66467892 10.83803895 -13.37264102
v 72.95046234 3.57364364 -13.97277409
v 72.95046234 4.80939533 -16.67125516
v 72.95046234 8.13664390 -16.70356258
v 72.95046234 8.30996851 -16.69573030
v 72.95046234 8.84662145 -16.67125516
v 78.96228573 10.83803895 -16.67125516
v 72.95046234 9.20342287 -13.72541093
v 78.62491434 10.83803895 -13.72736947
v 72.95046234 9.31002821 -15.99900107
v 78.56407737 10.83803895 -15.99900107
v 72.95046234 9.66683059 -14.71943384
v 72.95046234 9.55369836 -14.47663903
v 78.27095347 10.83803895 -14.60913168
v 78.23223834 10.83803895 -14.71943384
f 1 2 3
f 1 3 10
f 1 10 19
f 1 19 35
f 1 35 51
f 1 51 50
f 1 50 70
f 1 70 84
f 1 84 94
f 1 94 98
f 1 98 102
f 1 102 101
f 1 101 96
f 1 96 88
f 1 88 86
f 1 86 73
f 1 73 57
f 1 57 72
f 1 72 52
f 1 52 36
f 1 36 20
f 1 20 11
f 1 11 5
f 1 5 4
f 1 4 2
f 2 4 5
f 2 5 6
f 2 6 7
f 2 7 8
f 2 8 9
f 2 9 10
f 2 10 3
f 5 11 6
f 6 12 7
f 6 11 13
f 6 13 14
f 6 14 12
f 7 12 15
f 7 15 16
f 7 16 8
f 8 16 17
f 8 17 18
f 8 18 19
f 8 19 9
f 9 19 10
f 11 20 21
f 11 21 22
f 11 22 13
f 12 23 15
f 12 14 23
f 13 22 24
f 13 24 14
f 14 25 23
f 14 24 26
f 14 26 25
f 15 23 27
f 15 27 28
f 15 28 29
f 15 29 16
f 16 29 17
f 17 30 31
f 17 31 32
f 17 32 33
f 17 33 18
f 17 29 30
f 18 34 19
f 18 33 34
f 19 34 35
f 20 36 21
f 21 36 24
f 21 24 22
f 23 25 37
f 23 37 38
f 23 38 27
f 24 36 39
f 24 39 40
f 24 40 41
f 24 41 26
f 25 26 37
f 26 42 37
f 26 41 43
f 26 43 42
f 27 38 28
f 28 38 44
f 28 44 45
f 28 45 31
f 28 31 30
f 28 30 29
f 31 45 44
f 31 44 46
f 31 46 47
f 31 47 48
f 31 48 32
f 32 48 33
f 33 48 49
f 33 49 50
f 33 50 51
f 33 51 35
f 33 35 34
f 36 52 53
f 36 53 39
f 37 54 38
f 37 42 55
f 37 55 54
f 38 54 44
f 39 53 40
f 40 56 41
f 40 53 57
f 40 57 58
f 40 58 59
f 40 59 60
f 40 60 56
f 41 56 43
f 42 43 61
f 42 61 55
f 43 56 62
f 43 62 63
f 43 63 64
f 43 64 61
f 44 54 55
f 44 55 65
f 44 65 46
f 46 65 66
f 46 66 67
f 46 67 47
f 47 67 68
f 47 68 48
f 48 68 69
f 48 69 49
f 49 70 50
f 49 69 71
f 49 71 70
f 52 72 53
f 53 72 57
f 55 61 65
f 56 60 63
f 56 63 62
f 57 73 58
f 58 73 74
f 58 74 87
f 58 87 95
f 58 95 100
f 58 100 99
f 58 99 97
f 58 97 93
f 58 93 92
f 58 92 91
f 58 91 83
f 58 83 90
f 58 90 81
f 58 81 80
f 58 80 79
f 58 79 78
f 58 78 89
f 58 89 76
f 58 76 75
f 58 75 59
f 59 75 60
f 60 75 76
f 60 76 77
f 60 77 63
f 61 66 65
f 61 64 78
f 61 78 66
f 63 77 78
f 63 78 64
f 66 78 79
f 66 79 80
f 66 80 67
f 67 80 81
f 67 81 82
f 67 82 68
f 68 82 83
f 68 83 69
f 69 83 85
f 69 85 71
f 70 71 85
f 70 85 84
f 73 86 74
f 74 86 88
f 74 88 87
f 76 89 77
f 77 89 78
f 81 90 82
f 82 90 83
f 83 91 85
f 84 85 91
f 84 91 92
f 84 92 93
f 84 93 94
f 87 88 95
f 88 96 95
f 93 97 94
f 94 97 99
f 94 99 98
f 95 96 100
f 96 101 99
f 96 99 100
f 98 99 102
f 99 101 102

