# https://github.com/mikedh/trimesh
v 37.70316572 24.34200484 3.18313892
v 37.70316572 24.34200484 2.34502682
v 35.13465809 24.34200484 3.18313892
v 37.94236573 20.66844650 3.18313892
v 37.94319149 20.66844650 2.43279378
v 37.94319149 20.67136620 1.91731774
v 37.94319149 20.68304692 -0.64152064
v 37.94319149 20.68888823 -1.92217597
v 37.70289110 24.34200484 -0.64152064
v 35.13465809 24.34200484 -6.96568343
v 35.13465809 9.42583508 3.18313892
v 37.94319149 19.35145522 3.18313892
v 37.94319149 20.68012721 -2.70342505
v 37.70261649 24.34200484 -1.92217597
v 35.71396040 24.34200484 -6.55404368
v 37.94319149 19.84496104 -9.44417139
v 35.13465809 19.62887072 -9.44417139
v 35.13465809 9.42583508 -6.08059723
v 37.94319149 9.42583508 3.18313892
v 37.94319149 20.67282701 -3.20035879
v 37.69189312 24.34200484 -3.20035879
v 35.93006407 24.34200484 -6.38963551
v 36.35375069 24.34200484 -6.04722090
v 36.59157572 24.34200484 -5.83089411
v 37.02680956 24.34200484 -5.40689330
v 37.17747644 24.34200484 -5.09909127
v 37.47276486 24.34200484 -4.47977798
v 37.54809925 24.34200484 -4.04836016
v 37.94319149 14.57115462 -9.44417139
v 35.13465809 14.10538883 -9.44417139
v 37.94319149 9.42583508 -5.64176239
f 1 2 9
f 1 9 14
f 1 14 21
f 1 21 28
f 1 28 27
f 1 27 26
f 1 26 25
f 1 25 24
f 1 24 23
f 1 23 22
f 1 22 15
f 1 15 10
f 1 10 3
f 1 3 11
f 1 11 19
f 1 19 12
f 1 12 4
f 1 4 5
f 1 5 6
f 1 6 7
f 1 7 8
f 1 8 2
f 2 8 9
f 3 10 17
f 3 17 30
f 3 30 18
f 3 18 11
f 4 12 5
f 5 12 19
f 5 19 31
f 5 31 29
f 5 29 16
f 5 16 20
f 5 20 13
f 5 13 8
f 5 8 7
f 5 7 6
f 8 13 14
f 8 14 9
f 10 15 16
f 10 16 17
f 11 18 31
f 11 31 19
f 13 20 14
f 14 20 21
f 15 22 16
f 16 22 23
f 16 23 24
f 16 24 25
f 16 25 26
f 16 26 27
f 16 27 28
f 16 28 21
f 16 21 20
f 16 29 30
f 16 30 17
f 18 30 29
f 18 29 31

