# https://github.com/mikedh/trimesh
v 18.29580205 -8.56126408 -11.67989886
v 17.06025919 -8.60982628 -11.67989886
v 19.08335859 -8.56993594 -11.67989886
v 19.07391486 -10.60607293 -15.13772254
v 16.37746480 -9.20644537 -11.67989886
v 19.08335859 -10.60087000 -15.12820443
v 19.08335859 -17.41950119 -11.67989886
v 19.08335859 -10.61561202 -15.15080971
v 18.81383450 -11.45937758 -15.43397116
v 16.00835429 -10.11698385 -11.67989886
v 18.23397913 -17.41516550 -11.67989886
v 19.08335859 -15.42151960 -15.24162749
v 19.08335859 -11.29721496 -15.54660183
v 19.08335859 -11.80017882 -15.68302683
v 19.08335859 -12.34043179 -15.72784072
v 18.77820308 -12.34043179 -15.47759600
v 15.97363826 -11.36138594 -11.67989886
v 16.95214442 -16.89138900 -11.67989886
v 19.00447898 -15.40417589 -15.21267744
v 19.08335859 -15.32526290 -15.30389188
v 19.08335859 -13.61952130 -15.73101406
v 18.77241707 -13.61952130 -15.47957838
v 15.97241774 -12.34043179 -11.67989886
v 16.31137772 -16.17856804 -11.67989886
v 18.80622153 -14.55087171 -15.43635116
v 19.08335859 -14.71823773 -15.56563805
v 15.99921950 -14.89861082 -11.67989886
v 15.97759730 -13.61952130 -11.67989886
f 1 2 5
f 1 5 10
f 1 10 17
f 1 17 23
f 1 23 28
f 1 28 27
f 1 27 24
f 1 24 18
f 1 18 11
f 1 11 7
f 1 7 3
f 1 3 4
f 1 4 2
f 2 4 5
f 3 6 4
f 3 7 12
f 3 12 20
f 3 20 26
f 3 26 21
f 3 21 15
f 3 15 14
f 3 14 13
f 3 13 8
f 3 8 6
f 4 6 8
f 4 8 9
f 4 9 5
f 5 9 10
f 7 11 12
f 8 13 9
f 9 13 14
f 9 14 15
f 9 15 16
f 9 16 10
f 10 16 17
f 11 18 12
f 12 19 20
f 12 18 19
f 15 21 22
f 15 22 16
f 16 22 17
f 17 22 23
f 18 24 19
f 19 25 26
f 19 26 20
f 19 24 25
f 21 26 25
f 21 25 22
f 22 25 27
f 22 27 28
f 22 28 23
f 24 27 25

