# https://github.com/mikedh/trimesh
v 37.39908170 42.69828424 43.86487698
v 36.11917106 42.67311831 41.60065242
v 36.11917106 42.67311831 43.86487698
v 37.91357743 42.69269096 43.86487698
v 37.39908170 42.69548760 42.88079962
v 36.11917106 42.66472839 35.19821481
v 34.89532291 42.35993671 35.20075963
v 34.89080174 42.35993671 37.76105593
v 34.88944539 42.35993671 39.04120408
v 34.88944539 42.35993671 40.32050427
v 34.89125386 42.35993671 41.60065242
v 34.89351445 42.35993671 42.88079962
v 34.89487080 42.35714388 43.86487698
v 37.91357743 42.68709769 42.88079962
v 37.91357743 14.44782551 43.86487698
v 37.13369478 42.37112326 35.19821481
v 34.89351445 42.35714388 35.19821481
v 34.25514058 42.02159299 35.19821481
v 34.25287999 42.02438963 36.48090778
v 34.24926306 42.02718626 39.04120408
v 34.24926306 42.02718626 40.32050427
v 34.74658025 42.28164226 43.86487698
v 37.91357743 42.41306903 41.61931513
v 36.11917106 14.44502887 43.86487698
v 37.91357743 14.13184918 38.15977682
v 37.60569342 41.42599282 35.19821481
v 33.81750282 41.38125041 35.20075963
v 33.81388588 41.38405086 36.48090778
v 33.81659859 41.37845758 35.19821481
v 33.81433800 41.38684369 39.04120408
v 33.81433800 41.38684369 40.32050427
v 33.81433800 41.38405086 42.88079962
v 33.81433800 41.38125041 43.86487698
v 34.25333211 42.02438963 42.88079962
v 34.25468846 42.02159299 43.86487698
v 37.91357743 41.99363041 40.96609198
v 35.82213785 14.44502887 43.86487698
v 36.11148507 14.13184918 38.15977682
v 37.91357743 14.13184918 35.19821481
v 37.70379899 40.14531147 35.19821481
v 33.36584944 40.14531147 35.19821481
v 33.36223441 40.14531147 36.48090778
v 33.36268653 40.14531147 40.32050427
v 33.36313864 40.14531147 43.86487698
v 33.70990280 41.09603520 43.86487698
v 33.91606241 41.52945320 43.86487698
v 37.91357743 41.76153990 40.72940495
v 34.83926041 14.46180680 43.86487698
v 34.83926041 14.13184918 38.14281003
v 37.91357743 20.78131816 35.19821481
v 33.29532301 14.13184918 35.19821481
v 37.91357743 41.40362352 40.41806329
v 37.91357743 40.14531147 40.06430467
v 33.29577322 38.86463395 35.19821481
v 33.29577322 38.86463395 35.20075963
v 33.29622724 38.86463395 43.86487698
v 33.34731455 39.84890971 43.86487698
v 33.59506701 14.13184918 37.38439196
v 33.73341098 14.13184918 37.67622201
v 34.82389034 14.13184918 38.13771990
v 34.59919394 14.53171133 43.86487698
v 33.31476213 14.13184918 36.06946228
v 33.34867090 15.82357732 43.86487698
v 33.29622724 17.10425675 43.86487698
v 33.33827221 14.13184918 36.48090778
v 33.80032428 14.83090973 43.86487698
f 1 2 3
f 1 3 13
f 1 13 22
f 1 22 35
f 1 35 46
f 1 46 33
f 1 33 45
f 1 45 44
f 1 44 57
f 1 57 56
f 1 56 64
f 1 64 63
f 1 63 66
f 1 66 61
f 1 61 48
f 1 48 37
f 1 37 24
f 1 24 15
f 1 15 4
f 1 4 5
f 1 5 6
f 1 6 2
f 2 6 7
f 2 7 8
f 2 8 9
f 2 9 10
f 2 10 3
f 3 10 11
f 3 11 12
f 3 12 13
f 4 14 5
f 4 15 25
f 4 25 39
f 4 39 50
f 4 50 53
f 4 53 52
f 4 52 47
f 4 47 36
f 4 36 23
f 4 23 14
f 5 14 6
f 6 14 16
f 6 16 26
f 6 26 40
f 6 40 50
f 6 50 39
f 6 39 51
f 6 51 54
f 6 54 41
f 6 41 29
f 6 29 18
f 6 18 17
f 6 17 7
f 7 17 18
f 7 18 19
f 7 19 20
f 7 20 8
f 8 20 9
f 9 20 21
f 9 21 10
f 10 21 11
f 11 21 12
f 12 21 22
f 12 22 13
f 14 23 16
f 15 24 25
f 16 23 26
f 18 27 28
f 18 28 19
f 18 29 27
f 19 28 20
f 20 28 30
f 20 30 31
f 20 31 21
f 21 31 32
f 21 32 33
f 21 33 34
f 21 34 22
f 22 34 35
f 23 36 26
f 24 37 38
f 24 38 25
f 25 38 49
f 25 49 60
f 25 60 59
f 25 59 58
f 25 58 65
f 25 65 62
f 25 62 51
f 25 51 39
f 26 36 40
f 27 29 41
f 27 41 28
f 28 41 42
f 28 42 30
f 30 42 31
f 31 42 43
f 31 43 44
f 31 44 32
f 32 44 45
f 32 45 33
f 33 46 34
f 34 46 35
f 36 47 40
f 37 48 49
f 37 49 38
f 40 47 52
f 40 52 53
f 40 53 50
f 41 54 42
f 42 54 55
f 42 55 56
f 42 56 57
f 42 57 43
f 43 57 44
f 48 58 59
f 48 59 60
f 48 60 49
f 48 61 58
f 51 62 63
f 51 63 64
f 51 64 56
f 51 56 55
f 51 55 54
f 58 61 66
f 58 66 65
f 62 65 63
f 63 65 66

