# https://github.com/mikedh/trimesh
v 129.63770773 22.72882121 -12.55603239
v 129.63644907 17.09454514 -12.55603239
v 129.63644907 15.81661989 -14.71908104
v 129.63770773 22.72882121 -13.43960535
v 116.76160731 22.72882121 -12.55603239
v 129.45999308 15.81661989 -12.55603239
v 129.45116723 10.83876363 -14.71908104
v 129.28479574 22.21439309 -15.96038702
v 129.49528123 22.72882121 -15.21771492
v 129.63644907 22.72882121 -14.71908104
v 129.28479574 10.83876363 -15.95754455
v 116.76160731 22.72882121 -14.65370624
v 116.76160731 14.76797605 -12.55603239
v 129.11716560 14.87621478 -12.55603239
v 129.10078018 10.83876363 -13.91712432
v 129.13985193 10.83876363 -14.00605030
v 129.28479574 22.72882121 -15.96038702
v 129.04028076 22.72882121 -16.21741991
v 128.66091029 10.83876363 -16.59748645
v 128.67225346 22.72882121 -16.60032797
v 118.67739291 10.83876363 -16.64986563
v 116.76160731 18.37479700 -14.65370624
v 118.68243516 22.72882121 -16.64986563
v 116.76160731 14.95186766 -13.17282741
v 118.08249089 10.83876363 -14.71908104
v 118.10769834 10.83876363 -14.61716134
v 118.40262823 10.83876363 -13.79774458
v 118.49967826 10.83876363 -13.75835721
v 119.33657414 10.83876363 -13.44325927
v 119.47900064 10.83876363 -13.43473282
v 120.61712731 10.83876363 -13.37017043
v 119.33657414 14.26867661 -12.55603239
v 128.73274906 14.65275369 -12.55603239
v 128.29413783 10.83876363 -13.56304521
v 128.38362448 10.83876363 -13.60202637
v 128.67099099 22.21439309 -16.60032797
v 128.02063180 10.83876363 -16.67098054
v 128.41639531 22.72882121 -16.62875071
v 118.35599691 10.83876363 -15.99896198
v 116.76160731 16.09129113 -14.30368725
v 116.76160731 17.09454514 -14.59076770
v 116.76160731 17.10967572 -14.59158010
v 119.07441509 22.72882121 -16.66935764
v 119.33657414 22.72882121 -16.68235041
v 119.33657414 10.83876363 -16.68235041
v 116.76160731 14.95768608 -13.18054335
v 116.76160731 15.45116520 -13.81276836
v 120.75829134 10.83876363 -13.37017043
v 125.73429395 14.24307249 -12.55603239
v 120.61712731 14.25005612 -12.55603239
v 128.29413783 14.43511103 -12.55603239
v 127.01484331 10.83876363 -13.37138808
v 127.15600734 10.83876363 -13.39250299
v 127.90845882 10.83876363 -16.67463637
v 128.03323743 22.72882121 -16.67098054
v 116.76160731 15.45814883 -13.81845329
v 120.61712731 22.72882121 -16.70346532
v 120.47470462 10.83876363 -16.70143621
v 125.73429395 10.83876363 -13.37098188
v 127.01484331 14.24307249 -12.55603239
v 127.01484331 10.83876363 -16.70346532
v 127.01484331 22.72882121 -16.70346532
v 120.61712731 10.83876363 -16.70346532
f 1 2 3
f 1 3 4
f 1 4 10
f 1 10 9
f 1 9 17
f 1 17 18
f 1 18 20
f 1 20 38
f 1 38 55
f 1 55 62
f 1 62 57
f 1 57 44
f 1 44 43
f 1 43 23
f 1 23 12
f 1 12 5
f 1 5 13
f 1 13 32
f 1 32 50
f 1 50 49
f 1 49 60
f 1 60 51
f 1 51 33
f 1 33 14
f 1 14 6
f 1 6 2
f 2 6 7
f 2 7 3
f 3 8 9
f 3 9 10
f 3 10 4
f 3 7 11
f 3 11 8
f 5 12 22
f 5 22 42
f 5 42 41
f 5 41 40
f 5 40 56
f 5 56 47
f 5 47 46
f 5 46 24
f 5 24 13
f 6 14 15
f 6 15 16
f 6 16 7
f 7 16 15
f 7 15 35
f 7 35 34
f 7 34 53
f 7 53 52
f 7 52 59
f 7 59 48
f 7 48 31
f 7 31 30
f 7 30 29
f 7 29 28
f 7 28 27
f 7 27 26
f 7 26 25
f 7 25 39
f 7 39 21
f 7 21 45
f 7 45 58
f 7 58 63
f 7 63 61
f 7 61 54
f 7 54 37
f 7 37 19
f 7 19 11
f 8 17 9
f 8 11 18
f 8 18 17
f 11 19 20
f 11 20 18
f 12 21 22
f 12 23 21
f 13 24 25
f 13 25 26
f 13 26 27
f 13 27 28
f 13 28 29
f 13 29 30
f 13 30 31
f 13 31 32
f 14 33 34
f 14 34 35
f 14 35 15
f 19 36 20
f 19 37 36
f 20 36 37
f 20 37 38
f 21 39 40
f 21 40 41
f 21 41 42
f 21 42 22
f 21 23 43
f 21 43 44
f 21 44 45
f 24 46 25
f 25 46 47
f 25 47 39
f 31 48 60
f 31 60 49
f 31 49 50
f 31 50 32
f 33 51 52
f 33 52 53
f 33 53 34
f 37 54 55
f 37 55 38
f 39 47 56
f 39 56 40
f 44 57 58
f 44 58 45
f 48 59 60
f 51 60 52
f 52 60 59
f 54 61 55
f 55 61 62
f 57 63 58
f 57 62 61
f 57 61 63

