v 59.361071 12.001028 23.067302
v 59.361382 11.467773 23.067302
v 59.361071 12.001028 23.482376
v 59.361071 12.533108 23.067302
v 59.397718 9.000000 23.067302
v 59.361382 11.999853 23.483200
v 60.182237 14.999706 24.750000
v 59.397718 14.999706 23.067302
v 60.182237 9.000000 24.750000
v 61.604372 9.000000 23.067302
v 60.820164 14.999706 24.750000
v 61.604683 14.999706 23.067302
v 60.820475 9.000000 24.750000
v 62.533620 11.552342 23.067302
v 62.533931 12.001028 23.415504
v 61.911844 11.999853 24.750000
v 62.533931 12.446777 23.067302
v 62.533620 11.999853 23.416985
v 62.533931 12.001028 23.067302
f 1 2 3
f 1 3 4
f 1 4 8
f 1 8 12
f 1 12 17
f 1 17 19
f 1 19 14
f 1 14 10
f 1 10 5
f 1 5 2
f 2 5 3
f 3 5 6
f 3 6 7
f 3 7 8
f 3 8 4
f 5 9 6
f 5 10 13
f 5 13 9
f 6 9 7
f 7 11 12
f 7 12 8
f 7 9 13
f 7 13 16
f 7 16 11
f 10 14 13
f 11 15 12
f 11 16 15
f 12 15 17
f 13 14 18
f 13 18 16
f 14 19 15
f 14 15 18
f 15 19 17
f 15 16 18
