# https://github.com/mikedh/trimesh
v 32.94480387 42.26747990 -5.69622455
v 32.94480387 42.26747990 -5.76088039
v 32.68092085 42.17233692 -5.69622455
v 32.94480387 24.59480788 -5.69622455
v 32.94480387 42.26574830 -14.71894945
v 32.68092085 42.17233692 -14.71894945
v 31.98964007 41.85922136 -5.69622455
v 28.45957428 24.59480788 -5.69622455
v 32.94480387 24.59480788 -8.48289166
v 32.94480387 42.16195492 -15.58964788
v 32.76996125 42.13254813 -15.53792378
v 32.04063472 41.88170935 -13.43876338
v 29.35322030 40.66040075 -14.71894945
v 30.97862243 41.32641305 -5.69622455
v 24.67614858 38.53435470 -14.71894945
v 24.67614858 38.53435470 -8.32125253
v 24.67614858 38.32330472 -7.20809397
v 24.67614858 24.59480788 -6.37187796
v 28.45957428 36.28721064 -5.69622455
v 32.05115785 24.59480788 -9.11113091
v 32.94480387 26.49077918 -15.99266965
v 32.94480387 41.57032921 -16.19525802
v 31.65047413 40.77803554 -16.64246053
v 31.14618011 41.03578929 -16.02068619
v 30.12544794 40.89047932 -15.60796705
v 24.67614858 38.37001232 -15.64783785
v 30.19748885 40.88009731 -5.69622455
v 24.67614858 38.29389793 -7.15960185
v 25.25572170 38.21605194 -6.39774049
v 24.67614858 24.59480788 -13.09824248
v 24.67614858 36.33564984 -6.37187796
v 28.46038287 37.56733664 -5.69622455
v 31.03447626 24.59480788 -9.82342362
v 32.94480387 26.60841397 -16.31487233
v 24.67614858 24.86294364 -15.31378282
v 24.67614858 25.06880071 -16.12090385
v 32.94480387 40.90777631 -16.66401216
v 27.48093462 39.65013831 -15.66723546
v 32.30937693 40.83166193 -16.65754725
v 26.40111044 38.25237753 -16.65754725
v 25.54793975 37.94618458 -16.56810636
v 25.94943207 38.58970888 -16.08426550
v 24.67614858 38.34233332 -15.67801128
v 29.34107999 40.06877505 -5.69622455
v 24.67614858 37.95310719 -6.67899345
v 24.67614858 37.44278687 -6.38696420
v 24.67614858 24.71417046 -14.71894945
v 28.06617551 24.59480788 -11.64025309
v 28.47819095 38.94260942 -5.69622455
v 24.67614858 36.73352638 -6.37726587
v 30.94867023 24.59480788 -9.88269108
v 32.94480387 26.73123594 -16.63168567
v 24.67614858 25.13799820 -16.21357719
v 25.23305826 25.45283965 -16.63168567
v 32.94480387 40.13105184 -16.69634056
v 32.30937693 40.13105184 -16.68987564
v 27.19033757 38.33368292 -16.66940150
v 27.19033757 37.57079603 -16.70172990
v 24.67614858 37.10718331 -16.67155647
v 24.67614858 37.74205721 -16.28685388
v 29.85185037 24.59480788 -10.63808705
v 28.85944940 24.59480788 -11.24046378
v 28.70646163 24.59480788 -11.32990466
v 28.15602450 24.59480788 -11.60145977
v 32.94480387 27.37130085 -16.67047899
v 24.67614858 25.84898648 -16.67478893
v 32.94480387 38.85092584 -16.70280548
v 31.02961709 38.85092584 -16.70280548
v 29.74985725 38.85092584 -16.69634056
v 24.67614858 36.29240165 -16.70280548
v 32.94480387 27.99752435 -16.68772067
v 24.67614858 25.95451147 -16.67802139
v 32.94480387 28.61509744 -16.70280548
v 25.91057773 27.33497145 -16.70388487
v 24.67614858 27.33497145 -16.70280548
f 1 2 6
f 1 6 3
f 1 3 7
f 1 7 14
f 1 14 27
f 1 27 44
f 1 44 49
f 1 49 32
f 1 32 19
f 1 19 8
f 1 8 4
f 1 4 9
f 1 9 21
f 1 21 34
f 1 34 52
f 1 52 65
f 1 65 71
f 1 71 73
f 1 73 67
f 1 67 55
f 1 55 37
f 1 37 22
f 1 22 10
f 1 10 5
f 1 5 2
f 2 5 6
f 3 6 7
f 4 8 18
f 4 18 30
f 4 30 48
f 4 48 64
f 4 64 63
f 4 63 62
f 4 62 61
f 4 61 51
f 4 51 33
f 4 33 20
f 4 20 9
f 5 10 11
f 5 11 6
f 6 12 7
f 6 11 13
f 6 13 12
f 7 12 13
f 7 13 15
f 7 15 16
f 7 16 17
f 7 17 14
f 8 19 31
f 8 31 18
f 9 20 21
f 10 22 23
f 10 23 11
f 11 23 24
f 11 24 25
f 11 25 26
f 11 26 15
f 11 15 13
f 14 17 27
f 15 26 43
f 15 43 60
f 15 60 59
f 15 59 70
f 15 70 75
f 15 75 72
f 15 72 66
f 15 66 53
f 15 53 36
f 15 36 35
f 15 35 47
f 15 47 30
f 15 30 18
f 15 18 31
f 15 31 50
f 15 50 46
f 15 46 45
f 15 45 28
f 15 28 17
f 15 17 16
f 17 28 29
f 17 29 27
f 19 32 31
f 20 33 21
f 21 33 35
f 21 35 36
f 21 36 34
f 22 37 23
f 23 38 24
f 23 37 39
f 23 39 40
f 23 40 41
f 23 41 42
f 23 42 26
f 23 26 38
f 24 38 25
f 25 38 26
f 26 42 43
f 27 29 44
f 28 45 29
f 29 45 46
f 29 46 44
f 30 47 48
f 31 32 49
f 31 49 50
f 33 51 47
f 33 47 35
f 34 36 52
f 36 53 54
f 36 54 52
f 37 55 56
f 37 56 39
f 39 56 40
f 40 57 58
f 40 58 59
f 40 59 41
f 40 56 57
f 41 60 43
f 41 43 42
f 41 59 60
f 44 46 49
f 46 50 49
f 47 51 61
f 47 61 62
f 47 62 63
f 47 63 64
f 47 64 48
f 52 54 66
f 52 66 65
f 53 66 54
f 55 67 68
f 55 68 58
f 55 58 69
f 55 69 56
f 56 69 57
f 57 69 58
f 58 68 70
f 58 70 59
f 65 66 72
f 65 72 71
f 67 73 74
f 67 74 68
f 68 74 70
f 70 74 75
f 71 72 73
f 72 74 73
f 72 75 74

