# https://github.com/mikedh/trimesh
v 72.95046425 14.57388552 -9.85080321
v 84.53151025 14.57113173 -9.85080321
v 97.23453016 14.49679091 -9.03652120
v 72.95046425 14.57388552 -9.03652120
v 72.95046425 42.16584149 -9.85080321
v 97.23453016 14.57113173 -9.85080321
v 97.23453016 42.59812893 -9.03652120
v 72.95046425 20.00086470 -9.03652120
v 72.95046425 41.41140668 -9.51619514
v 78.65541387 42.24293610 -9.03652120
v 79.66328772 42.46871617 -9.03652120
v 80.94214648 42.58160621 -9.03652120
v 79.66328772 42.54856838 -9.85080321
v 97.23453016 42.62566299 -9.85080321
v 83.50224209 42.59812893 -9.03652120
v 78.23942794 41.41140668 -9.03652120
v 72.95046425 40.13107091 -9.42118470
v 78.29647749 41.57110347 -9.03652120
v 80.94214648 42.62015542 -9.85080321
v 82.22338238 42.62290920 -9.85080321
f 1 2 3
f 1 3 4
f 1 4 8
f 1 8 17
f 1 17 9
f 1 9 5
f 1 5 13
f 1 13 19
f 1 19 20
f 1 20 14
f 1 14 6
f 1 6 2
f 2 6 3
f 3 6 14
f 3 14 7
f 3 7 15
f 3 15 12
f 3 12 11
f 3 11 10
f 3 10 18
f 3 18 16
f 3 16 8
f 3 8 4
f 5 9 10
f 5 10 11
f 5 11 12
f 5 12 13
f 7 14 15
f 8 16 17
f 9 17 10
f 10 17 18
f 12 15 19
f 12 19 13
f 14 20 15
f 15 20 19
f 16 18 17

