# https://github.com/mikedh/trimesh
v 35.13465809 2.79475275 -4.47992912
v 35.13465809 2.79475275 -4.47398149
v 35.13465809 2.79540211 -5.75989063
v 37.94319149 3.37114300 -5.75989063
v 35.13465809 2.79540211 -3.19401998
v 37.94319149 3.37114300 2.43257638
v 35.13465809 2.82655767 -7.03985166
v 37.94319149 3.39191369 -7.03985166
v 37.94319149 3.38347497 -6.52596420
v 35.13465809 2.82980347 -1.87242400
v 37.94319149 3.37179235 3.18318564
v 35.13465809 3.10631502 -8.24368115
v 37.94319149 3.53536237 -7.86540295
v 37.94319149 3.47759386 -7.53351719
v 35.13465809 2.96740990 -0.34503508
v 37.94319149 9.42583508 3.18318564
v 36.13544628 3.37114300 3.18318564
v 35.13465809 4.29804043 -8.96812085
v 37.94319149 4.29804043 -8.33408796
v 35.13465809 3.37114300 3.18318564
v 35.13465809 9.42583508 3.18318564
v 37.94319149 9.42583508 -5.64093521
v 35.13465809 4.69593127 -8.93957128
v 35.13465809 5.57804151 -8.81823681
v 37.94319149 5.06071849 -8.22345874
v 35.13465809 9.42583508 -6.08107018
v 37.94319149 5.57349796 -8.14851720
v 35.13465809 5.82080105 -8.75875957
v 35.13465809 6.66136991 -8.19134107
f 1 2 5
f 1 5 10
f 1 10 15
f 1 15 20
f 1 20 21
f 1 21 26
f 1 26 29
f 1 29 28
f 1 28 24
f 1 24 23
f 1 23 18
f 1 18 12
f 1 12 7
f 1 7 3
f 1 3 4
f 1 4 6
f 1 6 2
f 2 6 5
f 3 7 8
f 3 8 9
f 3 9 4
f 4 9 8
f 4 8 14
f 4 14 13
f 4 13 19
f 4 19 25
f 4 25 27
f 4 27 22
f 4 22 16
f 4 16 11
f 4 11 6
f 5 6 11
f 5 11 10
f 7 12 13
f 7 13 14
f 7 14 8
f 10 11 15
f 11 16 21
f 11 21 20
f 11 20 17
f 11 17 15
f 12 18 19
f 12 19 13
f 15 17 20
f 16 22 26
f 16 26 21
f 18 23 19
f 19 23 24
f 19 24 25
f 22 27 28
f 22 28 29
f 22 29 26
f 24 28 27
f 24 27 25

