# https://github.com/mikedh/trimesh
v 49.97509897 14.06690458 46.00226653
v 49.96047289 14.06690458 45.73255683
v 49.78097292 14.06690458 47.02818855
v 51.49752457 9.30864938 48.00228501
v 51.49752457 9.66689864 46.72234670
v 48.92070216 14.06690458 45.20590926
v 51.49752457 9.66169167 46.71030265
v 51.49752457 9.20554859 45.72817683
v 51.49752457 9.19305147 45.72379683
v 51.49752457 8.14225729 45.37269940
v 49.60147296 14.06690458 47.54498112
v 51.49752457 8.84729933 48.67309302
v 51.49752457 8.85354789 48.66469929
v 47.64026881 14.06690458 44.98364418
v 51.49752457 6.86235046 45.37123908
v 49.40601727 14.06690458 47.78330493
v 51.49752457 8.15163061 48.70338676
v 49.07493890 14.06690458 48.18513293
v 48.43538800 14.06690458 48.67309302
v 46.35983546 14.06690458 44.97561577
v 51.49752457 5.58244363 45.37123908
v 51.49752457 8.14225729 48.70375113
v 48.13887940 14.06690458 48.68477366
v 37.91535729 5.58244363 45.37123908
v 37.91535729 14.06690458 44.97634545
v 51.49752457 5.56682175 45.37415877
v 51.49752457 5.58244363 48.70375113
v 47.64026881 14.06690458 48.70375113
v 37.91535729 5.06798128 45.46905086
v 37.91535729 14.06690458 48.70375113
v 51.49752457 4.30253680 45.61467258
v 51.49752457 4.81908136 48.67309302
v 37.91535729 5.58244363 48.70375113
v 37.91535729 5.12630055 48.68550239
v 37.91535729 4.30253680 45.61467258
v 51.49752457 4.29316348 45.61905163
v 48.92070216 4.17860715 48.34097402
v 51.49752457 4.18693889 48.34498775
v 37.91535729 4.81908136 48.67309302
v 37.91535729 4.43583880 48.47455264
v 37.91535729 4.00885536 45.75737366
v 51.49752457 3.57354114 45.97015001
v 51.49752457 3.52459424 47.70848625
v 51.49752457 4.17964874 48.34060965
v 37.91535729 4.17860715 48.34097402
v 37.91535729 3.78286747 47.95848880
v 37.91535729 3.57354114 45.97015001
v 51.49752457 3.57145797 45.97963874
v 51.49752457 3.51730504 47.70082220
v 37.91535729 3.51730504 47.70118752
v 38.67989467 3.51730504 47.70118752
v 37.91535729 3.51522187 46.27234250
v 51.49752457 3.42878360 46.72234670
v 51.49752457 3.42982518 46.73438980
v 37.91535729 3.46419179 47.11541565
v 37.91535729 3.42878360 46.72234670
f 1 2 6
f 1 6 14
f 1 14 20
f 1 20 25
f 1 25 30
f 1 30 28
f 1 28 23
f 1 23 19
f 1 19 18
f 1 18 16
f 1 16 11
f 1 11 3
f 1 3 4
f 1 4 5
f 1 5 2
f 2 5 7
f 2 7 8
f 2 8 9
f 2 9 10
f 2 10 6
f 3 11 12
f 3 12 13
f 3 13 4
f 4 13 12
f 4 12 17
f 4 17 22
f 4 22 27
f 4 27 32
f 4 32 38
f 4 38 44
f 4 44 43
f 4 43 49
f 4 49 54
f 4 54 53
f 4 53 48
f 4 48 42
f 4 42 36
f 4 36 31
f 4 31 26
f 4 26 21
f 4 21 15
f 4 15 10
f 4 10 9
f 4 9 8
f 4 8 7
f 4 7 5
f 6 10 14
f 10 15 14
f 11 16 12
f 12 16 18
f 12 18 19
f 12 19 17
f 14 15 21
f 14 21 20
f 17 19 22
f 19 23 22
f 20 21 24
f 20 24 25
f 21 26 24
f 22 23 28
f 22 28 30
f 22 30 33
f 22 33 27
f 24 29 35
f 24 35 41
f 24 41 47
f 24 47 52
f 24 52 56
f 24 56 55
f 24 55 50
f 24 50 46
f 24 46 45
f 24 45 40
f 24 40 39
f 24 39 34
f 24 34 33
f 24 33 30
f 24 30 25
f 24 26 29
f 26 31 29
f 27 33 34
f 27 34 32
f 29 31 35
f 31 36 35
f 32 37 38
f 32 34 39
f 32 39 40
f 32 40 37
f 35 36 41
f 36 42 41
f 37 43 44
f 37 44 38
f 37 40 45
f 37 45 46
f 37 46 43
f 41 42 47
f 42 48 47
f 43 46 50
f 43 50 51
f 43 51 49
f 47 48 52
f 48 53 52
f 49 51 55
f 49 55 54
f 50 55 51
f 52 53 56
f 53 54 56
f 54 55 56

