# https://github.com/mikedh/trimesh
v 9.23430390 23.49980579 29.62911647
v 10.50517984 29.90247042 29.62820795
v 9.23430390 28.62193788 29.62820795
v 8.24018840 28.62193788 29.53371932
v 9.23430390 -53.30634570 29.62911647
v 10.50517984 31.16581107 29.54734769
v 9.23430390 29.90247042 29.62729942
v 10.50517984 -53.31493783 29.62820795
v 8.27483925 29.90247042 29.53190227
v 7.60026169 28.62193788 28.86775750
v 8.24018840 -53.30634570 29.53371932
v 8.27783429 -54.58687825 29.52281701
v 9.23430390 -54.58687825 29.60640284
v 10.50517984 31.17440320 29.54643916
v 9.23430390 30.77907367 29.53190227
v 8.40402261 30.63297695 29.50010337
v 10.50517984 -54.58687825 29.60549432
v 7.59769397 29.82511836 28.69876853
v 7.30852608 29.35244440 28.20452125
v 7.30553486 28.62193788 28.22814341
v 7.60026169 -53.30634570 28.86775750
v 7.58272260 -54.58687825 28.69876853
v 8.40829959 -55.28300862 29.48738401
v 9.23430390 -55.30878501 29.51191469
v 10.50517984 31.77599726 29.14304592
v 10.50517984 31.91350949 28.79870832
v 8.16533157 30.77907367 28.79870832
v 10.50517984 -55.31738477 29.50646306
v 6.13518149 29.54151704 23.28021847
v 7.38167364 30.03138289 27.51857161
v 6.13518149 26.16400314 25.02007798
v 6.13518149 24.77174620 25.36078149
v 6.13518149 22.21927706 25.47162406
v 6.13518149 15.81661434 25.47616669
v 7.30553486 -53.30634570 28.22814341
v 7.30852608 -54.15716494 28.20452125
v 6.13518149 -54.74157474 24.50584265
v 7.33847262 -54.90486335 27.51857161
v 8.14736516 -55.38613707 28.79870832
v 6.13518149 -54.46655791 24.87652847
v 9.23430390 -55.54942569 28.79870832
v 10.50517984 31.96506990 28.49162076
v 9.23430390 31.50958020 27.51857161
v 8.02160416 30.88220212 27.51857161
v 6.13518149 29.93684657 22.42982178
v 10.50517984 -55.54942569 28.79870832
v 6.13518149 -18.74056866 25.47616669
v 6.13518149 -46.90368298 25.47344111
v 6.13518149 -53.30634570 25.45254453
v 6.13518149 -55.31738477 23.39469467
v 6.13518149 -55.42910535 23.04399690
v 6.13518149 -55.56660995 22.39893189
v 9.23430390 -55.70412218 27.51857161
v 10.50517984 32.09398237 27.51857161
v 9.23430390 31.50958020 22.39893189
v 7.95487399 30.91657827 22.39893189
v 7.24222322 30.57281678 22.39893189
v 7.24308167 30.57281678 21.60213968
v 6.13518149 29.81652623 21.11334308
v 10.50517984 -55.70412218 27.51857161
v 6.13518149 -55.54942569 21.85925687
v 7.95487399 -55.66114627 22.39893189
v 9.23430390 -55.70412218 22.39893189
v 10.50517984 32.09398237 22.39893189
v 10.50517984 31.84474956 21.11879423
v 7.98096705 30.72751326 21.15241018
v 6.13518149 29.36962866 20.43557018
v 8.42498023 30.59859317 20.44465639
v 10.50517984 -55.70412218 22.39893189
v 6.13518149 -55.50644978 21.11879423
v 10.50517984 -55.50644978 21.11334308
v 10.50517984 31.11425067 20.40377128
v 6.13518149 29.05164356 20.41467360
v 6.13518149 -55.26581673 20.44556444
v 10.50517984 -55.26581673 20.43829623
v 10.50517984 29.90247042 20.34925876
v 9.23430390 29.90247042 20.37288044
v 6.67458563 28.62193788 20.37106434
v 6.13518149 28.63053001 20.38923486
v 6.13518149 -54.98220778 20.42285081
v 10.50517984 -54.58687825 20.37288044
v 6.13518149 27.34140533 20.37106434
v 10.50517984 -53.29775357 20.34744171
v 6.13518149 -54.58687825 20.39196092
v 10.50517984 -53.30634570 20.34744171
v 6.13518149 -53.30634570 20.37106434
v 6.13518149 -54.04544436 20.38287471
f 1 2 3
f 1 3 4
f 1 4 11
f 1 11 5
f 1 5 8
f 1 8 2
f 2 6 7
f 2 7 3
f 2 8 17
f 2 17 28
f 2 28 46
f 2 46 60
f 2 60 69
f 2 69 71
f 2 71 75
f 2 75 81
f 2 81 85
f 2 85 83
f 2 83 76
f 2 76 72
f 2 72 65
f 2 65 64
f 2 64 54
f 2 54 42
f 2 42 26
f 2 26 25
f 2 25 14
f 2 14 6
f 3 7 4
f 4 7 9
f 4 9 10
f 4 10 21
f 4 21 11
f 5 11 12
f 5 12 13
f 5 13 8
f 6 14 7
f 7 14 15
f 7 15 16
f 7 16 9
f 8 13 17
f 9 16 18
f 9 18 10
f 10 18 19
f 10 19 20
f 10 20 35
f 10 35 21
f 11 21 12
f 12 21 22
f 12 22 23
f 12 23 13
f 13 23 24
f 13 24 17
f 14 25 16
f 14 16 15
f 16 25 26
f 16 26 27
f 16 27 18
f 17 24 28
f 18 29 19
f 18 27 30
f 18 30 29
f 19 29 31
f 19 31 32
f 19 32 33
f 19 33 20
f 20 33 34
f 20 34 47
f 20 47 35
f 21 35 36
f 21 36 22
f 22 37 38
f 22 38 39
f 22 39 23
f 22 36 40
f 22 40 37
f 23 39 41
f 23 41 24
f 24 41 28
f 26 42 27
f 27 42 43
f 27 43 44
f 27 44 45
f 27 45 30
f 28 41 46
f 29 30 45
f 29 45 59
f 29 59 67
f 29 67 73
f 29 73 79
f 29 79 82
f 29 82 86
f 29 86 87
f 29 87 84
f 29 84 80
f 29 80 74
f 29 74 70
f 29 70 61
f 29 61 52
f 29 52 51
f 29 51 50
f 29 50 37
f 29 37 40
f 29 40 49
f 29 49 48
f 29 48 47
f 29 47 34
f 29 34 33
f 29 33 32
f 29 32 31
f 35 47 48
f 35 48 49
f 35 49 36
f 36 49 40
f 37 50 38
f 38 50 39
f 39 50 51
f 39 51 52
f 39 52 53
f 39 53 41
f 41 53 60
f 41 60 46
f 42 54 43
f 43 55 56
f 43 56 57
f 43 57 44
f 43 54 64
f 43 64 55
f 44 57 45
f 45 57 58
f 45 58 59
f 52 61 62
f 52 62 53
f 53 62 63
f 53 63 69
f 53 69 60
f 55 64 58
f 55 58 56
f 56 58 57
f 58 64 65
f 58 65 66
f 58 66 59
f 59 66 68
f 59 68 67
f 61 70 62
f 62 70 63
f 63 70 71
f 63 71 69
f 65 72 68
f 65 68 66
f 67 68 72
f 67 72 73
f 70 74 75
f 70 75 71
f 72 76 77
f 72 77 78
f 72 78 73
f 73 78 79
f 74 80 81
f 74 81 75
f 76 82 78
f 76 78 77
f 76 83 82
f 78 82 79
f 80 84 81
f 81 84 85
f 82 83 85
f 82 85 86
f 84 87 85
f 85 87 86

