v 96.153434 14.999706 -8.932042
v 95.369310 14.999706 -7.250000
v 97.089154 11.999853 -8.579332
v 97.083926 12.454412 -8.932042
v 43.690307 14.999706 -8.932042
v 96.456628 11.999853 -7.250000
v 44.479657 14.999706 -7.250000
v 97.089154 11.548231 -8.932042
v 97.089154 11.999853 -8.932042
v 95.369310 9.000000 -7.250000
v 43.685078 11.999853 -8.932042
v 43.685078 11.999853 -8.584766
v 44.479657 9.000000 -7.250000
v 96.153434 9.000000 -8.932042
v 43.685078 11.555278 -8.932042
v 43.690307 9.000000 -8.932042
f 1 2 3
f 1 3 4
f 1 4 9
f 1 9 8
f 1 8 14
f 1 14 16
f 1 16 15
f 1 15 11
f 1 11 5
f 1 5 7
f 1 7 2
f 2 6 3
f 2 7 13
f 2 13 10
f 2 10 6
f 3 8 9
f 3 9 4
f 3 6 10
f 3 10 8
f 5 11 12
f 5 12 7
f 7 12 13
f 8 10 14
f 10 13 16
f 10 16 14
f 11 15 12
f 12 16 13
f 12 15 16
