# https://github.com/mikedh/trimesh
v 26.26746458 36.69573929 25.64281137
v 26.26746458 37.58631429 25.63875949
v 23.37588483 36.30485844 25.62761728
v 23.37588483 35.08337199 25.62863025
v 26.26746458 16.57226200 25.64281137
v 23.37588483 37.00888274 25.61242367
v 23.37588483 36.35594193 25.62660431
v 26.26746458 38.32587079 25.61647556
v 23.37588483 16.57226200 25.62863025
v 26.26746458 16.57226200 19.99682597
v 23.37588483 37.04441493 25.57190722
v 25.23152158 38.22815248 25.59925601
v 26.26746458 38.55240236 25.43313784
v 23.37588483 16.57226200 20.36957827
v 23.37588483 25.22040455 15.32728965
v 25.22925909 25.43360917 15.35868984
v 26.26746458 26.43522943 15.32931560
v 23.37588483 37.50191913 24.95808073
v 26.26746458 38.84111623 24.99353280
v 24.92328846 38.36806837 24.95808073
v 23.37588483 26.02880873 15.29892838
v 24.72062943 25.94219304 15.32121183
v 24.37587976 25.37142497 15.33741936
v 26.26746458 27.34579296 15.29791541
v 23.37588483 37.94387585 23.67775708
v 26.26746458 39.05432085 24.32500922
v 26.26746458 39.25864337 23.67775708
v 23.37588483 26.06212040 15.29791541
v 25.87743073 27.34579296 15.29690244
v 26.26746458 28.62502830 15.29690244
v 23.37588483 37.94387585 17.27816283
v 26.26746458 39.25642285 17.27816283
v 25.87743073 39.08097095 17.27816283
v 23.37588483 27.34579296 15.29690244
v 26.26746458 36.30485844 15.29690244
v 23.37588483 37.37755073 15.90363766
v 24.82422335 38.41470700 16.30171327
v 26.26746458 38.72340940 15.93098596
v 23.37588483 35.02563074 15.29690244
v 26.26746458 37.55077828 15.31614698
v 24.59750482 36.30485844 15.29690244
v 23.37588483 37.33757367 15.86109479
v 25.93658746 38.59015508 15.92389517
v 26.26746458 38.35918246 15.51062785
v 23.37588483 36.28043268 15.32019886
v 26.26746458 38.05270059 15.33539342
v 23.78742953 36.99555578 15.33741936
v 23.37588483 36.33373288 15.32222480
f 1 2 3
f 1 3 4
f 1 4 9
f 1 9 5
f 1 5 10
f 1 10 17
f 1 17 24
f 1 24 30
f 1 30 35
f 1 35 40
f 1 40 46
f 1 46 44
f 1 44 38
f 1 38 32
f 1 32 27
f 1 27 26
f 1 26 19
f 1 19 13
f 1 13 8
f 1 8 2
f 2 6 7
f 2 7 3
f 2 8 6
f 3 7 6
f 3 6 11
f 3 11 18
f 3 18 25
f 3 25 31
f 3 31 36
f 3 36 42
f 3 42 48
f 3 48 45
f 3 45 39
f 3 39 34
f 3 34 28
f 3 28 21
f 3 21 15
f 3 15 14
f 3 14 9
f 3 9 4
f 5 9 14
f 5 14 10
f 6 8 12
f 6 12 11
f 8 13 12
f 10 15 16
f 10 16 17
f 10 14 15
f 11 12 18
f 12 13 19
f 12 19 20
f 12 20 18
f 15 21 22
f 15 22 23
f 15 23 16
f 16 23 17
f 17 23 22
f 17 22 24
f 18 20 25
f 19 26 20
f 20 26 27
f 20 27 25
f 21 28 24
f 21 24 22
f 24 28 29
f 24 29 30
f 25 27 31
f 27 32 33
f 27 33 31
f 28 34 29
f 29 34 39
f 29 39 41
f 29 41 35
f 29 35 30
f 31 33 37
f 31 37 36
f 32 38 37
f 32 37 33
f 35 41 40
f 36 37 43
f 36 43 44
f 36 44 42
f 37 38 43
f 38 44 43
f 39 45 41
f 40 41 46
f 41 45 47
f 41 47 46
f 42 47 48
f 42 44 47
f 44 46 47
f 45 48 47

