v 89.877877 14.999706 23.067302
v 89.094090 14.999706 24.750000
v 90.153261 14.243283 23.067302
v 78.246935 14.999706 23.067302
v 90.184413 11.999853 24.750000
v 90.185659 12.000441 24.748847
v 90.969446 12.000441 23.067302
v 79.031968 14.999706 24.750000
v 78.246935 12.000441 23.067302
v 78.246935 12.000441 23.405455
v 90.976922 9.000000 23.419291
v 89.094090 9.000000 24.750000
v 90.976922 9.451035 23.067302
v 79.031968 9.000000 24.750000
v 78.411418 9.009984 23.067302
v 78.411418 9.000000 23.070926
v 78.411418 9.000000 23.418138
v 90.976922 9.000000 23.067302
v 80.454995 9.000000 23.067302
f 1 2 3
f 1 3 7
f 1 7 13
f 1 13 18
f 1 18 19
f 1 19 15
f 1 15 9
f 1 9 4
f 1 4 8
f 1 8 2
f 2 5 6
f 2 6 7
f 2 7 3
f 2 8 14
f 2 14 12
f 2 12 5
f 4 9 10
f 4 10 8
f 5 11 6
f 5 12 11
f 6 11 7
f 7 11 13
f 8 10 14
f 9 15 16
f 9 16 17
f 9 17 10
f 10 17 14
f 11 18 13
f 11 12 14
f 11 14 17
f 11 17 16
f 11 16 19
f 11 19 18
f 15 19 16
