v 103.375360 12.001028 -8.932370
v 103.606820 9.000000 -8.932370
v 103.375360 12.001028 -8.586014
v 103.375360 12.445015 -8.932370
v 105.586686 9.000000 -8.932370
v 103.606820 9.000000 -8.445364
v 104.164416 9.000000 -7.250000
v 104.164416 14.999706 -7.250000
v 103.379663 14.999706 -8.932370
v 104.802854 9.000000 -7.250000
v 106.515601 11.551167 -8.932370
v 104.802854 14.999706 -7.250000
v 105.586991 14.999706 -8.932370
v 106.515601 11.999853 -8.582062
v 105.894069 11.999853 -7.250000
v 106.515601 11.999853 -8.932370
v 106.514987 12.449714 -8.932370
f 1 2 6
f 1 6 3
f 1 3 4
f 1 4 9
f 1 9 13
f 1 13 17
f 1 17 16
f 1 16 11
f 1 11 5
f 1 5 2
f 2 5 10
f 2 10 7
f 2 7 6
f 3 6 7
f 3 7 8
f 3 8 9
f 3 9 4
f 5 11 10
f 7 10 15
f 7 15 12
f 7 12 8
f 8 12 13
f 8 13 9
f 10 11 14
f 10 14 15
f 11 16 14
f 12 15 14
f 12 14 13
f 13 14 17
f 14 16 17
