# https://github.com/mikedh/trimesh
v 114.62719757 21.27702528 17.37126840
v 118.68247673 21.27702528 15.34893595
v 114.62719757 21.27702528 22.81793652
v 114.62719757 39.39859360 15.32683372
v 119.33358618 21.27702528 15.31799360
v 114.62719757 39.90406798 15.30620422
v 114.62719757 40.14736794 15.29662773
v 124.11521316 21.27702528 22.82235658
v 114.62719757 21.28750982 22.81793652
v 120.28006726 21.27702528 15.30178415
v 114.62719757 41.07022447 15.32683372
v 124.11521316 40.39066790 15.30399514
v 124.11521316 40.14736794 15.29662773
v 120.61258878 21.27702528 15.29662773
v 124.11521316 21.27702528 15.34304126
v 124.11521316 40.14107645 22.81130547
v 114.62719757 40.14736794 22.81498917
v 114.62719757 38.88053625 22.81572649
v 114.62719757 41.50229184 15.39387675
v 119.33358618 41.07022447 15.32683372
v 124.11521316 41.06812985 15.32683372
v 124.11521316 21.28331677 15.29662773
v 123.17337535 21.27702528 15.29662773
v 124.11521316 41.26948023 22.73763330
v 114.62719757 41.42678259 22.73836966
v 114.62719757 41.70993371 15.42629182
v 118.05365646 41.70993371 15.42629182
v 124.11521316 41.23801900 15.35335601
v 124.11521316 41.42678259 22.72510852
v 114.62719757 41.51487481 22.69784892
v 114.62719757 42.16716701 15.85949235
v 121.89344563 41.70993371 15.42703009
v 124.11521316 41.70783527 15.42703009
v 120.61258878 42.38529722 16.06651422
v 124.11521316 42.33076467 22.29043622
v 114.62719757 42.35803286 22.28527885
v 114.62719757 42.38529722 16.06651422
v 124.11521316 42.38529722 16.06725058
v 124.11521316 41.88821276 15.59647856
v 124.11521316 42.46919258 16.38699264
v 124.11521316 42.67473982 21.11755616
v 114.62719757 42.46499953 21.96185213
v 114.62719757 42.70200419 17.27770309
v 124.11521316 42.70200419 17.27770309
v 124.11521316 42.70200419 19.83711423
v 114.62719757 42.70200419 19.83711423
v 114.62719757 42.67683826 20.70351242
v 114.62719757 42.66425529 21.11755616
f 1 2 5
f 1 5 10
f 1 10 14
f 1 14 23
f 1 23 15
f 1 15 8
f 1 8 3
f 1 3 9
f 1 9 18
f 1 18 17
f 1 17 25
f 1 25 30
f 1 30 36
f 1 36 42
f 1 42 48
f 1 48 47
f 1 47 46
f 1 46 43
f 1 43 37
f 1 37 31
f 1 31 26
f 1 26 19
f 1 19 11
f 1 11 7
f 1 7 6
f 1 6 4
f 1 4 2
f 2 4 6
f 2 6 7
f 2 7 5
f 3 8 9
f 5 7 10
f 7 11 12
f 7 12 13
f 7 13 22
f 7 22 23
f 7 23 14
f 7 14 10
f 8 15 22
f 8 22 13
f 8 13 12
f 8 12 21
f 8 21 28
f 8 28 33
f 8 33 39
f 8 39 38
f 8 38 40
f 8 40 44
f 8 44 45
f 8 45 41
f 8 41 35
f 8 35 29
f 8 29 24
f 8 24 16
f 8 16 17
f 8 17 18
f 8 18 9
f 11 19 20
f 11 20 12
f 12 20 21
f 15 23 22
f 16 24 25
f 16 25 17
f 19 26 27
f 19 27 20
f 20 27 21
f 21 27 28
f 24 29 25
f 25 29 30
f 26 31 27
f 27 32 33
f 27 33 28
f 27 31 34
f 27 34 32
f 29 35 30
f 30 35 36
f 31 37 34
f 32 34 38
f 32 38 39
f 32 39 33
f 34 37 40
f 34 40 38
f 35 41 42
f 35 42 36
f 37 43 40
f 40 43 44
f 41 45 46
f 41 46 47
f 41 47 48
f 41 48 42
f 43 46 45
f 43 45 44

