v 56.250891 12.001028 23.067302
v 56.256066 9.000000 23.067302
v 56.250891 12.001028 23.415668
v 56.250891 12.447365 23.067302
v 58.462666 9.000000 23.067302
v 57.040723 9.000000 24.750000
v 57.040420 14.999706 24.750000
v 56.256066 14.999706 23.067302
v 58.738224 9.757011 23.067302
v 57.678922 9.000000 24.750000
v 57.678619 14.999706 24.750000
v 58.462666 14.999706 23.067302
v 59.360895 11.467773 23.067302
v 59.360895 11.999853 23.483200
v 58.770195 11.999853 24.750000
v 58.738224 14.243283 23.067302
v 59.360895 11.999853 23.067302
v 59.360591 12.533108 23.067302
f 1 2 3
f 1 3 4
f 1 4 8
f 1 8 12
f 1 12 16
f 1 16 18
f 1 18 17
f 1 17 13
f 1 13 9
f 1 9 5
f 1 5 2
f 2 5 10
f 2 10 6
f 2 6 3
f 3 6 7
f 3 7 8
f 3 8 4
f 5 9 10
f 6 10 15
f 6 15 11
f 6 11 7
f 7 11 12
f 7 12 8
f 9 13 14
f 9 14 10
f 10 14 15
f 11 16 12
f 11 15 14
f 11 14 16
f 13 17 14
f 14 17 18
f 14 18 16
