# https://github.com/mikedh/trimesh
v 103.97603861 45.06849760 1.91868391
v 103.97244190 45.06605657 -3.19974591
v 101.41407027 45.02455524 -1.92013840
v 101.41407027 45.02455524 0.63731147
v 102.69505444 45.04408729 1.91868391
v 103.97603861 45.04408729 3.19829142
v 105.25342607 45.04896936 1.91868391
v 105.25342607 45.05141039 0.82263390
v 105.25342607 45.05141039 0.63731147
v 105.25342607 45.01479111 -3.19974591
v 105.25342607 44.80241002 -4.07693882
v 103.97244190 44.83658444 -4.14577302
v 102.69505444 44.80485105 -4.08046877
v 102.69505444 45.00990905 -3.19974591
v 106.53441406 45.03188214 -0.64053100
v 106.53441406 45.00746802 -1.92013840
v 80.94708957 42.58094636 -9.03652024
v 79.66610540 42.46865515 -9.03652024
v 101.41407027 45.02211421 0.82263390
v 79.66610540 42.46865515 8.99447218
v 80.27061517 42.53700400 8.99447218
v 101.41407027 45.00502699 1.91868391
v 103.97603861 44.81461517 4.11607886
v 105.25342607 44.79264589 4.04371470
v 105.25342607 45.00258596 3.19829142
v 106.53441406 45.00990905 1.91868391
v 102.69505444 44.98549875 3.19829142
v 80.94708957 42.58338739 8.99447218
v 102.69505444 44.77555868 4.05606955
v 106.35090196 45.03432317 0.82263390
v 106.52001960 44.82193826 -3.19974591
v 112.93214149 42.53700400 -9.03652024
v 112.36721075 42.56630018 -9.03652024
v 111.65115732 42.58826946 -9.03652024
v 110.37376986 42.59559636 -9.03652024
v 83.50546311 42.59559636 -9.03652024
v 106.53441406 45.02943730 0.63731147
v 107.90535401 44.78044074 -0.63347108
v 107.57071543 44.79996898 -1.92013840
v 107.33682656 44.72917529 -2.77262183
v 78.65858912 42.24162405 -9.03652024
v 79.02921002 42.36124217 8.99447218
v 82.82539010 42.59559636 8.99447218
v 109.09278569 42.59559636 8.99447218
v 110.37376986 42.59315533 8.99447218
v 111.65475403 42.58338739 8.99447218
v 112.93214149 42.53212194 8.99447218
v 106.06663632 44.71452910 3.94311110
v 106.51282238 44.82437929 3.18593657
v 107.34762049 44.73405735 2.75351730
v 107.55992150 44.79752795 1.91868391
v 107.83698609 44.78288177 0.82263390
v 107.67146515 44.81705620 0.82263390
v 106.53441406 45.02699627 0.82263390
v 113.63380809 42.41983072 -9.03652024
v 107.89096338 44.77799971 0.60730688
v 108.47388147 44.63641231 0.16253297
v 108.47388147 44.63641231 -0.20281701
v 114.01162622 42.30753569 -9.03652024
v 78.29876214 41.57030251 -9.03652024
v 78.67298166 42.23674199 8.99447218
v 114.00082847 42.30265363 8.99447218
v 114.34626099 41.62400900 8.99447218
v 114.45061505 41.40918687 -9.03652024
v 78.24478676 41.40918687 -9.03652024
v 78.26637653 41.41162790 8.99447218
v 114.43262008 41.41162790 8.99447218
v 114.47580343 41.13821722 -9.03652024
v 78.22679561 41.07718765 8.99447218
v 78.12244537 40.34971859 -9.03652024
v 114.53697413 40.13001440 8.99447218
v 114.55136477 40.13001440 -9.03652024
v 78.09725889 40.13001440 -9.03652024
v 78.12244537 40.13001440 8.99447218
v 114.68090340 20.13440814 8.99447218
v 114.69169733 20.13196711 -9.03652024
v 77.93173795 20.12952608 -9.03652024
v 77.93893327 20.13440814 8.99447218
v 114.45780846 20.12952608 0.82263390
v 114.68450392 20.12952608 -9.03122626
v 114.03681460 20.12952608 -9.03652024
v 78.21600167 20.12952608 0.82263390
f 1 2 3
f 1 3 4
f 1 4 5
f 1 5 6
f 1 6 7
f 1 7 8
f 1 8 9
f 1 9 2
f 2 10 11
f 2 11 12
f 2 12 13
f 2 13 14
f 2 14 3
f 2 9 15
f 2 15 16
f 2 16 10
f 3 14 17
f 3 17 18
f 3 18 20
f 3 20 4
f 4 19 5
f 4 20 21
f 4 21 19
f 5 19 22
f 5 22 6
f 6 23 24
f 6 24 25
f 6 25 26
f 6 26 7
f 6 22 27
f 6 27 28
f 6 28 29
f 6 29 23
f 7 26 30
f 7 30 8
f 8 30 15
f 8 15 9
f 10 16 31
f 10 31 32
f 10 32 11
f 11 32 33
f 11 33 12
f 12 33 34
f 12 34 35
f 12 35 36
f 12 36 17
f 12 17 13
f 13 17 14
f 15 37 38
f 15 38 16
f 15 30 37
f 16 38 39
f 16 39 40
f 16 40 31
f 17 36 35
f 17 35 34
f 17 34 33
f 17 33 32
f 17 32 55
f 17 55 59
f 17 59 64
f 17 64 68
f 17 68 72
f 17 72 76
f 17 76 81
f 17 81 77
f 17 77 73
f 17 73 70
f 17 70 65
f 17 65 60
f 17 60 41
f 17 41 18
f 18 41 42
f 18 42 20
f 19 21 22
f 20 42 61
f 20 61 66
f 20 66 69
f 20 69 74
f 20 74 78
f 20 78 75
f 20 75 71
f 20 71 67
f 20 67 63
f 20 63 62
f 20 62 47
f 20 47 46
f 20 46 45
f 20 45 44
f 20 44 43
f 20 43 28
f 20 28 21
f 21 28 27
f 21 27 22
f 23 29 28
f 23 28 43
f 23 43 44
f 23 44 45
f 23 45 46
f 23 46 24
f 24 46 47
f 24 47 48
f 24 48 25
f 25 48 49
f 25 49 26
f 26 49 50
f 26 50 51
f 26 51 52
f 26 52 53
f 26 53 54
f 26 54 30
f 30 54 37
f 31 40 55
f 31 55 32
f 37 54 53
f 37 53 56
f 37 56 38
f 38 56 57
f 38 57 58
f 38 58 39
f 39 58 59
f 39 59 55
f 39 55 40
f 41 60 61
f 41 61 42
f 47 62 50
f 47 50 49
f 47 49 48
f 50 62 51
f 51 57 52
f 51 62 57
f 52 57 56
f 52 56 53
f 57 62 59
f 57 59 58
f 59 62 63
f 59 63 64
f 60 65 66
f 60 66 61
f 63 67 64
f 64 67 68
f 65 69 66
f 65 70 69
f 67 71 68
f 68 71 72
f 69 70 73
f 69 73 74
f 71 75 72
f 72 75 76
f 73 77 78
f 73 78 74
f 75 79 80
f 75 80 76
f 75 78 82
f 75 82 79
f 76 80 81
f 77 82 78
f 77 81 80
f 77 80 79
f 77 79 82

